<?xml version="1.0" encoding="utf-8" standalone="no"?>
<!DOCTYPE svg PUBLIC "-//W3C//DTD SVG 1.1//EN"
  "http://www.w3.org/Graphics/SVG/1.1/DTD/svg11.dtd">
<!-- Created with matplotlib (http://matplotlib.org/) -->
<svg height="286.56pt" version="1.1" viewBox="0 0 288 286.56" width="288pt" xmlns="http://www.w3.org/2000/svg" xmlns:xlink="http://www.w3.org/1999/xlink">
 <defs>
  <style type="text/css">
*{stroke-linecap:butt;stroke-linejoin:round;}
  </style>
 </defs>
 <g id="figure_1">
  <g id="patch_1">
   <path d="M 0 286.56 
L 288 286.56 
L 288 0 
L 0 0 
z
" style="fill:#ffffff;"/>
  </g>
  <g id="axes_1">
   <g id="patch_2">
    <path d="M 24.19 258.8194 
L 270.81 258.8194 
L 270.81 25.3128 
L 24.19 25.3128 
z
" style="fill:#ffffff;"/>
   </g>
   <g id="matplotlib.axis_1">
    <g id="xtick_1">
     <g id="line2d_1">
      <defs>
       <path d="M 0 0 
L 0 3.5 
" id="mcbeca3c4e0" style="stroke:#000000;stroke-width:0.8;"/>
      </defs>
      <g>
       <use style="stroke:#000000;stroke-width:0.8;" x="24.19" xlink:href="#mcbeca3c4e0" y="258.8194"/>
      </g>
     </g>
     <g id="text_1">
      <!-- 65.0 -->
      <defs>
       <path d="M 33.015625 40.375 
Q 26.375 40.375 22.484375 35.828125 
Q 18.609375 31.296875 18.609375 23.390625 
Q 18.609375 15.53125 22.484375 10.953125 
Q 26.375 6.390625 33.015625 6.390625 
Q 39.65625 6.390625 43.53125 10.953125 
Q 47.40625 15.53125 47.40625 23.390625 
Q 47.40625 31.296875 43.53125 35.828125 
Q 39.65625 40.375 33.015625 40.375 
z
M 52.59375 71.296875 
L 52.59375 62.3125 
Q 48.875 64.0625 45.09375 64.984375 
Q 41.3125 65.921875 37.59375 65.921875 
Q 27.828125 65.921875 22.671875 59.328125 
Q 17.53125 52.734375 16.796875 39.40625 
Q 19.671875 43.65625 24.015625 45.921875 
Q 28.375 48.1875 33.59375 48.1875 
Q 44.578125 48.1875 50.953125 41.515625 
Q 57.328125 34.859375 57.328125 23.390625 
Q 57.328125 12.15625 50.6875 5.359375 
Q 44.046875 -1.421875 33.015625 -1.421875 
Q 20.359375 -1.421875 13.671875 8.265625 
Q 6.984375 17.96875 6.984375 36.375 
Q 6.984375 53.65625 15.1875 63.9375 
Q 23.390625 74.21875 37.203125 74.21875 
Q 40.921875 74.21875 44.703125 73.484375 
Q 48.484375 72.75 52.59375 71.296875 
z
" id="DejaVuSans-36"/>
       <path d="M 10.796875 72.90625 
L 49.515625 72.90625 
L 49.515625 64.59375 
L 19.828125 64.59375 
L 19.828125 46.734375 
Q 21.96875 47.46875 24.109375 47.828125 
Q 26.265625 48.1875 28.421875 48.1875 
Q 40.625 48.1875 47.75 41.5 
Q 54.890625 34.8125 54.890625 23.390625 
Q 54.890625 11.625 47.5625 5.09375 
Q 40.234375 -1.421875 26.90625 -1.421875 
Q 22.3125 -1.421875 17.546875 -0.640625 
Q 12.796875 0.140625 7.71875 1.703125 
L 7.71875 11.625 
Q 12.109375 9.234375 16.796875 8.0625 
Q 21.484375 6.890625 26.703125 6.890625 
Q 35.15625 6.890625 40.078125 11.328125 
Q 45.015625 15.765625 45.015625 23.390625 
Q 45.015625 31 40.078125 35.4375 
Q 35.15625 39.890625 26.703125 39.890625 
Q 22.75 39.890625 18.8125 39.015625 
Q 14.890625 38.140625 10.796875 36.28125 
z
" id="DejaVuSans-35"/>
       <path d="M 10.6875 12.40625 
L 21 12.40625 
L 21 0 
L 10.6875 0 
z
" id="DejaVuSans-2e"/>
       <path d="M 31.78125 66.40625 
Q 24.171875 66.40625 20.328125 58.90625 
Q 16.5 51.421875 16.5 36.375 
Q 16.5 21.390625 20.328125 13.890625 
Q 24.171875 6.390625 31.78125 6.390625 
Q 39.453125 6.390625 43.28125 13.890625 
Q 47.125 21.390625 47.125 36.375 
Q 47.125 51.421875 43.28125 58.90625 
Q 39.453125 66.40625 31.78125 66.40625 
z
M 31.78125 74.21875 
Q 44.046875 74.21875 50.515625 64.515625 
Q 56.984375 54.828125 56.984375 36.375 
Q 56.984375 17.96875 50.515625 8.265625 
Q 44.046875 -1.421875 31.78125 -1.421875 
Q 19.53125 -1.421875 13.0625 8.265625 
Q 6.59375 17.96875 6.59375 36.375 
Q 6.59375 54.828125 13.0625 64.515625 
Q 19.53125 74.21875 31.78125 74.21875 
z
" id="DejaVuSans-30"/>
      </defs>
      <g transform="translate(13.057188 273.417838)scale(0.1 -0.1)">
       <use xlink:href="#DejaVuSans-36"/>
       <use x="63.623047" xlink:href="#DejaVuSans-35"/>
       <use x="127.246094" xlink:href="#DejaVuSans-2e"/>
       <use x="159.033203" xlink:href="#DejaVuSans-30"/>
      </g>
     </g>
    </g>
    <g id="xtick_2">
     <g id="line2d_2">
      <g>
       <use style="stroke:#000000;stroke-width:0.8;" x="55.0175" xlink:href="#mcbeca3c4e0" y="258.8194"/>
      </g>
     </g>
     <g id="text_2">
      <!-- 67.5 -->
      <defs>
       <path d="M 8.203125 72.90625 
L 55.078125 72.90625 
L 55.078125 68.703125 
L 28.609375 0 
L 18.3125 0 
L 43.21875 64.59375 
L 8.203125 64.59375 
z
" id="DejaVuSans-37"/>
      </defs>
      <g transform="translate(43.884688 273.417838)scale(0.1 -0.1)">
       <use xlink:href="#DejaVuSans-36"/>
       <use x="63.623047" xlink:href="#DejaVuSans-37"/>
       <use x="127.246094" xlink:href="#DejaVuSans-2e"/>
       <use x="159.033203" xlink:href="#DejaVuSans-35"/>
      </g>
     </g>
    </g>
    <g id="xtick_3">
     <g id="line2d_3">
      <g>
       <use style="stroke:#000000;stroke-width:0.8;" x="85.845" xlink:href="#mcbeca3c4e0" y="258.8194"/>
      </g>
     </g>
     <g id="text_3">
      <!-- 70.0 -->
      <g transform="translate(74.712188 273.417838)scale(0.1 -0.1)">
       <use xlink:href="#DejaVuSans-37"/>
       <use x="63.623047" xlink:href="#DejaVuSans-30"/>
       <use x="127.246094" xlink:href="#DejaVuSans-2e"/>
       <use x="159.033203" xlink:href="#DejaVuSans-30"/>
      </g>
     </g>
    </g>
    <g id="xtick_4">
     <g id="line2d_4">
      <g>
       <use style="stroke:#000000;stroke-width:0.8;" x="116.6725" xlink:href="#mcbeca3c4e0" y="258.8194"/>
      </g>
     </g>
     <g id="text_4">
      <!-- 72.5 -->
      <defs>
       <path d="M 19.1875 8.296875 
L 53.609375 8.296875 
L 53.609375 0 
L 7.328125 0 
L 7.328125 8.296875 
Q 12.9375 14.109375 22.625 23.890625 
Q 32.328125 33.6875 34.8125 36.53125 
Q 39.546875 41.84375 41.421875 45.53125 
Q 43.3125 49.21875 43.3125 52.78125 
Q 43.3125 58.59375 39.234375 62.25 
Q 35.15625 65.921875 28.609375 65.921875 
Q 23.96875 65.921875 18.8125 64.3125 
Q 13.671875 62.703125 7.8125 59.421875 
L 7.8125 69.390625 
Q 13.765625 71.78125 18.9375 73 
Q 24.125 74.21875 28.421875 74.21875 
Q 39.75 74.21875 46.484375 68.546875 
Q 53.21875 62.890625 53.21875 53.421875 
Q 53.21875 48.921875 51.53125 44.890625 
Q 49.859375 40.875 45.40625 35.40625 
Q 44.1875 33.984375 37.640625 27.21875 
Q 31.109375 20.453125 19.1875 8.296875 
z
" id="DejaVuSans-32"/>
      </defs>
      <g transform="translate(105.539688 273.417838)scale(0.1 -0.1)">
       <use xlink:href="#DejaVuSans-37"/>
       <use x="63.623047" xlink:href="#DejaVuSans-32"/>
       <use x="127.246094" xlink:href="#DejaVuSans-2e"/>
       <use x="159.033203" xlink:href="#DejaVuSans-35"/>
      </g>
     </g>
    </g>
    <g id="xtick_5">
     <g id="line2d_5">
      <g>
       <use style="stroke:#000000;stroke-width:0.8;" x="147.5" xlink:href="#mcbeca3c4e0" y="258.8194"/>
      </g>
     </g>
     <g id="text_5">
      <!-- 75.0 -->
      <g transform="translate(136.367188 273.417838)scale(0.1 -0.1)">
       <use xlink:href="#DejaVuSans-37"/>
       <use x="63.623047" xlink:href="#DejaVuSans-35"/>
       <use x="127.246094" xlink:href="#DejaVuSans-2e"/>
       <use x="159.033203" xlink:href="#DejaVuSans-30"/>
      </g>
     </g>
    </g>
    <g id="xtick_6">
     <g id="line2d_6">
      <g>
       <use style="stroke:#000000;stroke-width:0.8;" x="178.3275" xlink:href="#mcbeca3c4e0" y="258.8194"/>
      </g>
     </g>
     <g id="text_6">
      <!-- 77.5 -->
      <g transform="translate(167.194688 273.417838)scale(0.1 -0.1)">
       <use xlink:href="#DejaVuSans-37"/>
       <use x="63.623047" xlink:href="#DejaVuSans-37"/>
       <use x="127.246094" xlink:href="#DejaVuSans-2e"/>
       <use x="159.033203" xlink:href="#DejaVuSans-35"/>
      </g>
     </g>
    </g>
    <g id="xtick_7">
     <g id="line2d_7">
      <g>
       <use style="stroke:#000000;stroke-width:0.8;" x="209.155" xlink:href="#mcbeca3c4e0" y="258.8194"/>
      </g>
     </g>
     <g id="text_7">
      <!-- 80.0 -->
      <defs>
       <path d="M 31.78125 34.625 
Q 24.75 34.625 20.71875 30.859375 
Q 16.703125 27.09375 16.703125 20.515625 
Q 16.703125 13.921875 20.71875 10.15625 
Q 24.75 6.390625 31.78125 6.390625 
Q 38.8125 6.390625 42.859375 10.171875 
Q 46.921875 13.96875 46.921875 20.515625 
Q 46.921875 27.09375 42.890625 30.859375 
Q 38.875 34.625 31.78125 34.625 
z
M 21.921875 38.8125 
Q 15.578125 40.375 12.03125 44.71875 
Q 8.5 49.078125 8.5 55.328125 
Q 8.5 64.0625 14.71875 69.140625 
Q 20.953125 74.21875 31.78125 74.21875 
Q 42.671875 74.21875 48.875 69.140625 
Q 55.078125 64.0625 55.078125 55.328125 
Q 55.078125 49.078125 51.53125 44.71875 
Q 48 40.375 41.703125 38.8125 
Q 48.828125 37.15625 52.796875 32.3125 
Q 56.78125 27.484375 56.78125 20.515625 
Q 56.78125 9.90625 50.3125 4.234375 
Q 43.84375 -1.421875 31.78125 -1.421875 
Q 19.734375 -1.421875 13.25 4.234375 
Q 6.78125 9.90625 6.78125 20.515625 
Q 6.78125 27.484375 10.78125 32.3125 
Q 14.796875 37.15625 21.921875 38.8125 
z
M 18.3125 54.390625 
Q 18.3125 48.734375 21.84375 45.5625 
Q 25.390625 42.390625 31.78125 42.390625 
Q 38.140625 42.390625 41.71875 45.5625 
Q 45.3125 48.734375 45.3125 54.390625 
Q 45.3125 60.0625 41.71875 63.234375 
Q 38.140625 66.40625 31.78125 66.40625 
Q 25.390625 66.40625 21.84375 63.234375 
Q 18.3125 60.0625 18.3125 54.390625 
z
" id="DejaVuSans-38"/>
      </defs>
      <g transform="translate(198.022188 273.417838)scale(0.1 -0.1)">
       <use xlink:href="#DejaVuSans-38"/>
       <use x="63.623047" xlink:href="#DejaVuSans-30"/>
       <use x="127.246094" xlink:href="#DejaVuSans-2e"/>
       <use x="159.033203" xlink:href="#DejaVuSans-30"/>
      </g>
     </g>
    </g>
    <g id="xtick_8">
     <g id="line2d_8">
      <g>
       <use style="stroke:#000000;stroke-width:0.8;" x="239.9825" xlink:href="#mcbeca3c4e0" y="258.8194"/>
      </g>
     </g>
     <g id="text_8">
      <!-- 82.5 -->
      <g transform="translate(228.849688 273.417838)scale(0.1 -0.1)">
       <use xlink:href="#DejaVuSans-38"/>
       <use x="63.623047" xlink:href="#DejaVuSans-32"/>
       <use x="127.246094" xlink:href="#DejaVuSans-2e"/>
       <use x="159.033203" xlink:href="#DejaVuSans-35"/>
      </g>
     </g>
    </g>
    <g id="xtick_9">
     <g id="line2d_9">
      <g>
       <use style="stroke:#000000;stroke-width:0.8;" x="270.81" xlink:href="#mcbeca3c4e0" y="258.8194"/>
      </g>
     </g>
     <g id="text_9">
      <!-- 85.0 -->
      <g transform="translate(259.677188 273.417838)scale(0.1 -0.1)">
       <use xlink:href="#DejaVuSans-38"/>
       <use x="63.623047" xlink:href="#DejaVuSans-35"/>
       <use x="127.246094" xlink:href="#DejaVuSans-2e"/>
       <use x="159.033203" xlink:href="#DejaVuSans-30"/>
      </g>
     </g>
    </g>
   </g>
   <g id="matplotlib.axis_2">
    <g id="ytick_1">
     <g id="line2d_10">
      <defs>
       <path d="M 0 0 
L -3.5 0 
" id="m4c1de8744b" style="stroke:#000000;stroke-width:0.8;"/>
      </defs>
      <g>
       <use style="stroke:#000000;stroke-width:0.8;" x="24.19" xlink:href="#m4c1de8744b" y="248.205464"/>
      </g>
     </g>
     <g id="text_10">
      <!-- 0 -->
      <g transform="translate(10.8275 252.004682)scale(0.1 -0.1)">
       <use xlink:href="#DejaVuSans-30"/>
      </g>
     </g>
    </g>
    <g id="ytick_2">
     <g id="line2d_11">
      <g>
       <use style="stroke:#000000;stroke-width:0.8;" x="24.19" xlink:href="#m4c1de8744b" y="35.926736"/>
      </g>
     </g>
     <g id="text_11">
      <!-- 1 -->
      <defs>
       <path d="M 12.40625 8.296875 
L 28.515625 8.296875 
L 28.515625 63.921875 
L 10.984375 60.40625 
L 10.984375 69.390625 
L 28.421875 72.90625 
L 38.28125 72.90625 
L 38.28125 8.296875 
L 54.390625 8.296875 
L 54.390625 0 
L 12.40625 0 
z
" id="DejaVuSans-31"/>
      </defs>
      <g transform="translate(10.8275 39.725955)scale(0.1 -0.1)">
       <use xlink:href="#DejaVuSans-31"/>
      </g>
     </g>
    </g>
   </g>
   <g id="line2d_12">
    <path clip-path="url(#p8b052e890e)" d="M 24.164162 248.205464 
L 101.832022 248.205464 
L 105.068183 247.066664 
L 110.461784 245.18657 
L 111.540504 245.100623 
L 116.934106 246.980717 
L 120.170267 248.055056 
L 121.248987 248.205464 
L 123.406427 248.076543 
L 127.721309 247.689781 
L 130.957469 247.378222 
L 134.19363 244.971702 
L 139.587232 240.545424 
L 141.744672 238.955401 
L 144.980833 236.129888 
L 148.216994 233.164712 
L 150.374434 231.177184 
L 151.453155 229.662365 
L 152.531875 227.878962 
L 154.689315 224.67743 
L 155.768036 223.065921 
L 157.925476 219.509858 
L 159.004196 217.866118 
L 160.082917 215.620749 
L 161.161637 209.368093 
L 164.397798 188.611856 
L 166.555238 175.33302 
L 168.712679 161.452555 
L 169.791399 157.337835 
L 170.870119 158.949344 
L 171.94884 160.184834 
L 173.02756 162.075672 
L 176.263721 166.308569 
L 177.342441 167.952308 
L 178.421161 169.391923 
L 179.499882 168.983674 
L 187.050924 146.594441 
L 188.129644 143.178041 
L 189.208364 141.706196 
L 191.365805 143.45737 
L 194.601965 145.724226 
L 195.680686 146.841539 
L 196.759406 147.518373 
L 197.838126 148.334871 
L 198.916847 147.314248 
L 203.231728 120.487993 
L 207.546609 93.833631 
L 208.625329 88.601598 
L 209.704049 90.481692 
L 211.86149 93.60802 
L 218.333811 103.54566 
L 221.569972 110.056157 
L 229.121014 124.677916 
L 236.672056 137.108024 
L 237.750776 138.343514 
L 239.908217 142.082215 
L 240.986937 143.597034 
L 244.223098 148.83981 
L 245.301818 150.322398 
L 246.380539 152.084315 
L 247.459259 153.58839 
L 250.69542 156.134575 
L 251.77414 156.789922 
L 253.93158 158.358457 
L 256.089021 159.733612 
L 257.167741 159.755099 
L 261.482622 151.858704 
L 263.640063 148.023312 
L 264.718783 145.691996 
L 265.797503 143.801158 
L 266.876224 141.362408 
L 270.112384 131.295847 
L 271.191105 127.793501 
L 271.191105 127.793501 
" style="fill:none;stroke:#191970;stroke-linecap:square;stroke-width:1.5;"/>
   </g>
   <g id="line2d_13">
    <path clip-path="url(#p8b052e890e)" d="M 24.164162 35.596598 
L 25.242883 36.192977 
L 27.400323 38.173805 
L 28.479043 38.919277 
L 30.636484 40.985302 
L 31.715204 41.688177 
L 32.793925 42.561445 
L 33.872645 43.200422 
L 34.951365 43.434713 
L 36.030085 43.349516 
L 38.187526 44.393178 
L 39.266246 45.032155 
L 41.423687 45.309045 
L 42.502407 45.798927 
L 43.581127 45.969321 
L 44.659848 45.969321 
L 45.738568 45.73503 
L 47.896008 45.820226 
L 50.053449 45.841526 
L 51.132169 45.543337 
L 52.210889 45.73503 
L 53.28961 45.777628 
L 54.36833 45.99062 
L 55.44705 45.926723 
L 56.525771 46.139715 
L 58.683211 46.310109 
L 59.761931 46.608298 
L 60.840652 46.778692 
L 61.919372 47.162078 
L 62.998092 47.289873 
L 64.076812 46.885188 
L 65.155533 46.991684 
L 66.234253 46.885188 
L 67.312973 46.650896 
L 69.470414 46.757392 
L 71.627854 46.459203 
L 72.706575 46.161014 
L 73.785295 45.500738 
L 74.864015 44.670068 
L 75.942735 44.137588 
L 77.021456 43.924595 
L 78.100176 43.456012 
L 79.178896 42.753138 
L 80.257617 41.837271 
L 81.336337 41.219594 
L 83.493777 41.176995 
L 84.572498 41.176995 
L 85.651218 41.560381 
L 86.729938 41.475185 
L 87.808658 41.624279 
L 88.887379 41.901169 
L 91.044819 41.965067 
L 94.28098 41.986366 
L 95.3597 42.41235 
L 96.438421 42.561445 
L 97.517141 42.391051 
L 99.674581 42.497547 
L 100.753302 42.880933 
L 101.832022 42.731839 
L 102.910742 42.241957 
L 105.068183 40.090735 
L 106.146903 39.38786 
L 107.225623 38.983175 
L 108.304344 38.408096 
L 109.383064 37.449631 
L 110.461784 36.64026 
L 111.540504 36.192977 
L 112.619225 36.065181 
L 114.776665 36.065181 
L 118.012826 35.575299 
L 119.091546 35.852189 
L 120.170267 35.724394 
L 121.248987 36.576363 
L 125.563868 46.523101 
L 126.642588 49.313299 
L 129.878749 56.895824 
L 130.957469 59.877715 
L 132.03619 64.13756 
L 133.11491 67.928822 
L 134.19363 72.273864 
L 138.508511 87.971393 
L 140.665952 96.384587 
L 142.823392 107.0129 
L 149.295714 137.641186 
L 160.082917 192.912675 
L 162.240357 200.622995 
L 164.397798 208.099023 
L 167.633959 219.281116 
L 169.791399 225.947773 
L 171.94884 227.949901 
L 173.02756 229.291752 
L 174.10628 230.250217 
L 175.185001 231.613367 
L 176.263721 232.486635 
L 178.421161 234.978645 
L 179.499882 235.766716 
L 180.578602 237.172465 
L 181.657322 238.280025 
L 182.736042 239.77097 
L 184.893483 242.26298 
L 185.972203 243.881721 
L 187.050924 244.776288 
L 188.129644 245.457864 
L 192.444525 246.416329 
L 193.523245 246.757116 
L 194.601965 246.970109 
L 196.759406 247.097904 
L 201.074287 247.523888 
L 202.153007 247.864676 
L 205.389168 248.141566 
L 207.546609 248.205464 
L 235.593336 248.141566 
L 238.829497 248.03507 
L 243.144378 247.928574 
L 246.380539 247.715581 
L 247.459259 247.630385 
L 251.77414 248.056369 
L 255.010301 248.141566 
L 258.246461 248.098968 
L 263.640063 248.205464 
L 271.191105 248.205464 
L 271.191105 248.205464 
" style="fill:none;stroke:#b8860b;stroke-linecap:square;stroke-width:1.5;"/>
   </g>
   <g id="line2d_14">
    <path clip-path="url(#p8b052e890e)" d="M 24.164162 248.205464 
L 84.572498 248.174705 
L 91.044819 247.34423 
L 94.28098 247.005888 
L 95.3597 246.60603 
L 97.517141 246.021621 
L 99.674581 245.406454 
L 100.753302 244.945079 
L 101.832022 244.852804 
L 110.461784 248.205464 
L 111.540504 248.205464 
L 112.619225 247.836363 
L 113.697945 247.34423 
L 115.855386 246.236929 
L 120.170267 244.145362 
L 121.248987 243.43792 
L 122.327707 241.623178 
L 127.721309 230.181073 
L 129.878749 225.259737 
L 130.957469 224.213953 
L 133.11491 229.381356 
L 139.587232 243.376403 
L 140.665952 244.299154 
L 141.744672 242.945786 
L 149.295714 231.626715 
L 150.374434 229.258322 
L 151.453155 219.169585 
L 153.610595 197.731017 
L 155.768036 176.477 
L 159.004196 143.996186 
L 160.082917 138.275134 
L 165.476518 166.542054 
L 168.712679 183.428386 
L 169.791399 186.811804 
L 170.870119 189.057164 
L 171.94884 191.610106 
L 176.263721 200.806852 
L 177.342441 203.236761 
L 178.421161 205.328329 
L 179.499882 205.512879 
L 180.578602 199.884102 
L 182.736042 186.196637 
L 185.972203 165.096412 
L 187.050924 158.452609 
L 188.129644 151.039848 
L 189.208364 146.979746 
L 190.287084 150.639989 
L 192.444525 156.0227 
L 193.523245 158.852468 
L 197.838126 168.725897 
L 198.916847 169.525614 
L 199.995567 165.803854 
L 202.153007 157.376067 
L 203.231728 152.762315 
L 204.310448 148.671455 
L 207.546609 134.891716 
L 208.625329 131.139197 
L 209.704049 129.78583 
L 211.86149 125.725729 
L 212.94021 123.787953 
L 214.01893 121.511835 
L 215.097651 119.973918 
L 216.176371 117.759317 
L 217.255091 115.237132 
L 218.333811 110.592622 
L 219.412532 102.503177 
L 226.963574 40.279042 
L 228.042294 35.357707 
L 230.199734 51.505839 
L 233.435895 74.605357 
L 234.514616 83.063902 
L 236.672056 97.6126 
L 237.750776 103.733511 
L 238.829497 106.594037 
L 239.908217 108.501055 
L 245.301818 120.404535 
L 246.380539 122.465344 
L 247.459259 124.003261 
L 249.616699 130.15493 
L 253.93158 140.612768 
L 256.089021 146.180029 
L 257.167741 148.117805 
L 258.246461 148.794488 
L 260.403902 148.302355 
L 264.718783 148.179321 
L 265.797503 147.502638 
L 266.876224 145.903204 
L 267.954944 143.411778 
L 270.112384 136.6757 
L 271.191105 132.95394 
L 271.191105 132.95394 
" style="fill:none;stroke:#006400;stroke-linecap:square;stroke-width:1.5;"/>
   </g>
   <g id="line2d_15">
    <path clip-path="url(#p8b052e890e)" d="M 24.164162 157.3633 
L 32.793925 160.259896 
L 33.872645 160.767155 
L 40.344966 165.460493 
L 42.502407 166.96331 
L 43.581127 167.314125 
L 52.210889 164.512344 
L 53.28961 164.128344 
L 61.919372 159.33545 
L 62.998092 159.046265 
L 74.864015 162.416935 
L 75.942735 162.815157 
L 78.100176 163.40301 
L 82.415057 164.597678 
L 91.044819 165.157086 
L 92.12354 164.621381 
L 95.3597 159.894858 
L 98.595861 155.116187 
L 100.753302 151.882999 
L 101.832022 151.361517 
L 107.225623 158.306709 
L 109.383064 160.933082 
L 110.461784 162.284194 
L 111.540504 163.227602 
L 113.697945 163.303454 
L 115.855386 163.360343 
L 118.012826 163.303454 
L 120.170267 163.40301 
L 121.248987 162.872046 
L 130.957469 149.337218 
L 133.11491 145.435585 
L 136.351071 139.865209 
L 138.508511 136.034687 
L 139.587232 134.14787 
L 140.665952 131.92446 
L 143.902113 122.589933 
L 147.138273 113.269627 
L 149.295714 107.220436 
L 150.374434 104.674656 
L 152.531875 102.195246 
L 157.925476 95.961166 
L 160.082917 93.481756 
L 165.476518 85.436711 
L 166.555238 83.976561 
L 168.712679 80.691225 
L 169.791399 79.567668 
L 173.02756 78.56263 
L 178.421161 77.031369 
L 179.499882 76.410332 
L 188.129644 66.056544 
L 189.208364 64.596394 
L 197.838126 48.444675 
L 198.916847 47.724081 
L 202.153007 54.792533 
L 204.310448 59.637574 
L 207.546609 66.630174 
L 208.625329 68.033435 
L 217.255091 54.489125 
L 218.333811 53.517272 
L 222.648693 58.286462 
L 223.727413 59.618612 
L 226.963574 63.159948 
L 228.042294 63.780986 
L 232.357175 57.38572 
L 233.435895 55.916089 
L 235.593336 52.706605 
L 236.672056 51.170603 
L 237.750776 50.212973 
L 242.065657 55.98246 
L 244.223098 58.807944 
L 246.380539 61.64291 
L 247.459259 62.515207 
L 249.616699 60.296538 
L 252.85286 57.039646 
L 257.167741 52.735049 
L 259.325182 51.436085 
L 265.797503 47.306896 
L 266.876224 47.008229 
L 271.191105 50.393121 
L 271.191105 50.393121 
" style="fill:none;stroke:#a0522d;stroke-linecap:square;stroke-width:1.5;"/>
   </g>
   <g id="patch_3">
    <path d="M 24.19 258.8194 
L 24.19 25.3128 
" style="fill:none;stroke:#000000;stroke-linecap:square;stroke-linejoin:miter;stroke-width:0.8;"/>
   </g>
   <g id="patch_4">
    <path d="M 270.81 258.8194 
L 270.81 25.3128 
" style="fill:none;stroke:#000000;stroke-linecap:square;stroke-linejoin:miter;stroke-width:0.8;"/>
   </g>
   <g id="patch_5">
    <path d="M 24.19 258.8194 
L 270.81 258.8194 
" style="fill:none;stroke:#000000;stroke-linecap:square;stroke-linejoin:miter;stroke-width:0.8;"/>
   </g>
   <g id="patch_6">
    <path d="M 24.19 25.3128 
L 270.81 25.3128 
" style="fill:none;stroke:#000000;stroke-linecap:square;stroke-linejoin:miter;stroke-width:0.8;"/>
   </g>
   <g id="text_12">
    <!-- AG -->
    <defs>
     <path d="M 34.1875 63.1875 
L 20.796875 26.90625 
L 47.609375 26.90625 
z
M 28.609375 72.90625 
L 39.796875 72.90625 
L 67.578125 0 
L 57.328125 0 
L 50.6875 18.703125 
L 17.828125 18.703125 
L 11.1875 0 
L 0.78125 0 
z
" id="DejaVuSans-41"/>
     <path d="M 59.515625 10.40625 
L 59.515625 29.984375 
L 43.40625 29.984375 
L 43.40625 38.09375 
L 69.28125 38.09375 
L 69.28125 6.78125 
Q 63.578125 2.734375 56.6875 0.65625 
Q 49.8125 -1.421875 42 -1.421875 
Q 24.90625 -1.421875 15.25 8.5625 
Q 5.609375 18.5625 5.609375 36.375 
Q 5.609375 54.25 15.25 64.234375 
Q 24.90625 74.21875 42 74.21875 
Q 49.125 74.21875 55.546875 72.453125 
Q 61.96875 70.703125 67.390625 67.28125 
L 67.390625 56.78125 
Q 61.921875 61.421875 55.765625 63.765625 
Q 49.609375 66.109375 42.828125 66.109375 
Q 29.4375 66.109375 22.71875 58.640625 
Q 16.015625 51.171875 16.015625 36.375 
Q 16.015625 21.625 22.71875 14.15625 
Q 29.4375 6.6875 42.828125 6.6875 
Q 48.046875 6.6875 52.140625 7.59375 
Q 56.25 8.5 59.515625 10.40625 
z
" id="DejaVuSans-47"/>
    </defs>
    <g transform="translate(138.7475 19.3128)scale(0.12 -0.12)">
     <use xlink:href="#DejaVuSans-41"/>
     <use x="68.392578" xlink:href="#DejaVuSans-47"/>
    </g>
   </g>
   <g id="legend_1">
    <g id="patch_7">
     <path d="M 124.451562 92.0253 
L 170.548437 92.0253 
Q 172.548437 92.0253 172.548437 90.0253 
L 172.548437 32.3128 
Q 172.548437 30.3128 170.548437 30.3128 
L 124.451562 30.3128 
Q 122.451562 30.3128 122.451562 32.3128 
L 122.451562 90.0253 
Q 122.451562 92.0253 124.451562 92.0253 
z
" style="fill:#ffffff;opacity:0.8;stroke:#cccccc;stroke-linejoin:miter;"/>
    </g>
    <g id="line2d_16">
     <path d="M 126.451562 38.411238 
L 146.451562 38.411238 
" style="fill:none;stroke:#191970;stroke-linecap:square;stroke-width:1.5;"/>
    </g>
    <g id="line2d_17"/>
    <g id="text_13">
     <!-- Co -->
     <defs>
      <path d="M 64.40625 67.28125 
L 64.40625 56.890625 
Q 59.421875 61.53125 53.78125 63.8125 
Q 48.140625 66.109375 41.796875 66.109375 
Q 29.296875 66.109375 22.65625 58.46875 
Q 16.015625 50.828125 16.015625 36.375 
Q 16.015625 21.96875 22.65625 14.328125 
Q 29.296875 6.6875 41.796875 6.6875 
Q 48.140625 6.6875 53.78125 8.984375 
Q 59.421875 11.28125 64.40625 15.921875 
L 64.40625 5.609375 
Q 59.234375 2.09375 53.4375 0.328125 
Q 47.65625 -1.421875 41.21875 -1.421875 
Q 24.65625 -1.421875 15.125 8.703125 
Q 5.609375 18.84375 5.609375 36.375 
Q 5.609375 53.953125 15.125 64.078125 
Q 24.65625 74.21875 41.21875 74.21875 
Q 47.75 74.21875 53.53125 72.484375 
Q 59.328125 70.75 64.40625 67.28125 
z
" id="DejaVuSans-43"/>
      <path d="M 30.609375 48.390625 
Q 23.390625 48.390625 19.1875 42.75 
Q 14.984375 37.109375 14.984375 27.296875 
Q 14.984375 17.484375 19.15625 11.84375 
Q 23.34375 6.203125 30.609375 6.203125 
Q 37.796875 6.203125 41.984375 11.859375 
Q 46.1875 17.53125 46.1875 27.296875 
Q 46.1875 37.015625 41.984375 42.703125 
Q 37.796875 48.390625 30.609375 48.390625 
z
M 30.609375 56 
Q 42.328125 56 49.015625 48.375 
Q 55.71875 40.765625 55.71875 27.296875 
Q 55.71875 13.875 49.015625 6.21875 
Q 42.328125 -1.421875 30.609375 -1.421875 
Q 18.84375 -1.421875 12.171875 6.21875 
Q 5.515625 13.875 5.515625 27.296875 
Q 5.515625 40.765625 12.171875 48.375 
Q 18.84375 56 30.609375 56 
z
" id="DejaVuSans-6f"/>
     </defs>
     <g transform="translate(154.451562 41.911238)scale(0.1 -0.1)">
      <use xlink:href="#DejaVuSans-43"/>
      <use x="69.824219" xlink:href="#DejaVuSans-6f"/>
     </g>
    </g>
    <g id="line2d_18">
     <path d="M 126.451562 53.089363 
L 146.451562 53.089363 
" style="fill:none;stroke:#b8860b;stroke-linecap:square;stroke-width:1.5;"/>
    </g>
    <g id="line2d_19"/>
    <g id="text_14">
     <!-- Gd -->
     <defs>
      <path d="M 45.40625 46.390625 
L 45.40625 75.984375 
L 54.390625 75.984375 
L 54.390625 0 
L 45.40625 0 
L 45.40625 8.203125 
Q 42.578125 3.328125 38.25 0.953125 
Q 33.9375 -1.421875 27.875 -1.421875 
Q 17.96875 -1.421875 11.734375 6.484375 
Q 5.515625 14.40625 5.515625 27.296875 
Q 5.515625 40.1875 11.734375 48.09375 
Q 17.96875 56 27.875 56 
Q 33.9375 56 38.25 53.625 
Q 42.578125 51.265625 45.40625 46.390625 
z
M 14.796875 27.296875 
Q 14.796875 17.390625 18.875 11.75 
Q 22.953125 6.109375 30.078125 6.109375 
Q 37.203125 6.109375 41.296875 11.75 
Q 45.40625 17.390625 45.40625 27.296875 
Q 45.40625 37.203125 41.296875 42.84375 
Q 37.203125 48.484375 30.078125 48.484375 
Q 22.953125 48.484375 18.875 42.84375 
Q 14.796875 37.203125 14.796875 27.296875 
z
" id="DejaVuSans-64"/>
     </defs>
     <g transform="translate(154.451562 56.589363)scale(0.1 -0.1)">
      <use xlink:href="#DejaVuSans-47"/>
      <use x="77.490234" xlink:href="#DejaVuSans-64"/>
     </g>
    </g>
    <g id="line2d_20">
     <path d="M 126.451562 67.767488 
L 146.451562 67.767488 
" style="fill:none;stroke:#006400;stroke-linecap:square;stroke-width:1.5;"/>
    </g>
    <g id="line2d_21"/>
    <g id="text_15">
     <!-- Ni -->
     <defs>
      <path d="M 9.8125 72.90625 
L 23.09375 72.90625 
L 55.421875 11.921875 
L 55.421875 72.90625 
L 64.984375 72.90625 
L 64.984375 0 
L 51.703125 0 
L 19.390625 60.984375 
L 19.390625 0 
L 9.8125 0 
z
" id="DejaVuSans-4e"/>
      <path d="M 9.421875 54.6875 
L 18.40625 54.6875 
L 18.40625 0 
L 9.421875 0 
z
M 9.421875 75.984375 
L 18.40625 75.984375 
L 18.40625 64.59375 
L 9.421875 64.59375 
z
" id="DejaVuSans-69"/>
     </defs>
     <g transform="translate(154.451562 71.267488)scale(0.1 -0.1)">
      <use xlink:href="#DejaVuSans-4e"/>
      <use x="74.804688" xlink:href="#DejaVuSans-69"/>
     </g>
    </g>
    <g id="line2d_22">
     <path d="M 126.451562 82.445613 
L 146.451562 82.445613 
" style="fill:none;stroke:#a0522d;stroke-linecap:square;stroke-width:1.5;"/>
    </g>
    <g id="line2d_23"/>
    <g id="text_16">
     <!-- O -->
     <defs>
      <path d="M 39.40625 66.21875 
Q 28.65625 66.21875 22.328125 58.203125 
Q 16.015625 50.203125 16.015625 36.375 
Q 16.015625 22.609375 22.328125 14.59375 
Q 28.65625 6.59375 39.40625 6.59375 
Q 50.140625 6.59375 56.421875 14.59375 
Q 62.703125 22.609375 62.703125 36.375 
Q 62.703125 50.203125 56.421875 58.203125 
Q 50.140625 66.21875 39.40625 66.21875 
z
M 39.40625 74.21875 
Q 54.734375 74.21875 63.90625 63.9375 
Q 73.09375 53.65625 73.09375 36.375 
Q 73.09375 19.140625 63.90625 8.859375 
Q 54.734375 -1.421875 39.40625 -1.421875 
Q 24.03125 -1.421875 14.8125 8.828125 
Q 5.609375 19.09375 5.609375 36.375 
Q 5.609375 53.65625 14.8125 63.9375 
Q 24.03125 74.21875 39.40625 74.21875 
z
" id="DejaVuSans-4f"/>
     </defs>
     <g transform="translate(154.451562 85.945613)scale(0.1 -0.1)">
      <use xlink:href="#DejaVuSans-4f"/>
     </g>
    </g>
   </g>
  </g>
 </g>
 <defs>
  <clipPath id="p8b052e890e">
   <rect height="233.5066" width="246.62" x="24.19" y="25.3128"/>
  </clipPath>
 </defs>
</svg>
