<?xml version="1.0" encoding="utf-8" standalone="no"?>
<!DOCTYPE svg PUBLIC "-//W3C//DTD SVG 1.1//EN"
  "http://www.w3.org/Graphics/SVG/1.1/DTD/svg11.dtd">
<!-- Created with matplotlib (http://matplotlib.org/) -->
<svg height="358.56pt" version="1.1" viewBox="0 0 432 358.56" width="432pt" xmlns="http://www.w3.org/2000/svg" xmlns:xlink="http://www.w3.org/1999/xlink">
 <defs>
  <style type="text/css">
*{stroke-linecap:butt;stroke-linejoin:round;}
  </style>
 </defs>
 <g id="figure_1">
  <g id="patch_1">
   <path d="M 0 358.56 
L 432 358.56 
L 432 0 
L 0 0 
z
" style="fill:#ffffff;"/>
  </g>
  <g id="axes_1">
   <g id="patch_2">
    <path d="M 33.64 330.79152 
L 410.175 330.79152 
L 410.175 25.33824 
L 33.64 25.33824 
z
" style="fill:#ffffff;"/>
   </g>
   <g id="matplotlib.axis_1">
    <g id="xtick_1">
     <g id="line2d_1">
      <defs>
       <path d="M 0 0 
L 0 3.5 
" id="m0cd3156e64" style="stroke:#000000;stroke-width:0.8;"/>
      </defs>
      <g>
       <use style="stroke:#000000;stroke-width:0.8;" x="33.64" xlink:href="#m0cd3156e64" y="330.79152"/>
      </g>
     </g>
     <g id="text_1">
      <!-- 65.0 -->
      <defs>
       <path d="M 33.015625 40.375 
Q 26.375 40.375 22.484375 35.828125 
Q 18.609375 31.296875 18.609375 23.390625 
Q 18.609375 15.53125 22.484375 10.953125 
Q 26.375 6.390625 33.015625 6.390625 
Q 39.65625 6.390625 43.53125 10.953125 
Q 47.40625 15.53125 47.40625 23.390625 
Q 47.40625 31.296875 43.53125 35.828125 
Q 39.65625 40.375 33.015625 40.375 
z
M 52.59375 71.296875 
L 52.59375 62.3125 
Q 48.875 64.0625 45.09375 64.984375 
Q 41.3125 65.921875 37.59375 65.921875 
Q 27.828125 65.921875 22.671875 59.328125 
Q 17.53125 52.734375 16.796875 39.40625 
Q 19.671875 43.65625 24.015625 45.921875 
Q 28.375 48.1875 33.59375 48.1875 
Q 44.578125 48.1875 50.953125 41.515625 
Q 57.328125 34.859375 57.328125 23.390625 
Q 57.328125 12.15625 50.6875 5.359375 
Q 44.046875 -1.421875 33.015625 -1.421875 
Q 20.359375 -1.421875 13.671875 8.265625 
Q 6.984375 17.96875 6.984375 36.375 
Q 6.984375 53.65625 15.1875 63.9375 
Q 23.390625 74.21875 37.203125 74.21875 
Q 40.921875 74.21875 44.703125 73.484375 
Q 48.484375 72.75 52.59375 71.296875 
z
" id="DejaVuSans-36"/>
       <path d="M 10.796875 72.90625 
L 49.515625 72.90625 
L 49.515625 64.59375 
L 19.828125 64.59375 
L 19.828125 46.734375 
Q 21.96875 47.46875 24.109375 47.828125 
Q 26.265625 48.1875 28.421875 48.1875 
Q 40.625 48.1875 47.75 41.5 
Q 54.890625 34.8125 54.890625 23.390625 
Q 54.890625 11.625 47.5625 5.09375 
Q 40.234375 -1.421875 26.90625 -1.421875 
Q 22.3125 -1.421875 17.546875 -0.640625 
Q 12.796875 0.140625 7.71875 1.703125 
L 7.71875 11.625 
Q 12.109375 9.234375 16.796875 8.0625 
Q 21.484375 6.890625 26.703125 6.890625 
Q 35.15625 6.890625 40.078125 11.328125 
Q 45.015625 15.765625 45.015625 23.390625 
Q 45.015625 31 40.078125 35.4375 
Q 35.15625 39.890625 26.703125 39.890625 
Q 22.75 39.890625 18.8125 39.015625 
Q 14.890625 38.140625 10.796875 36.28125 
z
" id="DejaVuSans-35"/>
       <path d="M 10.6875 12.40625 
L 21 12.40625 
L 21 0 
L 10.6875 0 
z
" id="DejaVuSans-2e"/>
       <path d="M 31.78125 66.40625 
Q 24.171875 66.40625 20.328125 58.90625 
Q 16.5 51.421875 16.5 36.375 
Q 16.5 21.390625 20.328125 13.890625 
Q 24.171875 6.390625 31.78125 6.390625 
Q 39.453125 6.390625 43.28125 13.890625 
Q 47.125 21.390625 47.125 36.375 
Q 47.125 51.421875 43.28125 58.90625 
Q 39.453125 66.40625 31.78125 66.40625 
z
M 31.78125 74.21875 
Q 44.046875 74.21875 50.515625 64.515625 
Q 56.984375 54.828125 56.984375 36.375 
Q 56.984375 17.96875 50.515625 8.265625 
Q 44.046875 -1.421875 31.78125 -1.421875 
Q 19.53125 -1.421875 13.0625 8.265625 
Q 6.59375 17.96875 6.59375 36.375 
Q 6.59375 54.828125 13.0625 64.515625 
Q 19.53125 74.21875 31.78125 74.21875 
z
" id="DejaVuSans-30"/>
      </defs>
      <g transform="translate(22.507188 345.389958)scale(0.1 -0.1)">
       <use xlink:href="#DejaVuSans-36"/>
       <use x="63.623047" xlink:href="#DejaVuSans-35"/>
       <use x="127.246094" xlink:href="#DejaVuSans-2e"/>
       <use x="159.033203" xlink:href="#DejaVuSans-30"/>
      </g>
     </g>
    </g>
    <g id="xtick_2">
     <g id="line2d_2">
      <g>
       <use style="stroke:#000000;stroke-width:0.8;" x="80.706875" xlink:href="#m0cd3156e64" y="330.79152"/>
      </g>
     </g>
     <g id="text_2">
      <!-- 67.5 -->
      <defs>
       <path d="M 8.203125 72.90625 
L 55.078125 72.90625 
L 55.078125 68.703125 
L 28.609375 0 
L 18.3125 0 
L 43.21875 64.59375 
L 8.203125 64.59375 
z
" id="DejaVuSans-37"/>
      </defs>
      <g transform="translate(69.574063 345.389958)scale(0.1 -0.1)">
       <use xlink:href="#DejaVuSans-36"/>
       <use x="63.623047" xlink:href="#DejaVuSans-37"/>
       <use x="127.246094" xlink:href="#DejaVuSans-2e"/>
       <use x="159.033203" xlink:href="#DejaVuSans-35"/>
      </g>
     </g>
    </g>
    <g id="xtick_3">
     <g id="line2d_3">
      <g>
       <use style="stroke:#000000;stroke-width:0.8;" x="127.77375" xlink:href="#m0cd3156e64" y="330.79152"/>
      </g>
     </g>
     <g id="text_3">
      <!-- 70.0 -->
      <g transform="translate(116.640938 345.389958)scale(0.1 -0.1)">
       <use xlink:href="#DejaVuSans-37"/>
       <use x="63.623047" xlink:href="#DejaVuSans-30"/>
       <use x="127.246094" xlink:href="#DejaVuSans-2e"/>
       <use x="159.033203" xlink:href="#DejaVuSans-30"/>
      </g>
     </g>
    </g>
    <g id="xtick_4">
     <g id="line2d_4">
      <g>
       <use style="stroke:#000000;stroke-width:0.8;" x="174.840625" xlink:href="#m0cd3156e64" y="330.79152"/>
      </g>
     </g>
     <g id="text_4">
      <!-- 72.5 -->
      <defs>
       <path d="M 19.1875 8.296875 
L 53.609375 8.296875 
L 53.609375 0 
L 7.328125 0 
L 7.328125 8.296875 
Q 12.9375 14.109375 22.625 23.890625 
Q 32.328125 33.6875 34.8125 36.53125 
Q 39.546875 41.84375 41.421875 45.53125 
Q 43.3125 49.21875 43.3125 52.78125 
Q 43.3125 58.59375 39.234375 62.25 
Q 35.15625 65.921875 28.609375 65.921875 
Q 23.96875 65.921875 18.8125 64.3125 
Q 13.671875 62.703125 7.8125 59.421875 
L 7.8125 69.390625 
Q 13.765625 71.78125 18.9375 73 
Q 24.125 74.21875 28.421875 74.21875 
Q 39.75 74.21875 46.484375 68.546875 
Q 53.21875 62.890625 53.21875 53.421875 
Q 53.21875 48.921875 51.53125 44.890625 
Q 49.859375 40.875 45.40625 35.40625 
Q 44.1875 33.984375 37.640625 27.21875 
Q 31.109375 20.453125 19.1875 8.296875 
z
" id="DejaVuSans-32"/>
      </defs>
      <g transform="translate(163.707813 345.389958)scale(0.1 -0.1)">
       <use xlink:href="#DejaVuSans-37"/>
       <use x="63.623047" xlink:href="#DejaVuSans-32"/>
       <use x="127.246094" xlink:href="#DejaVuSans-2e"/>
       <use x="159.033203" xlink:href="#DejaVuSans-35"/>
      </g>
     </g>
    </g>
    <g id="xtick_5">
     <g id="line2d_5">
      <g>
       <use style="stroke:#000000;stroke-width:0.8;" x="221.9075" xlink:href="#m0cd3156e64" y="330.79152"/>
      </g>
     </g>
     <g id="text_5">
      <!-- 75.0 -->
      <g transform="translate(210.774688 345.389958)scale(0.1 -0.1)">
       <use xlink:href="#DejaVuSans-37"/>
       <use x="63.623047" xlink:href="#DejaVuSans-35"/>
       <use x="127.246094" xlink:href="#DejaVuSans-2e"/>
       <use x="159.033203" xlink:href="#DejaVuSans-30"/>
      </g>
     </g>
    </g>
    <g id="xtick_6">
     <g id="line2d_6">
      <g>
       <use style="stroke:#000000;stroke-width:0.8;" x="268.974375" xlink:href="#m0cd3156e64" y="330.79152"/>
      </g>
     </g>
     <g id="text_6">
      <!-- 77.5 -->
      <g transform="translate(257.841563 345.389958)scale(0.1 -0.1)">
       <use xlink:href="#DejaVuSans-37"/>
       <use x="63.623047" xlink:href="#DejaVuSans-37"/>
       <use x="127.246094" xlink:href="#DejaVuSans-2e"/>
       <use x="159.033203" xlink:href="#DejaVuSans-35"/>
      </g>
     </g>
    </g>
    <g id="xtick_7">
     <g id="line2d_7">
      <g>
       <use style="stroke:#000000;stroke-width:0.8;" x="316.04125" xlink:href="#m0cd3156e64" y="330.79152"/>
      </g>
     </g>
     <g id="text_7">
      <!-- 80.0 -->
      <defs>
       <path d="M 31.78125 34.625 
Q 24.75 34.625 20.71875 30.859375 
Q 16.703125 27.09375 16.703125 20.515625 
Q 16.703125 13.921875 20.71875 10.15625 
Q 24.75 6.390625 31.78125 6.390625 
Q 38.8125 6.390625 42.859375 10.171875 
Q 46.921875 13.96875 46.921875 20.515625 
Q 46.921875 27.09375 42.890625 30.859375 
Q 38.875 34.625 31.78125 34.625 
z
M 21.921875 38.8125 
Q 15.578125 40.375 12.03125 44.71875 
Q 8.5 49.078125 8.5 55.328125 
Q 8.5 64.0625 14.71875 69.140625 
Q 20.953125 74.21875 31.78125 74.21875 
Q 42.671875 74.21875 48.875 69.140625 
Q 55.078125 64.0625 55.078125 55.328125 
Q 55.078125 49.078125 51.53125 44.71875 
Q 48 40.375 41.703125 38.8125 
Q 48.828125 37.15625 52.796875 32.3125 
Q 56.78125 27.484375 56.78125 20.515625 
Q 56.78125 9.90625 50.3125 4.234375 
Q 43.84375 -1.421875 31.78125 -1.421875 
Q 19.734375 -1.421875 13.25 4.234375 
Q 6.78125 9.90625 6.78125 20.515625 
Q 6.78125 27.484375 10.78125 32.3125 
Q 14.796875 37.15625 21.921875 38.8125 
z
M 18.3125 54.390625 
Q 18.3125 48.734375 21.84375 45.5625 
Q 25.390625 42.390625 31.78125 42.390625 
Q 38.140625 42.390625 41.71875 45.5625 
Q 45.3125 48.734375 45.3125 54.390625 
Q 45.3125 60.0625 41.71875 63.234375 
Q 38.140625 66.40625 31.78125 66.40625 
Q 25.390625 66.40625 21.84375 63.234375 
Q 18.3125 60.0625 18.3125 54.390625 
z
" id="DejaVuSans-38"/>
      </defs>
      <g transform="translate(304.908438 345.389958)scale(0.1 -0.1)">
       <use xlink:href="#DejaVuSans-38"/>
       <use x="63.623047" xlink:href="#DejaVuSans-30"/>
       <use x="127.246094" xlink:href="#DejaVuSans-2e"/>
       <use x="159.033203" xlink:href="#DejaVuSans-30"/>
      </g>
     </g>
    </g>
    <g id="xtick_8">
     <g id="line2d_8">
      <g>
       <use style="stroke:#000000;stroke-width:0.8;" x="363.108125" xlink:href="#m0cd3156e64" y="330.79152"/>
      </g>
     </g>
     <g id="text_8">
      <!-- 82.5 -->
      <g transform="translate(351.975313 345.389958)scale(0.1 -0.1)">
       <use xlink:href="#DejaVuSans-38"/>
       <use x="63.623047" xlink:href="#DejaVuSans-32"/>
       <use x="127.246094" xlink:href="#DejaVuSans-2e"/>
       <use x="159.033203" xlink:href="#DejaVuSans-35"/>
      </g>
     </g>
    </g>
    <g id="xtick_9">
     <g id="line2d_9">
      <g>
       <use style="stroke:#000000;stroke-width:0.8;" x="410.175" xlink:href="#m0cd3156e64" y="330.79152"/>
      </g>
     </g>
     <g id="text_9">
      <!-- 85.0 -->
      <g transform="translate(399.042188 345.389958)scale(0.1 -0.1)">
       <use xlink:href="#DejaVuSans-38"/>
       <use x="63.623047" xlink:href="#DejaVuSans-35"/>
       <use x="127.246094" xlink:href="#DejaVuSans-2e"/>
       <use x="159.033203" xlink:href="#DejaVuSans-30"/>
      </g>
     </g>
    </g>
   </g>
   <g id="matplotlib.axis_2">
    <g id="ytick_1">
     <g id="line2d_10">
      <defs>
       <path d="M 0 0 
L -3.5 0 
" id="m4924278d0b" style="stroke:#000000;stroke-width:0.8;"/>
      </defs>
      <g>
       <use style="stroke:#000000;stroke-width:0.8;" x="33.64" xlink:href="#m4924278d0b" y="316.90728"/>
      </g>
     </g>
     <g id="text_10">
      <!-- 0.0 -->
      <g transform="translate(10.736875 320.706499)scale(0.1 -0.1)">
       <use xlink:href="#DejaVuSans-30"/>
       <use x="63.623047" xlink:href="#DejaVuSans-2e"/>
       <use x="95.410156" xlink:href="#DejaVuSans-30"/>
      </g>
     </g>
    </g>
    <g id="ytick_2">
     <g id="line2d_11">
      <g>
       <use style="stroke:#000000;stroke-width:0.8;" x="33.64" xlink:href="#m4924278d0b" y="261.37032"/>
      </g>
     </g>
     <g id="text_11">
      <!-- 0.2 -->
      <g transform="translate(10.736875 265.169539)scale(0.1 -0.1)">
       <use xlink:href="#DejaVuSans-30"/>
       <use x="63.623047" xlink:href="#DejaVuSans-2e"/>
       <use x="95.410156" xlink:href="#DejaVuSans-32"/>
      </g>
     </g>
    </g>
    <g id="ytick_3">
     <g id="line2d_12">
      <g>
       <use style="stroke:#000000;stroke-width:0.8;" x="33.64" xlink:href="#m4924278d0b" y="205.83336"/>
      </g>
     </g>
     <g id="text_12">
      <!-- 0.4 -->
      <defs>
       <path d="M 37.796875 64.3125 
L 12.890625 25.390625 
L 37.796875 25.390625 
z
M 35.203125 72.90625 
L 47.609375 72.90625 
L 47.609375 25.390625 
L 58.015625 25.390625 
L 58.015625 17.1875 
L 47.609375 17.1875 
L 47.609375 0 
L 37.796875 0 
L 37.796875 17.1875 
L 4.890625 17.1875 
L 4.890625 26.703125 
z
" id="DejaVuSans-34"/>
      </defs>
      <g transform="translate(10.736875 209.632579)scale(0.1 -0.1)">
       <use xlink:href="#DejaVuSans-30"/>
       <use x="63.623047" xlink:href="#DejaVuSans-2e"/>
       <use x="95.410156" xlink:href="#DejaVuSans-34"/>
      </g>
     </g>
    </g>
    <g id="ytick_4">
     <g id="line2d_13">
      <g>
       <use style="stroke:#000000;stroke-width:0.8;" x="33.64" xlink:href="#m4924278d0b" y="150.2964"/>
      </g>
     </g>
     <g id="text_13">
      <!-- 0.6 -->
      <g transform="translate(10.736875 154.095619)scale(0.1 -0.1)">
       <use xlink:href="#DejaVuSans-30"/>
       <use x="63.623047" xlink:href="#DejaVuSans-2e"/>
       <use x="95.410156" xlink:href="#DejaVuSans-36"/>
      </g>
     </g>
    </g>
    <g id="ytick_5">
     <g id="line2d_14">
      <g>
       <use style="stroke:#000000;stroke-width:0.8;" x="33.64" xlink:href="#m4924278d0b" y="94.75944"/>
      </g>
     </g>
     <g id="text_14">
      <!-- 0.8 -->
      <g transform="translate(10.736875 98.558659)scale(0.1 -0.1)">
       <use xlink:href="#DejaVuSans-30"/>
       <use x="63.623047" xlink:href="#DejaVuSans-2e"/>
       <use x="95.410156" xlink:href="#DejaVuSans-38"/>
      </g>
     </g>
    </g>
    <g id="ytick_6">
     <g id="line2d_15">
      <g>
       <use style="stroke:#000000;stroke-width:0.8;" x="33.64" xlink:href="#m4924278d0b" y="39.22248"/>
      </g>
     </g>
     <g id="text_15">
      <!-- 1.0 -->
      <defs>
       <path d="M 12.40625 8.296875 
L 28.515625 8.296875 
L 28.515625 63.921875 
L 10.984375 60.40625 
L 10.984375 69.390625 
L 28.421875 72.90625 
L 38.28125 72.90625 
L 38.28125 8.296875 
L 54.390625 8.296875 
L 54.390625 0 
L 12.40625 0 
z
" id="DejaVuSans-31"/>
      </defs>
      <g transform="translate(10.736875 43.021699)scale(0.1 -0.1)">
       <use xlink:href="#DejaVuSans-31"/>
       <use x="63.623047" xlink:href="#DejaVuSans-2e"/>
       <use x="95.410156" xlink:href="#DejaVuSans-30"/>
      </g>
     </g>
    </g>
   </g>
   <g id="line2d_16">
    <path clip-path="url(#pfc52e86158)" d="M 33.600552 316.90728 
L 152.182449 316.90728 
L 155.476391 315.993797 
L 158.770332 314.953832 
L 162.064274 314.012241 
L 165.358215 312.958222 
L 167.005186 312.845794 
L 171.946098 314.32142 
L 180.180952 316.71053 
L 181.827923 316.90728 
L 183.474894 316.893226 
L 188.415806 316.51378 
L 196.65066 315.825154 
L 201.591573 312.677151 
L 206.532485 309.163754 
L 208.179456 308.095682 
L 209.826427 306.887073 
L 213.120368 304.807143 
L 216.41431 302.319658 
L 219.708252 299.860281 
L 221.355222 298.454922 
L 223.002193 297.23226 
L 224.649164 295.840955 
L 226.296135 294.632347 
L 227.943106 292.650791 
L 229.590076 290.317896 
L 231.237047 288.33634 
L 239.471901 277.219954 
L 241.118872 274.282755 
L 242.765843 266.103568 
L 246.059784 247.918228 
L 254.294638 203.424575 
L 255.941609 198.042052 
L 257.58858 200.15009 
L 259.235551 201.766252 
L 260.882521 204.239683 
L 264.176463 207.907669 
L 265.823434 209.776796 
L 267.470405 211.926995 
L 269.117375 213.810175 
L 270.764346 213.276139 
L 274.058288 205.068845 
L 275.705259 200.431162 
L 277.352229 196.566426 
L 283.940113 179.519426 
L 285.587083 177.594085 
L 288.881025 179.884819 
L 292.174967 182.035018 
L 293.821937 182.850126 
L 295.468908 184.311699 
L 297.115879 185.197075 
L 298.76285 186.265147 
L 300.409821 184.930057 
L 305.350733 158.973084 
L 308.644675 141.096923 
L 313.585587 114.971307 
L 315.232558 108.127211 
L 316.879529 110.586588 
L 320.17347 114.676182 
L 328.408324 125.581764 
L 330.055295 127.675748 
L 333.349237 133.493933 
L 339.93712 144.483837 
L 343.231061 150.077164 
L 346.525003 155.319152 
L 354.759857 166.829038 
L 356.406828 169.386791 
L 358.053798 171.57915 
L 359.700769 173.195313 
L 361.34774 175.753065 
L 362.994711 178.08596 
L 364.641682 180.067516 
L 366.288652 182.344197 
L 367.935623 184.367913 
L 369.582594 186.925666 
L 371.229565 188.865061 
L 372.876536 191.169849 
L 374.523506 193.137351 
L 377.817448 195.484299 
L 386.052302 200.34684 
L 387.699273 201.176002 
L 389.346244 201.204109 
L 394.287156 193.502744 
L 397.581098 188.302917 
L 399.228068 185.857593 
L 400.875039 182.807965 
L 402.52201 180.334534 
L 404.168981 177.14437 
L 409.109893 163.97616 
L 410.756864 159.394691 
L 410.756864 159.394691 
" style="fill:none;stroke:#191970;stroke-linecap:square;stroke-width:1.5;"/>
   </g>
   <g id="line2d_17">
    <path clip-path="url(#pfc52e86158)" d="M 33.600552 38.790622 
L 35.247522 39.570753 
L 38.541464 42.161902 
L 40.188435 43.137065 
L 43.482376 45.839662 
L 45.129347 46.759102 
L 46.776318 47.901436 
L 48.423289 48.737291 
L 50.07026 49.043771 
L 51.71723 48.932323 
L 53.364201 49.545283 
L 56.658143 51.133407 
L 59.952084 51.49561 
L 61.599055 52.136432 
L 63.246026 52.359327 
L 64.892997 52.359327 
L 66.539968 52.052847 
L 69.833909 52.164294 
L 73.127851 52.192156 
L 74.774822 51.80209 
L 76.421792 52.052847 
L 78.068763 52.10857 
L 79.715734 52.387189 
L 81.362705 52.303603 
L 83.009675 52.582221 
L 86.303617 52.805116 
L 87.950588 53.195181 
L 89.597559 53.418076 
L 91.244529 53.919589 
L 92.8915 54.086759 
L 94.538471 53.557385 
L 96.185442 53.696694 
L 97.832413 53.557385 
L 99.479383 53.250905 
L 101.126354 53.390214 
L 102.773325 53.390214 
L 106.067267 53.000149 
L 107.714237 52.610083 
L 109.361208 51.746367 
L 111.008179 50.659756 
L 112.65515 49.96321 
L 114.302121 49.684592 
L 115.949091 49.071632 
L 117.596062 48.152192 
L 119.243033 46.954134 
L 120.890004 46.146142 
L 122.536975 46.062556 
L 125.830916 46.090418 
L 127.477887 46.591931 
L 129.124858 46.480483 
L 130.771829 46.675516 
L 132.418799 47.03772 
L 134.06577 47.009858 
L 137.359712 47.177029 
L 140.653653 47.149167 
L 142.300624 47.706403 
L 143.947595 47.901436 
L 145.594566 47.678541 
L 148.888507 47.817851 
L 150.535478 48.319363 
L 152.182449 48.124331 
L 153.82942 47.483509 
L 157.123361 44.669465 
L 158.770332 43.750025 
L 160.417303 43.220651 
L 162.064274 42.468382 
L 163.711244 41.2146 
L 165.358215 40.155851 
L 167.005186 39.570753 
L 168.652157 39.403582 
L 170.299128 39.459305 
L 171.946098 39.403582 
L 176.887011 38.76276 
L 178.533982 39.124964 
L 180.180952 38.957793 
L 181.827923 40.072265 
L 183.474894 43.248513 
L 185.121865 46.675516 
L 186.768836 49.573145 
L 193.356719 63.392606 
L 195.00369 66.652439 
L 196.65066 70.553093 
L 198.297631 76.125457 
L 199.944602 81.08486 
L 201.591573 86.768671 
L 204.885514 96.88251 
L 206.532485 102.427012 
L 208.179456 107.30283 
L 211.473398 118.308248 
L 214.767339 132.211295 
L 219.708252 151.742428 
L 221.355222 159.348704 
L 224.649164 172.276588 
L 234.530989 216.075364 
L 237.82493 231.009298 
L 239.471901 238.114061 
L 241.118872 244.578003 
L 244.412814 254.663981 
L 246.059784 259.372628 
L 249.353726 269.347158 
L 254.294638 283.528823 
L 255.941609 287.791681 
L 259.235551 290.410692 
L 260.882521 292.165986 
L 262.529492 293.419768 
L 264.176463 295.202924 
L 265.823434 296.345259 
L 269.117375 299.605092 
L 270.764346 300.635979 
L 272.411317 302.474859 
L 274.058288 303.923673 
L 275.705259 305.874 
L 278.9992 309.133833 
L 280.646171 311.251331 
L 282.293142 312.421527 
L 283.940113 313.313106 
L 288.881025 314.232546 
L 293.821937 315.291295 
L 295.468908 315.319156 
L 303.703762 316.015702 
L 305.350733 316.461491 
L 308.644675 316.712247 
L 311.938616 316.90728 
L 356.406828 316.823695 
L 359.700769 316.628662 
L 364.641682 316.740109 
L 374.523506 316.155011 
L 381.11139 316.712247 
L 386.052302 316.823695 
L 389.346244 316.712247 
L 397.581098 316.90728 
L 410.756864 316.90728 
L 410.756864 316.90728 
" style="fill:none;stroke:#b8860b;stroke-linecap:square;stroke-width:1.5;"/>
   </g>
   <g id="line2d_18">
    <path clip-path="url(#pfc52e86158)" d="M 33.600552 316.90728 
L 125.830916 316.867045 
L 134.06577 315.901394 
L 140.653653 315.338098 
L 142.300624 314.815038 
L 143.947595 314.493154 
L 150.535478 312.642325 
L 152.182449 312.521618 
L 155.476391 313.607975 
L 157.123361 314.332213 
L 158.770332 314.774802 
L 163.711244 316.424455 
L 165.358215 316.90728 
L 167.005186 316.90728 
L 168.652157 316.424455 
L 170.299128 315.780688 
L 171.946098 314.97598 
L 176.887011 313.044679 
L 181.827923 310.670789 
L 183.474894 308.296899 
L 188.415806 299.686517 
L 190.062777 296.266506 
L 191.709748 293.32932 
L 195.00369 286.891651 
L 196.65066 285.523647 
L 198.297631 289.064364 
L 203.238544 298.51969 
L 208.179456 307.653132 
L 209.826427 310.590318 
L 211.473398 311.797381 
L 213.120368 310.027022 
L 224.649164 295.220385 
L 226.296135 292.122257 
L 227.943106 278.925037 
L 229.590076 264.239106 
L 232.884018 237.361841 
L 239.471901 180.589653 
L 241.118872 173.105864 
L 247.706755 202.920315 
L 251.000697 217.445304 
L 254.294638 232.171471 
L 255.941609 236.597368 
L 257.58858 239.534554 
L 259.235551 242.874094 
L 264.176463 251.806359 
L 267.470405 258.083086 
L 269.117375 260.819095 
L 270.764346 261.060507 
L 272.411317 253.697424 
L 275.705259 235.792659 
L 280.646171 208.191156 
L 282.293142 199.500304 
L 283.940113 189.803566 
L 285.587083 184.492489 
L 287.234054 189.280505 
L 288.881025 192.660281 
L 292.174967 200.023364 
L 298.76285 212.938936 
L 300.409821 213.985058 
L 302.056791 209.116571 
L 305.350733 198.092064 
L 306.997704 192.05675 
L 308.644675 186.705438 
L 310.291645 180.549418 
L 311.938616 175.037164 
L 313.585587 168.679967 
L 315.232558 163.771245 
L 316.879529 162.000886 
L 318.526499 159.224641 
L 321.820441 154.154977 
L 323.467412 151.177556 
L 325.114383 149.165784 
L 326.761353 146.268834 
L 328.408324 142.969529 
L 330.055295 136.893979 
L 331.702266 126.312062 
L 339.93712 67.20622 
L 343.231061 44.915793 
L 344.878032 38.478125 
L 346.525003 49.502632 
L 353.112886 89.81853 
L 354.759857 100.883272 
L 356.406828 110.781187 
L 358.053798 119.914629 
L 359.700769 127.921479 
L 361.34774 131.663374 
L 362.994711 134.15797 
L 369.582594 146.671188 
L 371.229565 149.72908 
L 372.876536 152.424854 
L 374.523506 154.436625 
L 377.817448 162.483711 
L 381.11139 169.404204 
L 387.699273 183.446368 
L 389.346244 185.9812 
L 390.993214 186.86638 
L 394.287156 186.222613 
L 400.875039 186.061671 
L 402.52201 185.176492 
L 404.168981 183.08425 
L 405.815952 179.82518 
L 407.462922 175.640696 
L 410.756864 166.145135 
L 410.756864 166.145135 
" style="fill:none;stroke:#006400;stroke-linecap:square;stroke-width:1.5;"/>
   </g>
   <g id="line2d_19">
    <path clip-path="url(#pfc52e86158)" d="M 33.600552 198.075364 
L 43.482376 200.903218 
L 48.423289 202.527995 
L 58.305114 208.667416 
L 61.599055 210.633271 
L 63.246026 211.092178 
L 74.774822 207.923244 
L 78.068763 206.924813 
L 89.597559 201.43034 
L 91.244529 200.655161 
L 92.8915 200.276873 
L 111.008179 204.686094 
L 112.65515 205.207015 
L 115.949091 205.975993 
L 122.536975 207.538755 
L 130.771829 207.99146 
L 135.712741 208.270524 
L 137.359712 207.569762 
L 142.300624 201.38693 
L 145.594566 197.231968 
L 150.535478 190.906504 
L 152.182449 190.224346 
L 157.123361 195.644401 
L 160.417303 199.309449 
L 162.064274 200.934226 
L 165.358215 204.512454 
L 167.005186 205.74654 
L 170.299128 205.845763 
L 173.593069 205.92018 
L 176.887011 205.845763 
L 180.180952 205.975993 
L 181.827923 205.281432 
L 195.00369 189.647612 
L 196.65066 187.576332 
L 199.944602 182.472551 
L 204.885514 175.185863 
L 206.532485 172.525447 
L 209.826427 167.706932 
L 211.473398 164.798458 
L 214.767339 156.569153 
L 221.355222 140.395807 
L 224.649164 132.482775 
L 226.296135 129.152604 
L 227.943106 127.608446 
L 231.237047 124.241067 
L 236.17796 119.403947 
L 241.118872 114.511014 
L 249.353726 103.987177 
L 251.000697 102.077134 
L 254.294638 97.779539 
L 255.941609 96.309799 
L 259.235551 95.391986 
L 269.117375 92.992031 
L 270.764346 92.179643 
L 275.705259 87.020048 
L 280.646171 82.083705 
L 282.293142 80.502339 
L 285.587083 76.725664 
L 298.76285 55.597372 
L 300.409821 54.654753 
L 305.350733 63.901095 
L 306.997704 67.200258 
L 313.585587 79.38608 
L 315.232558 81.221705 
L 328.408324 63.504203 
L 330.055295 62.232908 
L 334.996207 66.908791 
L 336.643178 68.471553 
L 338.290149 70.214156 
L 343.231061 74.846629 
L 344.878032 75.659017 
L 349.818944 69.414171 
L 351.465915 67.29328 
L 353.112886 65.370835 
L 354.759857 63.150721 
L 358.053798 59.163197 
L 359.700769 57.910507 
L 366.288652 65.457655 
L 367.935623 67.218863 
L 372.876536 72.86217 
L 374.523506 74.003234 
L 377.817448 71.100962 
L 379.464419 69.612617 
L 384.405331 65.476259 
L 389.346244 61.209671 
L 392.640185 59.510478 
L 402.52201 54.109027 
L 404.168981 53.718337 
L 410.756864 58.146162 
L 410.756864 58.146162 
" style="fill:none;stroke:#a0522d;stroke-linecap:square;stroke-width:1.5;"/>
   </g>
   <g id="patch_3">
    <path d="M 33.64 330.79152 
L 33.64 25.33824 
" style="fill:none;stroke:#000000;stroke-linecap:square;stroke-linejoin:miter;stroke-width:0.8;"/>
   </g>
   <g id="patch_4">
    <path d="M 410.175 330.79152 
L 410.175 25.33824 
" style="fill:none;stroke:#000000;stroke-linecap:square;stroke-linejoin:miter;stroke-width:0.8;"/>
   </g>
   <g id="patch_5">
    <path d="M 33.64 330.79152 
L 410.175 330.79152 
" style="fill:none;stroke:#000000;stroke-linecap:square;stroke-linejoin:miter;stroke-width:0.8;"/>
   </g>
   <g id="patch_6">
    <path d="M 33.64 25.33824 
L 410.175 25.33824 
" style="fill:none;stroke:#000000;stroke-linecap:square;stroke-linejoin:miter;stroke-width:0.8;"/>
   </g>
   <g id="text_16">
    <!-- AG -->
    <defs>
     <path d="M 34.1875 63.1875 
L 20.796875 26.90625 
L 47.609375 26.90625 
z
M 28.609375 72.90625 
L 39.796875 72.90625 
L 67.578125 0 
L 57.328125 0 
L 50.6875 18.703125 
L 17.828125 18.703125 
L 11.1875 0 
L 0.78125 0 
z
" id="DejaVuSans-41"/>
     <path d="M 59.515625 10.40625 
L 59.515625 29.984375 
L 43.40625 29.984375 
L 43.40625 38.09375 
L 69.28125 38.09375 
L 69.28125 6.78125 
Q 63.578125 2.734375 56.6875 0.65625 
Q 49.8125 -1.421875 42 -1.421875 
Q 24.90625 -1.421875 15.25 8.5625 
Q 5.609375 18.5625 5.609375 36.375 
Q 5.609375 54.25 15.25 64.234375 
Q 24.90625 74.21875 42 74.21875 
Q 49.125 74.21875 55.546875 72.453125 
Q 61.96875 70.703125 67.390625 67.28125 
L 67.390625 56.78125 
Q 61.921875 61.421875 55.765625 63.765625 
Q 49.609375 66.109375 42.828125 66.109375 
Q 29.4375 66.109375 22.71875 58.640625 
Q 16.015625 51.171875 16.015625 36.375 
Q 16.015625 21.625 22.71875 14.15625 
Q 29.4375 6.6875 42.828125 6.6875 
Q 48.046875 6.6875 52.140625 7.59375 
Q 56.25 8.5 59.515625 10.40625 
z
" id="DejaVuSans-47"/>
    </defs>
    <g transform="translate(213.155 19.33824)scale(0.12 -0.12)">
     <use xlink:href="#DejaVuSans-41"/>
     <use x="68.392578" xlink:href="#DejaVuSans-47"/>
    </g>
   </g>
  </g>
 </g>
 <defs>
  <clipPath id="pfc52e86158">
   <rect height="305.45328" width="376.535" x="33.64" y="25.33824"/>
  </clipPath>
 </defs>
</svg>
