<?xml version="1.0" encoding="utf-8" standalone="no"?>
<!DOCTYPE svg PUBLIC "-//W3C//DTD SVG 1.1//EN"
  "http://www.w3.org/Graphics/SVG/1.1/DTD/svg11.dtd">
<!-- Created with matplotlib (http://matplotlib.org/) -->
<svg height="214.56pt" version="1.1" viewBox="0 0 576 214.56" width="576pt" xmlns="http://www.w3.org/2000/svg" xmlns:xlink="http://www.w3.org/1999/xlink">
 <defs>
  <style type="text/css">
*{stroke-linecap:butt;stroke-linejoin:round;}
  </style>
 </defs>
 <g id="figure_1">
  <g id="patch_1">
   <path d="M 0 214.56 
L 576 214.56 
L 576 0 
L 0 0 
z
" style="fill:#ffffff;"/>
  </g>
  <g id="axes_1">
   <g id="patch_2">
    <path d="M 33.64 186.865867 
L 554.085 186.865867 
L 554.085 25.2704 
L 33.64 25.2704 
z
" style="fill:#ffffff;"/>
   </g>
   <g id="matplotlib.axis_1">
    <g id="xtick_1">
     <g id="line2d_1">
      <defs>
       <path d="M 0 0 
L 0 3.5 
" id="m852ea32421" style="stroke:#000000;stroke-width:0.8;"/>
      </defs>
      <g>
       <use style="stroke:#000000;stroke-width:0.8;" x="33.64" xlink:href="#m852ea32421" y="186.865867"/>
      </g>
     </g>
     <g id="text_1">
      <!-- 65.0 -->
      <defs>
       <path d="M 33.015625 40.375 
Q 26.375 40.375 22.484375 35.828125 
Q 18.609375 31.296875 18.609375 23.390625 
Q 18.609375 15.53125 22.484375 10.953125 
Q 26.375 6.390625 33.015625 6.390625 
Q 39.65625 6.390625 43.53125 10.953125 
Q 47.40625 15.53125 47.40625 23.390625 
Q 47.40625 31.296875 43.53125 35.828125 
Q 39.65625 40.375 33.015625 40.375 
z
M 52.59375 71.296875 
L 52.59375 62.3125 
Q 48.875 64.0625 45.09375 64.984375 
Q 41.3125 65.921875 37.59375 65.921875 
Q 27.828125 65.921875 22.671875 59.328125 
Q 17.53125 52.734375 16.796875 39.40625 
Q 19.671875 43.65625 24.015625 45.921875 
Q 28.375 48.1875 33.59375 48.1875 
Q 44.578125 48.1875 50.953125 41.515625 
Q 57.328125 34.859375 57.328125 23.390625 
Q 57.328125 12.15625 50.6875 5.359375 
Q 44.046875 -1.421875 33.015625 -1.421875 
Q 20.359375 -1.421875 13.671875 8.265625 
Q 6.984375 17.96875 6.984375 36.375 
Q 6.984375 53.65625 15.1875 63.9375 
Q 23.390625 74.21875 37.203125 74.21875 
Q 40.921875 74.21875 44.703125 73.484375 
Q 48.484375 72.75 52.59375 71.296875 
z
" id="DejaVuSans-36"/>
       <path d="M 10.796875 72.90625 
L 49.515625 72.90625 
L 49.515625 64.59375 
L 19.828125 64.59375 
L 19.828125 46.734375 
Q 21.96875 47.46875 24.109375 47.828125 
Q 26.265625 48.1875 28.421875 48.1875 
Q 40.625 48.1875 47.75 41.5 
Q 54.890625 34.8125 54.890625 23.390625 
Q 54.890625 11.625 47.5625 5.09375 
Q 40.234375 -1.421875 26.90625 -1.421875 
Q 22.3125 -1.421875 17.546875 -0.640625 
Q 12.796875 0.140625 7.71875 1.703125 
L 7.71875 11.625 
Q 12.109375 9.234375 16.796875 8.0625 
Q 21.484375 6.890625 26.703125 6.890625 
Q 35.15625 6.890625 40.078125 11.328125 
Q 45.015625 15.765625 45.015625 23.390625 
Q 45.015625 31 40.078125 35.4375 
Q 35.15625 39.890625 26.703125 39.890625 
Q 22.75 39.890625 18.8125 39.015625 
Q 14.890625 38.140625 10.796875 36.28125 
z
" id="DejaVuSans-35"/>
       <path d="M 10.6875 12.40625 
L 21 12.40625 
L 21 0 
L 10.6875 0 
z
" id="DejaVuSans-2e"/>
       <path d="M 31.78125 66.40625 
Q 24.171875 66.40625 20.328125 58.90625 
Q 16.5 51.421875 16.5 36.375 
Q 16.5 21.390625 20.328125 13.890625 
Q 24.171875 6.390625 31.78125 6.390625 
Q 39.453125 6.390625 43.28125 13.890625 
Q 47.125 21.390625 47.125 36.375 
Q 47.125 51.421875 43.28125 58.90625 
Q 39.453125 66.40625 31.78125 66.40625 
z
M 31.78125 74.21875 
Q 44.046875 74.21875 50.515625 64.515625 
Q 56.984375 54.828125 56.984375 36.375 
Q 56.984375 17.96875 50.515625 8.265625 
Q 44.046875 -1.421875 31.78125 -1.421875 
Q 19.53125 -1.421875 13.0625 8.265625 
Q 6.59375 17.96875 6.59375 36.375 
Q 6.59375 54.828125 13.0625 64.515625 
Q 19.53125 74.21875 31.78125 74.21875 
z
" id="DejaVuSans-30"/>
      </defs>
      <g transform="translate(22.507188 201.464304)scale(0.1 -0.1)">
       <use xlink:href="#DejaVuSans-36"/>
       <use x="63.623047" xlink:href="#DejaVuSans-35"/>
       <use x="127.246094" xlink:href="#DejaVuSans-2e"/>
       <use x="159.033203" xlink:href="#DejaVuSans-30"/>
      </g>
     </g>
    </g>
    <g id="xtick_2">
     <g id="line2d_2">
      <g>
       <use style="stroke:#000000;stroke-width:0.8;" x="98.695625" xlink:href="#m852ea32421" y="186.865867"/>
      </g>
     </g>
     <g id="text_2">
      <!-- 67.5 -->
      <defs>
       <path d="M 8.203125 72.90625 
L 55.078125 72.90625 
L 55.078125 68.703125 
L 28.609375 0 
L 18.3125 0 
L 43.21875 64.59375 
L 8.203125 64.59375 
z
" id="DejaVuSans-37"/>
      </defs>
      <g transform="translate(87.562813 201.464304)scale(0.1 -0.1)">
       <use xlink:href="#DejaVuSans-36"/>
       <use x="63.623047" xlink:href="#DejaVuSans-37"/>
       <use x="127.246094" xlink:href="#DejaVuSans-2e"/>
       <use x="159.033203" xlink:href="#DejaVuSans-35"/>
      </g>
     </g>
    </g>
    <g id="xtick_3">
     <g id="line2d_3">
      <g>
       <use style="stroke:#000000;stroke-width:0.8;" x="163.75125" xlink:href="#m852ea32421" y="186.865867"/>
      </g>
     </g>
     <g id="text_3">
      <!-- 70.0 -->
      <g transform="translate(152.618438 201.464304)scale(0.1 -0.1)">
       <use xlink:href="#DejaVuSans-37"/>
       <use x="63.623047" xlink:href="#DejaVuSans-30"/>
       <use x="127.246094" xlink:href="#DejaVuSans-2e"/>
       <use x="159.033203" xlink:href="#DejaVuSans-30"/>
      </g>
     </g>
    </g>
    <g id="xtick_4">
     <g id="line2d_4">
      <g>
       <use style="stroke:#000000;stroke-width:0.8;" x="228.806875" xlink:href="#m852ea32421" y="186.865867"/>
      </g>
     </g>
     <g id="text_4">
      <!-- 72.5 -->
      <defs>
       <path d="M 19.1875 8.296875 
L 53.609375 8.296875 
L 53.609375 0 
L 7.328125 0 
L 7.328125 8.296875 
Q 12.9375 14.109375 22.625 23.890625 
Q 32.328125 33.6875 34.8125 36.53125 
Q 39.546875 41.84375 41.421875 45.53125 
Q 43.3125 49.21875 43.3125 52.78125 
Q 43.3125 58.59375 39.234375 62.25 
Q 35.15625 65.921875 28.609375 65.921875 
Q 23.96875 65.921875 18.8125 64.3125 
Q 13.671875 62.703125 7.8125 59.421875 
L 7.8125 69.390625 
Q 13.765625 71.78125 18.9375 73 
Q 24.125 74.21875 28.421875 74.21875 
Q 39.75 74.21875 46.484375 68.546875 
Q 53.21875 62.890625 53.21875 53.421875 
Q 53.21875 48.921875 51.53125 44.890625 
Q 49.859375 40.875 45.40625 35.40625 
Q 44.1875 33.984375 37.640625 27.21875 
Q 31.109375 20.453125 19.1875 8.296875 
z
" id="DejaVuSans-32"/>
      </defs>
      <g transform="translate(217.674063 201.464304)scale(0.1 -0.1)">
       <use xlink:href="#DejaVuSans-37"/>
       <use x="63.623047" xlink:href="#DejaVuSans-32"/>
       <use x="127.246094" xlink:href="#DejaVuSans-2e"/>
       <use x="159.033203" xlink:href="#DejaVuSans-35"/>
      </g>
     </g>
    </g>
    <g id="xtick_5">
     <g id="line2d_5">
      <g>
       <use style="stroke:#000000;stroke-width:0.8;" x="293.8625" xlink:href="#m852ea32421" y="186.865867"/>
      </g>
     </g>
     <g id="text_5">
      <!-- 75.0 -->
      <g transform="translate(282.729688 201.464304)scale(0.1 -0.1)">
       <use xlink:href="#DejaVuSans-37"/>
       <use x="63.623047" xlink:href="#DejaVuSans-35"/>
       <use x="127.246094" xlink:href="#DejaVuSans-2e"/>
       <use x="159.033203" xlink:href="#DejaVuSans-30"/>
      </g>
     </g>
    </g>
    <g id="xtick_6">
     <g id="line2d_6">
      <g>
       <use style="stroke:#000000;stroke-width:0.8;" x="358.918125" xlink:href="#m852ea32421" y="186.865867"/>
      </g>
     </g>
     <g id="text_6">
      <!-- 77.5 -->
      <g transform="translate(347.785313 201.464304)scale(0.1 -0.1)">
       <use xlink:href="#DejaVuSans-37"/>
       <use x="63.623047" xlink:href="#DejaVuSans-37"/>
       <use x="127.246094" xlink:href="#DejaVuSans-2e"/>
       <use x="159.033203" xlink:href="#DejaVuSans-35"/>
      </g>
     </g>
    </g>
    <g id="xtick_7">
     <g id="line2d_7">
      <g>
       <use style="stroke:#000000;stroke-width:0.8;" x="423.97375" xlink:href="#m852ea32421" y="186.865867"/>
      </g>
     </g>
     <g id="text_7">
      <!-- 80.0 -->
      <defs>
       <path d="M 31.78125 34.625 
Q 24.75 34.625 20.71875 30.859375 
Q 16.703125 27.09375 16.703125 20.515625 
Q 16.703125 13.921875 20.71875 10.15625 
Q 24.75 6.390625 31.78125 6.390625 
Q 38.8125 6.390625 42.859375 10.171875 
Q 46.921875 13.96875 46.921875 20.515625 
Q 46.921875 27.09375 42.890625 30.859375 
Q 38.875 34.625 31.78125 34.625 
z
M 21.921875 38.8125 
Q 15.578125 40.375 12.03125 44.71875 
Q 8.5 49.078125 8.5 55.328125 
Q 8.5 64.0625 14.71875 69.140625 
Q 20.953125 74.21875 31.78125 74.21875 
Q 42.671875 74.21875 48.875 69.140625 
Q 55.078125 64.0625 55.078125 55.328125 
Q 55.078125 49.078125 51.53125 44.71875 
Q 48 40.375 41.703125 38.8125 
Q 48.828125 37.15625 52.796875 32.3125 
Q 56.78125 27.484375 56.78125 20.515625 
Q 56.78125 9.90625 50.3125 4.234375 
Q 43.84375 -1.421875 31.78125 -1.421875 
Q 19.734375 -1.421875 13.25 4.234375 
Q 6.78125 9.90625 6.78125 20.515625 
Q 6.78125 27.484375 10.78125 32.3125 
Q 14.796875 37.15625 21.921875 38.8125 
z
M 18.3125 54.390625 
Q 18.3125 48.734375 21.84375 45.5625 
Q 25.390625 42.390625 31.78125 42.390625 
Q 38.140625 42.390625 41.71875 45.5625 
Q 45.3125 48.734375 45.3125 54.390625 
Q 45.3125 60.0625 41.71875 63.234375 
Q 38.140625 66.40625 31.78125 66.40625 
Q 25.390625 66.40625 21.84375 63.234375 
Q 18.3125 60.0625 18.3125 54.390625 
z
" id="DejaVuSans-38"/>
      </defs>
      <g transform="translate(412.840938 201.464304)scale(0.1 -0.1)">
       <use xlink:href="#DejaVuSans-38"/>
       <use x="63.623047" xlink:href="#DejaVuSans-30"/>
       <use x="127.246094" xlink:href="#DejaVuSans-2e"/>
       <use x="159.033203" xlink:href="#DejaVuSans-30"/>
      </g>
     </g>
    </g>
    <g id="xtick_8">
     <g id="line2d_8">
      <g>
       <use style="stroke:#000000;stroke-width:0.8;" x="489.029375" xlink:href="#m852ea32421" y="186.865867"/>
      </g>
     </g>
     <g id="text_8">
      <!-- 82.5 -->
      <g transform="translate(477.896563 201.464304)scale(0.1 -0.1)">
       <use xlink:href="#DejaVuSans-38"/>
       <use x="63.623047" xlink:href="#DejaVuSans-32"/>
       <use x="127.246094" xlink:href="#DejaVuSans-2e"/>
       <use x="159.033203" xlink:href="#DejaVuSans-35"/>
      </g>
     </g>
    </g>
    <g id="xtick_9">
     <g id="line2d_9">
      <g>
       <use style="stroke:#000000;stroke-width:0.8;" x="554.085" xlink:href="#m852ea32421" y="186.865867"/>
      </g>
     </g>
     <g id="text_9">
      <!-- 85.0 -->
      <g transform="translate(542.952188 201.464304)scale(0.1 -0.1)">
       <use xlink:href="#DejaVuSans-38"/>
       <use x="63.623047" xlink:href="#DejaVuSans-35"/>
       <use x="127.246094" xlink:href="#DejaVuSans-2e"/>
       <use x="159.033203" xlink:href="#DejaVuSans-30"/>
      </g>
     </g>
    </g>
   </g>
   <g id="matplotlib.axis_2">
    <g id="ytick_1">
     <g id="line2d_10">
      <defs>
       <path d="M 0 0 
L -3.5 0 
" id="me817dde0f0" style="stroke:#000000;stroke-width:0.8;"/>
      </defs>
      <g>
       <use style="stroke:#000000;stroke-width:0.8;" x="33.64" xlink:href="#me817dde0f0" y="179.520618"/>
      </g>
     </g>
     <g id="text_10">
      <!-- 0.0 -->
      <g transform="translate(10.736875 183.319837)scale(0.1 -0.1)">
       <use xlink:href="#DejaVuSans-30"/>
       <use x="63.623047" xlink:href="#DejaVuSans-2e"/>
       <use x="95.410156" xlink:href="#DejaVuSans-30"/>
      </g>
     </g>
    </g>
    <g id="ytick_2">
     <g id="line2d_11">
      <g>
       <use style="stroke:#000000;stroke-width:0.8;" x="33.64" xlink:href="#me817dde0f0" y="150.139624"/>
      </g>
     </g>
     <g id="text_11">
      <!-- 0.2 -->
      <g transform="translate(10.736875 153.938843)scale(0.1 -0.1)">
       <use xlink:href="#DejaVuSans-30"/>
       <use x="63.623047" xlink:href="#DejaVuSans-2e"/>
       <use x="95.410156" xlink:href="#DejaVuSans-32"/>
      </g>
     </g>
    </g>
    <g id="ytick_3">
     <g id="line2d_12">
      <g>
       <use style="stroke:#000000;stroke-width:0.8;" x="33.64" xlink:href="#me817dde0f0" y="120.75863"/>
      </g>
     </g>
     <g id="text_12">
      <!-- 0.4 -->
      <defs>
       <path d="M 37.796875 64.3125 
L 12.890625 25.390625 
L 37.796875 25.390625 
z
M 35.203125 72.90625 
L 47.609375 72.90625 
L 47.609375 25.390625 
L 58.015625 25.390625 
L 58.015625 17.1875 
L 47.609375 17.1875 
L 47.609375 0 
L 37.796875 0 
L 37.796875 17.1875 
L 4.890625 17.1875 
L 4.890625 26.703125 
z
" id="DejaVuSans-34"/>
      </defs>
      <g transform="translate(10.736875 124.557849)scale(0.1 -0.1)">
       <use xlink:href="#DejaVuSans-30"/>
       <use x="63.623047" xlink:href="#DejaVuSans-2e"/>
       <use x="95.410156" xlink:href="#DejaVuSans-34"/>
      </g>
     </g>
    </g>
    <g id="ytick_4">
     <g id="line2d_13">
      <g>
       <use style="stroke:#000000;stroke-width:0.8;" x="33.64" xlink:href="#me817dde0f0" y="91.377636"/>
      </g>
     </g>
     <g id="text_13">
      <!-- 0.6 -->
      <g transform="translate(10.736875 95.176855)scale(0.1 -0.1)">
       <use xlink:href="#DejaVuSans-30"/>
       <use x="63.623047" xlink:href="#DejaVuSans-2e"/>
       <use x="95.410156" xlink:href="#DejaVuSans-36"/>
      </g>
     </g>
    </g>
    <g id="ytick_5">
     <g id="line2d_14">
      <g>
       <use style="stroke:#000000;stroke-width:0.8;" x="33.64" xlink:href="#me817dde0f0" y="61.996642"/>
      </g>
     </g>
     <g id="text_14">
      <!-- 0.8 -->
      <g transform="translate(10.736875 65.795861)scale(0.1 -0.1)">
       <use xlink:href="#DejaVuSans-30"/>
       <use x="63.623047" xlink:href="#DejaVuSans-2e"/>
       <use x="95.410156" xlink:href="#DejaVuSans-38"/>
      </g>
     </g>
    </g>
    <g id="ytick_6">
     <g id="line2d_15">
      <g>
       <use style="stroke:#000000;stroke-width:0.8;" x="33.64" xlink:href="#me817dde0f0" y="32.615648"/>
      </g>
     </g>
     <g id="text_15">
      <!-- 1.0 -->
      <defs>
       <path d="M 12.40625 8.296875 
L 28.515625 8.296875 
L 28.515625 63.921875 
L 10.984375 60.40625 
L 10.984375 69.390625 
L 28.421875 72.90625 
L 38.28125 72.90625 
L 38.28125 8.296875 
L 54.390625 8.296875 
L 54.390625 0 
L 12.40625 0 
z
" id="DejaVuSans-31"/>
      </defs>
      <g transform="translate(10.736875 36.414867)scale(0.1 -0.1)">
       <use xlink:href="#DejaVuSans-31"/>
       <use x="63.623047" xlink:href="#DejaVuSans-2e"/>
       <use x="95.410156" xlink:href="#DejaVuSans-30"/>
      </g>
     </g>
    </g>
   </g>
   <g id="line2d_16">
    <path clip-path="url(#pbc542f6bb2)" d="M 33.585475 179.520618 
L 197.488845 179.520618 
L 206.594588 178.487176 
L 215.700331 177.431429 
L 217.976766 177.37195 
L 231.63538 178.933266 
L 238.464688 179.520618 
L 243.017559 179.4314 
L 256.676173 179.037354 
L 258.952609 178.948136 
L 265.781916 177.282732 
L 277.164094 174.219578 
L 281.716966 173.119222 
L 288.546273 171.16386 
L 295.37558 169.111845 
L 299.928451 167.736399 
L 302.204887 166.688087 
L 304.481323 165.453904 
L 309.034194 163.238322 
L 311.31063 162.123097 
L 315.863501 159.662165 
L 318.139937 158.524635 
L 320.416373 156.970754 
L 322.692808 152.643678 
L 324.969244 147.692075 
L 338.627858 119.484299 
L 340.904294 116.636756 
L 343.18073 117.751982 
L 345.457165 118.606988 
L 347.733601 119.91552 
L 354.562908 122.844846 
L 356.839344 123.982376 
L 359.11578 124.978645 
L 361.392215 124.696121 
L 365.945087 120.354175 
L 368.221522 117.900678 
L 370.497958 115.856098 
L 379.603701 106.837639 
L 381.880137 105.819066 
L 386.433008 107.030945 
L 393.262315 108.599696 
L 395.538751 109.372919 
L 400.091622 110.406361 
L 402.368058 109.700052 
L 409.197365 95.967906 
L 413.750236 86.510791 
L 420.579543 72.689427 
L 422.855979 69.068661 
L 425.132415 70.369757 
L 429.685286 72.533295 
L 441.067465 78.30273 
L 443.3439 79.410521 
L 447.896772 82.488544 
L 457.002515 88.302587 
L 461.555386 91.261653 
L 468.384693 95.254161 
L 475.214 98.874927 
L 482.043307 102.636955 
L 484.319743 103.491962 
L 488.872614 106.079286 
L 491.14905 107.127598 
L 493.425486 108.332042 
L 495.701922 109.402658 
L 497.978357 110.755799 
L 500.254793 111.781807 
L 502.531229 113.00112 
L 504.807664 114.041997 
L 511.636971 115.804054 
L 513.913407 116.257579 
L 518.466279 117.343066 
L 523.01915 118.294725 
L 525.295586 118.309595 
L 532.124893 114.235303 
L 543.507071 107.26886 
L 545.783507 105.581151 
L 550.336378 101.105379 
L 554.88925 96.190951 
L 554.88925 96.190951 
" style="fill:none;stroke:#191970;stroke-linecap:square;stroke-width:1.5;"/>
   </g>
   <g id="line2d_17">
    <path clip-path="url(#pbc542f6bb2)" d="M 33.585475 32.38718 
L 35.86191 32.799897 
L 40.414782 34.170705 
L 42.691217 34.686601 
L 47.244089 36.116369 
L 49.520524 36.602785 
L 51.79696 37.20712 
L 54.073396 37.649316 
L 56.349832 37.811455 
L 58.626267 37.752495 
L 63.179139 38.474749 
L 65.455574 38.916945 
L 70.008446 39.108564 
L 72.284881 39.447581 
L 74.561317 39.5655 
L 76.837753 39.5655 
L 79.114189 39.403361 
L 88.219931 39.477061 
L 90.496367 39.270702 
L 97.325674 39.58024 
L 99.60211 39.53602 
L 104.154981 39.742378 
L 106.431417 39.801338 
L 113.260724 40.390933 
L 115.53716 40.479372 
L 117.813595 40.199314 
L 120.090031 40.273014 
L 126.919338 40.110875 
L 131.47221 40.007696 
L 136.025081 39.698159 
L 138.301517 39.241223 
L 140.577952 38.666367 
L 142.854388 38.297871 
L 145.130824 38.150472 
L 147.40726 37.826194 
L 149.683695 37.339779 
L 151.960131 36.705964 
L 154.236567 36.278508 
L 161.065874 36.249028 
L 163.342309 36.514346 
L 165.618745 36.455386 
L 174.724488 36.794403 
L 181.553795 36.809143 
L 183.830231 37.103941 
L 186.106666 37.20712 
L 188.383102 37.089201 
L 192.935974 37.1629 
L 195.212409 37.428218 
L 197.488845 37.325039 
L 199.765281 36.986022 
L 204.318152 35.497294 
L 206.594588 35.010878 
L 208.871023 34.730821 
L 211.147459 34.332844 
L 215.700331 33.109434 
L 217.976766 32.799897 
L 220.253202 32.711458 
L 224.806073 32.711458 
L 231.63538 32.372441 
L 233.911816 32.564059 
L 236.188252 32.47562 
L 238.464688 33.065215 
L 245.293995 38.091512 
L 254.399737 45.402491 
L 256.676173 47.127056 
L 258.952609 49.190639 
L 261.229045 52.138614 
L 263.50548 54.762312 
L 265.781916 57.769246 
L 270.334787 63.119821 
L 272.611223 66.053056 
L 274.887659 68.632534 
L 279.44053 74.454785 
L 281.716966 78.257673 
L 288.546273 88.796684 
L 290.822709 92.142636 
L 293.099144 96.166622 
L 297.652016 103.005924 
L 299.928451 106.853032 
L 302.204887 110.449561 
L 306.757759 118.585973 
L 311.31063 126.177009 
L 315.863501 134.077582 
L 318.139937 137.83625 
L 320.416373 141.255901 
L 324.969244 146.591736 
L 327.24568 149.082775 
L 331.798551 154.359651 
L 338.627858 161.862247 
L 340.904294 164.117448 
L 345.457165 165.502997 
L 347.733601 166.431609 
L 350.010037 167.094903 
L 352.286472 168.038255 
L 354.562908 168.64259 
L 359.11578 170.367155 
L 361.392215 170.912531 
L 363.668651 171.885363 
L 365.945087 172.651836 
L 368.221522 173.683627 
L 372.774394 175.408193 
L 375.050829 176.528423 
L 377.327265 177.147498 
L 379.603701 177.619174 
L 388.709444 178.282469 
L 393.262315 178.665705 
L 400.091622 178.813104 
L 404.644494 178.960503 
L 406.920929 179.048942 
L 409.197365 179.28478 
L 416.026672 179.476399 
L 422.855979 179.520618 
L 482.043307 179.432179 
L 486.596179 179.402699 
L 497.978357 179.29952 
L 504.807664 179.122642 
L 513.913407 179.417439 
L 523.01915 179.446919 
L 527.572021 179.446919 
L 541.230636 179.520618 
L 554.88925 179.520618 
L 554.88925 179.520618 
" style="fill:none;stroke:#b8860b;stroke-linecap:square;stroke-width:1.5;"/>
   </g>
   <g id="line2d_18">
    <path clip-path="url(#pbc542f6bb2)" d="M 33.585475 179.520618 
L 161.065874 179.499332 
L 177.000924 178.839468 
L 181.553795 178.690466 
L 186.106666 178.243461 
L 195.212409 177.264308 
L 197.488845 177.20045 
L 215.700331 179.520618 
L 217.976766 179.520618 
L 222.529638 178.924612 
L 227.082509 178.158318 
L 236.188252 176.710873 
L 238.464688 176.221296 
L 240.741123 174.965425 
L 247.57043 170.410232 
L 249.846866 168.600927 
L 252.123302 167.047053 
L 256.676173 163.641301 
L 258.952609 162.917579 
L 261.229045 164.790742 
L 268.058352 169.79294 
L 274.887659 174.62485 
L 277.164094 176.178724 
L 279.44053 176.817303 
L 281.716966 175.880721 
L 297.652016 168.047492 
L 299.928451 166.408474 
L 302.204887 159.426683 
L 304.481323 151.657312 
L 309.034194 137.438299 
L 318.139937 107.403827 
L 320.416373 103.44464 
L 329.522116 119.217528 
L 334.074987 126.901755 
L 338.627858 134.692412 
L 340.904294 137.033866 
L 343.18073 138.58774 
L 345.457165 140.354474 
L 352.286472 145.079954 
L 356.839344 148.400562 
L 359.11578 149.848007 
L 361.392215 149.975722 
L 363.668651 146.080394 
L 368.221522 136.608147 
L 375.050829 122.005987 
L 377.327265 117.408222 
L 379.603701 112.278309 
L 381.880137 109.468564 
L 384.156572 112.001591 
L 386.433008 113.789611 
L 390.985879 117.684939 
L 400.091622 124.517729 
L 402.368058 125.071163 
L 404.644494 122.495564 
L 409.197365 116.663214 
L 411.473801 113.470322 
L 413.750236 110.639291 
L 416.026672 107.382541 
L 418.303108 104.466366 
L 420.579543 101.103186 
L 422.855979 98.5063 
L 425.132415 97.569719 
L 429.685286 94.759973 
L 431.961722 93.418959 
L 434.238158 91.843799 
L 436.514593 90.779501 
L 438.791029 89.246913 
L 441.067465 87.501465 
L 443.3439 84.287287 
L 445.620336 78.689083 
L 450.173208 66.385805 
L 452.449643 60.340596 
L 457.002515 47.420025 
L 459.27895 41.715391 
L 461.555386 35.62761 
L 463.831822 32.221858 
L 466.108257 38.054208 
L 475.214 59.382728 
L 477.490436 65.236364 
L 479.766872 70.472707 
L 482.043307 75.304617 
L 484.319743 79.540521 
L 486.596179 81.520114 
L 488.872614 82.839843 
L 497.978357 89.459772 
L 500.254793 91.077504 
L 502.531229 92.503663 
L 504.807664 93.56796 
L 509.360536 97.82515 
L 513.913407 101.486333 
L 523.01915 108.915129 
L 525.295586 110.256144 
L 527.572021 110.724434 
L 534.401328 110.362573 
L 541.230636 110.298715 
L 543.507071 109.830425 
L 545.783507 108.723555 
L 548.059943 106.999394 
L 550.336378 104.785655 
L 554.88925 99.762171 
L 554.88925 99.762171 
" style="fill:none;stroke:#006400;stroke-linecap:square;stroke-width:1.5;"/>
   </g>
   <g id="line2d_19">
    <path clip-path="url(#pbc542f6bb2)" d="M 33.585475 116.654379 
L 51.79696 118.658933 
L 54.073396 119.009976 
L 67.73201 122.257945 
L 72.284881 123.297951 
L 74.561317 123.540729 
L 95.049238 121.336047 
L 113.260724 118.019182 
L 115.53716 117.819055 
L 149.683695 121.0539 
L 156.513002 121.660844 
L 174.724488 122.047975 
L 177.000924 121.677248 
L 183.830231 118.406314 
L 190.659538 115.099291 
L 195.212409 112.861801 
L 197.488845 112.500916 
L 208.871023 117.307253 
L 213.423895 119.124804 
L 215.700331 120.059825 
L 217.976766 120.712699 
L 233.911816 120.804561 
L 236.188252 120.834088 
L 238.464688 120.466641 
L 256.676173 112.195804 
L 258.952609 111.100024 
L 263.50548 108.399945 
L 270.334787 104.545033 
L 272.611223 103.13758 
L 277.164094 100.588416 
L 279.44053 99.049732 
L 283.993402 94.696142 
L 293.099144 86.139877 
L 297.652016 81.953606 
L 299.928451 80.191829 
L 304.481323 78.475983 
L 315.863501 74.161762 
L 320.416373 72.445916 
L 331.798551 66.878438 
L 334.074987 65.867959 
L 338.627858 63.594381 
L 340.904294 62.816837 
L 347.733601 62.121312 
L 359.11578 61.061621 
L 361.392215 60.631839 
L 379.603701 53.466624 
L 381.880137 52.456144 
L 400.091622 41.278539 
L 402.368058 40.779861 
L 409.197365 45.671499 
L 413.750236 49.024452 
L 420.579543 53.863597 
L 422.855979 54.834707 
L 441.067465 45.461529 
L 443.3439 44.78897 
L 452.449643 48.089431 
L 454.726079 49.011329 
L 461.555386 51.462069 
L 463.831822 51.891851 
L 472.937565 47.466083 
L 475.214 46.449043 
L 477.490436 45.274525 
L 482.043307 43.164985 
L 484.319743 42.502268 
L 493.425486 46.494973 
L 497.978357 48.450316 
L 502.531229 50.412221 
L 504.807664 51.015883 
L 518.466279 46.504816 
L 525.295586 44.247642 
L 532.124893 42.876277 
L 543.507071 40.491152 
L 545.783507 40.284464 
L 554.88925 42.626938 
L 554.88925 42.626938 
" style="fill:none;stroke:#a0522d;stroke-linecap:square;stroke-width:1.5;"/>
   </g>
   <g id="patch_3">
    <path d="M 33.64 186.865867 
L 33.64 25.2704 
" style="fill:none;stroke:#000000;stroke-linecap:square;stroke-linejoin:miter;stroke-width:0.8;"/>
   </g>
   <g id="patch_4">
    <path d="M 554.085 186.865867 
L 554.085 25.2704 
" style="fill:none;stroke:#000000;stroke-linecap:square;stroke-linejoin:miter;stroke-width:0.8;"/>
   </g>
   <g id="patch_5">
    <path d="M 33.64 186.865867 
L 554.085 186.865867 
" style="fill:none;stroke:#000000;stroke-linecap:square;stroke-linejoin:miter;stroke-width:0.8;"/>
   </g>
   <g id="patch_6">
    <path d="M 33.64 25.2704 
L 554.085 25.2704 
" style="fill:none;stroke:#000000;stroke-linecap:square;stroke-linejoin:miter;stroke-width:0.8;"/>
   </g>
   <g id="text_16">
    <!-- AG -->
    <defs>
     <path d="M 34.1875 63.1875 
L 20.796875 26.90625 
L 47.609375 26.90625 
z
M 28.609375 72.90625 
L 39.796875 72.90625 
L 67.578125 0 
L 57.328125 0 
L 50.6875 18.703125 
L 17.828125 18.703125 
L 11.1875 0 
L 0.78125 0 
z
" id="DejaVuSans-41"/>
     <path d="M 59.515625 10.40625 
L 59.515625 29.984375 
L 43.40625 29.984375 
L 43.40625 38.09375 
L 69.28125 38.09375 
L 69.28125 6.78125 
Q 63.578125 2.734375 56.6875 0.65625 
Q 49.8125 -1.421875 42 -1.421875 
Q 24.90625 -1.421875 15.25 8.5625 
Q 5.609375 18.5625 5.609375 36.375 
Q 5.609375 54.25 15.25 64.234375 
Q 24.90625 74.21875 42 74.21875 
Q 49.125 74.21875 55.546875 72.453125 
Q 61.96875 70.703125 67.390625 67.28125 
L 67.390625 56.78125 
Q 61.921875 61.421875 55.765625 63.765625 
Q 49.609375 66.109375 42.828125 66.109375 
Q 29.4375 66.109375 22.71875 58.640625 
Q 16.015625 51.171875 16.015625 36.375 
Q 16.015625 21.625 22.71875 14.15625 
Q 29.4375 6.6875 42.828125 6.6875 
Q 48.046875 6.6875 52.140625 7.59375 
Q 56.25 8.5 59.515625 10.40625 
z
" id="DejaVuSans-47"/>
    </defs>
    <g transform="translate(285.11 19.2704)scale(0.12 -0.12)">
     <use xlink:href="#DejaVuSans-41"/>
     <use x="68.392578" xlink:href="#DejaVuSans-47"/>
    </g>
   </g>
   <g id="legend_1">
    <g id="patch_7">
     <path d="M 40.64 91.9829 
L 86.736875 91.9829 
Q 88.736875 91.9829 88.736875 89.9829 
L 88.736875 32.2704 
Q 88.736875 30.2704 86.736875 30.2704 
L 40.64 30.2704 
Q 38.64 30.2704 38.64 32.2704 
L 38.64 89.9829 
Q 38.64 91.9829 40.64 91.9829 
z
" style="fill:#ffffff;opacity:0.8;stroke:#cccccc;stroke-linejoin:miter;"/>
    </g>
    <g id="line2d_20">
     <path d="M 42.64 38.368838 
L 62.64 38.368838 
" style="fill:none;stroke:#191970;stroke-linecap:square;stroke-width:1.5;"/>
    </g>
    <g id="line2d_21"/>
    <g id="text_17">
     <!-- Co -->
     <defs>
      <path d="M 64.40625 67.28125 
L 64.40625 56.890625 
Q 59.421875 61.53125 53.78125 63.8125 
Q 48.140625 66.109375 41.796875 66.109375 
Q 29.296875 66.109375 22.65625 58.46875 
Q 16.015625 50.828125 16.015625 36.375 
Q 16.015625 21.96875 22.65625 14.328125 
Q 29.296875 6.6875 41.796875 6.6875 
Q 48.140625 6.6875 53.78125 8.984375 
Q 59.421875 11.28125 64.40625 15.921875 
L 64.40625 5.609375 
Q 59.234375 2.09375 53.4375 0.328125 
Q 47.65625 -1.421875 41.21875 -1.421875 
Q 24.65625 -1.421875 15.125 8.703125 
Q 5.609375 18.84375 5.609375 36.375 
Q 5.609375 53.953125 15.125 64.078125 
Q 24.65625 74.21875 41.21875 74.21875 
Q 47.75 74.21875 53.53125 72.484375 
Q 59.328125 70.75 64.40625 67.28125 
z
" id="DejaVuSans-43"/>
      <path d="M 30.609375 48.390625 
Q 23.390625 48.390625 19.1875 42.75 
Q 14.984375 37.109375 14.984375 27.296875 
Q 14.984375 17.484375 19.15625 11.84375 
Q 23.34375 6.203125 30.609375 6.203125 
Q 37.796875 6.203125 41.984375 11.859375 
Q 46.1875 17.53125 46.1875 27.296875 
Q 46.1875 37.015625 41.984375 42.703125 
Q 37.796875 48.390625 30.609375 48.390625 
z
M 30.609375 56 
Q 42.328125 56 49.015625 48.375 
Q 55.71875 40.765625 55.71875 27.296875 
Q 55.71875 13.875 49.015625 6.21875 
Q 42.328125 -1.421875 30.609375 -1.421875 
Q 18.84375 -1.421875 12.171875 6.21875 
Q 5.515625 13.875 5.515625 27.296875 
Q 5.515625 40.765625 12.171875 48.375 
Q 18.84375 56 30.609375 56 
z
" id="DejaVuSans-6f"/>
     </defs>
     <g transform="translate(70.64 41.868838)scale(0.1 -0.1)">
      <use xlink:href="#DejaVuSans-43"/>
      <use x="69.824219" xlink:href="#DejaVuSans-6f"/>
     </g>
    </g>
    <g id="line2d_22">
     <path d="M 42.64 53.046963 
L 62.64 53.046963 
" style="fill:none;stroke:#b8860b;stroke-linecap:square;stroke-width:1.5;"/>
    </g>
    <g id="line2d_23"/>
    <g id="text_18">
     <!-- Gd -->
     <defs>
      <path d="M 45.40625 46.390625 
L 45.40625 75.984375 
L 54.390625 75.984375 
L 54.390625 0 
L 45.40625 0 
L 45.40625 8.203125 
Q 42.578125 3.328125 38.25 0.953125 
Q 33.9375 -1.421875 27.875 -1.421875 
Q 17.96875 -1.421875 11.734375 6.484375 
Q 5.515625 14.40625 5.515625 27.296875 
Q 5.515625 40.1875 11.734375 48.09375 
Q 17.96875 56 27.875 56 
Q 33.9375 56 38.25 53.625 
Q 42.578125 51.265625 45.40625 46.390625 
z
M 14.796875 27.296875 
Q 14.796875 17.390625 18.875 11.75 
Q 22.953125 6.109375 30.078125 6.109375 
Q 37.203125 6.109375 41.296875 11.75 
Q 45.40625 17.390625 45.40625 27.296875 
Q 45.40625 37.203125 41.296875 42.84375 
Q 37.203125 48.484375 30.078125 48.484375 
Q 22.953125 48.484375 18.875 42.84375 
Q 14.796875 37.203125 14.796875 27.296875 
z
" id="DejaVuSans-64"/>
     </defs>
     <g transform="translate(70.64 56.546963)scale(0.1 -0.1)">
      <use xlink:href="#DejaVuSans-47"/>
      <use x="77.490234" xlink:href="#DejaVuSans-64"/>
     </g>
    </g>
    <g id="line2d_24">
     <path d="M 42.64 67.725088 
L 62.64 67.725088 
" style="fill:none;stroke:#006400;stroke-linecap:square;stroke-width:1.5;"/>
    </g>
    <g id="line2d_25"/>
    <g id="text_19">
     <!-- Ni -->
     <defs>
      <path d="M 9.8125 72.90625 
L 23.09375 72.90625 
L 55.421875 11.921875 
L 55.421875 72.90625 
L 64.984375 72.90625 
L 64.984375 0 
L 51.703125 0 
L 19.390625 60.984375 
L 19.390625 0 
L 9.8125 0 
z
" id="DejaVuSans-4e"/>
      <path d="M 9.421875 54.6875 
L 18.40625 54.6875 
L 18.40625 0 
L 9.421875 0 
z
M 9.421875 75.984375 
L 18.40625 75.984375 
L 18.40625 64.59375 
L 9.421875 64.59375 
z
" id="DejaVuSans-69"/>
     </defs>
     <g transform="translate(70.64 71.225088)scale(0.1 -0.1)">
      <use xlink:href="#DejaVuSans-4e"/>
      <use x="74.804688" xlink:href="#DejaVuSans-69"/>
     </g>
    </g>
    <g id="line2d_26">
     <path d="M 42.64 82.403213 
L 62.64 82.403213 
" style="fill:none;stroke:#a0522d;stroke-linecap:square;stroke-width:1.5;"/>
    </g>
    <g id="line2d_27"/>
    <g id="text_20">
     <!-- O -->
     <defs>
      <path d="M 39.40625 66.21875 
Q 28.65625 66.21875 22.328125 58.203125 
Q 16.015625 50.203125 16.015625 36.375 
Q 16.015625 22.609375 22.328125 14.59375 
Q 28.65625 6.59375 39.40625 6.59375 
Q 50.140625 6.59375 56.421875 14.59375 
Q 62.703125 22.609375 62.703125 36.375 
Q 62.703125 50.203125 56.421875 58.203125 
Q 50.140625 66.21875 39.40625 66.21875 
z
M 39.40625 74.21875 
Q 54.734375 74.21875 63.90625 63.9375 
Q 73.09375 53.65625 73.09375 36.375 
Q 73.09375 19.140625 63.90625 8.859375 
Q 54.734375 -1.421875 39.40625 -1.421875 
Q 24.03125 -1.421875 14.8125 8.828125 
Q 5.609375 19.09375 5.609375 36.375 
Q 5.609375 53.65625 14.8125 63.9375 
Q 24.03125 74.21875 39.40625 74.21875 
z
" id="DejaVuSans-4f"/>
     </defs>
     <g transform="translate(70.64 85.903213)scale(0.1 -0.1)">
      <use xlink:href="#DejaVuSans-4f"/>
     </g>
    </g>
   </g>
  </g>
 </g>
 <defs>
  <clipPath id="pbc542f6bb2">
   <rect height="161.595467" width="520.445" x="33.64" y="25.2704"/>
  </clipPath>
 </defs>
</svg>
