<?xml version="1.0" encoding="utf-8" standalone="no"?>
<!DOCTYPE svg PUBLIC "-//W3C//DTD SVG 1.1//EN"
  "http://www.w3.org/Graphics/SVG/1.1/DTD/svg11.dtd">
<!-- Created with matplotlib (http://matplotlib.org/) -->
<svg height="286.56pt" version="1.1" viewBox="0 0 288 286.56" width="288pt" xmlns="http://www.w3.org/2000/svg" xmlns:xlink="http://www.w3.org/1999/xlink">
 <defs>
  <style type="text/css">
*{stroke-linecap:butt;stroke-linejoin:round;}
  </style>
 </defs>
 <g id="figure_1">
  <g id="patch_1">
   <path d="M 0 286.56 
L 288 286.56 
L 288 0 
L 0 0 
z
" style="fill:#ffffff;"/>
  </g>
  <g id="axes_1">
   <g id="patch_2">
    <path d="M 24.19 258.8194 
L 274.68 258.8194 
L 274.68 25.3128 
L 24.19 25.3128 
z
" style="fill:#ffffff;"/>
   </g>
   <g id="matplotlib.axis_1">
    <g id="xtick_1">
     <g id="line2d_1">
      <defs>
       <path d="M 0 0 
L 0 3.5 
" id="ma5dbf525be" style="stroke:#000000;stroke-width:0.8;"/>
      </defs>
      <g>
       <use style="stroke:#000000;stroke-width:0.8;" x="24.19" xlink:href="#ma5dbf525be" y="258.8194"/>
      </g>
     </g>
     <g id="text_1">
      <!-- 0 -->
      <defs>
       <path d="M 31.78125 66.40625 
Q 24.171875 66.40625 20.328125 58.90625 
Q 16.5 51.421875 16.5 36.375 
Q 16.5 21.390625 20.328125 13.890625 
Q 24.171875 6.390625 31.78125 6.390625 
Q 39.453125 6.390625 43.28125 13.890625 
Q 47.125 21.390625 47.125 36.375 
Q 47.125 51.421875 43.28125 58.90625 
Q 39.453125 66.40625 31.78125 66.40625 
z
M 31.78125 74.21875 
Q 44.046875 74.21875 50.515625 64.515625 
Q 56.984375 54.828125 56.984375 36.375 
Q 56.984375 17.96875 50.515625 8.265625 
Q 44.046875 -1.421875 31.78125 -1.421875 
Q 19.53125 -1.421875 13.0625 8.265625 
Q 6.59375 17.96875 6.59375 36.375 
Q 6.59375 54.828125 13.0625 64.515625 
Q 19.53125 74.21875 31.78125 74.21875 
z
" id="DejaVuSans-30"/>
      </defs>
      <g transform="translate(21.00875 273.417838)scale(0.1 -0.1)">
       <use xlink:href="#DejaVuSans-30"/>
      </g>
     </g>
    </g>
    <g id="xtick_2">
     <g id="line2d_2">
      <g>
       <use style="stroke:#000000;stroke-width:0.8;" x="62.549877" xlink:href="#ma5dbf525be" y="258.8194"/>
      </g>
     </g>
     <g id="text_2">
      <!-- 1 -->
      <defs>
       <path d="M 12.40625 8.296875 
L 28.515625 8.296875 
L 28.515625 63.921875 
L 10.984375 60.40625 
L 10.984375 69.390625 
L 28.421875 72.90625 
L 38.28125 72.90625 
L 38.28125 8.296875 
L 54.390625 8.296875 
L 54.390625 0 
L 12.40625 0 
z
" id="DejaVuSans-31"/>
      </defs>
      <g transform="translate(59.368627 273.417838)scale(0.1 -0.1)">
       <use xlink:href="#DejaVuSans-31"/>
      </g>
     </g>
    </g>
    <g id="xtick_3">
     <g id="line2d_3">
      <g>
       <use style="stroke:#000000;stroke-width:0.8;" x="100.909755" xlink:href="#ma5dbf525be" y="258.8194"/>
      </g>
     </g>
     <g id="text_3">
      <!-- 2 -->
      <defs>
       <path d="M 19.1875 8.296875 
L 53.609375 8.296875 
L 53.609375 0 
L 7.328125 0 
L 7.328125 8.296875 
Q 12.9375 14.109375 22.625 23.890625 
Q 32.328125 33.6875 34.8125 36.53125 
Q 39.546875 41.84375 41.421875 45.53125 
Q 43.3125 49.21875 43.3125 52.78125 
Q 43.3125 58.59375 39.234375 62.25 
Q 35.15625 65.921875 28.609375 65.921875 
Q 23.96875 65.921875 18.8125 64.3125 
Q 13.671875 62.703125 7.8125 59.421875 
L 7.8125 69.390625 
Q 13.765625 71.78125 18.9375 73 
Q 24.125 74.21875 28.421875 74.21875 
Q 39.75 74.21875 46.484375 68.546875 
Q 53.21875 62.890625 53.21875 53.421875 
Q 53.21875 48.921875 51.53125 44.890625 
Q 49.859375 40.875 45.40625 35.40625 
Q 44.1875 33.984375 37.640625 27.21875 
Q 31.109375 20.453125 19.1875 8.296875 
z
" id="DejaVuSans-32"/>
      </defs>
      <g transform="translate(97.728505 273.417838)scale(0.1 -0.1)">
       <use xlink:href="#DejaVuSans-32"/>
      </g>
     </g>
    </g>
    <g id="xtick_4">
     <g id="line2d_4">
      <g>
       <use style="stroke:#000000;stroke-width:0.8;" x="139.269632" xlink:href="#ma5dbf525be" y="258.8194"/>
      </g>
     </g>
     <g id="text_4">
      <!-- 3 -->
      <defs>
       <path d="M 40.578125 39.3125 
Q 47.65625 37.796875 51.625 33 
Q 55.609375 28.21875 55.609375 21.1875 
Q 55.609375 10.40625 48.1875 4.484375 
Q 40.765625 -1.421875 27.09375 -1.421875 
Q 22.515625 -1.421875 17.65625 -0.515625 
Q 12.796875 0.390625 7.625 2.203125 
L 7.625 11.71875 
Q 11.71875 9.328125 16.59375 8.109375 
Q 21.484375 6.890625 26.8125 6.890625 
Q 36.078125 6.890625 40.9375 10.546875 
Q 45.796875 14.203125 45.796875 21.1875 
Q 45.796875 27.640625 41.28125 31.265625 
Q 36.765625 34.90625 28.71875 34.90625 
L 20.21875 34.90625 
L 20.21875 43.015625 
L 29.109375 43.015625 
Q 36.375 43.015625 40.234375 45.921875 
Q 44.09375 48.828125 44.09375 54.296875 
Q 44.09375 59.90625 40.109375 62.90625 
Q 36.140625 65.921875 28.71875 65.921875 
Q 24.65625 65.921875 20.015625 65.03125 
Q 15.375 64.15625 9.8125 62.3125 
L 9.8125 71.09375 
Q 15.4375 72.65625 20.34375 73.4375 
Q 25.25 74.21875 29.59375 74.21875 
Q 40.828125 74.21875 47.359375 69.109375 
Q 53.90625 64.015625 53.90625 55.328125 
Q 53.90625 49.265625 50.4375 45.09375 
Q 46.96875 40.921875 40.578125 39.3125 
z
" id="DejaVuSans-33"/>
      </defs>
      <g transform="translate(136.088382 273.417838)scale(0.1 -0.1)">
       <use xlink:href="#DejaVuSans-33"/>
      </g>
     </g>
    </g>
    <g id="xtick_5">
     <g id="line2d_5">
      <g>
       <use style="stroke:#000000;stroke-width:0.8;" x="177.62951" xlink:href="#ma5dbf525be" y="258.8194"/>
      </g>
     </g>
     <g id="text_5">
      <!-- 4 -->
      <defs>
       <path d="M 37.796875 64.3125 
L 12.890625 25.390625 
L 37.796875 25.390625 
z
M 35.203125 72.90625 
L 47.609375 72.90625 
L 47.609375 25.390625 
L 58.015625 25.390625 
L 58.015625 17.1875 
L 47.609375 17.1875 
L 47.609375 0 
L 37.796875 0 
L 37.796875 17.1875 
L 4.890625 17.1875 
L 4.890625 26.703125 
z
" id="DejaVuSans-34"/>
      </defs>
      <g transform="translate(174.44826 273.417838)scale(0.1 -0.1)">
       <use xlink:href="#DejaVuSans-34"/>
      </g>
     </g>
    </g>
    <g id="xtick_6">
     <g id="line2d_6">
      <g>
       <use style="stroke:#000000;stroke-width:0.8;" x="215.989387" xlink:href="#ma5dbf525be" y="258.8194"/>
      </g>
     </g>
     <g id="text_6">
      <!-- 5 -->
      <defs>
       <path d="M 10.796875 72.90625 
L 49.515625 72.90625 
L 49.515625 64.59375 
L 19.828125 64.59375 
L 19.828125 46.734375 
Q 21.96875 47.46875 24.109375 47.828125 
Q 26.265625 48.1875 28.421875 48.1875 
Q 40.625 48.1875 47.75 41.5 
Q 54.890625 34.8125 54.890625 23.390625 
Q 54.890625 11.625 47.5625 5.09375 
Q 40.234375 -1.421875 26.90625 -1.421875 
Q 22.3125 -1.421875 17.546875 -0.640625 
Q 12.796875 0.140625 7.71875 1.703125 
L 7.71875 11.625 
Q 12.109375 9.234375 16.796875 8.0625 
Q 21.484375 6.890625 26.703125 6.890625 
Q 35.15625 6.890625 40.078125 11.328125 
Q 45.015625 15.765625 45.015625 23.390625 
Q 45.015625 31 40.078125 35.4375 
Q 35.15625 39.890625 26.703125 39.890625 
Q 22.75 39.890625 18.8125 39.015625 
Q 14.890625 38.140625 10.796875 36.28125 
z
" id="DejaVuSans-35"/>
      </defs>
      <g transform="translate(212.808137 273.417838)scale(0.1 -0.1)">
       <use xlink:href="#DejaVuSans-35"/>
      </g>
     </g>
    </g>
    <g id="xtick_7">
     <g id="line2d_7">
      <g>
       <use style="stroke:#000000;stroke-width:0.8;" x="254.349265" xlink:href="#ma5dbf525be" y="258.8194"/>
      </g>
     </g>
     <g id="text_7">
      <!-- 6 -->
      <defs>
       <path d="M 33.015625 40.375 
Q 26.375 40.375 22.484375 35.828125 
Q 18.609375 31.296875 18.609375 23.390625 
Q 18.609375 15.53125 22.484375 10.953125 
Q 26.375 6.390625 33.015625 6.390625 
Q 39.65625 6.390625 43.53125 10.953125 
Q 47.40625 15.53125 47.40625 23.390625 
Q 47.40625 31.296875 43.53125 35.828125 
Q 39.65625 40.375 33.015625 40.375 
z
M 52.59375 71.296875 
L 52.59375 62.3125 
Q 48.875 64.0625 45.09375 64.984375 
Q 41.3125 65.921875 37.59375 65.921875 
Q 27.828125 65.921875 22.671875 59.328125 
Q 17.53125 52.734375 16.796875 39.40625 
Q 19.671875 43.65625 24.015625 45.921875 
Q 28.375 48.1875 33.59375 48.1875 
Q 44.578125 48.1875 50.953125 41.515625 
Q 57.328125 34.859375 57.328125 23.390625 
Q 57.328125 12.15625 50.6875 5.359375 
Q 44.046875 -1.421875 33.015625 -1.421875 
Q 20.359375 -1.421875 13.671875 8.265625 
Q 6.984375 17.96875 6.984375 36.375 
Q 6.984375 53.65625 15.1875 63.9375 
Q 23.390625 74.21875 37.203125 74.21875 
Q 40.921875 74.21875 44.703125 73.484375 
Q 48.484375 72.75 52.59375 71.296875 
z
" id="DejaVuSans-36"/>
      </defs>
      <g transform="translate(251.168015 273.417838)scale(0.1 -0.1)">
       <use xlink:href="#DejaVuSans-36"/>
      </g>
     </g>
    </g>
   </g>
   <g id="matplotlib.axis_2">
    <g id="ytick_1">
     <g id="line2d_8">
      <defs>
       <path d="M 0 0 
L -3.5 0 
" id="maab6858b0c" style="stroke:#000000;stroke-width:0.8;"/>
      </defs>
      <g>
       <use style="stroke:#000000;stroke-width:0.8;" x="24.19" xlink:href="#maab6858b0c" y="248.205464"/>
      </g>
     </g>
     <g id="text_8">
      <!-- 0 -->
      <g transform="translate(10.8275 252.004682)scale(0.1 -0.1)">
       <use xlink:href="#DejaVuSans-30"/>
      </g>
     </g>
    </g>
    <g id="ytick_2">
     <g id="line2d_9">
      <g>
       <use style="stroke:#000000;stroke-width:0.8;" x="24.19" xlink:href="#maab6858b0c" y="35.926736"/>
      </g>
     </g>
     <g id="text_9">
      <!-- 1 -->
      <g transform="translate(10.8275 39.725955)scale(0.1 -0.1)">
       <use xlink:href="#DejaVuSans-31"/>
      </g>
     </g>
    </g>
   </g>
   <g id="line2d_10">
    <path clip-path="url(#pdd9306fbd5)" d="M 24.19 248.205464 
L 26.9487 248.111888 
L 28.052181 247.889089 
L 30.259141 248.205464 
L 38.673177 248.14308 
L 40.190463 247.470226 
L 43.362968 248.205464 
L 46.535474 248.1208 
L 47.776889 247.902457 
L 48.742434 248.183184 
L 49.570044 248.205464 
L 75.225958 248.129712 
L 76.191503 247.759865 
L 77.157048 248.107432 
L 77.570854 248.205464 
L 99.226652 248.125256 
L 100.468067 247.697481 
L 101.847417 248.205464 
L 126.261916 248.125256 
L 127.641267 247.385562 
L 128.882682 248.160904 
L 129.296487 248.205464 
L 141.572704 248.116344 
L 142.814119 247.791057 
L 144.055534 248.205464 
L 144.331404 248.102976 
L 145.710754 246.78846 
L 147.22804 248.205464 
L 148.33152 248.09852 
L 149.71087 247.777689 
L 150.26261 247.59945 
L 151.64196 248.107432 
L 151.91783 247.969296 
L 153.573051 245.554152 
L 154.538596 243.851965 
L 154.814466 243.40191 
L 155.090336 243.112271 
L 155.780011 242.149778 
L 156.193816 241.383349 
L 156.469686 241.891331 
L 157.573166 243.736109 
L 157.711101 243.909893 
L 157.849036 243.678182 
L 158.400776 240.452048 
L 159.090452 236.281245 
L 159.228387 235.274192 
L 159.504257 236.735755 
L 160.607737 242.546361 
L 160.745672 242.974136 
L 160.883607 242.532993 
L 162.538827 230.56867 
L 163.642307 225.59579 
L 163.780242 224.570913 
L 163.918177 224.985319 
L 164.056112 224.954128 
L 164.331982 224.655576 
L 164.469917 224.722416 
L 164.745787 224.388217 
L 165.021657 224.165418 
L 165.159593 223.996091 
L 166.401008 219.259377 
L 168.470033 209.19776 
L 169.297643 203.645601 
L 169.849383 200.058533 
L 170.263188 200.691283 
L 170.676993 201.248281 
L 171.228733 201.903311 
L 171.366669 201.782999 
L 172.056344 200.187756 
L 172.608084 198.623705 
L 172.746019 198.369714 
L 172.883954 197.790436 
L 175.780589 173.469663 
L 176.056459 172.337842 
L 177.297874 168.871085 
L 177.435809 167.721441 
L 178.953095 144.180465 
L 179.09103 144.233937 
L 179.504835 143.948754 
L 180.332445 143.4987 
L 180.47038 142.424807 
L 181.84973 120.670682 
L 182.263535 117.252941 
L 183.50495 108.127081 
L 184.884301 93.498078 
L 185.160171 92.843048 
L 185.573976 92.459833 
L 186.401586 91.635476 
L 186.815391 88.199911 
L 187.918871 78.062542 
L 188.194741 77.616943 
L 188.608546 77.42088 
L 189.022351 77.028753 
L 189.436156 76.890618 
L 189.987896 78.16503 
L 190.677572 79.942968 
L 190.953442 80.669294 
L 192.056922 76.164292 
L 192.470727 74.332882 
L 192.608662 74.497753 
L 192.746597 74.475473 
L 192.884532 74.609153 
L 193.022467 74.582417 
L 193.298337 74.760656 
L 193.574207 74.77848 
L 193.712142 74.787392 
L 193.850077 74.921072 
L 193.988012 74.7562 
L 194.815622 80.678206 
L 195.505297 85.339167 
L 196.608778 80.927741 
L 197.022583 79.154259 
L 198.539868 64.186601 
L 200.057153 80.847533 
L 201.574438 61.071867 
L 201.712373 61.192178 
L 201.850308 61.468449 
L 202.126178 61.628865 
L 202.402048 61.998712 
L 202.539983 62.065551 
L 202.815854 62.42203 
L 202.953789 62.497782 
L 203.091724 62.979029 
L 204.471074 74.435369 
L 204.609009 74.73392 
L 205.850424 67.519679 
L 206.126294 66.432418 
L 206.402164 66.481434 
L 207.091839 66.757705 
L 207.505644 66.91812 
L 207.643579 67.809318 
L 209.02293 84.661858 
L 209.160865 84.577194 
L 210.40228 72.94707 
L 210.540215 71.59245 
L 210.67815 71.440946 
L 211.22989 72.688623 
L 212.0575 74.658169 
L 212.33337 72.078153 
L 213.574785 57.565005 
L 213.850655 62.234879 
L 215.09207 89.66593 
L 215.230006 89.260435 
L 216.747291 77.737255 
L 217.574901 73.01391 
L 218.402511 68.811915 
L 220.333601 61.361506 
L 221.161211 57.827909 
L 222.678497 68.277196 
L 223.781977 63.553851 
L 224.195782 61.998712 
L 225.161327 65.679356 
L 225.713067 67.827142 
L 227.230352 79.804833 
L 228.057963 79.047315 
L 228.471768 78.588348 
L 228.609703 78.485861 
L 228.885573 77.692695 
L 230.264923 71.672658 
L 231.782208 48.875832 
L 233.437428 61.517465 
L 233.713298 61.579849 
L 234.678844 61.717985 
L 234.954714 60.733212 
L 236.196129 54.053688 
L 236.334064 54.436903 
L 237.989284 69.261969 
L 239.230699 77.055489 
L 239.368634 76.672274 
L 240.747985 66.909209 
L 241.43766 57.29319 
L 242.26527 45.516019 
L 242.54114 48.32329 
L 243.782555 65.8977 
L 243.92049 65.85314 
L 244.058425 65.505573 
L 244.610165 63.313228 
L 245.85158 58.763666 
L 246.817126 55.3281 
L 247.368866 56.999095 
L 248.334411 60.087094 
L 249.851696 72.915878 
L 251.368981 59.485535 
L 252.748331 57.221894 
L 253.024202 56.874328 
L 253.575942 56.281681 
L 254.265617 55.582092 
L 254.541487 55.399396 
L 255.231162 55.37266 
L 255.644967 55.198877 
L 255.782902 55.243437 
L 255.920837 54.730998 
L 257.438122 31.880701 
L 258.817472 40.284691 
L 258.955407 40.587698 
L 259.783018 36.550574 
L 260.472693 33.257601 
L 261.852043 29.50566 
L 261.989978 30.463697 
L 263.369328 55.729139 
L 263.507263 56.63816 
L 264.886613 48.679769 
L 265.438354 46.376024 
L 266.128029 43.577665 
L 266.403899 42.36118 
L 266.541834 42.944915 
L 268.059119 55.916291 
L 268.610859 53.897729 
L 269.300534 51.389009 
L 269.576404 50.506723 
L 269.852274 50.119052 
L 270.679884 49.02288 
L 270.955754 48.568369 
L 271.369559 51.602896 
L 272.47304 60.581708 
L 272.886845 54.958253 
L 273.990325 38.52012 
L 274.12826 38.252761 
L 274.40413 38.306233 
L 274.68 38.386441 
L 274.68 38.386441 
" style="fill:none;stroke:#191970;stroke-linecap:square;stroke-width:1.5;"/>
   </g>
   <g id="line2d_11">
    <path clip-path="url(#pdd9306fbd5)" d="M 24.19 42.726645 
L 24.327935 43.087535 
L 24.74174 43.06854 
L 25.01761 43.163511 
L 25.155545 43.049546 
L 25.29348 43.29647 
L 25.431415 43.163511 
L 25.56935 43.29647 
L 26.534895 42.935581 
L 28.190116 38.756866 
L 28.328051 39.079767 
L 28.603921 38.68089 
L 28.741856 38.718878 
L 28.879791 38.509942 
L 29.017726 37.959111 
L 29.155661 38.092071 
L 29.431531 37.712187 
L 30.948816 32.7927 
L 31.362621 34.673122 
L 31.776426 36.705497 
L 32.328166 39.136749 
L 32.466101 39.307697 
L 32.879906 36.382596 
L 33.293711 33.533472 
L 33.983387 29.335763 
L 34.948932 39.68758 
L 35.362737 44.43612 
L 35.500672 45.385828 
L 35.914477 45.176892 
L 36.052412 45.44281 
L 36.190347 45.138904 
L 36.604152 45.195886 
L 36.742087 45.081921 
L 37.017957 45.195886 
L 37.155892 44.626061 
L 37.293827 44.797009 
L 37.431762 44.588073 
L 37.569697 44.759021 
L 38.259372 43.543394 
L 38.535242 43.809313 
L 39.086982 44.929968 
L 39.500787 46.601454 
L 39.638722 46.772401 
L 39.914593 47.209267 
L 40.052528 47.095302 
L 40.190463 46.81039 
L 40.880138 43.429429 
L 41.018073 43.201499 
L 41.431878 41.112142 
L 41.569813 41.188119 
L 41.707748 41.131136 
L 41.845683 41.473031 
L 41.983618 40.523323 
L 42.397423 40.846224 
L 42.673293 40.580305 
L 42.949163 40.656282 
L 43.087098 40.846224 
L 44.466448 45.21488 
L 44.742318 45.11991 
L 44.880253 44.759021 
L 45.018188 45.081921 
L 45.431993 44.607067 
L 45.707863 44.132213 
L 45.845798 44.094225 
L 45.983733 43.714342 
L 46.259604 45.157898 
L 46.673409 47.304238 
L 46.949279 49.374601 
L 47.501019 52.698579 
L 47.914824 48.842765 
L 49.018304 37.446269 
L 50.259719 51.236029 
L 50.535589 54.787937 
L 52.052874 47.950039 
L 52.46668 44.797009 
L 53.29429 37.522246 
L 53.57016 35.223952 
L 54.535705 44.056237 
L 55.087445 49.032706 
L 55.22538 48.652823 
L 55.639185 46.335536 
L 56.60473 42.84061 
L 57.43234 44.151207 
L 58.25995 46.563466 
L 58.673756 47.608144 
L 58.949626 48.443888 
L 59.087561 49.222648 
L 59.225496 49.222648 
L 59.501366 50.476263 
L 59.639301 50.64721 
L 60.053106 49.108683 
L 60.328976 47.931045 
L 60.466911 47.684121 
L 60.742781 46.050623 
L 61.156586 44.910974 
L 61.570391 46.525477 
L 62.122131 48.994718 
L 62.811806 51.027093 
L 63.087676 50.970111 
L 63.225611 51.274017 
L 63.363546 51.10307 
L 63.501481 51.539936 
L 63.639416 51.387982 
L 64.053221 51.824848 
L 64.467026 53.154439 
L 65.156702 56.003563 
L 65.294637 56.440429 
L 65.570507 57.54209 
L 65.708442 57.827002 
L 65.846377 57.599072 
L 66.122247 57.827002 
L 66.260182 57.580078 
L 66.398117 57.105224 
L 66.536052 57.257178 
L 66.949857 56.421435 
L 67.087792 56.516405 
L 67.501597 54.541013 
L 68.605077 47.456191 
L 68.743012 47.228261 
L 69.708557 50.533245 
L 69.846492 50.723187 
L 70.122362 51.691889 
L 71.225843 55.357762 
L 71.363778 55.661668 
L 71.501713 56.497411 
L 71.777583 56.193505 
L 72.053453 55.338767 
L 72.467258 54.047165 
L 72.743128 52.831538 
L 73.156933 51.198041 
L 73.984543 56.022557 
L 74.398348 58.567775 
L 74.674218 59.878372 
L 74.812153 59.859377 
L 74.950088 59.479494 
L 75.088023 59.593459 
L 75.363893 59.194582 
L 75.501828 58.719728 
L 75.639763 58.833693 
L 76.053568 57.921973 
L 76.191503 57.618067 
L 76.329438 57.789014 
L 76.467373 57.466113 
L 76.605308 57.637061 
L 76.743243 57.238183 
L 77.019113 57.333154 
L 77.294983 57.124218 
L 77.432919 57.08623 
L 77.708789 57.31416 
L 77.984659 58.168897 
L 78.398464 60.125296 
L 79.226074 64.057087 
L 79.364009 63.924128 
L 79.501944 64.190046 
L 79.639879 63.715192 
L 79.777814 63.810163 
L 80.467489 63.012408 
L 80.605424 63.06939 
L 80.881294 62.97442 
L 81.019229 62.936431 
L 81.295099 63.221344 
L 81.433034 62.765484 
L 81.708904 63.050396 
L 81.984774 62.651519 
L 82.122709 62.97442 
L 83.088254 61.568852 
L 83.226189 60.809085 
L 83.502059 60.82808 
L 84.60554 57.99795 
L 84.88141 56.8583 
L 85.019345 56.269481 
L 85.15728 56.478417 
L 85.295215 55.889598 
L 85.43315 56.535399 
L 85.571085 56.63037 
L 85.846955 57.295166 
L 86.26076 58.358839 
L 86.8125 59.821389 
L 87.08837 59.612453 
L 87.226305 59.935354 
L 87.502175 59.536477 
L 87.778045 59.878372 
L 88.053915 59.517483 
L 88.19185 59.498488 
L 88.329785 59.251564 
L 89.5712 50.704193 
L 89.84707 49.317619 
L 90.260876 52.660591 
L 90.950551 57.808008 
L 91.226421 59.992337 
L 91.364356 60.37222 
L 91.916096 58.833693 
L 92.054031 57.978956 
L 92.191966 57.959961 
L 92.605771 56.060546 
L 92.881641 55.813621 
L 93.295446 57.352148 
L 94.260991 61.056009 
L 94.398926 61.245951 
L 94.812731 59.536477 
L 95.088601 58.795704 
L 95.502406 56.877294 
L 95.778276 55.889598 
L 95.916211 55.946581 
L 96.192081 57.618067 
L 96.467952 58.852687 
L 96.743822 60.37222 
L 97.295562 63.658209 
L 97.433497 63.088385 
L 98.399042 54.275095 
L 98.536977 53.420357 
L 98.812847 50.723187 
L 98.950782 51.141058 
L 99.502522 55.262791 
L 100.330132 62.347612 
L 100.468067 62.176665 
L 101.985352 56.421435 
L 102.399157 53.686276 
L 103.364703 47.456191 
L 103.502638 47.646133 
L 103.640573 48.04501 
L 103.778508 47.874063 
L 104.054378 48.481876 
L 104.192313 48.348917 
L 104.881988 49.18466 
L 105.157858 49.868449 
L 105.433728 50.400286 
L 105.985468 52.071772 
L 106.399273 53.192427 
L 107.226883 56.991259 
L 107.364818 57.352148 
L 107.502753 58.472804 
L 107.640688 58.662745 
L 107.916558 59.954348 
L 108.882104 50.970111 
L 109.020039 50.172356 
L 109.433844 46.183583 
L 109.985584 46.658437 
L 110.123519 46.601454 
L 110.399389 46.924355 
L 110.537324 46.658437 
L 110.675259 46.772401 
L 110.951129 47.304238 
L 111.364934 51.008099 
L 111.778739 54.389059 
L 112.468414 60.030325 
L 113.433959 54.730954 
L 113.709829 53.382369 
L 113.985699 51.748871 
L 114.399504 53.534322 
L 114.537439 53.857223 
L 115.227115 56.554394 
L 115.36505 56.649364 
L 115.502985 56.953271 
L 115.64092 56.687353 
L 116.330595 54.408054 
L 116.46853 54.275095 
L 117.02027 52.451655 
L 117.158205 52.755562 
L 117.29614 52.679585 
L 117.57201 52.812544 
L 118.12375 52.622603 
L 118.39962 52.413667 
L 120.05484 56.573388 
L 120.468645 54.104147 
L 121.15832 50.343303 
L 121.572126 48.690812 
L 121.710061 49.146671 
L 121.985931 48.785782 
L 122.399736 49.450578 
L 122.537671 49.317619 
L 122.675606 49.830461 
L 122.813541 49.754485 
L 123.365281 51.957807 
L 124.054956 55.528709 
L 124.606696 58.529786 
L 124.882566 58.111915 
L 125.296371 58.605763 
L 125.434306 58.415821 
L 125.572241 58.510792 
L 125.710176 58.757716 
L 125.986046 58.567775 
L 126.399851 61.587846 
L 126.813656 65.291707 
L 127.503331 70.87599 
L 127.641267 70.838002 
L 128.055072 68.938586 
L 128.744747 64.797859 
L 128.882682 64.531941 
L 129.020617 63.582233 
L 129.158552 63.677203 
L 129.296487 64.304011 
L 129.434422 64.360993 
L 129.710292 65.291707 
L 130.537902 67.608995 
L 130.675837 67.533018 
L 130.951707 66.906211 
L 131.089642 66.887216 
L 131.779317 65.614608 
L 131.917252 65.025789 
L 132.193122 65.367684 
L 132.468992 66.222421 
L 132.606927 66.412362 
L 132.882797 67.419053 
L 133.158667 68.368761 
L 133.296602 68.577697 
L 133.572472 69.584387 
L 135.503563 76.118378 
L 135.641498 76.346308 
L 136.193238 78.530636 
L 136.469108 79.46135 
L 136.607043 79.575315 
L 137.572588 82.424439 
L 137.710523 82.424439 
L 137.848458 82.728346 
L 137.986393 83.317164 
L 138.124328 83.412135 
L 138.400198 84.304861 
L 138.676068 84.931668 
L 139.227808 86.888066 
L 139.365743 86.850078 
L 141.296834 96.062246 
L 141.986509 100.108002 
L 142.676184 103.337009 
L 142.952054 103.318014 
L 143.227924 103.318014 
L 143.365859 103.166061 
L 143.641729 103.545944 
L 143.917599 103.280026 
L 144.055534 103.621921 
L 144.193469 103.640915 
L 145.710754 113.365925 
L 146.538365 116.575938 
L 146.6763 117.601622 
L 146.814235 117.753576 
L 147.22804 119.842933 
L 148.469455 130.574633 
L 148.88326 132.815944 
L 149.021195 132.777956 
L 149.15913 132.455055 
L 149.297065 132.758962 
L 149.572935 132.56902 
L 149.71087 133.062868 
L 149.848805 133.081863 
L 149.98674 132.758962 
L 150.124675 133.005886 
L 150.26261 133.9366 
L 151.64196 153.994432 
L 151.779895 154.355321 
L 152.331635 150.005659 
L 153.159246 143.471668 
L 153.297181 143.509656 
L 154.400661 153.063718 
L 156.331751 165.238975 
L 157.711101 178.91477 
L 157.849036 179.769507 
L 157.986971 179.902466 
L 158.262841 181.023121 
L 159.090452 184.005204 
L 159.228387 184.195146 
L 159.642192 185.90462 
L 160.331867 189.171616 
L 160.745672 191.014049 
L 162.400892 206.798196 
L 162.538827 206.950149 
L 162.676762 207.538968 
L 162.814697 207.368021 
L 163.090567 208.05181 
L 163.228502 208.393705 
L 163.366437 208.241752 
L 163.642307 208.602641 
L 163.780242 208.393705 
L 164.607852 214.870714 
L 165.435463 218.78351 
L 165.573398 218.897475 
L 165.711333 219.201382 
L 165.849268 218.973452 
L 165.987203 219.030435 
L 166.814813 217.833802 
L 167.504488 224.272823 
L 168.194163 229.800123 
L 168.883838 232.136405 
L 169.021773 232.02244 
L 169.573513 232.725224 
L 169.849383 232.193387 
L 170.125253 233.864873 
L 171.090798 235.669318 
L 171.366669 235.042511 
L 171.780474 237.625717 
L 171.918409 237.948617 
L 172.194279 239.24022 
L 172.608084 240.360876 
L 172.883954 240.626794 
L 173.573629 243.855801 
L 174.125369 245.12841 
L 174.401239 244.824503 
L 174.539174 244.976457 
L 174.815044 244.539591 
L 175.642654 241.15863 
L 175.918524 240.227917 
L 176.332329 241.576502 
L 176.608199 242.241298 
L 177.159939 243.342959 
L 177.297874 243.039052 
L 177.435809 243.077041 
L 177.849615 244.824503 
L 178.26342 246.154094 
L 178.677225 246.913861 
L 178.953095 246.761908 
L 179.3669 246.875872 
L 179.780705 246.723919 
L 180.332445 246.116106 
L 181.160055 245.8122 
L 181.435925 245.242375 
L 181.84973 244.007754 
L 181.987665 244.159708 
L 182.539405 245.394328 
L 183.22908 246.211077 
L 183.367015 245.983147 
L 183.50495 246.021135 
L 183.918756 246.666937 
L 184.056691 246.514983 
L 184.332561 246.552972 
L 184.884301 245.527287 
L 185.022236 245.660246 
L 185.573976 246.875872 
L 185.849846 246.970843 
L 185.987781 246.970843 
L 186.401586 246.647943 
L 186.677456 246.913861 
L 187.229196 247.635639 
L 187.780936 247.635639 
L 187.918871 247.521674 
L 188.332676 247.749604 
L 188.746481 248.072505 
L 189.160286 248.072505 
L 189.574091 248.034516 
L 190.263767 248.05351 
L 190.677572 247.844575 
L 190.953442 247.673627 
L 192.056922 248.205464 
L 192.332792 248.129487 
L 192.470727 247.882563 
L 192.746597 248.167475 
L 193.022467 248.05351 
L 193.298337 247.73061 
L 193.988012 246.875872 
L 195.091492 248.015522 
L 195.505297 247.863569 
L 196.608778 248.205464 
L 197.712258 248.186469 
L 198.263998 247.844575 
L 198.539868 247.73061 
L 198.815738 247.82558 
L 199.091608 247.844575 
L 199.367478 247.920551 
L 200.057153 247.711615 
L 200.333023 247.787592 
L 200.884763 247.635639 
L 201.160633 247.559662 
L 201.574438 247.350726 
L 202.953789 248.205464 
L 203.367594 248.129487 
L 204.057269 247.331732 
L 204.609009 246.742913 
L 205.022814 247.293744 
L 205.850424 248.205464 
L 207.229774 248.129487 
L 207.781514 248.091499 
L 208.057384 248.110493 
L 209.160865 247.008832 
L 209.2988 247.27475 
L 209.57467 247.350726 
L 209.85054 247.559662 
L 209.988475 247.483686 
L 210.12641 247.540668 
L 210.67815 247.236761 
L 211.367825 247.711615 
L 212.747175 247.996528 
L 213.16098 248.05351 
L 214.954135 248.205464 
L 215.367941 248.129487 
L 216.057616 247.445697 
L 216.471421 247.04682 
L 216.609356 246.875872 
L 217.712836 247.540668 
L 218.264576 247.521674 
L 219.092186 248.167475 
L 219.368056 248.167475 
L 219.781861 248.129487 
L 220.471536 248.205464 
L 221.988822 248.148481 
L 222.678497 247.977534 
L 222.954367 248.034516 
L 223.368172 247.920551 
L 223.644042 247.787592 
L 224.195782 247.331732 
L 224.747522 247.768598 
L 225.575132 247.920551 
L 225.851002 247.95854 
L 226.402742 248.205464 
L 227.920028 248.167475 
L 228.333833 248.034516 
L 228.885573 247.996528 
L 229.713183 248.05351 
L 230.126988 247.844575 
L 230.402858 247.882563 
L 231.368403 248.205464 
L 231.920143 248.167475 
L 232.885688 246.951849 
L 233.299493 246.59096 
L 234.540909 248.129487 
L 234.816779 248.205464 
L 235.920259 248.129487 
L 236.471999 248.091499 
L 237.299609 248.205464 
L 238.403089 248.148481 
L 239.230699 247.863569 
L 239.920374 248.05351 
L 240.472115 248.205464 
L 248.058541 248.129487 
L 248.472346 248.091499 
L 248.886151 248.186469 
L 249.437891 247.939545 
L 249.989631 247.82558 
L 251.093111 248.205464 
L 253.575942 248.148481 
L 254.403552 247.882563 
L 255.369097 248.205464 
L 258.679537 248.129487 
L 259.093343 248.129487 
L 259.783018 248.205464 
L 269.024664 248.148481 
L 269.438469 248.05351 
L 269.852274 248.129487 
L 270.541949 248.205464 
L 271.093689 248.129487 
L 271.783365 248.205464 
L 272.19717 248.129487 
L 272.610975 248.091499 
L 274.12826 248.205464 
L 274.68 248.205464 
L 274.68 248.205464 
" style="fill:none;stroke:#b8860b;stroke-linecap:square;stroke-width:1.5;"/>
   </g>
   <g id="line2d_12">
    <path clip-path="url(#pdd9306fbd5)" d="M 24.19 247.734141 
L 25.431415 247.838328 
L 26.259025 247.838328 
L 26.534895 247.838328 
L 26.810765 247.788715 
L 27.914246 247.247935 
L 28.879791 247.937554 
L 29.293596 248.106238 
L 29.983271 248.160812 
L 31.362621 248.205464 
L 35.914477 248.11616 
L 37.155892 247.868096 
L 38.397307 248.180657 
L 49.570044 248.081431 
L 50.535589 247.644838 
L 52.328744 248.205464 
L 59.915171 248.11616 
L 61.156586 247.540651 
L 62.535936 248.021896 
L 63.225611 248.106238 
L 63.915286 248.155851 
L 64.604961 248.175696 
L 66.122247 248.175696 
L 67.639532 247.932593 
L 68.467142 247.887941 
L 68.880947 247.892902 
L 70.122362 248.205464 
L 91.364356 248.205464 
L 91.778161 247.679567 
L 92.881641 246.03738 
L 93.571316 247.044522 
L 94.260991 247.853212 
L 94.674796 247.927631 
L 95.778276 248.180657 
L 96.192081 248.106238 
L 97.433497 247.600186 
L 98.950782 248.205464 
L 99.640457 247.997089 
L 100.192197 247.719257 
L 100.330132 247.624993 
L 101.019807 247.957399 
L 101.709482 248.205464 
L 105.433728 248.126083 
L 106.537208 247.912748 
L 107.916558 248.205464 
L 108.192428 248.03678 
L 109.433844 246.513664 
L 110.537324 247.595225 
L 110.951129 247.868096 
L 112.330479 248.205464 
L 113.158089 248.136006 
L 113.985699 247.858173 
L 114.951244 247.927631 
L 116.054725 247.833367 
L 116.7444 247.600186 
L 117.02027 247.466231 
L 117.709945 247.605148 
L 119.641035 247.585302 
L 120.468645 247.545612 
L 121.296256 247.590264 
L 121.572126 247.550573 
L 121.847996 247.595225 
L 122.813541 246.736922 
L 123.089411 246.553354 
L 123.503216 246.776612 
L 124.192891 246.970102 
L 124.744631 246.637696 
L 125.572241 245.223728 
L 125.986046 244.459689 
L 126.261916 244.415038 
L 127.227461 242.901844 
L 127.503331 242.326335 
L 128.744747 243.849451 
L 128.882682 243.854412 
L 129.020617 243.700612 
L 130.537902 245.853812 
L 130.675837 245.957999 
L 131.227577 244.88636 
L 132.055187 242.604167 
L 132.331057 242.495019 
L 132.468992 242.38587 
L 132.882797 241.735941 
L 133.434537 240.842909 
L 133.572472 240.411277 
L 133.710407 240.54027 
L 133.986278 240.123522 
L 134.951823 238.327535 
L 135.089758 237.995128 
L 136.469108 241.145548 
L 136.882913 241.120741 
L 137.986393 239.498399 
L 138.124328 239.101496 
L 138.262263 239.324754 
L 138.400198 239.275141 
L 139.641613 237.11698 
L 139.779548 237.265819 
L 140.193354 236.243793 
L 141.158899 233.306709 
L 141.296834 233.599425 
L 141.710639 233.27198 
L 142.538249 232.473212 
L 142.952054 231.346999 
L 144.193469 226.266638 
L 145.021079 219.509361 
L 145.848689 213.402012 
L 147.22804 207.899941 
L 148.745325 197.312548 
L 149.848805 200.309167 
L 150.124675 200.879716 
L 150.26261 200.755683 
L 153.297181 183.609464 
L 154.814466 166.617045 
L 155.780011 158.361458 
L 156.607621 151.509916 
L 157.711101 143.294019 
L 157.849036 143.849684 
L 159.228387 155.647632 
L 159.504257 152.090387 
L 160.745672 133.366477 
L 161.021542 134.810213 
L 162.125022 142.356335 
L 162.262957 143.298981 
L 163.090567 131.322426 
L 163.780242 120.779684 
L 164.056112 119.777503 
L 165.435463 113.397284 
L 166.952748 102.412987 
L 167.366553 100.448316 
L 168.332098 96.11711 
L 169.711448 97.828755 
L 169.849383 97.724568 
L 171.366669 84.026446 
L 171.642539 83.684117 
L 172.056344 82.934962 
L 174.263304 79.189188 
L 174.401239 78.444994 
L 175.918524 59.944343 
L 176.194394 60.053491 
L 176.608199 60.137833 
L 176.746134 60.073336 
L 176.884069 60.217214 
L 177.022004 60.177523 
L 177.297874 60.24202 
L 178.125485 60.495046 
L 178.677225 60.554581 
L 178.81516 60.648846 
L 178.953095 60.162639 
L 180.332445 48.796323 
L 180.47038 48.374614 
L 181.84973 49.059272 
L 183.367015 52.313878 
L 183.918756 57.691917 
L 184.884301 67.649226 
L 185.022236 66.488284 
L 186.401586 43.557201 
L 186.539521 43.944181 
L 188.194741 56.659968 
L 188.470611 56.937801 
L 189.436156 57.815949 
L 190.125831 54.541497 
L 190.953442 50.493085 
L 192.194857 53.008459 
L 192.608662 53.509549 
L 193.850077 53.340865 
L 193.988012 53.261485 
L 194.539752 54.099943 
L 195.367362 55.260885 
L 195.505297 55.295614 
L 197.022583 38.491723 
L 198.539868 68.502568 
L 199.919218 53.717923 
L 200.057153 52.879465 
L 201.574438 66.905033 
L 201.712373 66.85542 
L 202.126178 66.036807 
L 202.677919 65.118968 
L 203.091724 64.612917 
L 204.057269 66.448594 
L 204.471074 67.172943 
L 204.609009 66.756194 
L 205.988359 50.225175 
L 206.126294 49.62982 
L 207.643579 57.225556 
L 207.919449 57.414085 
L 208.884994 58.108665 
L 209.02293 58.153317 
L 209.436735 59.909614 
L 210.540215 65.500988 
L 210.67815 65.20331 
L 212.0575 56.426788 
L 212.195435 57.488504 
L 213.574785 77.899252 
L 213.71272 77.219555 
L 215.09207 61.001097 
L 215.230006 61.070556 
L 216.747291 66.374175 
L 218.126641 76.048691 
L 218.540446 71.945704 
L 219.643926 59.988994 
L 220.333601 68.254504 
L 221.161211 78.172123 
L 222.402627 66.39402 
L 222.678497 63.675233 
L 222.954367 63.918336 
L 223.506107 64.131672 
L 223.781977 64.330123 
L 223.919912 64.340046 
L 224.195782 64.573226 
L 224.747522 62.980652 
L 225.299262 61.685756 
L 225.713067 60.410704 
L 227.230352 48.940201 
L 227.920028 50.964407 
L 228.885573 53.926298 
L 229.575248 57.091601 
L 230.402858 60.207291 
L 230.954598 60.415665 
L 231.506338 60.648846 
L 231.644273 60.738149 
L 231.782208 60.584349 
L 233.161558 56.952685 
L 233.575363 54.228936 
L 234.816779 45.328381 
L 235.092649 45.313498 
L 235.368519 45.343265 
L 235.506454 45.298614 
L 235.782324 45.457375 
L 235.920259 45.382956 
L 236.196129 45.546678 
L 236.471999 44.703259 
L 237.161674 42.083698 
L 237.851349 39.662588 
L 238.678959 39.09204 
L 238.816894 38.97793 
L 238.954829 39.047388 
L 239.230699 38.724904 
L 240.747985 40.625078 
L 241.43766 41.116246 
L 241.575595 41.09144 
L 242.127335 41.404001 
L 242.26527 41.463536 
L 242.81701 40.228175 
L 243.36875 38.814207 
L 243.782555 37.807065 
L 243.92049 37.945982 
L 244.886035 39.722123 
L 245.29984 40.436549 
L 246.817126 49.624859 
L 247.782671 38.377614 
L 248.334411 31.858478 
L 249.851696 43.884646 
L 251.368981 41.205549 
L 252.886267 31.868401 
L 254.403552 40.406781 
L 255.644967 35.460375 
L 255.920837 34.607033 
L 257.438122 42.158117 
L 257.851927 42.698898 
L 258.265732 43.333943 
L 258.955407 44.519691 
L 260.334758 50.656807 
L 260.472693 51.063633 
L 260.748563 51.16782 
L 261.162368 51.326581 
L 261.300303 51.276968 
L 261.576173 51.371233 
L 261.852043 51.47542 
L 261.989978 50.909833 
L 263.507263 37.226594 
L 264.196938 38.67033 
L 265.024548 40.347246 
L 265.162483 40.302594 
L 265.714224 40.679652 
L 266.403899 40.997175 
L 266.541834 40.768956 
L 267.921184 36.47744 
L 268.197054 37.549078 
L 269.438469 44.494885 
L 270.404014 48.240659 
L 270.955754 50.264865 
L 271.231624 47.491504 
L 272.47304 32.622517 
L 272.886845 36.665969 
L 273.990325 49.01462 
L 274.68 49.049349 
L 274.68 49.049349 
" style="fill:none;stroke:#006400;stroke-linecap:square;stroke-width:1.5;"/>
   </g>
   <g id="line2d_13">
    <path clip-path="url(#pdd9306fbd5)" d="M 24.19 236.557779 
L 24.879675 236.403335 
L 25.56935 241.103594 
L 26.259025 245.417742 
L 26.39696 245.819297 
L 26.534895 245.870779 
L 26.810765 245.618519 
L 27.362506 245.129445 
L 28.465986 243.687964 
L 29.431531 241.953038 
L 30.948816 248.36763 
L 31.362621 246.648149 
L 32.328166 241.901557 
L 32.466101 241.659594 
L 33.569581 245.860482 
L 33.845452 246.761408 
L 33.983387 246.797445 
L 34.397192 245.891371 
L 35.500672 242.956927 
L 36.466217 242.998112 
L 37.017957 242.612001 
L 37.431762 240.774112 
L 38.535242 235.69289 
L 39.224917 236.727668 
L 39.914593 237.608001 
L 41.431878 242.174408 
L 41.707748 242.158964 
L 42.949163 241.067557 
L 43.087098 240.83589 
L 44.466448 233.515224 
L 44.742318 234.838298 
L 45.707863 240.08426 
L 45.983733 241.340409 
L 46.121669 241.443371 
L 47.638954 238.215483 
L 48.052759 237.299112 
L 49.018304 234.668409 
L 49.432109 235.317076 
L 50.259719 236.357001 
L 50.397654 236.454816 
L 50.535589 236.279779 
L 51.777004 242.92089 
L 52.052874 243.955668 
L 52.190809 243.744594 
L 52.74255 241.572075 
L 53.57016 237.896298 
L 53.84603 238.261816 
L 54.94951 238.436853 
L 55.087445 238.205186 
L 55.50125 239.986446 
L 56.466795 243.296705 
L 56.60473 243.384223 
L 56.742665 243.188594 
L 57.70821 239.955557 
L 58.122015 238.483186 
L 58.53582 240.228409 
L 59.501366 243.188594 
L 59.639301 243.219482 
L 60.466911 239.095816 
L 61.156586 235.564187 
L 61.708326 236.274631 
L 62.398001 236.897557 
L 62.535936 236.969631 
L 63.777351 238.653075 
L 64.191156 238.88989 
L 64.604961 239.857742 
L 65.570507 241.489705 
L 65.846377 241.381594 
L 67.087792 238.951668 
L 67.225727 239.090668 
L 67.915402 242.400927 
L 68.605077 245.314779 
L 68.743012 245.155186 
L 69.294752 242.493594 
L 69.984427 238.843557 
L 70.260297 237.608001 
L 71.225843 232.789335 
L 71.639648 230.380002 
L 71.777583 230.905113 
L 73.018998 241.016075 
L 73.294868 242.246483 
L 74.398348 243.389371 
L 75.088023 243.657075 
L 75.501828 243.564408 
L 76.053568 243.28126 
L 76.467373 242.606853 
L 77.708789 238.555261 
L 79.226074 244.094668 
L 79.364009 244.068927 
L 80.191619 241.932446 
L 81.570969 238.184594 
L 82.260644 235.718631 
L 83.226189 241.397038 
L 83.77793 243.935075 
L 83.915865 243.863001 
L 85.295215 239.965853 
L 85.43315 240.05852 
L 86.674565 240.22326 
L 86.8125 240.068816 
L 87.226305 241.463964 
L 88.329785 244.053482 
L 88.605655 243.00326 
L 89.433265 239.039186 
L 89.84707 237.180705 
L 90.674681 241.052112 
L 91.226421 243.42026 
L 91.502291 243.770334 
L 92.191966 243.811519 
L 92.881641 243.749742 
L 94.260991 248.316149 
L 94.398926 248.28526 
L 95.502406 242.359742 
L 95.778276 240.732927 
L 95.916211 240.686594 
L 96.605887 242.03026 
L 97.295562 242.941482 
L 97.571432 243.013557 
L 98.261107 242.509038 
L 98.812847 241.783149 
L 99.502522 242.056001 
L 100.192197 241.942742 
L 100.330132 241.705927 
L 100.606002 242.442112 
L 101.709482 245.968593 
L 101.847417 246.159075 
L 101.985352 246.14363 
L 102.812963 244.697001 
L 103.364703 243.533519 
L 103.778508 244.712445 
L 104.881988 247.914593 
L 105.157858 247.904297 
L 106.537208 247.09089 
L 106.951013 247.101186 
L 107.778623 246.931297 
L 109.295909 245.016186 
L 109.433844 244.743334 
L 110.537324 247.25563 
L 110.951129 247.95063 
L 111.640804 247.106334 
L 112.468414 245.942853 
L 112.882219 246.298075 
L 113.985699 246.848927 
L 114.537439 247.235038 
L 115.36505 247.64689 
L 115.502985 247.600556 
L 115.91679 247.765297 
L 117.434075 247.960927 
L 119.089295 247.863112 
L 119.641035 247.662334 
L 120.192775 247.45126 
L 120.468645 247.322556 
L 121.572126 246.653297 
L 122.675606 247.971223 
L 122.951476 248.208038 
L 123.089411 248.187445 
L 124.606696 246.056112 
L 125.434306 246.318667 
L 126.261916 246.426779 
L 128.055072 247.626297 
L 129.020617 248.36763 
L 130.537902 248.36763 
L 130.675837 248.197741 
L 132.193122 243.070186 
L 132.606927 243.126816 
L 133.158667 243.296705 
L 133.434537 243.286408 
L 133.572472 243.14226 
L 134.675953 245.680297 
L 135.089758 246.401038 
L 135.917368 247.281371 
L 136.607043 247.72926 
L 136.882913 247.11663 
L 138.124328 242.78189 
L 139.641613 246.220853 
L 140.055419 246.195112 
L 140.469224 246.045816 
L 141.020964 245.906816 
L 141.158899 245.834742 
L 141.710639 246.406186 
L 142.400314 246.95189 
L 142.676184 247.147519 
L 143.089989 247.276223 
L 144.055534 247.45126 
L 144.193469 247.399779 
L 144.469339 247.538778 
L 145.296949 247.59026 
L 145.986624 247.734408 
L 147.22804 248.259519 
L 147.50391 247.857964 
L 147.917715 247.060001 
L 148.745325 245.392001 
L 149.021195 245.237556 
L 149.98674 244.408705 
L 150.124675 244.223371 
L 150.26261 244.285149 
L 151.64196 247.523334 
L 151.91783 247.600556 
L 153.297181 247.132075 
L 154.676531 242.390631 
L 154.814466 242.622297 
L 156.331751 248.36763 
L 156.745556 248.238927 
L 157.711101 247.775593 
L 157.849036 247.440964 
L 158.952517 240.573334 
L 159.228387 238.642779 
L 159.504257 240.14089 
L 160.745672 247.636593 
L 160.883607 247.574816 
L 161.711217 246.153927 
L 162.262957 245.072816 
L 162.538827 245.397149 
L 163.642307 245.767816 
L 163.780242 245.582482 
L 164.056112 245.695742 
L 165.159593 245.469223 
L 165.435463 245.072816 
L 166.263073 241.80889 
L 166.814813 239.487075 
L 167.780358 243.677668 
L 168.194163 245.402297 
L 168.607968 245.603075 
L 169.849383 245.314779 
L 170.676993 246.910704 
L 171.366669 247.899149 
L 171.918409 245.572186 
L 172.883954 241.330112 
L 173.297759 242.092038 
L 174.263304 243.404816 
L 174.539174 243.389371 
L 174.815044 243.137112 
L 176.056459 241.659594 
L 177.297874 237.865409 
L 177.98755 236.604113 
L 178.81516 234.41615 
L 178.953095 234.524261 
L 179.91864 240.249001 
L 180.332445 242.442112 
L 180.47038 242.277371 
L 181.02212 238.735446 
L 181.84973 232.96952 
L 183.642885 227.836817 
L 184.884301 220.305077 
L 185.022236 220.577928 
L 185.849846 223.599891 
L 186.401586 225.108298 
L 186.539521 224.907521 
L 187.505066 220.624262 
L 187.918871 218.472336 
L 188.056806 218.389966 
L 189.160286 216.45941 
L 189.436156 215.398892 
L 189.712026 216.207151 
L 190.263767 216.850669 
L 190.953442 217.277966 
L 191.367247 214.024336 
L 192.470727 203.419152 
L 192.608662 203.733189 
L 193.850077 200.634004 
L 194.125947 198.955708 
L 195.505297 185.179264 
L 195.919102 187.521671 
L 196.884648 192.031449 
L 197.022583 192.273412 
L 197.850193 181.513783 
L 198.539868 172.844302 
L 199.505413 190.461264 
L 200.057153 198.790967 
L 200.746828 190.857671 
L 201.574438 180.000227 
L 203.229659 139.051859 
L 204.057269 137.080119 
L 204.471074 136.091674 
L 205.022814 132.60123 
L 206.126294 125.512231 
L 206.540099 126.583045 
L 206.815969 127.159638 
L 207.367709 128.451823 
L 207.505644 128.673193 
L 207.781514 129.841823 
L 209.02293 135.911489 
L 209.160865 134.470008 
L 210.95402 101.933714 
L 212.195435 89.475196 
L 213.298915 91.802159 
L 213.574785 92.32727 
L 214.402395 104.672528 
L 215.09207 115.473342 
L 215.230006 114.886454 
L 216.609356 101.557899 
L 216.747291 101.758677 
L 217.850771 106.340528 
L 218.126641 107.344417 
L 218.402511 105.480788 
L 219.643926 95.277159 
L 221.023276 94.026159 
L 221.161211 93.794492 
L 222.540562 88.069752 
L 222.678497 87.210011 
L 224.195782 59.023902 
L 225.575132 73.73216 
L 225.851002 77.7889 
L 227.230352 100.430454 
L 228.057963 93.459862 
L 228.885573 87.390196 
L 230.126988 83.637196 
L 230.264923 83.539381 
L 230.402858 83.698974 
L 230.816663 84.532974 
L 231.782208 86.623122 
L 232.885688 91.745529 
L 233.161558 92.939899 
L 233.299493 93.10464 
L 234.678844 86.515011 
L 234.954714 81.212419 
L 236.196129 49.999198 
L 236.334064 48.784236 
L 238.265154 55.61068 
L 239.230699 58.874605 
L 239.920374 65.000901 
L 240.747985 72.784901 
L 240.88592 72.270086 
L 242.26527 59.013605 
L 242.54114 64.331642 
L 243.782555 94.736603 
L 244.058425 90.669566 
L 245.437775 65.716494 
L 246.817126 47.286125 
L 246.955061 47.373643 
L 248.334411 49.391717 
L 249.851696 74.663975 
L 251.368981 37.926792 
L 252.886267 80.388715 
L 254.403552 52.444569 
L 255.782902 61.767864 
L 255.920837 62.195161 
L 256.748447 55.945309 
L 257.438122 50.472828 
L 258.955407 27.929089 
L 260.748563 38.910088 
L 261.989978 48.526828 
L 262.955523 50.174235 
L 263.369328 50.941309 
L 263.507263 51.806198 
L 264.886613 68.017716 
L 265.024548 67.775753 
L 266.403899 52.346754 
L 266.541834 52.63505 
L 267.921184 70.015197 
L 268.059119 68.779642 
L 269.852274 38.034903 
L 270.955754 28.284311 
L 271.231624 31.882866 
L 272.335105 48.691569 
L 272.610975 52.362198 
L 273.990325 64.75379 
L 274.68 64.995753 
L 274.68 64.995753 
" style="fill:none;stroke:#a0522d;stroke-linecap:square;stroke-width:1.5;"/>
   </g>
   <g id="patch_3">
    <path d="M 24.19 258.8194 
L 24.19 25.3128 
" style="fill:none;stroke:#000000;stroke-linecap:square;stroke-linejoin:miter;stroke-width:0.8;"/>
   </g>
   <g id="patch_4">
    <path d="M 274.68 258.8194 
L 274.68 25.3128 
" style="fill:none;stroke:#000000;stroke-linecap:square;stroke-linejoin:miter;stroke-width:0.8;"/>
   </g>
   <g id="patch_5">
    <path d="M 24.19 258.8194 
L 274.68 258.8194 
" style="fill:none;stroke:#000000;stroke-linecap:square;stroke-linejoin:miter;stroke-width:0.8;"/>
   </g>
   <g id="patch_6">
    <path d="M 24.19 25.3128 
L 274.68 25.3128 
" style="fill:none;stroke:#000000;stroke-linecap:square;stroke-linejoin:miter;stroke-width:0.8;"/>
   </g>
   <g id="text_10">
    <!-- FC_close -->
    <defs>
     <path d="M 9.8125 72.90625 
L 51.703125 72.90625 
L 51.703125 64.59375 
L 19.671875 64.59375 
L 19.671875 43.109375 
L 48.578125 43.109375 
L 48.578125 34.8125 
L 19.671875 34.8125 
L 19.671875 0 
L 9.8125 0 
z
" id="DejaVuSans-46"/>
     <path d="M 64.40625 67.28125 
L 64.40625 56.890625 
Q 59.421875 61.53125 53.78125 63.8125 
Q 48.140625 66.109375 41.796875 66.109375 
Q 29.296875 66.109375 22.65625 58.46875 
Q 16.015625 50.828125 16.015625 36.375 
Q 16.015625 21.96875 22.65625 14.328125 
Q 29.296875 6.6875 41.796875 6.6875 
Q 48.140625 6.6875 53.78125 8.984375 
Q 59.421875 11.28125 64.40625 15.921875 
L 64.40625 5.609375 
Q 59.234375 2.09375 53.4375 0.328125 
Q 47.65625 -1.421875 41.21875 -1.421875 
Q 24.65625 -1.421875 15.125 8.703125 
Q 5.609375 18.84375 5.609375 36.375 
Q 5.609375 53.953125 15.125 64.078125 
Q 24.65625 74.21875 41.21875 74.21875 
Q 47.75 74.21875 53.53125 72.484375 
Q 59.328125 70.75 64.40625 67.28125 
z
" id="DejaVuSans-43"/>
     <path d="M 50.984375 -16.609375 
L 50.984375 -23.578125 
L -0.984375 -23.578125 
L -0.984375 -16.609375 
z
" id="DejaVuSans-5f"/>
     <path d="M 48.78125 52.59375 
L 48.78125 44.1875 
Q 44.96875 46.296875 41.140625 47.34375 
Q 37.3125 48.390625 33.40625 48.390625 
Q 24.65625 48.390625 19.8125 42.84375 
Q 14.984375 37.3125 14.984375 27.296875 
Q 14.984375 17.28125 19.8125 11.734375 
Q 24.65625 6.203125 33.40625 6.203125 
Q 37.3125 6.203125 41.140625 7.25 
Q 44.96875 8.296875 48.78125 10.40625 
L 48.78125 2.09375 
Q 45.015625 0.34375 40.984375 -0.53125 
Q 36.96875 -1.421875 32.421875 -1.421875 
Q 20.0625 -1.421875 12.78125 6.34375 
Q 5.515625 14.109375 5.515625 27.296875 
Q 5.515625 40.671875 12.859375 48.328125 
Q 20.21875 56 33.015625 56 
Q 37.15625 56 41.109375 55.140625 
Q 45.0625 54.296875 48.78125 52.59375 
z
" id="DejaVuSans-63"/>
     <path d="M 9.421875 75.984375 
L 18.40625 75.984375 
L 18.40625 0 
L 9.421875 0 
z
" id="DejaVuSans-6c"/>
     <path d="M 30.609375 48.390625 
Q 23.390625 48.390625 19.1875 42.75 
Q 14.984375 37.109375 14.984375 27.296875 
Q 14.984375 17.484375 19.15625 11.84375 
Q 23.34375 6.203125 30.609375 6.203125 
Q 37.796875 6.203125 41.984375 11.859375 
Q 46.1875 17.53125 46.1875 27.296875 
Q 46.1875 37.015625 41.984375 42.703125 
Q 37.796875 48.390625 30.609375 48.390625 
z
M 30.609375 56 
Q 42.328125 56 49.015625 48.375 
Q 55.71875 40.765625 55.71875 27.296875 
Q 55.71875 13.875 49.015625 6.21875 
Q 42.328125 -1.421875 30.609375 -1.421875 
Q 18.84375 -1.421875 12.171875 6.21875 
Q 5.515625 13.875 5.515625 27.296875 
Q 5.515625 40.765625 12.171875 48.375 
Q 18.84375 56 30.609375 56 
z
" id="DejaVuSans-6f"/>
     <path d="M 44.28125 53.078125 
L 44.28125 44.578125 
Q 40.484375 46.53125 36.375 47.5 
Q 32.28125 48.484375 27.875 48.484375 
Q 21.1875 48.484375 17.84375 46.4375 
Q 14.5 44.390625 14.5 40.28125 
Q 14.5 37.15625 16.890625 35.375 
Q 19.28125 33.59375 26.515625 31.984375 
L 29.59375 31.296875 
Q 39.15625 29.25 43.1875 25.515625 
Q 47.21875 21.78125 47.21875 15.09375 
Q 47.21875 7.46875 41.1875 3.015625 
Q 35.15625 -1.421875 24.609375 -1.421875 
Q 20.21875 -1.421875 15.453125 -0.5625 
Q 10.6875 0.296875 5.421875 2 
L 5.421875 11.28125 
Q 10.40625 8.6875 15.234375 7.390625 
Q 20.0625 6.109375 24.8125 6.109375 
Q 31.15625 6.109375 34.5625 8.28125 
Q 37.984375 10.453125 37.984375 14.40625 
Q 37.984375 18.0625 35.515625 20.015625 
Q 33.0625 21.96875 24.703125 23.78125 
L 21.578125 24.515625 
Q 13.234375 26.265625 9.515625 29.90625 
Q 5.8125 33.546875 5.8125 39.890625 
Q 5.8125 47.609375 11.28125 51.796875 
Q 16.75 56 26.8125 56 
Q 31.78125 56 36.171875 55.265625 
Q 40.578125 54.546875 44.28125 53.078125 
z
" id="DejaVuSans-73"/>
     <path d="M 56.203125 29.59375 
L 56.203125 25.203125 
L 14.890625 25.203125 
Q 15.484375 15.921875 20.484375 11.0625 
Q 25.484375 6.203125 34.421875 6.203125 
Q 39.59375 6.203125 44.453125 7.46875 
Q 49.3125 8.734375 54.109375 11.28125 
L 54.109375 2.78125 
Q 49.265625 0.734375 44.1875 -0.34375 
Q 39.109375 -1.421875 33.890625 -1.421875 
Q 20.796875 -1.421875 13.15625 6.1875 
Q 5.515625 13.8125 5.515625 26.8125 
Q 5.515625 40.234375 12.765625 48.109375 
Q 20.015625 56 32.328125 56 
Q 43.359375 56 49.78125 48.890625 
Q 56.203125 41.796875 56.203125 29.59375 
z
M 47.21875 32.234375 
Q 47.125 39.59375 43.09375 43.984375 
Q 39.0625 48.390625 32.421875 48.390625 
Q 24.90625 48.390625 20.390625 44.140625 
Q 15.875 39.890625 15.1875 32.171875 
z
" id="DejaVuSans-65"/>
    </defs>
    <g transform="translate(123.339687 19.3128)scale(0.12 -0.12)">
     <use xlink:href="#DejaVuSans-46"/>
     <use x="57.519531" xlink:href="#DejaVuSans-43"/>
     <use x="127.34375" xlink:href="#DejaVuSans-5f"/>
     <use x="177.34375" xlink:href="#DejaVuSans-63"/>
     <use x="232.324219" xlink:href="#DejaVuSans-6c"/>
     <use x="260.107422" xlink:href="#DejaVuSans-6f"/>
     <use x="321.289062" xlink:href="#DejaVuSans-73"/>
     <use x="373.388672" xlink:href="#DejaVuSans-65"/>
    </g>
   </g>
   <g id="legend_1">
    <g id="patch_7">
     <path d="M 221.583125 172.92235 
L 267.68 172.92235 
Q 269.68 172.92235 269.68 170.92235 
L 269.68 113.20985 
Q 269.68 111.20985 267.68 111.20985 
L 221.583125 111.20985 
Q 219.583125 111.20985 219.583125 113.20985 
L 219.583125 170.92235 
Q 219.583125 172.92235 221.583125 172.92235 
z
" style="fill:#ffffff;opacity:0.8;stroke:#cccccc;stroke-linejoin:miter;"/>
    </g>
    <g id="line2d_14">
     <path d="M 223.583125 119.308288 
L 243.583125 119.308288 
" style="fill:none;stroke:#191970;stroke-linecap:square;stroke-width:1.5;"/>
    </g>
    <g id="line2d_15"/>
    <g id="text_11">
     <!-- Co -->
     <g transform="translate(251.583125 122.808288)scale(0.1 -0.1)">
      <use xlink:href="#DejaVuSans-43"/>
      <use x="69.824219" xlink:href="#DejaVuSans-6f"/>
     </g>
    </g>
    <g id="line2d_16">
     <path d="M 223.583125 133.986413 
L 243.583125 133.986413 
" style="fill:none;stroke:#b8860b;stroke-linecap:square;stroke-width:1.5;"/>
    </g>
    <g id="line2d_17"/>
    <g id="text_12">
     <!-- Gd -->
     <defs>
      <path d="M 59.515625 10.40625 
L 59.515625 29.984375 
L 43.40625 29.984375 
L 43.40625 38.09375 
L 69.28125 38.09375 
L 69.28125 6.78125 
Q 63.578125 2.734375 56.6875 0.65625 
Q 49.8125 -1.421875 42 -1.421875 
Q 24.90625 -1.421875 15.25 8.5625 
Q 5.609375 18.5625 5.609375 36.375 
Q 5.609375 54.25 15.25 64.234375 
Q 24.90625 74.21875 42 74.21875 
Q 49.125 74.21875 55.546875 72.453125 
Q 61.96875 70.703125 67.390625 67.28125 
L 67.390625 56.78125 
Q 61.921875 61.421875 55.765625 63.765625 
Q 49.609375 66.109375 42.828125 66.109375 
Q 29.4375 66.109375 22.71875 58.640625 
Q 16.015625 51.171875 16.015625 36.375 
Q 16.015625 21.625 22.71875 14.15625 
Q 29.4375 6.6875 42.828125 6.6875 
Q 48.046875 6.6875 52.140625 7.59375 
Q 56.25 8.5 59.515625 10.40625 
z
" id="DejaVuSans-47"/>
      <path d="M 45.40625 46.390625 
L 45.40625 75.984375 
L 54.390625 75.984375 
L 54.390625 0 
L 45.40625 0 
L 45.40625 8.203125 
Q 42.578125 3.328125 38.25 0.953125 
Q 33.9375 -1.421875 27.875 -1.421875 
Q 17.96875 -1.421875 11.734375 6.484375 
Q 5.515625 14.40625 5.515625 27.296875 
Q 5.515625 40.1875 11.734375 48.09375 
Q 17.96875 56 27.875 56 
Q 33.9375 56 38.25 53.625 
Q 42.578125 51.265625 45.40625 46.390625 
z
M 14.796875 27.296875 
Q 14.796875 17.390625 18.875 11.75 
Q 22.953125 6.109375 30.078125 6.109375 
Q 37.203125 6.109375 41.296875 11.75 
Q 45.40625 17.390625 45.40625 27.296875 
Q 45.40625 37.203125 41.296875 42.84375 
Q 37.203125 48.484375 30.078125 48.484375 
Q 22.953125 48.484375 18.875 42.84375 
Q 14.796875 37.203125 14.796875 27.296875 
z
" id="DejaVuSans-64"/>
     </defs>
     <g transform="translate(251.583125 137.486413)scale(0.1 -0.1)">
      <use xlink:href="#DejaVuSans-47"/>
      <use x="77.490234" xlink:href="#DejaVuSans-64"/>
     </g>
    </g>
    <g id="line2d_18">
     <path d="M 223.583125 148.664537 
L 243.583125 148.664537 
" style="fill:none;stroke:#006400;stroke-linecap:square;stroke-width:1.5;"/>
    </g>
    <g id="line2d_19"/>
    <g id="text_13">
     <!-- Ni -->
     <defs>
      <path d="M 9.8125 72.90625 
L 23.09375 72.90625 
L 55.421875 11.921875 
L 55.421875 72.90625 
L 64.984375 72.90625 
L 64.984375 0 
L 51.703125 0 
L 19.390625 60.984375 
L 19.390625 0 
L 9.8125 0 
z
" id="DejaVuSans-4e"/>
      <path d="M 9.421875 54.6875 
L 18.40625 54.6875 
L 18.40625 0 
L 9.421875 0 
z
M 9.421875 75.984375 
L 18.40625 75.984375 
L 18.40625 64.59375 
L 9.421875 64.59375 
z
" id="DejaVuSans-69"/>
     </defs>
     <g transform="translate(251.583125 152.164537)scale(0.1 -0.1)">
      <use xlink:href="#DejaVuSans-4e"/>
      <use x="74.804688" xlink:href="#DejaVuSans-69"/>
     </g>
    </g>
    <g id="line2d_20">
     <path d="M 223.583125 163.342663 
L 243.583125 163.342663 
" style="fill:none;stroke:#a0522d;stroke-linecap:square;stroke-width:1.5;"/>
    </g>
    <g id="line2d_21"/>
    <g id="text_14">
     <!-- O -->
     <defs>
      <path d="M 39.40625 66.21875 
Q 28.65625 66.21875 22.328125 58.203125 
Q 16.015625 50.203125 16.015625 36.375 
Q 16.015625 22.609375 22.328125 14.59375 
Q 28.65625 6.59375 39.40625 6.59375 
Q 50.140625 6.59375 56.421875 14.59375 
Q 62.703125 22.609375 62.703125 36.375 
Q 62.703125 50.203125 56.421875 58.203125 
Q 50.140625 66.21875 39.40625 66.21875 
z
M 39.40625 74.21875 
Q 54.734375 74.21875 63.90625 63.9375 
Q 73.09375 53.65625 73.09375 36.375 
Q 73.09375 19.140625 63.90625 8.859375 
Q 54.734375 -1.421875 39.40625 -1.421875 
Q 24.03125 -1.421875 14.8125 8.828125 
Q 5.609375 19.09375 5.609375 36.375 
Q 5.609375 53.65625 14.8125 63.9375 
Q 24.03125 74.21875 39.40625 74.21875 
z
" id="DejaVuSans-4f"/>
     </defs>
     <g transform="translate(251.583125 166.842663)scale(0.1 -0.1)">
      <use xlink:href="#DejaVuSans-4f"/>
     </g>
    </g>
   </g>
  </g>
 </g>
 <defs>
  <clipPath id="pdd9306fbd5">
   <rect height="233.5066" width="250.49" x="24.19" y="25.3128"/>
  </clipPath>
 </defs>
</svg>
