<?xml version="1.0" encoding="utf-8" standalone="no"?>
<!DOCTYPE svg PUBLIC "-//W3C//DTD SVG 1.1//EN"
  "http://www.w3.org/Graphics/SVG/1.1/DTD/svg11.dtd">
<!-- Created with matplotlib (http://matplotlib.org/) -->
<svg height="358.56pt" version="1.1" viewBox="0 0 432 358.56" width="432pt" xmlns="http://www.w3.org/2000/svg" xmlns:xlink="http://www.w3.org/1999/xlink">
 <defs>
  <style type="text/css">
*{stroke-linecap:butt;stroke-linejoin:round;}
  </style>
 </defs>
 <g id="figure_1">
  <g id="patch_1">
   <path d="M 0 358.56 
L 432 358.56 
L 432 0 
L 0 0 
z
" style="fill:#ffffff;"/>
  </g>
  <g id="axes_1">
   <g id="patch_2">
    <path d="M 33.64 330.79152 
L 410.175 330.79152 
L 410.175 25.33824 
L 33.64 25.33824 
z
" style="fill:#ffffff;"/>
   </g>
   <g id="matplotlib.axis_1">
    <g id="xtick_1">
     <g id="line2d_1">
      <defs>
       <path d="M 0 0 
L 0 3.5 
" id="me82b75aea4" style="stroke:#000000;stroke-width:0.8;"/>
      </defs>
      <g>
       <use style="stroke:#000000;stroke-width:0.8;" x="61.880125" xlink:href="#me82b75aea4" y="330.79152"/>
      </g>
     </g>
     <g id="text_1">
      <!-- −5.0 -->
      <defs>
       <path d="M 10.59375 35.5 
L 73.1875 35.5 
L 73.1875 27.203125 
L 10.59375 27.203125 
z
" id="DejaVuSans-2212"/>
       <path d="M 10.796875 72.90625 
L 49.515625 72.90625 
L 49.515625 64.59375 
L 19.828125 64.59375 
L 19.828125 46.734375 
Q 21.96875 47.46875 24.109375 47.828125 
Q 26.265625 48.1875 28.421875 48.1875 
Q 40.625 48.1875 47.75 41.5 
Q 54.890625 34.8125 54.890625 23.390625 
Q 54.890625 11.625 47.5625 5.09375 
Q 40.234375 -1.421875 26.90625 -1.421875 
Q 22.3125 -1.421875 17.546875 -0.640625 
Q 12.796875 0.140625 7.71875 1.703125 
L 7.71875 11.625 
Q 12.109375 9.234375 16.796875 8.0625 
Q 21.484375 6.890625 26.703125 6.890625 
Q 35.15625 6.890625 40.078125 11.328125 
Q 45.015625 15.765625 45.015625 23.390625 
Q 45.015625 31 40.078125 35.4375 
Q 35.15625 39.890625 26.703125 39.890625 
Q 22.75 39.890625 18.8125 39.015625 
Q 14.890625 38.140625 10.796875 36.28125 
z
" id="DejaVuSans-35"/>
       <path d="M 10.6875 12.40625 
L 21 12.40625 
L 21 0 
L 10.6875 0 
z
" id="DejaVuSans-2e"/>
       <path d="M 31.78125 66.40625 
Q 24.171875 66.40625 20.328125 58.90625 
Q 16.5 51.421875 16.5 36.375 
Q 16.5 21.390625 20.328125 13.890625 
Q 24.171875 6.390625 31.78125 6.390625 
Q 39.453125 6.390625 43.28125 13.890625 
Q 47.125 21.390625 47.125 36.375 
Q 47.125 51.421875 43.28125 58.90625 
Q 39.453125 66.40625 31.78125 66.40625 
z
M 31.78125 74.21875 
Q 44.046875 74.21875 50.515625 64.515625 
Q 56.984375 54.828125 56.984375 36.375 
Q 56.984375 17.96875 50.515625 8.265625 
Q 44.046875 -1.421875 31.78125 -1.421875 
Q 19.53125 -1.421875 13.0625 8.265625 
Q 6.59375 17.96875 6.59375 36.375 
Q 6.59375 54.828125 13.0625 64.515625 
Q 19.53125 74.21875 31.78125 74.21875 
z
" id="DejaVuSans-30"/>
      </defs>
      <g transform="translate(49.738719 345.389958)scale(0.1 -0.1)">
       <use xlink:href="#DejaVuSans-2212"/>
       <use x="83.789062" xlink:href="#DejaVuSans-35"/>
       <use x="147.412109" xlink:href="#DejaVuSans-2e"/>
       <use x="179.199219" xlink:href="#DejaVuSans-30"/>
      </g>
     </g>
    </g>
    <g id="xtick_2">
     <g id="line2d_2">
      <g>
       <use style="stroke:#000000;stroke-width:0.8;" x="108.947" xlink:href="#me82b75aea4" y="330.79152"/>
      </g>
     </g>
     <g id="text_2">
      <!-- −2.5 -->
      <defs>
       <path d="M 19.1875 8.296875 
L 53.609375 8.296875 
L 53.609375 0 
L 7.328125 0 
L 7.328125 8.296875 
Q 12.9375 14.109375 22.625 23.890625 
Q 32.328125 33.6875 34.8125 36.53125 
Q 39.546875 41.84375 41.421875 45.53125 
Q 43.3125 49.21875 43.3125 52.78125 
Q 43.3125 58.59375 39.234375 62.25 
Q 35.15625 65.921875 28.609375 65.921875 
Q 23.96875 65.921875 18.8125 64.3125 
Q 13.671875 62.703125 7.8125 59.421875 
L 7.8125 69.390625 
Q 13.765625 71.78125 18.9375 73 
Q 24.125 74.21875 28.421875 74.21875 
Q 39.75 74.21875 46.484375 68.546875 
Q 53.21875 62.890625 53.21875 53.421875 
Q 53.21875 48.921875 51.53125 44.890625 
Q 49.859375 40.875 45.40625 35.40625 
Q 44.1875 33.984375 37.640625 27.21875 
Q 31.109375 20.453125 19.1875 8.296875 
z
" id="DejaVuSans-32"/>
      </defs>
      <g transform="translate(96.805594 345.389958)scale(0.1 -0.1)">
       <use xlink:href="#DejaVuSans-2212"/>
       <use x="83.789062" xlink:href="#DejaVuSans-32"/>
       <use x="147.412109" xlink:href="#DejaVuSans-2e"/>
       <use x="179.199219" xlink:href="#DejaVuSans-35"/>
      </g>
     </g>
    </g>
    <g id="xtick_3">
     <g id="line2d_3">
      <g>
       <use style="stroke:#000000;stroke-width:0.8;" x="156.013875" xlink:href="#me82b75aea4" y="330.79152"/>
      </g>
     </g>
     <g id="text_3">
      <!-- 0.0 -->
      <g transform="translate(148.062313 345.389958)scale(0.1 -0.1)">
       <use xlink:href="#DejaVuSans-30"/>
       <use x="63.623047" xlink:href="#DejaVuSans-2e"/>
       <use x="95.410156" xlink:href="#DejaVuSans-30"/>
      </g>
     </g>
    </g>
    <g id="xtick_4">
     <g id="line2d_4">
      <g>
       <use style="stroke:#000000;stroke-width:0.8;" x="203.08075" xlink:href="#me82b75aea4" y="330.79152"/>
      </g>
     </g>
     <g id="text_4">
      <!-- 2.5 -->
      <g transform="translate(195.129188 345.389958)scale(0.1 -0.1)">
       <use xlink:href="#DejaVuSans-32"/>
       <use x="63.623047" xlink:href="#DejaVuSans-2e"/>
       <use x="95.410156" xlink:href="#DejaVuSans-35"/>
      </g>
     </g>
    </g>
    <g id="xtick_5">
     <g id="line2d_5">
      <g>
       <use style="stroke:#000000;stroke-width:0.8;" x="250.147625" xlink:href="#me82b75aea4" y="330.79152"/>
      </g>
     </g>
     <g id="text_5">
      <!-- 5.0 -->
      <g transform="translate(242.196063 345.389958)scale(0.1 -0.1)">
       <use xlink:href="#DejaVuSans-35"/>
       <use x="63.623047" xlink:href="#DejaVuSans-2e"/>
       <use x="95.410156" xlink:href="#DejaVuSans-30"/>
      </g>
     </g>
    </g>
    <g id="xtick_6">
     <g id="line2d_6">
      <g>
       <use style="stroke:#000000;stroke-width:0.8;" x="297.2145" xlink:href="#me82b75aea4" y="330.79152"/>
      </g>
     </g>
     <g id="text_6">
      <!-- 7.5 -->
      <defs>
       <path d="M 8.203125 72.90625 
L 55.078125 72.90625 
L 55.078125 68.703125 
L 28.609375 0 
L 18.3125 0 
L 43.21875 64.59375 
L 8.203125 64.59375 
z
" id="DejaVuSans-37"/>
      </defs>
      <g transform="translate(289.262938 345.389958)scale(0.1 -0.1)">
       <use xlink:href="#DejaVuSans-37"/>
       <use x="63.623047" xlink:href="#DejaVuSans-2e"/>
       <use x="95.410156" xlink:href="#DejaVuSans-35"/>
      </g>
     </g>
    </g>
    <g id="xtick_7">
     <g id="line2d_7">
      <g>
       <use style="stroke:#000000;stroke-width:0.8;" x="344.281375" xlink:href="#me82b75aea4" y="330.79152"/>
      </g>
     </g>
     <g id="text_7">
      <!-- 10.0 -->
      <defs>
       <path d="M 12.40625 8.296875 
L 28.515625 8.296875 
L 28.515625 63.921875 
L 10.984375 60.40625 
L 10.984375 69.390625 
L 28.421875 72.90625 
L 38.28125 72.90625 
L 38.28125 8.296875 
L 54.390625 8.296875 
L 54.390625 0 
L 12.40625 0 
z
" id="DejaVuSans-31"/>
      </defs>
      <g transform="translate(333.148563 345.389958)scale(0.1 -0.1)">
       <use xlink:href="#DejaVuSans-31"/>
       <use x="63.623047" xlink:href="#DejaVuSans-30"/>
       <use x="127.246094" xlink:href="#DejaVuSans-2e"/>
       <use x="159.033203" xlink:href="#DejaVuSans-30"/>
      </g>
     </g>
    </g>
    <g id="xtick_8">
     <g id="line2d_8">
      <g>
       <use style="stroke:#000000;stroke-width:0.8;" x="391.34825" xlink:href="#me82b75aea4" y="330.79152"/>
      </g>
     </g>
     <g id="text_8">
      <!-- 12.5 -->
      <g transform="translate(380.215438 345.389958)scale(0.1 -0.1)">
       <use xlink:href="#DejaVuSans-31"/>
       <use x="63.623047" xlink:href="#DejaVuSans-32"/>
       <use x="127.246094" xlink:href="#DejaVuSans-2e"/>
       <use x="159.033203" xlink:href="#DejaVuSans-35"/>
      </g>
     </g>
    </g>
   </g>
   <g id="matplotlib.axis_2">
    <g id="ytick_1">
     <g id="line2d_9">
      <defs>
       <path d="M 0 0 
L -3.5 0 
" id="mcd56caa75c" style="stroke:#000000;stroke-width:0.8;"/>
      </defs>
      <g>
       <use style="stroke:#000000;stroke-width:0.8;" x="33.64" xlink:href="#mcd56caa75c" y="316.90728"/>
      </g>
     </g>
     <g id="text_9">
      <!-- 0.0 -->
      <g transform="translate(10.736875 320.706499)scale(0.1 -0.1)">
       <use xlink:href="#DejaVuSans-30"/>
       <use x="63.623047" xlink:href="#DejaVuSans-2e"/>
       <use x="95.410156" xlink:href="#DejaVuSans-30"/>
      </g>
     </g>
    </g>
    <g id="ytick_2">
     <g id="line2d_10">
      <g>
       <use style="stroke:#000000;stroke-width:0.8;" x="33.64" xlink:href="#mcd56caa75c" y="261.37032"/>
      </g>
     </g>
     <g id="text_10">
      <!-- 0.2 -->
      <g transform="translate(10.736875 265.169539)scale(0.1 -0.1)">
       <use xlink:href="#DejaVuSans-30"/>
       <use x="63.623047" xlink:href="#DejaVuSans-2e"/>
       <use x="95.410156" xlink:href="#DejaVuSans-32"/>
      </g>
     </g>
    </g>
    <g id="ytick_3">
     <g id="line2d_11">
      <g>
       <use style="stroke:#000000;stroke-width:0.8;" x="33.64" xlink:href="#mcd56caa75c" y="205.83336"/>
      </g>
     </g>
     <g id="text_11">
      <!-- 0.4 -->
      <defs>
       <path d="M 37.796875 64.3125 
L 12.890625 25.390625 
L 37.796875 25.390625 
z
M 35.203125 72.90625 
L 47.609375 72.90625 
L 47.609375 25.390625 
L 58.015625 25.390625 
L 58.015625 17.1875 
L 47.609375 17.1875 
L 47.609375 0 
L 37.796875 0 
L 37.796875 17.1875 
L 4.890625 17.1875 
L 4.890625 26.703125 
z
" id="DejaVuSans-34"/>
      </defs>
      <g transform="translate(10.736875 209.632579)scale(0.1 -0.1)">
       <use xlink:href="#DejaVuSans-30"/>
       <use x="63.623047" xlink:href="#DejaVuSans-2e"/>
       <use x="95.410156" xlink:href="#DejaVuSans-34"/>
      </g>
     </g>
    </g>
    <g id="ytick_4">
     <g id="line2d_12">
      <g>
       <use style="stroke:#000000;stroke-width:0.8;" x="33.64" xlink:href="#mcd56caa75c" y="150.2964"/>
      </g>
     </g>
     <g id="text_12">
      <!-- 0.6 -->
      <defs>
       <path d="M 33.015625 40.375 
Q 26.375 40.375 22.484375 35.828125 
Q 18.609375 31.296875 18.609375 23.390625 
Q 18.609375 15.53125 22.484375 10.953125 
Q 26.375 6.390625 33.015625 6.390625 
Q 39.65625 6.390625 43.53125 10.953125 
Q 47.40625 15.53125 47.40625 23.390625 
Q 47.40625 31.296875 43.53125 35.828125 
Q 39.65625 40.375 33.015625 40.375 
z
M 52.59375 71.296875 
L 52.59375 62.3125 
Q 48.875 64.0625 45.09375 64.984375 
Q 41.3125 65.921875 37.59375 65.921875 
Q 27.828125 65.921875 22.671875 59.328125 
Q 17.53125 52.734375 16.796875 39.40625 
Q 19.671875 43.65625 24.015625 45.921875 
Q 28.375 48.1875 33.59375 48.1875 
Q 44.578125 48.1875 50.953125 41.515625 
Q 57.328125 34.859375 57.328125 23.390625 
Q 57.328125 12.15625 50.6875 5.359375 
Q 44.046875 -1.421875 33.015625 -1.421875 
Q 20.359375 -1.421875 13.671875 8.265625 
Q 6.984375 17.96875 6.984375 36.375 
Q 6.984375 53.65625 15.1875 63.9375 
Q 23.390625 74.21875 37.203125 74.21875 
Q 40.921875 74.21875 44.703125 73.484375 
Q 48.484375 72.75 52.59375 71.296875 
z
" id="DejaVuSans-36"/>
      </defs>
      <g transform="translate(10.736875 154.095619)scale(0.1 -0.1)">
       <use xlink:href="#DejaVuSans-30"/>
       <use x="63.623047" xlink:href="#DejaVuSans-2e"/>
       <use x="95.410156" xlink:href="#DejaVuSans-36"/>
      </g>
     </g>
    </g>
    <g id="ytick_5">
     <g id="line2d_13">
      <g>
       <use style="stroke:#000000;stroke-width:0.8;" x="33.64" xlink:href="#mcd56caa75c" y="94.75944"/>
      </g>
     </g>
     <g id="text_13">
      <!-- 0.8 -->
      <defs>
       <path d="M 31.78125 34.625 
Q 24.75 34.625 20.71875 30.859375 
Q 16.703125 27.09375 16.703125 20.515625 
Q 16.703125 13.921875 20.71875 10.15625 
Q 24.75 6.390625 31.78125 6.390625 
Q 38.8125 6.390625 42.859375 10.171875 
Q 46.921875 13.96875 46.921875 20.515625 
Q 46.921875 27.09375 42.890625 30.859375 
Q 38.875 34.625 31.78125 34.625 
z
M 21.921875 38.8125 
Q 15.578125 40.375 12.03125 44.71875 
Q 8.5 49.078125 8.5 55.328125 
Q 8.5 64.0625 14.71875 69.140625 
Q 20.953125 74.21875 31.78125 74.21875 
Q 42.671875 74.21875 48.875 69.140625 
Q 55.078125 64.0625 55.078125 55.328125 
Q 55.078125 49.078125 51.53125 44.71875 
Q 48 40.375 41.703125 38.8125 
Q 48.828125 37.15625 52.796875 32.3125 
Q 56.78125 27.484375 56.78125 20.515625 
Q 56.78125 9.90625 50.3125 4.234375 
Q 43.84375 -1.421875 31.78125 -1.421875 
Q 19.734375 -1.421875 13.25 4.234375 
Q 6.78125 9.90625 6.78125 20.515625 
Q 6.78125 27.484375 10.78125 32.3125 
Q 14.796875 37.15625 21.921875 38.8125 
z
M 18.3125 54.390625 
Q 18.3125 48.734375 21.84375 45.5625 
Q 25.390625 42.390625 31.78125 42.390625 
Q 38.140625 42.390625 41.71875 45.5625 
Q 45.3125 48.734375 45.3125 54.390625 
Q 45.3125 60.0625 41.71875 63.234375 
Q 38.140625 66.40625 31.78125 66.40625 
Q 25.390625 66.40625 21.84375 63.234375 
Q 18.3125 60.0625 18.3125 54.390625 
z
" id="DejaVuSans-38"/>
      </defs>
      <g transform="translate(10.736875 98.558659)scale(0.1 -0.1)">
       <use xlink:href="#DejaVuSans-30"/>
       <use x="63.623047" xlink:href="#DejaVuSans-2e"/>
       <use x="95.410156" xlink:href="#DejaVuSans-38"/>
      </g>
     </g>
    </g>
    <g id="ytick_6">
     <g id="line2d_14">
      <g>
       <use style="stroke:#000000;stroke-width:0.8;" x="33.64" xlink:href="#mcd56caa75c" y="39.22248"/>
      </g>
     </g>
     <g id="text_14">
      <!-- 1.0 -->
      <g transform="translate(10.736875 43.021699)scale(0.1 -0.1)">
       <use xlink:href="#DejaVuSans-31"/>
       <use x="63.623047" xlink:href="#DejaVuSans-2e"/>
       <use x="95.410156" xlink:href="#DejaVuSans-30"/>
      </g>
     </g>
    </g>
   </g>
   <g id="line2d_15">
    <path clip-path="url(#p061818aba1)" d="M 156.013875 316.90728 
L 157.300128 316.825675 
L 157.977103 316.528399 
L 158.450985 316.895622 
L 159.12796 316.90728 
L 163.122114 316.825675 
L 163.799089 315.887216 
L 163.866786 315.945505 
L 165.423829 316.90728 
L 166.980872 316.79653 
L 167.590149 316.510912 
L 168.064032 316.878135 
L 168.402519 316.90728 
L 181.061954 316.808188 
L 181.535836 316.324386 
L 182.009719 316.779043 
L 182.212811 316.90728 
L 192.84132 316.802359 
L 193.450598 316.242781 
L 194.127573 316.90728 
L 206.110032 316.802359 
L 206.71931 315.782295 
L 206.787007 315.834755 
L 207.463982 316.90728 
L 213.556758 316.85482 
L 214.233733 316.365189 
L 214.843011 316.90728 
L 214.910708 316.90728 
L 215.249196 316.044597 
L 215.655381 315.053678 
L 216.467751 316.90728 
L 216.806239 316.808188 
L 217.483214 316.481767 
L 217.889399 316.114544 
L 218.566374 316.779043 
L 218.634071 316.755728 
L 218.837164 316.067913 
L 220.800392 307.983175 
L 220.868089 308.210504 
L 221.274274 310.204001 
L 221.545064 311.288183 
L 221.612762 310.985079 
L 222.154342 302.503973 
L 222.289737 299.991701 
L 222.357434 300.737805 
L 222.966712 309.504528 
L 223.03441 310.064106 
L 223.169805 308.099754 
L 224.11757 291.580542 
L 224.523755 285.99059 
L 224.591452 286.532682 
L 224.65915 286.491879 
L 224.997637 285.751604 
L 225.20073 285.238657 
L 225.945402 277.282156 
L 226.419285 271.284179 
L 227.09626 261.013589 
L 227.502445 253.9256 
L 227.570143 254.316139 
L 228.17942 256.33878 
L 228.314815 255.820005 
L 228.924093 251.716432 
L 229.059488 249.402344 
L 230.481136 218.153404 
L 231.158111 213.128859 
L 231.293506 208.652235 
L 231.970481 180.830711 
L 232.038178 180.900659 
L 232.308968 180.434343 
L 232.647456 179.938884 
L 232.782851 175.503062 
L 233.595221 145.606436 
L 234.272196 131.721905 
L 235.016869 113.675511 
L 235.287659 112.999354 
L 235.626146 112.095869 
L 235.964634 104.168512 
L 236.438516 93.862949 
L 237.115492 92.807911 
L 237.589374 95.967196 
L 237.860164 97.750851 
L 238.604837 89.462101 
L 238.740232 89.648627 
L 238.943324 89.928416 
L 239.146417 90.044995 
L 239.214114 90.056652 
L 239.281812 90.231521 
L 239.349509 90.01585 
L 240.094182 103.859579 
L 240.906552 93.991186 
L 241.583527 76.189608 
L 242.3282 97.984009 
L 243.072872 72.11518 
L 243.546755 73.415033 
L 243.817545 74.609965 
L 244.562218 89.986705 
L 245.374588 79.092419 
L 245.916168 79.698629 
L 245.983865 79.762747 
L 246.11926 83.265939 
L 246.728538 102.97358 
L 246.796235 102.86283 
L 247.540908 85.67912 
L 247.608606 86.034685 
L 248.217883 89.887613 
L 248.420976 84.431727 
L 248.962556 67.527805 
L 249.165648 77.681816 
L 249.707228 109.519478 
L 249.774926 108.989045 
L 250.722691 90.814414 
L 251.467364 80.980995 
L 252.685919 67.871713 
L 252.753616 69.142421 
L 253.430591 81.540573 
L 254.175264 73.327599 
L 254.242961 73.945466 
L 255.055332 83.86632 
L 255.664609 96.620037 
L 256.138492 95.3435 
L 256.409282 94.509961 
L 257.086257 87.421972 
L 257.221652 83.312571 
L 257.898627 56.161375 
L 258.710997 72.698074 
L 258.778695 72.820481 
L 258.846392 72.779679 
L 259.320275 72.960376 
L 259.523367 70.617143 
L 260.064947 62.934602 
L 260.132645 63.43589 
L 261.148107 86.244527 
L 261.554293 93.023582 
L 261.62199 92.522293 
L 262.366663 77.582724 
L 263.043638 51.766356 
L 263.179033 55.438587 
L 263.78831 78.42792 
L 263.856008 78.369631 
L 264.0591 76.45191 
L 264.668378 70.360669 
L 265.277656 64.601678 
L 265.345353 65.062164 
L 266.090026 72.290048 
L 266.767001 87.608498 
L 267.579371 69.766118 
L 268.256346 66.717583 
L 268.391741 66.391162 
L 269.068716 64.694941 
L 269.271809 64.619165 
L 269.677994 64.490928 
L 269.745691 63.8206 
L 270.490364 33.929804 
L 270.558061 35.078105 
L 271.235036 45.31955 
L 272.385894 32.79899 
L 272.656684 30.82298 
L 272.724382 32.076201 
L 273.469054 66.315386 
L 274.349122 53.503379 
L 274.890702 47.639467 
L 274.958399 48.403058 
L 275.703072 65.371098 
L 276.176955 60.731263 
L 276.58314 57.787649 
L 276.989325 56.35373 
L 277.12472 55.759178 
L 277.463207 62.736418 
L 277.869392 71.473997 
L 278.20788 58.778569 
L 278.681762 42.265186 
L 278.884855 42.416738 
L 278.952553 42.440054 
L 278.952553 42.440054 
" style="fill:none;stroke:#191970;stroke-linecap:square;stroke-width:1.5;"/>
   </g>
   <g id="line2d_16">
    <path clip-path="url(#p061818aba1)" d="M 156.013875 48.117537 
L 156.081573 48.589621 
L 156.14927 48.564775 
L 156.42006 48.689007 
L 156.487758 48.539928 
L 156.555455 48.862933 
L 156.623153 48.689007 
L 156.69085 48.862933 
L 156.758548 48.788393 
L 156.96164 48.589621 
L 157.029338 48.564775 
L 157.23243 47.918765 
L 157.77401 44.117246 
L 157.977103 42.924613 
L 158.0448 43.347004 
L 158.180195 42.825227 
L 158.247893 42.87492 
L 158.654078 40.961737 
L 158.924868 38.154079 
L 158.992565 38.07954 
L 159.331053 35.122803 
L 159.804936 41.185356 
L 160.075726 43.645162 
L 160.549608 34.874338 
L 160.752701 30.575888 
L 160.820398 30.600735 
L 161.700466 51.596051 
L 161.768163 51.322739 
L 161.835861 51.670591 
L 161.903558 51.273046 
L 161.971256 51.297893 
L 162.038953 51.422125 
L 162.106651 51.347586 
L 162.174348 51.198507 
L 162.309743 51.347586 
L 162.377441 50.60219 
L 162.445138 50.825809 
L 162.512836 50.552497 
L 162.580533 50.776116 
L 162.919021 49.185938 
L 163.054416 49.533789 
L 163.460601 52.068135 
L 163.663694 53.906778 
L 163.731391 53.981318 
L 163.866786 53.459541 
L 164.476064 46.005582 
L 164.679156 46.477666 
L 164.746854 45.23534 
L 164.814551 45.409266 
L 164.949946 45.657731 
L 165.153039 45.309879 
L 165.288434 45.657731 
L 165.965409 51.372432 
L 166.033106 51.322739 
L 166.100804 51.2482 
L 166.168501 50.776116 
L 166.236199 51.198507 
L 166.303896 50.999734 
L 166.710082 49.409557 
L 166.980872 53.235922 
L 167.251662 58.080995 
L 167.454754 61.161964 
L 167.860939 50.999734 
L 168.199427 41.210202 
L 168.944099 63.895083 
L 169.011797 63.12484 
L 169.553377 56.739282 
L 169.688772 54.950332 
L 170.027259 47.769686 
L 170.433445 38.303158 
L 171.178117 56.366585 
L 171.313512 54.577634 
L 171.92279 48.266616 
L 171.990487 48.539928 
L 172.396672 50.453111 
L 173.141345 56.61505 
L 173.209042 56.61505 
L 173.412135 58.478539 
L 173.81832 54.602481 
L 174.08911 51.074274 
L 174.156808 50.974888 
L 174.495295 54.701867 
L 174.969178 58.97547 
L 175.104573 58.90093 
L 175.307665 59.646326 
L 175.375363 59.447554 
L 175.578455 60.019024 
L 175.916943 63.273919 
L 176.390825 67.870527 
L 176.458523 67.572369 
L 176.52622 67.771141 
L 176.593918 67.870527 
L 177.000103 66.031884 
L 177.0678 66.156117 
L 177.338591 62.354598 
L 177.744776 55.099412 
L 177.880171 54.006164 
L 178.963331 63.596924 
L 179.031028 63.870236 
L 179.234121 66.13127 
L 179.301818 65.982191 
L 179.369516 65.733726 
L 179.640306 63.497538 
L 179.911096 60.739573 
L 180.046491 59.199089 
L 180.791164 70.553952 
L 180.926559 70.032175 
L 180.994256 70.181254 
L 181.400441 68.417151 
L 181.671231 67.398443 
L 181.738929 67.622062 
L 181.806626 67.100285 
L 181.874324 67.224517 
L 181.942021 67.224517 
L 182.145114 66.901512 
L 182.280509 67.199671 
L 182.551299 69.734017 
L 183.025181 76.020188 
L 183.092879 75.846263 
L 183.160576 76.194114 
L 183.228274 75.572951 
L 183.295971 75.697184 
L 183.634459 74.653629 
L 183.702156 74.728169 
L 183.837551 74.603936 
L 183.905249 74.554243 
L 184.040644 74.926941 
L 184.108341 74.330624 
L 184.176039 74.554243 
L 184.243737 74.703322 
L 184.379132 74.181545 
L 184.446829 74.603936 
L 184.514527 74.330624 
L 184.582224 74.231238 
L 184.853014 72.814986 
L 184.920712 72.765293 
L 185.056107 71.721739 
L 185.123804 71.796279 
L 186.003872 65.336181 
L 186.206964 67.000899 
L 186.274662 67.174824 
L 186.680847 69.957635 
L 186.748544 70.479413 
L 186.816242 70.230947 
L 186.883939 70.206101 
L 186.951637 70.628492 
L 187.087032 70.106715 
L 187.222427 70.553952 
L 187.560914 68.591076 
L 188.102495 58.553079 
L 188.23789 56.739282 
L 188.711772 66.77728 
L 188.982562 71.199962 
L 189.05026 70.727878 
L 189.524142 66.727587 
L 189.659537 65.311335 
L 189.727235 65.236795 
L 190.201117 70.42972 
L 190.268815 70.404873 
L 190.471907 72.342902 
L 191.148883 65.336181 
L 191.21658 65.410721 
L 191.75816 73.113145 
L 191.893555 75.498411 
L 192.02895 72.988912 
L 192.638228 58.577926 
L 192.705925 59.124549 
L 193.11211 67.696601 
L 193.3829 73.784001 
L 193.450598 73.560382 
L 194.262968 65.087716 
L 194.872246 54.304323 
L 195.413826 55.869654 
L 195.684616 57.11198 
L 195.955406 58.776698 
L 196.293893 61.484969 
L 196.361591 61.807974 
L 197.106263 70.653338 
L 197.850936 52.639605 
L 198.121726 53.260768 
L 198.189424 53.186229 
L 198.324819 53.60862 
L 198.392516 53.260768 
L 198.460214 53.409848 
L 198.595609 54.10555 
L 199.137189 66.479122 
L 199.340281 70.752724 
L 200.084954 59.919638 
L 200.491139 64.118701 
L 200.626534 65.510107 
L 200.829626 66.727587 
L 201.032719 65.336181 
L 201.235811 63.398152 
L 201.303509 63.224226 
L 201.574299 60.83896 
L 201.641996 61.236504 
L 201.709694 61.137118 
L 201.845089 61.311044 
L 202.115879 61.062578 
L 202.251274 60.789267 
L 203.063644 66.230656 
L 203.537527 59.124549 
L 203.808317 55.919347 
L 203.876014 56.515664 
L 203.943712 56.192659 
L 204.011409 56.04358 
L 204.214502 56.913208 
L 204.282199 56.739282 
L 204.485292 57.931916 
L 204.552989 58.205228 
L 205.026872 64.864097 
L 205.297662 68.789849 
L 205.36536 68.56623 
L 205.433057 68.243225 
L 205.500755 68.441997 
L 205.568452 68.541383 
L 205.63615 68.889235 
L 205.703847 68.640769 
L 205.771545 68.765002 
L 205.839242 69.088007 
L 205.974637 68.839542 
L 206.17773 72.79014 
L 206.583915 82.455439 
L 206.71931 84.940092 
L 206.787007 84.890399 
L 207.193192 79.399316 
L 207.463982 75.399025 
L 207.53168 75.523258 
L 207.80247 77.635213 
L 208.208655 80.666489 
L 208.276352 80.567103 
L 208.547142 79.424163 
L 208.750235 78.504841 
L 208.88563 77.287361 
L 208.953328 77.58552 
L 209.021025 77.734599 
L 209.42721 81.362192 
L 209.562605 81.933662 
L 209.833395 84.318929 
L 211.255043 96.891272 
L 211.86432 101.214568 
L 211.932018 101.338801 
L 212.405901 105.438478 
L 212.812086 108.743066 
L 213.082876 112.22158 
L 214.166036 127.402809 
L 214.301431 127.377962 
L 214.436826 127.377962 
L 214.504523 127.17919 
L 214.639918 127.676121 
L 214.707616 127.576735 
L 214.775313 127.328269 
L 214.978406 129.04268 
L 215.587683 139.527915 
L 215.993869 144.199062 
L 216.264659 146.981873 
L 216.535449 151.976025 
L 217.144726 165.567076 
L 217.212424 165.964621 
L 217.280121 165.914928 
L 217.347819 165.492537 
L 217.415516 165.890081 
L 217.483214 165.716155 
L 217.550911 165.641616 
L 217.686306 166.312472 
L 217.754004 165.890081 
L 217.821701 166.213086 
L 217.957096 170.163684 
L 218.634071 194.140584 
L 218.701769 192.94795 
L 219.311047 179.903523 
L 219.378744 179.953216 
L 220.191114 197.619098 
L 220.326509 199.457741 
L 221.409669 222.788631 
L 221.680459 227.559164 
L 221.951249 230.068664 
L 222.289737 233.17448 
L 222.560527 236.404528 
L 223.237502 247.48608 
L 223.84678 262.741848 
L 223.914477 262.940621 
L 224.11757 264.182947 
L 224.456057 265.102269 
L 224.523755 264.828957 
L 225.065335 275.239652 
L 225.336125 278.420008 
L 225.47152 278.966631 
L 225.539217 278.668473 
L 225.606915 278.743013 
L 226.0131 277.177681 
L 226.622378 292.085598 
L 227.028563 295.887117 
L 227.09626 295.738038 
L 227.299353 296.731899 
L 227.36705 296.657359 
L 227.502445 295.961657 
L 227.705538 298.471156 
L 228.111723 300.508571 
L 228.247118 299.688636 
L 228.585605 304.608249 
L 228.924093 306.794743 
L 228.99179 306.993515 
L 229.53337 312.733063 
L 229.601068 312.882142 
L 229.736463 312.484598 
L 229.804161 312.68337 
L 230.007253 311.441044 
L 230.142648 310.024792 
L 230.481136 306.471738 
L 230.819623 309.10547 
L 231.090413 310.546569 
L 231.158111 310.149024 
L 231.225808 310.198717 
L 231.564296 313.801464 
L 231.835086 315.217716 
L 231.970481 315.018944 
L 232.173573 315.168023 
L 232.308968 315.068637 
L 232.512061 314.621399 
L 232.715153 314.124469 
L 232.850548 314.149315 
L 233.189036 313.031222 
L 233.392129 311.416197 
L 233.459826 311.614969 
L 233.866011 313.876004 
L 234.069104 314.298395 
L 234.136801 314.000236 
L 234.204499 314.049929 
L 234.407591 314.894711 
L 234.475289 314.695939 
L 234.610684 314.745632 
L 234.881474 313.40392 
L 235.016869 314.000236 
L 235.287659 315.267409 
L 235.423054 315.292256 
L 235.626146 314.869865 
L 235.829239 315.466181 
L 236.032331 316.161884 
L 236.100029 316.161884 
L 236.235424 316.26127 
L 236.370819 316.012805 
L 236.438516 316.087345 
L 236.980097 316.733354 
L 237.183189 316.683661 
L 237.521677 316.708508 
L 237.724769 316.435196 
L 237.860164 316.211577 
L 237.927862 316.310963 
L 238.334047 316.90728 
L 238.537139 316.807894 
L 238.604837 316.484889 
L 238.740232 316.857587 
L 238.875627 316.708508 
L 239.011022 316.286117 
L 239.349509 315.168023 
L 239.417207 315.366795 
L 239.823392 316.559429 
L 239.891089 316.658815 
L 239.958787 316.584275 
L 240.094182 316.460042 
L 240.635762 316.90728 
L 241.177342 316.882433 
L 241.51583 316.360656 
L 241.583527 316.286117 
L 241.718922 316.410349 
L 241.854317 316.435196 
L 241.989712 316.534582 
L 242.3282 316.26127 
L 242.463595 316.360656 
L 242.734385 316.161884 
L 242.86978 316.062498 
L 243.072872 315.789186 
L 243.749847 316.90728 
L 243.95294 316.807894 
L 244.426823 315.341949 
L 244.562218 314.994097 
L 244.900705 316.161884 
L 245.239193 316.90728 
L 245.84847 316.807894 
L 246.051563 316.733354 
L 246.254655 316.783047 
L 246.728538 315.317102 
L 246.796235 315.341949 
L 246.93163 315.714647 
L 247.270118 316.037652 
L 247.540908 315.640107 
L 247.947093 316.286117 
L 248.353278 316.484889 
L 248.488673 316.559429 
L 248.759463 316.708508 
L 249.571833 316.90728 
L 249.842623 316.807894 
L 250.384203 315.391642 
L 250.451901 315.168023 
L 250.519598 315.292256 
L 250.790388 315.814033 
L 251.128876 316.037652 
L 251.196574 315.913419 
L 251.264271 316.012805 
L 251.670456 316.857587 
L 251.805851 316.857587 
L 252.008944 316.807894 
L 252.279734 316.90728 
L 253.092104 316.83274 
L 253.430591 316.609122 
L 253.565986 316.683661 
L 253.769079 316.534582 
L 253.904474 316.360656 
L 254.175264 315.76434 
L 254.513752 316.385503 
L 254.716844 316.509736 
L 254.852239 316.534582 
L 254.919937 316.484889 
L 255.326122 316.90728 
L 256.003097 316.857587 
L 256.273887 316.633968 
L 256.409282 316.559429 
L 256.747769 316.807894 
L 256.883164 316.708508 
L 257.153954 316.410349 
L 257.695534 316.90728 
L 257.966325 316.857587 
L 258.6433 314.795325 
L 259.320275 316.90728 
L 259.929552 316.807894 
L 260.132645 316.708508 
L 260.53883 316.90728 
L 261.148107 316.83274 
L 261.554293 316.460042 
L 261.757385 316.633968 
L 262.298965 316.90728 
L 265.886933 316.807894 
L 266.090026 316.758201 
L 266.293118 316.882433 
L 266.631606 316.484889 
L 266.834698 316.410349 
L 267.376278 316.90728 
L 268.594834 316.83274 
L 269.001019 316.484889 
L 269.474901 316.90728 
L 271.099641 316.807894 
L 271.235036 316.708508 
L 271.438129 316.90728 
L 276.176955 316.83274 
L 276.380047 316.708508 
L 276.58314 316.807894 
L 276.85393 316.90728 
L 277.057022 316.807894 
L 277.192417 316.807894 
L 277.463207 316.90728 
L 277.733997 316.807894 
L 277.93709 316.758201 
L 278.614065 316.90728 
L 278.952553 316.90728 
L 278.952553 316.90728 
" style="fill:none;stroke:#b8860b;stroke-linecap:square;stroke-width:1.5;"/>
   </g>
   <g id="line2d_17">
    <path clip-path="url(#p061818aba1)" d="M 156.013875 316.290736 
L 156.487758 316.401065 
L 156.893943 316.420535 
L 157.300128 316.362126 
L 157.841708 315.654723 
L 158.383288 316.660663 
L 158.518683 316.777481 
L 158.789473 316.822911 
L 159.263355 316.90728 
L 161.700466 316.855361 
L 162.309743 316.407555 
L 162.986718 316.87483 
L 168.402519 316.829401 
L 168.944099 316.173917 
L 169.011797 316.238817 
L 169.553377 316.90079 
L 170.771932 316.90728 
L 173.479832 316.86834 
L 174.156808 316.037629 
L 174.224505 316.115508 
L 174.833783 316.667152 
L 175.104573 316.751522 
L 175.578455 316.822911 
L 176.79701 316.712582 
L 177.135498 316.511394 
L 177.406288 316.563314 
L 178.083263 316.602253 
L 178.557146 316.90728 
L 188.982562 316.90728 
L 189.253352 315.9273 
L 189.727235 314.071179 
L 190.268815 316.096038 
L 190.471907 316.446495 
L 191.081185 316.88781 
L 191.351975 316.777481 
L 191.961253 316.115508 
L 192.705925 316.90728 
L 192.976715 316.699602 
L 193.315203 316.271266 
L 193.3829 316.147958 
L 193.450598 316.206367 
L 194.059875 316.90728 
L 195.887708 316.803441 
L 196.429288 316.524374 
L 197.106263 316.90728 
L 197.173961 316.86834 
L 197.783238 314.91487 
L 197.850936 314.694213 
L 198.527911 316.401065 
L 199.204886 316.90728 
L 199.678769 316.816421 
L 200.084954 316.452985 
L 200.491139 316.543844 
L 200.761929 316.433515 
L 200.897324 316.491924 
L 201.032719 316.472454 
L 201.709694 316.050609 
L 202.386669 316.180407 
L 202.589762 316.232327 
L 202.928249 316.063589 
L 203.063644 315.875381 
L 203.469829 316.115508 
L 203.943712 316.109018 
L 204.552989 314.746132 
L 204.620687 314.895401 
L 205.094569 315.291286 
L 205.36536 314.856461 
L 206.71931 309.216708 
L 206.787007 309.456836 
L 207.057797 310.521185 
L 207.396285 311.215608 
L 207.463982 311.01442 
L 208.276352 313.96734 
L 208.61484 312.03334 
L 209.088723 309.437366 
L 209.224118 308.924661 
L 209.562605 307.561775 
L 210.442673 303.550996 
L 210.51037 303.998802 
L 210.916555 306.646695 
L 211.187345 307.698064 
L 211.255043 307.743493 
L 211.390438 307.386547 
L 211.86432 305.517446 
L 211.932018 304.998251 
L 211.999715 305.290298 
L 212.067413 305.225399 
L 213.015178 300.740855 
L 213.421363 297.418009 
L 213.489061 297.800915 
L 213.692153 297.372579 
L 214.098338 296.3277 
L 214.369128 294.127612 
L 214.910708 288.208792 
L 216.061566 267.921259 
L 216.670844 258.848332 
L 217.144726 250.333538 
L 217.821701 254.999801 
L 217.889399 254.837553 
L 219.378744 232.408341 
L 220.326509 205.462136 
L 221.545064 179.671139 
L 221.680459 182.020495 
L 222.289737 195.831074 
L 222.357434 193.942503 
L 223.03441 166.684781 
L 223.102107 167.398674 
L 223.779082 179.677629 
L 224.794545 147.247429 
L 225.268427 141.860784 
L 226.351588 122.851768 
L 226.757773 117.958358 
L 226.82547 118.179015 
L 227.434748 120.197385 
L 227.502445 120.061096 
L 228.314815 101.954181 
L 228.856395 99.520455 
L 229.397975 96.937462 
L 229.668765 95.814703 
L 229.804161 92.472387 
L 230.548833 70.64025 
L 230.616531 70.783028 
L 230.819623 70.893357 
L 230.887321 70.808988 
L 231.090413 71.055606 
L 231.225808 71.101035 
L 231.361203 71.217854 
L 231.496598 71.302223 
L 231.767388 71.451492 
L 231.835086 71.438512 
L 231.902783 71.56182 
L 232.038178 69.387693 
L 232.715153 55.505724 
L 233.392129 56.401335 
L 234.136801 60.658732 
L 234.746079 76.844627 
L 234.881474 80.719117 
L 235.016869 76.091794 
L 235.626146 49.203998 
L 235.693844 49.710213 
L 236.506214 66.343914 
L 236.641609 66.70735 
L 237.115492 67.856068 
L 237.657072 60.931309 
L 237.860164 58.276926 
L 238.604837 62.281215 
L 238.875627 62.131947 
L 238.943324 62.222806 
L 239.146417 62.054067 
L 239.281812 62.002148 
L 239.349509 61.898309 
L 239.823392 63.845289 
L 240.094182 64.559182 
L 240.838855 42.577776 
L 241.583527 81.835386 
L 241.651225 79.829996 
L 242.3282 61.398584 
L 243.072872 79.745627 
L 243.14057 79.680728 
L 243.479057 78.090694 
L 243.817545 76.747278 
L 244.49452 80.096083 
L 244.562218 79.550929 
L 245.30689 57.147677 
L 246.11926 67.161645 
L 246.66084 68.238974 
L 246.728538 68.297384 
L 247.067025 72.418492 
L 247.473211 77.908976 
L 247.540908 77.51958 
L 248.217883 66.038887 
L 248.353278 70.198934 
L 248.962556 94.12732 
L 249.030253 93.2382 
L 249.707228 72.022606 
L 249.774926 72.113465 
L 250.587296 80.42707 
L 251.196574 91.706575 
L 251.264271 90.28528 
L 251.941246 70.698659 
L 252.618221 92.290669 
L 252.685919 94.484267 
L 253.430591 75.52068 
L 253.565986 75.838687 
L 253.701381 76.039875 
L 254.039869 76.390331 
L 254.175264 76.695358 
L 254.649147 73.359532 
L 254.919937 71.250304 
L 255.664609 56.245577 
L 256.273887 60.996208 
L 256.409282 61.885329 
L 257.153954 70.808988 
L 257.424744 71.224344 
L 257.695534 71.445002 
L 257.830929 71.678639 
L 257.966325 71.016666 
L 258.6433 65.792269 
L 259.45567 51.475475 
L 260.064947 51.806462 
L 260.26804 50.112589 
L 260.945015 44.012051 
L 261.148107 43.726494 
L 261.3512 43.213789 
L 261.418898 43.304648 
L 261.554293 42.882803 
L 262.366663 45.511226 
L 262.840545 46.251078 
L 262.908243 46.251078 
L 263.043638 46.465246 
L 263.51752 43.453917 
L 263.78831 41.682165 
L 263.856008 41.863883 
L 264.60068 46.166709 
L 265.277656 57.141187 
L 266.022328 33.900734 
L 266.090026 35.30905 
L 266.767001 49.632334 
L 267.511673 46.12777 
L 268.256346 33.913714 
L 269.001019 45.08289 
L 269.068716 44.297608 
L 269.745691 37.496158 
L 270.558061 47.562045 
L 271.031944 49.470086 
L 271.235036 50.463045 
L 271.979709 59.023268 
L 272.047407 59.023268 
L 272.318197 59.367235 
L 272.385894 59.302335 
L 272.521289 59.425644 
L 272.588987 59.425644 
L 272.656684 59.561933 
L 272.792079 57.134697 
L 273.469054 40.922843 
L 274.146029 44.706474 
L 274.349122 45.11534 
L 274.890702 45.855192 
L 275.026097 44.959582 
L 275.635375 39.942863 
L 275.703072 40.455567 
L 277.12472 57.978389 
L 277.39551 50.01524 
L 277.869392 34.900184 
L 277.93709 36.392869 
L 278.74946 56.472724 
L 278.952553 56.388355 
L 278.952553 56.388355 
" style="fill:none;stroke:#006400;stroke-linecap:square;stroke-width:1.5;"/>
   </g>
   <g id="line2d_18">
    <path clip-path="url(#p061818aba1)" d="M 156.013875 301.67078 
L 156.352363 301.468749 
L 156.96164 312.189857 
L 157.164733 313.853246 
L 157.367825 313.388574 
L 157.706313 312.519841 
L 158.58638 308.728394 
L 159.331053 317.119412 
L 159.737238 312.250467 
L 160.075726 308.344535 
L 160.752701 315.018291 
L 160.820398 315.065431 
L 161.091188 313.375106 
L 161.565071 310.041595 
L 162.038953 310.09547 
L 162.309743 309.590393 
L 162.648231 305.509368 
L 163.054416 300.539406 
L 163.528299 302.35095 
L 163.799089 303.590074 
L 164.476064 309.017972 
L 164.611459 308.997768 
L 165.288434 307.267037 
L 165.965409 297.69077 
L 166.033106 298.391144 
L 166.777779 308.061692 
L 168.199427 299.199268 
L 168.267124 299.569658 
L 168.673309 301.08489 
L 168.876402 301.536092 
L 168.944099 301.307124 
L 169.688772 311.348062 
L 169.824167 310.459126 
L 170.433445 303.421714 
L 170.501142 303.812308 
L 170.907327 304.189432 
L 171.11042 304.128823 
L 171.178117 303.825776 
L 171.584302 307.987614 
L 171.92279 310.600547 
L 172.058185 309.799158 
L 172.667462 304.189432 
L 173.00595 307.664364 
L 173.412135 310.385048 
L 174.021413 302.115248 
L 174.156808 300.371047 
L 174.495295 301.488952 
L 174.90148 302.472169 
L 175.17227 303.596808 
L 175.646153 304.721447 
L 175.98464 306.674413 
L 176.390825 308.122301 
L 176.52622 307.65763 
L 177.0678 304.802259 
L 177.135498 304.984087 
L 177.677078 311.731921 
L 177.812473 313.125934 
L 177.880171 312.917169 
L 178.354053 306.600335 
L 179.301818 293.589542 
L 179.437213 295.88596 
L 180.114188 309.112253 
L 180.723466 310.708297 
L 180.791164 310.661157 
L 180.926559 310.997875 
L 181.400441 310.600547 
L 181.603534 310.028126 
L 182.077416 306.270351 
L 182.280509 304.283713 
L 183.025181 311.52989 
L 183.092879 311.496218 
L 183.702156 307.314177 
L 184.108341 304.250041 
L 184.446829 301.334061 
L 184.514527 300.573078 
L 185.191502 310.896859 
L 185.259199 311.321124 
L 185.326897 311.226843 
L 186.003872 306.128929 
L 186.071569 306.250148 
L 186.613149 306.54646 
L 186.748544 306.263616 
L 187.154729 309.475908 
L 187.493217 311.476015 
L 187.69631 309.334487 
L 188.23789 302.485638 
L 188.914865 310.647688 
L 189.117957 311.139297 
L 189.727235 311.078687 
L 190.40421 317.052069 
L 190.471907 317.011663 
L 191.21658 307.07174 
L 191.284278 307.489271 
L 191.690463 309.40183 
L 191.961253 310.075267 
L 192.02895 310.115673 
L 192.435135 309.213268 
L 192.638228 308.50616 
L 192.705925 308.586972 
L 192.976715 308.863081 
L 193.315203 308.714925 
L 193.3829 308.405144 
L 193.585993 310.001189 
L 194.127573 314.23037 
L 194.19527 314.210167 
L 194.804548 311.267249 
L 194.872246 310.795844 
L 195.210733 313.442449 
L 195.684616 316.567195 
L 195.887708 316.304554 
L 196.361591 315.334806 
L 196.429288 315.44929 
L 196.632381 315.462759 
L 197.038566 315.240525 
L 197.850936 312.37842 
L 197.918633 312.836356 
L 198.392516 315.66479 
L 198.595609 316.573929 
L 199.069491 314.998088 
L 199.340281 313.947527 
L 199.611071 314.49301 
L 200.017256 315.0789 
L 200.152651 315.301134 
L 200.694231 316.109258 
L 201.100416 316.365164 
L 201.980484 316.600866 
L 202.183577 316.587398 
L 202.386669 316.553726 
L 202.860552 316.196805 
L 203.808317 314.876869 
L 204.485292 316.910647 
L 204.552989 316.88371 
L 205.297662 314.095683 
L 205.36536 314.169761 
L 205.771545 314.439135 
L 206.110032 314.580557 
L 206.9901 316.149664 
L 207.463982 317.119412 
L 208.208655 317.119412 
L 208.276352 316.897178 
L 209.088723 310.189751 
L 209.291815 310.351376 
L 209.630303 310.472594 
L 209.698 310.284032 
L 210.374975 314.371792 
L 211.187345 316.284351 
L 211.32274 315.482962 
L 211.932018 309.812627 
L 211.999715 310.230157 
L 212.676691 314.311182 
L 212.879783 314.277511 
L 213.150573 314.062011 
L 213.421363 313.806105 
L 213.759851 314.674838 
L 214.301431 315.644587 
L 214.843011 315.920696 
L 214.910708 315.853352 
L 215.113801 316.068852 
L 215.452288 316.102523 
L 215.790776 316.291086 
L 216.400054 316.977991 
L 216.603146 316.163133 
L 217.212424 313.173075 
L 217.821701 311.698249 
L 217.889399 311.779061 
L 218.634071 316.122726 
L 218.904861 316.001508 
L 219.311047 315.678258 
L 219.378744 315.503165 
L 220.055719 309.300815 
L 220.123417 309.603861 
L 220.868089 317.119412 
L 220.935787 317.092475 
L 221.206577 316.782694 
L 221.545064 316.344961 
L 221.680459 314.883603 
L 222.289737 304.398197 
L 222.357434 305.179384 
L 223.03441 316.163133 
L 223.102107 316.08232 
L 223.643687 313.53673 
L 223.779082 312.809419 
L 223.982175 313.307762 
L 224.320662 313.711824 
L 224.456057 313.718558 
L 224.523755 313.476121 
L 224.591452 313.590605 
L 224.794545 313.583871 
L 225.20073 313.327965 
L 225.403822 312.169654 
L 226.0131 305.502633 
L 226.080797 306.378101 
L 226.82547 313.476121 
L 226.960865 313.469387 
L 227.502445 313.125934 
L 228.111723 316.129461 
L 228.247118 316.506585 
L 228.653303 311.752124 
L 228.99179 307.913536 
L 229.397975 309.72508 
L 229.736463 310.674625 
L 229.871858 310.492797 
L 230.616531 307.76538 
L 231.902783 298.869284 
L 231.970481 299.010705 
L 232.647456 309.368159 
L 232.715153 309.152659 
L 233.256733 299.509048 
L 233.527524 296.067788 
L 234.272196 290.262765 
L 234.881474 280.41039 
L 234.949171 280.767311 
L 235.558449 286.437646 
L 235.626146 286.693552 
L 235.693844 286.430912 
L 236.641609 277.097082 
L 237.115492 273.99254 
L 237.183189 274.679445 
L 237.453979 275.703069 
L 237.792467 276.558333 
L 237.860164 276.450583 
L 238.130954 270.591686 
L 238.604837 258.321673 
L 238.672534 258.732469 
L 239.281812 254.678382 
L 239.484904 250.785919 
L 240.094182 234.461818 
L 240.161879 235.754816 
L 240.838855 243.741773 
L 241.583527 218.32628 
L 241.651225 222.003243 
L 242.3282 252.267479 
L 242.937477 233.034133 
L 243.14057 223.060539 
L 243.885243 174.121909 
L 244.49452 170.24965 
L 244.968403 161.91924 
L 245.30689 156.41053 
L 245.780773 159.400588 
L 246.051563 161.191929 
L 246.728538 170.013947 
L 246.863933 164.693799 
L 247.676303 125.567139 
L 248.285581 109.269976 
L 248.353278 109.687507 
L 248.556371 110.650521 
L 248.962556 113.000814 
L 249.707228 143.278518 
L 249.842623 140.739663 
L 250.451901 125.07553 
L 250.519598 125.33817 
L 251.196574 132.644956 
L 251.399666 128.644744 
L 252.008944 116.704715 
L 252.144339 116.442074 
L 252.550524 115.290498 
L 252.618221 115.223154 
L 252.753616 114.213 
L 253.430591 106.306855 
L 254.175264 69.436208 
L 254.242961 71.523861 
L 255.055332 96.831604 
L 255.664609 123.600704 
L 256.680072 104.852233 
L 257.153954 101.505253 
L 257.357047 102.488471 
L 257.898627 105.539138 
L 258.6433 114.017703 
L 259.320275 105.397716 
L 259.523367 93.807874 
L 260.132645 56.041556 
L 261.689688 72.264641 
L 262.298965 87.437165 
L 262.366663 86.763729 
L 263.043638 69.422739 
L 263.314428 85.437059 
L 263.78831 116.152497 
L 263.923705 110.832349 
L 264.803773 70.991846 
L 265.277656 54.081856 
L 265.345353 54.19634 
L 266.022328 56.836211 
L 266.767001 89.895208 
L 267.511673 41.838781 
L 268.256346 97.383822 
L 269.001019 60.82969 
L 269.745691 73.584577 
L 270.422666 59.880144 
L 270.625759 52.532952 
L 271.235036 28.760644 
L 271.302734 29.817939 
L 271.708919 35.811524 
L 272.927474 56.667852 
L 273.469054 59.994628 
L 274.146029 81.201143 
L 274.213727 80.884628 
L 274.890702 60.701737 
L 274.958399 61.078861 
L 275.635375 83.814077 
L 275.77077 78.931662 
L 276.515442 43.643591 
L 277.12472 29.225315 
L 277.39551 39.374003 
L 278.072485 63.967904 
L 278.681762 76.992165 
L 278.74946 76.965228 
L 278.952553 77.248071 
L 278.952553 77.248071 
" style="fill:none;stroke:#a0522d;stroke-linecap:square;stroke-width:1.5;"/>
   </g>
   <g id="patch_3">
    <path d="M 33.64 330.79152 
L 33.64 25.33824 
" style="fill:none;stroke:#000000;stroke-linecap:square;stroke-linejoin:miter;stroke-width:0.8;"/>
   </g>
   <g id="patch_4">
    <path d="M 410.175 330.79152 
L 410.175 25.33824 
" style="fill:none;stroke:#000000;stroke-linecap:square;stroke-linejoin:miter;stroke-width:0.8;"/>
   </g>
   <g id="patch_5">
    <path d="M 33.64 330.79152 
L 410.175 330.79152 
" style="fill:none;stroke:#000000;stroke-linecap:square;stroke-linejoin:miter;stroke-width:0.8;"/>
   </g>
   <g id="patch_6">
    <path d="M 33.64 25.33824 
L 410.175 25.33824 
" style="fill:none;stroke:#000000;stroke-linecap:square;stroke-linejoin:miter;stroke-width:0.8;"/>
   </g>
   <g id="text_15">
    <!-- FC_close -->
    <defs>
     <path d="M 9.8125 72.90625 
L 51.703125 72.90625 
L 51.703125 64.59375 
L 19.671875 64.59375 
L 19.671875 43.109375 
L 48.578125 43.109375 
L 48.578125 34.8125 
L 19.671875 34.8125 
L 19.671875 0 
L 9.8125 0 
z
" id="DejaVuSans-46"/>
     <path d="M 64.40625 67.28125 
L 64.40625 56.890625 
Q 59.421875 61.53125 53.78125 63.8125 
Q 48.140625 66.109375 41.796875 66.109375 
Q 29.296875 66.109375 22.65625 58.46875 
Q 16.015625 50.828125 16.015625 36.375 
Q 16.015625 21.96875 22.65625 14.328125 
Q 29.296875 6.6875 41.796875 6.6875 
Q 48.140625 6.6875 53.78125 8.984375 
Q 59.421875 11.28125 64.40625 15.921875 
L 64.40625 5.609375 
Q 59.234375 2.09375 53.4375 0.328125 
Q 47.65625 -1.421875 41.21875 -1.421875 
Q 24.65625 -1.421875 15.125 8.703125 
Q 5.609375 18.84375 5.609375 36.375 
Q 5.609375 53.953125 15.125 64.078125 
Q 24.65625 74.21875 41.21875 74.21875 
Q 47.75 74.21875 53.53125 72.484375 
Q 59.328125 70.75 64.40625 67.28125 
z
" id="DejaVuSans-43"/>
     <path d="M 50.984375 -16.609375 
L 50.984375 -23.578125 
L -0.984375 -23.578125 
L -0.984375 -16.609375 
z
" id="DejaVuSans-5f"/>
     <path d="M 48.78125 52.59375 
L 48.78125 44.1875 
Q 44.96875 46.296875 41.140625 47.34375 
Q 37.3125 48.390625 33.40625 48.390625 
Q 24.65625 48.390625 19.8125 42.84375 
Q 14.984375 37.3125 14.984375 27.296875 
Q 14.984375 17.28125 19.8125 11.734375 
Q 24.65625 6.203125 33.40625 6.203125 
Q 37.3125 6.203125 41.140625 7.25 
Q 44.96875 8.296875 48.78125 10.40625 
L 48.78125 2.09375 
Q 45.015625 0.34375 40.984375 -0.53125 
Q 36.96875 -1.421875 32.421875 -1.421875 
Q 20.0625 -1.421875 12.78125 6.34375 
Q 5.515625 14.109375 5.515625 27.296875 
Q 5.515625 40.671875 12.859375 48.328125 
Q 20.21875 56 33.015625 56 
Q 37.15625 56 41.109375 55.140625 
Q 45.0625 54.296875 48.78125 52.59375 
z
" id="DejaVuSans-63"/>
     <path d="M 9.421875 75.984375 
L 18.40625 75.984375 
L 18.40625 0 
L 9.421875 0 
z
" id="DejaVuSans-6c"/>
     <path d="M 30.609375 48.390625 
Q 23.390625 48.390625 19.1875 42.75 
Q 14.984375 37.109375 14.984375 27.296875 
Q 14.984375 17.484375 19.15625 11.84375 
Q 23.34375 6.203125 30.609375 6.203125 
Q 37.796875 6.203125 41.984375 11.859375 
Q 46.1875 17.53125 46.1875 27.296875 
Q 46.1875 37.015625 41.984375 42.703125 
Q 37.796875 48.390625 30.609375 48.390625 
z
M 30.609375 56 
Q 42.328125 56 49.015625 48.375 
Q 55.71875 40.765625 55.71875 27.296875 
Q 55.71875 13.875 49.015625 6.21875 
Q 42.328125 -1.421875 30.609375 -1.421875 
Q 18.84375 -1.421875 12.171875 6.21875 
Q 5.515625 13.875 5.515625 27.296875 
Q 5.515625 40.765625 12.171875 48.375 
Q 18.84375 56 30.609375 56 
z
" id="DejaVuSans-6f"/>
     <path d="M 44.28125 53.078125 
L 44.28125 44.578125 
Q 40.484375 46.53125 36.375 47.5 
Q 32.28125 48.484375 27.875 48.484375 
Q 21.1875 48.484375 17.84375 46.4375 
Q 14.5 44.390625 14.5 40.28125 
Q 14.5 37.15625 16.890625 35.375 
Q 19.28125 33.59375 26.515625 31.984375 
L 29.59375 31.296875 
Q 39.15625 29.25 43.1875 25.515625 
Q 47.21875 21.78125 47.21875 15.09375 
Q 47.21875 7.46875 41.1875 3.015625 
Q 35.15625 -1.421875 24.609375 -1.421875 
Q 20.21875 -1.421875 15.453125 -0.5625 
Q 10.6875 0.296875 5.421875 2 
L 5.421875 11.28125 
Q 10.40625 8.6875 15.234375 7.390625 
Q 20.0625 6.109375 24.8125 6.109375 
Q 31.15625 6.109375 34.5625 8.28125 
Q 37.984375 10.453125 37.984375 14.40625 
Q 37.984375 18.0625 35.515625 20.015625 
Q 33.0625 21.96875 24.703125 23.78125 
L 21.578125 24.515625 
Q 13.234375 26.265625 9.515625 29.90625 
Q 5.8125 33.546875 5.8125 39.890625 
Q 5.8125 47.609375 11.28125 51.796875 
Q 16.75 56 26.8125 56 
Q 31.78125 56 36.171875 55.265625 
Q 40.578125 54.546875 44.28125 53.078125 
z
" id="DejaVuSans-73"/>
     <path d="M 56.203125 29.59375 
L 56.203125 25.203125 
L 14.890625 25.203125 
Q 15.484375 15.921875 20.484375 11.0625 
Q 25.484375 6.203125 34.421875 6.203125 
Q 39.59375 6.203125 44.453125 7.46875 
Q 49.3125 8.734375 54.109375 11.28125 
L 54.109375 2.78125 
Q 49.265625 0.734375 44.1875 -0.34375 
Q 39.109375 -1.421875 33.890625 -1.421875 
Q 20.796875 -1.421875 13.15625 6.1875 
Q 5.515625 13.8125 5.515625 26.8125 
Q 5.515625 40.234375 12.765625 48.109375 
Q 20.015625 56 32.328125 56 
Q 43.359375 56 49.78125 48.890625 
Q 56.203125 41.796875 56.203125 29.59375 
z
M 47.21875 32.234375 
Q 47.125 39.59375 43.09375 43.984375 
Q 39.0625 48.390625 32.421875 48.390625 
Q 24.90625 48.390625 20.390625 44.140625 
Q 15.875 39.890625 15.1875 32.171875 
z
" id="DejaVuSans-65"/>
    </defs>
    <g transform="translate(195.812188 19.33824)scale(0.12 -0.12)">
     <use xlink:href="#DejaVuSans-46"/>
     <use x="57.519531" xlink:href="#DejaVuSans-43"/>
     <use x="127.34375" xlink:href="#DejaVuSans-5f"/>
     <use x="177.34375" xlink:href="#DejaVuSans-63"/>
     <use x="232.324219" xlink:href="#DejaVuSans-6c"/>
     <use x="260.107422" xlink:href="#DejaVuSans-6f"/>
     <use x="321.289062" xlink:href="#DejaVuSans-73"/>
     <use x="373.388672" xlink:href="#DejaVuSans-65"/>
    </g>
   </g>
  </g>
 </g>
 <defs>
  <clipPath id="p061818aba1">
   <rect height="305.45328" width="376.535" x="33.64" y="25.33824"/>
  </clipPath>
 </defs>
</svg>
