<?xml version="1.0" encoding="utf-8" standalone="no"?>
<!DOCTYPE svg PUBLIC "-//W3C//DTD SVG 1.1//EN"
  "http://www.w3.org/Graphics/SVG/1.1/DTD/svg11.dtd">
<!-- Created with matplotlib (http://matplotlib.org/) -->
<svg height="214.56pt" version="1.1" viewBox="0 0 576 214.56" width="576pt" xmlns="http://www.w3.org/2000/svg" xmlns:xlink="http://www.w3.org/1999/xlink">
 <defs>
  <style type="text/css">
*{stroke-linecap:butt;stroke-linejoin:round;}
  </style>
 </defs>
 <g id="figure_1">
  <g id="patch_1">
   <path d="M 0 214.56 
L 576 214.56 
L 576 0 
L 0 0 
z
" style="fill:#ffffff;"/>
  </g>
  <g id="axes_1">
   <g id="patch_2">
    <path d="M 33.64 186.865867 
L 562.68 186.865867 
L 562.68 25.2704 
L 33.64 25.2704 
z
" style="fill:#ffffff;"/>
   </g>
   <g id="matplotlib.axis_1">
    <g id="xtick_1">
     <g id="line2d_1">
      <defs>
       <path d="M 0 0 
L 0 3.5 
" id="m8326f9fef7" style="stroke:#000000;stroke-width:0.8;"/>
      </defs>
      <g>
       <use style="stroke:#000000;stroke-width:0.8;" x="33.64" xlink:href="#m8326f9fef7" y="186.865867"/>
      </g>
     </g>
     <g id="text_1">
      <!-- 0 -->
      <defs>
       <path d="M 31.78125 66.40625 
Q 24.171875 66.40625 20.328125 58.90625 
Q 16.5 51.421875 16.5 36.375 
Q 16.5 21.390625 20.328125 13.890625 
Q 24.171875 6.390625 31.78125 6.390625 
Q 39.453125 6.390625 43.28125 13.890625 
Q 47.125 21.390625 47.125 36.375 
Q 47.125 51.421875 43.28125 58.90625 
Q 39.453125 66.40625 31.78125 66.40625 
z
M 31.78125 74.21875 
Q 44.046875 74.21875 50.515625 64.515625 
Q 56.984375 54.828125 56.984375 36.375 
Q 56.984375 17.96875 50.515625 8.265625 
Q 44.046875 -1.421875 31.78125 -1.421875 
Q 19.53125 -1.421875 13.0625 8.265625 
Q 6.59375 17.96875 6.59375 36.375 
Q 6.59375 54.828125 13.0625 64.515625 
Q 19.53125 74.21875 31.78125 74.21875 
z
" id="DejaVuSans-30"/>
      </defs>
      <g transform="translate(30.45875 201.464304)scale(0.1 -0.1)">
       <use xlink:href="#DejaVuSans-30"/>
      </g>
     </g>
    </g>
    <g id="xtick_2">
     <g id="line2d_2">
      <g>
       <use style="stroke:#000000;stroke-width:0.8;" x="114.656845" xlink:href="#m8326f9fef7" y="186.865867"/>
      </g>
     </g>
     <g id="text_2">
      <!-- 1 -->
      <defs>
       <path d="M 12.40625 8.296875 
L 28.515625 8.296875 
L 28.515625 63.921875 
L 10.984375 60.40625 
L 10.984375 69.390625 
L 28.421875 72.90625 
L 38.28125 72.90625 
L 38.28125 8.296875 
L 54.390625 8.296875 
L 54.390625 0 
L 12.40625 0 
z
" id="DejaVuSans-31"/>
      </defs>
      <g transform="translate(111.475595 201.464304)scale(0.1 -0.1)">
       <use xlink:href="#DejaVuSans-31"/>
      </g>
     </g>
    </g>
    <g id="xtick_3">
     <g id="line2d_3">
      <g>
       <use style="stroke:#000000;stroke-width:0.8;" x="195.673691" xlink:href="#m8326f9fef7" y="186.865867"/>
      </g>
     </g>
     <g id="text_3">
      <!-- 2 -->
      <defs>
       <path d="M 19.1875 8.296875 
L 53.609375 8.296875 
L 53.609375 0 
L 7.328125 0 
L 7.328125 8.296875 
Q 12.9375 14.109375 22.625 23.890625 
Q 32.328125 33.6875 34.8125 36.53125 
Q 39.546875 41.84375 41.421875 45.53125 
Q 43.3125 49.21875 43.3125 52.78125 
Q 43.3125 58.59375 39.234375 62.25 
Q 35.15625 65.921875 28.609375 65.921875 
Q 23.96875 65.921875 18.8125 64.3125 
Q 13.671875 62.703125 7.8125 59.421875 
L 7.8125 69.390625 
Q 13.765625 71.78125 18.9375 73 
Q 24.125 74.21875 28.421875 74.21875 
Q 39.75 74.21875 46.484375 68.546875 
Q 53.21875 62.890625 53.21875 53.421875 
Q 53.21875 48.921875 51.53125 44.890625 
Q 49.859375 40.875 45.40625 35.40625 
Q 44.1875 33.984375 37.640625 27.21875 
Q 31.109375 20.453125 19.1875 8.296875 
z
" id="DejaVuSans-32"/>
      </defs>
      <g transform="translate(192.492441 201.464304)scale(0.1 -0.1)">
       <use xlink:href="#DejaVuSans-32"/>
      </g>
     </g>
    </g>
    <g id="xtick_4">
     <g id="line2d_4">
      <g>
       <use style="stroke:#000000;stroke-width:0.8;" x="276.690536" xlink:href="#m8326f9fef7" y="186.865867"/>
      </g>
     </g>
     <g id="text_4">
      <!-- 3 -->
      <defs>
       <path d="M 40.578125 39.3125 
Q 47.65625 37.796875 51.625 33 
Q 55.609375 28.21875 55.609375 21.1875 
Q 55.609375 10.40625 48.1875 4.484375 
Q 40.765625 -1.421875 27.09375 -1.421875 
Q 22.515625 -1.421875 17.65625 -0.515625 
Q 12.796875 0.390625 7.625 2.203125 
L 7.625 11.71875 
Q 11.71875 9.328125 16.59375 8.109375 
Q 21.484375 6.890625 26.8125 6.890625 
Q 36.078125 6.890625 40.9375 10.546875 
Q 45.796875 14.203125 45.796875 21.1875 
Q 45.796875 27.640625 41.28125 31.265625 
Q 36.765625 34.90625 28.71875 34.90625 
L 20.21875 34.90625 
L 20.21875 43.015625 
L 29.109375 43.015625 
Q 36.375 43.015625 40.234375 45.921875 
Q 44.09375 48.828125 44.09375 54.296875 
Q 44.09375 59.90625 40.109375 62.90625 
Q 36.140625 65.921875 28.71875 65.921875 
Q 24.65625 65.921875 20.015625 65.03125 
Q 15.375 64.15625 9.8125 62.3125 
L 9.8125 71.09375 
Q 15.4375 72.65625 20.34375 73.4375 
Q 25.25 74.21875 29.59375 74.21875 
Q 40.828125 74.21875 47.359375 69.109375 
Q 53.90625 64.015625 53.90625 55.328125 
Q 53.90625 49.265625 50.4375 45.09375 
Q 46.96875 40.921875 40.578125 39.3125 
z
" id="DejaVuSans-33"/>
      </defs>
      <g transform="translate(273.509286 201.464304)scale(0.1 -0.1)">
       <use xlink:href="#DejaVuSans-33"/>
      </g>
     </g>
    </g>
    <g id="xtick_5">
     <g id="line2d_5">
      <g>
       <use style="stroke:#000000;stroke-width:0.8;" x="357.707381" xlink:href="#m8326f9fef7" y="186.865867"/>
      </g>
     </g>
     <g id="text_5">
      <!-- 4 -->
      <defs>
       <path d="M 37.796875 64.3125 
L 12.890625 25.390625 
L 37.796875 25.390625 
z
M 35.203125 72.90625 
L 47.609375 72.90625 
L 47.609375 25.390625 
L 58.015625 25.390625 
L 58.015625 17.1875 
L 47.609375 17.1875 
L 47.609375 0 
L 37.796875 0 
L 37.796875 17.1875 
L 4.890625 17.1875 
L 4.890625 26.703125 
z
" id="DejaVuSans-34"/>
      </defs>
      <g transform="translate(354.526131 201.464304)scale(0.1 -0.1)">
       <use xlink:href="#DejaVuSans-34"/>
      </g>
     </g>
    </g>
    <g id="xtick_6">
     <g id="line2d_6">
      <g>
       <use style="stroke:#000000;stroke-width:0.8;" x="438.724227" xlink:href="#m8326f9fef7" y="186.865867"/>
      </g>
     </g>
     <g id="text_6">
      <!-- 5 -->
      <defs>
       <path d="M 10.796875 72.90625 
L 49.515625 72.90625 
L 49.515625 64.59375 
L 19.828125 64.59375 
L 19.828125 46.734375 
Q 21.96875 47.46875 24.109375 47.828125 
Q 26.265625 48.1875 28.421875 48.1875 
Q 40.625 48.1875 47.75 41.5 
Q 54.890625 34.8125 54.890625 23.390625 
Q 54.890625 11.625 47.5625 5.09375 
Q 40.234375 -1.421875 26.90625 -1.421875 
Q 22.3125 -1.421875 17.546875 -0.640625 
Q 12.796875 0.140625 7.71875 1.703125 
L 7.71875 11.625 
Q 12.109375 9.234375 16.796875 8.0625 
Q 21.484375 6.890625 26.703125 6.890625 
Q 35.15625 6.890625 40.078125 11.328125 
Q 45.015625 15.765625 45.015625 23.390625 
Q 45.015625 31 40.078125 35.4375 
Q 35.15625 39.890625 26.703125 39.890625 
Q 22.75 39.890625 18.8125 39.015625 
Q 14.890625 38.140625 10.796875 36.28125 
z
" id="DejaVuSans-35"/>
      </defs>
      <g transform="translate(435.542977 201.464304)scale(0.1 -0.1)">
       <use xlink:href="#DejaVuSans-35"/>
      </g>
     </g>
    </g>
    <g id="xtick_7">
     <g id="line2d_7">
      <g>
       <use style="stroke:#000000;stroke-width:0.8;" x="519.741072" xlink:href="#m8326f9fef7" y="186.865867"/>
      </g>
     </g>
     <g id="text_7">
      <!-- 6 -->
      <defs>
       <path d="M 33.015625 40.375 
Q 26.375 40.375 22.484375 35.828125 
Q 18.609375 31.296875 18.609375 23.390625 
Q 18.609375 15.53125 22.484375 10.953125 
Q 26.375 6.390625 33.015625 6.390625 
Q 39.65625 6.390625 43.53125 10.953125 
Q 47.40625 15.53125 47.40625 23.390625 
Q 47.40625 31.296875 43.53125 35.828125 
Q 39.65625 40.375 33.015625 40.375 
z
M 52.59375 71.296875 
L 52.59375 62.3125 
Q 48.875 64.0625 45.09375 64.984375 
Q 41.3125 65.921875 37.59375 65.921875 
Q 27.828125 65.921875 22.671875 59.328125 
Q 17.53125 52.734375 16.796875 39.40625 
Q 19.671875 43.65625 24.015625 45.921875 
Q 28.375 48.1875 33.59375 48.1875 
Q 44.578125 48.1875 50.953125 41.515625 
Q 57.328125 34.859375 57.328125 23.390625 
Q 57.328125 12.15625 50.6875 5.359375 
Q 44.046875 -1.421875 33.015625 -1.421875 
Q 20.359375 -1.421875 13.671875 8.265625 
Q 6.984375 17.96875 6.984375 36.375 
Q 6.984375 53.65625 15.1875 63.9375 
Q 23.390625 74.21875 37.203125 74.21875 
Q 40.921875 74.21875 44.703125 73.484375 
Q 48.484375 72.75 52.59375 71.296875 
z
" id="DejaVuSans-36"/>
      </defs>
      <g transform="translate(516.559822 201.464304)scale(0.1 -0.1)">
       <use xlink:href="#DejaVuSans-36"/>
      </g>
     </g>
    </g>
   </g>
   <g id="matplotlib.axis_2">
    <g id="ytick_1">
     <g id="line2d_8">
      <defs>
       <path d="M 0 0 
L -3.5 0 
" id="m4169515e12" style="stroke:#000000;stroke-width:0.8;"/>
      </defs>
      <g>
       <use style="stroke:#000000;stroke-width:0.8;" x="33.64" xlink:href="#m4169515e12" y="179.520618"/>
      </g>
     </g>
     <g id="text_8">
      <!-- 0.0 -->
      <defs>
       <path d="M 10.6875 12.40625 
L 21 12.40625 
L 21 0 
L 10.6875 0 
z
" id="DejaVuSans-2e"/>
      </defs>
      <g transform="translate(10.736875 183.319837)scale(0.1 -0.1)">
       <use xlink:href="#DejaVuSans-30"/>
       <use x="63.623047" xlink:href="#DejaVuSans-2e"/>
       <use x="95.410156" xlink:href="#DejaVuSans-30"/>
      </g>
     </g>
    </g>
    <g id="ytick_2">
     <g id="line2d_9">
      <g>
       <use style="stroke:#000000;stroke-width:0.8;" x="33.64" xlink:href="#m4169515e12" y="150.139624"/>
      </g>
     </g>
     <g id="text_9">
      <!-- 0.2 -->
      <g transform="translate(10.736875 153.938843)scale(0.1 -0.1)">
       <use xlink:href="#DejaVuSans-30"/>
       <use x="63.623047" xlink:href="#DejaVuSans-2e"/>
       <use x="95.410156" xlink:href="#DejaVuSans-32"/>
      </g>
     </g>
    </g>
    <g id="ytick_3">
     <g id="line2d_10">
      <g>
       <use style="stroke:#000000;stroke-width:0.8;" x="33.64" xlink:href="#m4169515e12" y="120.75863"/>
      </g>
     </g>
     <g id="text_10">
      <!-- 0.4 -->
      <g transform="translate(10.736875 124.557849)scale(0.1 -0.1)">
       <use xlink:href="#DejaVuSans-30"/>
       <use x="63.623047" xlink:href="#DejaVuSans-2e"/>
       <use x="95.410156" xlink:href="#DejaVuSans-34"/>
      </g>
     </g>
    </g>
    <g id="ytick_4">
     <g id="line2d_11">
      <g>
       <use style="stroke:#000000;stroke-width:0.8;" x="33.64" xlink:href="#m4169515e12" y="91.377636"/>
      </g>
     </g>
     <g id="text_11">
      <!-- 0.6 -->
      <g transform="translate(10.736875 95.176855)scale(0.1 -0.1)">
       <use xlink:href="#DejaVuSans-30"/>
       <use x="63.623047" xlink:href="#DejaVuSans-2e"/>
       <use x="95.410156" xlink:href="#DejaVuSans-36"/>
      </g>
     </g>
    </g>
    <g id="ytick_5">
     <g id="line2d_12">
      <g>
       <use style="stroke:#000000;stroke-width:0.8;" x="33.64" xlink:href="#m4169515e12" y="61.996642"/>
      </g>
     </g>
     <g id="text_12">
      <!-- 0.8 -->
      <defs>
       <path d="M 31.78125 34.625 
Q 24.75 34.625 20.71875 30.859375 
Q 16.703125 27.09375 16.703125 20.515625 
Q 16.703125 13.921875 20.71875 10.15625 
Q 24.75 6.390625 31.78125 6.390625 
Q 38.8125 6.390625 42.859375 10.171875 
Q 46.921875 13.96875 46.921875 20.515625 
Q 46.921875 27.09375 42.890625 30.859375 
Q 38.875 34.625 31.78125 34.625 
z
M 21.921875 38.8125 
Q 15.578125 40.375 12.03125 44.71875 
Q 8.5 49.078125 8.5 55.328125 
Q 8.5 64.0625 14.71875 69.140625 
Q 20.953125 74.21875 31.78125 74.21875 
Q 42.671875 74.21875 48.875 69.140625 
Q 55.078125 64.0625 55.078125 55.328125 
Q 55.078125 49.078125 51.53125 44.71875 
Q 48 40.375 41.703125 38.8125 
Q 48.828125 37.15625 52.796875 32.3125 
Q 56.78125 27.484375 56.78125 20.515625 
Q 56.78125 9.90625 50.3125 4.234375 
Q 43.84375 -1.421875 31.78125 -1.421875 
Q 19.734375 -1.421875 13.25 4.234375 
Q 6.78125 9.90625 6.78125 20.515625 
Q 6.78125 27.484375 10.78125 32.3125 
Q 14.796875 37.15625 21.921875 38.8125 
z
M 18.3125 54.390625 
Q 18.3125 48.734375 21.84375 45.5625 
Q 25.390625 42.390625 31.78125 42.390625 
Q 38.140625 42.390625 41.71875 45.5625 
Q 45.3125 48.734375 45.3125 54.390625 
Q 45.3125 60.0625 41.71875 63.234375 
Q 38.140625 66.40625 31.78125 66.40625 
Q 25.390625 66.40625 21.84375 63.234375 
Q 18.3125 60.0625 18.3125 54.390625 
z
" id="DejaVuSans-38"/>
      </defs>
      <g transform="translate(10.736875 65.795861)scale(0.1 -0.1)">
       <use xlink:href="#DejaVuSans-30"/>
       <use x="63.623047" xlink:href="#DejaVuSans-2e"/>
       <use x="95.410156" xlink:href="#DejaVuSans-38"/>
      </g>
     </g>
    </g>
    <g id="ytick_6">
     <g id="line2d_13">
      <g>
       <use style="stroke:#000000;stroke-width:0.8;" x="33.64" xlink:href="#m4169515e12" y="32.615648"/>
      </g>
     </g>
     <g id="text_13">
      <!-- 1.0 -->
      <g transform="translate(10.736875 36.414867)scale(0.1 -0.1)">
       <use xlink:href="#DejaVuSans-31"/>
       <use x="63.623047" xlink:href="#DejaVuSans-2e"/>
       <use x="95.410156" xlink:href="#DejaVuSans-30"/>
      </g>
     </g>
    </g>
   </g>
   <g id="line2d_14">
    <path clip-path="url(#p73d5a07e81)" d="M 33.64 179.520618 
L 39.757753 179.431191 
L 42.088326 179.320177 
L 44.418899 179.520618 
L 64.520088 179.431191 
L 67.141982 178.980969 
L 73.259736 179.520618 
L 81.125419 179.437358 
L 83.16467 179.292423 
L 88.408458 179.520618 
L 141.720308 179.428107 
L 143.759559 179.236917 
L 146.672775 179.520618 
L 192.410264 179.428107 
L 194.740837 179.169075 
L 197.654053 179.520618 
L 249.509295 179.409605 
L 252.131189 178.953215 
L 255.044405 179.520618 
L 281.845991 179.428107 
L 284.176564 179.233833 
L 286.798458 179.520618 
L 287.381101 179.449693 
L 290.294317 178.539998 
L 293.498855 179.520618 
L 296.703392 179.412688 
L 298.16 179.295507 
L 300.199251 179.144405 
L 302.821145 179.452777 
L 303.403789 179.357181 
L 306.317004 177.966427 
L 308.064934 177.019728 
L 309.521542 176.196376 
L 310.104185 175.995935 
L 311.560793 175.329853 
L 312.434758 174.799455 
L 313.017401 175.150998 
L 315.056652 176.273469 
L 315.639295 176.54792 
L 315.930617 176.387566 
L 316.51326 175.363774 
L 317.969868 172.42808 
L 318.552511 171.268604 
L 318.843833 170.571685 
L 319.135154 170.9664 
L 320.300441 173.177422 
L 321.757048 175.604304 
L 322.04837 175.90034 
L 322.339692 175.595052 
L 324.961586 168.702955 
L 325.252907 167.713084 
L 325.544229 167.672996 
L 326.709515 166.121888 
L 328.166123 163.873862 
L 328.457445 163.164608 
L 328.748767 163.451393 
L 329.33141 163.324961 
L 329.622731 163.223199 
L 329.914053 163.269454 
L 330.205374 163.078264 
L 331.079339 162.88399 
L 331.370661 162.766809 
L 331.661982 162.424517 
L 331.953304 162.28575 
L 334.283877 159.038601 
L 336.031806 156.291014 
L 336.614449 155.384402 
L 338.362379 152.525801 
L 339.236344 150.616983 
L 341.275595 146.201107 
L 341.858238 146.534148 
L 344.480132 147.394504 
L 345.354097 146.700668 
L 346.810705 145.473351 
L 347.68467 144.631497 
L 352.345815 131.756999 
L 354.093744 127.276365 
L 357.00696 124.618205 
L 357.298282 123.822607 
L 360.211498 108.400962 
L 360.502819 107.531355 
L 360.794141 107.568359 
L 361.668106 107.371002 
L 363.416035 107.059547 
L 363.707357 106.316372 
L 365.455286 97.173165 
L 367.203216 89.53481 
L 369.533789 84.199988 
L 370.116432 82.581039 
L 373.029648 72.457211 
L 373.320969 72.121087 
L 374.777577 71.646195 
L 376.234185 71.16822 
L 376.816828 69.62328 
L 378.564758 64.368634 
L 379.438722 61.775232 
L 379.730044 61.522367 
L 382.64326 60.964216 
L 383.808546 61.846157 
L 384.973833 62.916205 
L 385.556476 63.310921 
L 385.847797 63.579204 
L 387.595727 61.284922 
L 389.052335 59.194165 
L 389.343656 59.308262 
L 390.217621 59.366853 
L 390.800264 59.490201 
L 391.674229 59.508703 
L 391.965551 59.601215 
L 392.256872 59.487117 
L 393.130837 61.596377 
L 394.004802 63.585371 
L 395.46141 66.810934 
L 396.626696 65.259827 
L 398.374626 63.045721 
L 398.665947 62.530741 
L 401.287841 53.742161 
L 401.579163 52.733787 
L 401.870485 52.172552 
L 404.7837 63.162902 
L 405.075022 63.702552 
L 407.114273 54.735117 
L 408.279559 50.017037 
L 409.444846 50.402501 
L 410.027489 50.658449 
L 410.318811 50.704705 
L 410.901454 50.951402 
L 411.192775 51.003825 
L 411.484097 51.336866 
L 413.232026 56.101201 
L 414.397313 59.26509 
L 414.688634 59.471699 
L 416.436564 56.261554 
L 417.60185 53.94877 
L 417.893172 53.726743 
L 418.475815 53.760664 
L 419.932423 53.951854 
L 420.806388 54.062867 
L 421.097709 54.67961 
L 422.845639 61.679637 
L 424.010925 66.34221 
L 424.302247 66.283619 
L 425.758855 61.827655 
L 427.215463 57.297682 
L 427.506784 57.192835 
L 428.67207 58.056275 
L 429.837357 58.972137 
L 430.42 59.419276 
L 430.711322 58.731608 
L 433.624537 47.590155 
L 433.915859 48.897649 
L 435.372467 59.215751 
L 436.829075 69.805219 
L 437.120396 69.524601 
L 439.742291 62.866866 
L 440.616256 60.927211 
L 441.198899 59.909586 
L 443.23815 56.024108 
L 444.694758 54.346569 
L 446.151366 52.59502 
L 446.734009 51.861097 
L 448.77326 49.024082 
L 449.647225 47.772094 
L 452.851762 55.0034 
L 454.30837 53.02674 
L 455.473656 51.29061 
L 456.0563 50.658449 
L 457.804229 52.764625 
L 458.678194 53.896347 
L 459.260837 54.691945 
L 462.465374 62.980963 
L 464.213304 62.456732 
L 464.795947 62.191533 
L 465.37859 62.068185 
L 465.669912 61.86466 
L 467.709163 59.299011 
L 468.874449 57.353188 
L 470.331057 49.835098 
L 471.787665 42.187491 
L 472.078987 41.576916 
L 474.118238 47.318789 
L 474.992203 49.739503 
L 475.283524 50.322324 
L 476.448811 50.390166 
L 476.740132 50.464175 
L 477.031454 50.365496 
L 477.322775 50.495012 
L 477.905419 50.491929 
L 478.19674 50.464175 
L 478.779383 49.782675 
L 480.235991 47.173854 
L 481.401278 45.16019 
L 481.692599 45.425389 
L 484.897137 55.105162 
L 487.810352 61.078313 
L 488.101674 60.813114 
L 491.01489 54.0567 
L 491.597533 51.512637 
L 494.219427 39.251797 
L 494.510749 39.9518 
L 495.967357 46.606451 
L 497.423965 53.356697 
L 497.715286 53.32586 
L 498.006608 53.085331 
L 498.880573 51.879599 
L 500.045859 50.50118 
L 500.919824 49.415713 
L 503.83304 46.042132 
L 504.707004 46.877818 
L 507.037577 49.335537 
L 509.076828 54.987981 
L 510.242115 58.213544 
L 513.446652 48.919235 
L 516.359868 47.35271 
L 516.651189 47.161519 
L 517.233833 46.988831 
L 519.855727 46.109973 
L 522.768943 45.983541 
L 523.060264 45.628914 
L 526.264802 29.815638 
L 528.886696 35.082618 
L 529.178018 35.631519 
L 529.469339 35.841212 
L 530.634626 33.972482 
L 532.965198 30.487887 
L 535.587093 28.172019 
L 535.878414 28.835017 
L 538.79163 46.319666 
L 539.082952 46.948743 
L 540.248238 44.703801 
L 540.830881 43.63992 
L 542.287489 40.941672 
L 543.744097 39.048272 
L 545.200705 37.068529 
L 545.492026 37.472495 
L 548.405242 46.393675 
L 548.696564 46.449182 
L 549.279207 45.823188 
L 550.444493 44.355341 
L 551.901101 42.705555 
L 552.483744 42.437272 
L 554.231674 41.678679 
L 554.814317 41.36414 
L 555.39696 42.748727 
L 556.853568 46.554028 
L 558.018855 49.677829 
L 558.601498 47.201608 
L 561.223392 34.410369 
L 561.514714 34.225346 
L 562.388678 34.305523 
L 562.68 34.317858 
L 562.68 34.317858 
" style="fill:none;stroke:#191970;stroke-linecap:square;stroke-width:1.5;"/>
   </g>
   <g id="line2d_15">
    <path clip-path="url(#p73d5a07e81)" d="M 33.64 37.321445 
L 33.931322 37.571194 
L 35.096608 37.610628 
L 37.135859 37.597483 
L 38.592467 37.466036 
L 40.631718 35.836096 
L 40.92304 35.297164 
L 41.214361 35.205151 
L 42.088326 34.574206 
L 42.379648 34.797666 
L 42.670969 34.574206 
L 43.544934 34.403325 
L 43.836256 34.022129 
L 44.127577 34.114142 
L 44.71022 33.851249 
L 45.001542 33.535776 
L 45.292863 32.996844 
L 47.914758 30.446776 
L 48.497401 31.52464 
L 48.788722 31.748099 
L 49.371366 32.655083 
L 50.536652 34.495338 
L 50.827974 34.8371 
L 51.119295 34.955402 
L 51.701938 33.57521 
L 53.741189 28.82998 
L 54.032511 28.041299 
L 54.323833 28.054444 
L 54.615154 29.000861 
L 54.906476 30.420487 
L 55.197797 31.011997 
L 55.780441 33.325461 
L 56.363084 35.218296 
L 56.945727 37.439747 
L 57.52837 39.1617 
L 58.402335 39.017109 
L 58.693656 39.201134 
L 58.984978 38.990819 
L 60.732907 39.030253 
L 61.024229 38.635913 
L 61.315551 38.754215 
L 61.606872 38.609624 
L 61.898194 38.727926 
L 63.354802 37.886666 
L 63.937445 38.070692 
L 65.102731 38.846228 
L 65.394053 39.280002 
L 65.685374 39.411449 
L 65.976696 40.00296 
L 66.268018 40.121262 
L 66.559339 40.384156 
L 66.850661 40.42359 
L 67.141982 40.344722 
L 67.433304 40.147551 
L 68.889912 37.807798 
L 69.181233 37.650062 
L 69.472555 37.150564 
L 69.763877 36.874526 
L 70.055198 36.204147 
L 70.929163 36.453896 
L 71.220485 35.796662 
L 72.094449 36.020121 
L 72.677093 35.836096 
L 73.259736 35.888674 
L 73.551057 36.020121 
L 74.1337 36.480185 
L 74.425022 37.176853 
L 74.716344 37.255721 
L 75.007665 37.597483 
L 75.298987 37.72893 
L 75.590308 38.281007 
L 76.464273 39.043398 
L 77.046916 38.977675 
L 77.338238 38.727926 
L 77.629559 38.951385 
L 78.503524 38.622768 
L 78.794846 38.34673 
L 79.377489 38.267862 
L 79.668811 38.004968 
L 79.960132 38.373019 
L 80.834097 40.029249 
L 81.125419 40.489313 
L 81.41674 41.46202 
L 81.708062 41.922084 
L 82.290705 43.170828 
L 82.582026 43.446867 
L 82.873348 44.222403 
L 83.455991 42.658186 
L 84.329956 39.621764 
L 84.912599 37.834087 
L 86.077885 33.667223 
L 87.534493 38.885662 
L 89.282423 45.668318 
L 90.156388 44.406429 
L 90.447709 43.801773 
L 91.030352 43.131394 
L 91.612996 42.382147 
L 91.904317 41.88265 
L 92.195639 41.606611 
L 93.360925 38.754215 
L 94.23489 36.191002 
L 95.691498 32.129295 
L 96.565463 35.007981 
L 97.148106 36.585343 
L 98.313392 39.989815 
L 98.896035 41.685479 
L 99.187357 41.422586 
L 99.478678 40.739062 
L 100.643965 39.148556 
L 101.51793 37.676351 
L 102.100573 37.400313 
L 103.848502 38.307296 
L 105.30511 39.464028 
L 105.887753 40.292143 
L 106.179075 40.371011 
L 107.344361 41.816926 
L 107.635683 41.816926 
L 108.218326 42.684475 
L 108.509648 42.802777 
L 109.092291 42.132398 
L 109.966256 40.923088 
L 110.257577 40.752207 
L 110.84022 39.621764 
L 111.131542 39.358871 
L 111.422863 38.885662 
L 111.714185 38.833083 
L 112.296828 39.529751 
L 114.627401 42.776488 
L 115.210044 43.065671 
L 115.792687 43.026237 
L 116.084009 43.236552 
L 116.37533 43.11825 
L 116.666652 43.420577 
L 116.957974 43.31542 
L 117.831938 43.617748 
L 118.705903 44.537875 
L 119.871189 46.167816 
L 120.453833 46.811905 
L 120.745154 47.390271 
L 121.327797 47.771467 
L 121.619119 47.613731 
L 122.201762 47.771467 
L 122.493084 47.600586 
L 122.784405 47.271969 
L 123.075727 47.377127 
L 123.65837 46.995931 
L 123.949692 46.798761 
L 124.241013 46.864484 
L 125.114978 45.497437 
L 127.445551 40.594471 
L 127.736872 40.436734 
L 128.319515 41.093969 
L 128.610837 41.264849 
L 128.902159 41.88265 
L 129.19348 42.040386 
L 131.815374 44.74819 
L 132.106696 45.418569 
L 132.689339 45.655173 
L 132.980661 46.062659 
L 133.271982 46.272973 
L 133.563304 46.851339 
L 134.145947 46.641025 
L 134.437269 46.154671 
L 134.72859 46.049514 
L 135.602555 45.155675 
L 135.893877 44.511586 
L 136.47652 43.998943 
L 136.767841 43.433722 
L 137.059163 43.183973 
L 138.224449 45.339701 
L 140.2637 49.191093 
L 140.555022 49.177948 
L 140.846344 48.915055 
L 141.137665 48.993923 
L 141.720308 48.717884 
L 142.01163 48.389267 
L 142.302952 48.468135 
L 143.176916 47.837191 
L 143.468238 47.626876 
L 143.759559 47.745178 
L 144.050881 47.521718 
L 144.342203 47.64002 
L 144.633524 47.363982 
L 145.216167 47.429705 
L 145.798811 47.285114 
L 146.381454 47.337693 
L 146.672775 47.416561 
L 147.255419 48.008071 
L 147.54674 48.625872 
L 147.838062 48.757318 
L 148.420705 49.782604 
L 149.29467 51.083927 
L 149.585991 51.754306 
L 149.877313 52.082923 
L 150.168634 51.99091 
L 150.459956 52.174936 
L 150.751278 51.846319 
L 151.042599 51.912042 
L 152.499207 51.359965 
L 152.790529 51.3994 
L 153.373172 51.333676 
L 153.955815 51.386255 
L 154.247137 51.504557 
L 154.538458 51.189085 
L 155.121101 51.386255 
L 155.412423 51.17594 
L 155.703744 51.110217 
L 155.995066 51.333676 
L 158.034317 50.36097 
L 158.325639 49.835182 
L 158.908282 49.848327 
L 161.238855 47.889769 
L 161.530176 47.337693 
L 161.821498 47.101088 
L 162.112819 46.693603 
L 162.404141 46.838195 
L 162.695463 46.43071 
L 162.986784 46.877629 
L 163.278106 46.943352 
L 163.569427 47.311403 
L 163.860749 47.403416 
L 164.443392 48.139518 
L 164.734714 48.139518 
L 165.9 49.151659 
L 166.482643 49.007067 
L 166.773965 49.230527 
L 167.356608 48.954489 
L 167.939251 49.191093 
L 168.521894 48.941344 
L 168.813216 48.928199 
L 169.104537 48.757318 
L 170.269824 46.088948 
L 171.726432 42.842211 
L 172.017753 42.119254 
L 172.309075 41.88265 
L 172.891718 43.499445 
L 174.639648 47.758323 
L 174.930969 48.875621 
L 175.513612 49.532855 
L 176.096256 49.033357 
L 176.387577 48.573293 
L 176.678899 48.468135 
L 176.97022 47.876625 
L 177.261542 47.86348 
L 177.552863 47.403416 
L 177.844185 47.166812 
L 178.135507 46.549012 
L 178.71815 46.378131 
L 179.300793 47.179957 
L 179.883436 47.837191 
L 180.466079 48.533859 
L 180.757401 49.125369 
L 181.048722 49.112225 
L 181.631366 50.006063 
L 181.922687 50.13751 
L 182.796652 48.954489 
L 183.087974 48.770463 
L 183.379295 48.441846 
L 183.670617 47.850335 
L 183.961938 47.600586 
L 184.544581 46.82505 
L 184.835903 46.43071 
L 185.127225 46.470144 
L 185.418546 46.903918 
L 186.001189 48.25782 
L 186.292511 48.48128 
L 186.583833 48.862476 
L 187.166476 50.124365 
L 187.457797 50.544995 
L 188.040441 51.806885 
L 188.331762 51.412544 
L 189.78837 47.074799 
L 191.244978 42.855356 
L 191.5363 43.144539 
L 191.827621 43.749194 
L 192.410264 45.431714 
L 192.701586 45.996935 
L 194.449515 50.899902 
L 194.740837 50.781599 
L 197.654053 47.482284 
L 199.110661 44.340705 
L 199.401982 43.880641 
L 199.984626 42.539884 
L 200.275947 41.987807 
L 200.85859 40.594471 
L 201.149912 40.725917 
L 201.441233 41.001956 
L 201.732555 40.883654 
L 202.315198 41.304284 
L 202.60652 41.212271 
L 204.063128 41.790637 
L 204.645771 42.263845 
L 205.228414 42.631896 
L 206.3937 43.788628 
L 206.685022 43.998943 
L 206.976344 44.393284 
L 207.267665 44.564165 
L 208.432952 46.535867 
L 208.724273 46.733037 
L 209.015595 47.193101 
L 209.306916 47.44285 
L 209.598238 48.218386 
L 209.889559 48.349833 
L 210.180881 48.67845 
L 210.472203 49.243672 
L 211.346167 46.588446 
L 212.220132 44.051522 
L 212.511454 43.026237 
L 212.802775 42.47416 
L 213.385419 40.660194 
L 213.67674 39.713777 
L 214.842026 40.042394 
L 215.133348 40.00296 
L 215.715991 40.22642 
L 216.007313 40.042394 
L 216.298634 40.121262 
L 216.881278 40.489313 
L 217.463921 42.198122 
L 219.503172 47.889769 
L 220.085815 49.29625 
L 221.251101 47.153667 
L 221.542423 46.811905 
L 222.999031 44.064667 
L 223.290352 43.565169 
L 223.872996 44.445863 
L 225.038282 45.78662 
L 225.329604 46.023224 
L 225.912247 46.890773 
L 226.203568 46.956497 
L 226.49489 47.166812 
L 226.786211 46.982786 
L 227.660176 45.944356 
L 227.951498 45.839199 
L 228.242819 45.405424 
L 228.534141 45.313412 
L 229.699427 44.051522 
L 229.990749 44.261837 
L 230.28207 44.209258 
L 230.864714 44.301271 
L 232.321322 44.064667 
L 232.612643 44.025233 
L 236.108502 46.903918 
L 236.399824 46.456999 
L 237.273789 44.590454 
L 237.856432 43.775484 
L 238.730396 42.145543 
L 239.021718 41.632901 
L 239.31304 41.448875 
L 239.604361 41.764347 
L 240.187004 41.514598 
L 241.060969 41.974662 
L 241.352291 41.88265 
L 241.643612 42.237556 
L 241.934934 42.184977 
L 242.226256 42.513594 
L 242.517577 42.658186 
L 243.10022 43.70976 
L 243.682863 44.669322 
L 244.265507 45.655173 
L 245.722115 48.25782 
L 246.304758 47.968637 
L 247.178722 48.310399 
L 247.470044 48.178952 
L 248.344009 48.297255 
L 248.63533 48.28411 
L 248.926652 48.836186 
L 250.674581 53.739153 
L 250.965903 54.448966 
L 251.548546 56.170919 
L 251.839868 56.801864 
L 252.131189 56.775575 
L 252.422511 56.394379 
L 252.713833 55.697711 
L 253.005154 55.461106 
L 253.587797 54.356953 
L 253.879119 53.8706 
L 254.461762 52.595566 
L 254.753084 52.41154 
L 255.044405 51.754306 
L 255.335727 51.820029 
L 255.627048 52.253804 
L 255.91837 52.293238 
L 256.209692 52.727012 
L 257.083656 53.476259 
L 258.248943 54.540979 
L 258.540264 54.4884 
L 259.122907 54.054625 
L 259.414229 54.041481 
L 260.870837 53.160787 
L 261.162159 52.753302 
L 261.744802 52.989906 
L 262.036123 53.397391 
L 262.910088 53.988902 
L 263.784053 55.066766 
L 264.075374 55.211357 
L 264.366696 55.724 
L 264.658018 55.908026 
L 267.571233 59.25992 
L 267.862555 59.470234 
L 268.73652 60.429796 
L 269.027841 60.587532 
L 269.901806 61.783699 
L 270.775771 62.74326 
L 271.067093 62.822128 
L 272.5237 64.268044 
L 272.815022 64.42578 
L 273.106344 64.793831 
L 273.397665 64.793831 
L 273.688987 65.004146 
L 273.980308 65.411631 
L 274.27163 65.477354 
L 274.854273 66.095154 
L 275.436916 66.528929 
L 276.602203 67.882831 
L 276.893524 67.856542 
L 277.184846 68.290316 
L 277.476167 68.369184 
L 278.058811 69.39447 
L 278.350132 70.104282 
L 279.515419 71.707934 
L 280.098062 72.917245 
L 280.972026 74.231713 
L 281.55467 75.270143 
L 282.719956 77.478449 
L 283.011278 77.899079 
L 283.593921 78.950654 
L 283.885242 79.266126 
L 284.467885 79.252981 
L 285.050529 79.252981 
L 285.34185 79.147824 
L 285.924493 79.410718 
L 286.507137 79.226692 
L 286.798458 79.463296 
L 287.08978 79.476441 
L 289.129031 83.998212 
L 289.711674 84.878905 
L 290.294317 86.206518 
L 290.585639 86.574569 
L 290.87696 87.139791 
L 291.459604 87.81017 
L 292.042247 88.42797 
L 292.333568 89.137782 
L 292.62489 89.24294 
L 293.207533 90.136778 
L 293.498855 90.688855 
L 294.372819 93.212634 
L 294.664141 93.869868 
L 295.246784 95.788992 
L 296.41207 98.799124 
L 296.703392 99.456358 
L 296.994714 99.666673 
L 297.286035 99.640384 
L 297.577357 99.416924 
L 297.868678 99.627239 
L 298.451322 99.495792 
L 298.742643 99.837554 
L 299.033965 99.850699 
L 299.325286 99.627239 
L 299.616608 99.79812 
L 299.90793 100.442209 
L 301.947181 110.12984 
L 302.821145 114.322994 
L 303.112467 114.572743 
L 303.986432 112.443304 
L 305.734361 107.500904 
L 306.025683 107.04084 
L 306.317004 107.067129 
L 307.482291 110.32701 
L 307.773612 110.931666 
L 308.647577 113.678904 
L 309.521542 115.545449 
L 309.812863 116.412998 
L 310.104185 116.741615 
L 311.269471 119.081369 
L 312.434758 121.210807 
L 314.76533 128.637553 
L 315.639295 131.568817 
L 315.930617 132.160328 
L 316.221938 132.252341 
L 316.51326 132.804417 
L 316.804581 133.027877 
L 317.095903 133.422217 
L 317.387225 133.579953 
L 317.969868 134.342345 
L 318.552511 135.091592 
L 318.843833 135.223039 
L 319.135154 135.551656 
L 319.717797 136.40606 
L 320.591762 137.996567 
L 320.883084 138.220026 
L 322.04837 139.94198 
L 325.252907 150.247411 
L 325.544229 150.865211 
L 325.835551 150.970368 
L 326.126872 151.377853 
L 326.418194 151.259551 
L 326.709515 151.627602 
L 327.000837 151.73276 
L 327.292159 151.969364 
L 327.58348 151.864207 
L 328.166123 152.113956 
L 328.457445 151.969364 
L 329.33141 154.322262 
L 329.622731 154.808615 
L 330.205374 156.451701 
L 331.370661 158.673152 
L 331.661982 158.778309 
L 331.953304 159.159505 
L 332.244626 159.238373 
L 332.535947 159.448688 
L 332.827269 159.290952 
L 333.11859 159.330386 
L 334.86652 158.502271 
L 336.031806 162.419386 
L 336.323128 162.958318 
L 337.488414 166.389081 
L 338.362379 167.440655 
L 338.945022 167.979587 
L 339.236344 168.400217 
L 339.527665 168.321349 
L 340.40163 168.847136 
L 340.692952 168.807702 
L 341.275595 168.439651 
L 341.858238 169.596383 
L 343.897489 170.845128 
L 344.480132 170.411353 
L 345.062775 171.765256 
L 345.354097 172.19903 
L 345.645419 172.42249 
L 345.93674 173.014 
L 347.102026 174.091864 
L 347.68467 174.27589 
L 349.141278 176.510486 
L 349.723921 176.957405 
L 350.015242 177.312312 
L 350.306564 177.39118 
L 350.889207 177.180865 
L 351.180529 177.286022 
L 351.763172 176.983694 
L 353.21978 175.064571 
L 353.802423 174.131298 
L 354.093744 173.999852 
L 354.967709 174.933124 
L 355.259031 175.09086 
L 355.841674 175.590358 
L 356.715639 176.15558 
L 357.00696 175.945265 
L 357.298282 175.971554 
L 357.880925 176.891682 
L 359.628855 178.547912 
L 359.920176 178.62678 
L 360.502819 178.521622 
L 361.376784 178.60049 
L 362.250749 178.495333 
L 363.416035 178.074703 
L 365.163965 177.864388 
L 365.746608 177.470048 
L 366.620573 176.615643 
L 366.911894 176.720801 
L 367.785859 177.39118 
L 368.659824 177.916967 
L 369.533789 178.140427 
L 369.82511 177.98269 
L 370.407753 178.140427 
L 370.699075 178.232439 
L 370.990396 178.455899 
L 371.281718 178.350741 
L 371.864361 178.377031 
L 372.155683 178.153571 
L 372.738326 177.890678 
L 373.029648 177.667218 
L 373.320969 177.759231 
L 374.486256 178.60049 
L 375.36022 178.666214 
L 376.234185 178.442754 
L 376.816828 178.62678 
L 377.982115 179.126278 
L 380.312687 179.205146 
L 381.186652 179.428605 
L 384.099868 179.454895 
L 386.139119 179.205146 
L 387.887048 179.520618 
L 388.761013 179.468039 
L 389.052335 179.297159 
L 389.343656 179.468039 
L 389.9263 179.481184 
L 390.800264 179.192001 
L 392.256872 178.60049 
L 394.587445 179.389171 
L 395.752731 179.323448 
L 397.791982 179.520618 
L 400.413877 179.428605 
L 401.870485 179.192001 
L 402.744449 179.24458 
L 403.909736 179.284014 
L 405.948987 179.192001 
L 407.114273 179.126278 
L 408.279559 178.929107 
L 411.192775 179.520618 
L 412.06674 179.468039 
L 413.523348 178.915963 
L 414.688634 178.508478 
L 415.271278 178.758227 
L 417.019207 179.454895 
L 417.60185 179.520618 
L 421.971674 179.454895 
L 424.302247 178.692503 
L 424.593568 178.876529 
L 425.176211 178.929107 
L 425.758855 179.073699 
L 427.506784 178.850239 
L 428.963392 179.178856 
L 437.411718 179.468039 
L 438.868326 178.994831 
L 439.742291 178.718793 
L 440.033612 178.60049 
L 442.364185 179.060554 
L 443.820793 179.139422 
L 445.860044 179.494329 
L 447.02533 179.494329 
L 448.481938 179.520618 
L 451.977797 179.415461 
L 454.891013 179.231435 
L 456.0563 178.915963 
L 457.221586 179.21829 
L 461.59141 179.520618 
L 464.504626 179.415461 
L 466.543877 179.415461 
L 467.709163 179.415461 
L 468.874449 179.257725 
L 471.496344 179.520618 
L 472.370308 179.494329 
L 474.409559 178.653069 
L 475.283524 178.40332 
L 477.905419 179.468039 
L 478.779383 179.520618 
L 486.353744 179.44175 
L 488.101674 179.297159 
L 491.597533 179.520618 
L 508.494185 179.44175 
L 510.533436 179.257725 
L 513.15533 179.520618 
L 518.690441 179.415461 
L 520.147048 179.336593 
L 522.1863 179.520618 
L 562.68 179.520618 
L 562.68 179.520618 
" style="fill:none;stroke:#b8860b;stroke-linecap:square;stroke-width:1.5;"/>
   </g>
   <g id="line2d_16">
    <path clip-path="url(#p73d5a07e81)" d="M 33.64 179.194445 
L 40.049075 179.122344 
L 41.797004 178.940373 
L 44.127577 179.448517 
L 57.819692 179.520618 
L 61.024229 179.287147 
L 63.937445 179.503451 
L 69.181233 179.520618 
L 87.243172 179.434783 
L 89.573744 179.166978 
L 92.195639 179.520618 
L 109.383612 179.410749 
L 111.714185 179.060542 
L 114.627401 179.393582 
L 116.666652 179.479417 
L 122.784405 179.445083 
L 125.114978 179.335214 
L 128.902159 179.390149 
L 131.232731 179.520618 
L 175.804934 179.424483 
L 177.552863 178.521498 
L 178.426828 178.037389 
L 178.71815 178.020222 
L 179.883436 178.586733 
L 181.631366 179.276847 
L 183.087974 179.386716 
L 185.127225 179.506885 
L 186.875154 179.276847 
L 188.331762 179.101743 
L 191.5363 179.520618 
L 193.284229 179.345515 
L 194.740837 179.149811 
L 197.362731 179.520618 
L 205.811057 179.42105 
L 207.558987 179.318047 
L 210.763524 179.500018 
L 212.802775 178.710335 
L 213.67674 178.349828 
L 216.007313 179.09831 
L 216.881278 179.287147 
L 220.085815 179.520618 
L 221.833744 179.43135 
L 224.164317 179.304314 
L 225.912247 179.30088 
L 226.786211 179.30088 
L 227.368855 179.29058 
L 230.573392 179.070843 
L 234.943216 179.122344 
L 236.691145 179.029642 
L 238.147753 179.101743 
L 239.895683 179.09831 
L 242.808899 178.456264 
L 245.139471 178.627934 
L 246.013436 178.435663 
L 247.761366 177.457144 
L 248.63533 176.9284 
L 249.217974 176.897499 
L 251.257225 175.850311 
L 251.839868 175.452037 
L 254.461762 176.506091 
L 255.335727 176.550725 
L 256.501013 177.220239 
L 257.957621 177.889752 
L 258.831586 177.810784 
L 261.162159 175.980781 
L 261.45348 175.644307 
L 262.327445 175.493238 
L 262.910088 175.187665 
L 264.366696 174.42545 
L 264.658018 174.126744 
L 264.949339 174.216012 
L 265.531982 173.927606 
L 267.571233 172.684715 
L 267.862555 172.454677 
L 270.484449 174.463217 
L 270.775771 174.634887 
L 271.649736 174.61772 
L 273.980308 173.494998 
L 274.27163 173.220326 
L 274.562952 173.374829 
L 274.854273 173.340495 
L 277.476167 171.846965 
L 277.767489 171.949967 
L 278.641454 171.242686 
L 280.680705 169.210112 
L 280.972026 169.412683 
L 281.845991 169.186078 
L 283.593921 168.633301 
L 284.467885 167.853918 
L 285.924493 166.092583 
L 286.798458 164.880592 
L 287.381101 163.644568 
L 290.294317 155.788944 
L 293.207533 152.139238 
L 293.790176 150.937547 
L 296.120749 145.368569 
L 296.41207 144.681888 
L 296.703392 144.300781 
L 298.16 145.57114 
L 299.616608 146.769397 
L 299.90793 146.683562 
L 306.025683 135.672642 
L 306.608326 133.688135 
L 307.773612 129.447884 
L 309.521542 123.058323 
L 310.395507 120.56224 
L 313.308722 112.603614 
L 315.639295 106.9179 
L 315.930617 107.302441 
L 317.969868 112.988155 
L 318.843833 115.467071 
L 319.135154 114.467951 
L 322.04837 100.047663 
L 322.339692 100.425337 
L 324.961586 106.268987 
L 325.252907 106.921334 
L 326.126872 102.842452 
L 328.457445 91.337122 
L 329.040088 90.643575 
L 331.661982 86.9149 
L 335.449163 78.269594 
L 336.614449 76.429291 
L 338.071057 74.269681 
L 340.984273 75.454205 
L 341.275595 75.382103 
L 344.480132 65.90248 
L 345.062775 65.665576 
L 345.645419 65.311935 
L 350.597885 62.554914 
L 350.889207 62.039903 
L 353.802423 49.964629 
L 354.093744 49.236747 
L 355.259031 49.312282 
L 356.132996 49.425584 
L 357.00696 49.442751 
L 359.337533 49.672789 
L 360.211498 49.72429 
L 360.502819 49.387817 
L 363.416035 41.521893 
L 363.707357 41.230054 
L 366.911894 41.903001 
L 368.659824 43.159626 
L 369.242467 43.527 
L 369.82511 43.956175 
L 370.699075 46.654829 
L 373.029648 54.568821 
L 373.320969 53.765405 
L 376.234185 37.896221 
L 376.525507 38.164026 
L 378.273436 43.176793 
L 379.438722 46.651396 
L 380.021366 46.963835 
L 380.89533 47.252241 
L 382.64326 47.763818 
L 383.225903 46.874567 
L 384.391189 45.003363 
L 384.973833 44.100378 
L 385.847797 42.696117 
L 387.304405 43.691803 
L 387.595727 43.815406 
L 388.17837 44.241148 
L 389.052335 44.814526 
L 390.217621 44.735557 
L 390.800264 44.732124 
L 392.256872 44.611955 
L 393.130837 45.075464 
L 394.587445 45.734677 
L 395.170088 45.995616 
L 395.46141 46.01965 
L 398.374626 34.994996 
L 398.665947 34.390717 
L 400.413877 46.00935 
L 401.579163 53.823772 
L 401.870485 55.159366 
L 404.7837 44.927828 
L 405.075022 44.347583 
L 407.988238 53.569701 
L 408.279559 54.05381 
L 408.570881 54.019476 
L 409.153524 53.638369 
L 410.901454 52.649549 
L 411.484097 52.467579 
L 413.523348 53.737937 
L 414.397313 54.239214 
L 414.688634 53.950808 
L 416.145242 48.213594 
L 417.60185 42.510713 
L 417.893172 42.098705 
L 421.097709 47.355243 
L 421.971674 47.564681 
L 424.010925 47.997289 
L 424.593568 48.817872 
L 425.467533 50.1775 
L 426.924141 52.604915 
L 427.215463 53.082158 
L 427.506784 52.876153 
L 430.42 46.802465 
L 430.711322 47.537213 
L 433.624537 61.662229 
L 433.915859 61.191853 
L 436.537753 51.152586 
L 436.829075 49.968062 
L 437.120396 50.01613 
L 439.450969 52.505346 
L 440.033612 53.078724 
L 441.49022 56.340456 
L 443.23815 60.38157 
L 443.529471 59.629655 
L 446.151366 50.277068 
L 446.442687 49.267648 
L 447.316652 52.584314 
L 449.647225 61.851066 
L 451.103833 57.377343 
L 452.851762 51.818666 
L 453.434405 51.986902 
L 454.599692 52.134539 
L 455.182335 52.271875 
L 455.764978 52.371443 
L 456.0563 52.440111 
L 456.638943 51.842699 
L 456.930264 51.671029 
L 457.512907 51.145719 
L 459.260837 49.559487 
L 462.465374 41.621462 
L 463.339339 42.496979 
L 465.961233 45.072031 
L 466.835198 46.37329 
L 467.709163 47.667683 
L 468.874449 49.326016 
L 469.457093 49.473652 
L 470.9137 49.590388 
L 471.787665 49.786092 
L 472.078987 49.679656 
L 474.992203 47.166406 
L 475.574846 45.961282 
L 477.322775 41.624895 
L 478.19674 39.461852 
L 478.488062 39.121945 
L 479.94467 39.101345 
L 480.527313 39.211214 
L 481.109956 39.21808 
L 481.401278 39.273015 
L 481.692599 39.060144 
L 484.605815 35.38297 
L 485.188458 35.149499 
L 486.353744 34.891994 
L 486.936388 34.727191 
L 487.227709 34.775258 
L 487.810352 34.552087 
L 491.01489 35.86708 
L 492.471498 36.206987 
L 493.054141 36.261921 
L 494.219427 36.447325 
L 495.384714 35.592408 
L 496.258678 34.854227 
L 497.423965 33.916908 
L 498.006608 34.21218 
L 500.628502 35.736611 
L 503.250396 40.924481 
L 503.83304 42.095271 
L 504.707004 38.809506 
L 507.037577 29.800259 
L 510.242115 38.122825 
L 513.446652 36.268788 
L 516.651189 29.807126 
L 518.690441 33.645669 
L 519.564405 35.276535 
L 519.855727 35.71601 
L 521.312335 33.817339 
L 522.768943 31.935835 
L 523.060264 31.702364 
L 526.264802 36.928001 
L 527.138767 37.302242 
L 527.72141 37.621549 
L 529.178018 38.325396 
L 529.469339 38.562301 
L 532.091233 42.414578 
L 532.673877 43.090958 
L 533.25652 43.163059 
L 535.004449 43.303829 
L 535.587093 43.37593 
L 535.878414 42.984522 
L 539.082952 33.5152 
L 539.956916 34.143512 
L 540.830881 34.710024 
L 542.287489 35.67481 
L 542.578811 35.643909 
L 543.744097 35.904848 
L 545.200705 36.124585 
L 545.492026 35.966649 
L 546.948634 34.473119 
L 547.531278 33.910041 
L 548.405242 32.996756 
L 548.696564 33.267995 
L 549.570529 34.819893 
L 551.027137 37.439578 
L 551.901101 38.957142 
L 552.483744 39.67129 
L 554.814317 42.53818 
L 555.105639 41.782832 
L 558.018855 30.329003 
L 558.601498 32.062871 
L 561.223392 41.672963 
L 562.68 41.696997 
L 562.68 41.696997 
" style="fill:none;stroke:#006400;stroke-linecap:square;stroke-width:1.5;"/>
   </g>
   <g id="line2d_17">
    <path clip-path="url(#p73d5a07e81)" d="M 33.64 171.459977 
L 35.096608 171.353095 
L 35.970573 173.312588 
L 37.718502 177.024937 
L 38.009824 177.591408 
L 38.301145 177.8693 
L 38.883789 177.855049 
L 39.757753 177.587846 
L 40.92304 177.19951 
L 44.71022 175.193701 
L 47.623436 179.518837 
L 47.914758 179.632844 
L 48.788722 178.442897 
L 50.827974 175.158074 
L 51.119295 174.990627 
L 52.867225 177.245825 
L 54.032511 178.521277 
L 54.323833 178.546216 
L 55.197797 177.919178 
L 57.52837 175.888431 
L 59.567621 175.916932 
L 60.732907 175.649729 
L 61.315551 174.844555 
L 63.646123 171.064515 
L 63.937445 170.861441 
L 65.102731 171.47779 
L 66.850661 172.18677 
L 68.59859 174.067884 
L 69.763877 175.21864 
L 70.34652 175.368274 
L 71.803128 175.101071 
L 73.551057 174.420592 
L 76.172952 169.977887 
L 76.464273 169.354412 
L 77.046916 170.27003 
L 78.503524 172.931378 
L 79.668811 174.769738 
L 79.960132 174.840993 
L 81.41674 173.875497 
L 82.290705 173.269836 
L 82.873348 172.59292 
L 83.16467 172.607171 
L 84.038634 171.973008 
L 85.786564 170.537234 
L 86.077885 170.15246 
L 86.660529 170.512295 
L 87.534493 170.882817 
L 88.991101 171.388722 
L 89.282423 171.26759 
L 91.030352 174.392091 
L 92.48696 176.579597 
L 92.778282 176.433526 
L 93.652247 175.304146 
L 95.108855 173.280524 
L 95.691498 172.386282 
L 95.982819 172.59292 
L 97.730749 172.792432 
L 98.604714 172.760367 
L 98.896035 172.600045 
L 99.478678 173.405219 
L 100.352643 174.520348 
L 101.51793 175.799363 
L 101.809251 176.12357 
L 102.100573 176.184136 
L 102.391894 176.048753 
L 103.557181 174.823179 
L 104.431145 173.811368 
L 105.30511 172.792432 
L 105.887753 173.654609 
L 107.344361 175.215078 
L 108.218326 176.048753 
L 108.509648 176.070129 
L 109.674934 174.217518 
L 111.714185 170.772373 
L 112.58815 171.15002 
L 114.044758 171.602485 
L 114.918722 171.88394 
L 115.501366 172.279401 
L 117.249295 172.910001 
L 118.12326 173.073886 
L 118.705903 173.569104 
L 121.036476 174.873057 
L 121.619119 174.79824 
L 123.949692 173.426595 
L 124.241013 173.116639 
L 124.532335 173.212832 
L 125.4063 174.634355 
L 127.154229 177.167445 
L 127.445551 177.520154 
L 127.736872 177.40971 
L 128.610837 176.080817 
L 130.94141 172.18677 
L 132.106696 170.316345 
L 133.854626 167.184719 
L 134.145947 167.548116 
L 135.602555 171.520543 
L 137.059163 175.175888 
L 137.641806 175.50722 
L 139.681057 176.187699 
L 141.137665 176.37296 
L 142.594273 176.244702 
L 143.468238 175.984624 
L 143.759559 175.881305 
L 144.633524 175.065444 
L 146.672775 172.84231 
L 149.585991 176.497655 
L 149.877313 176.675791 
L 150.168634 176.657977 
L 151.625242 175.443091 
L 153.08185 174.096385 
L 153.373172 174.032256 
L 154.82978 172.585794 
L 156.286388 170.879254 
L 157.451674 173.219958 
L 158.61696 175.329085 
L 159.199604 176.340895 
L 159.490925 176.565347 
L 159.782247 176.515469 
L 162.695463 173.818494 
L 163.860749 173.978816 
L 165.317357 174.039382 
L 165.9 173.889748 
L 166.482643 174.534599 
L 167.065286 175.072569 
L 169.104537 176.647289 
L 169.395859 176.365834 
L 172.309075 171.891065 
L 173.18304 173.276961 
L 174.930969 175.849241 
L 175.222291 176.209075 
L 175.804934 176.45134 
L 177.844185 176.479841 
L 178.71815 176.437089 
L 181.631366 179.597217 
L 181.922687 179.57584 
L 183.379295 177.049876 
L 184.835903 174.349338 
L 185.127225 174.317274 
L 186.292511 175.065444 
L 187.457797 175.692481 
L 188.040441 175.877743 
L 188.914405 175.867054 
L 190.079692 175.578475 
L 191.244978 175.076132 
L 192.992907 175.247142 
L 194.158194 175.186576 
L 194.449515 175.022691 
L 194.740837 175.207952 
L 197.362731 177.972619 
L 197.654053 178.104439 
L 197.945374 178.093751 
L 199.401982 177.25295 
L 200.567269 176.536845 
L 200.85859 176.287455 
L 201.441233 176.796923 
L 203.771806 179.144752 
L 204.063128 179.319325 
L 204.645771 179.312199 
L 207.558987 178.74929 
L 208.724273 178.742165 
L 210.180881 178.638846 
L 213.385419 177.313517 
L 213.67674 177.124693 
L 215.42467 178.464273 
L 216.881278 179.344264 
L 218.337885 178.759979 
L 220.085815 177.954805 
L 220.95978 178.200632 
L 223.872996 178.738602 
L 225.912247 179.098437 
L 227.951498 179.248071 
L 231.447357 179.358515 
L 233.77793 179.305074 
L 235.525859 179.091311 
L 236.399824 178.998681 
L 237.56511 178.816982 
L 239.31304 178.44646 
L 241.643612 179.358515 
L 242.226256 179.5224 
L 242.517577 179.508149 
L 245.139471 178.186382 
L 245.430793 178.029622 
L 246.887401 178.143629 
L 248.344009 178.239822 
L 248.926652 178.225571 
L 255.627048 179.632844 
L 258.248943 179.632844 
L 258.540264 179.515274 
L 260.579515 177.057001 
L 261.45348 175.963248 
L 263.492731 176.091505 
L 264.366696 176.116444 
L 264.658018 176.016688 
L 266.405947 177.374083 
L 267.571233 178.179256 
L 271.067093 179.191067 
L 271.649736 178.767104 
L 274.27163 175.767298 
L 277.476167 178.147192 
L 278.350132 178.129378 
L 279.515419 178.015371 
L 280.680705 177.879988 
L 281.845991 178.275449 
L 285.050529 178.898925 
L 290.585639 179.119813 
L 292.042247 179.390579 
L 293.498855 179.558027 
L 294.081498 179.280135 
L 294.955463 178.727914 
L 296.41207 177.730354 
L 296.703392 177.573595 
L 297.577357 177.391896 
L 299.033965 177.007123 
L 299.616608 176.764859 
L 299.90793 176.807611 
L 302.821145 179.048559 
L 303.403789 179.101999 
L 306.317004 178.777792 
L 309.23022 175.496532 
L 309.521542 175.656854 
L 310.97815 177.666225 
L 312.434758 179.604342 
L 313.308722 179.593654 
L 315.639295 179.223132 
L 315.930617 178.991555 
L 317.095903 176.625913 
L 318.843833 172.902876 
L 319.135154 173.316151 
L 321.757048 178.74929 
L 322.04837 179.126938 
L 322.631013 178.941677 
L 323.7963 178.282575 
L 325.252907 177.352706 
L 325.835551 177.577157 
L 328.166123 177.833673 
L 328.457445 177.705415 
L 329.040088 177.783795 
L 331.661982 177.480964 
L 331.953304 177.352706 
L 333.11859 175.842115 
L 334.86652 173.487161 
L 336.031806 175.190139 
L 337.779736 177.58072 
L 338.6537 177.719666 
L 341.275595 177.520154 
L 342.732203 178.450022 
L 344.188811 179.255196 
L 344.480132 179.308637 
L 345.062775 178.549778 
L 347.393348 174.979939 
L 347.68467 174.762613 
L 348.558634 175.289895 
L 350.597885 176.198387 
L 351.180529 176.187699 
L 352.054493 175.899119 
L 353.511101 175.382525 
L 354.676388 174.684233 
L 356.424317 173.016883 
L 357.298282 172.211709 
L 357.880925 171.926692 
L 358.75489 171.249776 
L 360.211498 169.977887 
L 360.502819 170.052704 
L 361.668106 172.364906 
L 362.54207 174.014443 
L 363.416035 175.532159 
L 363.707357 175.418152 
L 364.29 174.253145 
L 366.620573 168.976765 
L 367.785859 168.06471 
L 368.951145 167.017272 
L 370.407753 165.424738 
L 373.029648 160.212487 
L 373.320969 160.401311 
L 374.777577 162.214732 
L 376.234185 163.5365 
L 376.525507 163.397554 
L 377.982115 161.334742 
L 379.438722 158.944161 
L 380.021366 158.726835 
L 380.604009 158.459631 
L 382.351938 157.262559 
L 382.64326 156.81722 
L 383.225903 157.376566 
L 384.099868 157.72215 
L 385.556476 158.174614 
L 385.847797 158.117611 
L 386.430441 156.674711 
L 387.887048 152.342451 
L 389.052335 148.526783 
L 389.343656 148.744109 
L 390.800264 147.621854 
L 391.382907 147.115948 
L 391.965551 146.599355 
L 392.548194 145.43791 
L 394.587445 138.921705 
L 395.46141 135.904086 
L 396.044053 137.026341 
L 397.791982 139.862262 
L 398.374626 140.646059 
L 398.665947 140.813506 
L 399.539912 137.083344 
L 400.99652 130.823655 
L 401.870485 127.367822 
L 403.035771 134.450498 
L 404.7837 144.582858 
L 405.075022 145.323903 
L 405.948987 142.110335 
L 408.279559 132.319995 
L 409.736167 119.287585 
L 411.484097 104.25293 
L 412.940705 103.023794 
L 413.232026 102.906224 
L 414.105991 102.090363 
L 414.397313 101.933603 
L 414.979956 100.793535 
L 417.60185 94.897242 
L 417.893172 94.612225 
L 418.767137 95.353269 
L 419.34978 95.752293 
L 419.932423 96.19407 
L 420.806388 96.799732 
L 421.389031 97.608468 
L 423.13696 100.480016 
L 424.010925 101.808908 
L 424.302247 100.811348 
L 426.050176 89.435601 
L 427.215463 81.725887 
L 428.089427 78.294992 
L 429.546035 73.096992 
L 430.42 69.972491 
L 430.711322 69.673223 
L 431.585286 70.318075 
L 431.876608 70.40358 
L 433.041894 71.28357 
L 433.624537 71.646967 
L 434.498502 75.808218 
L 436.829075 87.664932 
L 437.120396 87.258782 
L 440.033612 78.034914 
L 440.324934 78.17386 
L 441.49022 79.809146 
L 442.364185 80.910025 
L 443.23815 82.039405 
L 443.529471 81.526374 
L 446.442687 73.688403 
L 449.355903 72.822663 
L 449.647225 72.662341 
L 451.686476 69.883424 
L 452.851762 68.105629 
L 454.599692 57.396109 
L 456.0563 48.599767 
L 457.512907 53.7087 
L 459.260837 59.843694 
L 461.008767 69.680349 
L 462.174053 76.260682 
L 462.465374 77.25468 
L 463.630661 74.126616 
L 465.669912 68.50109 
L 468.291806 65.960875 
L 468.583128 65.633105 
L 468.874449 65.565414 
L 469.165771 65.675858 
L 469.748414 66.08557 
L 470.622379 66.648479 
L 471.496344 67.275516 
L 471.787665 67.343208 
L 472.66163 68.526029 
L 474.700881 71.68972 
L 474.992203 72.07093 
L 475.283524 72.184937 
L 478.19674 67.624663 
L 478.488062 66.203139 
L 480.235991 51.945156 
L 481.401278 42.354329 
L 481.692599 41.513528 
L 484.897137 45.339883 
L 486.062423 46.554769 
L 487.519031 48.186492 
L 487.810352 48.496448 
L 488.684317 50.968972 
L 490.432247 56.327295 
L 491.01489 58.122903 
L 491.306211 57.766631 
L 494.219427 48.592642 
L 494.80207 52.272926 
L 497.132643 70.920173 
L 497.423965 73.314318 
L 497.715286 72.309632 
L 500.628502 54.645694 
L 502.08511 48.118801 
L 503.83304 40.476778 
L 504.415683 40.679853 
L 507.037577 41.933928 
L 509.659471 56.305919 
L 510.242115 59.423294 
L 513.446652 33.999763 
L 516.359868 61.136959 
L 516.651189 63.385032 
L 519.273084 47.171119 
L 519.855727 44.046618 
L 521.312335 47.310064 
L 523.060264 50.794399 
L 523.934229 48.631832 
L 525.97348 43.544275 
L 526.264802 42.682098 
L 529.178018 27.836267 
L 529.469339 27.080972 
L 532.965198 33.924946 
L 535.878414 41.335392 
L 537.626344 42.340078 
L 538.500308 42.810356 
L 538.79163 43.006305 
L 539.082952 43.604841 
L 540.248238 48.072485 
L 541.996167 54.823829 
L 542.287489 54.656382 
L 544.618062 46.073803 
L 545.200705 43.978926 
L 545.492026 44.178438 
L 548.405242 56.206163 
L 548.696564 55.351111 
L 550.153172 46.216311 
L 551.60978 36.85706 
L 552.192423 34.954571 
L 554.814317 27.326799 
L 555.105639 28.292294 
L 558.018855 43.034807 
L 559.184141 46.565457 
L 560.058106 49.098547 
L 561.223392 52.565068 
L 562.68 52.732516 
L 562.68 52.732516 
" style="fill:none;stroke:#a0522d;stroke-linecap:square;stroke-width:1.5;"/>
   </g>
   <g id="patch_3">
    <path d="M 33.64 186.865867 
L 33.64 25.2704 
" style="fill:none;stroke:#000000;stroke-linecap:square;stroke-linejoin:miter;stroke-width:0.8;"/>
   </g>
   <g id="patch_4">
    <path d="M 562.68 186.865867 
L 562.68 25.2704 
" style="fill:none;stroke:#000000;stroke-linecap:square;stroke-linejoin:miter;stroke-width:0.8;"/>
   </g>
   <g id="patch_5">
    <path d="M 33.64 186.865867 
L 562.68 186.865867 
" style="fill:none;stroke:#000000;stroke-linecap:square;stroke-linejoin:miter;stroke-width:0.8;"/>
   </g>
   <g id="patch_6">
    <path d="M 33.64 25.2704 
L 562.68 25.2704 
" style="fill:none;stroke:#000000;stroke-linecap:square;stroke-linejoin:miter;stroke-width:0.8;"/>
   </g>
   <g id="text_14">
    <!-- FC_close -->
    <defs>
     <path d="M 9.8125 72.90625 
L 51.703125 72.90625 
L 51.703125 64.59375 
L 19.671875 64.59375 
L 19.671875 43.109375 
L 48.578125 43.109375 
L 48.578125 34.8125 
L 19.671875 34.8125 
L 19.671875 0 
L 9.8125 0 
z
" id="DejaVuSans-46"/>
     <path d="M 64.40625 67.28125 
L 64.40625 56.890625 
Q 59.421875 61.53125 53.78125 63.8125 
Q 48.140625 66.109375 41.796875 66.109375 
Q 29.296875 66.109375 22.65625 58.46875 
Q 16.015625 50.828125 16.015625 36.375 
Q 16.015625 21.96875 22.65625 14.328125 
Q 29.296875 6.6875 41.796875 6.6875 
Q 48.140625 6.6875 53.78125 8.984375 
Q 59.421875 11.28125 64.40625 15.921875 
L 64.40625 5.609375 
Q 59.234375 2.09375 53.4375 0.328125 
Q 47.65625 -1.421875 41.21875 -1.421875 
Q 24.65625 -1.421875 15.125 8.703125 
Q 5.609375 18.84375 5.609375 36.375 
Q 5.609375 53.953125 15.125 64.078125 
Q 24.65625 74.21875 41.21875 74.21875 
Q 47.75 74.21875 53.53125 72.484375 
Q 59.328125 70.75 64.40625 67.28125 
z
" id="DejaVuSans-43"/>
     <path d="M 50.984375 -16.609375 
L 50.984375 -23.578125 
L -0.984375 -23.578125 
L -0.984375 -16.609375 
z
" id="DejaVuSans-5f"/>
     <path d="M 48.78125 52.59375 
L 48.78125 44.1875 
Q 44.96875 46.296875 41.140625 47.34375 
Q 37.3125 48.390625 33.40625 48.390625 
Q 24.65625 48.390625 19.8125 42.84375 
Q 14.984375 37.3125 14.984375 27.296875 
Q 14.984375 17.28125 19.8125 11.734375 
Q 24.65625 6.203125 33.40625 6.203125 
Q 37.3125 6.203125 41.140625 7.25 
Q 44.96875 8.296875 48.78125 10.40625 
L 48.78125 2.09375 
Q 45.015625 0.34375 40.984375 -0.53125 
Q 36.96875 -1.421875 32.421875 -1.421875 
Q 20.0625 -1.421875 12.78125 6.34375 
Q 5.515625 14.109375 5.515625 27.296875 
Q 5.515625 40.671875 12.859375 48.328125 
Q 20.21875 56 33.015625 56 
Q 37.15625 56 41.109375 55.140625 
Q 45.0625 54.296875 48.78125 52.59375 
z
" id="DejaVuSans-63"/>
     <path d="M 9.421875 75.984375 
L 18.40625 75.984375 
L 18.40625 0 
L 9.421875 0 
z
" id="DejaVuSans-6c"/>
     <path d="M 30.609375 48.390625 
Q 23.390625 48.390625 19.1875 42.75 
Q 14.984375 37.109375 14.984375 27.296875 
Q 14.984375 17.484375 19.15625 11.84375 
Q 23.34375 6.203125 30.609375 6.203125 
Q 37.796875 6.203125 41.984375 11.859375 
Q 46.1875 17.53125 46.1875 27.296875 
Q 46.1875 37.015625 41.984375 42.703125 
Q 37.796875 48.390625 30.609375 48.390625 
z
M 30.609375 56 
Q 42.328125 56 49.015625 48.375 
Q 55.71875 40.765625 55.71875 27.296875 
Q 55.71875 13.875 49.015625 6.21875 
Q 42.328125 -1.421875 30.609375 -1.421875 
Q 18.84375 -1.421875 12.171875 6.21875 
Q 5.515625 13.875 5.515625 27.296875 
Q 5.515625 40.765625 12.171875 48.375 
Q 18.84375 56 30.609375 56 
z
" id="DejaVuSans-6f"/>
     <path d="M 44.28125 53.078125 
L 44.28125 44.578125 
Q 40.484375 46.53125 36.375 47.5 
Q 32.28125 48.484375 27.875 48.484375 
Q 21.1875 48.484375 17.84375 46.4375 
Q 14.5 44.390625 14.5 40.28125 
Q 14.5 37.15625 16.890625 35.375 
Q 19.28125 33.59375 26.515625 31.984375 
L 29.59375 31.296875 
Q 39.15625 29.25 43.1875 25.515625 
Q 47.21875 21.78125 47.21875 15.09375 
Q 47.21875 7.46875 41.1875 3.015625 
Q 35.15625 -1.421875 24.609375 -1.421875 
Q 20.21875 -1.421875 15.453125 -0.5625 
Q 10.6875 0.296875 5.421875 2 
L 5.421875 11.28125 
Q 10.40625 8.6875 15.234375 7.390625 
Q 20.0625 6.109375 24.8125 6.109375 
Q 31.15625 6.109375 34.5625 8.28125 
Q 37.984375 10.453125 37.984375 14.40625 
Q 37.984375 18.0625 35.515625 20.015625 
Q 33.0625 21.96875 24.703125 23.78125 
L 21.578125 24.515625 
Q 13.234375 26.265625 9.515625 29.90625 
Q 5.8125 33.546875 5.8125 39.890625 
Q 5.8125 47.609375 11.28125 51.796875 
Q 16.75 56 26.8125 56 
Q 31.78125 56 36.171875 55.265625 
Q 40.578125 54.546875 44.28125 53.078125 
z
" id="DejaVuSans-73"/>
     <path d="M 56.203125 29.59375 
L 56.203125 25.203125 
L 14.890625 25.203125 
Q 15.484375 15.921875 20.484375 11.0625 
Q 25.484375 6.203125 34.421875 6.203125 
Q 39.59375 6.203125 44.453125 7.46875 
Q 49.3125 8.734375 54.109375 11.28125 
L 54.109375 2.78125 
Q 49.265625 0.734375 44.1875 -0.34375 
Q 39.109375 -1.421875 33.890625 -1.421875 
Q 20.796875 -1.421875 13.15625 6.1875 
Q 5.515625 13.8125 5.515625 26.8125 
Q 5.515625 40.234375 12.765625 48.109375 
Q 20.015625 56 32.328125 56 
Q 43.359375 56 49.78125 48.890625 
Q 56.203125 41.796875 56.203125 29.59375 
z
M 47.21875 32.234375 
Q 47.125 39.59375 43.09375 43.984375 
Q 39.0625 48.390625 32.421875 48.390625 
Q 24.90625 48.390625 20.390625 44.140625 
Q 15.875 39.890625 15.1875 32.171875 
z
" id="DejaVuSans-65"/>
    </defs>
    <g transform="translate(272.064687 19.2704)scale(0.12 -0.12)">
     <use xlink:href="#DejaVuSans-46"/>
     <use x="57.519531" xlink:href="#DejaVuSans-43"/>
     <use x="127.34375" xlink:href="#DejaVuSans-5f"/>
     <use x="177.34375" xlink:href="#DejaVuSans-63"/>
     <use x="232.324219" xlink:href="#DejaVuSans-6c"/>
     <use x="260.107422" xlink:href="#DejaVuSans-6f"/>
     <use x="321.289062" xlink:href="#DejaVuSans-73"/>
     <use x="373.388672" xlink:href="#DejaVuSans-65"/>
    </g>
   </g>
   <g id="legend_1">
    <g id="patch_7">
     <path d="M 509.583125 136.924383 
L 555.68 136.924383 
Q 557.68 136.924383 557.68 134.924383 
L 557.68 77.211883 
Q 557.68 75.211883 555.68 75.211883 
L 509.583125 75.211883 
Q 507.583125 75.211883 507.583125 77.211883 
L 507.583125 134.924383 
Q 507.583125 136.924383 509.583125 136.924383 
z
" style="fill:#ffffff;opacity:0.8;stroke:#cccccc;stroke-linejoin:miter;"/>
    </g>
    <g id="line2d_18">
     <path d="M 511.583125 83.310321 
L 531.583125 83.310321 
" style="fill:none;stroke:#191970;stroke-linecap:square;stroke-width:1.5;"/>
    </g>
    <g id="line2d_19"/>
    <g id="text_15">
     <!-- Co -->
     <g transform="translate(539.583125 86.810321)scale(0.1 -0.1)">
      <use xlink:href="#DejaVuSans-43"/>
      <use x="69.824219" xlink:href="#DejaVuSans-6f"/>
     </g>
    </g>
    <g id="line2d_20">
     <path d="M 511.583125 97.988446 
L 531.583125 97.988446 
" style="fill:none;stroke:#b8860b;stroke-linecap:square;stroke-width:1.5;"/>
    </g>
    <g id="line2d_21"/>
    <g id="text_16">
     <!-- Gd -->
     <defs>
      <path d="M 59.515625 10.40625 
L 59.515625 29.984375 
L 43.40625 29.984375 
L 43.40625 38.09375 
L 69.28125 38.09375 
L 69.28125 6.78125 
Q 63.578125 2.734375 56.6875 0.65625 
Q 49.8125 -1.421875 42 -1.421875 
Q 24.90625 -1.421875 15.25 8.5625 
Q 5.609375 18.5625 5.609375 36.375 
Q 5.609375 54.25 15.25 64.234375 
Q 24.90625 74.21875 42 74.21875 
Q 49.125 74.21875 55.546875 72.453125 
Q 61.96875 70.703125 67.390625 67.28125 
L 67.390625 56.78125 
Q 61.921875 61.421875 55.765625 63.765625 
Q 49.609375 66.109375 42.828125 66.109375 
Q 29.4375 66.109375 22.71875 58.640625 
Q 16.015625 51.171875 16.015625 36.375 
Q 16.015625 21.625 22.71875 14.15625 
Q 29.4375 6.6875 42.828125 6.6875 
Q 48.046875 6.6875 52.140625 7.59375 
Q 56.25 8.5 59.515625 10.40625 
z
" id="DejaVuSans-47"/>
      <path d="M 45.40625 46.390625 
L 45.40625 75.984375 
L 54.390625 75.984375 
L 54.390625 0 
L 45.40625 0 
L 45.40625 8.203125 
Q 42.578125 3.328125 38.25 0.953125 
Q 33.9375 -1.421875 27.875 -1.421875 
Q 17.96875 -1.421875 11.734375 6.484375 
Q 5.515625 14.40625 5.515625 27.296875 
Q 5.515625 40.1875 11.734375 48.09375 
Q 17.96875 56 27.875 56 
Q 33.9375 56 38.25 53.625 
Q 42.578125 51.265625 45.40625 46.390625 
z
M 14.796875 27.296875 
Q 14.796875 17.390625 18.875 11.75 
Q 22.953125 6.109375 30.078125 6.109375 
Q 37.203125 6.109375 41.296875 11.75 
Q 45.40625 17.390625 45.40625 27.296875 
Q 45.40625 37.203125 41.296875 42.84375 
Q 37.203125 48.484375 30.078125 48.484375 
Q 22.953125 48.484375 18.875 42.84375 
Q 14.796875 37.203125 14.796875 27.296875 
z
" id="DejaVuSans-64"/>
     </defs>
     <g transform="translate(539.583125 101.488446)scale(0.1 -0.1)">
      <use xlink:href="#DejaVuSans-47"/>
      <use x="77.490234" xlink:href="#DejaVuSans-64"/>
     </g>
    </g>
    <g id="line2d_22">
     <path d="M 511.583125 112.666571 
L 531.583125 112.666571 
" style="fill:none;stroke:#006400;stroke-linecap:square;stroke-width:1.5;"/>
    </g>
    <g id="line2d_23"/>
    <g id="text_17">
     <!-- Ni -->
     <defs>
      <path d="M 9.8125 72.90625 
L 23.09375 72.90625 
L 55.421875 11.921875 
L 55.421875 72.90625 
L 64.984375 72.90625 
L 64.984375 0 
L 51.703125 0 
L 19.390625 60.984375 
L 19.390625 0 
L 9.8125 0 
z
" id="DejaVuSans-4e"/>
      <path d="M 9.421875 54.6875 
L 18.40625 54.6875 
L 18.40625 0 
L 9.421875 0 
z
M 9.421875 75.984375 
L 18.40625 75.984375 
L 18.40625 64.59375 
L 9.421875 64.59375 
z
" id="DejaVuSans-69"/>
     </defs>
     <g transform="translate(539.583125 116.166571)scale(0.1 -0.1)">
      <use xlink:href="#DejaVuSans-4e"/>
      <use x="74.804688" xlink:href="#DejaVuSans-69"/>
     </g>
    </g>
    <g id="line2d_24">
     <path d="M 511.583125 127.344696 
L 531.583125 127.344696 
" style="fill:none;stroke:#a0522d;stroke-linecap:square;stroke-width:1.5;"/>
    </g>
    <g id="line2d_25"/>
    <g id="text_18">
     <!-- O -->
     <defs>
      <path d="M 39.40625 66.21875 
Q 28.65625 66.21875 22.328125 58.203125 
Q 16.015625 50.203125 16.015625 36.375 
Q 16.015625 22.609375 22.328125 14.59375 
Q 28.65625 6.59375 39.40625 6.59375 
Q 50.140625 6.59375 56.421875 14.59375 
Q 62.703125 22.609375 62.703125 36.375 
Q 62.703125 50.203125 56.421875 58.203125 
Q 50.140625 66.21875 39.40625 66.21875 
z
M 39.40625 74.21875 
Q 54.734375 74.21875 63.90625 63.9375 
Q 73.09375 53.65625 73.09375 36.375 
Q 73.09375 19.140625 63.90625 8.859375 
Q 54.734375 -1.421875 39.40625 -1.421875 
Q 24.03125 -1.421875 14.8125 8.828125 
Q 5.609375 19.09375 5.609375 36.375 
Q 5.609375 53.65625 14.8125 63.9375 
Q 24.03125 74.21875 39.40625 74.21875 
z
" id="DejaVuSans-4f"/>
     </defs>
     <g transform="translate(539.583125 130.844696)scale(0.1 -0.1)">
      <use xlink:href="#DejaVuSans-4f"/>
     </g>
    </g>
   </g>
  </g>
 </g>
 <defs>
  <clipPath id="p73d5a07e81">
   <rect height="161.595467" width="529.04" x="33.64" y="25.2704"/>
  </clipPath>
 </defs>
</svg>
