<?xml version="1.0" encoding="utf-8" standalone="no"?>
<!DOCTYPE svg PUBLIC "-//W3C//DTD SVG 1.1//EN"
  "http://www.w3.org/Graphics/SVG/1.1/DTD/svg11.dtd">
<!-- Created with matplotlib (https://matplotlib.org/) -->
<svg height="214.56pt" version="1.1" viewBox="0 0 720 214.56" width="720pt" xmlns="http://www.w3.org/2000/svg" xmlns:xlink="http://www.w3.org/1999/xlink">
 <defs>
  <style type="text/css">
*{stroke-linecap:butt;stroke-linejoin:round;}
  </style>
 </defs>
 <g id="figure_1">
  <g id="patch_1">
   <path d="M 0 214.56 
L 720 214.56 
L 720 0 
L 0 0 
z
" style="fill:#ffffff;"/>
  </g>
  <g id="axes_1">
   <g id="patch_2">
    <path d="M 90 190.9584 
L 254.117647 190.9584 
L 254.117647 25.7472 
L 90 25.7472 
z
" style="fill:#ffffff;"/>
   </g>
   <g id="matplotlib.axis_1">
    <g id="xtick_1">
     <g id="line2d_1">
      <defs>
       <path d="M 0 0 
L 0 3.5 
" id="m2a9610a23d" style="stroke:#000000;stroke-width:0.8;"/>
      </defs>
      <g>
       <use style="stroke:#000000;stroke-width:0.8;" x="103.378829" xlink:href="#m2a9610a23d" y="190.9584"/>
      </g>
     </g>
     <g id="text_1">
      <!-- −10 -->
      <defs>
       <path d="M 10.59375 35.5 
L 73.1875 35.5 
L 73.1875 27.203125 
L 10.59375 27.203125 
z
" id="DejaVuSans-8722"/>
       <path d="M 12.40625 8.296875 
L 28.515625 8.296875 
L 28.515625 63.921875 
L 10.984375 60.40625 
L 10.984375 69.390625 
L 28.421875 72.90625 
L 38.28125 72.90625 
L 38.28125 8.296875 
L 54.390625 8.296875 
L 54.390625 0 
L 12.40625 0 
z
" id="DejaVuSans-49"/>
       <path d="M 31.78125 66.40625 
Q 24.171875 66.40625 20.328125 58.90625 
Q 16.5 51.421875 16.5 36.375 
Q 16.5 21.390625 20.328125 13.890625 
Q 24.171875 6.390625 31.78125 6.390625 
Q 39.453125 6.390625 43.28125 13.890625 
Q 47.125 21.390625 47.125 36.375 
Q 47.125 51.421875 43.28125 58.90625 
Q 39.453125 66.40625 31.78125 66.40625 
z
M 31.78125 74.21875 
Q 44.046875 74.21875 50.515625 64.515625 
Q 56.984375 54.828125 56.984375 36.375 
Q 56.984375 17.96875 50.515625 8.265625 
Q 44.046875 -1.421875 31.78125 -1.421875 
Q 19.53125 -1.421875 13.0625 8.265625 
Q 6.59375 17.96875 6.59375 36.375 
Q 6.59375 54.828125 13.0625 64.515625 
Q 19.53125 74.21875 31.78125 74.21875 
z
" id="DejaVuSans-48"/>
      </defs>
      <g transform="translate(92.826485 205.556838)scale(0.1 -0.1)">
       <use xlink:href="#DejaVuSans-8722"/>
       <use x="83.789062" xlink:href="#DejaVuSans-49"/>
       <use x="147.412109" xlink:href="#DejaVuSans-48"/>
      </g>
     </g>
    </g>
    <g id="xtick_2">
     <g id="line2d_2">
      <g>
       <use style="stroke:#000000;stroke-width:0.8;" x="139.893235" xlink:href="#m2a9610a23d" y="190.9584"/>
      </g>
     </g>
     <g id="text_2">
      <!-- −5 -->
      <defs>
       <path d="M 10.796875 72.90625 
L 49.515625 72.90625 
L 49.515625 64.59375 
L 19.828125 64.59375 
L 19.828125 46.734375 
Q 21.96875 47.46875 24.109375 47.828125 
Q 26.265625 48.1875 28.421875 48.1875 
Q 40.625 48.1875 47.75 41.5 
Q 54.890625 34.8125 54.890625 23.390625 
Q 54.890625 11.625 47.5625 5.09375 
Q 40.234375 -1.421875 26.90625 -1.421875 
Q 22.3125 -1.421875 17.546875 -0.640625 
Q 12.796875 0.140625 7.71875 1.703125 
L 7.71875 11.625 
Q 12.109375 9.234375 16.796875 8.0625 
Q 21.484375 6.890625 26.703125 6.890625 
Q 35.15625 6.890625 40.078125 11.328125 
Q 45.015625 15.765625 45.015625 23.390625 
Q 45.015625 31 40.078125 35.4375 
Q 35.15625 39.890625 26.703125 39.890625 
Q 22.75 39.890625 18.8125 39.015625 
Q 14.890625 38.140625 10.796875 36.28125 
z
" id="DejaVuSans-53"/>
      </defs>
      <g transform="translate(132.522141 205.556838)scale(0.1 -0.1)">
       <use xlink:href="#DejaVuSans-8722"/>
       <use x="83.789062" xlink:href="#DejaVuSans-53"/>
      </g>
     </g>
    </g>
    <g id="xtick_3">
     <g id="line2d_3">
      <g>
       <use style="stroke:#000000;stroke-width:0.8;" x="176.40764" xlink:href="#m2a9610a23d" y="190.9584"/>
      </g>
     </g>
     <g id="text_3">
      <!-- 0 -->
      <g transform="translate(173.22639 205.556838)scale(0.1 -0.1)">
       <use xlink:href="#DejaVuSans-48"/>
      </g>
     </g>
    </g>
    <g id="xtick_4">
     <g id="line2d_4">
      <g>
       <use style="stroke:#000000;stroke-width:0.8;" x="212.922046" xlink:href="#m2a9610a23d" y="190.9584"/>
      </g>
     </g>
     <g id="text_4">
      <!-- 5 -->
      <g transform="translate(209.740796 205.556838)scale(0.1 -0.1)">
       <use xlink:href="#DejaVuSans-53"/>
      </g>
     </g>
    </g>
    <g id="xtick_5">
     <g id="line2d_5">
      <g>
       <use style="stroke:#000000;stroke-width:0.8;" x="249.436451" xlink:href="#m2a9610a23d" y="190.9584"/>
      </g>
     </g>
     <g id="text_5">
      <!-- 10 -->
      <g transform="translate(243.073951 205.556838)scale(0.1 -0.1)">
       <use xlink:href="#DejaVuSans-49"/>
       <use x="63.623047" xlink:href="#DejaVuSans-48"/>
      </g>
     </g>
    </g>
   </g>
   <g id="matplotlib.axis_2">
    <g id="ytick_1">
     <g id="line2d_6">
      <defs>
       <path d="M 0 0 
L -3.5 0 
" id="m3451cc8be0" style="stroke:#000000;stroke-width:0.8;"/>
      </defs>
      <g>
       <use style="stroke:#000000;stroke-width:0.8;" x="90" xlink:href="#m3451cc8be0" y="183.4488"/>
      </g>
     </g>
     <g id="text_6">
      <!-- 0.0 -->
      <defs>
       <path d="M 10.6875 12.40625 
L 21 12.40625 
L 21 0 
L 10.6875 0 
z
" id="DejaVuSans-46"/>
      </defs>
      <g transform="translate(67.096875 187.248019)scale(0.1 -0.1)">
       <use xlink:href="#DejaVuSans-48"/>
       <use x="63.623047" xlink:href="#DejaVuSans-46"/>
       <use x="95.410156" xlink:href="#DejaVuSans-48"/>
      </g>
     </g>
    </g>
    <g id="ytick_2">
     <g id="line2d_7">
      <g>
       <use style="stroke:#000000;stroke-width:0.8;" x="90" xlink:href="#m3451cc8be0" y="153.4104"/>
      </g>
     </g>
     <g id="text_7">
      <!-- 0.2 -->
      <defs>
       <path d="M 19.1875 8.296875 
L 53.609375 8.296875 
L 53.609375 0 
L 7.328125 0 
L 7.328125 8.296875 
Q 12.9375 14.109375 22.625 23.890625 
Q 32.328125 33.6875 34.8125 36.53125 
Q 39.546875 41.84375 41.421875 45.53125 
Q 43.3125 49.21875 43.3125 52.78125 
Q 43.3125 58.59375 39.234375 62.25 
Q 35.15625 65.921875 28.609375 65.921875 
Q 23.96875 65.921875 18.8125 64.3125 
Q 13.671875 62.703125 7.8125 59.421875 
L 7.8125 69.390625 
Q 13.765625 71.78125 18.9375 73 
Q 24.125 74.21875 28.421875 74.21875 
Q 39.75 74.21875 46.484375 68.546875 
Q 53.21875 62.890625 53.21875 53.421875 
Q 53.21875 48.921875 51.53125 44.890625 
Q 49.859375 40.875 45.40625 35.40625 
Q 44.1875 33.984375 37.640625 27.21875 
Q 31.109375 20.453125 19.1875 8.296875 
z
" id="DejaVuSans-50"/>
      </defs>
      <g transform="translate(67.096875 157.209619)scale(0.1 -0.1)">
       <use xlink:href="#DejaVuSans-48"/>
       <use x="63.623047" xlink:href="#DejaVuSans-46"/>
       <use x="95.410156" xlink:href="#DejaVuSans-50"/>
      </g>
     </g>
    </g>
    <g id="ytick_3">
     <g id="line2d_8">
      <g>
       <use style="stroke:#000000;stroke-width:0.8;" x="90" xlink:href="#m3451cc8be0" y="123.372"/>
      </g>
     </g>
     <g id="text_8">
      <!-- 0.4 -->
      <defs>
       <path d="M 37.796875 64.3125 
L 12.890625 25.390625 
L 37.796875 25.390625 
z
M 35.203125 72.90625 
L 47.609375 72.90625 
L 47.609375 25.390625 
L 58.015625 25.390625 
L 58.015625 17.1875 
L 47.609375 17.1875 
L 47.609375 0 
L 37.796875 0 
L 37.796875 17.1875 
L 4.890625 17.1875 
L 4.890625 26.703125 
z
" id="DejaVuSans-52"/>
      </defs>
      <g transform="translate(67.096875 127.171219)scale(0.1 -0.1)">
       <use xlink:href="#DejaVuSans-48"/>
       <use x="63.623047" xlink:href="#DejaVuSans-46"/>
       <use x="95.410156" xlink:href="#DejaVuSans-52"/>
      </g>
     </g>
    </g>
    <g id="ytick_4">
     <g id="line2d_9">
      <g>
       <use style="stroke:#000000;stroke-width:0.8;" x="90" xlink:href="#m3451cc8be0" y="93.3336"/>
      </g>
     </g>
     <g id="text_9">
      <!-- 0.6 -->
      <defs>
       <path d="M 33.015625 40.375 
Q 26.375 40.375 22.484375 35.828125 
Q 18.609375 31.296875 18.609375 23.390625 
Q 18.609375 15.53125 22.484375 10.953125 
Q 26.375 6.390625 33.015625 6.390625 
Q 39.65625 6.390625 43.53125 10.953125 
Q 47.40625 15.53125 47.40625 23.390625 
Q 47.40625 31.296875 43.53125 35.828125 
Q 39.65625 40.375 33.015625 40.375 
z
M 52.59375 71.296875 
L 52.59375 62.3125 
Q 48.875 64.0625 45.09375 64.984375 
Q 41.3125 65.921875 37.59375 65.921875 
Q 27.828125 65.921875 22.671875 59.328125 
Q 17.53125 52.734375 16.796875 39.40625 
Q 19.671875 43.65625 24.015625 45.921875 
Q 28.375 48.1875 33.59375 48.1875 
Q 44.578125 48.1875 50.953125 41.515625 
Q 57.328125 34.859375 57.328125 23.390625 
Q 57.328125 12.15625 50.6875 5.359375 
Q 44.046875 -1.421875 33.015625 -1.421875 
Q 20.359375 -1.421875 13.671875 8.265625 
Q 6.984375 17.96875 6.984375 36.375 
Q 6.984375 53.65625 15.1875 63.9375 
Q 23.390625 74.21875 37.203125 74.21875 
Q 40.921875 74.21875 44.703125 73.484375 
Q 48.484375 72.75 52.59375 71.296875 
z
" id="DejaVuSans-54"/>
      </defs>
      <g transform="translate(67.096875 97.132819)scale(0.1 -0.1)">
       <use xlink:href="#DejaVuSans-48"/>
       <use x="63.623047" xlink:href="#DejaVuSans-46"/>
       <use x="95.410156" xlink:href="#DejaVuSans-54"/>
      </g>
     </g>
    </g>
    <g id="ytick_5">
     <g id="line2d_10">
      <g>
       <use style="stroke:#000000;stroke-width:0.8;" x="90" xlink:href="#m3451cc8be0" y="63.2952"/>
      </g>
     </g>
     <g id="text_10">
      <!-- 0.8 -->
      <defs>
       <path d="M 31.78125 34.625 
Q 24.75 34.625 20.71875 30.859375 
Q 16.703125 27.09375 16.703125 20.515625 
Q 16.703125 13.921875 20.71875 10.15625 
Q 24.75 6.390625 31.78125 6.390625 
Q 38.8125 6.390625 42.859375 10.171875 
Q 46.921875 13.96875 46.921875 20.515625 
Q 46.921875 27.09375 42.890625 30.859375 
Q 38.875 34.625 31.78125 34.625 
z
M 21.921875 38.8125 
Q 15.578125 40.375 12.03125 44.71875 
Q 8.5 49.078125 8.5 55.328125 
Q 8.5 64.0625 14.71875 69.140625 
Q 20.953125 74.21875 31.78125 74.21875 
Q 42.671875 74.21875 48.875 69.140625 
Q 55.078125 64.0625 55.078125 55.328125 
Q 55.078125 49.078125 51.53125 44.71875 
Q 48 40.375 41.703125 38.8125 
Q 48.828125 37.15625 52.796875 32.3125 
Q 56.78125 27.484375 56.78125 20.515625 
Q 56.78125 9.90625 50.3125 4.234375 
Q 43.84375 -1.421875 31.78125 -1.421875 
Q 19.734375 -1.421875 13.25 4.234375 
Q 6.78125 9.90625 6.78125 20.515625 
Q 6.78125 27.484375 10.78125 32.3125 
Q 14.796875 37.15625 21.921875 38.8125 
z
M 18.3125 54.390625 
Q 18.3125 48.734375 21.84375 45.5625 
Q 25.390625 42.390625 31.78125 42.390625 
Q 38.140625 42.390625 41.71875 45.5625 
Q 45.3125 48.734375 45.3125 54.390625 
Q 45.3125 60.0625 41.71875 63.234375 
Q 38.140625 66.40625 31.78125 66.40625 
Q 25.390625 66.40625 21.84375 63.234375 
Q 18.3125 60.0625 18.3125 54.390625 
z
" id="DejaVuSans-56"/>
      </defs>
      <g transform="translate(67.096875 67.094419)scale(0.1 -0.1)">
       <use xlink:href="#DejaVuSans-48"/>
       <use x="63.623047" xlink:href="#DejaVuSans-46"/>
       <use x="95.410156" xlink:href="#DejaVuSans-56"/>
      </g>
     </g>
    </g>
    <g id="ytick_6">
     <g id="line2d_11">
      <g>
       <use style="stroke:#000000;stroke-width:0.8;" x="90" xlink:href="#m3451cc8be0" y="33.2568"/>
      </g>
     </g>
     <g id="text_11">
      <!-- 1.0 -->
      <g transform="translate(67.096875 37.056019)scale(0.1 -0.1)">
       <use xlink:href="#DejaVuSans-49"/>
       <use x="63.623047" xlink:href="#DejaVuSans-46"/>
       <use x="95.410156" xlink:href="#DejaVuSans-48"/>
      </g>
     </g>
    </g>
   </g>
   <g id="line2d_12">
    <path clip-path="url(#p2be32ee0e3)" d="M 97.459893 175.86516 
L 98.128942 171.512408 
L 98.79799 179.365308 
L 99.467039 177.031856 
L 100.136088 177.301126 
L 100.805137 174.339436 
L 101.474185 176.852364 
L 102.143234 170.34569 
L 102.812283 180.666634 
L 103.481331 183.4488 
L 104.15038 172.948364 
L 104.819429 168.909746 
L 105.488477 180.262767 
L 106.157526 182.282082 
L 106.826575 165.050619 
L 107.495624 179.589651 
L 108.164672 167.967393 
L 108.833721 167.743028 
L 109.50277 171.736785 
L 110.171818 169.044365 
L 110.840867 168.416132 
L 111.509916 166.217315 
L 112.178965 167.608398 
L 112.848013 171.018795 
L 113.517062 169.178983 
L 114.186111 168.819989 
L 114.855159 157.781072 
L 115.524208 172.634244 
L 116.193257 161.954332 
L 116.862305 154.011704 
L 117.531354 161.729957 
L 118.869452 153.293724 
L 119.5385 169.268719 
L 120.207549 141.536851 
L 120.876598 150.915416 
L 121.545646 153.742466 
L 122.214695 152.082123 
L 122.883744 148.85124 
L 123.552792 162.358199 
L 124.221841 150.332067 
L 124.89089 157.197724 
L 125.559939 148.58198 
L 126.228987 158.723415 
L 126.898036 150.735934 
L 127.567085 153.518089 
L 128.236133 145.84471 
L 128.905182 149.03073 
L 129.574231 145.081836 
L 130.24328 146.652433 
L 130.912328 144.004907 
L 131.581377 151.139781 
L 132.250426 136.510985 
L 132.919474 147.280643 
L 133.588523 151.588531 
L 134.257572 141.536819 
L 134.92662 135.434015 
L 135.595669 142.927901 
L 136.264718 136.241749 
L 136.933767 141.985572 
L 137.602815 141.043216 
L 138.271864 132.562115 
L 138.940913 138.171316 
L 139.609961 145.306212 
L 140.27901 133.324962 
L 140.948059 143.64589 
L 141.617108 139.203404 
L 142.286156 149.120478 
L 142.955205 146.60756 
L 144.293302 134.850667 
L 144.962351 145.889583 
L 145.6314 143.242046 
L 146.300448 133.683948 
L 146.969497 150.062818 
L 147.638546 139.203417 
L 148.307595 149.524333 
L 148.976643 150.332067 
L 149.645692 146.203691 
L 150.314741 146.831914 
L 150.983789 157.55672 
L 151.652838 146.203691 
L 152.321887 147.190918 
L 152.990935 157.287471 
L 154.329033 148.537107 
L 154.998082 149.210234 
L 155.66713 153.024488 
L 156.336179 146.203714 
L 157.005228 158.364443 
L 157.674276 158.499072 
L 158.343325 150.376951 
L 159.012374 157.646476 
L 159.681423 145.126722 
L 160.350471 152.441107 
L 161.01952 153.697571 
L 161.688569 145.799824 
L 162.357617 151.633404 
L 163.026666 150.062818 
L 163.695715 143.825403 
L 164.364763 151.947503 
L 165.033812 143.601008 
L 165.702861 140.145769 
L 166.37191 151.229515 
L 167.040958 131.305673 
L 167.710007 136.466103 
L 168.379056 130.901792 
L 169.048104 128.074742 
L 169.717153 120.221862 
L 170.386202 109.721439 
L 171.05525 105.144326 
L 171.724299 103.573762 
L 172.393348 102.676274 
L 173.062397 103.304527 
L 173.731445 99.355648 
L 174.400494 80.777932 
L 175.069543 88.585954 
L 175.738591 78.803484 
L 176.40764 74.31617 
L 177.076689 79.342 
L 177.745738 82.572899 
L 178.414786 88.900111 
L 179.083835 74.360993 
L 179.752884 62.828496 
L 181.090981 68.751815 
L 181.76003 62.20028 
L 182.429078 65.161917 
L 183.098127 56.187198 
L 184.436225 62.828523 
L 185.105273 48.28945 
L 185.774322 56.366707 
L 186.443371 52.911431 
L 187.112419 50.353625 
L 187.781468 47.167603 
L 188.450517 47.347076 
L 189.119565 47.840724 
L 189.788614 59.283475 
L 190.457663 46.9432 
L 191.126712 55.514078 
L 191.79576 61.257924 
L 193.133858 46.090589 
L 193.802906 47.21248 
L 194.471955 61.257906 
L 195.141004 38.103122 
L 195.810053 48.334282 
L 196.479101 44.609806 
L 197.14815 51.654962 
L 197.817199 49.635664 
L 198.486247 39.898062 
L 199.155296 55.514078 
L 199.824345 52.687126 
L 200.493393 43.263637 
L 201.162442 60.315568 
L 201.831491 33.2568 
L 202.50054 42.770034 
L 203.169588 45.597031 
L 203.838637 58.430909 
L 204.507686 41.87251 
L 205.845783 55.155079 
L 206.514832 44.923892 
L 207.18388 48.87278 
L 207.852929 41.334012 
L 208.521978 47.167603 
L 209.191027 43.398215 
L 209.860075 50.757483 
L 210.529124 44.834192 
L 211.198173 44.968814 
L 211.867221 48.513817 
L 212.53627 50.129267 
L 213.205319 48.693308 
L 213.874368 51.430559 
L 214.543416 44.654701 
L 215.212465 41.109672 
L 215.881514 38.641638 
L 216.550562 33.660631 
L 217.219611 46.943218 
L 217.88866 48.065082 
L 218.557708 41.782747 
L 219.226757 44.520061 
L 219.895806 42.635376 
L 220.564855 42.141773 
L 221.233903 50.443371 
L 221.902952 48.334372 
L 222.572001 53.62942 
L 223.241049 42.096878 
L 223.910098 44.789315 
L 224.579147 42.276386 
L 225.248195 46.763727 
L 225.917244 36.083841 
L 226.586293 36.44284 
L 227.255342 50.08439 
L 227.92439 56.276917 
L 228.593439 43.981563 
L 229.262488 36.667163 
L 229.931536 44.609806 
L 230.600585 48.917675 
L 231.269634 44.699596 
L 231.938683 45.193173 
L 232.607731 46.629132 
L 233.27678 43.802091 
L 233.945829 36.981276 
L 234.614877 38.59677 
L 235.283926 43.891818 
L 235.952975 47.706083 
L 236.622023 48.468967 
L 237.291072 36.442777 
L 237.960121 41.064777 
L 238.62917 41.423784 
L 239.298218 47.21248 
L 239.967267 46.629177 
L 240.636316 49.007438 
L 241.305364 48.693308 
L 241.974413 51.610094 
L 242.643462 50.667756 
L 243.31251 48.065082 
L 243.981559 51.520322 
L 244.650608 44.250844 
L 245.319657 34.423497 
L 245.988705 56.635951 
L 246.657754 49.007438 
L 246.657754 49.007438 
" style="fill:none;stroke:#ff0000;stroke-linecap:square;stroke-width:1.5;"/>
   </g>
   <g id="line2d_13">
    <path clip-path="url(#p2be32ee0e3)" d="M 97.459893 179.230713 
L 98.128942 179.961844 
L 98.79799 174.75954 
L 99.467039 180.833585 
L 100.136088 181.142917 
L 100.805137 179.005748 
L 101.474185 181.649087 
L 102.143234 173.465997 
L 102.812283 180.355536 
L 103.481331 179.905603 
L 104.15038 178.75266 
L 104.819429 178.949508 
L 105.488477 183.42068 
L 106.157526 183.4488 
L 106.826575 175.350071 
L 107.495624 181.508482 
L 108.164672 181.086673 
L 108.833721 178.499579 
L 110.171818 180.383659 
L 110.840867 177.459116 
L 111.509916 182.605182 
L 112.178965 180.974189 
L 112.848013 180.074331 
L 113.517062 178.021526 
L 114.186111 176.643621 
L 115.524208 177.037307 
L 116.193257 180.018084 
L 116.862305 176.3343 
L 117.531354 176.390537 
L 118.200403 172.622385 
L 118.869452 173.690958 
L 119.5385 171.919365 
L 120.207549 168.882341 
L 120.876598 171.553793 
L 121.545646 173.747202 
L 122.214695 171.750634 
L 122.883744 172.341177 
L 123.552792 175.153229 
L 124.221841 171.553796 
L 124.89089 173.297276 
L 125.559939 174.478339 
L 126.228987 179.202596 
L 126.898036 170.963263 
L 127.567085 173.184788 
L 128.236133 168.12308 
L 128.905182 166.801412 
L 129.574231 171.075743 
L 130.24328 169.725951 
L 130.912328 170.794542 
L 131.581377 173.072304 
L 132.250426 165.395387 
L 132.919474 169.388514 
L 133.588523 170.625821 
L 134.257572 167.954365 
L 134.92662 167.785641 
L 135.595669 172.17245 
L 136.264718 169.388514 
L 136.933767 167.251348 
L 137.602815 167.420072 
L 138.271864 162.752055 
L 138.940913 164.945458 
L 139.609961 170.963266 
L 140.27901 165.564111 
L 140.948059 170.935135 
L 141.617108 168.629249 
L 142.286156 167.504436 
L 142.955205 169.21979 
L 143.624254 165.226663 
L 144.293302 166.182766 
L 144.962351 169.191672 
L 145.6314 166.801416 
L 146.300448 161.964678 
L 146.969497 167.58879 
L 147.638546 166.773295 
L 148.307595 169.950923 
L 148.976643 168.263688 
L 149.645692 166.098402 
L 150.314741 170.232128 
L 150.983789 170.569577 
L 151.652838 171.610043 
L 152.321887 167.58879 
L 152.990935 169.585351 
L 153.659984 170.878906 
L 154.329033 167.448192 
L 154.998082 168.348048 
L 155.66713 168.741733 
L 156.336179 167.391953 
L 157.005228 170.119648 
L 157.674276 167.054501 
L 158.343325 167.391948 
L 159.012374 167.869998 
L 159.681423 163.820636 
L 160.350471 166.098402 
L 161.01952 162.386481 
L 161.688569 157.352902 
L 162.357617 160.75549 
L 163.026666 158.871414 
L 163.695715 152.881729 
L 164.364763 156.453044 
L 165.033812 147.482585 
L 165.702861 147.960627 
L 166.37191 146.35776 
L 167.040958 139.187012 
L 167.710007 136.374948 
L 168.379056 135.531325 
L 169.048104 129.091737 
L 169.717153 124.592427 
L 171.05525 109.491687 
L 171.724299 112.388089 
L 172.393348 106.707755 
L 173.062397 104.654921 
L 173.731445 104.148758 
L 174.400494 96.584334 
L 175.069543 92.366255 
L 175.738591 91.606988 
L 176.40764 85.223619 
L 177.076689 81.342983 
L 177.745738 78.530927 
L 178.414786 77.968491 
L 179.083835 74.340949 
L 179.752884 73.750412 
L 181.090981 67.59202 
L 181.76003 66.748415 
L 182.429078 62.47409 
L 183.098127 61.096167 
L 183.767176 60.561886 
L 184.436225 57.524854 
L 185.774322 53.925413 
L 186.443371 52.941206 
L 187.112419 52.884969 
L 187.781468 46.754677 
L 188.450517 51.731995 
L 189.119565 48.610644 
L 189.788614 52.828713 
L 190.457663 49.791708 
L 191.79576 53.250529 
L 193.133858 46.164167 
L 193.802906 44.280036 
L 194.471955 49.538622 
L 195.141004 43.998859 
L 195.810053 48.694991 
L 196.479101 48.694964 
L 197.14815 49.454266 
L 197.817199 46.642166 
L 199.155296 48.807474 
L 199.824345 47.6264 
L 201.162442 44.758108 
L 201.831491 45.236161 
L 202.50054 43.745755 
L 203.169588 44.280045 
L 203.838637 43.661408 
L 204.507686 45.686069 
L 205.176734 48.498151 
L 205.845783 45.095577 
L 206.514832 38.177908 
L 207.18388 43.211473 
L 207.852929 42.339741 
L 208.521978 46.389089 
L 209.860075 42.424088 
L 210.529124 40.70875 
L 211.198173 39.330836 
L 211.867221 44.645669 
L 212.53627 46.192276 
L 213.205319 40.736887 
L 213.874368 42.086664 
L 214.543416 40.202569 
L 215.881514 39.134006 
L 216.550562 43.239601 
L 217.219611 41.636711 
L 217.88866 39.443338 
L 218.557708 40.090103 
L 219.226757 39.78078 
L 219.895806 42.424106 
L 220.564855 41.524245 
L 221.233903 40.905608 
L 221.902952 40.033821 
L 222.572001 47.092119 
L 223.241049 40.427536 
L 223.910098 40.061985 
L 224.579147 38.234146 
L 225.248195 39.949492 
L 225.917244 40.399427 
L 226.586293 39.162142 
L 227.255342 44.448784 
L 227.92439 43.492696 
L 228.593439 39.471448 
L 229.262488 33.2568 
L 229.931536 40.905608 
L 230.600585 44.139479 
L 231.269634 39.077751 
L 231.938683 38.121653 
L 232.607731 40.033866 
L 233.27678 40.765005 
L 233.945829 36.378188 
L 234.614877 37.30614 
L 235.283926 38.655979 
L 235.952975 42.480334 
L 236.622023 38.037306 
L 237.291072 38.149772 
L 237.960121 42.199147 
L 238.62917 35.900134 
L 239.298218 40.286934 
L 239.967267 39.302718 
L 240.636316 41.777331 
L 241.305364 41.186794 
L 241.974413 43.605152 
L 242.643462 44.251927 
L 243.31251 41.130566 
L 243.981559 43.183363 
L 244.650608 36.321941 
L 245.319657 39.04965 
L 245.988705 38.740282 
L 246.657754 43.914503 
L 246.657754 43.914503 
" style="fill:none;stroke:#0000ff;stroke-linecap:square;stroke-width:1.5;"/>
   </g>
   <g id="line2d_14">
    <path clip-path="url(#p2be32ee0e3)" d="M 97.459893 44.721825 
L 98.128942 45.606269 
L 98.79799 40.659934 
L 99.467039 44.525334 
L 100.136088 40.234099 
L 100.805137 42.658177 
L 101.474185 42.920197 
L 102.143234 36.36877 
L 102.812283 37.187694 
L 103.481331 41.282349 
L 104.15038 38.891072 
L 104.819429 38.399689 
L 105.488477 35.779137 
L 106.157526 37.711797 
L 106.826575 36.008411 
L 107.495624 33.355086 
L 108.164672 38.072121 
L 108.833721 39.415166 
L 109.50277 37.416985 
L 110.171818 37.416985 
L 110.840867 39.513451 
L 111.509916 39.841001 
L 112.178965 38.170406 
L 112.848013 33.42057 
L 113.517062 38.170379 
L 114.186111 37.351455 
L 114.855159 33.748201 
L 115.524208 35.680852 
L 116.193257 35.680834 
L 116.862305 37.351509 
L 117.531354 33.2568 
L 118.200403 38.956601 
L 118.869452 39.513451 
L 119.5385 38.104877 
L 120.207549 39.054842 
L 120.876598 35.680816 
L 121.545646 37.973835 
L 122.214695 39.447922 
L 122.883744 40.59444 
L 123.552792 35.386022 
L 124.221841 36.106687 
L 124.89089 38.268629 
L 125.559939 37.416985 
L 126.228987 37.875585 
L 126.898036 40.332357 
L 127.567085 39.87373 
L 128.236133 38.104877 
L 128.905182 40.201343 
L 129.574231 41.675411 
L 130.24328 38.727292 
L 130.912328 39.906567 
L 131.581377 38.497956 
L 132.250426 37.384211 
L 132.919474 39.153128 
L 133.588523 40.103075 
L 134.257572 39.284142 
L 134.92662 35.746328 
L 135.595669 41.053031 
L 136.933767 41.740941 
L 137.602815 41.151335 
L 138.271864 38.825524 
L 138.940913 39.611737 
L 139.609961 40.659934 
L 140.27901 36.827352 
L 140.948059 41.216802 
L 141.617108 39.677231 
L 142.286156 40.496155 
L 142.955205 43.215027 
L 143.624254 41.708185 
L 144.293302 42.035735 
L 144.962351 40.037545 
L 145.6314 40.889234 
L 146.300448 38.825542 
L 146.969497 38.399706 
L 148.307595 41.773715 
L 148.976643 43.084004 
L 149.645692 41.282314 
L 150.314741 43.640863 
L 150.983789 42.101238 
L 151.652838 41.839199 
L 152.321887 44.066689 
L 152.990935 44.492587 
L 153.659984 39.939305 
L 154.329033 45.082229 
L 154.998082 41.347825 
L 155.66713 42.658088 
L 156.336179 42.821903 
L 157.005228 45.082193 
L 157.674276 45.90118 
L 158.343325 50.749176 
L 159.012374 47.866551 
L 159.681423 43.837425 
L 160.350471 50.094022 
L 161.01952 51.469859 
L 161.688569 51.175047 
L 162.357617 52.157768 
L 163.026666 50.912991 
L 163.695715 56.547236 
L 164.364763 56.51448 
L 165.033812 55.859326 
L 165.702861 58.185075 
L 166.37191 63.327963 
L 167.040958 66.046854 
L 167.710007 67.913957 
L 168.379056 72.76206 
L 169.048104 70.469077 
L 170.386202 80.230715 
L 171.05525 83.735738 
L 171.724299 84.947768 
L 172.393348 82.851302 
L 173.731445 98.935094 
L 174.400494 99.59023 
L 175.069543 101.490169 
L 175.738591 104.17625 
L 176.40764 108.172638 
L 177.076689 107.484729 
L 177.745738 117.999806 
L 178.414786 116.82054 
L 179.083835 123.011671 
L 179.752884 124.059926 
L 180.421932 123.175468 
L 181.090981 127.95802 
L 181.76003 129.661393 
L 182.429078 135.623241 
L 183.098127 132.249242 
L 183.767176 135.164614 
L 185.105273 141.814349 
L 185.774322 148.070976 
L 186.443371 147.907183 
L 187.112419 139.390315 
L 187.781468 151.576003 
L 188.450517 149.283006 
L 189.119565 154.7207 
L 189.788614 155.834436 
L 190.457663 151.019122 
L 191.126712 150.593284 
L 191.79576 155.343077 
L 192.464809 161.010091 
L 193.133858 157.668861 
L 193.802906 157.144738 
L 194.471955 163.434123 
L 195.141004 168.085669 
L 195.810053 161.272152 
L 196.479101 160.518724 
L 197.14815 168.052896 
L 197.817199 161.829026 
L 198.486247 169.428696 
L 199.155296 169.854549 
L 199.824345 168.413236 
L 200.493393 169.985568 
L 201.162442 173.097516 
L 201.831491 171.361376 
L 202.50054 174.080234 
L 203.169588 174.538836 
L 203.838637 170.738989 
L 204.507686 172.769948 
L 205.845783 170.313144 
L 206.514832 170.509692 
L 207.18388 174.80089 
L 207.852929 182.66263 
L 208.521978 176.668065 
L 209.191027 173.883685 
L 209.860075 180.271355 
L 210.529124 176.209454 
L 211.198173 174.997431 
L 211.867221 177.22493 
L 212.53627 176.04567 
L 213.205319 174.211253 
L 213.874368 173.949207 
L 214.543416 171.13207 
L 215.212465 177.3232 
L 215.881514 179.190366 
L 216.550562 173.294063 
L 217.219611 178.633502 
L 217.88866 173.588882 
L 218.557708 175.357771 
L 219.226757 178.699015 
L 219.895806 178.436953 
L 220.564855 176.766335 
L 221.233903 177.781794 
L 221.902952 177.847324 
L 222.572001 178.895548 
L 223.241049 175.226736 
L 223.910098 179.583463 
L 224.579147 177.22493 
L 225.248195 175.48879 
L 225.917244 174.89916 
L 226.586293 179.94378 
L 227.255342 181.679912 
L 227.92439 175.587076 
L 228.593439 177.061146 
L 229.262488 183.4488 
L 229.931536 176.962868 
L 230.600585 176.995624 
L 231.269634 169.559738 
L 231.938683 181.941974 
L 232.607731 181.319595 
L 233.27678 178.207656 
L 233.945829 176.111176 
L 234.614877 180.762703 
L 235.283926 177.847324 
L 235.952975 179.78 
L 236.622023 178.535223 
L 237.291072 175.161222 
L 237.960121 179.845505 
L 238.62917 179.124845 
L 239.298218 179.452421 
L 239.967267 179.419664 
L 240.636316 180.893745 
L 241.305364 174.112982 
L 241.974413 174.244017 
L 242.643462 178.142134 
L 243.31251 179.517934 
L 243.981559 179.157602 
L 244.650608 175.84913 
L 245.319657 179.419656 
L 245.988705 180.729958 
L 246.657754 180.140324 
L 246.657754 180.140324 
" style="fill:none;stroke:#800080;stroke-linecap:square;stroke-width:1.5;"/>
   </g>
   <g id="line2d_15">
    <path clip-path="url(#p2be32ee0e3)" d="M 97.459893 163.305615 
L 98.128942 158.259544 
L 98.79799 163.264589 
L 100.136088 154.5263 
L 100.805137 152.639126 
L 101.474185 152.721203 
L 102.143234 150.095592 
L 102.812283 141.439348 
L 103.481331 143.449579 
L 104.15038 146.403371 
L 104.819429 137.952239 
L 105.488477 135.367675 
L 106.157526 129.172937 
L 106.826575 136.967638 
L 107.495624 130.28059 
L 108.164672 130.936979 
L 108.833721 127.367832 
L 109.50277 122.075626 
L 110.171818 123.593542 
L 110.840867 125.398638 
L 111.509916 117.726985 
L 112.178965 119.285906 
L 112.848013 119.655155 
L 113.517062 122.280747 
L 114.186111 119.614119 
L 114.855159 123.224293 
L 115.524208 110.137382 
L 116.193257 116.947527 
L 116.862305 116.906503 
L 117.531354 115.716768 
L 118.200403 114.896273 
L 118.869452 120.311571 
L 119.5385 117.111615 
L 120.207549 119.532104 
L 120.876598 117.234693 
L 121.545646 116.332143 
L 122.214695 111.614266 
L 122.883744 121.214077 
L 123.552792 106.445126 
L 124.221841 113.21426 
L 124.89089 107.593838 
L 125.559939 115.265491 
L 126.228987 106.15795 
L 126.898036 122.034581 
L 127.567085 111.942492 
L 128.236133 111.860423 
L 128.905182 111.286081 
L 129.574231 120.352576 
L 130.24328 115.306505 
L 130.912328 114.198852 
L 131.581377 120.844868 
L 132.250426 120.516674 
L 132.919474 110.465577 
L 134.257572 121.542298 
L 134.92662 119.285915 
L 135.595669 107.757957 
L 136.933767 125.767856 
L 137.602815 115.757783 
L 138.271864 127.572952 
L 138.940913 124.742241 
L 139.609961 116.455217 
L 140.27901 123.470477 
L 140.948059 115.593708 
L 141.617108 119.819253 
L 142.286156 114.527056 
L 143.624254 126.21912 
L 144.293302 120.229502 
L 144.962351 118.219277 
L 145.6314 119.778229 
L 146.300448 133.562557 
L 146.969497 128.885735 
L 147.638546 129.91135 
L 148.307595 126.465295 
L 148.976643 116.906503 
L 149.645692 120.270516 
L 150.314741 126.711434 
L 150.983789 126.301171 
L 151.652838 125.070444 
L 152.321887 127.613967 
L 152.990935 124.865292 
L 153.659984 126.629383 
L 154.329033 134.793324 
L 154.998082 134.75231 
L 155.66713 129.706261 
L 156.336179 135.203556 
L 157.005228 133.029264 
L 157.674276 133.193379 
L 158.343325 132.454913 
L 159.012374 141.234219 
L 159.681423 147.470012 
L 160.350471 137.583035 
L 161.01952 143.572648 
L 161.688569 147.634118 
L 162.357617 142.99827 
L 163.026666 145.295689 
L 163.695715 159.080019 
L 164.364763 144.105963 
L 165.033812 153.869882 
L 165.702861 154.895506 
L 166.37191 159.85952 
L 167.040958 169.705463 
L 167.710007 163.879944 
L 168.379056 173.766942 
L 169.048104 170.115735 
L 169.717153 172.290049 
L 171.05525 183.4488 
L 171.724299 173.192593 
L 172.393348 179.633497 
L 173.062397 181.069355 
L 173.731445 176.187401 
L 174.400494 178.279667 
L 175.069543 177.3361 
L 175.738591 183.44879 
L 176.40764 177.787367 
L 177.076689 177.869425 
L 177.745738 175.243835 
L 178.414786 180.864234 
L 179.083835 176.597654 
L 179.752884 175.366907 
L 180.421932 173.438739 
L 181.090981 177.007896 
L 181.76003 173.192583 
L 182.429078 163.962001 
L 183.098127 170.320857 
L 183.767176 168.269606 
L 184.436225 164.905588 
L 185.105273 158.71083 
L 185.774322 150.341767 
L 186.443371 149.68534 
L 187.112419 146.731545 
L 187.781468 148.126389 
L 188.450517 142.341885 
L 189.119565 145.664925 
L 189.788614 133.398473 
L 190.457663 138.198396 
L 191.126712 127.039624 
L 191.79576 124.988375 
L 192.464809 120.188479 
L 193.133858 117.685962 
L 193.802906 121.049988 
L 194.471955 112.721942 
L 195.141004 123.060227 
L 195.810053 108.947661 
L 196.479101 107.593838 
L 197.14815 109.89123 
L 197.817199 101.686257 
L 198.486247 99.183731 
L 199.155296 100.209378 
L 199.824345 105.132348 
L 200.493393 93.563335 
L 201.162442 98.978593 
L 201.831491 100.537554 
L 202.50054 86.13783 
L 203.169588 82.650711 
L 203.838637 85.604533 
L 204.507686 91.430058 
L 205.176734 74.732955 
L 205.845783 88.968559 
L 206.514832 86.671163 
L 207.18388 84.866062 
L 207.852929 82.158442 
L 208.521978 86.50707 
L 209.191027 77.604649 
L 209.860075 84.373766 
L 210.529124 82.937923 
L 211.867221 70.671458 
L 212.53627 71.943244 
L 213.205319 71.204791 
L 213.874368 74.322696 
L 214.543416 74.486753 
L 215.212465 74.322714 
L 216.550562 70.179189 
L 217.219611 64.107498 
L 218.557708 74.815001 
L 219.226757 68.743301 
L 219.895806 67.0203 
L 220.564855 72.681706 
L 221.233903 70.015069 
L 221.902952 62.589582 
L 222.572001 62.015221 
L 223.241049 64.969025 
L 223.910098 69.727875 
L 224.579147 62.589582 
L 225.248195 57.379409 
L 225.917244 53.933327 
L 226.586293 59.184554 
L 227.255342 50.159024 
L 227.92439 53.071844 
L 228.593439 54.71279 
L 229.262488 60.784481 
L 229.931536 50.24107 
L 230.600585 45.3181 
L 231.269634 47.65656 
L 231.938683 58.93837 
L 232.607731 52.00517 
L 233.27678 47.410403 
L 233.945829 56.928122 
L 234.614877 50.159042 
L 235.283926 49.789846 
L 235.952975 41.37974 
L 236.622023 52.046198 
L 237.291072 55.451252 
L 237.960121 44.333526 
L 238.62917 43.595081 
L 239.298218 49.338533 
L 239.967267 43.472016 
L 240.636316 33.2568 
L 241.305364 44.251452 
L 241.974413 41.872009 
L 242.643462 40.641278 
L 243.31251 42.528416 
L 243.981559 41.338676 
L 244.650608 50.569345 
L 245.319657 43.759165 
L 246.657754 39.287419 
L 246.657754 39.287419 
" style="fill:none;stroke:#000000;stroke-linecap:square;stroke-width:1.5;"/>
   </g>
   <g id="patch_3">
    <path d="M 90 190.9584 
L 90 25.7472 
" style="fill:none;stroke:#000000;stroke-linecap:square;stroke-linejoin:miter;stroke-width:0.8;"/>
   </g>
   <g id="patch_4">
    <path d="M 254.117647 190.9584 
L 254.117647 25.7472 
" style="fill:none;stroke:#000000;stroke-linecap:square;stroke-linejoin:miter;stroke-width:0.8;"/>
   </g>
   <g id="patch_5">
    <path d="M 90 190.9584 
L 254.117647 190.9584 
" style="fill:none;stroke:#000000;stroke-linecap:square;stroke-linejoin:miter;stroke-width:0.8;"/>
   </g>
   <g id="patch_6">
    <path d="M 90 25.7472 
L 254.117647 25.7472 
" style="fill:none;stroke:#000000;stroke-linecap:square;stroke-linejoin:miter;stroke-width:0.8;"/>
   </g>
   <g id="text_12">
    <!-- AG -->
    <defs>
     <path d="M 34.1875 63.1875 
L 20.796875 26.90625 
L 47.609375 26.90625 
z
M 28.609375 72.90625 
L 39.796875 72.90625 
L 67.578125 0 
L 57.328125 0 
L 50.6875 18.703125 
L 17.828125 18.703125 
L 11.1875 0 
L 0.78125 0 
z
" id="DejaVuSans-65"/>
     <path d="M 59.515625 10.40625 
L 59.515625 29.984375 
L 43.40625 29.984375 
L 43.40625 38.09375 
L 69.28125 38.09375 
L 69.28125 6.78125 
Q 63.578125 2.734375 56.6875 0.65625 
Q 49.8125 -1.421875 42 -1.421875 
Q 24.90625 -1.421875 15.25 8.5625 
Q 5.609375 18.5625 5.609375 36.375 
Q 5.609375 54.25 15.25 64.234375 
Q 24.90625 74.21875 42 74.21875 
Q 49.125 74.21875 55.546875 72.453125 
Q 61.96875 70.703125 67.390625 67.28125 
L 67.390625 56.78125 
Q 61.921875 61.421875 55.765625 63.765625 
Q 49.609375 66.109375 42.828125 66.109375 
Q 29.4375 66.109375 22.71875 58.640625 
Q 16.015625 51.171875 16.015625 36.375 
Q 16.015625 21.625 22.71875 14.15625 
Q 29.4375 6.6875 42.828125 6.6875 
Q 48.046875 6.6875 52.140625 7.59375 
Q 56.25 8.5 59.515625 10.40625 
z
" id="DejaVuSans-71"/>
    </defs>
    <g transform="translate(163.306324 19.7472)scale(0.12 -0.12)">
     <use xlink:href="#DejaVuSans-65"/>
     <use x="68.392578" xlink:href="#DejaVuSans-71"/>
    </g>
   </g>
  </g>
  <g id="axes_2">
   <g id="patch_7">
    <path d="M 286.941176 190.9584 
L 451.058824 190.9584 
L 451.058824 25.7472 
L 286.941176 25.7472 
z
" style="fill:#ffffff;"/>
   </g>
   <g id="matplotlib.axis_3">
    <g id="xtick_6">
     <g id="line2d_16">
      <g>
       <use style="stroke:#000000;stroke-width:0.8;" x="331.044731" xlink:href="#m2a9610a23d" y="190.9584"/>
      </g>
     </g>
     <g id="text_13">
      <!-- −2 -->
      <g transform="translate(323.673637 205.556838)scale(0.1 -0.1)">
       <use xlink:href="#DejaVuSans-8722"/>
       <use x="83.789062" xlink:href="#DejaVuSans-50"/>
      </g>
     </g>
    </g>
    <g id="xtick_7">
     <g id="line2d_17">
      <g>
       <use style="stroke:#000000;stroke-width:0.8;" x="375.781721" xlink:href="#m2a9610a23d" y="190.9584"/>
      </g>
     </g>
     <g id="text_14">
      <!-- 0 -->
      <g transform="translate(372.600471 205.556838)scale(0.1 -0.1)">
       <use xlink:href="#DejaVuSans-48"/>
      </g>
     </g>
    </g>
    <g id="xtick_8">
     <g id="line2d_18">
      <g>
       <use style="stroke:#000000;stroke-width:0.8;" x="420.518711" xlink:href="#m2a9610a23d" y="190.9584"/>
      </g>
     </g>
     <g id="text_15">
      <!-- 2 -->
      <g transform="translate(417.337461 205.556838)scale(0.1 -0.1)">
       <use xlink:href="#DejaVuSans-50"/>
      </g>
     </g>
    </g>
   </g>
   <g id="matplotlib.axis_4">
    <g id="ytick_7">
     <g id="line2d_19">
      <g>
       <use style="stroke:#000000;stroke-width:0.8;" x="286.941176" xlink:href="#m3451cc8be0" y="183.4488"/>
      </g>
     </g>
     <g id="text_16">
      <!-- 0.0 -->
      <g transform="translate(264.038051 187.248019)scale(0.1 -0.1)">
       <use xlink:href="#DejaVuSans-48"/>
       <use x="63.623047" xlink:href="#DejaVuSans-46"/>
       <use x="95.410156" xlink:href="#DejaVuSans-48"/>
      </g>
     </g>
    </g>
    <g id="ytick_8">
     <g id="line2d_20">
      <g>
       <use style="stroke:#000000;stroke-width:0.8;" x="286.941176" xlink:href="#m3451cc8be0" y="153.4104"/>
      </g>
     </g>
     <g id="text_17">
      <!-- 0.2 -->
      <g transform="translate(264.038051 157.209619)scale(0.1 -0.1)">
       <use xlink:href="#DejaVuSans-48"/>
       <use x="63.623047" xlink:href="#DejaVuSans-46"/>
       <use x="95.410156" xlink:href="#DejaVuSans-50"/>
      </g>
     </g>
    </g>
    <g id="ytick_9">
     <g id="line2d_21">
      <g>
       <use style="stroke:#000000;stroke-width:0.8;" x="286.941176" xlink:href="#m3451cc8be0" y="123.372"/>
      </g>
     </g>
     <g id="text_18">
      <!-- 0.4 -->
      <g transform="translate(264.038051 127.171219)scale(0.1 -0.1)">
       <use xlink:href="#DejaVuSans-48"/>
       <use x="63.623047" xlink:href="#DejaVuSans-46"/>
       <use x="95.410156" xlink:href="#DejaVuSans-52"/>
      </g>
     </g>
    </g>
    <g id="ytick_10">
     <g id="line2d_22">
      <g>
       <use style="stroke:#000000;stroke-width:0.8;" x="286.941176" xlink:href="#m3451cc8be0" y="93.3336"/>
      </g>
     </g>
     <g id="text_19">
      <!-- 0.6 -->
      <g transform="translate(264.038051 97.132819)scale(0.1 -0.1)">
       <use xlink:href="#DejaVuSans-48"/>
       <use x="63.623047" xlink:href="#DejaVuSans-46"/>
       <use x="95.410156" xlink:href="#DejaVuSans-54"/>
      </g>
     </g>
    </g>
    <g id="ytick_11">
     <g id="line2d_23">
      <g>
       <use style="stroke:#000000;stroke-width:0.8;" x="286.941176" xlink:href="#m3451cc8be0" y="63.2952"/>
      </g>
     </g>
     <g id="text_20">
      <!-- 0.8 -->
      <g transform="translate(264.038051 67.094419)scale(0.1 -0.1)">
       <use xlink:href="#DejaVuSans-48"/>
       <use x="63.623047" xlink:href="#DejaVuSans-46"/>
       <use x="95.410156" xlink:href="#DejaVuSans-56"/>
      </g>
     </g>
    </g>
    <g id="ytick_12">
     <g id="line2d_24">
      <g>
       <use style="stroke:#000000;stroke-width:0.8;" x="286.941176" xlink:href="#m3451cc8be0" y="33.2568"/>
      </g>
     </g>
     <g id="text_21">
      <!-- 1.0 -->
      <g transform="translate(264.038051 37.056019)scale(0.1 -0.1)">
       <use xlink:href="#DejaVuSans-49"/>
       <use x="63.623047" xlink:href="#DejaVuSans-46"/>
       <use x="95.410156" xlink:href="#DejaVuSans-48"/>
      </g>
     </g>
    </g>
   </g>
   <g id="line2d_25">
    <path clip-path="url(#p037ce573d1)" d="M 294.40107 172.50371 
L 295.305299 172.482463 
L 296.209528 174.628962 
L 297.113758 172.652471 
L 298.017987 170.994789 
L 298.922217 174.310178 
L 299.826446 168.210696 
L 300.730676 170.952264 
L 301.634905 169.400843 
L 302.539135 170.505972 
L 303.443364 174.076403 
L 304.347594 166.382961 
L 305.251823 169.209553 
L 306.156053 170.080906 
L 307.060282 168.720761 
L 307.964511 172.609971 
L 308.868741 172.822494 
L 309.77297 170.952285 
L 310.6772 173.162541 
L 311.581429 178.603202 
L 312.485659 173.86388 
L 313.389888 177.115534 
L 314.294118 172.567456 
L 315.198347 174.310188 
L 316.102577 176.754229 
L 317.006806 177.923109 
L 317.911035 177.349298 
L 318.815265 170.782236 
L 319.719494 176.095399 
L 320.623724 175.691611 
L 321.527953 174.140165 
L 322.432183 175.946628 
L 323.336412 171.186065 
L 324.240642 171.951152 
L 325.144871 169.953403 
L 326.049101 171.441087 
L 326.95333 174.79898 
L 327.85756 177.391802 
L 328.761789 175.457821 
L 329.666018 172.546215 
L 330.570248 170.272192 
L 331.474477 174.480196 
L 332.378707 176.414193 
L 333.282936 179.94212 
L 334.187166 177.243031 
L 335.091395 180.345923 
L 335.995625 181.876117 
L 336.899854 176.265407 
L 337.804084 180.345913 
L 338.708313 179.835838 
L 339.612543 177.646835 
L 340.516772 183.4488 
L 341.421001 180.388412 
L 342.325231 179.368314 
L 343.22946 181.642327 
L 344.13369 177.158038 
L 345.037919 182.513675 
L 345.942149 178.050628 
L 346.846378 177.561831 
L 347.750608 179.283274 
L 348.654837 178.794462 
L 349.559067 179.772102 
L 350.463296 177.009246 
L 351.367526 175.394064 
L 352.271755 171.101045 
L 354.080214 172.865004 
L 354.984443 172.673734 
L 355.888673 171.14354 
L 356.792902 172.865008 
L 357.697132 172.567472 
L 358.601361 170.378447 
L 359.505591 170.080911 
L 360.40982 164.385227 
L 361.31405 163.535116 
L 362.218279 156.181741 
L 363.122509 161.069824 
L 364.026738 157.371887 
L 364.930967 154.417773 
L 365.835197 154.67281 
L 366.739426 147.893224 
L 367.643656 145.810473 
L 368.547885 145.661675 
L 369.452115 136.671868 
L 370.356344 132.293828 
L 371.260574 130.444862 
L 372.164803 125.195447 
L 373.069033 118.840918 
L 373.973262 118.118373 
L 374.877491 110.446173 
L 375.781721 110.169874 
L 376.68595 104.155383 
L 377.59018 99.522328 
L 378.494409 93.274074 
L 379.398639 91.765146 
L 380.302868 82.626567 
L 381.207098 77.674664 
L 382.111327 81.64894 
L 383.015557 79.502405 
L 384.824016 68.281021 
L 386.632474 58.653647 
L 387.536704 55.720774 
L 388.440933 51.406478 
L 389.345163 48.324855 
L 390.249392 42.926679 
L 391.153622 42.62919 
L 392.057851 39.186224 
L 392.962081 38.952492 
L 393.86631 37.88981 
L 394.77054 38.187406 
L 395.674769 38.803681 
L 396.578999 44.22311 
L 398.387457 37.146004 
L 399.291687 41.375264 
L 400.195916 36.274638 
L 401.100146 41.290236 
L 402.004375 44.116911 
L 402.908605 42.947931 
L 403.812834 42.374099 
L 404.717064 47.602283 
L 405.621293 45.817012 
L 406.525523 46.454619 
L 407.429752 42.65046 
L 408.333982 50.981394 
L 410.14244 45.051989 
L 411.04667 44.223074 
L 411.950899 41.715266 
L 413.759358 46.242095 
L 414.663588 43.925559 
L 416.472047 47.89979 
L 417.376276 47.198452 
L 418.280506 37.996099 
L 419.184735 42.034088 
L 420.088965 39.632559 
L 420.993194 44.031838 
L 422.801653 48.452352 
L 423.705882 45.306972 
L 424.610112 39.908858 
L 425.514341 42.586623 
L 426.418571 42.841714 
L 427.3228 41.460318 
L 428.22703 43.521745 
L 429.131259 44.988196 
L 430.035489 44.988258 
L 430.939718 40.652674 
L 431.843947 41.927808 
L 432.748177 40.928991 
L 433.652406 33.2568 
L 434.556636 38.591202 
L 435.460865 37.86854 
L 436.365095 34.128085 
L 437.269324 41.58777 
L 438.173554 37.422267 
L 439.077783 37.996117 
L 439.982013 40.036337 
L 440.886242 40.992703 
L 441.790472 41.183992 
L 442.694701 42.437946 
L 443.59893 35.254533 
L 443.59893 35.254533 
" style="fill:none;stroke:#ff0000;stroke-linecap:square;stroke-width:1.5;"/>
   </g>
   <g id="line2d_26">
    <path clip-path="url(#p037ce573d1)" d="M 294.40107 179.849466 
L 295.305299 179.022374 
L 296.209528 176.096964 
L 297.113758 176.250129 
L 298.017987 177.797067 
L 299.826446 176.34201 
L 300.730676 176.878085 
L 301.634905 179.267439 
L 302.539135 176.602399 
L 303.443364 179.435924 
L 304.347594 177.781755 
L 305.251823 179.558449 
L 306.156053 173.21748 
L 307.060282 176.541124 
L 307.964511 178.134029 
L 308.868741 177.705178 
L 309.77297 178.961113 
L 310.6772 176.663664 
L 311.581429 177.858346 
L 312.485659 177.42948 
L 313.389888 176.740237 
L 314.294118 176.969997 
L 315.198347 178.976422 
L 316.102577 175.560882 
L 317.006806 178.057441 
L 317.911035 179.956675 
L 318.815265 176.418602 
L 319.719494 176.571767 
L 320.623724 178.700736 
L 321.527953 176.372654 
L 322.432183 179.512505 
L 323.336412 177.888971 
L 324.240642 177.888967 
L 325.144871 178.455682 
L 326.049101 178.39441 
L 326.95333 177.291636 
L 327.85756 183.4488 
L 328.761789 179.726926 
L 329.666018 176.571767 
L 330.570248 176.985313 
L 331.474477 181.090082 
L 332.378707 179.374659 
L 333.282936 179.726937 
L 334.187166 181.764006 
L 335.091395 176.617723 
L 335.995625 179.772882 
L 336.899854 181.181986 
L 337.804084 179.389968 
L 339.612543 180.783756 
L 340.516772 179.589085 
L 341.421001 179.144911 
L 342.325231 178.56288 
L 343.22946 177.092522 
L 344.13369 176.816829 
L 345.037919 171.716476 
L 345.942149 174.534695 
L 346.846378 176.510499 
L 347.750608 171.655218 
L 348.654837 172.329139 
L 349.559067 170.720925 
L 351.367526 170.307378 
L 352.271755 168.101833 
L 353.175984 166.692729 
L 354.080214 171.379525 
L 354.984443 163.69072 
L 355.888673 162.419471 
L 356.792902 163.537556 
L 357.697132 163.506931 
L 358.601361 157.931781 
L 359.505591 155.144212 
L 360.40982 151.315111 
L 361.31405 151.728662 
L 363.122509 147.731112 
L 364.026738 143.595695 
L 364.930967 141.466688 
L 365.835197 138.250278 
L 366.739426 130.913753 
L 367.643656 127.467572 
L 368.547885 120.43738 
L 369.452115 119.93192 
L 371.260574 111.232252 
L 372.164803 104.293962 
L 373.069033 100.143212 
L 373.973262 94.690616 
L 374.877491 93.52656 
L 375.781721 89.299243 
L 376.68595 87.2775 
L 377.59018 78.302111 
L 378.494409 76.571393 
L 379.398639 71.50167 
L 380.302868 68.285229 
L 381.207098 66.876135 
L 382.111327 61.668585 
L 383.015557 60.412618 
L 383.919786 56.185336 
L 384.824016 51.115605 
L 385.728245 49.583992 
L 386.632474 46.85768 
L 389.345163 40.409525 
L 390.249392 44.483653 
L 391.153622 35.477638 
L 392.057851 40.026624 
L 392.962081 41.650103 
L 393.86631 39.505815 
L 394.77054 39.153557 
L 395.674769 39.658977 
L 396.578999 41.052817 
L 397.483228 37.039912 
L 398.387457 43.227703 
L 399.291687 40.685206 
L 400.195916 44.805276 
L 401.100146 42.553777 
L 402.004375 44.468291 
L 402.908605 38.939118 
L 403.812834 41.037491 
L 404.717064 41.787975 
L 405.621293 44.560238 
L 406.525523 42.01775 
L 407.429752 47.807314 
L 408.333982 45.402626 
L 409.238211 45.586449 
L 410.14244 49.721837 
L 411.04667 43.840379 
L 411.950899 47.715367 
L 412.855129 43.993514 
L 413.759358 44.054801 
L 414.663588 45.004408 
L 415.567817 41.068134 
L 416.472047 41.86457 
L 417.376276 44.177302 
L 418.280506 39.475199 
L 419.184735 43.503394 
L 420.993194 35.29386 
L 421.897423 36.212851 
L 422.801653 36.657047 
L 423.705882 37.269678 
L 424.610112 33.2568 
L 425.514341 36.657047 
L 426.418571 38.893184 
L 427.3228 38.234575 
L 428.22703 33.74693 
L 429.131259 39.919377 
L 430.035489 37.744463 
L 430.939718 33.716287 
L 431.843947 35.554233 
L 432.748177 35.600175 
L 433.652406 34.42082 
L 434.556636 36.335379 
L 435.460865 36.886777 
L 436.365095 36.61106 
L 437.269324 34.451445 
L 438.173554 36.228141 
L 439.077783 35.875883 
L 439.982013 35.829932 
L 440.886242 35.600175 
L 441.790472 38.678789 
L 442.694701 35.370454 
L 443.59893 37.070528 
L 443.59893 37.070528 
" style="fill:none;stroke:#0000ff;stroke-linecap:square;stroke-width:1.5;"/>
   </g>
   <g id="line2d_27">
    <path clip-path="url(#p037ce573d1)" d="M 294.40107 38.852801 
L 295.305299 38.220377 
L 296.209528 36.227264 
L 297.113758 37.243027 
L 298.017987 33.2568 
L 298.922217 39.216956 
L 299.826446 34.655823 
L 300.730676 42.934825 
L 301.634905 41.689171 
L 302.539135 39.887722 
L 303.443364 44.257209 
L 304.347594 40.941747 
L 305.251823 38.143765 
L 306.156053 43.030703 
L 307.060282 41.325051 
L 307.964511 43.548118 
L 308.868741 36.438131 
L 309.77297 46.901939 
L 311.581429 37.396377 
L 312.485659 42.954045 
L 313.389888 40.55847 
L 314.294118 43.79723 
L 316.102577 41.535856 
L 317.006806 44.142209 
L 317.911035 43.088157 
L 319.719494 49.278321 
L 320.623724 41.631716 
L 321.527953 46.039481 
L 322.432183 47.553485 
L 323.336412 46.576099 
L 324.240642 46.09699 
L 325.144871 48.895017 
L 326.95333 51.213926 
L 327.85756 48.818378 
L 328.761789 51.079787 
L 329.666018 47.706764 
L 330.570248 45.387918 
L 331.474477 48.990805 
L 332.378707 50.083199 
L 333.282936 43.835581 
L 334.187166 48.01341 
L 335.091395 46.211953 
L 335.995625 51.233084 
L 336.899854 47.802623 
L 337.804084 51.92298 
L 338.708313 43.164815 
L 339.612543 48.511696 
L 340.516772 45.15791 
L 341.421001 40.903459 
L 342.325231 44.448856 
L 343.22946 44.832151 
L 344.13369 47.57267 
L 345.037919 42.666529 
L 345.942149 43.452295 
L 346.846378 46.710265 
L 348.654837 44.793773 
L 349.559067 43.548136 
L 350.463296 41.325015 
L 351.367526 45.80951 
L 352.271755 40.194324 
L 353.175984 42.95401 
L 354.080214 44.372154 
L 354.984443 47.112727 
L 355.888673 53.801104 
L 356.792902 47.610958 
L 358.601361 49.220768 
L 359.505591 51.194742 
L 360.40982 52.459572 
L 361.31405 56.924891 
L 362.218279 54.989268 
L 363.122509 57.614814 
L 364.930967 65.299806 
L 365.835197 65.261473 
L 366.739426 70.263383 
L 367.643656 71.585749 
L 368.547885 78.427494 
L 369.452115 77.066805 
L 370.356344 88.02888 
L 371.260574 79.213206 
L 372.164803 94.621433 
L 373.069033 94.928062 
L 373.973262 99.910842 
L 374.877491 102.823841 
L 375.781721 106.350108 
L 376.68595 114.801636 
L 377.59018 114.897486 
L 378.494409 127.411885 
L 379.398639 123.080705 
L 380.302868 129.424134 
L 381.207098 132.816261 
L 382.111327 132.547952 
L 383.015557 141.766057 
L 383.919786 146.84464 
L 384.824016 142.973445 
L 385.728245 145.694789 
L 387.536704 153.878037 
L 388.440933 155.81362 
L 389.345163 161.773785 
L 390.249392 160.892214 
L 391.153622 162.961982 
L 392.962081 164.993423 
L 393.86631 158.937447 
L 394.77054 169.765371 
L 395.674769 161.601306 
L 396.578999 168.596346 
L 397.483228 166.699055 
L 398.387457 161.754612 
L 399.291687 168.902963 
L 400.195916 170.397789 
L 401.100146 166.296616 
L 402.004375 166.526567 
L 402.908605 163.709385 
L 403.812834 168.558008 
L 404.717064 168.232208 
L 405.621293 169.516236 
L 406.525523 165.702498 
L 407.429752 166.58406 
L 408.333982 171.950106 
L 409.238211 173.176656 
L 410.14244 171.336852 
L 411.04667 173.617433 
L 411.950899 175.514715 
L 412.855129 165.185065 
L 413.759358 176.319621 
L 414.663588 166.564896 
L 415.567817 173.713254 
L 416.472047 165.395861 
L 417.376276 169.592902 
L 418.280506 174.422342 
L 419.184735 172.6592 
L 420.088965 176.377113 
L 420.993194 175.016437 
L 421.897423 178.446882 
L 422.801653 176.8754 
L 423.705882 183.4488 
L 424.610112 179.960867 
L 425.514341 181.417382 
L 426.418571 179.55841 
L 427.3228 182.778044 
L 428.22703 175.284736 
L 429.131259 171.950125 
L 430.035489 179.385946 
L 430.939718 173.981552 
L 431.843947 171.930961 
L 432.748177 179.692568 
L 433.652406 182.394765 
L 434.556636 175.533879 
L 435.460865 173.176643 
L 436.365095 174.70981 
L 437.269324 176.875396 
L 438.173554 177.411984 
L 439.077783 177.354491 
L 439.982013 173.751587 
L 440.886242 174.173194 
L 442.694701 180.478314 
L 443.59893 179.807549 
L 443.59893 179.807549 
" style="fill:none;stroke:#800080;stroke-linecap:square;stroke-width:1.5;"/>
   </g>
   <g id="line2d_28">
    <path clip-path="url(#p037ce573d1)" d="M 294.40107 166.780313 
L 295.305299 179.58872 
L 296.209528 168.754207 
L 297.113758 160.8805 
L 298.017987 175.224205 
L 298.922217 162.174516 
L 299.826446 168.512923 
L 300.730676 165.705639 
L 301.634905 170.114005 
L 302.539135 165.946868 
L 303.443364 165.17923 
L 304.347594 166.253925 
L 305.251823 163.731723 
L 306.156053 163.929089 
L 307.060282 170.048178 
L 307.964511 166.2978 
L 308.868741 167.745296 
L 309.77297 161.801693 
L 310.6772 158.138981 
L 312.485659 163.446589 
L 313.389888 165.815287 
L 314.294118 158.095115 
L 315.198347 170.640361 
L 316.102577 161.231444 
L 317.006806 161.121774 
L 317.911035 168.578729 
L 318.815265 173.623165 
L 319.719494 153.840239 
L 320.623724 169.258661 
L 321.527953 165.661775 
L 322.432183 161.450783 
L 323.336412 166.889961 
L 324.240642 162.65705 
L 325.144871 163.753645 
L 326.049101 162.591232 
L 326.95333 171.100942 
L 327.85756 165.025707 
L 328.761789 161.077919 
L 329.666018 164.762534 
L 330.570248 158.336378 
L 331.474477 157.656445 
L 332.378707 153.335837 
L 333.282936 158.950492 
L 334.187166 170.070142 
L 335.091395 162.415777 
L 335.995625 166.012675 
L 336.899854 152.655938 
L 337.804084 158.665367 
L 338.708313 159.761973 
L 339.612543 158.8189 
L 340.516772 166.297778 
L 341.421001 164.104578 
L 342.325231 170.530691 
L 343.22946 162.942153 
L 344.13369 174.69784 
L 345.037919 171.780842 
L 345.942149 183.4488 
L 346.846378 163.095698 
L 347.750608 164.674796 
L 348.654837 167.460202 
L 349.559067 173.952133 
L 350.463296 178.448249 
L 351.367526 171.561502 
L 352.271755 168.140102 
L 353.175984 167.284715 
L 354.080214 161.341092 
L 354.984443 159.520732 
L 355.888673 171.693135 
L 356.792902 165.83722 
L 357.697132 166.604847 
L 358.601361 170.201723 
L 359.505591 178.382475 
L 360.40982 164.016818 
L 361.31405 176.123435 
L 362.218279 165.793344 
L 363.122509 180.13705 
L 364.026738 172.65814 
L 364.930967 168.469081 
L 365.835197 175.246126 
L 366.739426 175.333886 
L 367.643656 172.636197 
L 368.547885 166.451302 
L 369.452115 169.390232 
L 370.356344 174.456567 
L 371.260574 171.122885 
L 372.164803 166.604826 
L 373.069033 171.737 
L 373.973262 170.311382 
L 374.877491 164.981875 
L 375.781721 165.288879 
L 376.68595 167.065407 
L 377.59018 164.981843 
L 378.494409 174.434646 
L 380.302868 155.06847 
L 381.207098 160.244455 
L 382.111327 154.783356 
L 383.015557 157.590682 
L 383.919786 153.116487 
L 384.824016 154.322784 
L 385.728245 145.067347 
L 386.632474 144.321642 
L 387.536704 143.861104 
L 388.440933 136.382195 
L 389.345163 133.180081 
L 390.249392 132.105417 
L 391.153622 127.302275 
L 392.057851 123.749242 
L 393.86631 107.826414 
L 394.77054 104.426919 
L 395.674769 97.079647 
L 396.578999 96.246229 
L 397.483228 99.535998 
L 398.387457 93.811703 
L 399.291687 90.719285 
L 400.195916 89.754253 
L 401.100146 83.240371 
L 402.004375 81.28841 
L 402.908605 75.62987 
L 403.812834 72.756725 
L 404.717064 66.988547 
L 405.621293 71.791765 
L 406.525523 62.865307 
L 407.429752 62.667877 
L 408.333982 67.098247 
L 409.238211 59.553526 
L 410.14244 64.181281 
L 411.04667 58.237606 
L 411.950899 66.484139 
L 412.855129 53.368662 
L 413.759358 52.293975 
L 414.663588 45.845891 
L 415.567817 51.921136 
L 416.472047 49.026103 
L 417.376276 56.395282 
L 418.280506 55.605739 
L 419.184735 51.219315 
L 420.088965 45.999394 
L 420.993194 53.017684 
L 421.897423 45.23173 
L 422.801653 42.731495 
L 423.705882 52.425572 
L 424.610112 47.578533 
L 425.514341 51.460567 
L 426.418571 41.020848 
L 427.3228 39.529395 
L 428.22703 38.871431 
L 429.131259 34.923626 
L 430.035489 42.643782 
L 430.939718 46.459999 
L 431.843947 48.258422 
L 432.748177 40.494418 
L 433.652406 33.848895 
L 434.556636 37.599421 
L 435.460865 45.122138 
L 436.365095 36.480833 
L 437.269324 42.863083 
L 438.173554 44.332568 
L 439.077783 42.380607 
L 439.982013 49.859512 
L 440.886242 43.126311 
L 441.790472 33.2568 
L 442.694701 35.735066 
L 443.59893 42.643809 
L 443.59893 42.643809 
" style="fill:none;stroke:#000000;stroke-linecap:square;stroke-width:1.5;"/>
   </g>
   <g id="patch_8">
    <path d="M 286.941176 190.9584 
L 286.941176 25.7472 
" style="fill:none;stroke:#000000;stroke-linecap:square;stroke-linejoin:miter;stroke-width:0.8;"/>
   </g>
   <g id="patch_9">
    <path d="M 451.058824 190.9584 
L 451.058824 25.7472 
" style="fill:none;stroke:#000000;stroke-linecap:square;stroke-linejoin:miter;stroke-width:0.8;"/>
   </g>
   <g id="patch_10">
    <path d="M 286.941176 190.9584 
L 451.058824 190.9584 
" style="fill:none;stroke:#000000;stroke-linecap:square;stroke-linejoin:miter;stroke-width:0.8;"/>
   </g>
   <g id="patch_11">
    <path d="M 286.941176 25.7472 
L 451.058824 25.7472 
" style="fill:none;stroke:#000000;stroke-linecap:square;stroke-linejoin:miter;stroke-width:0.8;"/>
   </g>
   <g id="text_22">
    <!-- FC -->
    <defs>
     <path d="M 9.8125 72.90625 
L 51.703125 72.90625 
L 51.703125 64.59375 
L 19.671875 64.59375 
L 19.671875 43.109375 
L 48.578125 43.109375 
L 48.578125 34.8125 
L 19.671875 34.8125 
L 19.671875 0 
L 9.8125 0 
z
" id="DejaVuSans-70"/>
     <path d="M 64.40625 67.28125 
L 64.40625 56.890625 
Q 59.421875 61.53125 53.78125 63.8125 
Q 48.140625 66.109375 41.796875 66.109375 
Q 29.296875 66.109375 22.65625 58.46875 
Q 16.015625 50.828125 16.015625 36.375 
Q 16.015625 21.96875 22.65625 14.328125 
Q 29.296875 6.6875 41.796875 6.6875 
Q 48.140625 6.6875 53.78125 8.984375 
Q 59.421875 11.28125 64.40625 15.921875 
L 64.40625 5.609375 
Q 59.234375 2.09375 53.4375 0.328125 
Q 47.65625 -1.421875 41.21875 -1.421875 
Q 24.65625 -1.421875 15.125 8.703125 
Q 5.609375 18.84375 5.609375 36.375 
Q 5.609375 53.953125 15.125 64.078125 
Q 24.65625 74.21875 41.21875 74.21875 
Q 47.75 74.21875 53.53125 72.484375 
Q 59.328125 70.75 64.40625 67.28125 
z
" id="DejaVuSans-67"/>
    </defs>
    <g transform="translate(361.359375 19.7472)scale(0.12 -0.12)">
     <use xlink:href="#DejaVuSans-70"/>
     <use x="57.519531" xlink:href="#DejaVuSans-67"/>
    </g>
   </g>
  </g>
  <g id="axes_3">
   <g id="patch_12">
    <path d="M 483.882353 190.9584 
L 648 190.9584 
L 648 25.7472 
L 483.882353 25.7472 
z
" style="fill:#ffffff;"/>
   </g>
   <g id="matplotlib.axis_5">
    <g id="xtick_9">
     <g id="line2d_29">
      <g>
       <use style="stroke:#000000;stroke-width:0.8;" x="498.900111" xlink:href="#m2a9610a23d" y="190.9584"/>
      </g>
     </g>
     <g id="text_23">
      <!-- −10 -->
      <g transform="translate(488.347768 205.556838)scale(0.1 -0.1)">
       <use xlink:href="#DejaVuSans-8722"/>
       <use x="83.789062" xlink:href="#DejaVuSans-49"/>
       <use x="147.412109" xlink:href="#DejaVuSans-48"/>
      </g>
     </g>
    </g>
    <g id="xtick_10">
     <g id="line2d_30">
      <g>
       <use style="stroke:#000000;stroke-width:0.8;" x="535.289834" xlink:href="#m2a9610a23d" y="190.9584"/>
      </g>
     </g>
     <g id="text_24">
      <!-- −5 -->
      <g transform="translate(527.91874 205.556838)scale(0.1 -0.1)">
       <use xlink:href="#DejaVuSans-8722"/>
       <use x="83.789062" xlink:href="#DejaVuSans-53"/>
      </g>
     </g>
    </g>
    <g id="xtick_11">
     <g id="line2d_31">
      <g>
       <use style="stroke:#000000;stroke-width:0.8;" x="571.679556" xlink:href="#m2a9610a23d" y="190.9584"/>
      </g>
     </g>
     <g id="text_25">
      <!-- 0 -->
      <g transform="translate(568.498306 205.556838)scale(0.1 -0.1)">
       <use xlink:href="#DejaVuSans-48"/>
      </g>
     </g>
    </g>
    <g id="xtick_12">
     <g id="line2d_32">
      <g>
       <use style="stroke:#000000;stroke-width:0.8;" x="608.069278" xlink:href="#m2a9610a23d" y="190.9584"/>
      </g>
     </g>
     <g id="text_26">
      <!-- 5 -->
      <g transform="translate(604.888028 205.556838)scale(0.1 -0.1)">
       <use xlink:href="#DejaVuSans-53"/>
      </g>
     </g>
    </g>
    <g id="xtick_13">
     <g id="line2d_33">
      <g>
       <use style="stroke:#000000;stroke-width:0.8;" x="644.459" xlink:href="#m2a9610a23d" y="190.9584"/>
      </g>
     </g>
     <g id="text_27">
      <!-- 10 -->
      <g transform="translate(638.0965 205.556838)scale(0.1 -0.1)">
       <use xlink:href="#DejaVuSans-49"/>
       <use x="63.623047" xlink:href="#DejaVuSans-48"/>
      </g>
     </g>
    </g>
   </g>
   <g id="matplotlib.axis_6">
    <g id="ytick_13">
     <g id="line2d_34">
      <g>
       <use style="stroke:#000000;stroke-width:0.8;" x="483.882353" xlink:href="#m3451cc8be0" y="183.4488"/>
      </g>
     </g>
     <g id="text_28">
      <!-- 0.0 -->
      <g transform="translate(460.979228 187.248019)scale(0.1 -0.1)">
       <use xlink:href="#DejaVuSans-48"/>
       <use x="63.623047" xlink:href="#DejaVuSans-46"/>
       <use x="95.410156" xlink:href="#DejaVuSans-48"/>
      </g>
     </g>
    </g>
    <g id="ytick_14">
     <g id="line2d_35">
      <g>
       <use style="stroke:#000000;stroke-width:0.8;" x="483.882353" xlink:href="#m3451cc8be0" y="153.4104"/>
      </g>
     </g>
     <g id="text_29">
      <!-- 0.2 -->
      <g transform="translate(460.979228 157.209619)scale(0.1 -0.1)">
       <use xlink:href="#DejaVuSans-48"/>
       <use x="63.623047" xlink:href="#DejaVuSans-46"/>
       <use x="95.410156" xlink:href="#DejaVuSans-50"/>
      </g>
     </g>
    </g>
    <g id="ytick_15">
     <g id="line2d_36">
      <g>
       <use style="stroke:#000000;stroke-width:0.8;" x="483.882353" xlink:href="#m3451cc8be0" y="123.372"/>
      </g>
     </g>
     <g id="text_30">
      <!-- 0.4 -->
      <g transform="translate(460.979228 127.171219)scale(0.1 -0.1)">
       <use xlink:href="#DejaVuSans-48"/>
       <use x="63.623047" xlink:href="#DejaVuSans-46"/>
       <use x="95.410156" xlink:href="#DejaVuSans-52"/>
      </g>
     </g>
    </g>
    <g id="ytick_16">
     <g id="line2d_37">
      <g>
       <use style="stroke:#000000;stroke-width:0.8;" x="483.882353" xlink:href="#m3451cc8be0" y="93.3336"/>
      </g>
     </g>
     <g id="text_31">
      <!-- 0.6 -->
      <g transform="translate(460.979228 97.132819)scale(0.1 -0.1)">
       <use xlink:href="#DejaVuSans-48"/>
       <use x="63.623047" xlink:href="#DejaVuSans-46"/>
       <use x="95.410156" xlink:href="#DejaVuSans-54"/>
      </g>
     </g>
    </g>
    <g id="ytick_17">
     <g id="line2d_38">
      <g>
       <use style="stroke:#000000;stroke-width:0.8;" x="483.882353" xlink:href="#m3451cc8be0" y="63.2952"/>
      </g>
     </g>
     <g id="text_32">
      <!-- 0.8 -->
      <g transform="translate(460.979228 67.094419)scale(0.1 -0.1)">
       <use xlink:href="#DejaVuSans-48"/>
       <use x="63.623047" xlink:href="#DejaVuSans-46"/>
       <use x="95.410156" xlink:href="#DejaVuSans-56"/>
      </g>
     </g>
    </g>
    <g id="ytick_18">
     <g id="line2d_39">
      <g>
       <use style="stroke:#000000;stroke-width:0.8;" x="483.882353" xlink:href="#m3451cc8be0" y="33.2568"/>
      </g>
     </g>
     <g id="text_33">
      <!-- 1.0 -->
      <g transform="translate(460.979228 37.056019)scale(0.1 -0.1)">
       <use xlink:href="#DejaVuSans-49"/>
       <use x="63.623047" xlink:href="#DejaVuSans-46"/>
       <use x="95.410156" xlink:href="#DejaVuSans-48"/>
      </g>
     </g>
    </g>
   </g>
   <g id="line2d_40">
    <path clip-path="url(#p4f58540471)" d="M 491.342246 178.752936 
L 492.017349 177.730456 
L 492.692453 181.706798 
L 493.367556 173.716244 
L 494.04266 183.4488 
L 494.717763 183.410935 
L 495.392867 178.147018 
L 496.06797 174.549378 
L 496.743074 173.867739 
L 497.418177 171.103215 
L 498.09328 173.299672 
L 498.768384 171.178972 
L 499.443487 172.731633 
L 500.118591 178.260626 
L 500.793694 173.034587 
L 501.468798 171.633394 
L 502.143901 173.640506 
L 502.819005 173.981329 
L 503.494108 161.52214 
L 504.169211 164.324507 
L 504.844315 161.522149 
L 505.519418 167.808538 
L 506.194522 164.13516 
L 506.869625 150.767081 
L 507.544729 162.582499 
L 508.219832 161.825094 
L 508.894936 153.607333 
L 509.570039 157.167096 
L 510.245142 153.683064 
L 510.920246 159.5529 
L 511.595349 150.161162 
L 512.270453 150.539864 
L 512.945556 148.646372 
L 513.62066 145.616771 
L 514.295763 153.720952 
L 514.970867 142.776543 
L 515.64597 145.12447 
L 516.321073 143.647569 
L 516.996177 151.978916 
L 517.67128 137.247522 
L 518.346384 142.05701 
L 519.021487 139.595467 
L 519.696591 141.034519 
L 520.371694 144.291335 
L 521.046797 148.646361 
L 522.397004 127.212015 
L 523.072108 139.216765 
L 523.747211 138.648724 
L 525.097418 133.612022 
L 525.772522 135.202562 
L 526.447625 134.483038 
L 527.122728 137.739863 
L 527.797832 130.05227 
L 528.472935 129.332719 
L 529.148039 129.749298 
L 529.823142 140.580086 
L 530.498246 135.467648 
L 531.173349 136.149323 
L 531.848453 139.254655 
L 532.523556 131.415565 
L 533.198659 138.307885 
L 533.873763 136.111446 
L 534.548866 144.972991 
L 535.22397 125.886566 
L 535.899073 135.429785 
L 536.574177 132.210833 
L 537.24928 139.89843 
L 537.924384 145.844017 
L 538.599487 135.884209 
L 539.27459 142.397832 
L 539.949694 144.518563 
L 540.624797 137.626256 
L 541.299901 141.413231 
L 541.975004 142.473598 
L 542.650108 144.556421 
L 543.325211 139.784823 
L 544.000315 144.745795 
L 544.675418 140.012059 
L 545.350521 140.958798 
L 546.025625 148.305537 
L 546.700728 138.232154 
L 548.050935 150.085442 
L 548.726039 144.291326 
L 549.401142 149.062933 
L 550.076246 147.283058 
L 550.751349 153.34224 
L 551.426452 153.493717 
L 552.101556 157.621547 
L 552.776659 154.440469 
L 553.451763 155.008518 
L 554.126866 156.106746 
L 554.80197 158.568287 
L 555.477073 164.703219 
L 556.152177 155.690183 
L 556.82728 163.377756 
L 557.502383 157.886631 
L 558.177487 149.555254 
L 558.85259 151.524495 
L 559.527694 149.971824 
L 560.202797 155.576567 
L 560.877901 153.30437 
L 561.553004 154.81918 
L 562.228108 146.942243 
L 562.903211 143.268866 
L 563.578314 144.7079 
L 564.253418 131.870016 
L 564.928521 130.923264 
L 565.603625 136.982467 
L 566.278728 130.506685 
L 566.953832 133.081863 
L 567.628935 130.69605 
L 568.304039 137.36116 
L 568.979142 126.984792 
L 569.654245 131.491331 
L 570.329349 120.88774 
L 571.004452 127.969411 
L 571.679556 124.523267 
L 572.354659 116.078274 
L 573.029763 123.084206 
L 573.704866 114.374117 
L 574.37997 112.101939 
L 575.055073 105.361075 
L 575.730176 110.814357 
L 576.40528 103.922045 
L 577.080383 111.798976 
L 577.755487 99.453369 
L 578.43059 107.027391 
L 579.105694 103.694795 
L 579.780797 104.414341 
L 580.455901 108.769383 
L 581.131004 104.262871 
L 581.806107 102.293624 
L 582.481211 101.952807 
L 583.156314 96.878223 
L 583.831418 97.976454 
L 584.506521 105.323225 
L 585.181625 102.445085 
L 585.856728 92.901906 
L 586.531831 88.698339 
L 587.206935 86.501904 
L 587.882038 99.074676 
L 588.557142 92.826189 
L 589.232245 93.166997 
L 589.907349 89.455726 
L 590.582452 80.594181 
L 591.257556 84.305443 
L 591.932659 81.46517 
L 592.607762 79.268736 
L 593.282866 74.156285 
L 593.957969 87.903085 
L 594.633073 78.738545 
L 595.308176 83.964599 
L 595.98328 69.19533 
L 596.658383 82.449816 
L 597.333487 80.897148 
L 598.00859 71.505395 
L 598.683693 76.352764 
L 599.358797 74.913707 
L 600.0339 80.366949 
L 600.709004 64.348024 
L 601.384107 79.685333 
L 602.059211 69.952753 
L 602.734314 72.603625 
L 603.409418 69.081746 
L 604.084521 75.519633 
L 604.759624 62.378803 
L 605.434728 62.946817 
L 606.109831 57.531416 
L 606.784935 73.701874 
L 608.135142 58.629629 
L 609.485349 69.536174 
L 610.160452 60.598885 
L 610.835555 65.521972 
L 611.510659 62.000065 
L 612.185762 59.917206 
L 612.860866 66.620202 
L 613.535969 64.726681 
L 614.211073 55.032023 
L 614.886176 63.514875 
L 615.56128 55.221352 
L 616.236383 67.529059 
L 616.911486 52.494709 
L 617.58659 55.372831 
L 618.261693 67.263942 
L 618.936797 59.424901 
L 619.6119 45.981113 
L 620.287004 60.182288 
L 620.962107 52.115998 
L 621.637211 55.372849 
L 622.312314 54.804791 
L 622.987417 52.608312 
L 623.662521 53.971606 
L 624.337624 61.394157 
L 625.012728 48.707738 
L 625.687831 50.487612 
L 626.362935 35.907726 
L 627.038038 51.472213 
L 627.713142 50.108937 
L 628.388245 53.17637 
L 629.063348 43.784652 
L 629.738452 48.442657 
L 630.413555 51.472231 
L 631.088659 49.389363 
L 631.763762 52.646179 
L 632.438866 42.118408 
L 633.113969 51.661596 
L 633.789073 38.823716 
L 634.464176 38.21779 
L 635.139279 41.70182 
L 635.814383 43.178744 
L 636.489486 40.792945 
L 637.16459 50.033183 
L 637.839693 45.223691 
L 638.514797 33.2568 
L 639.1899 34.69583 
L 639.865004 45.110079 
L 640.540107 42.762129 
L 640.540107 42.762129 
" style="fill:none;stroke:#ff0000;stroke-linecap:square;stroke-width:1.5;"/>
   </g>
   <g id="line2d_41">
    <path clip-path="url(#p4f58540471)" d="M 491.342246 174.40833 
L 492.017349 174.107886 
L 492.692453 172.141386 
L 493.367556 173.397763 
L 494.04266 173.588948 
L 494.717763 174.299075 
L 495.392867 171.540505 
L 496.06797 176.62065 
L 496.743074 174.599519 
L 497.418177 177.767778 
L 498.09328 173.670885 
L 498.768384 176.101709 
L 499.443487 174.025949 
L 500.118591 176.620646 
L 500.793694 174.08058 
L 501.468798 175.965151 
L 502.143901 173.397759 
L 502.819005 169.055056 
L 503.494108 175.801268 
L 504.169211 176.210961 
L 504.844315 174.927271 
L 505.519418 178.013588 
L 506.194522 176.320209 
L 506.869625 180.471727 
L 508.219832 176.374833 
L 508.894936 178.942222 
L 509.570039 178.040907 
L 510.245142 174.572203 
L 510.920246 177.057651 
L 511.595349 177.358092 
L 512.270453 177.08496 
L 512.945556 175.801268 
L 513.62066 175.091145 
L 514.295763 175.036514 
L 514.970867 179.324596 
L 515.64597 176.866459 
L 516.321073 178.013591 
L 516.996177 176.811835 
L 517.67128 178.778342 
L 518.346384 180.362469 
L 519.021487 177.057655 
L 519.696591 182.574795 
L 520.371694 175.364269 
L 521.046797 178.177471 
L 521.721901 180.307844 
L 522.397004 180.96335 
L 523.072108 176.53871 
L 523.747211 176.811835 
L 524.422315 177.440029 
L 525.097418 176.538714 
L 525.772522 177.849712 
L 526.447625 175.664707 
L 527.122728 177.631214 
L 527.797832 178.477908 
L 528.472935 183.4488 
L 529.148039 177.194209 
L 529.823142 175.610086 
L 530.498246 178.150149 
L 531.173349 175.336957 
L 531.848453 177.849718 
L 532.523556 177.521965 
L 533.198659 174.217141 
L 533.873763 176.265585 
L 534.548866 176.811835 
L 535.22397 179.706976 
L 535.899073 177.904339 
L 536.574177 179.406529 
L 537.24928 177.112269 
L 537.924384 175.692022 
L 538.599487 177.057655 
L 539.27459 177.112269 
L 539.949694 176.156333 
L 540.624797 178.395968 
L 541.299901 176.156333 
L 541.975004 176.784526 
L 542.650108 178.122843 
L 543.325211 173.971322 
L 544.000315 175.965144 
L 544.675418 180.116656 
L 545.350521 180.744849 
L 546.025625 172.687633 
L 546.700728 175.801271 
L 547.375832 172.824203 
L 548.050935 174.87264 
L 548.726039 174.790704 
L 549.401142 174.899953 
L 550.751349 169.710555 
L 551.426452 170.529937 
L 552.101556 170.666505 
L 552.776659 169.109684 
L 553.451763 169.300872 
L 554.126866 166.433053 
L 554.80197 168.290298 
L 555.477073 159.878026 
L 556.152177 167.225119 
L 556.82728 158.730894 
L 557.502383 157.529143 
L 558.177487 152.74945 
L 558.85259 153.678064 
L 561.553004 133.548685 
L 562.228108 132.264989 
L 562.903211 128.932854 
L 563.578314 124.863274 
L 564.253418 122.541706 
L 564.928521 119.318805 
L 565.603625 119.182267 
L 566.278728 113.446608 
L 566.953832 112.70918 
L 567.628935 113.364678 
L 568.304039 105.03434 
L 568.979142 104.515402 
L 569.654245 99.899562 
L 570.329349 93.672274 
L 571.004452 91.56921 
L 571.679556 82.719929 
L 572.354659 85.06881 
L 573.029763 78.978114 
L 573.704866 78.923488 
L 574.37997 79.93405 
L 575.055073 73.242468 
L 575.730176 71.90415 
L 576.40528 70.838943 
L 577.080383 67.506831 
L 577.755487 69.282148 
L 578.43059 68.981705 
L 579.105694 65.431054 
L 579.780797 66.359695 
L 580.455901 62.535922 
L 581.131004 61.252212 
L 581.806107 61.279552 
L 582.481211 59.886599 
L 583.156314 55.76241 
L 583.831418 56.882207 
L 584.506521 55.680471 
L 585.181625 54.014415 
L 585.856728 56.172078 
L 586.531831 56.445226 
L 587.206935 56.035495 
L 587.882038 55.844331 
L 588.557142 51.774769 
L 589.232245 50.463737 
L 589.907349 51.419709 
L 590.582452 49.671696 
L 591.257556 49.944826 
L 592.607762 52.894592 
L 593.957969 49.070819 
L 594.633073 48.169491 
L 595.308176 50.518336 
L 595.98328 51.283144 
L 596.658383 50.135981 
L 597.333487 47.787091 
L 598.00859 49.016193 
L 598.683693 46.066436 
L 599.358797 46.148348 
L 600.0339 42.570383 
L 600.709004 46.394183 
L 601.384107 44.782726 
L 602.059211 44.318405 
L 602.734314 44.89196 
L 603.409418 41.751066 
L 604.084521 43.608304 
L 604.759624 40.631224 
L 605.434728 43.608286 
L 606.109831 48.388004 
L 607.460038 40.030366 
L 608.135142 43.007418 
L 608.810245 44.017989 
L 609.485349 38.855916 
L 610.160452 41.996847 
L 610.835555 36.780139 
L 611.510659 40.439998 
L 612.185762 40.603911 
L 612.860866 37.981883 
L 614.211073 40.139627 
L 614.886176 33.857721 
L 615.56128 37.599519 
L 616.236383 37.107895 
L 617.58659 40.440025 
L 618.261693 34.786309 
L 618.936797 40.303478 
L 619.6119 42.297307 
L 620.287004 35.687646 
L 620.962107 39.074411 
L 621.637211 41.832996 
L 622.312314 36.097305 
L 622.987417 35.98808 
L 623.662521 39.948418 
L 624.337624 33.2568 
L 625.012728 36.752835 
L 625.687831 39.456775 
L 626.362935 44.400353 
L 627.038038 37.189834 
L 627.713142 37.408328 
L 628.388245 34.403936 
L 629.063348 39.593376 
L 629.738452 36.124663 
L 630.413555 37.244433 
L 631.088659 36.998625 
L 631.763762 37.271781 
L 632.438866 37.299094 
L 633.113969 40.767771 
L 633.789073 39.729905 
L 634.464176 39.839139 
L 635.139279 35.196022 
L 635.814383 37.189834 
L 636.489486 37.299094 
L 637.16459 35.851506 
L 637.839693 35.769576 
L 638.514797 37.299068 
L 639.1899 39.32021 
L 639.865004 34.021563 
L 640.540107 35.660342 
L 640.540107 35.660342 
" style="fill:none;stroke:#0000ff;stroke-linecap:square;stroke-width:1.5;"/>
   </g>
   <g id="line2d_42">
    <path clip-path="url(#p4f58540471)" d="M 491.342246 44.361438 
L 492.017349 47.486371 
L 492.692453 47.542152 
L 493.367556 43.412807 
L 494.04266 43.217507 
L 494.717763 43.859196 
L 495.392867 42.045645 
L 496.06797 39.25554 
L 496.743074 41.23647 
L 497.418177 40.511051 
L 498.09328 40.204172 
L 498.768384 38.474296 
L 499.443487 39.59035 
L 500.118591 38.557971 
L 500.793694 38.92073 
L 501.468798 43.07797 
L 502.819005 35.600488 
L 503.494108 39.785659 
L 504.169211 38.111582 
L 504.844315 38.083687 
L 505.519418 33.2568 
L 506.869625 37.107107 
L 507.544729 35.767867 
L 508.219832 41.320172 
L 508.894936 40.287874 
L 509.570039 36.298012 
L 510.245142 36.074773 
L 510.920246 39.143889 
L 511.595349 35.014544 
L 512.270453 40.092538 
L 512.945556 39.646095 
L 513.62066 38.530094 
L 514.970867 34.317002 
L 515.64597 37.581445 
L 516.321073 39.004379 
L 516.996177 38.72543 
L 517.67128 41.822414 
L 518.346384 39.422945 
L 519.021487 36.270109 
L 519.696591 43.022198 
L 520.371694 40.232066 
L 522.397004 41.069065 
L 523.072108 39.060213 
L 524.422315 37.94415 
L 525.772522 42.715265 
L 526.447625 39.618254 
L 527.122728 38.641701 
L 527.797832 34.847139 
L 528.472935 39.590323 
L 529.148039 43.273279 
L 529.823142 38.697526 
L 530.498246 39.953064 
L 531.173349 39.171811 
L 531.848453 39.674026 
L 532.523556 39.032336 
L 533.198659 38.055756 
L 533.873763 41.013266 
L 534.548866 38.697473 
L 535.22397 40.232066 
L 535.899073 38.530094 
L 536.574177 40.678483 
L 537.24928 37.581472 
L 537.924384 41.655009 
L 538.599487 38.251092 
L 539.27459 43.050075 
L 539.949694 41.738739 
L 540.624797 41.571307 
L 541.299901 42.240954 
L 541.975004 44.445168 
L 542.650108 45.05898 
L 543.325211 41.822414 
L 544.000315 41.041188 
L 544.675418 47.067832 
L 545.350521 44.584642 
L 546.025625 45.114752 
L 546.700728 45.9239 
L 547.375832 40.873783 
L 548.726039 46.733057 
L 549.401142 44.138199 
L 550.076246 46.286614 
L 550.751349 45.672802 
L 551.426452 43.552317 
L 552.101556 46.816724 
L 552.776659 46.426115 
L 553.451763 45.756504 
L 554.126866 48.490828 
L 554.80197 48.295492 
L 555.477073 47.542179 
L 556.152177 48.853506 
L 556.82728 51.336732 
L 558.177487 57.726089 
L 558.85259 57.893521 
L 559.527694 61.436993 
L 560.202797 65.90114 
L 560.877901 63.724856 
L 561.553004 66.57076 
L 562.228108 72.569509 
L 562.903211 74.662089 
L 564.253418 80.381854 
L 564.928521 78.791488 
L 565.603625 82.697647 
L 566.278728 89.81246 
L 566.953832 89.114927 
L 567.628935 89.310245 
L 568.304039 90.286771 
L 568.979142 91.877155 
L 569.654245 105.046497 
L 570.329349 104.153664 
L 571.004452 111.826486 
L 571.679556 109.59439 
L 572.354659 115.090911 
L 573.029763 116.988205 
L 573.704866 119.778314 
L 574.37997 119.387688 
L 575.055073 119.304003 
L 575.730176 125.442249 
L 576.40528 126.418793 
L 577.080383 127.730165 
L 577.755487 126.976825 
L 578.43059 128.037072 
L 579.105694 133.338288 
L 579.780797 137.551371 
L 580.455901 137.941975 
L 581.131004 134.538036 
L 581.806107 147.651606 
L 582.481211 140.983219 
L 583.156314 139.281247 
L 583.831418 142.322468 
L 584.506521 146.089124 
L 585.181625 147.9027 
L 585.856728 141.652844 
L 586.531831 150.664921 
L 587.206935 150.664921 
L 587.882038 153.929351 
L 588.557142 148.68394 
L 589.232245 152.729605 
L 589.907349 157.919233 
L 590.582452 152.729618 
L 591.257556 156.440464 
L 591.932659 162.801932 
L 592.607762 162.941442 
L 593.282866 157.863432 
L 593.957969 159.621198 
L 594.633073 164.559707 
L 595.308176 167.768347 
L 595.98328 164.615514 
L 596.658383 167.963652 
L 597.333487 165.508338 
L 598.00859 167.321921 
L 598.683693 169.581919 
L 599.358797 161.378966 
L 600.0339 162.216003 
L 600.709004 169.163405 
L 601.384107 173.822905 
L 602.059211 170.223647 
L 602.734314 170.251547 
L 603.409418 163.61106 
L 604.084521 175.329566 
L 604.759624 173.348582 
L 605.434728 171.95352 
L 606.109831 173.013766 
L 606.784935 175.134254 
L 607.460038 172.511542 
L 608.135142 177.115238 
L 608.810245 176.138691 
L 609.485349 176.306102 
L 610.160452 176.054992 
L 610.835555 175.999187 
L 611.510659 176.640911 
L 612.185762 175.245857 
L 612.860866 176.613014 
L 613.535969 181.551525 
L 614.211073 180.658684 
L 614.886176 176.054992 
L 615.56128 176.250301 
L 616.236383 180.351769 
L 616.911486 178.789307 
L 617.58659 182.555969 
L 618.261693 180.212265 
L 618.936797 175.85969 
L 619.6119 179.096218 
L 620.287004 181.579426 
L 620.962107 178.231288 
L 621.637211 176.892032 
L 622.312314 178.203388 
L 622.987417 175.915488 
L 623.662521 178.928814 
L 624.337624 179.682148 
L 625.012728 174.018203 
L 625.687831 176.975724 
L 626.362935 180.937702 
L 627.038038 182.165345 
L 627.713142 179.793751 
L 628.388245 176.36191 
L 629.063348 179.319428 
L 629.738452 179.179924 
L 630.413555 176.278205 
L 631.088659 179.235732 
L 631.763762 177.143139 
L 632.438866 179.319428 
L 633.113969 183.4488 
L 633.789073 173.320681 
L 634.464176 178.984619 
L 635.139279 173.236969 
L 635.814383 174.966852 
L 636.489486 174.994747 
L 637.16459 179.961152 
L 637.839693 179.068311 
L 638.514797 179.403137 
L 639.1899 177.282639 
L 639.865004 181.049301 
L 640.540107 177.477954 
L 640.540107 177.477954 
" style="fill:none;stroke:#800080;stroke-linecap:square;stroke-width:1.5;"/>
   </g>
   <g id="line2d_43">
    <path clip-path="url(#p4f58540471)" d="M 491.342246 128.976858 
L 492.017349 133.8996 
L 492.692453 126.724625 
L 493.367556 127.657689 
L 494.04266 126.177645 
L 494.717763 131.711715 
L 495.392867 129.523821 
L 496.06797 119.517462 
L 497.418177 128.108129 
L 498.768384 118.713072 
L 499.443487 116.782597 
L 500.118591 115.592137 
L 500.793694 110.283289 
L 501.468798 108.224077 
L 502.143901 108.996302 
L 502.819005 111.152014 
L 503.494108 108.159738 
L 504.169211 104.009185 
L 504.844315 107.033639 
L 505.519418 95.611567 
L 506.194522 98.410776 
L 506.869625 98.02467 
L 507.544729 100.630853 
L 508.219832 102.207397 
L 508.894936 99.247327 
L 509.570039 102.593512 
L 510.245142 97.70293 
L 510.920246 91.718424 
L 511.595349 98.346428 
L 512.270453 93.391508 
L 512.945556 102.303937 
L 513.62066 99.665598 
L 514.295763 89.337477 
L 514.970867 96.448118 
L 515.64597 98.410767 
L 516.321073 99.086439 
L 516.996177 96.319422 
L 517.67128 100.888245 
L 518.346384 103.623115 
L 519.021487 100.148226 
L 519.696591 93.488048 
L 520.371694 101.27436 
L 521.046797 93.005429 
L 521.721901 92.780193 
L 522.397004 104.298769 
L 523.072108 100.663027 
L 523.747211 104.749214 
L 524.422315 98.925569 
L 525.772522 97.895992 
L 526.447625 103.944855 
L 527.122728 99.794294 
L 527.797832 101.145646 
L 529.148039 105.746635 
L 529.823142 94.549798 
L 530.498246 105.13532 
L 531.173349 107.226674 
L 531.848453 103.655298 
L 532.523556 105.038807 
L 533.198659 113.307716 
L 533.873763 106.808395 
L 534.548866 105.971862 
L 535.22397 115.109509 
L 535.899073 114.369485 
L 536.574177 107.741485 
L 537.24928 110.572868 
L 537.924384 107.001447 
L 538.599487 119.195727 
L 539.27459 107.548432 
L 539.949694 112.953798 
L 540.624797 120.836641 
L 541.299901 113.243381 
L 541.975004 123.41061 
L 542.650108 105.360538 
L 543.325211 114.691242 
L 544.000315 115.109509 
L 544.675418 117.908713 
L 545.350521 118.166132 
L 546.025625 121.54446 
L 546.700728 127.561167 
L 547.375832 119.324423 
L 548.726039 123.700185 
L 549.401142 123.37844 
L 550.076246 121.287063 
L 550.751349 125.791552 
L 551.426452 124.247156 
L 552.776659 136.795336 
L 553.451763 136.859675 
L 554.126866 142.136367 
L 554.80197 137.696226 
L 555.477073 138.114496 
L 557.502383 149.053939 
L 558.177487 143.68075 
L 558.85259 149.182635 
L 559.527694 152.110553 
L 560.202797 149.05393 
L 560.877901 156.3898 
L 561.553004 161.409064 
L 562.228108 161.923861 
L 562.903211 163.59694 
L 563.578314 165.913531 
L 564.253418 171.093674 
L 564.928521 163.918691 
L 565.603625 161.698641 
L 566.953832 180.617417 
L 567.628935 174.858132 
L 568.304039 167.811847 
L 568.979142 175.083356 
L 569.654245 162.470832 
L 570.329349 180.327852 
L 571.004452 174.439862 
L 571.679556 173.249384 
L 572.354659 183.352277 
L 573.029763 180.810471 
L 573.704866 181.679185 
L 574.37997 175.179883 
L 575.055073 170.900625 
L 575.730176 183.4488 
L 576.40528 180.778296 
L 577.080383 164.401323 
L 577.755487 175.726846 
L 578.43059 174.43987 
L 579.780797 179.652184 
L 580.455901 169.838868 
L 581.131004 168.648391 
L 581.806107 156.61502 
L 582.481211 171.737172 
L 583.156314 161.344716 
L 583.831418 157.226323 
L 584.506521 154.427128 
L 585.181625 156.486322 
L 585.856728 151.467042 
L 586.531831 148.571315 
L 587.206935 147.606062 
L 587.882038 139.272796 
L 588.557142 150.598328 
L 589.232245 135.637036 
L 589.907349 129.588178 
L 590.582452 127.207239 
L 591.257556 135.186596 
L 591.932659 139.047578 
L 593.282866 122.381019 
L 593.957969 126.113297 
L 594.633073 123.314083 
L 595.308176 123.314079 
L 595.98328 120.386192 
L 596.658383 112.085091 
L 597.333487 107.484066 
L 598.00859 113.565126 
L 598.683693 111.57028 
L 599.358797 105.038789 
L 600.0339 109.478926 
L 600.709004 112.632049 
L 601.384107 96.769876 
L 602.059211 100.695201 
L 602.734314 97.70293 
L 603.409418 102.175223 
L 604.084521 94.968078 
L 604.759624 101.982179 
L 605.434728 96.673354 
L 606.109831 89.015737 
L 606.784935 73.34659 
L 607.460038 89.015719 
L 608.135142 82.838178 
L 608.810245 80.585945 
L 609.485349 83.352962 
L 610.160452 82.41988 
L 610.835555 85.669561 
L 611.510659 78.848478 
L 612.185762 81.422487 
L 612.860866 82.291211 
L 613.535969 73.185738 
L 614.211073 72.156144 
L 614.886176 74.247525 
L 615.56128 83.899947 
L 616.911486 72.767423 
L 617.58659 76.789306 
L 618.261693 77.239769 
L 618.936797 70.772653 
L 619.6119 74.858804 
L 620.287004 64.273309 
L 620.962107 64.562884 
L 621.637211 65.656827 
L 622.312314 54.87827 
L 622.987417 61.474127 
L 623.662521 59.189693 
L 624.337624 63.919377 
L 625.012728 61.120186 
L 625.687831 61.345422 
L 626.362935 68.938664 
L 627.038038 61.4741 
L 627.713142 62.407173 
L 628.388245 51.178162 
L 629.063348 56.293988 
L 629.738452 50.792083 
L 630.413555 54.395651 
L 631.088659 56.197449 
L 631.763762 54.910444 
L 632.438866 51.628634 
L 633.789073 35.927331 
L 634.464176 48.797242 
L 635.139279 34.318587 
L 635.814383 42.201367 
L 636.489486 42.651839 
L 637.16459 42.008359 
L 638.514797 35.862938 
L 639.1899 44.839742 
L 640.540107 33.2568 
L 640.540107 33.2568 
" style="fill:none;stroke:#000000;stroke-linecap:square;stroke-width:1.5;"/>
   </g>
   <g id="patch_13">
    <path d="M 483.882353 190.9584 
L 483.882353 25.7472 
" style="fill:none;stroke:#000000;stroke-linecap:square;stroke-linejoin:miter;stroke-width:0.8;"/>
   </g>
   <g id="patch_14">
    <path d="M 648 190.9584 
L 648 25.7472 
" style="fill:none;stroke:#000000;stroke-linecap:square;stroke-linejoin:miter;stroke-width:0.8;"/>
   </g>
   <g id="patch_15">
    <path d="M 483.882353 190.9584 
L 648 190.9584 
" style="fill:none;stroke:#000000;stroke-linecap:square;stroke-linejoin:miter;stroke-width:0.8;"/>
   </g>
   <g id="patch_16">
    <path d="M 483.882353 25.7472 
L 648 25.7472 
" style="fill:none;stroke:#000000;stroke-linecap:square;stroke-linejoin:miter;stroke-width:0.8;"/>
   </g>
   <g id="text_34">
    <!-- VC -->
    <defs>
     <path d="M 28.609375 0 
L 0.78125 72.90625 
L 11.078125 72.90625 
L 34.1875 11.53125 
L 57.328125 72.90625 
L 67.578125 72.90625 
L 39.796875 0 
z
" id="DejaVuSans-86"/>
    </defs>
    <g transform="translate(557.647114 19.7472)scale(0.12 -0.12)">
     <use xlink:href="#DejaVuSans-86"/>
     <use x="68.408203" xlink:href="#DejaVuSans-67"/>
    </g>
   </g>
  </g>
 </g>
 <defs>
  <clipPath id="p2be32ee0e3">
   <rect height="165.2112" width="164.117647" x="90" y="25.7472"/>
  </clipPath>
  <clipPath id="p037ce573d1">
   <rect height="165.2112" width="164.117647" x="286.941176" y="25.7472"/>
  </clipPath>
  <clipPath id="p4f58540471">
   <rect height="165.2112" width="164.117647" x="483.882353" y="25.7472"/>
  </clipPath>
 </defs>
</svg>
