<?xml version="1.0" encoding="utf-8" standalone="no"?>
<!DOCTYPE svg PUBLIC "-//W3C//DTD SVG 1.1//EN"
  "http://www.w3.org/Graphics/SVG/1.1/DTD/svg11.dtd">
<!-- Created with matplotlib (http://matplotlib.org/) -->
<svg height="358.56pt" version="1.1" viewBox="0 0 432 358.56" width="432pt" xmlns="http://www.w3.org/2000/svg" xmlns:xlink="http://www.w3.org/1999/xlink">
 <defs>
  <style type="text/css">
*{stroke-linecap:butt;stroke-linejoin:round;}
  </style>
 </defs>
 <g id="figure_1">
  <g id="patch_1">
   <path d="M 0 358.56 
L 432 358.56 
L 432 0 
L 0 0 
z
" style="fill:#ffffff;"/>
  </g>
  <g id="axes_1">
   <g id="patch_2">
    <path d="M 33.64 330.79152 
L 410.175 330.79152 
L 410.175 25.33824 
L 33.64 25.33824 
z
" style="fill:#ffffff;"/>
   </g>
   <g id="matplotlib.axis_1">
    <g id="xtick_1">
     <g id="line2d_1">
      <defs>
       <path d="M 0 0 
L 0 3.5 
" id="m8b309a5638" style="stroke:#000000;stroke-width:0.8;"/>
      </defs>
      <g>
       <use style="stroke:#000000;stroke-width:0.8;" x="33.64" xlink:href="#m8b309a5638" y="330.79152"/>
      </g>
     </g>
     <g id="text_1">
      <!-- 0.0 -->
      <defs>
       <path d="M 31.78125 66.40625 
Q 24.171875 66.40625 20.328125 58.90625 
Q 16.5 51.421875 16.5 36.375 
Q 16.5 21.390625 20.328125 13.890625 
Q 24.171875 6.390625 31.78125 6.390625 
Q 39.453125 6.390625 43.28125 13.890625 
Q 47.125 21.390625 47.125 36.375 
Q 47.125 51.421875 43.28125 58.90625 
Q 39.453125 66.40625 31.78125 66.40625 
z
M 31.78125 74.21875 
Q 44.046875 74.21875 50.515625 64.515625 
Q 56.984375 54.828125 56.984375 36.375 
Q 56.984375 17.96875 50.515625 8.265625 
Q 44.046875 -1.421875 31.78125 -1.421875 
Q 19.53125 -1.421875 13.0625 8.265625 
Q 6.59375 17.96875 6.59375 36.375 
Q 6.59375 54.828125 13.0625 64.515625 
Q 19.53125 74.21875 31.78125 74.21875 
z
" id="DejaVuSans-30"/>
       <path d="M 10.6875 12.40625 
L 21 12.40625 
L 21 0 
L 10.6875 0 
z
" id="DejaVuSans-2e"/>
      </defs>
      <g transform="translate(25.688438 345.389958)scale(0.1 -0.1)">
       <use xlink:href="#DejaVuSans-30"/>
       <use x="63.623047" xlink:href="#DejaVuSans-2e"/>
       <use x="95.410156" xlink:href="#DejaVuSans-30"/>
      </g>
     </g>
    </g>
    <g id="xtick_2">
     <g id="line2d_2">
      <g>
       <use style="stroke:#000000;stroke-width:0.8;" x="80.706875" xlink:href="#m8b309a5638" y="330.79152"/>
      </g>
     </g>
     <g id="text_2">
      <!-- 2.5 -->
      <defs>
       <path d="M 19.1875 8.296875 
L 53.609375 8.296875 
L 53.609375 0 
L 7.328125 0 
L 7.328125 8.296875 
Q 12.9375 14.109375 22.625 23.890625 
Q 32.328125 33.6875 34.8125 36.53125 
Q 39.546875 41.84375 41.421875 45.53125 
Q 43.3125 49.21875 43.3125 52.78125 
Q 43.3125 58.59375 39.234375 62.25 
Q 35.15625 65.921875 28.609375 65.921875 
Q 23.96875 65.921875 18.8125 64.3125 
Q 13.671875 62.703125 7.8125 59.421875 
L 7.8125 69.390625 
Q 13.765625 71.78125 18.9375 73 
Q 24.125 74.21875 28.421875 74.21875 
Q 39.75 74.21875 46.484375 68.546875 
Q 53.21875 62.890625 53.21875 53.421875 
Q 53.21875 48.921875 51.53125 44.890625 
Q 49.859375 40.875 45.40625 35.40625 
Q 44.1875 33.984375 37.640625 27.21875 
Q 31.109375 20.453125 19.1875 8.296875 
z
" id="DejaVuSans-32"/>
       <path d="M 10.796875 72.90625 
L 49.515625 72.90625 
L 49.515625 64.59375 
L 19.828125 64.59375 
L 19.828125 46.734375 
Q 21.96875 47.46875 24.109375 47.828125 
Q 26.265625 48.1875 28.421875 48.1875 
Q 40.625 48.1875 47.75 41.5 
Q 54.890625 34.8125 54.890625 23.390625 
Q 54.890625 11.625 47.5625 5.09375 
Q 40.234375 -1.421875 26.90625 -1.421875 
Q 22.3125 -1.421875 17.546875 -0.640625 
Q 12.796875 0.140625 7.71875 1.703125 
L 7.71875 11.625 
Q 12.109375 9.234375 16.796875 8.0625 
Q 21.484375 6.890625 26.703125 6.890625 
Q 35.15625 6.890625 40.078125 11.328125 
Q 45.015625 15.765625 45.015625 23.390625 
Q 45.015625 31 40.078125 35.4375 
Q 35.15625 39.890625 26.703125 39.890625 
Q 22.75 39.890625 18.8125 39.015625 
Q 14.890625 38.140625 10.796875 36.28125 
z
" id="DejaVuSans-35"/>
      </defs>
      <g transform="translate(72.755313 345.389958)scale(0.1 -0.1)">
       <use xlink:href="#DejaVuSans-32"/>
       <use x="63.623047" xlink:href="#DejaVuSans-2e"/>
       <use x="95.410156" xlink:href="#DejaVuSans-35"/>
      </g>
     </g>
    </g>
    <g id="xtick_3">
     <g id="line2d_3">
      <g>
       <use style="stroke:#000000;stroke-width:0.8;" x="127.77375" xlink:href="#m8b309a5638" y="330.79152"/>
      </g>
     </g>
     <g id="text_3">
      <!-- 5.0 -->
      <g transform="translate(119.822188 345.389958)scale(0.1 -0.1)">
       <use xlink:href="#DejaVuSans-35"/>
       <use x="63.623047" xlink:href="#DejaVuSans-2e"/>
       <use x="95.410156" xlink:href="#DejaVuSans-30"/>
      </g>
     </g>
    </g>
    <g id="xtick_4">
     <g id="line2d_4">
      <g>
       <use style="stroke:#000000;stroke-width:0.8;" x="174.840625" xlink:href="#m8b309a5638" y="330.79152"/>
      </g>
     </g>
     <g id="text_4">
      <!-- 7.5 -->
      <defs>
       <path d="M 8.203125 72.90625 
L 55.078125 72.90625 
L 55.078125 68.703125 
L 28.609375 0 
L 18.3125 0 
L 43.21875 64.59375 
L 8.203125 64.59375 
z
" id="DejaVuSans-37"/>
      </defs>
      <g transform="translate(166.889063 345.389958)scale(0.1 -0.1)">
       <use xlink:href="#DejaVuSans-37"/>
       <use x="63.623047" xlink:href="#DejaVuSans-2e"/>
       <use x="95.410156" xlink:href="#DejaVuSans-35"/>
      </g>
     </g>
    </g>
    <g id="xtick_5">
     <g id="line2d_5">
      <g>
       <use style="stroke:#000000;stroke-width:0.8;" x="221.9075" xlink:href="#m8b309a5638" y="330.79152"/>
      </g>
     </g>
     <g id="text_5">
      <!-- 10.0 -->
      <defs>
       <path d="M 12.40625 8.296875 
L 28.515625 8.296875 
L 28.515625 63.921875 
L 10.984375 60.40625 
L 10.984375 69.390625 
L 28.421875 72.90625 
L 38.28125 72.90625 
L 38.28125 8.296875 
L 54.390625 8.296875 
L 54.390625 0 
L 12.40625 0 
z
" id="DejaVuSans-31"/>
      </defs>
      <g transform="translate(210.774688 345.389958)scale(0.1 -0.1)">
       <use xlink:href="#DejaVuSans-31"/>
       <use x="63.623047" xlink:href="#DejaVuSans-30"/>
       <use x="127.246094" xlink:href="#DejaVuSans-2e"/>
       <use x="159.033203" xlink:href="#DejaVuSans-30"/>
      </g>
     </g>
    </g>
    <g id="xtick_6">
     <g id="line2d_6">
      <g>
       <use style="stroke:#000000;stroke-width:0.8;" x="268.974375" xlink:href="#m8b309a5638" y="330.79152"/>
      </g>
     </g>
     <g id="text_6">
      <!-- 12.5 -->
      <g transform="translate(257.841563 345.389958)scale(0.1 -0.1)">
       <use xlink:href="#DejaVuSans-31"/>
       <use x="63.623047" xlink:href="#DejaVuSans-32"/>
       <use x="127.246094" xlink:href="#DejaVuSans-2e"/>
       <use x="159.033203" xlink:href="#DejaVuSans-35"/>
      </g>
     </g>
    </g>
    <g id="xtick_7">
     <g id="line2d_7">
      <g>
       <use style="stroke:#000000;stroke-width:0.8;" x="316.04125" xlink:href="#m8b309a5638" y="330.79152"/>
      </g>
     </g>
     <g id="text_7">
      <!-- 15.0 -->
      <g transform="translate(304.908437 345.389958)scale(0.1 -0.1)">
       <use xlink:href="#DejaVuSans-31"/>
       <use x="63.623047" xlink:href="#DejaVuSans-35"/>
       <use x="127.246094" xlink:href="#DejaVuSans-2e"/>
       <use x="159.033203" xlink:href="#DejaVuSans-30"/>
      </g>
     </g>
    </g>
    <g id="xtick_8">
     <g id="line2d_8">
      <g>
       <use style="stroke:#000000;stroke-width:0.8;" x="363.108125" xlink:href="#m8b309a5638" y="330.79152"/>
      </g>
     </g>
     <g id="text_8">
      <!-- 17.5 -->
      <g transform="translate(351.975312 345.389958)scale(0.1 -0.1)">
       <use xlink:href="#DejaVuSans-31"/>
       <use x="63.623047" xlink:href="#DejaVuSans-37"/>
       <use x="127.246094" xlink:href="#DejaVuSans-2e"/>
       <use x="159.033203" xlink:href="#DejaVuSans-35"/>
      </g>
     </g>
    </g>
    <g id="xtick_9">
     <g id="line2d_9">
      <g>
       <use style="stroke:#000000;stroke-width:0.8;" x="410.175" xlink:href="#m8b309a5638" y="330.79152"/>
      </g>
     </g>
     <g id="text_9">
      <!-- 20.0 -->
      <g transform="translate(399.042188 345.389958)scale(0.1 -0.1)">
       <use xlink:href="#DejaVuSans-32"/>
       <use x="63.623047" xlink:href="#DejaVuSans-30"/>
       <use x="127.246094" xlink:href="#DejaVuSans-2e"/>
       <use x="159.033203" xlink:href="#DejaVuSans-30"/>
      </g>
     </g>
    </g>
   </g>
   <g id="matplotlib.axis_2">
    <g id="ytick_1">
     <g id="line2d_10">
      <defs>
       <path d="M 0 0 
L -3.5 0 
" id="me8ff33f618" style="stroke:#000000;stroke-width:0.8;"/>
      </defs>
      <g>
       <use style="stroke:#000000;stroke-width:0.8;" x="33.64" xlink:href="#me8ff33f618" y="316.90728"/>
      </g>
     </g>
     <g id="text_10">
      <!-- 0.0 -->
      <g transform="translate(10.736875 320.706499)scale(0.1 -0.1)">
       <use xlink:href="#DejaVuSans-30"/>
       <use x="63.623047" xlink:href="#DejaVuSans-2e"/>
       <use x="95.410156" xlink:href="#DejaVuSans-30"/>
      </g>
     </g>
    </g>
    <g id="ytick_2">
     <g id="line2d_11">
      <g>
       <use style="stroke:#000000;stroke-width:0.8;" x="33.64" xlink:href="#me8ff33f618" y="261.37032"/>
      </g>
     </g>
     <g id="text_11">
      <!-- 0.2 -->
      <g transform="translate(10.736875 265.169539)scale(0.1 -0.1)">
       <use xlink:href="#DejaVuSans-30"/>
       <use x="63.623047" xlink:href="#DejaVuSans-2e"/>
       <use x="95.410156" xlink:href="#DejaVuSans-32"/>
      </g>
     </g>
    </g>
    <g id="ytick_3">
     <g id="line2d_12">
      <g>
       <use style="stroke:#000000;stroke-width:0.8;" x="33.64" xlink:href="#me8ff33f618" y="205.83336"/>
      </g>
     </g>
     <g id="text_12">
      <!-- 0.4 -->
      <defs>
       <path d="M 37.796875 64.3125 
L 12.890625 25.390625 
L 37.796875 25.390625 
z
M 35.203125 72.90625 
L 47.609375 72.90625 
L 47.609375 25.390625 
L 58.015625 25.390625 
L 58.015625 17.1875 
L 47.609375 17.1875 
L 47.609375 0 
L 37.796875 0 
L 37.796875 17.1875 
L 4.890625 17.1875 
L 4.890625 26.703125 
z
" id="DejaVuSans-34"/>
      </defs>
      <g transform="translate(10.736875 209.632579)scale(0.1 -0.1)">
       <use xlink:href="#DejaVuSans-30"/>
       <use x="63.623047" xlink:href="#DejaVuSans-2e"/>
       <use x="95.410156" xlink:href="#DejaVuSans-34"/>
      </g>
     </g>
    </g>
    <g id="ytick_4">
     <g id="line2d_13">
      <g>
       <use style="stroke:#000000;stroke-width:0.8;" x="33.64" xlink:href="#me8ff33f618" y="150.2964"/>
      </g>
     </g>
     <g id="text_13">
      <!-- 0.6 -->
      <defs>
       <path d="M 33.015625 40.375 
Q 26.375 40.375 22.484375 35.828125 
Q 18.609375 31.296875 18.609375 23.390625 
Q 18.609375 15.53125 22.484375 10.953125 
Q 26.375 6.390625 33.015625 6.390625 
Q 39.65625 6.390625 43.53125 10.953125 
Q 47.40625 15.53125 47.40625 23.390625 
Q 47.40625 31.296875 43.53125 35.828125 
Q 39.65625 40.375 33.015625 40.375 
z
M 52.59375 71.296875 
L 52.59375 62.3125 
Q 48.875 64.0625 45.09375 64.984375 
Q 41.3125 65.921875 37.59375 65.921875 
Q 27.828125 65.921875 22.671875 59.328125 
Q 17.53125 52.734375 16.796875 39.40625 
Q 19.671875 43.65625 24.015625 45.921875 
Q 28.375 48.1875 33.59375 48.1875 
Q 44.578125 48.1875 50.953125 41.515625 
Q 57.328125 34.859375 57.328125 23.390625 
Q 57.328125 12.15625 50.6875 5.359375 
Q 44.046875 -1.421875 33.015625 -1.421875 
Q 20.359375 -1.421875 13.671875 8.265625 
Q 6.984375 17.96875 6.984375 36.375 
Q 6.984375 53.65625 15.1875 63.9375 
Q 23.390625 74.21875 37.203125 74.21875 
Q 40.921875 74.21875 44.703125 73.484375 
Q 48.484375 72.75 52.59375 71.296875 
z
" id="DejaVuSans-36"/>
      </defs>
      <g transform="translate(10.736875 154.095619)scale(0.1 -0.1)">
       <use xlink:href="#DejaVuSans-30"/>
       <use x="63.623047" xlink:href="#DejaVuSans-2e"/>
       <use x="95.410156" xlink:href="#DejaVuSans-36"/>
      </g>
     </g>
    </g>
    <g id="ytick_5">
     <g id="line2d_14">
      <g>
       <use style="stroke:#000000;stroke-width:0.8;" x="33.64" xlink:href="#me8ff33f618" y="94.75944"/>
      </g>
     </g>
     <g id="text_14">
      <!-- 0.8 -->
      <defs>
       <path d="M 31.78125 34.625 
Q 24.75 34.625 20.71875 30.859375 
Q 16.703125 27.09375 16.703125 20.515625 
Q 16.703125 13.921875 20.71875 10.15625 
Q 24.75 6.390625 31.78125 6.390625 
Q 38.8125 6.390625 42.859375 10.171875 
Q 46.921875 13.96875 46.921875 20.515625 
Q 46.921875 27.09375 42.890625 30.859375 
Q 38.875 34.625 31.78125 34.625 
z
M 21.921875 38.8125 
Q 15.578125 40.375 12.03125 44.71875 
Q 8.5 49.078125 8.5 55.328125 
Q 8.5 64.0625 14.71875 69.140625 
Q 20.953125 74.21875 31.78125 74.21875 
Q 42.671875 74.21875 48.875 69.140625 
Q 55.078125 64.0625 55.078125 55.328125 
Q 55.078125 49.078125 51.53125 44.71875 
Q 48 40.375 41.703125 38.8125 
Q 48.828125 37.15625 52.796875 32.3125 
Q 56.78125 27.484375 56.78125 20.515625 
Q 56.78125 9.90625 50.3125 4.234375 
Q 43.84375 -1.421875 31.78125 -1.421875 
Q 19.734375 -1.421875 13.25 4.234375 
Q 6.78125 9.90625 6.78125 20.515625 
Q 6.78125 27.484375 10.78125 32.3125 
Q 14.796875 37.15625 21.921875 38.8125 
z
M 18.3125 54.390625 
Q 18.3125 48.734375 21.84375 45.5625 
Q 25.390625 42.390625 31.78125 42.390625 
Q 38.140625 42.390625 41.71875 45.5625 
Q 45.3125 48.734375 45.3125 54.390625 
Q 45.3125 60.0625 41.71875 63.234375 
Q 38.140625 66.40625 31.78125 66.40625 
Q 25.390625 66.40625 21.84375 63.234375 
Q 18.3125 60.0625 18.3125 54.390625 
z
" id="DejaVuSans-38"/>
      </defs>
      <g transform="translate(10.736875 98.558659)scale(0.1 -0.1)">
       <use xlink:href="#DejaVuSans-30"/>
       <use x="63.623047" xlink:href="#DejaVuSans-2e"/>
       <use x="95.410156" xlink:href="#DejaVuSans-38"/>
      </g>
     </g>
    </g>
    <g id="ytick_6">
     <g id="line2d_15">
      <g>
       <use style="stroke:#000000;stroke-width:0.8;" x="33.64" xlink:href="#me8ff33f618" y="39.22248"/>
      </g>
     </g>
     <g id="text_15">
      <!-- 1.0 -->
      <g transform="translate(10.736875 43.021699)scale(0.1 -0.1)">
       <use xlink:href="#DejaVuSans-31"/>
       <use x="63.623047" xlink:href="#DejaVuSans-2e"/>
       <use x="95.410156" xlink:href="#DejaVuSans-30"/>
      </g>
     </g>
    </g>
   </g>
   <g id="line2d_16">
    <path clip-path="url(#p6b21e8e64c)" d="M 33.64 316.90728 
L 48.375721 316.90728 
L 50.079273 314.224077 
L 51.101404 315.923713 
L 51.868002 316.90728 
L 52.123534 316.800281 
L 53.571553 316.001905 
L 55.275105 316.90728 
L 56.808301 316.804396 
L 57.234189 316.824973 
L 58.511853 316.90728 
L 59.448806 316.812627 
L 60.556115 316.598629 
L 62.259666 316.90728 
L 64.133573 316.800281 
L 65.326059 314.820801 
L 65.666769 314.359883 
L 66.263012 315.392834 
L 67.199966 316.446362 
L 67.540676 316.466938 
L 67.966564 316.553361 
L 68.81834 316.54513 
L 69.15905 316.487515 
L 69.414583 316.446362 
L 70.436714 316.113019 
L 70.862602 315.903136 
L 72.651331 316.90728 
L 72.906864 316.438131 
L 74.269705 313.310471 
L 74.354882 313.417469 
L 74.695593 313.285779 
L 75.462191 312.828975 
L 75.888079 312.454479 
L 75.973256 312.265174 
L 76.143612 312.590286 
L 77.59163 316.742666 
L 77.761985 316.90728 
L 78.187873 316.812627 
L 79.380359 316.343478 
L 79.465537 316.322901 
L 79.72107 315.800253 
L 81.169089 312.067637 
L 82.87264 315.005992 
L 83.128173 314.886647 
L 83.809594 313.944233 
L 84.661369 312.660246 
L 85.00208 313.137626 
L 85.768678 313.931887 
L 86.279743 314.405152 
L 86.450098 314.454536 
L 88.068472 316.90728 
L 88.324005 316.816742 
L 89.942379 314.38869 
L 91.560753 307.565452 
L 92.156996 309.993504 
L 93.349482 314.392806 
L 93.605015 313.693197 
L 95.053034 308.74244 
L 95.308567 309.33505 
L 95.649277 309.70543 
L 96.671408 310.738381 
L 96.756585 310.458538 
L 96.841763 310.635498 
L 96.926941 310.557306 
L 97.267651 310.042889 
L 98.374959 308.092216 
L 98.460137 307.820604 
L 98.545315 307.849411 
L 100.163689 314.874301 
L 100.248866 314.874301 
L 100.674754 312.767245 
L 101.952418 305.849354 
L 102.122773 305.886393 
L 103.655969 301.680512 
L 103.741147 301.795742 
L 104.507745 303.680569 
L 105.529876 305.906969 
L 106.466829 310.668421 
L 107.14825 313.767274 
L 107.233428 313.730236 
L 107.829671 312.590286 
L 108.425914 311.400952 
L 108.851802 310.429731 
L 108.936979 310.54496 
L 109.448045 312.433903 
L 110.384998 315.713831 
L 110.640531 316.281748 
L 110.981241 313.812542 
L 112.344082 303.09619 
L 112.42926 303.441879 
L 112.599615 303.042691 
L 113.706923 299.421189 
L 114.047634 298.128972 
L 114.217989 298.931463 
L 114.984587 303.207304 
L 115.751185 307.083957 
L 115.921541 307.149803 
L 116.091896 306.919343 
L 116.858494 305.779394 
L 117.539915 304.186756 
L 117.795447 304.561252 
L 117.965802 304.577714 
L 118.902756 304.676482 
L 119.328644 304.557137 
L 119.498999 304.462484 
L 120.606307 303.137344 
L 121.032195 302.458312 
L 121.458083 303.343111 
L 122.309859 304.676482 
L 122.650569 305.050978 
L 122.735747 305.042747 
L 122.906102 305.56128 
L 123.417167 305.520127 
L 123.587523 305.363744 
L 124.183766 305.092131 
L 124.354121 304.915172 
L 124.439298 304.701174 
L 124.524476 304.841095 
L 124.609653 304.771135 
L 125.972495 302.153777 
L 126.228027 301.528245 
L 126.568738 302.392467 
L 127.846401 304.886364 
L 128.187112 303.709376 
L 129.124065 298.096049 
L 129.635131 294.86139 
L 131.338682 308.647787 
L 131.42386 308.507866 
L 132.020103 307.17861 
L 133.042234 304.861672 
L 133.127411 304.783481 
L 133.297766 305.203246 
L 133.808832 305.009825 
L 133.979187 304.874018 
L 134.319897 304.758789 
L 134.57543 304.606521 
L 134.745785 304.553021 
L 134.830963 304.17441 
L 135.086496 305.071555 
L 135.342028 305.409013 
L 135.682739 305.857585 
L 136.278982 306.697115 
L 136.449337 306.828806 
L 136.534514 306.548963 
L 136.619692 306.618923 
L 137.04558 307.927602 
L 138.238066 310.528499 
L 138.323244 310.326847 
L 138.749131 306.853498 
L 140.026795 295.877879 
L 140.111973 296.709178 
L 140.708216 301.511783 
L 141.389636 306.960497 
L 141.900702 309.890621 
L 142.496945 310.573768 
L 143.00801 311.026455 
L 143.348721 311.20753 
L 143.519076 311.116993 
L 145.222627 316.894934 
L 145.392983 315.754984 
L 146.159581 307.631298 
L 147.011357 299.42942 
L 147.437244 300.791598 
L 148.544553 304.29787 
L 148.714908 304.363716 
L 148.885263 304.030373 
L 150.41846 298.495237 
L 150.673992 298.894425 
L 151.09988 299.161923 
L 151.696123 299.487035 
L 151.866479 299.569342 
L 152.036834 299.581688 
L 152.122011 299.145461 
L 153.22932 307.129226 
L 153.91074 311.211646 
L 154.421806 310.071696 
L 154.932871 308.787709 
L 155.614292 306.758845 
L 155.69947 307.120995 
L 156.38089 309.314473 
L 156.806778 310.528499 
L 157.232666 311.742525 
L 157.403021 311.919485 
L 157.914087 311.487374 
L 158.339974 311.014109 
L 158.680685 310.610806 
L 159.958348 308.540788 
L 160.810124 306.824691 
L 161.150835 307.680682 
L 162.428498 309.70543 
L 162.513676 309.610778 
L 162.769209 310.014081 
L 163.706162 310.940033 
L 164.217227 311.08407 
L 164.557938 311.13757 
L 166.005956 311.141685 
L 166.261489 311.705487 
L 167.453975 313.112934 
L 167.62433 313.298125 
L 167.709508 313.166434 
L 167.794686 313.182895 
L 168.305751 311.750756 
L 169.41306 307.968756 
L 169.498237 308.014025 
L 170.264835 309.721892 
L 171.116611 311.219877 
L 171.201789 311.215761 
L 171.542499 310.396808 
L 172.309097 308.1951 
L 172.649808 307.170379 
L 172.90534 306.178582 
L 173.246051 307.400839 
L 173.757116 308.55725 
L 174.268182 309.631354 
L 174.608892 310.092273 
L 174.949602 309.734238 
L 175.631023 308.606634 
L 175.886556 308.190984 
L 176.227266 307.54076 
L 176.397621 307.281494 
L 176.823509 308.540788 
L 178.271528 311.997676 
L 179.038126 313.372201 
L 179.719547 314.573881 
L 179.889902 314.545073 
L 180.31579 312.417441 
L 181.252743 307.071611 
L 181.593453 305.495435 
L 183.041472 309.808314 
L 185.000556 314.50392 
L 185.426444 314.030656 
L 186.363398 312.623208 
L 186.789286 311.997676 
L 187.470706 314.121193 
L 187.896594 315.376373 
L 188.578015 316.90728 
L 190.537099 316.833204 
L 191.55923 316.257056 
L 192.155473 315.88256 
L 192.922071 314.664418 
L 193.688669 313.4257 
L 193.944202 313.516238 
L 195.307043 312.730207 
L 195.392221 312.499748 
L 196.499529 315.232336 
L 197.010595 316.269402 
L 197.18095 316.359939 
L 198.714147 313.117049 
L 198.884502 312.779591 
L 200.502876 316.701513 
L 200.673231 316.79205 
L 201.525007 316.010135 
L 202.376782 315.191182 
L 202.973025 315.866098 
L 203.995156 316.746782 
L 204.250689 316.656244 
L 205.017287 316.014251 
L 205.783885 315.21999 
L 205.869063 315.314642 
L 206.209773 315.58214 
L 206.891194 315.816714 
L 207.402259 315.960751 
L 207.487437 315.894906 
L 207.657792 314.882531 
L 209.276166 300.450025 
L 210.979718 316.90728 
L 211.490783 316.808512 
L 212.768447 316.359939 
L 213.535045 316.590399 
L 214.471998 316.524553 
L 214.897886 314.392806 
L 216.17555 307.392608 
L 216.345905 307.367916 
L 216.856971 306.824691 
L 217.453214 306.046891 
L 217.793924 305.503666 
L 217.879102 305.25263 
L 218.304989 307.647759 
L 219.241943 312.721977 
L 219.582653 314.269345 
L 219.667831 314.178808 
L 220.689962 299.589918 
L 221.371382 290.009401 
L 221.45656 290.169899 
L 221.626915 290.087592 
L 221.882448 289.618443 
L 222.223158 289.104025 
L 222.989756 287.704809 
L 223.074934 287.042239 
L 223.671177 291.931266 
L 224.60813 299.717494 
L 224.778485 300.721638 
L 224.863663 300.75456 
L 225.630261 293.371636 
L 226.482037 284.610071 
L 226.567215 284.173845 
L 228.270766 303.911028 
L 228.355944 303.902797 
L 228.611476 302.215507 
L 229.292897 297.128943 
L 229.974318 291.746075 
L 230.059495 291.964188 
L 230.826093 298.668082 
L 231.763047 305.339052 
L 231.848224 305.170323 
L 232.529645 301.812203 
L 233.381421 297.318249 
L 233.466598 296.659794 
L 235.084972 306.16212 
L 235.17015 306.487233 
L 235.255328 306.034545 
L 236.532991 279.881543 
L 236.958879 272.165275 
L 237.384767 276.486385 
L 238.662431 287.988768 
L 238.832786 287.544311 
L 241.217758 277.280646 
L 242.069534 272.786692 
L 242.154711 272.729077 
L 243.347197 283.63885 
L 243.858263 287.65954 
L 243.943441 287.53608 
L 244.369328 284.359035 
L 245.135927 278.59344 
L 245.73217 273.996603 
L 247.520899 259.543519 
L 248.628207 244.765324 
L 249.054095 239.135535 
L 249.479983 241.699394 
L 250.331759 246.51846 
L 250.842824 248.79836 
L 250.928002 248.662554 
L 251.268712 248.333326 
L 251.779778 247.687217 
L 251.950133 247.53495 
L 252.205666 247.160454 
L 252.461198 246.748919 
L 252.546376 247.292144 
L 253.994395 267.646629 
L 254.249927 270.461523 
L 255.783124 244.481365 
L 255.953479 241.637664 
L 256.379367 246.436153 
L 257.657031 261.210233 
L 257.742208 261.148503 
L 258.849517 250.938338 
L 259.44576 245.571931 
L 259.701292 246.115156 
L 260.042003 246.637805 
L 260.297536 246.979378 
L 261.064134 248.024675 
L 261.149311 247.925907 
L 261.575199 250.921877 
L 262.852863 259.201946 
L 262.93804 258.819219 
L 264.641592 238.427697 
L 265.40819 240.534752 
L 266.259966 242.678845 
L 266.345144 242.625346 
L 266.430321 242.896959 
L 266.515499 242.814652 
L 267.622807 240.691135 
L 267.793162 240.3866 
L 268.644938 238.370082 
L 269.581892 235.637494 
L 269.752247 235.1025 
L 270.092957 233.267057 
L 271.540976 224.641299 
L 271.881686 229.365712 
L 273.244527 245.633661 
L 273.329705 245.559585 
L 273.755593 242.855805 
L 274.351836 238.740463 
L 275.97021 226.168091 
L 277.247874 214.427018 
L 277.929294 207.513243 
L 278.44036 202.282642 
L 278.525537 202.348488 
L 279.12178 203.410246 
L 279.292135 203.755935 
L 280.143911 205.278612 
L 280.314266 206.574945 
L 281.080865 214.669824 
L 281.506752 219.106163 
L 282.102996 223.81 
L 283.125126 226.118707 
L 283.380659 226.793623 
L 283.72137 227.394463 
L 283.806547 227.295695 
L 284.232435 227.011736 
L 284.487968 226.912968 
L 284.913856 226.542587 
L 285.084211 226.526126 
L 285.339744 226.28332 
L 285.595276 220.764646 
L 287.128473 182.961109 
L 287.21365 183.862369 
L 288.235781 193.521078 
L 288.832024 199.36898 
L 289.428267 194.953217 
L 290.620753 185.907694 
L 291.898417 181.343779 
L 292.579838 178.030928 
L 293.601969 171.578071 
L 294.027856 168.561525 
L 294.368567 169.512169 
L 294.879632 170.792041 
L 295.731408 172.853827 
L 295.901763 175.825105 
L 296.923894 195.698094 
L 297.520137 206.352716 
L 298.457091 187.463294 
L 299.223689 172.236526 
L 299.308866 172.466985 
L 300.92724 174.874461 
L 302.119726 155.980923 
L 302.630792 147.647354 
L 302.715969 148.112388 
L 304.078811 191.870826 
L 304.419521 202.706523 
L 305.271297 194.706297 
L 306.123073 186.508534 
L 306.634138 174.121353 
L 307.826624 143.955892 
L 307.911802 143.81597 
L 309.700531 180.516595 
L 310.041241 181.014552 
L 310.381951 181.417855 
L 310.552307 181.65243 
L 310.807839 182.002234 
L 311.318905 182.607189 
L 311.48926 182.693612 
L 312.085503 182.981686 
L 312.426213 183.063992 
L 312.766924 183.257414 
L 313.022456 183.240952 
L 313.107634 181.981657 
L 314.470475 136.955694 
L 314.811186 126.745529 
L 316.174027 179.409568 
L 316.514737 192.253552 
L 316.599915 191.512791 
L 317.366513 178.512424 
L 318.218289 163.960572 
L 318.303466 163.265079 
L 318.388644 163.33504 
L 318.984887 163.902957 
L 319.070064 163.898842 
L 319.666308 164.520259 
L 319.751485 164.462644 
L 319.92184 164.701334 
L 320.092195 163.857688 
L 321.625392 151.054858 
L 321.710569 150.182405 
L 323.414121 173.705703 
L 323.584476 169.450439 
L 324.606607 133.91034 
L 325.288028 114.164927 
L 326.480514 112.617558 
L 328.609953 109.52282 
L 328.780308 115.173185 
L 330.398682 176.602905 
L 332.017056 145.968294 
L 333.805785 113.271897 
L 333.890963 113.448857 
L 334.913094 123.81129 
L 335.850047 136.560621 
L 337.298066 165.590248 
L 338.320197 143.943546 
L 339.001618 128.992506 
L 339.342328 134.910369 
L 340.790347 161.190946 
L 344.19745 127.630328 
L 344.53816 132.897966 
L 345.645469 151.182433 
L 345.986179 155.775156 
L 347.178665 150.322327 
L 347.604553 148.351078 
L 347.689731 147.779045 
L 349.308105 113.012631 
L 349.393282 111.32534 
L 349.648815 114.239003 
L 350.926479 131.379405 
L 351.096834 133.441191 
L 351.182011 132.828005 
L 352.885563 96.719989 
L 354.589115 158.334899 
L 354.674292 156.129075 
L 356.377844 107.498072 
L 356.463021 107.679147 
L 357.059264 108.531022 
L 357.996218 109.802663 
L 358.081395 110.633963 
L 359.784947 159.61477 
L 359.870124 158.116786 
L 360.892255 137.935145 
L 361.573676 123.712521 
L 362.85134 77.02396 
L 363.277228 63.982439 
L 364.214181 105.921895 
L 364.980779 139.182094 
L 365.065957 137.284921 
L 366.088088 116.893399 
L 366.684331 104.946559 
L 366.769508 104.888944 
L 368.47306 117.251433 
L 368.984125 117.288472 
L 369.665546 117.276126 
L 370.091434 117.329625 
L 370.176611 117.132089 
L 370.858032 112.243062 
L 371.880163 104.456833 
L 372.306051 107.485725 
L 373.072649 113.436511 
L 373.583715 117.218511 
L 374.009602 123.309218 
L 375.372444 143.066978 
L 376.56493 111.839758 
L 377.075995 98.320857 
L 377.161173 98.226205 
L 378.779547 102.971195 
L 378.864724 101.263327 
L 380.05721 48.019025 
L 380.568276 26.989624 
L 381.590407 66.780872 
L 382.357005 93.3701 
L 382.52736 93.234294 
L 382.868071 92.810414 
L 383.123603 92.538801 
L 383.379136 92.184882 
L 383.464314 92.176651 
L 383.805024 91.654002 
L 383.890201 91.641656 
L 383.975379 91.411197 
L 384.230912 93.526483 
L 385.678931 107.267612 
L 385.764108 107.189421 
L 387.46766 69.225385 
L 387.552837 70.30772 
L 388.489791 82.13933 
L 389.256389 91.855654 
L 389.93781 99.859996 
L 390.95994 110.84796 
L 392.663492 85.114723 
L 393.43009 93.168449 
L 394.367044 102.921811 
L 394.707754 96.234379 
L 395.644707 74.958058 
L 396.155773 65.245849 
L 397.859324 103.349806 
L 399.733231 51.825717 
L 401.266427 47.163034 
L 401.351605 47.759758 
L 403.140334 77.493109 
L 403.225512 77.501339 
L 403.481044 77.279111 
L 403.566222 77.377879 
L 403.906932 77.102151 
L 404.077287 77.135074 
L 404.758708 76.85523 
L 405.014241 74.801674 
L 406.46226 61.978267 
L 406.547437 62.299264 
L 408.165811 89.234181 
L 408.250989 90.361785 
L 408.336166 90.139556 
L 408.847232 88.822647 
L 409.358297 87.71562 
L 409.61383 87.057165 
L 409.95454 86.188827 
L 410.210073 79.55078 
L 410.210073 79.55078 
" style="fill:none;stroke:#191970;stroke-linecap:square;stroke-width:1.5;"/>
   </g>
   <g id="line2d_17">
    <path clip-path="url(#p6b21e8e64c)" d="M 33.64 66.379059 
L 33.725178 66.212681 
L 33.810355 67.007598 
L 33.895533 66.619383 
L 33.98071 66.748788 
L 34.065888 66.878193 
L 34.236243 66.545437 
L 34.321421 66.878193 
L 34.406598 66.674842 
L 34.491776 66.822733 
L 34.747309 66.58241 
L 34.832486 66.563923 
L 35.002841 66.656355 
L 35.258374 66.563923 
L 35.428729 66.286627 
L 35.599084 66.730301 
L 35.684262 66.693328 
L 35.939795 67.173976 
L 36.024972 66.933652 
L 36.195327 67.469759 
L 36.876748 65.343818 
L 36.961926 65.510196 
L 37.643346 63.809444 
L 37.728524 63.901876 
L 37.813701 63.938849 
L 37.984056 63.643066 
L 38.324767 62.256583 
L 38.409944 62.164151 
L 38.665477 61.258315 
L 38.750655 61.831395 
L 38.835832 61.665017 
L 39.091365 60.962532 
L 39.26172 60.833127 
L 39.517253 59.927292 
L 39.772786 59.52059 
L 40.028318 58.892051 
L 40.113496 58.466863 
L 40.198674 58.559295 
L 40.283851 58.707187 
L 40.709739 57.893783 
L 41.050449 56.987948 
L 41.135627 57.006434 
L 41.305982 56.377895 
L 41.39116 56.451841 
L 42.157758 58.873565 
L 42.242935 58.503836 
L 42.328113 58.707187 
L 42.498468 59.391185 
L 42.668823 59.594536 
L 42.924356 61.18437 
L 43.179889 60.8701 
L 43.265066 60.814641 
L 43.435421 60.500371 
L 43.520599 60.389453 
L 43.861309 58.540809 
L 44.031665 58.060161 
L 44.287197 56.729138 
L 44.713085 55.601465 
L 44.968618 54.38136 
L 45.138973 54.159523 
L 45.650039 51.515962 
L 45.735216 51.238665 
L 45.905571 50.462235 
L 45.990749 50.314343 
L 46.246282 48.706023 
L 46.501814 48.391754 
L 46.586992 47.615323 
L 46.672169 47.726242 
L 46.842525 48.41024 
L 47.183235 49.24213 
L 47.609123 50.647099 
L 48.375721 52.126014 
L 48.546076 52.015096 
L 48.631254 52.070555 
L 48.886786 52.662121 
L 48.971964 52.846986 
L 49.057142 52.791526 
L 49.227497 52.588175 
L 49.312674 52.662121 
L 49.48303 52.920931 
L 49.568207 52.920931 
L 49.738562 53.771307 
L 50.249628 52.532716 
L 50.419983 51.534448 
L 50.675516 50.055533 
L 50.760693 49.963101 
L 51.356936 46.894352 
L 51.782824 43.991981 
L 52.208712 46.210354 
L 52.804955 49.131211 
L 52.97531 50.794991 
L 53.145665 51.035315 
L 53.486376 52.77304 
L 53.571553 52.71758 
L 53.827086 52.403311 
L 54.167796 50.776504 
L 54.252974 51.035315 
L 54.593684 50.203425 
L 54.678862 50.277371 
L 54.934395 49.722777 
L 55.189927 48.502672 
L 55.530638 48.317808 
L 55.615815 48.706023 
L 55.78617 48.262349 
L 55.956525 47.744728 
L 56.467591 48.040511 
L 56.723124 47.818674 
L 57.149012 47.966566 
L 57.234189 47.911106 
L 57.319367 48.040511 
L 57.660077 47.670783 
L 57.91561 47.190135 
L 58.000787 46.672515 
L 58.085965 46.764947 
L 58.25632 46.617056 
L 58.426675 46.857379 
L 58.511853 46.820406 
L 58.682208 46.580083 
L 58.852563 46.857379 
L 59.108096 47.781701 
L 59.278451 48.15143 
L 59.704339 49.371535 
L 59.874694 48.632077 
L 59.959872 48.853915 
L 60.130227 50.184938 
L 60.215404 50.443748 
L 60.38576 51.220179 
L 60.470937 51.183206 
L 61.06718 49.038779 
L 61.322713 47.911106 
L 61.40789 48.058998 
L 61.663423 47.264081 
L 62.430021 44.232305 
L 62.515199 44.417169 
L 62.941087 42.697931 
L 63.026264 42.771876 
L 63.366975 41.810581 
L 63.707685 40.350153 
L 63.87804 39.629182 
L 64.389106 41.625717 
L 64.474283 41.588744 
L 64.644638 42.734903 
L 65.070526 44.176846 
L 65.240882 45.101168 
L 65.666769 46.469164 
L 65.837125 46.136408 
L 65.922302 45.655761 
L 66.263012 46.413705 
L 66.34819 46.302786 
L 66.433368 46.469164 
L 66.6889 46.117922 
L 66.859255 46.191867 
L 66.944433 46.136408 
L 67.199966 46.339759 
L 67.285143 46.339759 
L 67.455499 45.674247 
L 68.051742 43.474361 
L 68.307274 42.882795 
L 68.647985 41.255988 
L 68.733162 41.237502 
L 68.81834 41.052637 
L 68.988695 40.368639 
L 69.244228 39.721614 
L 69.49976 39.111561 
L 69.670116 39.22248 
L 69.840471 38.982156 
L 69.925648 39.000643 
L 70.777424 37.133512 
L 70.862602 37.29989 
L 71.118134 38.13178 
L 71.203312 37.946916 
L 71.28849 38.039348 
L 71.6292 39.240966 
L 71.884733 39.573722 
L 71.96991 39.629182 
L 72.31062 40.664422 
L 72.480976 40.793827 
L 72.566153 41.015665 
L 72.821686 40.719882 
L 73.162396 41.40388 
L 73.332751 41.274475 
L 73.503107 41.311448 
L 73.588284 41.237502 
L 73.758639 41.440853 
L 73.928994 40.498044 
L 74.014172 40.812314 
L 74.269705 40.535017 
L 74.44006 41.274475 
L 74.525238 41.34842 
L 74.865948 42.291229 
L 74.951125 42.383661 
L 75.206658 43.78863 
L 75.462191 44.232305 
L 75.717724 45.1936 
L 75.802901 45.008735 
L 75.973256 45.304518 
L 76.143612 45.212086 
L 76.484322 46.302786 
L 76.569499 46.210354 
L 76.825032 46.506137 
L 77.080565 46.986784 
L 77.25092 47.153162 
L 77.506453 46.80192 
L 77.59163 46.857379 
L 77.761985 47.541378 
L 77.847163 47.31954 
L 77.932341 47.338027 
L 78.102696 47.89262 
L 78.187873 47.707755 
L 78.698939 48.798455 
L 78.954472 48.484186 
L 79.124827 48.798455 
L 79.210004 48.72451 
L 79.295182 48.632077 
L 79.550715 49.094238 
L 79.635892 49.020293 
L 79.891425 48.169916 
L 79.976603 48.188403 
L 80.317313 48.650564 
L 80.572846 47.837161 
L 80.743201 47.89262 
L 80.913556 47.596837 
L 81.083911 47.375 
L 81.254266 47.430459 
L 81.339444 47.264081 
L 81.424621 47.31954 
L 81.509799 47.63381 
L 81.594977 47.079217 
L 81.680154 47.171649 
L 81.765332 47.153162 
L 81.850509 46.727974 
L 82.106042 47.190135 
L 82.276397 47.301054 
L 82.361575 47.356513 
L 82.787463 46.764947 
L 82.957818 46.524623 
L 83.21335 46.857379 
L 83.383706 46.302786 
L 83.554061 46.580083 
L 83.639238 46.413705 
L 83.809594 46.857379 
L 83.894771 46.894352 
L 84.065126 46.617056 
L 84.235481 46.727974 
L 84.320659 46.80192 
L 84.405837 46.654028 
L 84.576192 46.099435 
L 84.661369 46.22884 
L 84.831724 46.154895 
L 84.916902 46.154895 
L 85.172435 45.822139 
L 85.34279 46.247327 
L 85.427968 46.265813 
L 85.598323 46.709488 
L 85.6835 46.432191 
L 85.853855 45.544842 
L 86.024211 45.97003 
L 86.109388 46.007003 
L 86.364921 45.45241 
L 86.875986 45.877598 
L 87.131519 47.430459 
L 87.301874 47.467432 
L 87.387052 47.375 
L 87.727762 48.262349 
L 87.898117 48.243862 
L 88.068472 49.057266 
L 88.324005 48.798455 
L 88.409183 48.946347 
L 88.49436 48.872401 
L 88.749893 48.41024 
L 88.920248 47.929593 
L 89.090603 48.132944 
L 89.346136 47.245595 
L 89.516491 47.467432 
L 89.686846 47.208622 
L 89.857202 46.54311 
L 89.942379 46.524623 
L 90.112734 46.691001 
L 90.197912 46.672515 
L 90.453445 45.581815 
L 90.6238 45.526356 
L 90.708977 45.286032 
L 90.794155 45.323005 
L 90.879333 45.341491 
L 90.96451 45.212086 
L 91.220043 44.380196 
L 91.731108 43.455875 
L 91.986641 43.659225 
L 92.156996 43.603766 
L 92.242174 43.474361 
L 92.497707 42.568525 
L 92.582884 42.623985 
L 92.668062 42.901281 
L 92.753239 42.845822 
L 92.923594 42.790363 
L 93.179127 42.531553 
L 93.349482 41.699663 
L 93.77537 42.938254 
L 93.860548 42.716417 
L 93.945725 42.771876 
L 94.201258 43.548307 
L 94.371613 43.84409 
L 94.541968 44.047441 
L 94.712324 44.528088 
L 94.797501 44.343224 
L 95.223389 45.323005 
L 95.393744 45.45241 
L 95.478922 45.729707 
L 95.564099 45.618788 
L 95.90481 46.413705 
L 96.160342 47.375 
L 96.330698 47.596837 
L 96.415875 47.837161 
L 96.501053 47.763215 
L 96.58623 47.818674 
L 96.756585 48.336294 
L 96.926941 48.114457 
L 97.097296 48.077484 
L 97.352828 47.264081 
L 97.523184 46.598569 
L 97.608361 46.709488 
L 97.693539 47.079217 
L 97.949072 46.2843 
L 98.545315 44.823871 
L 98.971202 46.117922 
L 99.311913 46.986784 
L 99.482268 47.837161 
L 99.737801 48.521159 
L 100.248866 50.536181 
L 100.589576 49.889155 
L 100.674754 49.926128 
L 100.845109 49.537913 
L 101.100642 50.092506 
L 101.270997 49.556399 
L 101.356175 49.168184 
L 101.52653 49.353049 
L 101.86724 49.334562 
L 101.952418 49.741264 
L 102.20795 49.482454 
L 102.293128 49.463967 
L 102.378306 49.722777 
L 102.463483 49.667318 
L 102.548661 49.353049 
L 102.633838 49.408508 
L 102.974549 48.98332 
L 103.144904 49.463967 
L 103.570792 48.336294 
L 103.911502 48.484186 
L 104.081857 48.742996 
L 104.167035 48.687537 
L 104.33739 48.243862 
L 104.422567 48.243862 
L 104.763278 47.707755 
L 105.018811 47.670783 
L 105.189166 47.245595 
L 105.444698 47.097703 
L 107.14825 56.266977 
L 107.233428 55.786329 
L 107.318605 55.804816 
L 107.403783 55.786329 
L 107.829671 54.714116 
L 107.914848 54.751089 
L 108.085203 53.86374 
L 108.340736 53.346119 
L 108.511091 53.678875 
L 108.936979 52.181474 
L 109.362867 53.438552 
L 109.448045 53.03185 
L 109.703577 53.346119 
L 109.788755 53.401579 
L 110.129465 54.64017 
L 110.29982 53.956172 
L 110.640531 54.529251 
L 110.810886 54.011631 
L 111.066419 53.789794 
L 111.151596 54.011631 
L 111.577484 53.401579 
L 111.662662 52.828499 
L 111.833017 53.309147 
L 112.173727 52.883958 
L 112.258905 52.939418 
L 112.344082 52.347852 
L 112.42926 52.625148 
L 112.855148 51.42353 
L 112.940325 51.497475 
L 113.11068 51.460503 
L 113.451391 50.610126 
L 113.536568 50.739531 
L 113.621746 50.610126 
L 113.706923 50.758018 
L 114.047634 50.055533 
L 114.132811 50.129479 
L 114.303167 50.369803 
L 114.643877 50.998342 
L 114.729054 50.887423 
L 114.984587 51.442016 
L 115.069765 51.497475 
L 115.154942 51.700826 
L 115.325297 52.255419 
L 115.410475 51.867204 
L 115.495653 51.922664 
L 115.751185 52.865472 
L 115.836363 52.957904 
L 115.921541 52.754553 
L 116.432606 53.475524 
L 116.602961 53.198228 
L 116.688139 53.235201 
L 116.773316 52.994877 
L 117.028849 53.383092 
L 117.114027 53.198228 
L 117.369559 53.60493 
L 117.454737 53.586443 
L 117.539915 53.715848 
L 117.795447 52.625148 
L 118.562045 49.168184 
L 118.987933 47.393486 
L 119.243466 45.859112 
L 119.328644 45.877598 
L 119.754532 46.22884 
L 119.839709 46.506137 
L 119.924887 46.191867 
L 120.350775 46.80192 
L 120.86184 46.469164 
L 121.287728 47.079217 
L 121.458083 47.929593 
L 121.628438 48.72451 
L 121.713616 48.576618 
L 122.820924 52.162987 
L 123.161635 52.218447 
L 123.33199 51.571421 
L 123.417167 51.645367 
L 123.587523 51.405043 
L 123.757878 52.144501 
L 123.928233 51.885691 
L 124.098588 52.015096 
L 124.268943 51.978123 
L 124.439298 51.68234 
L 124.524476 51.922664 
L 124.780009 51.608394 
L 124.950364 51.830231 
L 125.120719 51.201692 
L 125.376252 51.645367 
L 125.546607 51.442016 
L 125.972495 50.813477 
L 126.057672 51.035315 
L 126.14285 50.979855 
L 126.228027 50.961369 
L 126.313205 50.499208 
L 126.398383 50.536181 
L 126.568738 50.425262 
L 126.909448 49.907642 
L 127.079803 50.092506 
L 127.164981 50.000074 
L 127.420514 49.24213 
L 127.505691 49.094238 
L 127.590869 49.408508 
L 127.846401 48.502672 
L 127.931579 48.558132 
L 128.016757 48.687537 
L 128.187112 49.611859 
L 128.272289 49.574886 
L 128.527822 49.094238 
L 128.613 49.168184 
L 129.038888 50.129479 
L 129.124065 50.055533 
L 129.209243 49.81521 
L 129.379598 50.295857 
L 129.549953 50.868937 
L 129.635131 50.831964 
L 129.890663 51.442016 
L 130.146196 52.347852 
L 130.657262 53.826767 
L 130.912794 55.15779 
L 130.997972 55.268709 
L 131.253505 56.729138 
L 131.338682 56.895516 
L 131.42386 56.766111 
L 132.020103 53.512497 
L 133.127411 48.095971 
L 133.212589 48.336294 
L 133.638477 50.240398 
L 133.808832 50.739531 
L 134.064365 51.589908 
L 134.23472 51.904177 
L 134.830963 54.751089 
L 135.427206 52.347852 
L 135.682739 51.016828 
L 136.108627 49.630345 
L 136.449337 48.428727 
L 136.960402 47.227108 
L 137.130757 47.356513 
L 137.38629 46.727974 
L 137.556645 46.875866 
L 137.727001 46.654028 
L 137.812178 46.764947 
L 137.982533 46.22884 
L 138.067711 46.321273 
L 138.152888 46.247327 
L 138.238066 45.97003 
L 138.493599 46.432191 
L 138.834309 47.005271 
L 139.004664 47.171649 
L 139.260197 48.022025 
L 139.430552 48.650564 
L 139.51573 49.24213 
L 139.686085 49.020293 
L 139.771262 49.131211 
L 140.026795 50.277371 
L 140.111973 50.110993 
L 140.367505 50.85045 
L 140.452683 50.868937 
L 140.708216 51.626881 
L 140.793393 51.534448 
L 140.963749 52.495743 
L 141.304459 53.050336 
L 141.474814 53.845253 
L 141.559992 53.826767 
L 141.815524 54.732602 
L 142.071057 54.972926 
L 142.411767 56.655192 
L 142.496945 56.766111 
L 143.178366 59.169348 
L 143.263543 59.391185 
L 143.519076 60.703722 
L 143.774609 59.317239 
L 145.13745 52.699094 
L 145.563338 51.774772 
L 145.648515 51.737799 
L 145.81887 51.94115 
L 146.159581 50.868937 
L 146.244758 50.739531 
L 146.415114 50.240398 
L 146.585469 50.33283 
L 146.755824 49.833696 
L 146.841001 49.852182 
L 146.926179 49.741264 
L 147.352067 50.628613 
L 147.692777 51.552935 
L 147.777955 51.515962 
L 147.94831 51.904177 
L 148.118665 52.976391 
L 148.374198 53.346119 
L 148.544553 53.623416 
L 148.800086 54.178009 
L 148.970441 53.882226 
L 149.311151 53.327633 
L 149.396329 53.03185 
L 149.481506 53.124282 
L 149.651861 53.03185 
L 149.737039 53.105796 
L 150.077749 52.421797 
L 150.162927 52.45877 
L 150.248105 52.273906 
L 150.503637 52.440284 
L 150.673992 52.218447 
L 150.75917 52.347852 
L 150.844348 52.273906 
L 151.014703 51.42353 
L 151.185058 51.405043 
L 151.355413 51.793259 
L 151.525768 51.331098 
L 151.696123 51.10926 
L 151.866479 51.183206 
L 151.951656 51.16472 
L 152.207189 50.942882 
L 152.547899 51.386557 
L 152.633077 51.16472 
L 152.888609 51.42353 
L 152.973787 51.442016 
L 153.058965 51.257152 
L 153.22932 51.848718 
L 153.399675 52.532716 
L 153.484852 52.51423 
L 153.740385 52.957904 
L 153.91074 52.828499 
L 153.995918 52.976391 
L 154.081096 52.77304 
L 154.166273 53.105796 
L 154.251451 53.050336 
L 154.421806 52.976391 
L 154.677339 52.865472 
L 154.847694 53.198228 
L 155.103226 53.198228 
L 155.273582 52.957904 
L 155.529114 53.623416 
L 155.614292 53.586443 
L 155.784647 54.067091 
L 156.210535 56.137572 
L 156.636423 57.930756 
L 157.062311 60.241561 
L 157.232666 60.481885 
L 157.317844 60.888586 
L 157.658554 60.333993 
L 157.743731 60.407939 
L 157.999264 60.03821 
L 158.169619 60.167615 
L 158.254797 60.112156 
L 158.51033 59.391185 
L 158.595507 59.335726 
L 158.680685 59.52059 
L 158.85104 59.243293 
L 159.021395 58.74416 
L 159.106573 58.836592 
L 159.362105 59.169348 
L 159.447283 59.206321 
L 159.787993 59.649995 
L 159.958348 59.816373 
L 160.128704 60.167615 
L 160.213881 60.130642 
L 160.384236 60.186102 
L 160.639769 60.389453 
L 160.810124 60.962532 
L 161.236012 60.500371 
L 161.491545 59.7794 
L 161.576722 59.742427 
L 161.747078 60.001237 
L 161.917433 59.224807 
L 162.087788 59.150861 
L 162.258143 59.00297 
L 162.428498 58.596268 
L 162.513676 58.503836 
L 162.939564 58.984483 
L 163.280274 60.481885 
L 163.620984 60.962532 
L 163.706162 61.535612 
L 163.791339 61.44318 
L 164.13205 63.033013 
L 164.217227 62.977554 
L 164.557938 63.88339 
L 164.728293 63.402742 
L 164.983826 64.345551 
L 165.069003 64.1422 
L 166.005956 66.138735 
L 167.539153 59.668482 
L 167.709508 59.187834 
L 167.879863 59.705454 
L 168.050218 59.908805 
L 168.390929 61.369234 
L 168.561284 61.70199 
L 168.646461 61.942314 
L 168.901994 63.033013 
L 169.157527 63.846417 
L 169.498237 64.715279 
L 169.583415 64.696793 
L 169.838948 65.17744 
L 169.924125 65.048035 
L 170.179658 65.565656 
L 170.264835 65.49171 
L 170.435191 66.342086 
L 170.690723 65.75052 
L 170.775901 65.805979 
L 170.946256 66.434518 
L 171.031434 66.157222 
L 171.116611 66.212681 
L 171.286966 65.861439 
L 171.372144 66.212681 
L 171.798032 65.029549 
L 171.883209 65.269873 
L 171.968387 65.547169 
L 172.309097 64.511929 
L 172.394275 64.567388 
L 172.479452 64.696793 
L 172.820163 63.698525 
L 172.90534 63.180905 
L 173.501583 66.286627 
L 173.671939 66.194194 
L 173.757116 66.286627 
L 174.183004 68.135271 
L 174.353359 68.726837 
L 174.523714 69.02262 
L 174.694069 69.318403 
L 174.949602 68.468026 
L 175.03478 68.504999 
L 175.631023 66.711815 
L 175.7162 66.859706 
L 175.886556 66.416032 
L 176.142088 65.547169 
L 176.227266 65.380791 
L 176.397621 64.91863 
L 176.567976 65.011062 
L 176.738331 64.696793 
L 176.823509 65.43625 
L 176.908686 65.214413 
L 176.993864 65.048035 
L 177.249397 65.732034 
L 177.334574 65.565656 
L 177.50493 65.695061 
L 177.760462 65.639601 
L 177.930817 66.027817 
L 178.271528 66.083276 
L 179.038126 67.414299 
L 179.123304 67.451272 
L 179.293659 67.247922 
L 179.549191 67.710082 
L 180.145434 69.318403 
L 180.31579 69.336889 
L 180.571322 70.501535 
L 180.741678 70.88975 
L 180.912033 70.446075 
L 181.082388 71.647694 
L 181.252743 72.128341 
L 181.337921 72.072882 
L 181.423098 72.202287 
L 181.593453 72.645962 
L 181.763808 72.146828 
L 181.848986 72.128341 
L 181.934164 72.368665 
L 182.189696 71.795585 
L 182.615584 70.390616 
L 182.785939 70.483048 
L 183.041472 69.909969 
L 183.12665 70.076347 
L 183.382182 69.484781 
L 183.637715 68.338621 
L 183.80807 67.562191 
L 183.893248 67.747055 
L 183.978425 67.61765 
L 184.148781 66.563923 
L 184.404313 64.65982 
L 184.745024 64.308578 
L 185.000556 63.624579 
L 185.256089 64.752252 
L 185.426444 64.91863 
L 185.767155 67.414299 
L 185.852332 67.747055 
L 186.107865 69.447808 
L 186.789286 73.958499 
L 186.874463 73.940012 
L 187.470706 73.108123 
L 187.555884 72.645962 
L 187.641061 72.738394 
L 187.811417 72.923258 
L 187.981772 72.572016 
L 188.152127 72.941745 
L 188.322482 72.572016 
L 188.74837 73.440879 
L 189.770501 77.045734 
L 189.940856 77.156653 
L 190.196389 78.728 
L 191.303697 75.381955 
L 191.55923 74.882821 
L 191.729585 73.792121 
L 191.814763 74.124877 
L 191.985118 73.496338 
L 192.070295 73.644229 
L 192.155473 73.551797 
L 192.240651 73.718175 
L 192.325828 73.625743 
L 192.581361 74.217309 
L 192.751716 74.10639 
L 192.836894 74.291255 
L 193.007249 74.069417 
L 193.177604 74.217309 
L 193.433137 74.531578 
L 193.603492 74.587038 
L 193.859025 75.51136 
L 194.114557 76.398709 
L 194.199735 76.5466 
L 194.284912 77.027248 
L 194.37009 76.971788 
L 194.455268 77.082707 
L 194.625623 78.506163 
L 194.881155 79.227134 
L 195.051511 79.670809 
L 195.221866 80.484212 
L 195.392221 80.798481 
L 195.818109 81.574912 
L 195.903286 81.445507 
L 196.073642 81.963127 
L 196.329174 82.018586 
L 196.414352 81.870695 
L 196.584707 82.351342 
L 196.669885 82.647125 
L 196.755062 82.573179 
L 196.925417 82.647125 
L 197.095773 83.03534 
L 197.436483 82.092532 
L 197.606838 81.704317 
L 197.947548 80.225402 
L 198.288259 79.282593 
L 198.628969 77.286058 
L 198.884502 76.472655 
L 199.821455 82.979881 
L 199.99181 83.978149 
L 200.417698 87.046898 
L 200.673231 88.618245 
L 200.843586 88.525813 
L 200.928764 88.396408 
L 201.099119 88.026679 
L 201.354651 87.804842 
L 201.525007 88.285489 
L 201.695362 87.952733 
L 201.780539 88.322462 
L 202.12125 87.730896 
L 202.206427 87.786355 
L 202.291605 87.934247 
L 202.632315 89.708945 
L 202.80267 90.540835 
L 203.313736 94.071744 
L 204.080334 98.50849 
L 204.165512 98.453031 
L 204.506222 98.933678 
L 204.676577 98.970651 
L 204.93211 100.024378 
L 205.017287 99.950432 
L 205.102465 99.858 
L 205.27282 100.37562 
L 205.443175 100.486539 
L 205.869063 101.429347 
L 206.635661 105.699715 
L 207.146727 108.306302 
L 207.231904 108.417221 
L 207.487437 110.007055 
L 207.828147 113.519478 
L 209.276166 127.365821 
L 209.446521 127.920414 
L 209.702054 129.898463 
L 209.787232 130.194246 
L 210.042764 132.227755 
L 210.127942 131.968944 
L 210.468652 133.70667 
L 210.724185 135.610773 
L 210.979718 136.849364 
L 211.661138 133.299968 
L 211.746316 133.13359 
L 212.172204 131.026136 
L 212.683269 128.548953 
L 214.642354 143.134754 
L 214.897886 145.131289 
L 215.238597 147.700904 
L 216.601438 157.055042 
L 216.686616 157.018069 
L 216.771793 157.22142 
L 217.112503 159.236442 
L 217.368036 160.308655 
L 217.623569 161.491787 
L 217.708746 162.61946 
L 217.793924 162.527028 
L 218.049457 163.155567 
L 218.134634 162.730379 
L 218.304989 162.915243 
L 218.475345 162.490055 
L 218.6457 162.785838 
L 218.901233 162.268218 
L 218.98641 162.453082 
L 219.241943 161.935462 
L 219.32712 162.009408 
L 219.497476 162.046381 
L 219.582653 161.713625 
L 219.667831 162.138813 
L 220.178896 167.943555 
L 221.286205 180.902548 
L 221.371382 181.715952 
L 221.541737 180.994981 
L 221.626915 180.958008 
L 221.882448 181.30925 
L 222.223158 180.810116 
L 222.393513 180.107632 
L 222.478691 180.514333 
L 222.563868 180.200064 
L 222.649046 180.237037 
L 222.904579 180.070659 
L 223.074934 179.663957 
L 225.204373 194.656459 
L 226.226504 201.03428 
L 226.482037 202.901411 
L 226.567215 203.21568 
L 226.907925 202.18044 
L 226.993102 201.977089 
L 227.248635 202.161953 
L 227.41899 201.810711 
L 227.504168 201.60736 
L 227.674523 200.978821 
L 227.844878 200.904875 
L 227.930056 200.83093 
L 228.015233 200.904875 
L 228.100411 200.609092 
L 228.185589 200.664552 
L 228.270766 200.720011 
L 229.122542 210.906039 
L 229.718785 218.744289 
L 230.22985 223.070116 
L 230.315028 223.070116 
L 230.570561 223.56925 
L 230.740916 223.865033 
L 230.826093 223.754114 
L 231.507514 225.621244 
L 231.592692 225.547299 
L 233.296243 231.740256 
L 233.636954 234.513221 
L 235.084972 250.226695 
L 235.255328 252.075338 
L 235.425683 251.816528 
L 235.51086 251.908961 
L 235.681215 251.631664 
L 236.192281 253.147552 
L 236.447814 252.833282 
L 236.532991 253.221498 
L 236.618169 253.092093 
L 236.873702 253.05512 
L 236.958879 253.794577 
L 237.299589 259.063212 
L 238.151365 271.74491 
L 238.662431 278.936134 
L 239.003141 280.858724 
L 239.429029 282.947692 
L 239.514206 282.966178 
L 239.854917 284.482066 
L 240.025272 285.092119 
L 240.280805 286.644979 
L 240.45116 287.606274 
L 242.069534 300.029161 
L 242.154711 300.066134 
L 242.325067 299.493054 
L 242.495422 298.587219 
L 242.580599 298.550246 
L 242.92131 296.461278 
L 243.006487 296.498251 
L 243.858263 290.95232 
L 244.028618 292.967342 
L 244.369328 298.27295 
L 245.050749 306.499415 
L 245.306282 309.90092 
L 245.476637 311.324375 
L 245.561815 311.25043 
L 245.902525 312.211724 
L 246.158058 311.749564 
L 246.41359 311.694104 
L 246.498768 311.786536 
L 247.180188 309.90092 
L 247.350544 309.568164 
L 247.946787 310.067298 
L 248.031964 310.122757 
L 248.117142 309.974865 
L 248.287497 310.215189 
L 248.968918 309.179949 
L 249.139273 309.734542 
L 250.246581 314.799826 
L 250.757647 315.631716 
L 251.01318 315.668689 
L 251.268712 315.761121 
L 251.779778 315.095609 
L 252.205666 314.097341 
L 252.461198 313.357884 
L 252.546376 313.320911 
L 253.227797 314.337665 
L 253.398152 314.411611 
L 253.738862 314.836799 
L 253.909217 314.836799 
L 254.079572 315.003177 
L 254.249927 314.892258 
L 254.760993 315.945985 
L 255.612769 316.556038 
L 256.123834 316.537551 
L 256.6349 316.593011 
L 257.060788 316.352687 
L 257.31632 316.13085 
L 257.657031 315.705661 
L 257.827386 315.779607 
L 258.423629 316.408146 
L 259.105049 316.90728 
L 262.25662 316.833334 
L 262.852863 316.519065 
L 263.363928 316.740902 
L 263.789816 316.90728 
L 410.210073 316.90728 
L 410.210073 316.90728 
" style="fill:none;stroke:#b8860b;stroke-linecap:square;stroke-width:1.5;"/>
   </g>
   <g id="line2d_18">
    <path clip-path="url(#p6b21e8e64c)" d="M 33.64 316.90728 
L 36.45086 316.844789 
L 37.898879 315.638714 
L 38.154412 315.776194 
L 39.346898 316.719807 
L 40.709739 316.90728 
L 43.776132 316.813544 
L 44.457552 316.394854 
L 44.968618 316.201132 
L 45.990749 316.826042 
L 46.586992 316.90728 
L 78.954472 316.807294 
L 79.550715 316.707309 
L 80.913556 316.90728 
L 82.361575 316.813544 
L 83.128173 316.726056 
L 84.405837 316.90728 
L 88.920248 316.819793 
L 90.027557 316.607323 
L 90.283089 316.569829 
L 90.6238 316.457345 
L 90.96451 316.35736 
L 91.220043 316.244876 
L 91.645931 316.069901 
L 92.838417 316.726056 
L 93.179127 316.813544 
L 100.078511 316.719807 
L 100.419221 316.719807 
L 100.930287 316.83854 
L 102.122773 316.90728 
L 104.33739 316.807294 
L 105.529876 316.382356 
L 106.722362 316.888533 
L 107.318605 316.90728 
L 110.129465 316.801045 
L 110.725708 316.713558 
L 112.76997 316.90728 
L 114.217989 316.876035 
L 114.558699 316.338612 
L 115.495653 314.707598 
L 115.836363 314.182674 
L 116.943671 315.844934 
L 117.539915 316.307367 
L 119.413821 316.90728 
L 120.86184 316.801045 
L 121.20255 316.801045 
L 121.543261 316.751053 
L 122.224681 316.332363 
L 122.735747 315.93867 
L 124.354121 316.90728 
L 128.95371 316.807294 
L 129.890663 316.70106 
L 131.849748 316.901031 
L 133.297766 316.776049 
L 133.638477 316.794796 
L 134.91614 316.194883 
L 135.512383 316.519836 
L 136.364159 316.90728 
L 138.834309 316.813544 
L 140.111973 316.332363 
L 141.985879 316.90728 
L 142.411767 316.807294 
L 143.348721 316.438598 
L 143.604253 316.432349 
L 143.944964 316.513587 
L 144.79674 316.21363 
L 145.13745 315.988663 
L 145.307805 315.988663 
L 146.670646 316.588576 
L 147.096534 316.594825 
L 148.970441 316.90728 
L 149.396329 316.807294 
L 150.162927 316.532334 
L 150.503637 316.469843 
L 151.951656 316.90728 
L 152.803432 316.819793 
L 154.081096 316.526085 
L 155.69947 316.90728 
L 156.38089 316.807294 
L 156.977133 316.607323 
L 157.488199 316.557331 
L 159.276928 316.90728 
L 160.810124 315.93867 
L 161.150835 316.013659 
L 161.747078 315.86993 
L 162.00261 315.776194 
L 162.598853 315.601219 
L 164.046872 316.90728 
L 170.520368 316.807294 
L 171.286966 316.669814 
L 171.968387 316.663565 
L 172.649808 316.419851 
L 172.990518 316.326114 
L 174.183004 316.826042 
L 174.608892 316.807294 
L 175.37549 316.757302 
L 176.567976 316.463594 
L 177.84564 316.90728 
L 178.52706 316.813544 
L 179.293659 316.176136 
L 179.889902 315.776194 
L 181.423098 316.794796 
L 182.445229 316.794796 
L 183.211827 316.569829 
L 183.552538 316.626071 
L 184.574669 316.90728 
L 186.022687 316.819793 
L 186.874463 316.676063 
L 188.40766 316.90728 
L 190.707454 316.826042 
L 192.070295 316.026158 
L 192.922071 316.407352 
L 194.114557 316.682313 
L 194.625623 316.56358 
L 194.881155 316.507338 
L 195.392221 316.21363 
L 195.647754 316.28862 
L 196.158819 316.601074 
L 196.84024 316.757302 
L 197.436483 316.601074 
L 197.947548 315.969916 
L 198.884502 314.613862 
L 200.417698 316.776049 
L 200.843586 316.613573 
L 201.099119 315.626215 
L 201.695362 313.051588 
L 202.291605 310.283239 
L 202.376782 310.401972 
L 203.143381 313.282805 
L 203.909979 315.601219 
L 204.165512 315.469988 
L 204.421044 314.301407 
L 205.017287 310.908148 
L 205.27282 309.589589 
L 205.783885 306.508785 
L 206.039418 307.439901 
L 206.465306 308.820951 
L 206.806016 309.527098 
L 206.976372 309.877048 
L 207.061549 309.945788 
L 207.402259 310.870654 
L 207.657792 311.10187 
L 208.594746 309.370871 
L 209.276166 307.752355 
L 209.446521 307.946077 
L 209.531699 308.014817 
L 209.702054 307.746106 
L 210.21312 307.083702 
L 210.639007 306.465042 
L 210.979718 305.540176 
L 211.320428 301.759473 
L 212.683269 284.355742 
L 213.109157 282.412274 
L 213.875755 278.494091 
L 214.301643 276.494381 
L 214.471998 275.725742 
L 214.557176 275.775735 
L 214.642354 275.569514 
L 214.727531 275.625756 
L 216.260728 273.788522 
L 216.601438 273.063627 
L 216.686616 272.963642 
L 217.027326 272.07627 
L 217.282859 271.651332 
L 217.879102 270.264032 
L 218.304989 264.946052 
L 219.497476 249.398303 
L 219.667831 247.867275 
L 219.923363 247.923517 
L 220.519607 248.335957 
L 220.604784 248.279715 
L 220.860317 248.473437 
L 221.030672 248.460939 
L 221.371382 248.59217 
L 222.223158 241.724414 
L 222.563868 239.106043 
L 223.074934 235.156615 
L 223.245289 235.581553 
L 224.778485 240.918281 
L 224.948841 239.462242 
L 225.630261 231.4634 
L 226.822747 219.152682 
L 227.163458 217.496672 
L 227.930056 213.77846 
L 228.270766 212.003717 
L 229.974318 231.438403 
L 230.059495 231.18219 
L 231.763047 214.028424 
L 233.125888 208.104281 
L 233.381421 207.00444 
L 233.892486 204.561044 
L 235.255328 197.518314 
L 236.192281 181.764344 
L 237.044057 169.697341 
L 237.299589 169.63485 
L 237.895832 169.353641 
L 238.151365 169.259905 
L 238.662431 168.897457 
L 240.365982 143.744848 
L 240.45116 143.588621 
L 241.217758 146.269483 
L 241.558468 147.400569 
L 241.899179 148.594146 
L 242.069534 149.181561 
L 242.154711 148.887854 
L 243.858263 131.340394 
L 243.943441 131.627853 
L 244.028618 131.78408 
L 244.369328 132.877672 
L 245.135927 134.989866 
L 247.009833 140.245355 
L 247.095011 140.389084 
L 247.265366 140.939005 
L 247.350544 140.807774 
L 248.287497 135.933479 
L 250.331759 123.022848 
L 250.928002 119.498359 
L 251.6946 117.361168 
L 251.950133 116.505042 
L 252.461198 114.899024 
L 252.631553 114.692804 
L 252.801909 114.824035 
L 252.972264 114.874028 
L 253.142619 114.736548 
L 253.398152 114.980263 
L 253.568507 114.849032 
L 253.82404 114.936519 
L 253.994395 114.867779 
L 254.50546 114.955266 
L 255.612769 114.961515 
L 255.697946 114.911523 
L 255.868301 115.042754 
L 255.953479 115.055252 
L 256.379367 113.180523 
L 256.97561 110.680885 
L 257.657031 107.887539 
L 257.742208 108.02502 
L 259.44576 118.842204 
L 259.530937 118.517251 
L 260.382713 113.399242 
L 260.638246 111.874462 
L 261.660377 106.22528 
L 262.426975 102.625801 
L 262.852863 100.463614 
L 262.93804 100.482362 
L 263.023218 100.607343 
L 263.278751 101.332238 
L 264.641592 104.63801 
L 265.152657 103.006996 
L 266.345144 99.076315 
L 266.856209 93.295902 
L 268.048695 79.666625 
L 268.133873 79.62913 
L 269.922602 87.271774 
L 270.007779 87.234279 
L 270.34849 86.934323 
L 270.433667 87.140543 
L 270.518845 87.103048 
L 271.285443 86.95307 
L 271.455798 87.003063 
L 271.540976 86.909326 
L 272.052041 88.090405 
L 272.307574 88.640326 
L 272.648284 89.37147 
L 273.244527 90.746271 
L 273.755593 87.546734 
L 274.181481 84.88462 
L 274.948079 79.779109 
L 275.033257 79.679123 
L 276.736808 87.259276 
L 276.907163 87.665467 
L 277.247874 88.652824 
L 277.588584 89.421463 
L 278.099649 90.896249 
L 278.184827 90.983737 
L 278.44036 91.677386 
L 278.695892 91.589899 
L 279.292135 90.908747 
L 279.632846 90.540051 
L 280.314266 89.640181 
L 280.654977 88.534091 
L 281.25122 87.109297 
L 282.102996 84.028494 
L 283.210304 76.767045 
L 283.72137 73.961201 
L 283.806547 74.111179 
L 284.317613 74.504872 
L 284.40279 74.498623 
L 284.658323 74.86732 
L 284.828678 74.929811 
L 284.913856 74.992302 
L 285.169388 75.404742 
L 285.339744 75.392244 
L 285.935987 78.38556 
L 286.447052 81.135162 
L 286.787762 82.941151 
L 287.128473 84.428436 
L 289.087557 71.780267 
L 290.535576 68.905683 
L 290.705931 69.68682 
L 292.324305 80.260289 
L 292.579838 79.035466 
L 294.027856 71.780267 
L 295.731408 82.235003 
L 295.816586 82.128769 
L 297.43496 75.6922 
L 297.605315 75.398493 
L 297.860848 75.27976 
L 298.201558 75.086038 
L 298.371913 75.179775 
L 298.457091 74.998551 
L 298.542268 75.054793 
L 299.053334 74.679847 
L 299.138511 74.754836 
L 299.223689 74.59236 
L 299.649577 77.616922 
L 300.501352 83.553562 
L 301.012418 86.503135 
L 301.693839 83.803526 
L 303.05668 79.372917 
L 303.823278 77.441947 
L 303.993633 77.154489 
L 304.675054 76.129637 
L 304.760231 76.029651 
L 304.845409 76.173381 
L 305.015764 76.092142 
L 305.271297 75.967161 
L 305.441652 75.942164 
L 305.52683 76.060897 
L 305.697185 75.935915 
L 306.037895 75.885922 
L 306.123073 75.942164 
L 306.293428 75.860926 
L 306.378605 75.804684 
L 306.463783 75.604713 
L 306.54896 75.667204 
L 306.719316 75.642208 
L 306.804493 75.629709 
L 306.974848 75.48598 
L 307.315559 75.41724 
L 307.485914 75.261013 
L 307.656269 75.317255 
L 307.826624 75.148529 
L 307.996979 74.611107 
L 308.508045 71.986487 
L 309.01911 69.511845 
L 309.615353 66.549774 
L 310.296774 70.555444 
L 311.318905 76.598319 
L 311.574438 73.679992 
L 312.596569 61.044321 
L 313.022456 55.713843 
L 313.107634 55.670099 
L 314.811186 72.911353 
L 314.981541 72.648891 
L 315.662961 71.630288 
L 316.088849 71.036624 
L 316.514737 70.467957 
L 316.685092 70.661679 
L 316.940625 71.13661 
L 317.11098 71.267841 
L 317.45169 71.711527 
L 318.303466 72.817616 
L 319.92184 71.13661 
L 320.092195 69.999274 
L 320.858794 63.550208 
L 321.455037 58.513437 
L 321.710569 56.251265 
L 323.414121 64.593807 
L 323.499299 64.387587 
L 324.436252 57.694806 
L 324.776962 55.157673 
L 325.373205 51.876898 
L 326.906402 49.570982 
L 328.609953 73.811223 
L 328.695131 73.998696 
L 329.972794 70.03052 
L 330.398682 68.674466 
L 331.250458 64.856269 
L 332.102234 61.000577 
L 332.613299 63.119021 
L 333.124365 65.081236 
L 335.083449 74.148674 
L 335.509337 76.31711 
L 335.594515 75.948413 
L 337.298066 50.364617 
L 337.383244 50.702068 
L 339.001618 58.019759 
L 339.171973 57.144885 
L 339.938571 52.264342 
L 340.279281 50.233386 
L 340.619992 48.083697 
L 340.790347 47.352553 
L 341.04588 47.046347 
L 341.216235 47.133835 
L 341.471768 46.89012 
L 341.556945 46.952611 
L 341.7273 46.808882 
L 342.068011 46.696398 
L 342.238366 46.6839 
L 342.408721 46.583914 
L 342.493898 46.652654 
L 344.19745 56.544972 
L 344.367805 55.426384 
L 345.986179 43.246897 
L 346.412067 45.177868 
L 346.923133 47.390048 
L 347.434198 49.589729 
L 348.882217 55.776334 
L 349.393282 57.932271 
L 350.159881 51.583191 
L 351.182011 43.359381 
L 352.885563 51.970634 
L 353.652161 48.183683 
L 354.078049 45.965254 
L 354.503937 43.915551 
L 354.589115 43.29689 
L 354.929825 45.496572 
L 355.270535 47.452539 
L 356.377844 53.745378 
L 356.633376 53.79537 
L 356.718554 53.720381 
L 356.803732 53.820367 
L 357.059264 53.701634 
L 357.144442 53.670388 
L 357.229619 53.807868 
L 357.399975 53.732879 
L 357.91104 53.814118 
L 358.081395 53.651641 
L 359.273881 47.477535 
L 359.699769 45.271604 
L 359.784947 44.846666 
L 360.636723 54.2828 
L 361.573676 64.431331 
L 361.829209 64.818774 
L 362.084741 65.393691 
L 362.169919 65.39994 
L 362.595807 66.318557 
L 362.680984 66.362301 
L 363.021695 67.118442 
L 363.19205 67.324662 
L 363.277228 67.19968 
L 364.043826 59.25708 
L 364.980779 49.608476 
L 365.065957 50.102155 
L 366.939863 59.250831 
L 368.387882 62.900302 
L 368.47306 62.725328 
L 369.495191 54.42028 
L 370.176611 48.946072 
L 371.028387 51.433212 
L 372.135696 54.720236 
L 372.476406 55.470128 
L 372.902294 56.582467 
L 373.328182 57.782293 
L 373.583715 58.544683 
L 373.668892 58.169737 
L 375.372444 37.235268 
L 375.457621 37.70395 
L 376.053864 41.36592 
L 377.416706 50.039664 
L 378.012949 54.845218 
L 378.779547 60.788108 
L 378.949902 61.450512 
L 379.03508 61.400519 
L 379.37579 61.969187 
L 380.483098 63.706435 
L 380.568276 63.562706 
L 381.590407 52.783017 
L 382.357005 45.421583 
L 382.612538 45.09663 
L 382.953248 45.02164 
L 383.123603 44.721684 
L 383.293958 44.721684 
L 383.549491 44.415478 
L 383.719846 44.327991 
L 384.145734 43.78432 
L 384.486445 43.184406 
L 384.6568 42.965688 
L 384.99751 42.172053 
L 385.764108 40.959729 
L 386.360351 43.984291 
L 386.786239 45.952756 
L 387.46766 49.289773 
L 387.893548 47.240069 
L 388.319436 45.002893 
L 389.086034 41.028469 
L 389.171211 40.578534 
L 389.256389 40.87849 
L 390.363697 50.258382 
L 390.704408 52.976739 
L 390.874763 54.320294 
L 390.95994 54.357789 
L 391.385828 48.946072 
L 392.663492 32.573443 
L 392.74867 33.404572 
L 394.452221 48.88983 
L 394.707754 49.883437 
L 395.218819 52.058122 
L 396.155773 56.063792 
L 396.496483 56.569969 
L 397.433436 58.207232 
L 397.518614 58.21973 
L 397.859324 58.725907 
L 399.562876 51.801909 
L 399.648053 51.995631 
L 400.329474 54.032836 
L 400.585007 54.757731 
L 401.266427 56.694951 
L 401.351605 56.601214 
L 401.86267 53.714132 
L 402.203381 51.789411 
L 402.884801 48.171185 
L 403.310689 45.809026 
L 403.821755 43.115666 
L 404.417998 40.078606 
L 404.588353 39.328715 
L 404.758708 38.360105 
L 405.099418 39.98487 
L 406.547437 47.415044 
L 406.888148 46.327701 
L 407.484391 44.47172 
L 408.250989 42.078317 
L 408.506522 42.709475 
L 409.784185 45.727788 
L 409.869363 45.802777 
L 409.95454 46.040243 
L 410.039718 45.840272 
L 410.124896 45.877767 
L 410.210073 45.809026 
L 410.210073 45.809026 
" style="fill:none;stroke:#006400;stroke-linecap:square;stroke-width:1.5;"/>
   </g>
   <g id="line2d_19">
    <path clip-path="url(#p6b21e8e64c)" d="M 33.64 305.026992 
L 33.98071 304.987029 
L 34.406598 304.933744 
L 34.491776 305.026992 
L 34.662131 305.462151 
L 34.917664 305.484353 
L 35.769439 305.146883 
L 36.024972 304.973707 
L 36.11015 304.978148 
L 36.195327 304.738366 
L 36.280505 305.066956 
L 36.365683 304.969267 
L 37.728524 302.416037 
L 37.898879 301.838786 
L 38.069234 302.535928 
L 39.176543 308.197437 
L 39.60243 310.049084 
L 39.857963 309.813742 
L 41.39116 305.271214 
L 42.242935 309.991358 
L 43.094711 313.996598 
L 43.265066 313.978837 
L 44.372375 310.919402 
L 44.88344 309.45407 
L 45.053795 309.751577 
L 45.309328 309.556199 
L 45.650039 309.143242 
L 46.246282 308.361732 
L 46.416637 308.068666 
L 46.586992 307.371523 
L 46.672169 307.691232 
L 46.927702 308.024262 
L 47.864656 308.437219 
L 48.205366 308.357291 
L 48.546076 306.949685 
L 48.886786 304.871578 
L 50.079273 297.749178 
L 50.590338 302.451561 
L 51.271759 308.330649 
L 51.782824 311.847445 
L 51.953179 312.020621 
L 52.97531 311.705352 
L 53.486376 311.168064 
L 54.678862 313.406025 
L 55.275105 314.143132 
L 55.360282 314.085406 
L 55.78617 312.069465 
L 56.723124 307.056255 
L 57.063834 304.702843 
L 58.25632 288.903903 
L 58.682208 282.656261 
L 58.937741 285.271656 
L 59.789517 294.485485 
L 60.38576 300.77309 
L 60.470937 300.835255 
L 60.72647 299.143463 
L 62.174489 288.020263 
L 62.259666 288.308889 
L 62.515199 288.677443 
L 63.366975 289.512238 
L 63.452152 289.458953 
L 63.707685 289.663211 
L 63.792863 289.676532 
L 63.87804 289.374585 
L 64.644638 292.784812 
L 65.411237 295.897532 
L 65.581592 296.417058 
L 65.666769 296.385975 
L 66.00748 295.373564 
L 67.966564 289.103721 
L 68.988695 286.612657 
L 69.073873 286.09313 
L 69.244228 286.75475 
L 69.670116 286.772511 
L 69.840471 286.745869 
L 70.096003 286.670382 
L 70.862602 286.257425 
L 72.395798 282.167817 
L 72.566153 281.679374 
L 72.821686 282.585215 
L 73.588284 284.454623 
L 74.184527 285.808945 
L 74.44006 285.218372 
L 75.973256 275.946818 
L 76.143612 276.879302 
L 77.761985 288.450982 
L 78.102696 289.894112 
L 78.869294 292.909143 
L 79.380359 294.925084 
L 79.465537 294.756349 
L 79.635892 295.182627 
L 80.232135 295.169306 
L 81.083911 294.676422 
L 81.169089 294.498806 
L 81.509799 291.474894 
L 82.87264 276.97255 
L 82.957818 276.621759 
L 83.383706 278.109293 
L 84.065126 280.169638 
L 84.405837 281.164287 
L 84.661369 281.670493 
L 84.746547 281.874751 
L 84.831724 281.821466 
L 85.00208 281.794824 
L 86.279743 280.960029 
L 86.364921 280.782413 
L 86.620454 278.757591 
L 87.557407 269.330624 
L 88.068472 264.05987 
L 88.15365 264.495029 
L 89.942379 294.698624 
L 90.283089 295.009452 
L 90.368267 294.902882 
L 90.6238 295.000571 
L 90.708977 294.942846 
L 90.879333 295.076058 
L 91.049688 295.049415 
L 91.390398 295.009452 
L 91.475576 295.005011 
L 91.645931 294.050325 
L 92.923594 281.159847 
L 93.349482 277.487637 
L 93.690193 279.357045 
L 94.541968 283.548782 
L 95.308567 288.038025 
L 96.24552 295.036094 
L 96.756585 298.264264 
L 96.926941 297.558241 
L 98.119427 289.769781 
L 99.311913 281.07992 
L 100.248866 274.157337 
L 101.185819 282.571894 
L 102.122773 289.476714 
L 103.485614 291.954457 
L 103.570792 292.052146 
L 103.655969 291.958897 
L 103.911502 292.256404 
L 104.252212 292.198679 
L 105.274343 291.923374 
L 105.615054 291.021973 
L 106.381652 287.114422 
L 107.14825 282.913804 
L 108.085203 288.624158 
L 108.851802 292.669361 
L 108.936979 292.65604 
L 110.640531 282.571894 
L 110.725708 282.718427 
L 111.066419 282.229983 
L 111.662662 281.253095 
L 112.003372 280.702486 
L 112.344082 279.894333 
L 113.962456 286.408399 
L 114.047634 286.519409 
L 114.388344 287.922575 
L 115.410475 291.386086 
L 115.751185 292.167596 
L 115.921541 292.402937 
L 116.262251 292.163156 
L 117.454737 290.582374 
L 117.539915 290.258225 
L 117.71027 290.462483 
L 117.965802 289.942956 
L 119.158288 287.602866 
L 119.328644 286.910164 
L 119.839709 285.458153 
L 122.650569 275.476136 
L 122.735747 274.783434 
L 123.246812 281.031075 
L 124.524476 293.87271 
L 125.376252 291.363884 
L 126.313205 287.487416 
L 127.420514 280.240684 
L 127.931579 276.546272 
L 128.016757 276.595116 
L 128.272289 276.159957 
L 128.698177 275.374007 
L 129.379598 274.18842 
L 129.635131 273.193771 
L 129.890663 275.29408 
L 131.338682 284.383577 
L 131.42386 284.392457 
L 131.76457 281.830347 
L 133.127411 270.95581 
L 135.086496 289.858589 
L 136.023449 294.361153 
L 136.534514 296.363773 
L 136.70487 296.479224 
L 137.301113 294.960607 
L 138.323244 291.967778 
L 140.19715 301.44359 
L 140.708216 302.353872 
L 141.645169 303.637147 
L 141.815524 303.481733 
L 142.411767 299.374364 
L 143.433898 291.692474 
L 144.370852 285.373786 
L 145.222627 279.170548 
L 145.648515 282.736188 
L 147.011357 291.981099 
L 147.6076 288.908343 
L 148.714908 283.100301 
L 149.140796 284.805414 
L 149.566684 286.235223 
L 150.248105 288.468744 
L 150.503637 289.161446 
L 151.09988 291.261755 
L 151.270235 291.736878 
L 152.036834 293.921554 
L 152.122011 293.779461 
L 153.825563 305.639767 
L 154.251451 306.625536 
L 155.358759 307.708993 
L 155.529114 307.67347 
L 155.69947 306.749867 
L 157.317844 292.092109 
L 157.403021 292.42958 
L 157.658554 292.980189 
L 158.254797 293.695094 
L 158.595507 294.205739 
L 158.936217 294.494365 
L 159.447283 294.10361 
L 159.787993 293.566322 
L 160.724947 291.794603 
L 160.810124 291.399407 
L 160.895302 291.53706 
L 161.491545 290.307069 
L 162.428498 288.197879 
L 162.513676 287.691674 
L 163.109919 290.839917 
L 163.876517 294.272345 
L 164.217227 295.604465 
L 164.302405 295.746558 
L 164.81347 292.567232 
L 166.005956 285.009673 
L 167.113265 290.378115 
L 168.050218 293.681772 
L 168.561284 294.529889 
L 169.157527 295.462372 
L 169.327882 295.635548 
L 169.498237 295.586704 
L 169.75377 295.755439 
L 170.350013 295.750998 
L 170.775901 295.711035 
L 171.031434 295.675512 
L 171.201789 295.55118 
L 171.372144 295.866449 
L 171.627677 295.826485 
L 171.798032 295.853128 
L 172.309097 295.65331 
L 172.56463 295.671071 
L 172.820163 295.422409 
L 172.90534 295.164866 
L 173.160873 295.813164 
L 173.757116 296.66128 
L 174.183004 297.118641 
L 174.523714 297.460552 
L 174.608892 297.22077 
L 174.779247 297.695893 
L 175.205135 298.699423 
L 176.227266 300.724245 
L 176.312443 300.77309 
L 176.482799 301.052835 
L 176.738331 300.679841 
L 177.50493 299.303318 
L 178.271528 297.54492 
L 178.612238 296.634638 
L 179.804724 292.718206 
L 179.889902 293.108961 
L 180.486145 294.485485 
L 181.423098 296.461462 
L 181.678631 296.465903 
L 182.274874 295.031654 
L 183.297005 292.43402 
L 184.233958 297.291817 
L 185.596799 302.44712 
L 186.61893 305.089158 
L 186.789286 304.987029 
L 187.044818 303.854727 
L 187.981772 298.575092 
L 188.492837 295.413528 
L 188.833547 296.732327 
L 190.026034 300.675401 
L 190.877809 302.487084 
L 191.21852 303.295236 
L 191.644408 304.138912 
L 191.814763 304.365373 
L 191.985118 304.409777 
L 192.411006 305.630886 
L 193.092426 307.313798 
L 193.603492 308.45498 
L 193.688669 308.423897 
L 193.859025 307.815563 
L 195.307043 298.792672 
L 195.392221 298.006721 
L 197.095773 311.962896 
L 197.351305 312.23376 
L 198.203081 312.611194 
L 198.714147 312.686681 
L 198.884502 312.562349 
L 199.054857 311.874088 
L 200.417698 304.884899 
L 200.588053 303.828084 
L 202.291605 317.753176 
L 202.376782 317.695451 
L 202.973025 315.541857 
L 204.080334 311.12366 
L 204.250689 311.483332 
L 204.421044 311.474452 
L 204.846932 311.336799 
L 205.102465 311.203587 
L 205.27282 311.105899 
L 205.698708 310.652978 
L 206.039418 309.245371 
L 207.231904 302.211779 
L 207.487437 300.275765 
L 207.74297 302.096329 
L 208.935456 312.0073 
L 209.276166 314.276344 
L 209.446521 313.890029 
L 210.979718 307.828884 
L 211.320428 309.143242 
L 212.768447 313.055234 
L 213.194335 313.148482 
L 214.046111 313.099638 
L 214.471998 313.033032 
L 214.642354 313.175125 
L 214.897886 313.135161 
L 216.17555 312.704442 
L 216.431083 312.477982 
L 217.793924 310.45316 
L 217.879102 310.146772 
L 218.390167 311.35012 
L 219.582653 313.499274 
L 219.667831 313.508154 
L 220.519607 315.270993 
L 221.286205 316.762967 
L 221.371382 316.749646 
L 221.967625 315.550738 
L 222.734224 313.863386 
L 223.160111 312.926462 
L 223.671177 310.426517 
L 224.778485 304.489704 
L 224.863663 304.476383 
L 225.119196 304.955946 
L 225.630261 305.5554 
L 226.226504 306.332469 
L 226.567215 306.594453 
L 227.504168 311.629866 
L 228.441121 315.484132 
L 229.037364 316.46546 
L 229.803963 317.619964 
L 230.059495 317.704332 
L 230.400206 316.998308 
L 231.763047 313.743496 
L 231.933402 313.836744 
L 233.892486 312.171594 
L 234.744262 310.826153 
L 235.17015 309.89367 
L 235.255328 310.022441 
L 235.851571 312.189356 
L 236.618169 314.90688 
L 236.958879 315.786079 
L 237.129234 315.697271 
L 237.469945 315.333159 
L 238.492076 313.601403 
L 238.662431 313.206207 
L 238.917963 313.521476 
L 239.343851 313.921112 
L 240.11045 314.453959 
L 240.45116 314.245261 
L 240.79187 312.060584 
L 242.154711 302.868958 
L 243.858263 317.522275 
L 244.028618 317.429027 
L 244.454506 316.660838 
L 245.561815 314.604933 
L 245.73217 313.801221 
L 247.520899 300.200278 
L 248.031964 296.55027 
L 249.054095 288.712966 
L 250.416936 303.872488 
L 250.757647 306.652178 
L 251.609423 308.907901 
L 252.461198 310.728465 
L 252.546376 310.621895 
L 253.227797 304.276565 
L 254.249927 294.307869 
L 254.760993 298.748268 
L 255.953479 307.917692 
L 256.123834 308.050904 
L 256.549722 307.864407 
L 256.890432 307.682351 
L 257.657031 307.189467 
L 257.997741 307.362642 
L 258.679162 307.429248 
L 258.934694 307.420367 
L 259.360582 307.380404 
L 259.530937 307.109539 
L 260.042003 305.288976 
L 260.893779 302.047484 
L 261.149311 300.986229 
L 261.404844 301.767739 
L 262.512153 303.486174 
L 263.023218 303.67267 
L 263.619461 302.509286 
L 264.045349 301.625646 
L 265.152657 299.352162 
L 266.089611 297.491635 
L 266.345144 296.581353 
L 266.430321 296.909943 
L 266.685854 296.066267 
L 268.048695 290.116132 
L 268.133873 290.116132 
L 268.304228 290.244903 
L 269.667069 290.871 
L 269.837424 290.742228 
L 270.178135 292.420699 
L 270.859555 295.040534 
L 271.540976 297.118641 
L 271.626153 296.936585 
L 272.392752 292.092109 
L 273.244527 286.141975 
L 273.414883 286.799154 
L 274.948079 294.174657 
L 275.033257 293.899352 
L 275.714677 283.819646 
L 276.736808 268.105073 
L 277.503406 275.045417 
L 278.78107 284.388017 
L 280.143911 289.614367 
L 280.229089 289.263575 
L 281.93264 262.980853 
L 282.017818 263.593628 
L 282.614061 266.719669 
L 283.125126 269.17521 
L 283.636192 271.657393 
L 284.06208 269.557084 
L 284.658323 266.573136 
L 285.424921 262.190462 
L 286.87294 241.089685 
L 287.21365 237.328667 
L 287.639538 236.560478 
L 287.980248 235.756766 
L 288.406136 234.815401 
L 288.746847 234.096056 
L 288.832024 233.612053 
L 289.428267 240.312615 
L 290.620753 252.279491 
L 290.876286 251.662275 
L 291.302174 250.623222 
L 292.068772 248.500711 
L 292.324305 247.617072 
L 293.857501 235.703481 
L 294.113034 234.002808 
L 295.049987 230.938933 
L 295.64623 228.811981 
L 295.731408 228.518915 
L 295.986941 230.312836 
L 297.520137 241.729103 
L 299.479221 210.468693 
L 301.012418 193.870481 
L 301.864194 192.600527 
L 302.204904 192.063238 
L 302.290082 192.018834 
L 302.630792 191.499308 
L 302.715969 191.588116 
L 303.908456 198.808205 
L 304.419521 201.65006 
L 304.504699 201.419159 
L 304.930586 199.98491 
L 305.441652 198.173227 
L 306.123073 195.704366 
L 306.54896 201.898722 
L 307.826624 221.507525 
L 307.911802 221.054604 
L 309.785708 174.554744 
L 309.956064 174.425973 
L 310.211596 174.292761 
L 310.552307 174.119585 
L 310.807839 173.853161 
L 310.893017 174.021897 
L 311.14855 173.804317 
L 311.318905 173.648903 
L 312.000325 178.355726 
L 313.022456 185.549173 
L 313.107634 185.646862 
L 314.129765 179.29265 
L 314.981541 174.914417 
L 315.151896 174.736801 
L 315.492606 174.066301 
L 316.088849 172.94288 
L 316.514737 172.139167 
L 318.303466 151.615643 
L 320.007018 164.657095 
L 320.092195 164.501681 
L 321.540214 161.828561 
L 321.966102 160.625212 
L 323.243766 155.949472 
L 323.584476 155.345578 
L 323.840009 155.558717 
L 325.20285 156.642174 
L 325.54356 157.330436 
L 325.884271 158.165231 
L 326.565691 159.772656 
L 326.906402 160.478679 
L 328.780308 110.044626 
L 330.313505 107.011833 
L 330.398682 107.393708 
L 331.676346 128.725385 
L 332.102234 135.656848 
L 333.805785 115.199929 
L 333.890963 115.244333 
L 334.657561 119.43607 
L 335.679692 126.194358 
L 337.298066 149.710711 
L 337.468421 149.515334 
L 337.809132 148.92032 
L 338.57573 147.716972 
L 338.831263 147.36174 
L 339.683038 146.198356 
L 339.768216 146.211677 
L 340.534814 145.203706 
L 340.705169 144.995007 
L 340.875524 144.106928 
L 342.493898 132.428678 
L 344.19745 88.002485 
L 344.452983 96.29271 
L 345.986179 148.605052 
L 346.923133 115.808264 
L 347.689731 90.000664 
L 347.774908 90.124995 
L 348.626684 90.999754 
L 348.967394 91.497079 
L 349.222927 91.776824 
L 349.308105 91.927797 
L 349.393282 91.870072 
L 349.989525 86.124196 
L 350.841301 77.523143 
L 351.096834 75.0454 
L 351.182011 75.671496 
L 353.566984 117.340202 
L 354.503937 131.132081 
L 354.674292 132.681781 
L 355.10018 133.849606 
L 355.355713 134.435738 
L 355.696423 135.323818 
L 356.122311 136.411716 
L 356.292666 136.949004 
L 356.463021 134.639997 
L 357.655507 113.663551 
L 358.081395 107.056237 
L 358.762816 111.523279 
L 359.103526 113.925535 
L 359.784947 118.405897 
L 359.870124 118.063987 
L 361.488498 110.417619 
L 361.744031 111.110322 
L 362.425452 113.326081 
L 363.19205 115.910393 
L 363.362405 115.999201 
L 363.447583 116.048046 
L 363.617938 115.923714 
L 364.214181 115.65285 
L 364.980779 115.270976 
L 366.684331 90.027307 
L 366.854686 91.474877 
L 368.387882 110.435381 
L 368.47306 110.120113 
L 370.006256 74.414863 
L 370.432144 67.274702 
L 371.880163 49.624115 
L 371.965341 50.3479 
L 374.350313 84.339155 
L 375.372444 100.107013 
L 377.075995 77.469858 
L 377.161173 78.255809 
L 377.842593 89.294641 
L 378.864724 104.463044 
L 379.546145 97.762482 
L 380.227566 91.337224 
L 380.908986 84.356917 
L 382.101472 71.990405 
L 382.271827 70.232007 
L 383.379136 93.224394 
L 383.975379 106.034946 
L 384.060557 105.435492 
L 385.764108 66.328896 
L 385.849286 66.617522 
L 387.46766 72.021488 
L 389.256389 58.118598 
L 389.597099 57.69232 
L 390.022987 57.070664 
L 390.108165 57.070664 
L 390.27852 56.79536 
L 390.61923 56.449008 
L 390.789585 56.187025 
L 390.874763 56.062694 
L 390.95994 56.404604 
L 392.663492 89.40121 
L 393.685623 68.251589 
L 394.452221 54.028991 
L 396.24095 66.857304 
L 396.496483 67.603291 
L 397.433436 70.618322 
L 397.859324 71.977084 
L 398.7111 69.952262 
L 399.05181 69.046421 
L 399.392521 68.313755 
L 399.562876 67.896357 
L 400.159119 61.826332 
L 401.266427 50.281294 
L 401.351605 50.601003 
L 403.055157 78.6066 
L 403.140334 77.887255 
L 406.717792 48.607264 
L 407.058503 46.466991 
L 408.250989 39.078167 
L 409.95454 60.92049 
L 410.210073 59.24646 
L 410.210073 59.24646 
" style="fill:none;stroke:#a0522d;stroke-linecap:square;stroke-width:1.5;"/>
   </g>
   <g id="patch_3">
    <path d="M 33.64 330.79152 
L 33.64 25.33824 
" style="fill:none;stroke:#000000;stroke-linecap:square;stroke-linejoin:miter;stroke-width:0.8;"/>
   </g>
   <g id="patch_4">
    <path d="M 410.175 330.79152 
L 410.175 25.33824 
" style="fill:none;stroke:#000000;stroke-linecap:square;stroke-linejoin:miter;stroke-width:0.8;"/>
   </g>
   <g id="patch_5">
    <path d="M 33.64 330.79152 
L 410.175 330.79152 
" style="fill:none;stroke:#000000;stroke-linecap:square;stroke-linejoin:miter;stroke-width:0.8;"/>
   </g>
   <g id="patch_6">
    <path d="M 33.64 25.33824 
L 410.175 25.33824 
" style="fill:none;stroke:#000000;stroke-linecap:square;stroke-linejoin:miter;stroke-width:0.8;"/>
   </g>
   <g id="text_16">
    <!-- FCVC_close -->
    <defs>
     <path d="M 9.8125 72.90625 
L 51.703125 72.90625 
L 51.703125 64.59375 
L 19.671875 64.59375 
L 19.671875 43.109375 
L 48.578125 43.109375 
L 48.578125 34.8125 
L 19.671875 34.8125 
L 19.671875 0 
L 9.8125 0 
z
" id="DejaVuSans-46"/>
     <path d="M 64.40625 67.28125 
L 64.40625 56.890625 
Q 59.421875 61.53125 53.78125 63.8125 
Q 48.140625 66.109375 41.796875 66.109375 
Q 29.296875 66.109375 22.65625 58.46875 
Q 16.015625 50.828125 16.015625 36.375 
Q 16.015625 21.96875 22.65625 14.328125 
Q 29.296875 6.6875 41.796875 6.6875 
Q 48.140625 6.6875 53.78125 8.984375 
Q 59.421875 11.28125 64.40625 15.921875 
L 64.40625 5.609375 
Q 59.234375 2.09375 53.4375 0.328125 
Q 47.65625 -1.421875 41.21875 -1.421875 
Q 24.65625 -1.421875 15.125 8.703125 
Q 5.609375 18.84375 5.609375 36.375 
Q 5.609375 53.953125 15.125 64.078125 
Q 24.65625 74.21875 41.21875 74.21875 
Q 47.75 74.21875 53.53125 72.484375 
Q 59.328125 70.75 64.40625 67.28125 
z
" id="DejaVuSans-43"/>
     <path d="M 28.609375 0 
L 0.78125 72.90625 
L 11.078125 72.90625 
L 34.1875 11.53125 
L 57.328125 72.90625 
L 67.578125 72.90625 
L 39.796875 0 
z
" id="DejaVuSans-56"/>
     <path d="M 50.984375 -16.609375 
L 50.984375 -23.578125 
L -0.984375 -23.578125 
L -0.984375 -16.609375 
z
" id="DejaVuSans-5f"/>
     <path d="M 48.78125 52.59375 
L 48.78125 44.1875 
Q 44.96875 46.296875 41.140625 47.34375 
Q 37.3125 48.390625 33.40625 48.390625 
Q 24.65625 48.390625 19.8125 42.84375 
Q 14.984375 37.3125 14.984375 27.296875 
Q 14.984375 17.28125 19.8125 11.734375 
Q 24.65625 6.203125 33.40625 6.203125 
Q 37.3125 6.203125 41.140625 7.25 
Q 44.96875 8.296875 48.78125 10.40625 
L 48.78125 2.09375 
Q 45.015625 0.34375 40.984375 -0.53125 
Q 36.96875 -1.421875 32.421875 -1.421875 
Q 20.0625 -1.421875 12.78125 6.34375 
Q 5.515625 14.109375 5.515625 27.296875 
Q 5.515625 40.671875 12.859375 48.328125 
Q 20.21875 56 33.015625 56 
Q 37.15625 56 41.109375 55.140625 
Q 45.0625 54.296875 48.78125 52.59375 
z
" id="DejaVuSans-63"/>
     <path d="M 9.421875 75.984375 
L 18.40625 75.984375 
L 18.40625 0 
L 9.421875 0 
z
" id="DejaVuSans-6c"/>
     <path d="M 30.609375 48.390625 
Q 23.390625 48.390625 19.1875 42.75 
Q 14.984375 37.109375 14.984375 27.296875 
Q 14.984375 17.484375 19.15625 11.84375 
Q 23.34375 6.203125 30.609375 6.203125 
Q 37.796875 6.203125 41.984375 11.859375 
Q 46.1875 17.53125 46.1875 27.296875 
Q 46.1875 37.015625 41.984375 42.703125 
Q 37.796875 48.390625 30.609375 48.390625 
z
M 30.609375 56 
Q 42.328125 56 49.015625 48.375 
Q 55.71875 40.765625 55.71875 27.296875 
Q 55.71875 13.875 49.015625 6.21875 
Q 42.328125 -1.421875 30.609375 -1.421875 
Q 18.84375 -1.421875 12.171875 6.21875 
Q 5.515625 13.875 5.515625 27.296875 
Q 5.515625 40.765625 12.171875 48.375 
Q 18.84375 56 30.609375 56 
z
" id="DejaVuSans-6f"/>
     <path d="M 44.28125 53.078125 
L 44.28125 44.578125 
Q 40.484375 46.53125 36.375 47.5 
Q 32.28125 48.484375 27.875 48.484375 
Q 21.1875 48.484375 17.84375 46.4375 
Q 14.5 44.390625 14.5 40.28125 
Q 14.5 37.15625 16.890625 35.375 
Q 19.28125 33.59375 26.515625 31.984375 
L 29.59375 31.296875 
Q 39.15625 29.25 43.1875 25.515625 
Q 47.21875 21.78125 47.21875 15.09375 
Q 47.21875 7.46875 41.1875 3.015625 
Q 35.15625 -1.421875 24.609375 -1.421875 
Q 20.21875 -1.421875 15.453125 -0.5625 
Q 10.6875 0.296875 5.421875 2 
L 5.421875 11.28125 
Q 10.40625 8.6875 15.234375 7.390625 
Q 20.0625 6.109375 24.8125 6.109375 
Q 31.15625 6.109375 34.5625 8.28125 
Q 37.984375 10.453125 37.984375 14.40625 
Q 37.984375 18.0625 35.515625 20.015625 
Q 33.0625 21.96875 24.703125 23.78125 
L 21.578125 24.515625 
Q 13.234375 26.265625 9.515625 29.90625 
Q 5.8125 33.546875 5.8125 39.890625 
Q 5.8125 47.609375 11.28125 51.796875 
Q 16.75 56 26.8125 56 
Q 31.78125 56 36.171875 55.265625 
Q 40.578125 54.546875 44.28125 53.078125 
z
" id="DejaVuSans-73"/>
     <path d="M 56.203125 29.59375 
L 56.203125 25.203125 
L 14.890625 25.203125 
Q 15.484375 15.921875 20.484375 11.0625 
Q 25.484375 6.203125 34.421875 6.203125 
Q 39.59375 6.203125 44.453125 7.46875 
Q 49.3125 8.734375 54.109375 11.28125 
L 54.109375 2.78125 
Q 49.265625 0.734375 44.1875 -0.34375 
Q 39.109375 -1.421875 33.890625 -1.421875 
Q 20.796875 -1.421875 13.15625 6.1875 
Q 5.515625 13.8125 5.515625 26.8125 
Q 5.515625 40.234375 12.765625 48.109375 
Q 20.015625 56 32.328125 56 
Q 43.359375 56 49.78125 48.890625 
Q 56.203125 41.796875 56.203125 29.59375 
z
M 47.21875 32.234375 
Q 47.125 39.59375 43.09375 43.984375 
Q 39.0625 48.390625 32.421875 48.390625 
Q 24.90625 48.390625 20.390625 44.140625 
Q 15.875 39.890625 15.1875 32.171875 
z
" id="DejaVuSans-65"/>
    </defs>
    <g transform="translate(187.518125 19.33824)scale(0.12 -0.12)">
     <use xlink:href="#DejaVuSans-46"/>
     <use x="57.519531" xlink:href="#DejaVuSans-43"/>
     <use x="127.34375" xlink:href="#DejaVuSans-56"/>
     <use x="195.751953" xlink:href="#DejaVuSans-43"/>
     <use x="265.576172" xlink:href="#DejaVuSans-5f"/>
     <use x="315.576172" xlink:href="#DejaVuSans-63"/>
     <use x="370.556641" xlink:href="#DejaVuSans-6c"/>
     <use x="398.339844" xlink:href="#DejaVuSans-6f"/>
     <use x="459.521484" xlink:href="#DejaVuSans-73"/>
     <use x="511.621094" xlink:href="#DejaVuSans-65"/>
    </g>
   </g>
   <g id="legend_1">
    <g id="patch_7">
     <path d="M 40.64 208.92113 
L 86.736875 208.92113 
Q 88.736875 208.92113 88.736875 206.92113 
L 88.736875 149.20863 
Q 88.736875 147.20863 86.736875 147.20863 
L 40.64 147.20863 
Q 38.64 147.20863 38.64 149.20863 
L 38.64 206.92113 
Q 38.64 208.92113 40.64 208.92113 
z
" style="fill:#ffffff;opacity:0.8;stroke:#cccccc;stroke-linejoin:miter;"/>
    </g>
    <g id="line2d_20">
     <path d="M 42.64 155.307068 
L 62.64 155.307068 
" style="fill:none;stroke:#191970;stroke-linecap:square;stroke-width:1.5;"/>
    </g>
    <g id="line2d_21"/>
    <g id="text_17">
     <!-- Co -->
     <g transform="translate(70.64 158.807068)scale(0.1 -0.1)">
      <use xlink:href="#DejaVuSans-43"/>
      <use x="69.824219" xlink:href="#DejaVuSans-6f"/>
     </g>
    </g>
    <g id="line2d_22">
     <path d="M 42.64 169.985193 
L 62.64 169.985193 
" style="fill:none;stroke:#b8860b;stroke-linecap:square;stroke-width:1.5;"/>
    </g>
    <g id="line2d_23"/>
    <g id="text_18">
     <!-- Gd -->
     <defs>
      <path d="M 59.515625 10.40625 
L 59.515625 29.984375 
L 43.40625 29.984375 
L 43.40625 38.09375 
L 69.28125 38.09375 
L 69.28125 6.78125 
Q 63.578125 2.734375 56.6875 0.65625 
Q 49.8125 -1.421875 42 -1.421875 
Q 24.90625 -1.421875 15.25 8.5625 
Q 5.609375 18.5625 5.609375 36.375 
Q 5.609375 54.25 15.25 64.234375 
Q 24.90625 74.21875 42 74.21875 
Q 49.125 74.21875 55.546875 72.453125 
Q 61.96875 70.703125 67.390625 67.28125 
L 67.390625 56.78125 
Q 61.921875 61.421875 55.765625 63.765625 
Q 49.609375 66.109375 42.828125 66.109375 
Q 29.4375 66.109375 22.71875 58.640625 
Q 16.015625 51.171875 16.015625 36.375 
Q 16.015625 21.625 22.71875 14.15625 
Q 29.4375 6.6875 42.828125 6.6875 
Q 48.046875 6.6875 52.140625 7.59375 
Q 56.25 8.5 59.515625 10.40625 
z
" id="DejaVuSans-47"/>
      <path d="M 45.40625 46.390625 
L 45.40625 75.984375 
L 54.390625 75.984375 
L 54.390625 0 
L 45.40625 0 
L 45.40625 8.203125 
Q 42.578125 3.328125 38.25 0.953125 
Q 33.9375 -1.421875 27.875 -1.421875 
Q 17.96875 -1.421875 11.734375 6.484375 
Q 5.515625 14.40625 5.515625 27.296875 
Q 5.515625 40.1875 11.734375 48.09375 
Q 17.96875 56 27.875 56 
Q 33.9375 56 38.25 53.625 
Q 42.578125 51.265625 45.40625 46.390625 
z
M 14.796875 27.296875 
Q 14.796875 17.390625 18.875 11.75 
Q 22.953125 6.109375 30.078125 6.109375 
Q 37.203125 6.109375 41.296875 11.75 
Q 45.40625 17.390625 45.40625 27.296875 
Q 45.40625 37.203125 41.296875 42.84375 
Q 37.203125 48.484375 30.078125 48.484375 
Q 22.953125 48.484375 18.875 42.84375 
Q 14.796875 37.203125 14.796875 27.296875 
z
" id="DejaVuSans-64"/>
     </defs>
     <g transform="translate(70.64 173.485193)scale(0.1 -0.1)">
      <use xlink:href="#DejaVuSans-47"/>
      <use x="77.490234" xlink:href="#DejaVuSans-64"/>
     </g>
    </g>
    <g id="line2d_24">
     <path d="M 42.64 184.663318 
L 62.64 184.663318 
" style="fill:none;stroke:#006400;stroke-linecap:square;stroke-width:1.5;"/>
    </g>
    <g id="line2d_25"/>
    <g id="text_19">
     <!-- Ni -->
     <defs>
      <path d="M 9.8125 72.90625 
L 23.09375 72.90625 
L 55.421875 11.921875 
L 55.421875 72.90625 
L 64.984375 72.90625 
L 64.984375 0 
L 51.703125 0 
L 19.390625 60.984375 
L 19.390625 0 
L 9.8125 0 
z
" id="DejaVuSans-4e"/>
      <path d="M 9.421875 54.6875 
L 18.40625 54.6875 
L 18.40625 0 
L 9.421875 0 
z
M 9.421875 75.984375 
L 18.40625 75.984375 
L 18.40625 64.59375 
L 9.421875 64.59375 
z
" id="DejaVuSans-69"/>
     </defs>
     <g transform="translate(70.64 188.163318)scale(0.1 -0.1)">
      <use xlink:href="#DejaVuSans-4e"/>
      <use x="74.804688" xlink:href="#DejaVuSans-69"/>
     </g>
    </g>
    <g id="line2d_26">
     <path d="M 42.64 199.341443 
L 62.64 199.341443 
" style="fill:none;stroke:#a0522d;stroke-linecap:square;stroke-width:1.5;"/>
    </g>
    <g id="line2d_27"/>
    <g id="text_20">
     <!-- O -->
     <defs>
      <path d="M 39.40625 66.21875 
Q 28.65625 66.21875 22.328125 58.203125 
Q 16.015625 50.203125 16.015625 36.375 
Q 16.015625 22.609375 22.328125 14.59375 
Q 28.65625 6.59375 39.40625 6.59375 
Q 50.140625 6.59375 56.421875 14.59375 
Q 62.703125 22.609375 62.703125 36.375 
Q 62.703125 50.203125 56.421875 58.203125 
Q 50.140625 66.21875 39.40625 66.21875 
z
M 39.40625 74.21875 
Q 54.734375 74.21875 63.90625 63.9375 
Q 73.09375 53.65625 73.09375 36.375 
Q 73.09375 19.140625 63.90625 8.859375 
Q 54.734375 -1.421875 39.40625 -1.421875 
Q 24.03125 -1.421875 14.8125 8.828125 
Q 5.609375 19.09375 5.609375 36.375 
Q 5.609375 53.65625 14.8125 63.9375 
Q 24.03125 74.21875 39.40625 74.21875 
z
" id="DejaVuSans-4f"/>
     </defs>
     <g transform="translate(70.64 202.841443)scale(0.1 -0.1)">
      <use xlink:href="#DejaVuSans-4f"/>
     </g>
    </g>
   </g>
  </g>
 </g>
 <defs>
  <clipPath id="p6b21e8e64c">
   <rect height="305.45328" width="376.535" x="33.64" y="25.33824"/>
  </clipPath>
 </defs>
</svg>
