<?xml version="1.0" encoding="utf-8" standalone="no"?>
<!DOCTYPE svg PUBLIC "-//W3C//DTD SVG 1.1//EN"
  "http://www.w3.org/Graphics/SVG/1.1/DTD/svg11.dtd">
<!-- Created with matplotlib (http://matplotlib.org/) -->
<svg height="286.56pt" version="1.1" viewBox="0 0 288 286.56" width="288pt" xmlns="http://www.w3.org/2000/svg" xmlns:xlink="http://www.w3.org/1999/xlink">
 <defs>
  <style type="text/css">
*{stroke-linecap:butt;stroke-linejoin:round;}
  </style>
 </defs>
 <g id="figure_1">
  <g id="patch_1">
   <path d="M 0 286.56 
L 288 286.56 
L 288 0 
L 0 0 
z
" style="fill:#ffffff;"/>
  </g>
  <g id="axes_1">
   <g id="patch_2">
    <path d="M 24.19 258.8194 
L 274.68 258.8194 
L 274.68 25.3128 
L 24.19 25.3128 
z
" style="fill:#ffffff;"/>
   </g>
   <g id="matplotlib.axis_1">
    <g id="xtick_1">
     <g id="line2d_1">
      <defs>
       <path d="M 0 0 
L 0 3.5 
" id="m95cb94d202" style="stroke:#000000;stroke-width:0.8;"/>
      </defs>
      <g>
       <use style="stroke:#000000;stroke-width:0.8;" x="24.19" xlink:href="#m95cb94d202" y="258.8194"/>
      </g>
     </g>
     <g id="text_1">
      <!-- 0 -->
      <defs>
       <path d="M 31.78125 66.40625 
Q 24.171875 66.40625 20.328125 58.90625 
Q 16.5 51.421875 16.5 36.375 
Q 16.5 21.390625 20.328125 13.890625 
Q 24.171875 6.390625 31.78125 6.390625 
Q 39.453125 6.390625 43.28125 13.890625 
Q 47.125 21.390625 47.125 36.375 
Q 47.125 51.421875 43.28125 58.90625 
Q 39.453125 66.40625 31.78125 66.40625 
z
M 31.78125 74.21875 
Q 44.046875 74.21875 50.515625 64.515625 
Q 56.984375 54.828125 56.984375 36.375 
Q 56.984375 17.96875 50.515625 8.265625 
Q 44.046875 -1.421875 31.78125 -1.421875 
Q 19.53125 -1.421875 13.0625 8.265625 
Q 6.59375 17.96875 6.59375 36.375 
Q 6.59375 54.828125 13.0625 64.515625 
Q 19.53125 74.21875 31.78125 74.21875 
z
" id="DejaVuSans-30"/>
      </defs>
      <g transform="translate(21.00875 273.417838)scale(0.1 -0.1)">
       <use xlink:href="#DejaVuSans-30"/>
      </g>
     </g>
    </g>
    <g id="xtick_2">
     <g id="line2d_2">
      <g>
       <use style="stroke:#000000;stroke-width:0.8;" x="85.584608" xlink:href="#m95cb94d202" y="258.8194"/>
      </g>
     </g>
     <g id="text_2">
      <!-- 5 -->
      <defs>
       <path d="M 10.796875 72.90625 
L 49.515625 72.90625 
L 49.515625 64.59375 
L 19.828125 64.59375 
L 19.828125 46.734375 
Q 21.96875 47.46875 24.109375 47.828125 
Q 26.265625 48.1875 28.421875 48.1875 
Q 40.625 48.1875 47.75 41.5 
Q 54.890625 34.8125 54.890625 23.390625 
Q 54.890625 11.625 47.5625 5.09375 
Q 40.234375 -1.421875 26.90625 -1.421875 
Q 22.3125 -1.421875 17.546875 -0.640625 
Q 12.796875 0.140625 7.71875 1.703125 
L 7.71875 11.625 
Q 12.109375 9.234375 16.796875 8.0625 
Q 21.484375 6.890625 26.703125 6.890625 
Q 35.15625 6.890625 40.078125 11.328125 
Q 45.015625 15.765625 45.015625 23.390625 
Q 45.015625 31 40.078125 35.4375 
Q 35.15625 39.890625 26.703125 39.890625 
Q 22.75 39.890625 18.8125 39.015625 
Q 14.890625 38.140625 10.796875 36.28125 
z
" id="DejaVuSans-35"/>
      </defs>
      <g transform="translate(82.403358 273.417838)scale(0.1 -0.1)">
       <use xlink:href="#DejaVuSans-35"/>
      </g>
     </g>
    </g>
    <g id="xtick_3">
     <g id="line2d_3">
      <g>
       <use style="stroke:#000000;stroke-width:0.8;" x="146.979216" xlink:href="#m95cb94d202" y="258.8194"/>
      </g>
     </g>
     <g id="text_3">
      <!-- 10 -->
      <defs>
       <path d="M 12.40625 8.296875 
L 28.515625 8.296875 
L 28.515625 63.921875 
L 10.984375 60.40625 
L 10.984375 69.390625 
L 28.421875 72.90625 
L 38.28125 72.90625 
L 38.28125 8.296875 
L 54.390625 8.296875 
L 54.390625 0 
L 12.40625 0 
z
" id="DejaVuSans-31"/>
      </defs>
      <g transform="translate(140.616716 273.417838)scale(0.1 -0.1)">
       <use xlink:href="#DejaVuSans-31"/>
       <use x="63.623047" xlink:href="#DejaVuSans-30"/>
      </g>
     </g>
    </g>
    <g id="xtick_4">
     <g id="line2d_4">
      <g>
       <use style="stroke:#000000;stroke-width:0.8;" x="208.373824" xlink:href="#m95cb94d202" y="258.8194"/>
      </g>
     </g>
     <g id="text_4">
      <!-- 15 -->
      <g transform="translate(202.011324 273.417838)scale(0.1 -0.1)">
       <use xlink:href="#DejaVuSans-31"/>
       <use x="63.623047" xlink:href="#DejaVuSans-35"/>
      </g>
     </g>
    </g>
    <g id="xtick_5">
     <g id="line2d_5">
      <g>
       <use style="stroke:#000000;stroke-width:0.8;" x="269.768431" xlink:href="#m95cb94d202" y="258.8194"/>
      </g>
     </g>
     <g id="text_5">
      <!-- 20 -->
      <defs>
       <path d="M 19.1875 8.296875 
L 53.609375 8.296875 
L 53.609375 0 
L 7.328125 0 
L 7.328125 8.296875 
Q 12.9375 14.109375 22.625 23.890625 
Q 32.328125 33.6875 34.8125 36.53125 
Q 39.546875 41.84375 41.421875 45.53125 
Q 43.3125 49.21875 43.3125 52.78125 
Q 43.3125 58.59375 39.234375 62.25 
Q 35.15625 65.921875 28.609375 65.921875 
Q 23.96875 65.921875 18.8125 64.3125 
Q 13.671875 62.703125 7.8125 59.421875 
L 7.8125 69.390625 
Q 13.765625 71.78125 18.9375 73 
Q 24.125 74.21875 28.421875 74.21875 
Q 39.75 74.21875 46.484375 68.546875 
Q 53.21875 62.890625 53.21875 53.421875 
Q 53.21875 48.921875 51.53125 44.890625 
Q 49.859375 40.875 45.40625 35.40625 
Q 44.1875 33.984375 37.640625 27.21875 
Q 31.109375 20.453125 19.1875 8.296875 
z
" id="DejaVuSans-32"/>
      </defs>
      <g transform="translate(263.405931 273.417838)scale(0.1 -0.1)">
       <use xlink:href="#DejaVuSans-32"/>
       <use x="63.623047" xlink:href="#DejaVuSans-30"/>
      </g>
     </g>
    </g>
   </g>
   <g id="matplotlib.axis_2">
    <g id="ytick_1">
     <g id="line2d_6">
      <defs>
       <path d="M 0 0 
L -3.5 0 
" id="ma0ba048566" style="stroke:#000000;stroke-width:0.8;"/>
      </defs>
      <g>
       <use style="stroke:#000000;stroke-width:0.8;" x="24.19" xlink:href="#ma0ba048566" y="248.205464"/>
      </g>
     </g>
     <g id="text_6">
      <!-- 0 -->
      <g transform="translate(10.8275 252.004682)scale(0.1 -0.1)">
       <use xlink:href="#DejaVuSans-30"/>
      </g>
     </g>
    </g>
    <g id="ytick_2">
     <g id="line2d_7">
      <g>
       <use style="stroke:#000000;stroke-width:0.8;" x="24.19" xlink:href="#ma0ba048566" y="35.926736"/>
      </g>
     </g>
     <g id="text_7">
      <!-- 1 -->
      <g transform="translate(10.8275 39.725955)scale(0.1 -0.1)">
       <use xlink:href="#DejaVuSans-31"/>
      </g>
     </g>
    </g>
   </g>
   <g id="line2d_8">
    <path clip-path="url(#p84161f5dd9)" d="M 24.19 248.205464 
L 33.856281 248.098499 
L 34.634028 246.610436 
L 34.911794 246.154264 
L 35.856201 247.988389 
L 36.078414 248.205464 
L 36.245074 248.123667 
L 37.245034 247.551093 
L 38.300548 248.205464 
L 41.133768 248.101645 
L 41.911515 248.019849 
L 42.633708 248.205464 
L 44.078095 248.123667 
L 45.078055 246.258082 
L 45.133608 246.399653 
L 45.800248 247.522779 
L 46.411335 247.916031 
L 47.077975 247.953783 
L 47.689062 247.796482 
L 48.022382 247.658058 
L 48.577915 247.522779 
L 49.522322 248.205464 
L 49.688982 248.123667 
L 50.688942 245.455849 
L 50.800049 245.525061 
L 51.855562 244.72912 
L 53.022182 248.205464 
L 53.299949 248.101645 
L 53.799929 247.881424 
L 54.133249 247.654912 
L 55.188762 244.505754 
L 55.244316 244.622156 
L 56.355383 246.736276 
L 56.410936 246.692232 
L 56.577596 246.475157 
L 57.466449 244.958779 
L 57.522003 245.08462 
L 58.521963 246.292688 
L 58.633069 246.330441 
L 59.744136 248.205464 
L 59.855243 248.136251 
L 60.910756 246.280104 
L 61.96627 241.064017 
L 62.021823 241.287383 
L 63.13289 246.28325 
L 63.355103 245.528207 
L 64.243957 241.963776 
L 64.46617 242.463992 
L 65.410577 243.410941 
L 65.688343 242.957916 
L 66.521643 241.281091 
L 67.63271 246.651334 
L 68.021583 244.335869 
L 68.910437 239.610559 
L 69.79929 236.842069 
L 69.854844 236.56522 
L 69.910397 236.653308 
L 70.63259 238.704508 
L 71.13257 240.167403 
L 72.13253 245.805057 
L 72.243637 245.669778 
L 73.243597 243.253641 
L 73.299151 243.341729 
L 73.799131 245.484163 
L 74.410217 247.72727 
L 74.799091 244.379913 
L 75.521284 237.647448 
L 75.576837 237.911713 
L 75.632391 237.807894 
L 76.632351 233.850211 
L 76.687904 234.060994 
L 77.632311 240.205155 
L 77.798971 240.765145 
L 77.910078 240.699079 
L 78.410058 239.777298 
L 78.632271 239.321126 
L 78.910038 238.481141 
L 78.965591 238.629003 
L 79.076698 238.767428 
L 79.132251 238.735968 
L 79.354464 238.833494 
L 79.576678 238.846078 
L 79.965551 238.839786 
L 80.632191 238.138225 
L 81.187725 237.159816 
L 81.576598 238.059575 
L 82.243238 239.141803 
L 82.298791 239.135511 
L 82.465451 239.531909 
L 83.076538 239.30225 
L 83.409858 238.874392 
L 83.465411 238.981357 
L 83.632071 238.723384 
L 84.576478 236.448817 
L 84.909798 237.370599 
L 85.631992 239.015963 
L 85.854205 238.116203 
L 86.798612 231.352278 
L 87.909678 241.891418 
L 88.020785 241.661759 
L 89.076299 238.937313 
L 89.187405 239.258206 
L 89.242959 239.23933 
L 89.520725 239.110343 
L 89.687385 238.993941 
L 90.131812 238.761136 
L 90.187365 238.471703 
L 90.409579 239.2236 
L 90.742899 239.758422 
L 91.187325 240.466274 
L 91.242879 240.50088 
L 91.298432 240.286952 
L 91.353985 240.340434 
L 91.742859 241.642883 
L 92.409499 243.329145 
L 92.465052 243.174991 
L 92.853925 239.465843 
L 93.576119 232.129343 
L 93.631672 232.764837 
L 94.242759 238.584959 
L 94.853846 242.935894 
L 95.687146 243.898573 
L 95.853806 243.779025 
L 96.964872 248.196026 
L 97.075979 247.32458 
L 97.853726 237.644302 
L 98.131493 234.844351 
L 98.575919 236.514883 
L 99.187006 238.654171 
L 99.242559 238.616419 
L 99.353666 238.361592 
L 100.353626 234.130206 
L 100.409179 234.309529 
L 100.798053 234.63986 
L 101.186926 234.888395 
L 101.353586 234.948169 
L 101.409139 234.960753 
L 101.464693 234.627276 
L 102.631313 243.851383 
L 102.686866 243.734981 
L 103.297953 241.998382 
L 103.74238 240.447398 
L 103.797933 240.724247 
L 104.464573 243.1278 
L 104.909 244.392497 
L 105.24232 244.062166 
L 105.964513 242.95477 
L 106.131173 242.816345 
L 106.353387 242.357027 
L 107.07558 240.626721 
L 107.131133 240.497734 
L 107.4089 241.259069 
L 108.131093 242.630731 
L 109.186607 243.769587 
L 109.353267 243.753857 
L 109.74214 243.797901 
L 110.519887 243.797901 
L 110.7421 244.313847 
L 111.40874 245.216752 
L 111.5754 245.446411 
L 111.90872 244.628448 
L 112.74202 241.372326 
L 112.797574 241.406932 
L 113.519767 243.225327 
L 113.90864 243.854529 
L 114.186407 243.014544 
L 115.019707 240.003811 
L 115.297474 241.126937 
L 116.130774 242.995668 
L 116.241881 242.917018 
L 116.630754 242.196581 
L 117.297394 240.846942 
L 117.686267 242.174559 
L 118.630674 244.707098 
L 119.297314 246.069322 
L 119.519528 246.412237 
L 119.575081 246.399653 
L 119.908401 244.357891 
L 120.686148 239.481573 
L 120.741701 239.692355 
L 121.741661 243.074318 
L 121.797214 243.046004 
L 122.186088 244.367329 
L 122.908281 246.368193 
L 123.019388 246.245498 
L 123.686028 245.13181 
L 124.074901 244.452271 
L 124.797095 247.035147 
L 125.297075 248.205464 
L 126.574802 248.104791 
L 127.074782 247.79019 
L 127.796975 247.019417 
L 128.574722 245.543938 
L 128.630275 245.59742 
L 128.796935 245.575398 
L 129.519128 245.112934 
L 129.685788 244.836085 
L 130.574642 247.343456 
L 130.796855 247.787044 
L 130.852409 247.787044 
L 131.963475 245.050014 
L 132.019029 245.219898 
L 133.130095 248.117375 
L 133.796735 247.365478 
L 134.241162 246.893577 
L 134.741142 247.529071 
L 135.407782 248.076477 
L 136.463296 246.915599 
L 136.796616 247.205032 
L 137.574362 247.431545 
L 137.741022 246.07876 
L 138.740982 235.624562 
L 138.796536 236.269494 
L 139.963156 248.205464 
L 140.240923 248.101645 
L 141.185329 247.871986 
L 141.685309 247.985243 
L 142.074183 247.997827 
L 142.185289 247.642328 
L 143.407463 240.821774 
L 143.68523 240.497734 
L 144.18521 239.726962 
L 144.35187 239.295958 
L 144.796296 242.193435 
L 145.462936 246.18887 
L 145.51849 246.119658 
L 146.462896 230.244882 
L 146.629556 227.64313 
L 146.68511 227.765824 
L 146.796216 227.702904 
L 147.01843 227.202688 
L 147.35175 226.614384 
L 147.68507 225.881363 
L 147.740623 225.374855 
L 147.796177 225.834173 
L 148.907243 235.857367 
L 149.573883 228.228288 
L 150.01831 223.182085 
L 151.129377 238.270358 
L 151.18493 238.264066 
L 151.407143 236.555781 
L 152.240444 228.970747 
L 152.295997 229.137485 
L 153.01819 236.313539 
L 153.407064 239.362024 
L 153.51817 238.849224 
L 154.240364 234.665028 
L 154.51813 232.727085 
L 154.573684 233.136067 
L 155.01811 236.326123 
L 155.629197 240.239761 
L 155.68475 239.8937 
L 156.740264 214.621786 
L 156.795817 214.002022 
L 157.240244 219.211818 
L 157.906884 226.098438 
L 157.962437 225.991473 
L 158.906844 221.609079 
L 160.184571 214.433026 
L 161.240084 225.598222 
L 161.295638 225.846757 
L 161.351191 225.752377 
L 161.740064 222.338954 
L 163.128898 210.100967 
L 163.684431 204.353203 
L 164.684391 188.75213 
L 164.795498 189.664474 
L 165.851011 196.138966 
L 166.239885 195.63875 
L 166.573205 195.173141 
L 166.795418 194.767305 
L 166.906525 194.572252 
L 167.017631 195.975374 
L 168.073145 212.699573 
L 168.128698 211.667681 
L 169.184212 190.664906 
L 169.239765 191.272086 
L 170.295278 205.627338 
L 170.406385 205.032742 
L 171.461898 193.672493 
L 171.573005 193.99024 
L 172.517412 195.547516 
L 172.572965 195.472012 
L 172.961839 198.630608 
L 173.684032 204.092085 
L 173.739585 203.799505 
L 174.850652 188.211016 
L 175.461739 190.158398 
L 176.017272 191.627585 
L 176.072825 191.564665 
L 177.850532 186.895983 
L 178.739386 182.041687 
L 179.239366 178.666016 
L 179.350472 177.671876 
L 179.683792 182.793584 
L 180.461539 193.719683 
L 180.517092 193.663055 
L 180.850413 191.045573 
L 181.905926 182.271346 
L 182.405906 177.127616 
L 183.016993 170.498969 
L 183.850293 160.579594 
L 183.961399 160.736894 
L 184.461379 161.82856 
L 184.794699 162.504953 
L 185.016913 163.24112 
L 186.350193 177.272333 
L 186.79462 178.527592 
L 186.905726 178.801295 
L 187.183493 179.622404 
L 187.2946 179.776558 
L 187.350153 179.701054 
L 187.739026 179.417913 
L 188.016793 179.266904 
L 188.183453 179.11275 
L 188.350113 178.927135 
L 188.572326 173.182517 
L 189.405627 148.445426 
L 189.516733 145.809068 
L 189.572287 146.498044 
L 190.6278 158.352217 
L 190.738907 157.414706 
L 191.683313 148.936204 
L 191.905527 147.712405 
L 192.405507 145.516489 
L 192.96104 142.902153 
L 194.016554 134.801172 
L 194.12766 135.216446 
L 194.905407 137.456406 
L 195.12762 138.082462 
L 195.349834 142.757436 
L 196.29424 163.690999 
L 196.349794 162.218666 
L 197.183094 142.870693 
L 197.405307 137.610561 
L 197.516414 137.877972 
L 198.516374 139.627154 
L 199.627441 118.813139 
L 199.682994 119.168639 
L 200.794061 160.903633 
L 200.905167 159.717586 
L 201.905128 148.52093 
L 202.349554 135.776436 
L 203.071748 115.884202 
L 204.293921 144.081907 
L 204.460581 144.321004 
L 204.905008 145.016273 
L 205.793861 145.824798 
L 206.127181 145.95693 
L 206.349395 146.070187 
L 206.404948 146.022996 
L 206.516055 142.719684 
L 207.571568 102.834545 
L 207.627121 105.565283 
L 208.682635 152.912763 
L 208.738188 152.34648 
L 209.627041 134.659601 
L 209.849255 130.752255 
L 209.904808 130.805737 
L 210.571448 131.551342 
L 210.682555 131.611116 
L 210.904768 131.850213 
L 211.015875 131.20528 
L 212.071388 120.751083 
L 212.126942 121.663426 
L 213.182455 138.733687 
L 213.238008 137.575954 
L 214.515735 93.063032 
L 214.904609 92.49675 
L 215.737909 91.200593 
L 216.015675 90.653187 
L 216.571209 89.668485 
L 216.737869 96.529937 
L 217.737829 140.948479 
L 217.793382 139.6303 
L 219.737749 97.278688 
L 219.959962 92.534502 
L 220.015516 92.66978 
L 220.959922 103.992277 
L 221.182136 107.663673 
L 222.237649 132.529751 
L 222.293202 131.271347 
L 223.348716 104.552267 
L 223.404269 105.404837 
L 224.515336 129.166665 
L 224.570889 128.51544 
L 225.459743 117.661699 
L 226.73747 103.510937 
L 227.07079 109.762063 
L 227.90409 125.026513 
L 227.959643 124.702474 
L 228.348516 122.704756 
L 229.015156 118.913812 
L 230.126223 91.046438 
L 230.40399 95.054457 
L 231.23729 107.953106 
L 231.292843 107.48435 
L 232.40391 79.881242 
L 233.514977 126.983332 
L 233.57053 125.29707 
L 234.681597 88.120647 
L 234.73715 88.259072 
L 235.23713 89.086473 
L 235.681557 89.781741 
L 235.73711 89.882414 
L 235.848217 92.314281 
L 236.90373 127.961742 
L 237.848137 106.30145 
L 238.181457 95.686806 
L 239.181417 54.854717 
L 240.125824 104.196768 
L 240.292484 112.341793 
L 240.348037 110.891481 
L 241.459104 86.126076 
L 241.570211 87.010105 
L 242.070191 91.433398 
L 242.625724 95.595571 
L 243.681238 95.485461 
L 244.292324 90.231621 
L 244.792304 85.795744 
L 244.847858 86.179558 
L 246.014478 97.228352 
L 247.014438 114.761076 
L 247.069991 115.311628 
L 248.236611 81.032682 
L 248.347718 81.403912 
L 249.181018 84.285659 
L 249.292125 84.660034 
L 249.403231 80.173821 
L 250.458745 26.575216 
L 250.514298 29.397189 
L 251.625365 77.320388 
L 251.680918 77.29522 
L 252.680878 75.822887 
L 252.903092 78.103745 
L 253.791945 87.94447 
L 253.847498 87.884696 
L 254.958565 58.862736 
L 255.014118 59.690137 
L 255.958525 73.693036 
L 256.625165 82.958042 
L 257.236252 90.681501 
L 258.347319 71.009488 
L 258.402872 71.805429 
L 259.458385 84.622282 
L 259.736152 77.852064 
L 260.625006 55.820543 
L 261.736072 84.949467 
L 261.791626 83.099612 
L 263.069352 45.146124 
L 263.958206 41.996966 
L 264.069312 43.601432 
L 265.235933 65.189366 
L 265.291486 65.104424 
L 265.569253 65.010044 
L 265.680359 64.884203 
L 265.735913 64.956561 
L 266.069233 64.811845 
L 266.235893 64.695442 
L 266.458106 62.518402 
L 267.346959 53.322609 
L 267.402513 53.567998 
L 268.51358 75.020653 
L 269.624646 71.830597 
L 270.84682 35.465846 
L 270.902373 35.47843 
L 271.84678 35.9755 
L 271.957886 38.004677 
L 273.0134 68.889076 
L 273.124507 68.234706 
L 274.18002 61.612351 
L 274.68 61.590329 
L 274.68 61.590329 
" style="fill:none;stroke:#191970;stroke-linecap:square;stroke-width:1.5;"/>
   </g>
   <g id="line2d_9">
    <path clip-path="url(#p84161f5dd9)" d="M 24.19 56.686836 
L 24.245553 56.559646 
L 24.301107 57.167328 
L 24.35666 56.870553 
L 24.467767 57.068403 
L 24.578873 56.814025 
L 24.634427 57.068403 
L 24.68998 56.91295 
L 24.745533 57.026007 
L 24.801087 56.941214 
L 25.245513 56.828157 
L 25.35662 56.616175 
L 25.578833 57.026007 
L 25.8566 57.520631 
L 26.301027 55.895436 
L 26.35658 56.022625 
L 26.801007 54.722469 
L 26.85656 54.79313 
L 26.912114 54.821394 
L 27.02322 54.59528 
L 27.300987 53.46471 
L 27.467647 52.772236 
L 27.5232 53.210332 
L 27.578754 53.083142 
L 27.800967 52.517857 
L 27.85652 52.447197 
L 28.078734 51.684062 
L 28.412054 50.638284 
L 28.467607 50.708945 
L 28.52316 50.822002 
L 28.578714 50.708945 
L 28.634267 50.68068 
L 29.02314 49.507713 
L 29.078694 49.521846 
L 29.1898 49.041353 
L 29.245354 49.097882 
L 29.745334 50.949191 
L 29.800887 50.666548 
L 29.85644 50.822002 
L 30.0231 51.457947 
L 30.078654 51.500344 
L 30.245314 52.715707 
L 30.300867 52.574386 
L 30.467527 52.433064 
L 32.634107 42.342723 
L 32.689661 42.427516 
L 32.856321 43.077594 
L 33.078534 43.854861 
L 33.467407 45.140885 
L 33.745174 45.720303 
L 33.800727 45.790963 
L 33.856281 45.677906 
L 33.911834 45.70617 
L 33.967387 45.748567 
L 34.189601 46.342116 
L 34.411814 46.200795 
L 34.689581 47.048723 
L 34.745134 46.907402 
L 34.856241 46.737816 
L 35.022901 46.10187 
L 35.189561 44.801714 
L 35.578434 42.879744 
L 35.689541 42.300327 
L 36.022861 39.572826 
L 36.467288 42.328591 
L 36.633948 43.035198 
L 37.078374 45.932285 
L 37.133928 46.285588 
L 37.189481 46.243191 
L 37.356141 46.002945 
L 37.578354 44.759318 
L 37.633908 44.957168 
L 37.689461 44.77345 
L 38.467208 42.879744 
L 38.522761 43.176519 
L 38.578314 43.04933 
L 38.744974 42.441648 
L 38.800528 42.484045 
L 38.967188 42.696027 
L 39.078295 42.667762 
L 39.244955 42.498177 
L 39.522721 42.611234 
L 39.578275 42.568838 
L 39.633828 42.667762 
L 39.689381 42.611234 
L 40.022701 42.017684 
L 40.189361 41.607853 
L 40.244915 41.579588 
L 40.356021 41.763306 
L 40.411575 41.735042 
L 40.522681 41.551324 
L 40.689341 42.088345 
L 41.133768 43.614615 
L 41.189321 43.685276 
L 41.300428 43.119991 
L 41.355981 43.289576 
L 41.522641 44.504939 
L 41.633748 45.098489 
L 41.689301 45.070225 
L 43.189242 39.261919 
L 43.300348 38.583577 
L 43.355902 38.640105 
L 43.578115 37.905235 
L 43.911435 36.237643 
L 44.689182 39.714147 
L 44.911395 40.901246 
L 45.078055 41.466531 
L 45.189162 41.212153 
L 45.244715 40.844718 
L 45.300268 41.000171 
L 45.578035 41.466531 
L 45.744695 41.198021 
L 45.855802 41.254549 
L 45.966908 41.282814 
L 46.133568 41.367606 
L 46.411335 40.293565 
L 46.633548 39.177126 
L 46.855762 38.357463 
L 47.022422 37.481271 
L 47.077975 37.467139 
L 47.133528 37.325817 
L 47.300189 36.689871 
L 47.577955 35.841944 
L 47.689062 35.926736 
L 47.855722 35.757151 
L 48.411255 34.329806 
L 48.466809 34.456995 
L 48.633469 35.092941 
L 48.689022 34.951619 
L 48.744575 35.02228 
L 49.022342 36.096322 
L 49.189002 36.237643 
L 49.411215 37.029043 
L 49.522322 37.127967 
L 49.577875 37.297553 
L 49.633429 37.226892 
L 49.744535 37.071439 
L 49.966749 37.594328 
L 50.077855 37.495403 
L 50.188962 37.523667 
L 50.244515 37.467139 
L 50.355622 37.622592 
L 50.466729 36.901853 
L 50.577835 37.085571 
L 50.688942 36.930118 
L 50.911155 37.778045 
L 51.133369 38.343331 
L 51.355582 39.516297 
L 51.522242 40.081583 
L 51.633349 40.491414 
L 51.688902 40.350093 
L 51.744456 40.477282 
L 51.800009 40.576207 
L 51.855562 40.533811 
L 51.911116 40.505547 
L 52.133329 41.339342 
L 52.188882 41.268682 
L 52.244436 41.32521 
L 52.355542 41.494796 
L 52.577756 41.904627 
L 52.633309 41.98942 
L 52.799969 41.72091 
L 52.855522 41.763306 
L 53.188842 42.554705 
L 53.244396 42.413384 
L 53.299949 42.568838 
L 53.355502 42.540573 
L 53.577716 43.24718 
L 53.744376 43.006934 
L 53.855482 43.24718 
L 53.911036 43.190651 
L 53.966589 43.119991 
L 54.077696 43.501558 
L 54.188802 43.416765 
L 54.355462 42.766687 
L 54.411016 42.780819 
L 54.633229 43.134123 
L 54.799889 42.512309 
L 54.910996 42.554705 
L 55.355422 42.116609 
L 55.410976 42.356856 
L 55.466529 41.932892 
L 55.522083 42.003552 
L 55.577636 41.98942 
L 55.633189 41.664381 
L 55.688743 41.848099 
L 55.966509 42.144874 
L 56.355383 41.508928 
L 56.410936 41.593721 
L 56.522043 41.763306 
L 56.633149 41.339342 
L 56.688703 41.508928 
L 56.744256 41.551324 
L 56.799809 41.424135 
L 56.966469 41.79157 
L 57.133129 41.579588 
L 57.244236 41.72091 
L 57.577556 41.226285 
L 57.633109 41.226285 
L 57.799769 40.971907 
L 58.021983 41.636117 
L 58.077536 41.650249 
L 58.244196 40.759925 
L 58.299749 41.084964 
L 58.410856 41.113228 
L 58.577516 40.689264 
L 58.910836 41.014303 
L 59.133049 42.257931 
L 59.244156 42.159006 
L 59.521923 42.85148 
L 59.577476 42.823216 
L 59.688583 43.44503 
L 59.744136 43.360237 
L 59.855243 43.24718 
L 59.910796 43.360237 
L 59.96635 43.303708 
L 60.13301 42.950405 
L 60.244116 42.58297 
L 60.29967 42.710159 
L 60.355223 42.738423 
L 60.521883 42.060081 
L 60.63299 42.229666 
L 60.744096 42.031817 
L 60.910756 41.508928 
L 61.077416 41.621985 
L 61.29963 40.774057 
L 61.355183 40.745793 
L 61.410736 40.562075 
L 61.46629 40.590339 
L 61.577396 40.505547 
L 61.79961 39.728279 
L 61.910716 39.60109 
L 62.021823 39.13473 
L 62.077376 39.162994 
L 62.188483 39.360844 
L 62.244036 39.318448 
L 62.355143 39.276051 
L 62.410696 39.177126 
L 62.577356 38.484652 
L 62.63291 38.527048 
L 62.688463 38.73903 
L 62.744016 38.696634 
L 62.855123 38.654237 
L 63.021783 38.456388 
L 63.13289 37.820442 
L 63.410656 38.767295 
L 63.46621 38.597709 
L 63.521763 38.640105 
L 63.743976 39.431505 
L 63.910637 39.615222 
L 64.355063 40.590339 
L 64.46617 40.689264 
L 64.63283 40.943643 
L 64.743937 41.169757 
L 65.13281 42.512309 
L 65.243917 42.498177 
L 65.355023 42.893877 
L 65.410577 42.738423 
L 65.577237 42.696027 
L 65.855003 41.565456 
L 65.96611 41.932892 
L 66.021663 41.79157 
L 66.243877 40.986039 
L 66.29943 40.986039 
L 66.521643 40.208772 
L 66.96607 41.650249 
L 67.521603 44.194033 
L 67.63271 44.5756 
L 67.854923 44.080975 
L 67.910477 44.10924 
L 68.021583 43.812465 
L 68.188244 44.236429 
L 68.354904 43.529822 
L 68.521564 43.657012 
L 68.688224 43.657012 
L 68.743777 43.967918 
L 68.79933 43.840729 
L 68.96599 43.755936 
L 69.021544 43.953786 
L 69.077097 43.91139 
L 69.243757 43.600483 
L 69.410417 43.388501 
L 69.521524 43.755936 
L 69.854844 42.908009 
L 69.96595 42.879744 
L 70.13261 43.204783 
L 70.188164 43.162387 
L 70.410377 42.696027 
L 70.577037 42.413384 
L 70.743697 42.38512 
L 70.910357 42.017684 
L 70.96591 41.904627 
L 71.021464 41.947024 
L 72.13253 48.95656 
L 72.188084 48.589125 
L 72.299191 48.589125 
L 72.910277 46.723684 
L 72.965831 46.96393 
L 73.021384 46.978062 
L 73.299151 45.83336 
L 73.576917 46.794344 
L 73.688024 46.610627 
L 73.910237 47.034591 
L 74.076897 47.712933 
L 74.188004 47.190044 
L 74.410217 47.62814 
L 74.576877 47.175912 
L 74.632431 47.218308 
L 74.687984 47.062855 
L 74.743537 47.23244 
L 75.021304 46.76608 
L 75.076857 46.327984 
L 75.132411 46.596495 
L 75.187964 46.69542 
L 75.243517 46.610627 
L 75.410177 46.370381 
L 75.465731 46.412777 
L 75.521284 45.960549 
L 75.576837 46.172531 
L 75.854604 45.253942 
L 75.910157 45.310471 
L 76.021264 45.282207 
L 76.243477 44.632129 
L 76.299031 44.731053 
L 76.632351 44.208165 
L 76.687904 44.264693 
L 76.854564 44.5756 
L 77.021224 44.928903 
L 77.076778 44.844111 
L 77.465651 45.889888 
L 77.521204 45.593113 
L 77.576758 45.63551 
L 77.798971 46.426909 
L 77.854524 46.271456 
L 77.910078 46.384513 
L 78.021184 46.709552 
L 78.076738 46.681287 
L 78.187844 46.822609 
L 78.410058 46.455173 
L 78.910038 47.006326 
L 79.132251 45.83336 
L 79.576678 43.529822 
L 79.909998 41.777438 
L 80.021104 41.000171 
L 80.076658 41.014303 
L 80.743298 41.72091 
L 80.798851 41.664381 
L 81.076618 41.466531 
L 81.409938 42.144874 
L 81.576598 43.190651 
L 81.632151 43.077594 
L 82.409898 45.819227 
L 82.465451 45.762699 
L 82.521005 45.889888 
L 82.576558 45.861624 
L 82.798771 45.310471 
L 82.854325 45.23981 
L 82.965431 45.805095 
L 83.020985 45.63551 
L 83.076538 45.607246 
L 83.243198 45.720303 
L 83.354305 45.550717 
L 83.409858 45.451792 
L 83.465411 45.63551 
L 83.520965 45.536585 
L 83.632071 45.395264 
L 83.743178 45.564849 
L 83.854285 45.084357 
L 83.909838 45.253942 
L 84.020945 45.423528 
L 84.243158 45.056092 
L 84.409818 44.787582 
L 84.520925 44.914771 
L 84.576478 44.900639 
L 84.632031 44.547336 
L 84.687585 44.5756 
L 84.798692 44.490807 
L 85.020905 44.095108 
L 85.076458 44.165768 
L 85.132012 44.236429 
L 85.187565 44.165768 
L 85.409778 43.473294 
L 85.465332 43.71354 
L 85.520885 43.487426 
L 85.631992 43.021066 
L 85.743098 43.162387 
L 85.854205 43.868994 
L 85.965312 43.755936 
L 86.076418 43.473294 
L 86.131972 43.529822 
L 86.409738 44.264693 
L 86.465292 44.208165 
L 86.520845 44.024447 
L 86.576398 44.137504 
L 86.854165 44.914771 
L 87.020825 45.607246 
L 87.909678 49.437053 
L 87.965232 49.338128 
L 88.409658 46.539966 
L 88.576318 45.790963 
L 88.854085 44.066843 
L 89.076299 42.710159 
L 89.131852 42.893877 
L 89.576279 45.070225 
L 89.742939 45.480056 
L 89.854045 45.974681 
L 90.076259 47.190044 
L 90.187365 47.797726 
L 90.242919 47.557479 
L 90.576239 45.960549 
L 90.798452 44.77345 
L 91.353985 42.512309 
L 91.409539 42.484045 
L 91.576199 42.045949 
L 91.687305 42.144874 
L 91.853965 41.664381 
L 91.909519 41.777438 
L 91.965072 41.777438 
L 92.076179 41.607853 
L 92.131732 41.692645 
L 92.242839 41.282814 
L 92.298392 41.353474 
L 92.409499 41.084964 
L 92.520605 41.240417 
L 92.798372 41.876363 
L 92.909479 42.003552 
L 93.242799 43.586351 
L 93.353906 43.416765 
L 93.409459 43.501558 
L 93.576119 44.37775 
L 93.631672 44.250561 
L 93.853886 44.829978 
L 94.964952 48.377143 
L 95.187166 49.338128 
L 95.853806 52.348272 
L 96.187126 50.171924 
L 97.020426 45.918152 
L 97.242639 45.494188 
L 97.298193 45.578981 
L 97.353746 45.649642 
L 97.687066 44.476675 
L 97.742619 44.349486 
L 97.798173 44.448411 
L 97.853726 44.420147 
L 97.964833 44.038579 
L 98.020386 44.052711 
L 98.075939 43.967918 
L 98.131493 44.080975 
L 98.798133 46.257324 
L 99.075899 46.794344 
L 99.298113 47.35963 
L 99.464773 47.048723 
L 99.853646 46.483438 
L 99.909199 46.539966 
L 100.131413 46.017077 
L 100.186966 46.045342 
L 100.242519 45.90402 
L 100.298073 45.974681 
L 100.409179 46.031209 
L 100.631393 45.90402 
L 100.798053 45.23981 
L 100.909159 45.338735 
L 100.964713 45.536585 
L 101.131373 45.013696 
L 101.409139 44.943035 
L 101.520246 44.886507 
L 101.74246 45.225678 
L 101.798013 45.056092 
L 101.853566 45.155017 
L 102.020226 45.268074 
L 102.07578 45.126753 
L 102.520206 46.426909 
L 102.57576 46.342116 
L 102.631313 46.327984 
L 102.686866 46.441041 
L 102.74242 46.285588 
L 102.797973 46.539966 
L 102.853526 46.49757 
L 102.964633 46.441041 
L 103.131293 46.356248 
L 103.297953 46.596495 
L 103.520166 46.426909 
L 103.686826 46.935666 
L 103.74238 46.907402 
L 103.853486 47.274837 
L 104.353466 50.058867 
L 104.464573 50.694812 
L 104.853446 52.489593 
L 104.909 52.362404 
L 105.07566 52.065629 
L 105.131213 52.122158 
L 105.297873 51.839515 
L 105.353426 51.910176 
L 105.464533 51.896043 
L 105.686747 51.302494 
L 105.7423 51.443815 
L 105.797853 51.373155 
L 105.964513 50.850266 
L 106.020067 50.920926 
L 106.353387 51.514476 
L 106.520047 51.599269 
L 107.131133 52.546121 
L 107.24224 52.4048 
L 107.631113 51.613401 
L 107.74222 51.811251 
L 107.90888 51.147041 
L 108.019987 51.147041 
L 108.2422 50.666548 
L 108.297753 50.737209 
L 108.57552 51.401419 
L 108.797733 52.249347 
L 108.964393 52.546121 
L 109.186607 53.450578 
L 109.57548 54.778998 
L 109.686587 54.411563 
L 109.853247 55.132301 
L 109.9088 54.976848 
L 110.519887 56.503118 
L 111.5754 51.429683 
L 111.630954 51.189437 
L 111.797614 51.655797 
L 111.853167 51.74059 
L 112.186487 53.111407 
L 112.297594 53.775617 
L 112.630914 54.976848 
L 112.853127 55.400812 
L 113.019787 55.768247 
L 113.07534 55.669322 
L 113.130894 55.768247 
L 113.40866 56.658571 
L 113.464214 56.432457 
L 113.630874 56.24874 
L 113.74198 56.729232 
L 113.964194 56.291136 
L 114.019747 56.559646 
L 114.075301 56.418325 
L 114.130854 56.432457 
L 114.297514 55.65519 
L 114.353067 55.838908 
L 114.408621 56.05089 
L 114.464174 55.867172 
L 114.630834 55.25949 
L 114.686387 55.301887 
L 114.741941 55.400812 
L 114.964154 54.637677 
L 115.019707 54.241977 
L 115.075261 54.59528 
L 115.241921 55.528001 
L 115.408581 56.616175 
L 115.575241 56.616175 
L 116.186327 58.933844 
L 116.464094 58.085916 
L 116.630754 57.64782 
L 116.797414 56.941214 
L 116.852967 57.054271 
L 117.186287 55.923701 
L 117.352947 55.570397 
L 117.408501 55.641058 
L 117.519607 55.400812 
L 117.575161 55.966097 
L 117.630714 55.796511 
L 117.686267 55.669322 
L 117.852927 56.192211 
L 117.908481 56.065022 
L 118.075141 56.135683 
L 118.130694 56.036758 
L 118.186248 56.12155 
L 118.352908 56.418325 
L 118.575121 56.587911 
L 118.630674 56.814025 
L 118.686228 56.729232 
L 118.797334 56.955346 
L 119.075101 57.506499 
L 119.186208 57.351046 
L 119.241761 57.449971 
L 119.297314 57.449971 
L 119.686188 58.820787 
L 119.908401 59.37194 
L 120.130614 60.135075 
L 120.241721 59.795904 
L 120.408381 60.884078 
L 120.686148 61.477628 
L 120.852808 61.081928 
L 120.908361 61.265646 
L 120.963914 61.152589 
L 121.630554 59.386072 
L 121.686108 59.513262 
L 121.741661 59.386072 
L 122.074981 57.944595 
L 122.130534 57.591292 
L 122.186088 57.732613 
L 122.297194 57.322781 
L 122.630515 55.245358 
L 122.908281 54.581148 
L 123.130495 55.570397 
L 123.186048 55.570397 
L 123.574921 58.849051 
L 123.686028 59.456733 
L 123.963795 62.028781 
L 124.074901 62.481009 
L 124.130455 62.466877 
L 124.519328 61.830931 
L 124.574881 61.477628 
L 124.630435 61.548288 
L 124.741541 61.68961 
L 124.852648 61.421099 
L 124.963755 61.703742 
L 125.074861 61.421099 
L 125.408181 62.339688 
L 125.797055 64.120336 
L 126.297035 66.127099 
L 126.352588 65.915117 
L 126.630355 65.109585 
L 126.852568 63.936618 
L 127.185888 63.187615 
L 127.296995 62.35382 
L 127.352548 62.608198 
L 127.463655 62.127706 
L 127.574762 62.170102 
L 127.852528 62.678859 
L 127.963635 62.594066 
L 128.019188 62.735387 
L 128.074742 62.636462 
L 128.185848 62.608198 
L 128.574722 63.145219 
L 129.130255 65.67487 
L 129.574682 67.469651 
L 129.741342 67.822954 
L 129.963555 68.303447 
L 130.019108 68.204522 
L 130.185768 68.628486 
L 130.241322 68.741543 
L 130.296875 68.642618 
L 130.352428 68.529561 
L 130.407982 68.642618 
L 130.519088 69.12311 
L 130.574642 69.066582 
L 130.685749 69.12311 
L 130.796855 69.419885 
L 131.463495 66.946762 
L 131.519049 66.861969 
L 131.963475 64.402979 
L 132.741222 70.550455 
L 132.907882 71.921272 
L 133.185649 73.687788 
L 133.296755 73.518203 
L 133.463415 73.164899 
L 133.518969 73.03771 
L 133.574522 73.065974 
L 133.685629 73.43341 
L 133.741182 73.23556 
L 133.796735 73.179031 
L 133.852289 73.461674 
L 133.907842 73.348617 
L 134.018949 73.150767 
L 134.074502 73.009446 
L 134.130055 73.051842 
L 134.185609 73.164899 
L 135.018909 79.114526 
L 135.185569 79.962454 
L 135.463336 81.347403 
L 135.574442 81.601781 
L 135.629996 81.573517 
L 135.741102 81.601781 
L 135.907762 82.407312 
L 135.963316 82.350784 
L 136.018869 82.280123 
L 136.185529 82.675823 
L 136.463296 83.071523 
L 137.296596 88.583053 
L 137.518809 89.402717 
L 138.963196 104.933928 
L 139.129856 106.389537 
L 139.240963 107.025483 
L 139.296516 106.827633 
L 139.852049 110.558516 
L 139.907603 110.176948 
L 140.963116 104.213189 
L 141.018669 104.67955 
L 141.629756 110.275873 
L 142.129736 114.360059 
L 142.629716 118.854076 
L 143.68523 126.697408 
L 144.18521 129.396645 
L 144.35187 130.456555 
L 144.462976 130.668537 
L 144.51853 130.343498 
L 144.574083 130.498951 
L 144.629636 130.484819 
L 144.740743 130.15978 
L 144.85185 130.385894 
L 145.01851 129.990195 
L 145.074063 130.131516 
L 145.129616 130.032591 
L 145.240723 129.735816 
L 145.296276 129.792345 
L 145.407383 129.820609 
L 145.462936 129.566231 
L 145.574043 130.82399 
L 146.629556 144.857196 
L 146.796216 144.277778 
L 146.962876 144.546289 
L 147.18509 144.164721 
L 147.296196 143.6277 
L 147.35175 143.938607 
L 147.407303 143.698361 
L 147.51841 143.698361 
L 147.740623 143.288529 
L 149.573883 158.282719 
L 149.796097 159.625272 
L 150.01831 161.292863 
L 150.296077 160.34601 
L 150.462737 160.487332 
L 150.629397 160.063368 
L 150.740503 159.582875 
L 150.796057 159.597007 
L 151.073823 159.342629 
L 151.129377 159.385026 
L 151.796017 168.853553 
L 152.295997 176.032675 
L 153.073744 177.813323 
L 153.240404 178.421005 
L 153.295957 178.364476 
L 154.462577 183.508572 
L 154.573684 184.455424 
L 155.68475 198.644083 
L 155.795857 198.446233 
L 155.851411 198.516894 
L 155.962517 198.304912 
L 156.295837 199.463747 
L 156.462497 199.2235 
L 156.518051 199.520275 
L 156.573604 199.42135 
L 156.740264 199.393086 
L 156.906924 202.148851 
L 157.351351 209.511691 
L 157.962437 219.686825 
L 159.240164 227.431232 
L 159.462377 229.367334 
L 159.684591 231.303436 
L 160.129018 235.302829 
L 160.184571 235.331093 
L 160.517891 233.748294 
L 160.962318 230.86534 
L 161.017871 230.950133 
L 161.295638 228.363953 
L 161.517851 232.1231 
L 162.351151 243.93756 
L 162.406704 243.881032 
L 162.628918 244.615903 
L 162.684471 244.460449 
L 162.906684 244.220203 
L 163.073344 244.13541 
L 163.573324 242.595008 
L 163.628878 242.665669 
L 163.795538 242.976575 
L 164.073305 242.905915 
L 164.184411 243.089633 
L 164.628838 242.298233 
L 164.739945 242.722197 
L 165.517691 246.72159 
L 165.851011 247.216215 
L 166.017671 247.286875 
L 166.239885 247.18795 
L 166.462098 246.820515 
L 166.795418 245.803002 
L 166.962078 245.46383 
L 167.462058 246.241098 
L 168.017591 246.72159 
L 168.073145 246.665061 
L 168.462018 247.527121 
L 168.739785 247.809764 
L 169.628638 247.965217 
L 170.350832 247.286875 
L 170.961918 248.05001 
L 171.128578 248.205464 
L 173.350712 248.106539 
L 173.739585 247.922821 
L 174.517332 248.205464 
L 274.68 248.205464 
L 274.68 248.205464 
" style="fill:none;stroke:#b8860b;stroke-linecap:square;stroke-width:1.5;"/>
   </g>
   <g id="line2d_10">
    <path clip-path="url(#p84161f5dd9)" d="M 24.19 248.205464 
L 26.078813 248.100366 
L 27.078774 247.283468 
L 28.02318 248.138583 
L 28.68982 248.205464 
L 30.856401 248.105143 
L 31.578594 247.665642 
L 32.356341 248.195909 
L 33.022981 248.205464 
L 53.855482 248.095589 
L 54.299909 248.095589 
L 55.133209 248.205464 
L 56.077616 248.105143 
L 56.522043 248.081257 
L 57.077576 248.205464 
L 60.355223 248.095589 
L 60.910756 247.947496 
L 61.13297 247.947496 
L 61.521843 247.799403 
L 61.855163 247.617871 
L 62.021823 247.565322 
L 62.910676 248.129029 
L 63.63287 248.205464 
L 67.354943 248.10992 
L 67.743817 248.062148 
L 68.243797 248.200686 
L 69.577077 248.205464 
L 70.354824 248.100366 
L 70.96591 247.799403 
L 71.13257 247.837621 
L 71.910317 248.205464 
L 74.132451 248.105143 
L 74.576877 248.081257 
L 75.132411 248.205464 
L 76.799011 248.10992 
L 77.798971 246.122614 
L 78.632271 247.546213 
L 78.910038 247.746854 
L 80.243318 248.205464 
L 81.465491 248.105143 
L 81.798811 247.909279 
L 82.298791 247.465001 
L 83.409858 248.205464 
L 86.465292 248.100366 
L 86.909718 248.033485 
L 88.020785 248.205464 
L 88.909639 248.105143 
L 89.242959 248.129029 
L 89.576279 248.047817 
L 90.242919 247.660865 
L 90.687345 247.947496 
L 91.076219 248.205464 
L 92.853925 248.105143 
L 93.687226 247.789849 
L 94.576079 248.205464 
L 95.187166 248.095589 
L 95.909359 247.842398 
L 96.187126 247.89017 
L 97.020426 247.503218 
L 97.964833 247.947496 
L 98.242599 247.980936 
L 98.909239 248.205464 
L 99.742539 248.095589 
L 100.409179 247.871061 
L 101.464693 248.205464 
L 101.964673 248.119474 
L 102.631313 247.85673 
L 103.686826 248.205464 
L 104.297913 248.095589 
L 105.020106 247.952273 
L 106.07562 248.205464 
L 106.24228 248.129029 
L 106.797813 247.70386 
L 107.186687 247.498441 
L 107.464453 247.498441 
L 108.019987 247.278691 
L 108.353307 247.269137 
L 109.40882 248.205464 
L 113.519767 248.10992 
L 113.964194 248.023931 
L 114.464174 248.004822 
L 114.686387 247.942719 
L 115.019707 247.7373 
L 116.186327 248.133806 
L 116.686307 248.071703 
L 117.352947 247.847175 
L 118.575121 248.205464 
L 119.463974 247.383789 
L 119.519528 247.2978 
L 119.575081 247.340794 
L 120.630594 248.124252 
L 121.352788 248.07648 
L 121.852768 247.952273 
L 123.241601 248.205464 
L 123.686028 248.105143 
L 124.241561 248.047817 
L 125.019308 248.205464 
L 126.685908 248.100366 
L 127.408102 247.474555 
L 127.574762 247.570099 
L 128.463615 247.933164 
L 128.741382 248.004822 
L 129.019148 248.009599 
L 129.852448 247.732523 
L 130.241322 247.995268 
L 130.630195 248.090811 
L 131.074622 247.909279 
L 131.963475 246.452239 
L 132.963435 248.105143 
L 133.241202 247.980936 
L 133.463415 246.987283 
L 133.963395 244.321617 
L 134.185609 243.141654 
L 134.241162 243.23242 
L 134.963356 246.356695 
L 135.241122 247.207033 
L 135.296676 247.183147 
L 135.407782 247.106712 
L 135.685549 245.46814 
L 136.074422 242.955344 
L 136.463296 240.256238 
L 136.518849 240.643189 
L 137.241042 242.831137 
L 137.296596 242.883686 
L 137.518809 243.590709 
L 137.685469 243.767464 
L 138.518769 241.980799 
L 138.740982 241.206896 
L 138.907642 241.407538 
L 139.129856 241.039695 
L 139.852049 239.515775 
L 140.129816 235.760912 
L 141.185329 222.069517 
L 141.463096 220.531266 
L 142.129736 216.723854 
L 142.185289 216.762071 
L 142.351949 216.570984 
L 142.685269 216.131484 
L 142.907483 215.825744 
L 143.574123 214.612341 
L 143.907443 213.661682 
L 144.01855 213.446709 
L 144.240763 212.840007 
L 144.35187 212.548599 
L 144.796296 206.003864 
L 145.51849 195.42719 
L 145.68515 195.470184 
L 146.18513 195.842804 
L 146.35179 195.842804 
L 146.574003 196.072109 
L 146.629556 195.981343 
L 147.407303 188.729585 
L 147.740623 185.710408 
L 147.796177 185.829837 
L 148.740583 189.685021 
L 148.85169 190.114967 
L 148.962797 189.001884 
L 149.573883 180.622712 
L 150.073863 174.192629 
L 150.68495 170.576304 
L 151.129377 168.010959 
L 152.240444 182.867986 
L 152.295997 182.672122 
L 153.462617 169.253026 
L 155.240324 159.84676 
L 155.68475 156.937458 
L 156.573604 139.629739 
L 156.851371 135.669457 
L 156.906924 135.674234 
L 156.962477 135.731561 
L 157.184691 135.530919 
L 157.295797 135.569137 
L 157.518011 135.306392 
L 157.629117 135.287283 
L 157.906884 135.057978 
L 159.017951 115.829833 
L 159.073504 115.710403 
L 159.962358 119.422271 
L 160.129018 119.985979 
L 160.184571 119.761451 
L 161.295638 106.347132 
L 161.351191 106.566883 
L 161.573404 107.307345 
L 162.295598 109.700712 
L 162.517811 110.383849 
L 162.906684 111.70235 
L 163.017791 112.017644 
L 163.240004 112.762884 
L 163.517771 113.684879 
L 163.628878 113.278819 
L 164.184411 109.858359 
L 166.239885 96.143078 
L 166.573205 95.006109 
L 166.962078 93.635059 
L 167.017631 93.620727 
L 167.184291 93.744934 
L 167.239845 93.759266 
L 167.350951 93.654168 
L 167.517611 93.840478 
L 167.684271 93.778374 
L 167.795378 93.807037 
L 167.962038 93.778374 
L 168.906445 93.912135 
L 169.017552 93.787929 
L 169.184212 93.897804 
L 169.573085 91.943938 
L 170.295278 88.41838 
L 170.350832 88.523477 
L 171.461898 96.792774 
L 171.517452 96.544361 
L 172.517412 89.498022 
L 173.684032 82.743091 
L 173.739585 82.757422 
L 173.906245 83.263803 
L 174.739545 85.719273 
L 174.850652 85.934246 
L 175.461739 83.717635 
L 175.795059 82.399134 
L 176.017272 81.071078 
L 177.072786 66.844639 
L 177.128339 66.815976 
L 178.294959 72.658466 
L 178.350512 72.629803 
L 178.572726 72.400498 
L 178.628279 72.558145 
L 178.683832 72.529482 
L 179.183812 72.41483 
L 179.294919 72.453047 
L 179.350472 72.38139 
L 179.906006 73.900532 
L 180.461539 75.314577 
L 180.961519 71.55016 
L 181.628159 66.854193 
L 182.850333 72.959428 
L 183.239206 74.220603 
L 183.350313 74.526343 
L 183.905846 76.0216 
L 184.683593 75.070941 
L 184.850253 74.894186 
L 185.072466 74.469017 
L 185.405786 73.332048 
L 186.072426 71.191872 
L 186.183533 70.561284 
L 187.12794 63.37163 
L 187.2946 62.483075 
L 187.572366 62.850917 
L 187.739026 62.893912 
L 187.96124 63.175766 
L 188.1279 63.428956 
L 188.239006 63.586603 
L 188.29456 63.5245 
L 188.350113 63.577049 
L 188.905646 66.954514 
L 189.516733 70.484849 
L 190.850013 60.677301 
L 190.96112 60.405002 
L 191.516653 59.067392 
L 191.738867 58.618337 
L 191.79442 58.79987 
L 192.905487 67.298471 
L 192.96104 67.069166 
L 193.62768 62.99901 
L 194.016554 60.815839 
L 194.072107 61.207568 
L 194.7943 66.357367 
L 195.12762 68.80806 
L 195.183174 68.726848 
L 196.29424 63.648706 
L 196.62756 63.352521 
L 196.849774 63.414624 
L 197.016434 63.266532 
L 197.071987 63.290418 
L 197.2942 63.03245 
L 197.349754 63.089776 
L 197.405307 62.96557 
L 197.905287 67.121715 
L 198.127501 68.860609 
L 198.516374 72.018324 
L 198.571927 72.070873 
L 199.183014 69.371767 
L 199.849654 66.72521 
L 200.016314 66.190166 
L 200.682954 64.451272 
L 200.849614 64.169419 
L 202.071788 63.892342 
L 202.238448 63.729918 
L 202.349554 63.758581 
L 202.516214 63.648706 
L 202.849534 63.510168 
L 202.960641 63.471951 
L 203.071748 63.228315 
L 203.405068 61.341329 
L 204.182814 56.81734 
L 204.905008 61.890704 
L 205.293881 64.499044 
L 205.349434 63.949669 
L 206.404948 48.533712 
L 206.460501 48.500272 
L 207.571568 61.680509 
L 207.627121 61.618405 
L 208.015995 60.91616 
L 208.738188 59.841295 
L 208.793741 59.960724 
L 209.071508 60.42411 
L 209.627041 61.403432 
L 209.849255 61.608851 
L 209.904808 61.537193 
L 210.071468 61.379546 
L 210.404788 60.911383 
L 210.460342 60.91616 
L 210.682555 60.557871 
L 210.960322 60.013273 
L 212.071388 48.944549 
L 212.126942 49.26462 
L 213.182455 55.322083 
L 213.238008 55.164436 
L 214.571289 45.50498 
L 215.460142 43.837745 
L 216.626762 62.511738 
L 218.293362 55.522725 
L 218.848896 52.575205 
L 219.348876 54.944686 
L 220.237729 59.406571 
L 221.071029 64.284071 
L 221.126582 64.002218 
L 222.237649 44.444447 
L 222.348756 45.008154 
L 223.348716 50.296491 
L 223.515376 49.154745 
L 224.182016 44.344126 
L 224.459783 42.280384 
L 224.681996 41.907765 
L 224.848656 41.874324 
L 225.126423 41.726232 
L 225.348636 41.640242 
L 225.459743 41.630688 
L 225.570849 41.554253 
L 225.626403 41.606802 
L 226.73747 49.169077 
L 226.793023 48.863337 
L 227.848536 39.156109 
L 227.90409 39.00324 
L 228.292963 40.976215 
L 229.23737 45.829828 
L 229.73735 48.309184 
L 230.126223 50.22961 
L 230.848417 43.145054 
L 231.292843 39.089229 
L 232.40391 45.672182 
L 233.07055 41.754895 
L 233.514977 39.041457 
L 233.90385 41.936428 
L 234.181617 43.832968 
L 234.681597 47.0289 
L 234.848257 47.067118 
L 235.014917 47.0289 
L 235.73711 47.038455 
L 235.792664 46.957243 
L 236.90373 40.226197 
L 236.959284 40.871117 
L 237.625924 49.728007 
L 238.125904 55.269534 
L 238.40367 55.933562 
L 238.459224 55.938339 
L 238.848097 56.865112 
L 239.125864 57.40971 
L 239.181417 57.314167 
L 240.014717 47.191325 
L 240.292484 43.866408 
L 240.348037 44.243805 
L 241.625764 51.400019 
L 242.514617 54.027468 
L 242.570171 53.893707 
L 243.681238 43.360027 
L 243.792344 43.665766 
L 244.403431 45.891932 
L 244.625644 46.62284 
L 245.125624 48.242304 
L 245.292284 48.758239 
L 245.625604 49.79011 
L 245.792264 50.377703 
L 245.903371 50.697774 
L 246.014478 49.632463 
L 246.736671 39.108338 
L 247.069991 34.407593 
L 248.181058 42.256499 
L 249.125465 50.917524 
L 249.403231 52.919162 
L 249.458785 52.880945 
L 249.847658 53.664402 
L 249.903211 53.678734 
L 250.125425 54.137343 
L 250.403191 54.643724 
L 250.458745 54.533849 
L 251.514258 41.439601 
L 251.680918 40.517605 
L 251.847578 40.398176 
L 252.014238 40.359959 
L 252.180898 40.135431 
L 252.292005 40.030333 
L 252.625325 39.724594 
L 253.847498 37.254792 
L 254.458585 40.794682 
L 254.958565 43.622772 
L 255.014118 43.374358 
L 256.069632 36.963384 
L 256.180739 37.799391 
L 257.236252 47.497064 
L 257.625125 41.764449 
L 258.347319 30.843818 
L 259.513939 43.317032 
L 259.847259 44.888724 
L 260.625006 48.801234 
L 260.958326 49.479593 
L 261.013879 49.489148 
L 261.402752 50.363371 
L 261.736072 50.836312 
L 262.847139 45.543198 
L 262.902692 45.69129 
L 263.569332 47.989113 
L 263.735992 48.505049 
L 263.958206 49.283729 
L 264.013759 49.212071 
L 264.624846 45.227904 
L 266.180339 35.61622 
L 266.235893 35.267486 
L 266.291446 35.501567 
L 266.958086 39.734148 
L 267.069193 40.336073 
L 267.402513 42.189618 
L 267.735833 40.980992 
L 268.069153 39.724594 
L 268.51358 38.109907 
L 268.735793 38.754826 
L 269.624646 41.138639 
L 269.791306 40.961883 
L 270.735713 39.74848 
L 270.791266 39.829692 
L 271.124586 40.937997 
L 271.457906 42.184841 
L 271.902333 43.489011 
L 271.957886 43.159385 
L 272.457866 40.125877 
L 273.0134 36.748411 
L 273.235613 38.248445 
L 274.18002 44.606871 
L 274.235573 44.449224 
L 274.34668 44.463555 
L 274.402233 44.348903 
L 274.457787 44.444447 
L 274.51334 44.444447 
L 274.624447 44.20081 
L 274.68 44.468332 
L 274.68 44.468332 
" style="fill:none;stroke:#006400;stroke-linecap:square;stroke-width:1.5;"/>
   </g>
   <g id="line2d_11">
    <path clip-path="url(#p84161f5dd9)" d="M 24.19 239.123467 
L 24.467767 239.069155 
L 24.745533 239.123467 
L 24.912193 239.486679 
L 25.18996 239.466312 
L 25.412173 239.303376 
L 25.801047 239.086128 
L 25.8566 238.902824 
L 25.912153 239.154018 
L 25.967707 239.079339 
L 26.912114 236.913645 
L 26.967667 236.686213 
L 27.02322 236.866122 
L 28.078734 242.962652 
L 28.245394 242.782743 
L 29.245354 239.310165 
L 30.0231 244.286508 
L 30.411974 246.010917 
L 30.523081 245.803852 
L 31.411934 242.860816 
L 31.523041 242.507788 
L 31.634147 242.73522 
L 31.689701 242.714853 
L 32.578554 241.275583 
L 32.634107 240.915765 
L 32.689661 241.16017 
L 32.967427 241.482648 
L 33.634067 241.713474 
L 33.689621 241.669345 
L 33.967387 240.277599 
L 34.634028 235.365751 
L 34.911794 233.559874 
L 35.356221 238.329153 
L 36.078414 244.473206 
L 36.578394 244.354398 
L 37.133928 243.818067 
L 38.078334 245.834402 
L 38.300548 246.092385 
L 38.356101 246.048256 
L 38.744974 243.868984 
L 39.467168 238.875668 
L 40.467128 223.019938 
L 40.522681 222.021954 
L 40.578235 222.544708 
L 41.633748 235.871532 
L 41.689301 235.919055 
L 41.911515 234.140335 
L 42.744815 226.580773 
L 42.800368 226.122515 
L 42.855921 226.343158 
L 43.078135 226.692792 
L 43.300348 226.954169 
L 43.800328 227.378482 
L 43.855882 227.388665 
L 43.911435 227.157839 
L 44.578075 230.620234 
L 45.022502 232.541523 
L 45.133608 232.375192 
L 45.855802 229.530598 
L 46.133568 228.362888 
L 46.300228 227.66362 
L 46.466888 227.249491 
L 47.300189 224.6493 
L 47.466849 225.172054 
L 48.133489 225.032879 
L 48.300149 224.886916 
L 48.355702 224.903888 
L 48.800129 223.763335 
L 49.577875 221.275163 
L 49.855642 222.324065 
L 50.633389 224.432052 
L 50.800049 223.980583 
L 51.800009 216.892858 
L 51.911116 217.605704 
L 53.077736 227.106922 
L 53.522162 229.099496 
L 54.022142 231.40097 
L 54.077696 231.271978 
L 54.244356 231.60464 
L 54.411016 231.580878 
L 54.577676 231.587667 
L 55.133209 231.210877 
L 55.188762 231.075097 
L 55.522083 227.358115 
L 56.355383 217.408822 
L 56.410936 217.714328 
L 57.022023 219.947912 
L 57.522003 221.424521 
L 57.577556 221.383787 
L 57.688663 221.36342 
L 58.577516 220.589473 
L 58.744176 219.041579 
L 59.688583 207.805769 
L 59.744136 208.138431 
L 60.96631 231.305923 
L 61.13297 231.465465 
L 61.188523 231.383997 
L 61.244076 231.445098 
L 61.910716 231.462071 
L 62.077376 230.016012 
L 62.96623 219.598278 
L 63.13289 218.070751 
L 63.46621 220.151582 
L 64.63283 228.169401 
L 65.29947 233.705838 
L 65.355023 233.953637 
L 65.410577 233.780517 
L 66.13277 228.325549 
L 67.63271 215.524873 
L 68.46601 224.218198 
L 68.854884 227.235913 
L 69.79929 229.204725 
L 69.854844 229.133441 
L 69.910397 229.235276 
L 70.077057 229.367661 
L 70.29927 229.299771 
L 70.910357 229.106285 
L 71.188124 228.121878 
L 71.743657 224.757924 
L 72.13253 222.218835 
L 73.021384 228.525824 
L 73.243597 229.676561 
L 73.299151 229.666378 
L 74.410217 221.957458 
L 74.465771 222.069477 
L 74.743537 221.56709 
L 75.299071 220.528372 
L 75.521284 219.910572 
L 76.743458 225.576 
L 77.743418 229.292982 
L 77.910078 229.44913 
L 78.076738 229.289588 
L 79.410018 227.100133 
L 80.687745 223.118379 
L 82.298791 216.003498 
L 82.798771 222.985993 
L 83.465411 230.596472 
L 83.520965 230.423352 
L 83.743178 229.727479 
L 84.576478 226.105543 
L 85.576438 218.376256 
L 85.687545 217.351116 
L 85.743098 217.388455 
L 86.020865 216.896252 
L 86.743058 215.192211 
L 86.798612 214.788265 
L 87.076378 217.205152 
L 87.965232 223.349205 
L 88.298552 220.358647 
L 88.965192 213.875143 
L 89.076299 213.077435 
L 90.465132 228.166007 
L 91.131772 231.866017 
L 91.353985 232.592441 
L 91.409539 232.589046 
L 91.909519 231.047941 
L 92.465052 229.14023 
L 92.520605 229.489864 
L 93.353906 235.114557 
L 93.687226 236.384102 
L 94.631632 238.060987 
L 94.742739 237.94218 
L 95.298272 233.393544 
L 96.020466 227.266463 
L 96.964872 219.357268 
L 97.353746 223.108195 
L 98.131493 229.150413 
L 98.742579 225.443614 
L 99.242559 222.361404 
L 99.631433 224.116363 
L 99.798093 224.757924 
L 100.575839 227.782428 
L 100.631393 227.843529 
L 100.964713 229.160597 
L 101.520246 230.997024 
L 102.4091 238.335942 
L 102.74242 240.145213 
L 103.020186 240.54237 
L 103.57572 241.173748 
L 103.686826 241.146592 
L 103.853486 239.866864 
L 104.353466 234.693639 
L 104.853446 229.235276 
L 104.909 229.493258 
L 105.186766 230.066929 
L 105.853407 231.078492 
L 106.07562 230.997024 
L 106.40894 230.467481 
L 107.07558 229.007844 
L 107.24224 228.698944 
L 107.520007 228.07775 
L 107.964433 226.818389 
L 108.186647 226.258295 
L 108.2422 225.871322 
L 108.797733 229.174175 
L 109.40882 232.028953 
L 109.964354 228.006465 
L 110.519887 223.821041 
L 111.519847 229.394817 
L 111.797614 230.379224 
L 112.07538 230.898583 
L 112.686467 231.94409 
L 112.797574 231.906751 
L 113.019787 232.045925 
L 113.242 232.059503 
L 113.519767 232.066292 
L 113.90864 231.879595 
L 114.019747 232.120605 
L 114.075301 232.086659 
L 114.408621 232.059503 
L 114.464174 231.957668 
L 114.519727 232.042531 
L 114.964154 231.781154 
L 115.019707 231.584273 
L 115.241921 232.195284 
L 115.686347 232.867395 
L 116.075221 233.339232 
L 116.130774 233.155928 
L 116.186327 233.267947 
L 116.519647 234.286298 
L 117.352947 236.085386 
L 117.630714 235.593183 
L 119.297314 230.701702 
L 119.519528 229.713901 
L 119.797294 230.671151 
L 120.019508 231.221061 
L 120.463934 232.38877 
L 120.686148 232.606019 
L 120.797254 232.446477 
L 121.519448 230.318123 
L 121.797214 229.496653 
L 122.574961 234.096206 
L 123.019388 236.160065 
L 123.574921 238.074565 
L 123.963795 239.17099 
L 124.074901 239.092917 
L 124.297115 237.891262 
L 125.185968 231.774365 
L 125.519288 233.223818 
L 126.574802 236.788048 
L 127.408102 238.644842 
L 127.463655 238.651631 
L 127.852528 239.914387 
L 128.519168 241.744025 
L 128.574722 241.720263 
L 128.685828 241.255216 
L 129.685788 233.756756 
L 129.741342 234.320243 
L 130.796855 244.425683 
L 131.019069 244.670087 
L 131.741262 245.029905 
L 131.963475 244.883941 
L 132.130135 244.045498 
L 133.074542 238.206951 
L 133.130095 238.770439 
L 133.963395 247.025873 
L 134.185609 248.852117 
L 134.241162 248.807988 
L 134.796695 246.377523 
L 135.352229 243.784122 
L 135.518889 244.089627 
L 136.407742 243.424304 
L 136.685509 241.991823 
L 137.574362 235.491347 
L 137.796576 237.378692 
L 138.574322 245.046877 
L 138.740982 246.19422 
L 138.796536 246.092385 
L 139.240963 244.164306 
L 139.852049 241.265399 
L 140.185369 242.633385 
L 140.740903 244.704032 
L 141.018669 245.260731 
L 141.407543 245.352383 
L 141.740863 245.321832 
L 143.18525 245.043483 
L 143.574123 244.55128 
L 144.296316 243.271551 
L 144.35187 243.037331 
L 144.407423 243.230817 
L 144.740743 244.086233 
L 146.240683 247.358535 
L 146.574003 248.095142 
L 146.68511 247.976335 
L 147.51841 245.878531 
L 147.85173 244.894125 
L 148.51837 240.776591 
L 148.907243 238.702549 
L 149.18501 239.194752 
L 149.296117 239.337321 
L 150.073863 240.718884 
L 151.35159 247.375507 
L 151.962677 248.468538 
L 152.295997 248.814777 
L 152.629317 247.983124 
L 153.407064 245.786879 
L 153.51817 245.858164 
L 153.573724 245.807246 
L 153.962597 245.505135 
L 155.073664 244.093022 
L 155.629197 242.843844 
L 155.68475 242.942285 
L 156.295837 245.579814 
L 156.851371 247.35514 
L 157.462457 246.353761 
L 157.851331 245.552658 
L 157.906884 245.376144 
L 157.962437 245.515319 
L 158.962397 246.313027 
L 159.073504 246.170458 
L 159.406824 243.62458 
L 160.184571 237.473738 
L 161.295638 248.675602 
L 161.351191 248.668813 
L 161.573404 248.2445 
L 162.462258 246.258715 
L 163.017791 241.133014 
L 164.684391 226.652058 
L 165.739905 240.20292 
L 166.906525 243.482011 
L 166.962078 243.400543 
L 167.628718 236.109147 
L 168.073145 230.929133 
L 168.128698 231.645374 
L 169.239765 241.455492 
L 169.295318 241.435125 
L 169.739745 241.194115 
L 170.350832 240.830903 
L 170.517492 240.908976 
L 170.961918 240.959894 
L 171.184132 240.956499 
L 171.461898 240.844481 
L 171.628558 240.27081 
L 172.572965 236.034468 
L 172.628519 236.377313 
L 173.128499 237.39227 
L 173.739585 238.132272 
L 173.850692 237.931996 
L 174.628439 236.081991 
L 175.183972 234.78529 
L 175.906165 232.986203 
L 175.961719 232.66712 
L 176.017272 232.918313 
L 176.239485 231.971246 
L 177.128339 227.724721 
L 177.183892 227.846923 
L 177.294999 227.857107 
L 177.683872 228.128667 
L 177.739426 228.115089 
L 177.906086 228.25087 
L 178.183852 228.284815 
L 178.239406 228.203346 
L 178.517172 229.781791 
L 179.017152 231.950879 
L 179.350472 233.077855 
L 179.461579 232.572074 
L 180.294879 226.105543 
L 180.461539 224.68664 
L 180.517092 224.873338 
L 181.572606 230.827298 
L 181.628159 230.616839 
L 182.294799 218.980478 
L 182.739226 210.898163 
L 183.350313 217.201758 
L 184.072506 223.345811 
L 184.96136 227.341142 
L 185.016913 227.072976 
L 186.12798 206.980905 
L 186.183533 207.449347 
L 186.79462 211.145962 
L 187.239046 213.613767 
L 187.2946 213.359179 
L 188.46122 205.490717 
L 189.683393 187.11966 
L 189.905607 186.559566 
L 190.6278 184.529653 
L 191.238887 192.466004 
L 191.79442 198.800149 
L 191.849973 198.69492 
L 192.46106 196.834731 
L 193.016593 194.353349 
L 193.683234 188.168562 
L 194.183214 184.41424 
L 194.849854 181.800471 
L 195.12762 180.636156 
L 195.349834 182.53029 
L 196.29424 190.734807 
L 197.738627 164.634463 
L 198.683034 153.955352 
L 199.127461 153.17801 
L 199.571887 152.332779 
L 199.682994 152.404063 
L 200.794061 160.09601 
L 201.182934 158.527749 
L 201.905128 155.550769 
L 202.294001 162.35675 
L 203.016194 175.276234 
L 203.071748 174.929994 
L 204.293921 139.382744 
L 204.460581 139.209625 
L 204.849454 138.978798 
L 204.905008 138.975404 
L 204.960561 138.846413 
L 205.016114 138.975404 
L 205.293881 138.690265 
L 205.904968 143.608902 
L 206.404948 147.787537 
L 206.460501 147.862216 
L 207.404908 141.063024 
L 207.682675 139.657699 
L 207.849335 139.331827 
L 208.682635 137.536134 
L 209.849255 121.846735 
L 209.904808 122.342332 
L 210.515895 127.888952 
L 210.960322 131.816394 
L 212.126942 129.107579 
L 212.460262 127.753172 
L 213.182455 124.647201 
L 213.238008 124.694724 
L 213.404668 124.813531 
L 214.404629 125.801332 
L 215.237929 128.082439 
L 215.460142 128.622165 
L 216.737869 89.941788 
L 217.237849 88.824996 
L 217.460062 88.251324 
L 217.626722 87.860956 
L 217.682275 87.748938 
L 217.737829 88.040865 
L 218.848896 109.646886 
L 219.959962 94.008404 
L 220.015516 94.042349 
L 220.848816 99.344565 
L 221.182136 102.413197 
L 222.237649 120.390492 
L 222.348756 120.241134 
L 222.626523 119.670857 
L 222.959843 119.073424 
L 223.793143 117.705439 
L 223.904249 117.613788 
L 224.515336 116.524152 
L 225.515296 108.302662 
L 225.681956 105.47504 
L 226.73747 73.217064 
L 226.959683 81.849289 
L 227.848536 119.504526 
L 227.90409 119.545261 
L 228.792943 83.315715 
L 229.015156 74.744591 
L 229.07071 74.839638 
L 229.73735 75.712025 
L 230.07067 76.217806 
L 230.126223 76.173678 
L 230.681756 69.853111 
L 231.23729 63.311901 
L 231.348397 64.978602 
L 233.514977 107.18587 
L 234.626043 110.634686 
L 234.792703 107.613578 
L 235.792664 87.782883 
L 235.848217 88.173251 
L 236.459304 93.034181 
L 236.90373 96.459236 
L 236.959284 96.197859 
L 238.014797 90.352523 
L 238.23701 91.065369 
L 239.181417 94.65336 
L 239.236971 94.619415 
L 239.292524 94.656754 
L 239.459184 94.51758 
L 240.292484 94.062716 
L 241.403551 74.764958 
L 241.570211 76.642119 
L 242.514617 90.366101 
L 242.570171 90.125091 
L 244.070111 54.258757 
L 244.792304 43.878363 
L 244.847858 44.431667 
L 246.681118 75.515144 
L 247.069991 82.470483 
L 247.125544 81.63883 
L 248.181058 65.1653 
L 248.347718 67.979344 
L 249.347678 85.800492 
L 249.403231 85.053701 
L 250.236531 75.766337 
L 250.958725 67.042461 
L 251.569811 59.632258 
L 251.625365 60.867857 
L 252.680878 87.002147 
L 252.736432 86.543889 
L 253.847498 56.648488 
L 253.903052 56.869131 
L 254.958565 61.000243 
L 256.180739 50.310949 
L 256.958485 49.085533 
L 257.014039 49.095716 
L 257.180699 48.800394 
L 257.236252 49.061771 
L 258.347319 74.286333 
L 259.291725 51.380218 
L 259.513939 47.245711 
L 260.791666 57.381701 
L 261.680519 60.823729 
L 261.736072 60.966298 
L 261.791626 60.827123 
L 262.847139 57.846749 
L 263.402672 51.169758 
L 263.958206 44.38075 
L 264.013759 44.625154 
L 265.124826 66.034293 
L 265.180379 65.484383 
L 267.680279 41.899367 
L 268.51358 35.816415 
L 269.624646 52.513982 
L 270.01352 49.156817 
L 270.735713 42.456066 
L 270.84682 43.881757 
L 271.902333 63.081074 
L 273.402273 35.789259 
L 274.18002 29.108874 
L 274.235573 29.166581 
L 274.457787 29.159792 
L 274.568893 29.051168 
L 274.68 29.156397 
L 274.68 29.156397 
" style="fill:none;stroke:#a0522d;stroke-linecap:square;stroke-width:1.5;"/>
   </g>
   <g id="patch_3">
    <path d="M 24.19 258.8194 
L 24.19 25.3128 
" style="fill:none;stroke:#000000;stroke-linecap:square;stroke-linejoin:miter;stroke-width:0.8;"/>
   </g>
   <g id="patch_4">
    <path d="M 274.68 258.8194 
L 274.68 25.3128 
" style="fill:none;stroke:#000000;stroke-linecap:square;stroke-linejoin:miter;stroke-width:0.8;"/>
   </g>
   <g id="patch_5">
    <path d="M 24.19 258.8194 
L 274.68 258.8194 
" style="fill:none;stroke:#000000;stroke-linecap:square;stroke-linejoin:miter;stroke-width:0.8;"/>
   </g>
   <g id="patch_6">
    <path d="M 24.19 25.3128 
L 274.68 25.3128 
" style="fill:none;stroke:#000000;stroke-linecap:square;stroke-linejoin:miter;stroke-width:0.8;"/>
   </g>
   <g id="text_8">
    <!-- FCVC_close -->
    <defs>
     <path d="M 9.8125 72.90625 
L 51.703125 72.90625 
L 51.703125 64.59375 
L 19.671875 64.59375 
L 19.671875 43.109375 
L 48.578125 43.109375 
L 48.578125 34.8125 
L 19.671875 34.8125 
L 19.671875 0 
L 9.8125 0 
z
" id="DejaVuSans-46"/>
     <path d="M 64.40625 67.28125 
L 64.40625 56.890625 
Q 59.421875 61.53125 53.78125 63.8125 
Q 48.140625 66.109375 41.796875 66.109375 
Q 29.296875 66.109375 22.65625 58.46875 
Q 16.015625 50.828125 16.015625 36.375 
Q 16.015625 21.96875 22.65625 14.328125 
Q 29.296875 6.6875 41.796875 6.6875 
Q 48.140625 6.6875 53.78125 8.984375 
Q 59.421875 11.28125 64.40625 15.921875 
L 64.40625 5.609375 
Q 59.234375 2.09375 53.4375 0.328125 
Q 47.65625 -1.421875 41.21875 -1.421875 
Q 24.65625 -1.421875 15.125 8.703125 
Q 5.609375 18.84375 5.609375 36.375 
Q 5.609375 53.953125 15.125 64.078125 
Q 24.65625 74.21875 41.21875 74.21875 
Q 47.75 74.21875 53.53125 72.484375 
Q 59.328125 70.75 64.40625 67.28125 
z
" id="DejaVuSans-43"/>
     <path d="M 28.609375 0 
L 0.78125 72.90625 
L 11.078125 72.90625 
L 34.1875 11.53125 
L 57.328125 72.90625 
L 67.578125 72.90625 
L 39.796875 0 
z
" id="DejaVuSans-56"/>
     <path d="M 50.984375 -16.609375 
L 50.984375 -23.578125 
L -0.984375 -23.578125 
L -0.984375 -16.609375 
z
" id="DejaVuSans-5f"/>
     <path d="M 48.78125 52.59375 
L 48.78125 44.1875 
Q 44.96875 46.296875 41.140625 47.34375 
Q 37.3125 48.390625 33.40625 48.390625 
Q 24.65625 48.390625 19.8125 42.84375 
Q 14.984375 37.3125 14.984375 27.296875 
Q 14.984375 17.28125 19.8125 11.734375 
Q 24.65625 6.203125 33.40625 6.203125 
Q 37.3125 6.203125 41.140625 7.25 
Q 44.96875 8.296875 48.78125 10.40625 
L 48.78125 2.09375 
Q 45.015625 0.34375 40.984375 -0.53125 
Q 36.96875 -1.421875 32.421875 -1.421875 
Q 20.0625 -1.421875 12.78125 6.34375 
Q 5.515625 14.109375 5.515625 27.296875 
Q 5.515625 40.671875 12.859375 48.328125 
Q 20.21875 56 33.015625 56 
Q 37.15625 56 41.109375 55.140625 
Q 45.0625 54.296875 48.78125 52.59375 
z
" id="DejaVuSans-63"/>
     <path d="M 9.421875 75.984375 
L 18.40625 75.984375 
L 18.40625 0 
L 9.421875 0 
z
" id="DejaVuSans-6c"/>
     <path d="M 30.609375 48.390625 
Q 23.390625 48.390625 19.1875 42.75 
Q 14.984375 37.109375 14.984375 27.296875 
Q 14.984375 17.484375 19.15625 11.84375 
Q 23.34375 6.203125 30.609375 6.203125 
Q 37.796875 6.203125 41.984375 11.859375 
Q 46.1875 17.53125 46.1875 27.296875 
Q 46.1875 37.015625 41.984375 42.703125 
Q 37.796875 48.390625 30.609375 48.390625 
z
M 30.609375 56 
Q 42.328125 56 49.015625 48.375 
Q 55.71875 40.765625 55.71875 27.296875 
Q 55.71875 13.875 49.015625 6.21875 
Q 42.328125 -1.421875 30.609375 -1.421875 
Q 18.84375 -1.421875 12.171875 6.21875 
Q 5.515625 13.875 5.515625 27.296875 
Q 5.515625 40.765625 12.171875 48.375 
Q 18.84375 56 30.609375 56 
z
" id="DejaVuSans-6f"/>
     <path d="M 44.28125 53.078125 
L 44.28125 44.578125 
Q 40.484375 46.53125 36.375 47.5 
Q 32.28125 48.484375 27.875 48.484375 
Q 21.1875 48.484375 17.84375 46.4375 
Q 14.5 44.390625 14.5 40.28125 
Q 14.5 37.15625 16.890625 35.375 
Q 19.28125 33.59375 26.515625 31.984375 
L 29.59375 31.296875 
Q 39.15625 29.25 43.1875 25.515625 
Q 47.21875 21.78125 47.21875 15.09375 
Q 47.21875 7.46875 41.1875 3.015625 
Q 35.15625 -1.421875 24.609375 -1.421875 
Q 20.21875 -1.421875 15.453125 -0.5625 
Q 10.6875 0.296875 5.421875 2 
L 5.421875 11.28125 
Q 10.40625 8.6875 15.234375 7.390625 
Q 20.0625 6.109375 24.8125 6.109375 
Q 31.15625 6.109375 34.5625 8.28125 
Q 37.984375 10.453125 37.984375 14.40625 
Q 37.984375 18.0625 35.515625 20.015625 
Q 33.0625 21.96875 24.703125 23.78125 
L 21.578125 24.515625 
Q 13.234375 26.265625 9.515625 29.90625 
Q 5.8125 33.546875 5.8125 39.890625 
Q 5.8125 47.609375 11.28125 51.796875 
Q 16.75 56 26.8125 56 
Q 31.78125 56 36.171875 55.265625 
Q 40.578125 54.546875 44.28125 53.078125 
z
" id="DejaVuSans-73"/>
     <path d="M 56.203125 29.59375 
L 56.203125 25.203125 
L 14.890625 25.203125 
Q 15.484375 15.921875 20.484375 11.0625 
Q 25.484375 6.203125 34.421875 6.203125 
Q 39.59375 6.203125 44.453125 7.46875 
Q 49.3125 8.734375 54.109375 11.28125 
L 54.109375 2.78125 
Q 49.265625 0.734375 44.1875 -0.34375 
Q 39.109375 -1.421875 33.890625 -1.421875 
Q 20.796875 -1.421875 13.15625 6.1875 
Q 5.515625 13.8125 5.515625 26.8125 
Q 5.515625 40.234375 12.765625 48.109375 
Q 20.015625 56 32.328125 56 
Q 43.359375 56 49.78125 48.890625 
Q 56.203125 41.796875 56.203125 29.59375 
z
M 47.21875 32.234375 
Q 47.125 39.59375 43.09375 43.984375 
Q 39.0625 48.390625 32.421875 48.390625 
Q 24.90625 48.390625 20.390625 44.140625 
Q 15.875 39.890625 15.1875 32.171875 
z
" id="DejaVuSans-65"/>
    </defs>
    <g transform="translate(115.045625 19.3128)scale(0.12 -0.12)">
     <use xlink:href="#DejaVuSans-46"/>
     <use x="57.519531" xlink:href="#DejaVuSans-43"/>
     <use x="127.34375" xlink:href="#DejaVuSans-56"/>
     <use x="195.751953" xlink:href="#DejaVuSans-43"/>
     <use x="265.576172" xlink:href="#DejaVuSans-5f"/>
     <use x="315.576172" xlink:href="#DejaVuSans-63"/>
     <use x="370.556641" xlink:href="#DejaVuSans-6c"/>
     <use x="398.339844" xlink:href="#DejaVuSans-6f"/>
     <use x="459.521484" xlink:href="#DejaVuSans-73"/>
     <use x="511.621094" xlink:href="#DejaVuSans-65"/>
    </g>
   </g>
   <g id="legend_1">
    <g id="patch_7">
     <path d="M 31.19 172.92235 
L 77.286875 172.92235 
Q 79.286875 172.92235 79.286875 170.92235 
L 79.286875 113.20985 
Q 79.286875 111.20985 77.286875 111.20985 
L 31.19 111.20985 
Q 29.19 111.20985 29.19 113.20985 
L 29.19 170.92235 
Q 29.19 172.92235 31.19 172.92235 
z
" style="fill:#ffffff;opacity:0.8;stroke:#cccccc;stroke-linejoin:miter;"/>
    </g>
    <g id="line2d_12">
     <path d="M 33.19 119.308288 
L 53.19 119.308288 
" style="fill:none;stroke:#191970;stroke-linecap:square;stroke-width:1.5;"/>
    </g>
    <g id="line2d_13"/>
    <g id="text_9">
     <!-- Co -->
     <g transform="translate(61.19 122.808288)scale(0.1 -0.1)">
      <use xlink:href="#DejaVuSans-43"/>
      <use x="69.824219" xlink:href="#DejaVuSans-6f"/>
     </g>
    </g>
    <g id="line2d_14">
     <path d="M 33.19 133.986413 
L 53.19 133.986413 
" style="fill:none;stroke:#b8860b;stroke-linecap:square;stroke-width:1.5;"/>
    </g>
    <g id="line2d_15"/>
    <g id="text_10">
     <!-- Gd -->
     <defs>
      <path d="M 59.515625 10.40625 
L 59.515625 29.984375 
L 43.40625 29.984375 
L 43.40625 38.09375 
L 69.28125 38.09375 
L 69.28125 6.78125 
Q 63.578125 2.734375 56.6875 0.65625 
Q 49.8125 -1.421875 42 -1.421875 
Q 24.90625 -1.421875 15.25 8.5625 
Q 5.609375 18.5625 5.609375 36.375 
Q 5.609375 54.25 15.25 64.234375 
Q 24.90625 74.21875 42 74.21875 
Q 49.125 74.21875 55.546875 72.453125 
Q 61.96875 70.703125 67.390625 67.28125 
L 67.390625 56.78125 
Q 61.921875 61.421875 55.765625 63.765625 
Q 49.609375 66.109375 42.828125 66.109375 
Q 29.4375 66.109375 22.71875 58.640625 
Q 16.015625 51.171875 16.015625 36.375 
Q 16.015625 21.625 22.71875 14.15625 
Q 29.4375 6.6875 42.828125 6.6875 
Q 48.046875 6.6875 52.140625 7.59375 
Q 56.25 8.5 59.515625 10.40625 
z
" id="DejaVuSans-47"/>
      <path d="M 45.40625 46.390625 
L 45.40625 75.984375 
L 54.390625 75.984375 
L 54.390625 0 
L 45.40625 0 
L 45.40625 8.203125 
Q 42.578125 3.328125 38.25 0.953125 
Q 33.9375 -1.421875 27.875 -1.421875 
Q 17.96875 -1.421875 11.734375 6.484375 
Q 5.515625 14.40625 5.515625 27.296875 
Q 5.515625 40.1875 11.734375 48.09375 
Q 17.96875 56 27.875 56 
Q 33.9375 56 38.25 53.625 
Q 42.578125 51.265625 45.40625 46.390625 
z
M 14.796875 27.296875 
Q 14.796875 17.390625 18.875 11.75 
Q 22.953125 6.109375 30.078125 6.109375 
Q 37.203125 6.109375 41.296875 11.75 
Q 45.40625 17.390625 45.40625 27.296875 
Q 45.40625 37.203125 41.296875 42.84375 
Q 37.203125 48.484375 30.078125 48.484375 
Q 22.953125 48.484375 18.875 42.84375 
Q 14.796875 37.203125 14.796875 27.296875 
z
" id="DejaVuSans-64"/>
     </defs>
     <g transform="translate(61.19 137.486413)scale(0.1 -0.1)">
      <use xlink:href="#DejaVuSans-47"/>
      <use x="77.490234" xlink:href="#DejaVuSans-64"/>
     </g>
    </g>
    <g id="line2d_16">
     <path d="M 33.19 148.664537 
L 53.19 148.664537 
" style="fill:none;stroke:#006400;stroke-linecap:square;stroke-width:1.5;"/>
    </g>
    <g id="line2d_17"/>
    <g id="text_11">
     <!-- Ni -->
     <defs>
      <path d="M 9.8125 72.90625 
L 23.09375 72.90625 
L 55.421875 11.921875 
L 55.421875 72.90625 
L 64.984375 72.90625 
L 64.984375 0 
L 51.703125 0 
L 19.390625 60.984375 
L 19.390625 0 
L 9.8125 0 
z
" id="DejaVuSans-4e"/>
      <path d="M 9.421875 54.6875 
L 18.40625 54.6875 
L 18.40625 0 
L 9.421875 0 
z
M 9.421875 75.984375 
L 18.40625 75.984375 
L 18.40625 64.59375 
L 9.421875 64.59375 
z
" id="DejaVuSans-69"/>
     </defs>
     <g transform="translate(61.19 152.164537)scale(0.1 -0.1)">
      <use xlink:href="#DejaVuSans-4e"/>
      <use x="74.804688" xlink:href="#DejaVuSans-69"/>
     </g>
    </g>
    <g id="line2d_18">
     <path d="M 33.19 163.342663 
L 53.19 163.342663 
" style="fill:none;stroke:#a0522d;stroke-linecap:square;stroke-width:1.5;"/>
    </g>
    <g id="line2d_19"/>
    <g id="text_12">
     <!-- O -->
     <defs>
      <path d="M 39.40625 66.21875 
Q 28.65625 66.21875 22.328125 58.203125 
Q 16.015625 50.203125 16.015625 36.375 
Q 16.015625 22.609375 22.328125 14.59375 
Q 28.65625 6.59375 39.40625 6.59375 
Q 50.140625 6.59375 56.421875 14.59375 
Q 62.703125 22.609375 62.703125 36.375 
Q 62.703125 50.203125 56.421875 58.203125 
Q 50.140625 66.21875 39.40625 66.21875 
z
M 39.40625 74.21875 
Q 54.734375 74.21875 63.90625 63.9375 
Q 73.09375 53.65625 73.09375 36.375 
Q 73.09375 19.140625 63.90625 8.859375 
Q 54.734375 -1.421875 39.40625 -1.421875 
Q 24.03125 -1.421875 14.8125 8.828125 
Q 5.609375 19.09375 5.609375 36.375 
Q 5.609375 53.65625 14.8125 63.9375 
Q 24.03125 74.21875 39.40625 74.21875 
z
" id="DejaVuSans-4f"/>
     </defs>
     <g transform="translate(61.19 166.842663)scale(0.1 -0.1)">
      <use xlink:href="#DejaVuSans-4f"/>
     </g>
    </g>
   </g>
  </g>
 </g>
 <defs>
  <clipPath id="p84161f5dd9">
   <rect height="233.5066" width="250.49" x="24.19" y="25.3128"/>
  </clipPath>
 </defs>
</svg>
