<?xml version="1.0" encoding="utf-8" standalone="no"?>
<!DOCTYPE svg PUBLIC "-//W3C//DTD SVG 1.1//EN"
  "http://www.w3.org/Graphics/SVG/1.1/DTD/svg11.dtd">
<!-- Created with matplotlib (http://matplotlib.org/) -->
<svg height="214.56pt" version="1.1" viewBox="0 0 576 214.56" width="576pt" xmlns="http://www.w3.org/2000/svg" xmlns:xlink="http://www.w3.org/1999/xlink">
 <defs>
  <style type="text/css">
*{stroke-linecap:butt;stroke-linejoin:round;}
  </style>
 </defs>
 <g id="figure_1">
  <g id="patch_1">
   <path d="M 0 214.56 
L 576 214.56 
L 576 0 
L 0 0 
z
" style="fill:#ffffff;"/>
  </g>
  <g id="axes_1">
   <g id="patch_2">
    <path d="M 33.64 186.865867 
L 562.68 186.865867 
L 562.68 25.2704 
L 33.64 25.2704 
z
" style="fill:#ffffff;"/>
   </g>
   <g id="matplotlib.axis_1">
    <g id="xtick_1">
     <g id="line2d_1">
      <defs>
       <path d="M 0 0 
L 0 3.5 
" id="mf980d675e3" style="stroke:#000000;stroke-width:0.8;"/>
      </defs>
      <g>
       <use style="stroke:#000000;stroke-width:0.8;" x="33.64" xlink:href="#mf980d675e3" y="186.865867"/>
      </g>
     </g>
     <g id="text_1">
      <!-- 0.0 -->
      <defs>
       <path d="M 31.78125 66.40625 
Q 24.171875 66.40625 20.328125 58.90625 
Q 16.5 51.421875 16.5 36.375 
Q 16.5 21.390625 20.328125 13.890625 
Q 24.171875 6.390625 31.78125 6.390625 
Q 39.453125 6.390625 43.28125 13.890625 
Q 47.125 21.390625 47.125 36.375 
Q 47.125 51.421875 43.28125 58.90625 
Q 39.453125 66.40625 31.78125 66.40625 
z
M 31.78125 74.21875 
Q 44.046875 74.21875 50.515625 64.515625 
Q 56.984375 54.828125 56.984375 36.375 
Q 56.984375 17.96875 50.515625 8.265625 
Q 44.046875 -1.421875 31.78125 -1.421875 
Q 19.53125 -1.421875 13.0625 8.265625 
Q 6.59375 17.96875 6.59375 36.375 
Q 6.59375 54.828125 13.0625 64.515625 
Q 19.53125 74.21875 31.78125 74.21875 
z
" id="DejaVuSans-30"/>
       <path d="M 10.6875 12.40625 
L 21 12.40625 
L 21 0 
L 10.6875 0 
z
" id="DejaVuSans-2e"/>
      </defs>
      <g transform="translate(25.688438 201.464304)scale(0.1 -0.1)">
       <use xlink:href="#DejaVuSans-30"/>
       <use x="63.623047" xlink:href="#DejaVuSans-2e"/>
       <use x="95.410156" xlink:href="#DejaVuSans-30"/>
      </g>
     </g>
    </g>
    <g id="xtick_2">
     <g id="line2d_2">
      <g>
       <use style="stroke:#000000;stroke-width:0.8;" x="98.473333" xlink:href="#mf980d675e3" y="186.865867"/>
      </g>
     </g>
     <g id="text_2">
      <!-- 2.5 -->
      <defs>
       <path d="M 19.1875 8.296875 
L 53.609375 8.296875 
L 53.609375 0 
L 7.328125 0 
L 7.328125 8.296875 
Q 12.9375 14.109375 22.625 23.890625 
Q 32.328125 33.6875 34.8125 36.53125 
Q 39.546875 41.84375 41.421875 45.53125 
Q 43.3125 49.21875 43.3125 52.78125 
Q 43.3125 58.59375 39.234375 62.25 
Q 35.15625 65.921875 28.609375 65.921875 
Q 23.96875 65.921875 18.8125 64.3125 
Q 13.671875 62.703125 7.8125 59.421875 
L 7.8125 69.390625 
Q 13.765625 71.78125 18.9375 73 
Q 24.125 74.21875 28.421875 74.21875 
Q 39.75 74.21875 46.484375 68.546875 
Q 53.21875 62.890625 53.21875 53.421875 
Q 53.21875 48.921875 51.53125 44.890625 
Q 49.859375 40.875 45.40625 35.40625 
Q 44.1875 33.984375 37.640625 27.21875 
Q 31.109375 20.453125 19.1875 8.296875 
z
" id="DejaVuSans-32"/>
       <path d="M 10.796875 72.90625 
L 49.515625 72.90625 
L 49.515625 64.59375 
L 19.828125 64.59375 
L 19.828125 46.734375 
Q 21.96875 47.46875 24.109375 47.828125 
Q 26.265625 48.1875 28.421875 48.1875 
Q 40.625 48.1875 47.75 41.5 
Q 54.890625 34.8125 54.890625 23.390625 
Q 54.890625 11.625 47.5625 5.09375 
Q 40.234375 -1.421875 26.90625 -1.421875 
Q 22.3125 -1.421875 17.546875 -0.640625 
Q 12.796875 0.140625 7.71875 1.703125 
L 7.71875 11.625 
Q 12.109375 9.234375 16.796875 8.0625 
Q 21.484375 6.890625 26.703125 6.890625 
Q 35.15625 6.890625 40.078125 11.328125 
Q 45.015625 15.765625 45.015625 23.390625 
Q 45.015625 31 40.078125 35.4375 
Q 35.15625 39.890625 26.703125 39.890625 
Q 22.75 39.890625 18.8125 39.015625 
Q 14.890625 38.140625 10.796875 36.28125 
z
" id="DejaVuSans-35"/>
      </defs>
      <g transform="translate(90.521771 201.464304)scale(0.1 -0.1)">
       <use xlink:href="#DejaVuSans-32"/>
       <use x="63.623047" xlink:href="#DejaVuSans-2e"/>
       <use x="95.410156" xlink:href="#DejaVuSans-35"/>
      </g>
     </g>
    </g>
    <g id="xtick_3">
     <g id="line2d_3">
      <g>
       <use style="stroke:#000000;stroke-width:0.8;" x="163.306667" xlink:href="#mf980d675e3" y="186.865867"/>
      </g>
     </g>
     <g id="text_3">
      <!-- 5.0 -->
      <g transform="translate(155.355104 201.464304)scale(0.1 -0.1)">
       <use xlink:href="#DejaVuSans-35"/>
       <use x="63.623047" xlink:href="#DejaVuSans-2e"/>
       <use x="95.410156" xlink:href="#DejaVuSans-30"/>
      </g>
     </g>
    </g>
    <g id="xtick_4">
     <g id="line2d_4">
      <g>
       <use style="stroke:#000000;stroke-width:0.8;" x="228.14" xlink:href="#mf980d675e3" y="186.865867"/>
      </g>
     </g>
     <g id="text_4">
      <!-- 7.5 -->
      <defs>
       <path d="M 8.203125 72.90625 
L 55.078125 72.90625 
L 55.078125 68.703125 
L 28.609375 0 
L 18.3125 0 
L 43.21875 64.59375 
L 8.203125 64.59375 
z
" id="DejaVuSans-37"/>
      </defs>
      <g transform="translate(220.188438 201.464304)scale(0.1 -0.1)">
       <use xlink:href="#DejaVuSans-37"/>
       <use x="63.623047" xlink:href="#DejaVuSans-2e"/>
       <use x="95.410156" xlink:href="#DejaVuSans-35"/>
      </g>
     </g>
    </g>
    <g id="xtick_5">
     <g id="line2d_5">
      <g>
       <use style="stroke:#000000;stroke-width:0.8;" x="292.973333" xlink:href="#mf980d675e3" y="186.865867"/>
      </g>
     </g>
     <g id="text_5">
      <!-- 10.0 -->
      <defs>
       <path d="M 12.40625 8.296875 
L 28.515625 8.296875 
L 28.515625 63.921875 
L 10.984375 60.40625 
L 10.984375 69.390625 
L 28.421875 72.90625 
L 38.28125 72.90625 
L 38.28125 8.296875 
L 54.390625 8.296875 
L 54.390625 0 
L 12.40625 0 
z
" id="DejaVuSans-31"/>
      </defs>
      <g transform="translate(281.840521 201.464304)scale(0.1 -0.1)">
       <use xlink:href="#DejaVuSans-31"/>
       <use x="63.623047" xlink:href="#DejaVuSans-30"/>
       <use x="127.246094" xlink:href="#DejaVuSans-2e"/>
       <use x="159.033203" xlink:href="#DejaVuSans-30"/>
      </g>
     </g>
    </g>
    <g id="xtick_6">
     <g id="line2d_6">
      <g>
       <use style="stroke:#000000;stroke-width:0.8;" x="357.806667" xlink:href="#mf980d675e3" y="186.865867"/>
      </g>
     </g>
     <g id="text_6">
      <!-- 12.5 -->
      <g transform="translate(346.673854 201.464304)scale(0.1 -0.1)">
       <use xlink:href="#DejaVuSans-31"/>
       <use x="63.623047" xlink:href="#DejaVuSans-32"/>
       <use x="127.246094" xlink:href="#DejaVuSans-2e"/>
       <use x="159.033203" xlink:href="#DejaVuSans-35"/>
      </g>
     </g>
    </g>
    <g id="xtick_7">
     <g id="line2d_7">
      <g>
       <use style="stroke:#000000;stroke-width:0.8;" x="422.64" xlink:href="#mf980d675e3" y="186.865867"/>
      </g>
     </g>
     <g id="text_7">
      <!-- 15.0 -->
      <g transform="translate(411.507187 201.464304)scale(0.1 -0.1)">
       <use xlink:href="#DejaVuSans-31"/>
       <use x="63.623047" xlink:href="#DejaVuSans-35"/>
       <use x="127.246094" xlink:href="#DejaVuSans-2e"/>
       <use x="159.033203" xlink:href="#DejaVuSans-30"/>
      </g>
     </g>
    </g>
    <g id="xtick_8">
     <g id="line2d_8">
      <g>
       <use style="stroke:#000000;stroke-width:0.8;" x="487.473333" xlink:href="#mf980d675e3" y="186.865867"/>
      </g>
     </g>
     <g id="text_8">
      <!-- 17.5 -->
      <g transform="translate(476.340521 201.464304)scale(0.1 -0.1)">
       <use xlink:href="#DejaVuSans-31"/>
       <use x="63.623047" xlink:href="#DejaVuSans-37"/>
       <use x="127.246094" xlink:href="#DejaVuSans-2e"/>
       <use x="159.033203" xlink:href="#DejaVuSans-35"/>
      </g>
     </g>
    </g>
    <g id="xtick_9">
     <g id="line2d_9">
      <g>
       <use style="stroke:#000000;stroke-width:0.8;" x="552.306667" xlink:href="#mf980d675e3" y="186.865867"/>
      </g>
     </g>
     <g id="text_9">
      <!-- 20.0 -->
      <g transform="translate(541.173854 201.464304)scale(0.1 -0.1)">
       <use xlink:href="#DejaVuSans-32"/>
       <use x="63.623047" xlink:href="#DejaVuSans-30"/>
       <use x="127.246094" xlink:href="#DejaVuSans-2e"/>
       <use x="159.033203" xlink:href="#DejaVuSans-30"/>
      </g>
     </g>
    </g>
   </g>
   <g id="matplotlib.axis_2">
    <g id="ytick_1">
     <g id="line2d_10">
      <defs>
       <path d="M 0 0 
L -3.5 0 
" id="m4462e894e2" style="stroke:#000000;stroke-width:0.8;"/>
      </defs>
      <g>
       <use style="stroke:#000000;stroke-width:0.8;" x="33.64" xlink:href="#m4462e894e2" y="179.520618"/>
      </g>
     </g>
     <g id="text_10">
      <!-- 0.0 -->
      <g transform="translate(10.736875 183.319837)scale(0.1 -0.1)">
       <use xlink:href="#DejaVuSans-30"/>
       <use x="63.623047" xlink:href="#DejaVuSans-2e"/>
       <use x="95.410156" xlink:href="#DejaVuSans-30"/>
      </g>
     </g>
    </g>
    <g id="ytick_2">
     <g id="line2d_11">
      <g>
       <use style="stroke:#000000;stroke-width:0.8;" x="33.64" xlink:href="#m4462e894e2" y="150.139624"/>
      </g>
     </g>
     <g id="text_11">
      <!-- 0.2 -->
      <g transform="translate(10.736875 153.938843)scale(0.1 -0.1)">
       <use xlink:href="#DejaVuSans-30"/>
       <use x="63.623047" xlink:href="#DejaVuSans-2e"/>
       <use x="95.410156" xlink:href="#DejaVuSans-32"/>
      </g>
     </g>
    </g>
    <g id="ytick_3">
     <g id="line2d_12">
      <g>
       <use style="stroke:#000000;stroke-width:0.8;" x="33.64" xlink:href="#m4462e894e2" y="120.75863"/>
      </g>
     </g>
     <g id="text_12">
      <!-- 0.4 -->
      <defs>
       <path d="M 37.796875 64.3125 
L 12.890625 25.390625 
L 37.796875 25.390625 
z
M 35.203125 72.90625 
L 47.609375 72.90625 
L 47.609375 25.390625 
L 58.015625 25.390625 
L 58.015625 17.1875 
L 47.609375 17.1875 
L 47.609375 0 
L 37.796875 0 
L 37.796875 17.1875 
L 4.890625 17.1875 
L 4.890625 26.703125 
z
" id="DejaVuSans-34"/>
      </defs>
      <g transform="translate(10.736875 124.557849)scale(0.1 -0.1)">
       <use xlink:href="#DejaVuSans-30"/>
       <use x="63.623047" xlink:href="#DejaVuSans-2e"/>
       <use x="95.410156" xlink:href="#DejaVuSans-34"/>
      </g>
     </g>
    </g>
    <g id="ytick_4">
     <g id="line2d_13">
      <g>
       <use style="stroke:#000000;stroke-width:0.8;" x="33.64" xlink:href="#m4462e894e2" y="91.377636"/>
      </g>
     </g>
     <g id="text_13">
      <!-- 0.6 -->
      <defs>
       <path d="M 33.015625 40.375 
Q 26.375 40.375 22.484375 35.828125 
Q 18.609375 31.296875 18.609375 23.390625 
Q 18.609375 15.53125 22.484375 10.953125 
Q 26.375 6.390625 33.015625 6.390625 
Q 39.65625 6.390625 43.53125 10.953125 
Q 47.40625 15.53125 47.40625 23.390625 
Q 47.40625 31.296875 43.53125 35.828125 
Q 39.65625 40.375 33.015625 40.375 
z
M 52.59375 71.296875 
L 52.59375 62.3125 
Q 48.875 64.0625 45.09375 64.984375 
Q 41.3125 65.921875 37.59375 65.921875 
Q 27.828125 65.921875 22.671875 59.328125 
Q 17.53125 52.734375 16.796875 39.40625 
Q 19.671875 43.65625 24.015625 45.921875 
Q 28.375 48.1875 33.59375 48.1875 
Q 44.578125 48.1875 50.953125 41.515625 
Q 57.328125 34.859375 57.328125 23.390625 
Q 57.328125 12.15625 50.6875 5.359375 
Q 44.046875 -1.421875 33.015625 -1.421875 
Q 20.359375 -1.421875 13.671875 8.265625 
Q 6.984375 17.96875 6.984375 36.375 
Q 6.984375 53.65625 15.1875 63.9375 
Q 23.390625 74.21875 37.203125 74.21875 
Q 40.921875 74.21875 44.703125 73.484375 
Q 48.484375 72.75 52.59375 71.296875 
z
" id="DejaVuSans-36"/>
      </defs>
      <g transform="translate(10.736875 95.176855)scale(0.1 -0.1)">
       <use xlink:href="#DejaVuSans-30"/>
       <use x="63.623047" xlink:href="#DejaVuSans-2e"/>
       <use x="95.410156" xlink:href="#DejaVuSans-36"/>
      </g>
     </g>
    </g>
    <g id="ytick_5">
     <g id="line2d_14">
      <g>
       <use style="stroke:#000000;stroke-width:0.8;" x="33.64" xlink:href="#m4462e894e2" y="61.996642"/>
      </g>
     </g>
     <g id="text_14">
      <!-- 0.8 -->
      <defs>
       <path d="M 31.78125 34.625 
Q 24.75 34.625 20.71875 30.859375 
Q 16.703125 27.09375 16.703125 20.515625 
Q 16.703125 13.921875 20.71875 10.15625 
Q 24.75 6.390625 31.78125 6.390625 
Q 38.8125 6.390625 42.859375 10.171875 
Q 46.921875 13.96875 46.921875 20.515625 
Q 46.921875 27.09375 42.890625 30.859375 
Q 38.875 34.625 31.78125 34.625 
z
M 21.921875 38.8125 
Q 15.578125 40.375 12.03125 44.71875 
Q 8.5 49.078125 8.5 55.328125 
Q 8.5 64.0625 14.71875 69.140625 
Q 20.953125 74.21875 31.78125 74.21875 
Q 42.671875 74.21875 48.875 69.140625 
Q 55.078125 64.0625 55.078125 55.328125 
Q 55.078125 49.078125 51.53125 44.71875 
Q 48 40.375 41.703125 38.8125 
Q 48.828125 37.15625 52.796875 32.3125 
Q 56.78125 27.484375 56.78125 20.515625 
Q 56.78125 9.90625 50.3125 4.234375 
Q 43.84375 -1.421875 31.78125 -1.421875 
Q 19.734375 -1.421875 13.25 4.234375 
Q 6.78125 9.90625 6.78125 20.515625 
Q 6.78125 27.484375 10.78125 32.3125 
Q 14.796875 37.15625 21.921875 38.8125 
z
M 18.3125 54.390625 
Q 18.3125 48.734375 21.84375 45.5625 
Q 25.390625 42.390625 31.78125 42.390625 
Q 38.140625 42.390625 41.71875 45.5625 
Q 45.3125 48.734375 45.3125 54.390625 
Q 45.3125 60.0625 41.71875 63.234375 
Q 38.140625 66.40625 31.78125 66.40625 
Q 25.390625 66.40625 21.84375 63.234375 
Q 18.3125 60.0625 18.3125 54.390625 
z
" id="DejaVuSans-38"/>
      </defs>
      <g transform="translate(10.736875 65.795861)scale(0.1 -0.1)">
       <use xlink:href="#DejaVuSans-30"/>
       <use x="63.623047" xlink:href="#DejaVuSans-2e"/>
       <use x="95.410156" xlink:href="#DejaVuSans-38"/>
      </g>
     </g>
    </g>
    <g id="ytick_6">
     <g id="line2d_15">
      <g>
       <use style="stroke:#000000;stroke-width:0.8;" x="33.64" xlink:href="#m4462e894e2" y="32.615648"/>
      </g>
     </g>
     <g id="text_15">
      <!-- 1.0 -->
      <g transform="translate(10.736875 36.414867)scale(0.1 -0.1)">
       <use xlink:href="#DejaVuSans-31"/>
       <use x="63.623047" xlink:href="#DejaVuSans-2e"/>
       <use x="95.410156" xlink:href="#DejaVuSans-30"/>
      </g>
     </g>
    </g>
   </g>
   <g id="line2d_16">
    <path clip-path="url(#pdea3e73033)" d="M 33.64 179.520618 
L 54.055383 179.446595 
L 55.46334 178.573554 
L 56.284648 178.10111 
L 57.692606 179.000277 
L 58.748574 179.520618 
L 59.335223 179.418292 
L 61.09517 179.041643 
L 63.676425 179.520618 
L 69.777574 179.418292 
L 71.068201 179.392166 
L 72.828148 179.520618 
L 75.644063 179.464012 
L 77.40401 178.329712 
L 77.755999 178.172956 
L 78.577308 178.719423 
L 79.867935 179.276776 
L 80.571914 179.320319 
L 82.097201 179.329028 
L 84.913116 178.989391 
L 87.377041 179.520618 
L 87.846361 179.172273 
L 89.606307 177.61778 
L 89.840967 177.665678 
L 92.070233 177.114856 
L 94.534158 179.520618 
L 95.355467 179.427 
L 96.998084 179.02858 
L 97.702063 178.358015 
L 98.99269 177.066959 
L 99.11002 176.960278 
L 101.456616 178.51477 
L 101.925935 178.399381 
L 103.099233 177.757118 
L 104.037871 177.360875 
L 106.149807 178.196905 
L 106.384467 178.223031 
L 108.613733 179.520618 
L 108.965722 179.472721 
L 111.194988 178.188196 
L 113.424254 174.578465 
L 114.128232 175.673576 
L 115.770849 178.175133 
L 116.005509 178.105464 
L 118.117445 175.290396 
L 118.234775 175.201132 
L 118.586764 175.514644 
L 119.408073 175.856458 
L 120.464041 176.257055 
L 120.581371 176.109008 
L 120.81603 176.16126 
L 121.402679 175.815092 
L 123.045296 174.728689 
L 125.274562 178.445101 
L 125.391892 178.445101 
L 125.861211 177.558997 
L 127.738487 173.670589 
L 127.855817 173.775093 
L 128.442466 173.241688 
L 129.381104 172.264143 
L 130.202413 171.526086 
L 131.258381 172.523225 
L 132.666338 173.701069 
L 133.722306 175.749777 
L 135.012934 177.839851 
L 136.186232 176.975518 
L 137.2422 176.093768 
L 137.35953 176.154729 
L 137.946179 177.008175 
L 139.706126 179.18969 
L 140.058115 178.279637 
L 141.114083 175.079211 
L 142.052721 172.214069 
L 142.170051 172.39695 
L 142.404711 172.185766 
L 143.812668 170.400494 
L 144.399317 169.586236 
L 144.516647 169.732106 
L 145.807274 172.52758 
L 146.863242 174.371634 
L 147.215232 174.23665 
L 148.505859 173.441987 
L 148.975179 173.082756 
L 149.209838 172.791016 
L 149.561827 172.989138 
L 149.913817 173.006555 
L 151.087115 173.050098 
L 152.847061 172.553706 
L 154.020359 171.876609 
L 154.489678 172.240195 
L 155.076327 172.647324 
L 157.070934 173.522542 
L 157.774912 173.370141 
L 158.126902 173.311357 
L 158.478891 173.228625 
L 159.652189 172.592895 
L 160.825487 171.715499 
L 161.177476 171.384571 
L 161.646795 171.841774 
L 163.406742 173.161133 
L 163.876061 172.538466 
L 164.932029 170.119641 
L 165.870668 167.857571 
L 168.217263 175.151058 
L 168.334593 175.077034 
L 169.273231 174.262776 
L 170.681189 173.106704 
L 170.915848 173.328775 
L 172.323806 173.093641 
L 172.793125 172.984783 
L 172.910455 172.984783 
L 173.027784 172.784485 
L 173.379774 173.259106 
L 174.201082 173.674943 
L 175.022391 174.119084 
L 175.25705 174.188753 
L 175.37438 174.040706 
L 175.49171 174.077718 
L 176.078359 174.770055 
L 177.838306 176.039339 
L 178.307625 174.630716 
L 179.246263 171.541326 
L 180.067572 168.863419 
L 180.184901 168.39533 
L 180.88888 170.727068 
L 181.475529 172.481859 
L 182.531497 175.610439 
L 183.352806 176.089414 
L 183.822125 176.267941 
L 184.878093 176.470417 
L 184.995422 176.457354 
L 187.342018 179.514087 
L 187.459348 179.322497 
L 188.280656 176.076351 
L 189.805944 170.274219 
L 190.392593 170.994859 
L 191.80055 172.71917 
L 192.03521 172.91076 
L 192.269869 172.825851 
L 192.739188 172.244549 
L 194.147146 170.269865 
L 194.499135 169.780004 
L 194.851124 169.991188 
L 195.555103 170.150121 
L 196.728401 170.354774 
L 196.845731 170.123995 
L 197.901699 173.050098 
L 198.957667 175.882584 
L 199.309656 176.507429 
L 200.130965 175.810737 
L 201.656252 174.151741 
L 202.242901 174.939873 
L 204.120177 176.8819 
L 204.941486 176.585806 
L 206.232114 175.987087 
L 206.466773 175.871698 
L 206.818762 175.734537 
L 208.813369 174.186576 
L 209.165358 174.532744 
L 209.869337 175.0422 
L 212.215933 176.187386 
L 212.567922 176.304953 
L 213.50656 176.439937 
L 214.797188 176.466062 
L 215.618496 176.492188 
L 215.970486 176.470417 
L 216.322475 176.768688 
L 218.199752 177.611249 
L 218.786401 177.169285 
L 220.077028 175.643096 
L 220.781007 174.815775 
L 221.836975 175.719297 
L 223.010273 176.511783 
L 223.244932 176.424696 
L 225.474198 173.844762 
L 225.826188 174.393406 
L 227.820794 175.915241 
L 228.290113 175.725828 
L 229.228751 175.129286 
L 229.698071 174.837547 
L 230.284719 174.428241 
L 230.754039 174.987771 
L 232.044666 176.285358 
L 232.513985 176.729499 
L 232.631315 176.72079 
L 233.217964 177.167108 
L 235.095241 178.270928 
L 235.56456 177.38047 
L 237.207177 173.844762 
L 237.441836 173.483353 
L 239.319113 175.649627 
L 239.671102 175.96967 
L 239.788432 175.950076 
L 240.375081 176.620641 
L 241.665709 177.900811 
L 242.135028 178.249157 
L 242.839006 177.920405 
L 243.660315 177.458848 
L 244.598953 176.923266 
L 245.537591 178.046681 
L 246.12424 178.710715 
L 247.062879 179.520618 
L 250.113453 179.409583 
L 251.63874 179.078655 
L 251.99073 178.978505 
L 253.398687 178.125059 
L 254.102666 177.678741 
L 254.454655 177.726638 
L 256.566591 177.312978 
L 258.561198 179.124375 
L 258.913187 179.231056 
L 261.025123 177.515454 
L 261.259783 177.336927 
L 263.371719 179.300725 
L 263.606378 179.455303 
L 263.958368 179.387811 
L 265.600985 178.754258 
L 266.070304 178.612742 
L 267.008942 179.015517 
L 268.534229 179.431355 
L 270.880825 178.678057 
L 271.467474 178.828281 
L 273.110091 178.985037 
L 273.34475 178.449455 
L 275.574016 170.814155 
L 277.920612 179.520618 
L 278.97658 179.418292 
L 280.736527 179.289839 
L 282.261814 179.405229 
L 282.731133 179.318142 
L 283.317782 178.190373 
L 284.960399 174.643779 
L 285.195059 174.49791 
L 285.781708 174.267131 
L 286.485686 173.96886 
L 287.306995 173.487707 
L 287.424325 173.354901 
L 287.893644 174.365103 
L 289.653591 177.983543 
L 289.77092 178.125059 
L 289.88825 178.077161 
L 291.061548 171.711145 
L 292.117516 165.73484 
L 292.234846 165.290699 
L 292.469505 165.356014 
L 292.704165 165.194904 
L 293.994793 164.456847 
L 294.464112 164.07149 
L 294.581442 163.720967 
L 295.28542 165.94167 
L 296.928037 170.957847 
L 297.045367 170.975265 
L 297.749346 168.406216 
L 299.274633 162.434265 
L 299.391963 162.203486 
L 301.738558 172.645146 
L 301.855888 172.640792 
L 302.090548 172.070376 
L 303.967824 166.666665 
L 304.085154 166.209461 
L 304.202484 166.324851 
L 305.023792 169.087667 
L 306.54908 173.400621 
L 306.666409 173.311357 
L 307.253058 172.214069 
L 308.191697 170.415734 
L 308.895675 168.80899 
L 310.772952 173.082756 
L 311.242271 174.008049 
L 311.359601 173.768561 
L 312.650228 163.585983 
L 313.706196 155.850533 
L 314.175516 157.720714 
L 316.052792 164.221714 
L 316.287452 163.986581 
L 319.338026 159.003061 
L 320.863313 156.148804 
L 322.153941 160.69036 
L 323.209909 164.047541 
L 323.327239 163.982226 
L 323.796558 162.662867 
L 325.908494 156.471024 
L 326.612473 154.513757 
L 328.25509 149.173183 
L 329.311058 143.819546 
L 330.367026 138.376646 
L 330.836345 139.513123 
L 331.657654 141.274446 
L 332.713622 143.384114 
L 332.830951 143.488618 
L 333.53493 143.168575 
L 334.004249 142.979162 
L 334.825558 142.539376 
L 335.060217 142.404392 
L 335.177547 142.691777 
L 336.585505 150.272649 
L 337.524143 154.949189 
L 339.04943 145.062704 
L 339.870739 139.700359 
L 340.340058 141.707701 
L 342.217334 150.054933 
L 342.334664 150.022275 
L 343.507962 145.866077 
L 344.68126 141.781724 
L 344.915919 142.001617 
L 346.910526 143.079312 
L 347.027855 143.02706 
L 347.497175 144.357305 
L 348.201153 146.118627 
L 349.374451 148.992479 
L 349.491781 148.790003 
L 351.721047 138.39624 
L 351.838377 138.002174 
L 352.777015 139.038502 
L 353.246334 139.447808 
L 354.067642 140.251181 
L 354.184972 140.222877 
L 354.302302 140.36657 
L 354.654291 140.192397 
L 354.888951 139.992098 
L 355.35827 139.656816 
L 355.944919 139.199612 
L 356.414238 138.870861 
L 356.883557 138.39624 
L 357.470206 137.825824 
L 359.112823 135.737928 
L 359.699472 134.494769 
L 360.403451 132.972934 
L 361.224759 131.124525 
L 361.342089 130.708688 
L 361.694079 132.591931 
L 362.632717 137.042046 
L 363.688685 141.814382 
L 363.806015 141.775193 
L 364.158004 140.856431 
L 364.627323 139.669879 
L 365.683291 136.917948 
L 366.739259 133.891696 
L 367.325908 131.882177 
L 368.616536 127.536565 
L 370.845802 118.880177 
L 370.963132 118.915011 
L 371.78444 119.476718 
L 372.0191 119.6596 
L 373.309727 120.722054 
L 374.365695 124.950099 
L 375.656323 129.855241 
L 375.890982 130.268901 
L 377.29894 131.490288 
L 377.650929 131.847342 
L 378.237578 132.112956 
L 379.058887 131.917012 
L 379.645536 131.812508 
L 379.880195 131.731953 
L 380.349514 131.577375 
L 380.584174 129.731143 
L 382.81344 108.65841 
L 382.93077 109.135208 
L 383.869408 112.518515 
L 384.456057 114.745749 
L 385.160035 117.338747 
L 385.277365 117.055716 
L 387.154642 111.503958 
L 387.858621 109.975592 
L 388.445269 109.100373 
L 389.149248 108.135891 
L 390.087886 106.646714 
L 391.730503 102.636385 
L 392.317152 101.040526 
L 392.669142 101.456364 
L 393.37312 102.089917 
L 394.194429 102.878049 
L 394.546418 103.171966 
L 394.663748 103.311304 
L 394.898408 104.883214 
L 395.954376 112.766711 
L 397.010344 120.767774 
L 397.127674 121.033388 
L 398.066312 113.731193 
L 399.474269 102.98473 
L 399.591599 103.106651 
L 401.820865 104.38029 
L 402.994163 97.267508 
L 404.050131 90.651118 
L 404.167461 89.976198 
L 404.28479 90.222217 
L 405.575418 106.200396 
L 406.631386 119.104424 
L 406.748716 118.727775 
L 409.095312 109.633777 
L 411.441907 87.949262 
L 413.905833 107.365176 
L 414.375152 107.628613 
L 414.844471 107.841975 
L 415.66578 108.283938 
L 416.135099 108.471174 
L 416.839077 108.590918 
L 417.191067 108.669295 
L 418.247035 108.799925 
L 418.481694 108.806457 
L 418.599024 108.140246 
L 420.006982 90.198269 
L 420.94562 78.918402 
L 422.353577 99.882277 
L 423.292216 113.574437 
L 423.409545 113.182548 
L 424.230854 107.7919 
L 425.756141 98.238521 
L 425.873471 98.275533 
L 427.281428 98.79152 
L 427.750747 98.872075 
L 427.985407 98.99835 
L 428.220067 98.552032 
L 429.980013 92.919719 
L 430.449332 91.317329 
L 432.795928 103.761976 
L 433.030588 101.510793 
L 433.969226 88.89415 
L 435.377183 72.262823 
L 437.606449 71.154649 
L 438.075768 70.89339 
L 438.310428 70.740988 
L 439.835715 69.894073 
L 439.953045 69.806987 
L 440.187705 72.796228 
L 442.416971 105.294697 
L 444.176917 92.469047 
L 446.288853 77.568563 
L 447.110162 71.79038 
L 447.227492 71.883998 
L 448.16613 75.572107 
L 449.574087 81.348113 
L 451.920683 99.468617 
L 452.976651 90.942857 
L 453.915289 83.105081 
L 454.267279 80.107131 
L 454.619268 82.441047 
L 456.027226 92.593145 
L 456.613874 96.962705 
L 456.731204 97.141232 
L 461.424396 79.386491 
L 461.776385 81.474388 
L 463.536332 92.532184 
L 463.888321 94.27609 
L 464.944289 92.445098 
L 465.413608 91.626486 
L 466.234917 90.045867 
L 467.877534 76.386365 
L 468.581513 70.760583 
L 468.933502 72.302012 
L 469.98947 77.723141 
L 470.928108 82.460642 
L 471.045438 82.136245 
L 473.392034 63.033842 
L 475.738629 95.630283 
L 475.855959 94.463325 
L 478.202555 68.735824 
L 478.789204 69.125536 
L 479.141193 69.282291 
L 480.431821 69.955034 
L 480.549151 70.39482 
L 482.895746 96.30738 
L 483.013076 95.514894 
L 483.951714 88.389049 
L 485.359672 77.313835 
L 486.650299 59.195508 
L 487.706267 45.714533 
L 488.644906 61.884301 
L 490.052863 85.49778 
L 491.108831 77.311658 
L 491.93014 70.93911 
L 492.399459 67.385985 
L 492.516789 67.355504 
L 494.746055 73.712812 
L 494.980714 73.908756 
L 497.20998 73.832556 
L 497.796629 72.227989 
L 498.735267 69.502184 
L 499.556576 67.126903 
L 500.143225 68.729292 
L 501.081863 71.52912 
L 502.020501 74.400795 
L 504.015108 85.859189 
L 504.367097 87.553019 
L 505.657725 74.598916 
L 506.713693 63.880757 
L 506.831022 63.830682 
L 509.060288 66.340948 
L 509.177618 65.437426 
L 510.233586 47.434489 
L 511.524214 26.14404 
L 512.580182 41.919742 
L 513.988139 61.261633 
L 514.340129 61.107055 
L 514.926778 60.828378 
L 515.161437 60.743469 
L 516.217405 60.225305 
L 516.569395 61.344365 
L 517.977352 66.445451 
L 518.564001 68.613903 
L 518.681331 68.572537 
L 521.027926 48.488235 
L 521.145256 49.060828 
L 522.083894 53.665521 
L 525.251799 68.330872 
L 525.838448 70.508032 
L 528.185043 56.89425 
L 529.006352 60.262317 
L 530.531639 66.314822 
L 530.883628 63.730533 
L 532.526245 49.589878 
L 532.878235 46.520082 
L 532.995564 46.382921 
L 534.872841 62.665901 
L 535.34216 66.541247 
L 537.571426 41.205634 
L 537.806086 39.409477 
L 539.800692 37.136522 
L 540.035352 36.816479 
L 540.152681 37.132167 
L 542.499277 52.836023 
L 542.851266 52.80772 
L 543.437915 52.742405 
L 543.789905 52.705394 
L 544.611213 52.583473 
L 544.845873 52.524689 
L 545.080532 51.801872 
L 546.25383 47.856858 
L 547.192468 44.654256 
L 547.309798 44.824074 
L 549.069745 56.077815 
L 549.656394 59.670129 
L 552.00299 57.462489 
L 553.410947 42.731823 
L 554.466915 32.305403 
L 554.818904 32.324998 
L 555.053564 32.388135 
L 555.874872 32.490462 
L 556.696181 32.649394 
L 556.813511 32.999917 
L 558.690787 50.780784 
L 559.160106 55.426844 
L 559.864085 53.998627 
L 560.568064 52.441957 
L 561.389372 50.726355 
L 561.624032 50.391073 
L 562.68 50.375832 
L 562.68 50.375832 
" style="fill:none;stroke:#191970;stroke-linecap:square;stroke-width:1.5;"/>
   </g>
   <g id="line2d_17">
    <path clip-path="url(#pdea3e73033)" d="M 33.64 46.982428 
L 33.75733 46.894409 
L 33.87466 47.314947 
L 33.991989 47.109568 
L 34.226649 47.246488 
L 34.461308 47.070448 
L 34.578638 47.246488 
L 34.695968 47.138908 
L 34.813298 47.217148 
L 35.282617 47.080228 
L 35.517277 47.129128 
L 35.869266 47.080228 
L 36.103925 46.933528 
L 36.338585 47.168248 
L 36.573245 47.217148 
L 37.159894 47.559447 
L 38.098532 46.43475 
L 38.215862 46.52277 
L 39.27183 45.671912 
L 39.506489 45.613232 
L 39.623819 45.534992 
L 39.975808 44.987314 
L 40.327798 44.615675 
L 40.562457 44.273376 
L 40.679787 44.576555 
L 40.914447 44.292936 
L 41.149106 44.116896 
L 41.383766 44.048437 
L 41.735755 43.569218 
L 42.322404 43.207359 
L 42.674393 42.8455 
L 42.791723 42.92374 
L 43.613032 42.258702 
L 43.847691 42.014202 
L 43.965021 42.023982 
L 44.31701 41.730583 
L 45.255649 42.8944 
L 45.372978 43.011759 
L 45.490308 42.81616 
L 45.607638 42.92374 
L 45.842298 43.285599 
L 46.076957 43.393178 
L 46.428947 44.234256 
L 46.780936 44.067996 
L 46.898266 44.038657 
L 47.132925 43.872397 
L 47.250255 43.813717 
L 47.719574 42.83572 
L 47.954234 42.581441 
L 48.306223 41.877283 
L 48.892872 41.280704 
L 49.127532 40.742806 
L 49.596851 40.234247 
L 50.06617 39.27581 
L 50.300829 38.972631 
L 50.535489 38.561872 
L 50.652819 38.483632 
L 51.004808 37.632774 
L 51.356798 37.466515 
L 51.474127 37.055756 
L 51.591457 37.114436 
L 51.826117 37.476295 
L 52.295436 37.916394 
L 52.882085 38.659672 
L 53.938053 39.442069 
L 54.172712 39.38339 
L 54.290042 39.41273 
L 54.642031 39.725689 
L 54.876691 39.794148 
L 55.111351 39.686569 
L 55.58067 39.862608 
L 55.815329 40.312487 
L 56.519308 39.657229 
L 56.753968 39.12911 
L 57.105957 38.346712 
L 57.223287 38.297813 
L 57.927265 37.026416 
L 58.631244 35.138881 
L 59.100563 36.126659 
L 59.921872 37.534975 
L 60.508521 38.865051 
L 61.09517 39.755029 
L 61.447159 39.588769 
L 61.916478 38.728131 
L 62.033808 38.865051 
L 62.503127 38.424952 
L 62.620457 38.464072 
L 62.972446 38.170673 
L 63.324436 37.525195 
L 63.793755 37.427395 
L 63.911084 37.632774 
L 64.145744 37.398055 
L 64.380404 37.124216 
L 65.084382 37.280695 
L 65.436372 37.163336 
L 66.023021 37.241576 
L 66.961659 36.957956 
L 67.430978 36.547198 
L 67.548308 36.527638 
L 67.782967 36.654777 
L 68.369616 36.654777 
L 68.721606 37.143776 
L 69.073595 37.456735 
L 69.542914 37.984853 
L 69.777574 37.593655 
L 69.894904 37.711014 
L 70.129563 38.415172 
L 70.246893 38.552092 
L 70.481552 38.962851 
L 70.598882 38.943291 
L 71.420191 37.808814 
L 71.65485 37.349155 
L 71.77218 37.212236 
L 71.88951 37.290475 
L 72.241499 36.869937 
L 72.945478 35.862599 
L 73.180138 35.57898 
L 73.297467 35.266021 
L 73.414797 35.363821 
L 74.001446 34.454283 
L 74.118776 34.493403 
L 74.588095 33.984845 
L 74.822754 33.446946 
L 74.940084 33.446946 
L 75.292074 32.830808 
L 76.113382 33.867485 
L 76.348042 34.473843 
L 76.934691 35.236681 
L 77.16935 35.72568 
L 77.755999 36.449398 
L 77.990659 36.273358 
L 78.107988 36.019079 
L 78.577308 36.420058 
L 78.694637 36.361378 
L 78.811967 36.449398 
L 79.163957 36.263578 
L 79.398616 36.302698 
L 79.633276 36.322258 
L 79.985265 36.380938 
L 80.219925 36.028859 
L 80.337254 35.833259 
L 80.454584 35.872379 
L 81.041233 34.865042 
L 81.393222 34.552083 
L 81.862542 33.691445 
L 82.097201 33.583866 
L 82.331861 33.222007 
L 82.68385 32.879708 
L 83.035839 32.556969 
L 83.270499 32.615648 
L 83.505159 32.488509 
L 83.739818 32.410269 
L 84.913116 31.598531 
L 85.265105 32.03863 
L 85.382435 31.94083 
L 85.499765 31.98973 
L 85.851754 32.498289 
L 86.203744 32.742788 
L 86.555733 33.036187 
L 86.790393 33.310027 
L 87.259712 33.564306 
L 87.611701 33.407826 
L 88.08102 33.769685 
L 88.31568 33.701225 
L 88.550339 33.720785 
L 88.667669 33.681666 
L 88.902329 33.789245 
L 89.136988 33.290467 
L 89.254318 33.456726 
L 89.606307 33.310027 
L 89.840967 33.701225 
L 89.958297 33.740345 
L 90.427616 34.239124 
L 90.544946 34.288024 
L 90.779605 34.953062 
L 91.248924 35.266021 
L 91.600914 35.77458 
L 91.718244 35.67678 
L 92.070233 35.80392 
L 92.187563 35.78436 
L 92.539552 36.361378 
L 93.126201 36.468958 
L 93.47819 36.723237 
L 93.83018 36.723237 
L 94.182169 36.654777 
L 94.416829 37.016636 
L 94.534158 36.899277 
L 94.768818 37.026416 
L 94.886148 37.202456 
L 95.003477 37.104656 
L 95.707456 37.681674 
L 96.059446 37.515415 
L 96.411435 37.642554 
L 96.528765 37.593655 
L 96.998084 37.799034 
L 97.350073 37.349155 
L 97.702063 37.486075 
L 97.936722 37.603435 
L 98.171382 37.290475 
L 98.406041 37.212236 
L 98.640701 37.153556 
L 98.99269 36.928616 
L 99.579339 37.065536 
L 99.696669 36.772137 
L 99.931328 36.811257 
L 100.048658 36.586317 
L 100.400648 36.830817 
L 100.752637 36.918836 
L 101.691275 36.537418 
L 101.925935 36.654777 
L 102.160594 36.361378 
L 102.395254 36.508078 
L 102.512584 36.420058 
L 102.747243 36.654777 
L 102.864573 36.674337 
L 103.099233 36.527638 
L 103.568552 36.547198 
L 103.803211 36.253798 
L 104.037871 36.283138 
L 104.50719 36.214678 
L 104.62452 36.107099 
L 104.859179 36.332038 
L 104.976509 36.341818 
L 105.211169 36.576537 
L 105.328499 36.429838 
L 105.563158 35.960399 
L 105.797818 36.185339 
L 105.915147 36.204898 
L 106.267137 35.911499 
L 106.971116 36.136439 
L 107.323105 36.957956 
L 107.557764 36.977516 
L 107.675094 36.928616 
L 108.144413 37.398055 
L 108.379073 37.388275 
L 108.613733 37.818594 
L 108.965722 37.681674 
L 109.200381 37.720794 
L 109.552371 37.476295 
L 109.78703 37.222016 
L 110.02169 37.329595 
L 110.373679 36.860157 
L 110.608339 36.977516 
L 110.842998 36.840597 
L 111.077658 36.488518 
L 111.546977 36.556977 
L 111.898967 35.979959 
L 112.133626 35.950619 
L 112.368286 35.843039 
L 112.602945 35.78436 
L 112.954935 35.344261 
L 113.658913 34.855262 
L 114.010903 34.962842 
L 114.362892 34.865042 
L 114.597552 34.464063 
L 114.832211 34.415163 
L 115.066871 34.532523 
L 115.41886 34.464063 
L 115.65352 34.366264 
L 115.888179 33.926165 
L 116.474828 34.581423 
L 116.709488 34.493403 
L 116.944147 34.816142 
L 117.765456 35.422501 
L 117.882786 35.324701 
L 118.469434 35.843039 
L 118.704094 35.911499 
L 118.821424 36.058199 
L 118.938754 35.999519 
L 119.408073 36.420058 
L 119.642732 36.801477 
L 120.112051 37.173116 
L 120.346711 37.163336 
L 120.581371 37.437175 
L 120.81603 37.319815 
L 121.05069 37.300255 
L 121.285349 36.987296 
L 121.754668 36.576537 
L 121.871998 36.772137 
L 122.223988 36.351598 
L 123.045296 35.57898 
L 123.631945 36.263578 
L 124.101264 36.723237 
L 124.335924 37.173116 
L 124.687913 37.534975 
L 125.391892 38.600992 
L 125.861211 38.258693 
L 126.09587 38.190233 
L 126.2132 38.072873 
L 126.56519 38.366272 
L 126.799849 38.082653 
L 126.917179 37.877274 
L 127.151839 37.975074 
L 127.621158 37.965294 
L 127.738487 38.180453 
L 128.090477 38.043533 
L 128.207807 38.033753 
L 128.442466 38.141333 
L 128.559796 37.975074 
L 128.794456 37.926174 
L 129.146445 37.779474 
L 129.381104 38.033753 
L 129.967753 37.437175 
L 130.437073 37.515415 
L 130.671732 37.652334 
L 130.789062 37.622994 
L 131.023721 37.388275 
L 131.258381 37.300255 
L 131.493041 37.153556 
L 131.84503 37.065536 
L 131.96236 37.085096 
L 132.197019 36.860157 
L 132.549009 36.781917 
L 133.956966 39.696349 
L 134.191626 40.175567 
L 134.426285 40.556986 
L 134.895604 41.632783 
L 135.130264 41.388284 
L 135.364923 41.270924 
L 135.951572 40.830826 
L 136.186232 40.361387 
L 136.538221 40.087548 
L 136.772881 40.263587 
L 137.35953 39.471409 
L 137.946179 40.136447 
L 138.063509 39.921288 
L 138.415498 40.087548 
L 138.532828 40.116888 
L 139.002147 40.772146 
L 139.236806 40.410287 
L 139.706126 40.713466 
L 139.940785 40.439627 
L 140.292774 40.322267 
L 140.410104 40.439627 
L 140.996753 40.116888 
L 141.114083 39.813708 
L 141.348743 40.067988 
L 141.935391 39.872388 
L 142.052721 39.559429 
L 142.170051 39.706129 
L 142.7567 39.07043 
L 143.108689 39.08999 
L 143.578008 38.640112 
L 143.695338 38.708571 
L 143.812668 38.640112 
L 143.929998 38.718351 
L 144.516647 38.385832 
L 144.868636 38.600992 
L 145.220625 38.845491 
L 145.337955 38.786811 
L 145.689945 39.08021 
L 145.924604 39.21713 
L 146.159264 39.510529 
L 146.276593 39.30515 
L 146.393923 39.33449 
L 146.745913 39.833268 
L 146.863242 39.882168 
L 146.980572 39.774588 
L 147.684551 40.156007 
L 148.15387 39.901728 
L 149.209838 40.283147 
L 149.561827 39.706129 
L 150.383136 38.248913 
L 151.204444 36.938396 
L 151.556434 36.126659 
L 151.908423 36.204898 
L 152.143083 36.273358 
L 153.081721 36.625437 
L 153.7857 36.449398 
L 154.489678 36.918836 
L 154.841668 37.642554 
L 154.958998 37.564315 
L 156.484285 39.461629 
L 156.953604 39.490969 
L 157.188263 39.14867 
L 157.305593 39.18779 
L 157.540253 39.06065 
L 157.774912 39.451849 
L 158.009572 39.31493 
L 158.361561 39.39317 
L 159.3002 39.25625 
L 159.417529 39.28559 
L 159.652189 38.953071 
L 160.004178 39.18779 
L 160.238838 39.08021 
L 160.825487 38.747691 
L 161.060146 38.835711 
L 161.177476 38.825931 
L 161.294806 38.581432 
L 161.646795 38.542312 
L 162.233444 38.317373 
L 162.468104 38.317373 
L 162.820093 37.916394 
L 162.937423 37.838154 
L 163.054753 38.004413 
L 163.524072 37.554535 
L 163.758731 37.799034 
L 163.876061 38.111993 
L 164.228051 37.945734 
L 164.46271 37.877274 
L 165.166689 38.346712 
L 165.284019 38.219573 
L 165.518678 38.473852 
L 165.753338 38.777031 
L 165.987997 38.835711 
L 166.222657 39.08021 
L 166.574646 39.559429 
L 167.278625 40.341827 
L 167.513285 40.938405 
L 167.747944 41.104665 
L 167.982604 41.789263 
L 168.217263 41.965302 
L 168.334593 41.896843 
L 169.038572 40.429847 
L 169.507891 39.676789 
L 169.74255 39.08021 
L 169.97721 38.689012 
L 170.09454 38.581432 
L 170.563859 37.466515 
L 170.681189 37.310035 
L 170.915848 37.681674 
L 171.150508 38.336933 
L 171.267838 38.327153 
L 171.737157 38.943291 
L 171.971816 39.15845 
L 172.206476 39.32471 
L 172.793125 40.410287 
L 172.910455 40.527646 
L 173.027784 40.830826 
L 173.849093 39.559429 
L 174.201082 38.855271 
L 174.787731 38.121773 
L 175.25705 37.486075 
L 175.843699 36.879717 
L 176.078359 36.928616 
L 176.313018 36.801477 
L 176.665008 36.664557 
L 176.899667 36.556977 
L 177.251657 36.420058 
L 177.368986 36.322258 
L 177.603646 36.332038 
L 177.720976 36.185339 
L 178.190295 36.527638 
L 179.128933 37.270915 
L 179.363593 37.603435 
L 179.480923 37.916394 
L 179.715582 37.799034 
L 179.832912 37.857714 
L 180.184901 38.464072 
L 180.302231 38.376052 
L 180.65422 38.767251 
L 180.88888 38.894391 
L 181.240869 39.12911 
L 181.475529 39.637669 
L 181.944848 39.931068 
L 182.179508 40.351607 
L 182.296837 40.341827 
L 182.648827 40.821046 
L 183.000816 40.948185 
L 183.470135 41.838163 
L 183.587465 41.896843 
L 184.291444 42.80638 
L 184.760763 43.588778 
L 184.995422 43.979977 
L 185.347412 43.246479 
L 186.16872 41.769703 
L 186.28605 41.623003 
L 186.52071 40.742806 
L 186.638039 40.791706 
L 186.872699 40.488526 
L 187.224688 39.745249 
L 187.811337 39.25625 
L 188.045997 39.29537 
L 188.163327 39.34427 
L 188.632646 38.777031 
L 189.688614 38.180453 
L 190.275263 38.649892 
L 190.744582 39.13889 
L 190.979242 39.19757 
L 191.096571 39.32471 
L 191.331231 39.891948 
L 191.68322 40.087548 
L 191.91788 40.234247 
L 192.269869 40.527646 
L 192.504529 40.371167 
L 192.973848 40.077768 
L 193.091178 39.921288 
L 193.325837 39.931068 
L 193.677827 39.843048 
L 194.264475 39.520309 
L 194.616465 39.608329 
L 195.085784 39.520309 
L 195.320444 39.07043 
L 195.672433 39.12911 
L 195.789763 39.26603 
L 196.024422 39.021531 
L 196.259082 38.904171 
L 196.493741 38.943291 
L 196.728401 38.855271 
L 196.963061 38.816151 
L 197.43238 39.050871 
L 197.549709 38.933511 
L 198.019029 39.08021 
L 198.136358 38.982411 
L 198.371018 39.29537 
L 198.605678 39.657229 
L 198.840337 39.745249 
L 199.074997 39.882168 
L 199.309656 39.813708 
L 199.426986 39.891948 
L 199.544316 39.784368 
L 199.661646 39.960408 
L 200.365624 39.833268 
L 200.600284 40.009308 
L 201.304263 40.048428 
L 201.538922 40.234247 
L 201.656252 40.214687 
L 201.890912 40.468967 
L 202.47756 41.564323 
L 203.064209 42.512981 
L 203.533528 43.500758 
L 203.768188 43.803937 
L 203.885518 43.862617 
L 204.002848 44.077776 
L 204.472167 43.784377 
L 204.589497 43.823497 
L 204.941486 43.627898 
L 205.293475 43.667018 
L 205.645465 43.285599 
L 205.762794 43.256259 
L 205.880124 43.354058 
L 206.232114 43.109559 
L 206.349443 42.9433 
L 208.696039 44.019097 
L 208.930699 44.077776 
L 209.517348 43.676798 
L 209.752007 43.490978 
L 209.986667 43.549658 
L 210.103996 43.608338 
L 210.338656 43.197579 
L 211.277294 42.86506 
L 211.863943 43.324719 
L 212.215933 43.862617 
L 212.685252 44.116896 
L 212.802582 44.420076 
L 212.919911 44.371176 
L 213.38923 45.212253 
L 213.50656 45.182913 
L 213.975879 45.662132 
L 214.210539 45.407853 
L 214.562528 45.906631 
L 214.679858 45.799052 
L 215.970486 46.855289 
L 217.495773 44.361396 
L 217.730432 43.891957 
L 217.965092 43.530098 
L 218.317081 43.178019 
L 218.551741 43.451858 
L 218.786401 43.559438 
L 219.25572 44.332056 
L 219.490379 44.508095 
L 219.607709 44.635235 
L 219.842369 45.173133 
L 220.077028 45.319833 
L 220.781007 46.102231 
L 220.898337 46.092451 
L 221.250326 46.34673 
L 221.367656 46.27827 
L 221.836975 46.51299 
L 222.071635 46.962868 
L 222.423624 46.649909 
L 222.540954 46.679249 
L 222.775613 47.011768 
L 223.010273 46.894409 
L 223.244932 46.708589 
L 223.362262 46.894409 
L 224.066241 46.39563 
L 224.183571 46.54233 
L 224.77022 46.023991 
L 224.887549 46.092451 
L 225.356868 45.564332 
L 225.474198 45.290493 
L 226.295507 46.933528 
L 226.647496 46.933528 
L 227.234145 47.911526 
L 227.468805 48.224485 
L 227.703464 48.380964 
L 227.938124 48.537444 
L 228.290113 48.087565 
L 228.407443 48.107125 
L 229.228751 47.158468 
L 229.346081 47.236708 
L 229.580741 47.001988 
L 229.93273 46.54233 
L 230.05006 46.45431 
L 230.284719 46.209811 
L 230.519379 46.25871 
L 230.754039 46.092451 
L 230.871368 46.48365 
L 231.106028 46.27827 
L 231.458017 46.640129 
L 231.575347 46.55211 
L 231.810007 46.620569 
L 232.161996 46.591229 
L 232.396656 46.796609 
L 232.865975 46.825949 
L 233.921943 47.530107 
L 234.156602 47.500767 
L 234.273932 47.442087 
L 234.743251 47.833286 
L 235.095241 48.156025 
L 235.3299 48.459204 
L 235.56456 48.508104 
L 235.68189 48.547224 
L 236.033879 49.163362 
L 236.268538 49.368742 
L 236.503198 49.134022 
L 236.737858 49.769721 
L 237.089847 49.99466 
L 237.441836 50.297839 
L 237.676496 50.03378 
L 237.793826 50.024 
L 237.911155 50.15114 
L 238.263145 49.84796 
L 238.849794 49.104682 
L 239.084453 49.153582 
L 239.436443 48.850403 
L 239.553772 48.938423 
L 239.905762 48.625464 
L 240.140421 48.126685 
L 240.375081 47.852846 
L 240.492411 47.608347 
L 240.609741 47.706146 
L 240.72707 47.637687 
L 240.96173 47.080228 
L 241.313719 46.072891 
L 241.783038 45.887071 
L 242.135028 45.525212 
L 242.487017 46.121791 
L 242.721677 46.209811 
L 243.190996 47.530107 
L 243.308326 47.706146 
L 243.542985 48.478764 
L 243.660315 48.605904 
L 243.894974 49.446981 
L 244.364294 50.679258 
L 244.598953 50.992217 
L 244.833613 50.923757 
L 244.950943 50.796618 
L 245.068272 50.894417 
L 245.302932 50.718378 
L 245.772251 50.346739 
L 246.006911 50.444539 
L 246.24157 50.258719 
L 246.47623 50.454319 
L 246.710889 50.258719 
L 247.297538 50.718378 
L 248.588166 52.488553 
L 248.822825 52.674372 
L 248.940155 52.684152 
L 249.292145 53.51545 
L 250.817432 51.745275 
L 251.169421 51.481216 
L 251.404081 50.904197 
L 251.521411 51.080237 
L 251.8734 50.825958 
L 251.99073 50.777058 
L 252.577379 51.129137 
L 252.812038 51.070457 
L 252.929368 51.168257 
L 253.281357 51.080237 
L 254.102666 51.451876 
L 255.158634 52.645033 
L 255.393293 53.39809 
L 255.745283 53.779509 
L 255.979942 54.014229 
L 256.214602 54.444548 
L 256.566591 54.689047 
L 257.03591 55.021566 
L 257.15324 54.953106 
L 257.3879 55.226945 
L 257.739889 55.256285 
L 257.857219 55.178045 
L 258.091878 55.432325 
L 258.209208 55.588804 
L 258.443868 55.559464 
L 258.678527 55.686604 
L 258.795857 55.794184 
L 259.265176 55.295405 
L 259.499836 55.090026 
L 259.734495 54.659707 
L 260.321144 54.024009 
L 260.555804 53.44699 
L 260.907793 52.752612 
L 261.259783 52.322293 
L 262.315751 55.197605 
L 262.66774 55.940883 
L 263.606378 58.610816 
L 263.841038 58.747735 
L 264.075697 58.630376 
L 264.310357 58.434776 
L 264.662346 58.317417 
L 264.897006 58.571696 
L 265.131666 58.395656 
L 265.248995 58.591256 
L 265.835644 58.307637 
L 265.952974 58.385877 
L 266.422293 59.324754 
L 266.656953 59.764853 
L 267.243602 61.388328 
L 268.534229 63.950681 
L 269.003548 64.20496 
L 269.238208 64.22452 
L 269.707527 64.742859 
L 269.824857 64.693959 
L 270.059517 64.967798 
L 270.294176 65.026478 
L 270.880825 65.525257 
L 271.936793 67.78443 
L 272.523442 69.055827 
L 272.992761 69.623065 
L 275.691346 79.422598 
L 275.808676 79.539957 
L 276.043336 80.371255 
L 276.277995 80.742894 
L 276.512655 81.769791 
L 276.629984 81.818691 
L 276.747314 81.681771 
L 277.216633 82.601089 
L 277.451293 83.481286 
L 277.685953 83.852925 
L 277.920612 84.263684 
L 278.85925 82.385929 
L 278.97658 82.29791 
L 279.445899 81.339472 
L 279.797889 80.772234 
L 280.267208 79.872476 
L 281.675165 84.068085 
L 282.027155 85.006962 
L 282.496474 86.229459 
L 284.60841 92.410401 
L 285.664378 94.953194 
L 285.781708 94.933634 
L 285.899037 95.041214 
L 286.251027 95.901852 
L 287.072335 97.300388 
L 287.189665 97.896966 
L 287.306995 97.848066 
L 287.541654 98.102346 
L 287.658984 98.180585 
L 287.776314 97.955646 
L 288.010974 98.053446 
L 288.245633 97.828506 
L 288.480293 97.984986 
L 288.832282 97.711147 
L 288.949612 97.808946 
L 289.418931 97.574227 
L 289.653591 97.593787 
L 289.77092 97.417747 
L 289.88825 97.642687 
L 290.474899 100.390859 
L 290.709559 101.290617 
L 291.765527 105.857864 
L 292.117516 107.569359 
L 292.234846 107.999678 
L 292.469505 107.618259 
L 292.704165 107.686719 
L 293.056154 107.735619 
L 293.290814 107.637819 
L 293.642803 107.14882 
L 293.760133 107.36398 
L 293.994793 107.21728 
L 294.346782 107.12926 
L 294.581442 106.914101 
L 297.280027 114.40556 
L 297.514686 114.845659 
L 298.922644 118.219749 
L 299.157303 119.002147 
L 299.391963 119.373786 
L 299.743952 118.904347 
L 300.095941 118.767428 
L 300.447931 118.757648 
L 300.68259 118.522929 
L 300.91725 118.190409 
L 301.386569 118.15129 
L 301.503899 117.99481 
L 301.738558 118.05349 
L 302.794527 122.708757 
L 303.498505 126.483826 
L 304.202484 129.574298 
L 304.319814 129.652537 
L 304.554473 129.877477 
L 304.671803 130.033956 
L 304.789133 130.004616 
L 305.141122 130.298016 
L 305.258452 130.239336 
L 306.19709 131.227113 
L 306.31442 131.187993 
L 308.661016 134.464284 
L 309.013005 135.403161 
L 310.186303 140.254028 
L 310.772952 142.659901 
L 311.242271 144.987535 
L 311.359601 145.222254 
L 311.59426 145.085334 
L 311.82892 145.065774 
L 311.94625 144.987535 
L 312.650228 145.789492 
L 313.002218 145.623233 
L 313.119548 145.828612 
L 313.471537 145.730813 
L 313.588867 145.740593 
L 313.706196 146.131791 
L 314.058186 148.166026 
L 315.231484 154.982667 
L 316.170122 159.784633 
L 317.695409 162.366546 
L 317.930069 162.689285 
L 318.282058 163.510803 
L 318.516718 164.019361 
L 320.745984 170.591503 
L 320.863313 170.611063 
L 321.097973 170.307884 
L 321.332633 169.828665 
L 321.449962 169.809105 
L 321.919281 168.703968 
L 322.036611 168.723528 
L 322.85792 166.718634 
L 323.209909 165.789537 
L 323.444569 166.855554 
L 323.796558 168.958248 
L 324.383207 172.097619 
L 324.735196 173.447255 
L 325.439175 176.567066 
L 325.556505 176.527947 
L 326.025824 177.036505 
L 326.377813 176.792006 
L 327.081792 176.576846 
L 328.02043 175.637969 
L 328.959069 175.931368 
L 329.076398 175.853128 
L 329.311058 175.980268 
L 330.249696 175.43259 
L 330.484356 175.725989 
L 331.892313 178.268782 
L 332.361632 178.659981 
L 333.182941 178.88492 
L 333.76959 178.77734 
L 334.121579 178.562181 
L 334.708228 178.034062 
L 335.060217 177.642863 
L 335.294877 177.701543 
L 335.881526 178.092742 
L 336.937494 178.415481 
L 337.641473 178.571961 
L 338.228122 179.01206 
L 339.401419 179.334799 
L 340.340058 179.344579 
L 340.809377 179.354359 
L 342.334664 178.88492 
L 343.625292 179.413038 
L 343.977281 179.520618 
L 348.787802 179.422818 
L 349.491781 179.325019 
L 351.251728 179.520618 
L 562.68 179.520618 
L 562.68 179.520618 
" style="fill:none;stroke:#b8860b;stroke-linecap:square;stroke-width:1.5;"/>
   </g>
   <g id="line2d_18">
    <path clip-path="url(#pdea3e73033)" d="M 33.64 179.520618 
L 37.746542 179.414827 
L 39.858479 178.922234 
L 41.853085 179.484252 
L 47.015595 179.520618 
L 47.836904 179.424744 
L 49.362191 179.180101 
L 50.652819 179.47764 
L 51.943446 179.520618 
L 96.646094 179.414827 
L 97.232743 179.44458 
L 99.34468 179.520618 
L 101.339286 179.421438 
L 102.043265 179.451192 
L 104.155201 179.520618 
L 110.25635 179.414827 
L 113.658913 179.107369 
L 115.53619 179.47764 
L 116.709488 179.514006 
L 118.704094 179.520618 
L 125.157232 179.421438 
L 125.861211 179.44458 
L 127.151839 179.520618 
L 131.375711 179.414827 
L 132.783668 179.266057 
L 134.543615 179.520618 
L 139.471466 179.418132 
L 140.175445 179.451192 
L 142.287381 179.520618 
L 144.751306 179.454498 
L 146.863242 178.079207 
L 148.38853 178.9586 
L 149.327168 179.219773 
L 152.847061 179.517312 
L 155.076327 179.365237 
L 156.601615 179.084228 
L 158.361561 179.520618 
L 165.518678 179.414827 
L 166.339987 179.418132 
L 168.803912 179.520618 
L 172.089146 179.322259 
L 173.262444 179.160265 
L 174.787731 179.520618 
L 178.776944 179.431356 
L 180.302231 179.216467 
L 183.118146 179.520618 
L 184.995422 179.256139 
L 185.934061 179.259445 
L 187.928667 179.130511 
L 189.336625 179.352013 
L 190.157933 179.385073 
L 193.091178 179.467722 
L 194.499135 179.279281 
L 197.901699 179.46111 
L 199.426986 179.295811 
L 201.069603 179.520618 
L 203.064209 179.414827 
L 204.472167 179.358625 
L 206.349443 179.520618 
L 207.053422 179.42805 
L 209.752007 179.00819 
L 211.277294 178.829666 
L 213.38923 179.520618 
L 222.658283 179.414827 
L 224.3009 179.381767 
L 225.004879 179.282587 
L 225.708858 179.236303 
L 227.234145 179.47764 
L 228.407443 179.487558 
L 230.754039 179.322259 
L 232.279326 179.520618 
L 233.335294 179.441274 
L 234.391262 179.100757 
L 235.21257 178.955294 
L 237.207177 179.46111 
L 239.084453 179.404909 
L 240.140421 179.371849 
L 241.900368 179.520618 
L 244.129634 179.411521 
L 245.537591 179.474334 
L 248.236177 179.520618 
L 250.113453 179.447886 
L 251.63874 179.014802 
L 252.108059 179.100757 
L 253.046698 179.256139 
L 255.041304 179.385073 
L 256.801251 179.193325 
L 257.739889 179.394991 
L 258.326538 179.431356 
L 259.147847 179.42805 
L 261.259783 178.30732 
L 263.371719 179.451192 
L 263.958368 179.365237 
L 264.193027 179.051168 
L 265.952974 176.016269 
L 266.070304 176.079083 
L 267.008942 177.444456 
L 268.06491 178.803218 
L 268.4169 178.789994 
L 268.534229 178.76024 
L 268.886219 178.14202 
L 269.355538 177.127081 
L 269.590197 176.627877 
L 270.763495 174.019451 
L 270.998155 174.419476 
L 271.350144 174.829418 
L 271.819463 175.322011 
L 272.171453 175.616244 
L 272.406112 175.801379 
L 272.523442 175.837745 
L 272.875431 176.297278 
L 273.46208 176.373316 
L 274.752708 175.417885 
L 275.574016 174.677343 
L 275.926006 174.816194 
L 276.512655 174.485595 
L 277.803282 173.74836 
L 278.037942 173.123528 
L 279.563229 165.780924 
L 280.501867 161.89308 
L 282.848463 157.760592 
L 283.083123 157.681249 
L 285.429718 156.537376 
L 287.424325 154.844709 
L 287.893644 152.5768 
L 289.536261 144.430841 
L 289.88825 142.996041 
L 290.357569 143.062161 
L 291.061548 143.24399 
L 291.413537 143.253908 
L 291.648197 143.283662 
L 292.234846 143.379536 
L 292.938825 141.227337 
L 294.581442 136.271658 
L 294.698771 136.354307 
L 295.872069 137.931265 
L 296.810707 139.213989 
L 296.928037 139.31978 
L 297.045367 139.085055 
L 299.509293 128.300916 
L 300.330601 126.733877 
L 301.738558 124.022965 
L 304.085154 134.304594 
L 304.202484 134.169048 
L 306.43175 125.474294 
L 306.783739 124.690775 
L 310.772952 117.731666 
L 311.242271 116.858885 
L 311.476931 115.510041 
L 312.180909 111.179194 
L 313.588867 102.167065 
L 313.823526 101.641413 
L 314.410175 101.565375 
L 316.052792 101.218246 
L 317.812739 91.191179 
L 318.516718 87.828987 
L 319.338026 88.949717 
L 319.690016 89.372884 
L 320.511324 90.477085 
L 320.745984 90.787848 
L 320.863313 90.632466 
L 323.209909 81.349246 
L 324.265877 82.539403 
L 327.9031 86.427247 
L 328.02043 86.357821 
L 329.076398 84.255212 
L 331.305664 79.140845 
L 332.713622 75.411688 
L 333.182941 74.829834 
L 334.004249 73.953747 
L 334.238909 73.606618 
L 334.708228 73.090884 
L 335.177547 72.552007 
L 335.529536 72.611515 
L 335.881526 72.561925 
L 336.233515 72.680941 
L 336.937494 72.671023 
L 337.289483 72.651187 
L 339.401419 72.684247 
L 339.636079 72.743755 
L 339.870739 72.733837 
L 340.340058 71.960235 
L 341.396026 70.214672 
L 341.865345 69.493966 
L 342.217334 68.941866 
L 342.334664 69.014598 
L 344.094611 73.474378 
L 344.56393 74.601721 
L 344.68126 74.737267 
L 344.915919 74.26451 
L 345.971887 71.857749 
L 346.323877 71.051088 
L 347.379845 68.763343 
L 348.083823 67.434335 
L 349.491781 65.024268 
L 349.609111 65.090388 
L 349.84377 65.374703 
L 351.134398 66.601225 
L 351.721047 67.226057 
L 351.838377 67.222751 
L 352.542355 66.359888 
L 354.184972 64.28042 
L 354.654291 62.290214 
L 355.710259 57.625463 
L 356.648898 53.99218 
L 358.643504 57.403961 
L 358.995493 57.995733 
L 359.230153 58.015569 
L 359.699472 57.856882 
L 359.934132 57.946144 
L 361.342089 57.843658 
L 362.046068 58.46849 
L 362.515387 58.894963 
L 363.688685 59.873536 
L 364.275334 58.475102 
L 366.15261 54.018627 
L 368.499206 58.028793 
L 368.733866 58.243683 
L 369.203185 58.766029 
L 369.672504 59.172666 
L 370.376483 59.952879 
L 370.493812 59.999163 
L 370.845802 60.366128 
L 371.315121 60.257031 
L 373.544387 59.096628 
L 375.773653 56.584076 
L 376.946951 53.688028 
L 377.41627 52.478036 
L 378.120248 50.993647 
L 378.589568 51.1887 
L 378.941557 51.281268 
L 379.176216 51.37053 
L 379.645536 51.506075 
L 379.880195 51.648233 
L 380.114855 51.75733 
L 380.349514 51.750718 
L 381.170823 53.334288 
L 381.874802 54.788923 
L 382.226791 55.506323 
L 382.81344 56.53118 
L 384.925376 50.785369 
L 385.277365 49.978708 
L 385.746684 49.704311 
L 386.098674 49.377018 
L 386.450663 49.142292 
L 386.919982 48.722432 
L 387.506631 48.319101 
L 387.741291 48.73235 
L 389.970557 54.326085 
L 390.322546 53.67811 
L 392.317152 49.839856 
L 394.663748 55.370777 
L 394.781078 55.314576 
L 396.658354 52.40861 
L 396.893014 52.064787 
L 397.245003 51.754024 
L 397.714322 51.651539 
L 398.066312 51.588725 
L 398.535631 51.572195 
L 399.474269 51.327552 
L 399.943588 52.620194 
L 401.938195 57.628768 
L 402.759503 56.38241 
L 403.580812 55.231926 
L 403.698141 55.139358 
L 404.167461 54.37898 
L 405.106099 53.473139 
L 406.748716 52.160661 
L 409.329971 51.968914 
L 409.564631 51.896182 
L 410.15128 51.800308 
L 410.737929 51.70774 
L 411.441907 51.509381 
L 411.911226 50.659742 
L 413.788503 47.072743 
L 414.609811 48.986911 
L 415.079131 49.988626 
L 415.66578 51.357306 
L 416.135099 52.388774 
L 416.369758 51.387059 
L 418.599024 41.317014 
L 420.94562 50.43824 
L 421.297609 50.220045 
L 423.174886 49.16874 
L 423.409545 49.165434 
L 424.348184 49.740676 
L 424.700173 49.866304 
L 425.404152 50.282859 
L 425.638811 50.358897 
L 425.873471 50.339061 
L 426.22546 50.229963 
L 426.694779 50.01838 
L 427.046769 49.909282 
L 427.281428 49.78696 
L 427.516088 49.661333 
L 428.102737 49.28445 
L 430.449332 41.624471 
L 432.795928 46.037968 
L 432.913258 45.92887 
L 434.203886 42.388155 
L 434.555875 41.373216 
L 435.377183 39.39954 
L 435.846503 39.178039 
L 437.0198 38.503617 
L 437.48912 38.209383 
L 437.606449 38.090368 
L 439.953045 50.914303 
L 440.070375 51.013483 
L 441.830322 48.914179 
L 442.416971 48.196779 
L 443.355609 46.586762 
L 444.763566 44.137023 
L 445.350215 45.099067 
L 446.288853 46.494194 
L 446.875502 47.433095 
L 447.110162 47.727329 
L 447.814141 49.105926 
L 448.752779 50.877937 
L 449.456758 52.240005 
L 449.574087 52.044951 
L 451.920683 38.510229 
L 452.038013 38.688752 
L 454.267279 42.560066 
L 454.501938 42.097228 
L 455.205917 40.417785 
L 456.848534 36.820868 
L 457.317853 36.801032 
L 457.669843 36.672098 
L 457.904502 36.632426 
L 459.0778 36.546471 
L 461.424396 41.779853 
L 461.659055 41.18808 
L 463.419002 35.898497 
L 463.888321 34.744706 
L 464.35764 35.571204 
L 468.581513 42.513782 
L 469.402821 39.925192 
L 470.22413 37.154773 
L 471.045438 34.804214 
L 473.392034 39.359868 
L 473.978683 38.19616 
L 475.738629 34.771154 
L 476.207949 35.934862 
L 476.442608 36.447291 
L 477.146587 38.087062 
L 478.085225 40.192977 
L 478.319885 40.321911 
L 479.141193 40.275627 
L 479.610512 40.292157 
L 480.431821 40.305381 
L 480.549151 40.249179 
L 482.191768 36.982861 
L 482.543757 36.265461 
L 482.895746 35.591039 
L 483.834385 39.578063 
L 484.538363 42.665858 
L 485.242342 45.713981 
L 485.477002 46.001602 
L 486.06365 46.461134 
L 486.18098 46.46444 
L 486.767629 46.950421 
L 487.002289 47.105802 
L 487.588938 47.482685 
L 487.706267 47.416566 
L 488.527576 44.113882 
L 489.583544 39.954946 
L 490.052863 38.110204 
L 491.226161 40.473987 
L 491.81281 41.614553 
L 492.399459 42.798098 
L 492.868778 43.32375 
L 494.746055 45.142044 
L 494.863384 45.049477 
L 495.802023 42.080698 
L 497.20998 37.759769 
L 498.265948 38.920171 
L 499.321916 40.173142 
L 500.377884 41.211222 
L 500.847203 41.697203 
L 501.551182 42.434439 
L 501.903171 42.837769 
L 502.020501 42.63941 
L 504.367097 31.564344 
L 504.484427 31.812293 
L 505.071076 33.227257 
L 505.540395 34.265337 
L 506.948352 37.680425 
L 508.12165 41.27073 
L 508.473639 42.325341 
L 509.177618 44.222979 
L 509.412278 44.348607 
L 509.881597 44.649452 
L 511.524214 45.492479 
L 512.580182 41.174856 
L 513.988139 35.895191 
L 514.340129 35.723279 
L 514.926778 35.567898 
L 516.804054 34.804214 
L 518.094682 33.819029 
L 518.212012 33.848783 
L 518.564001 33.574386 
L 518.681331 33.534714 
L 519.385309 34.883558 
L 520.206618 36.414231 
L 521.027926 37.941598 
L 521.379916 37.273788 
L 523.374522 33.333048 
L 523.491852 33.491736 
L 524.66515 37.300236 
L 525.721118 40.60292 
L 525.838448 40.622756 
L 526.307767 38.450721 
L 527.011745 34.9067 
L 528.185043 29.098075 
L 530.296979 36.62912 
L 530.766299 37.868867 
L 531.822267 39.624347 
L 533.112894 41.627777 
L 533.464884 41.793077 
L 534.755511 42.659246 
L 534.990171 42.745202 
L 535.34216 42.933643 
L 537.219437 40.070656 
L 537.688756 39.270606 
L 538.275405 39.90205 
L 539.331373 41.036005 
L 540.152681 41.809607 
L 540.85666 40.282239 
L 541.208649 39.535085 
L 542.499277 36.79442 
L 543.085926 35.647241 
L 544.845873 32.159422 
L 544.963202 32.321415 
L 545.667181 33.779357 
L 546.1365 34.751318 
L 546.957809 36.407619 
L 547.309798 36.949801 
L 547.779117 36.374559 
L 548.600426 35.39268 
L 549.656394 34.126486 
L 550.008383 34.460391 
L 551.76833 36.057184 
L 552.237649 36.136528 
L 553.645607 35.640629 
L 553.880266 35.455494 
L 554.232255 35.349702 
L 554.349585 35.26044 
L 554.584245 35.422434 
L 555.053564 35.938168 
L 556.461521 37.604387 
L 556.696181 37.749851 
L 556.813511 37.849031 
L 559.160106 33.184279 
L 559.512096 33.918209 
L 560.450734 36.070408 
L 561.154713 37.624223 
L 561.624032 38.622632 
L 561.858692 38.530065 
L 562.44534 38.430885 
L 562.56267 38.341623 
L 562.68 38.526759 
L 562.68 38.526759 
" style="fill:none;stroke:#006400;stroke-linecap:square;stroke-width:1.5;"/>
   </g>
   <g id="line2d_19">
    <path clip-path="url(#pdea3e73033)" d="M 33.64 173.23553 
L 34.578638 173.195595 
L 34.813298 173.23553 
L 35.047957 173.465745 
L 35.634606 173.465745 
L 35.986596 173.395271 
L 37.746542 172.991221 
L 39.623819 171.673361 
L 41.501096 175.370886 
L 41.853085 175.892392 
L 42.205074 175.767889 
L 44.31701 173.364732 
L 45.255649 175.370886 
L 46.780936 178.001908 
L 47.015595 177.858611 
L 48.423553 176.352821 
L 49.127532 175.577609 
L 49.362191 175.735001 
L 49.83151 175.591704 
L 50.300829 175.337999 
L 50.652819 175.197051 
L 51.356798 174.724877 
L 51.474127 174.475869 
L 51.708787 174.724877 
L 52.530095 174.917505 
L 52.999415 174.997375 
L 53.586063 175.027914 
L 53.820723 174.854079 
L 53.938053 174.788303 
L 55.815329 170.369596 
L 56.284648 169.385312 
L 56.753968 171.147157 
L 57.575276 173.839256 
L 58.631244 176.843789 
L 58.865904 176.935405 
L 60.508521 176.693445 
L 60.86051 176.573639 
L 60.97784 176.484372 
L 62.620457 177.668332 
L 63.441765 178.058287 
L 63.559095 178.027748 
L 64.028414 177.233744 
L 64.967053 175.3333 
L 65.788361 173.491585 
L 66.14035 171.877735 
L 67.665638 164.017558 
L 68.134957 161.400632 
L 68.486946 162.784267 
L 69.308255 166.228086 
L 70.598882 171.017955 
L 70.833542 170.46591 
L 72.945478 164.238376 
L 73.297467 164.532017 
L 74.588095 165.027683 
L 74.822754 165.060571 
L 75.174744 165.1146 
L 75.292074 164.95486 
L 76.230712 166.606296 
L 76.934691 167.67045 
L 77.52134 168.539627 
L 77.755999 168.66413 
L 78.225318 168.12853 
L 79.985265 165.7888 
L 80.219925 165.434082 
L 80.923903 164.811563 
L 82.331861 163.493703 
L 82.449191 163.218855 
L 82.68385 163.568875 
L 83.270499 163.578272 
L 83.622488 163.526591 
L 84.209137 163.484307 
L 84.561127 163.383294 
L 84.795786 163.317519 
L 85.030446 163.193015 
L 86.203744 161.99731 
L 87.259712 160.883824 
L 87.611701 161.363046 
L 88.667669 162.352028 
L 89.488978 163.068511 
L 89.840967 162.756077 
L 91.248924 159.594153 
L 91.718244 158.515904 
L 91.952903 157.851102 
L 92.187563 158.344418 
L 94.299499 164.393419 
L 94.416829 164.466242 
L 94.768818 165.060571 
L 96.880754 167.99228 
L 97.350073 168.039263 
L 99.11002 167.665752 
L 99.579339 166.065997 
L 101.456616 158.39375 
L 101.573945 158.208169 
L 102.043265 158.875321 
L 103.099233 160.085121 
L 103.451222 160.512662 
L 104.037871 160.987185 
L 106.267137 160.4093 
L 106.501796 159.805575 
L 108.613733 151.56249 
L 108.731062 151.792705 
L 111.194988 167.771462 
L 111.664307 167.935901 
L 111.898967 167.921806 
L 113.306924 167.933552 
L 113.541583 167.42849 
L 114.832211 162.417803 
L 115.888179 158.666248 
L 116.240169 159.453206 
L 117.530796 161.872806 
L 118.469434 163.947085 
L 119.408073 166.618041 
L 120.229381 168.891996 
L 120.581371 169.657811 
L 120.81603 169.2843 
L 122.106658 166.0566 
L 123.397285 162.622177 
L 124.101264 160.566692 
L 125.391892 156.904404 
L 126.33053 160.155595 
L 127.738487 164.510875 
L 127.973147 165.00889 
L 129.850424 166.319702 
L 130.437073 166.479443 
L 131.141051 166.430111 
L 131.61037 166.366685 
L 131.96236 166.369034 
L 132.431679 166.202246 
L 132.783668 165.826386 
L 133.722306 164.038701 
L 134.543615 162.340282 
L 134.895604 161.536881 
L 135.834243 163.768551 
L 136.655551 165.582077 
L 137.12487 166.62039 
L 137.35953 166.690864 
L 139.706126 161.355998 
L 139.940785 161.386537 
L 142.052721 159.939475 
L 144.047328 163.047369 
L 145.455285 164.978351 
L 146.628583 166.397223 
L 147.215232 166.528775 
L 148.857849 165.73477 
L 149.209838 165.422336 
L 149.444498 165.530396 
L 149.796487 165.255548 
L 151.439104 164.017558 
L 151.673764 163.651095 
L 152.377742 162.88293 
L 156.249625 157.602094 
L 156.366955 157.23563 
L 156.953604 160.05928 
L 158.83088 167.334525 
L 160.004178 166.007268 
L 161.294806 163.956481 
L 162.702763 160.439839 
L 163.641402 158.194074 
L 164.228051 157.853451 
L 165.753338 156.674189 
L 165.870668 156.394643 
L 166.222657 157.50578 
L 168.217263 162.314442 
L 168.334593 162.31914 
L 168.803912 160.963694 
L 170.681189 155.210683 
L 173.379774 165.210915 
L 174.435742 167.123104 
L 175.022391 168.213098 
L 175.37438 168.652385 
L 175.60904 168.713462 
L 176.430348 167.910061 
L 177.720976 166.40662 
L 177.838306 166.32675 
L 179.480923 169.95615 
L 180.067572 171.14011 
L 180.184901 171.060239 
L 180.419561 171.339785 
L 182.531497 172.441526 
L 182.648827 172.418034 
L 183.352806 170.618604 
L 184.760763 166.48649 
L 187.342018 159.556567 
L 187.811337 161.099943 
L 189.688614 166.319702 
L 189.805944 166.333797 
L 190.392593 165.208565 
L 191.096571 163.768551 
L 192.152539 161.635544 
L 192.621859 162.401359 
L 194.616465 164.842102 
L 195.320444 165.802894 
L 196.493741 167.151293 
L 196.728401 167.360365 
L 196.845731 167.285193 
L 199.192326 173.55971 
L 199.778975 174.081216 
L 201.421592 174.673196 
L 201.538922 174.63561 
L 201.773582 174.146991 
L 204.002848 166.392525 
L 204.120177 166.571059 
L 204.472167 166.86235 
L 205.645465 167.444934 
L 206.232114 167.663403 
L 206.936092 167.456679 
L 207.405411 167.172435 
L 208.696039 166.235134 
L 208.813369 166.026061 
L 208.930699 166.098884 
L 209.986667 165.269643 
L 211.159965 164.064541 
L 211.863943 165.469319 
L 212.450592 166.549917 
L 213.62389 168.325856 
L 214.210539 167.010345 
L 214.797188 165.542141 
L 215.970486 162.645669 
L 217.378443 165.288436 
L 218.551741 167.069074 
L 218.90373 167.292241 
L 220.546347 168.267128 
L 220.781007 168.241288 
L 221.132996 168.330554 
L 222.775613 168.332904 
L 223.127603 168.222495 
L 223.362262 168.389283 
L 224.066241 168.358744 
L 225.356868 168.15437 
L 225.474198 168.018121 
L 225.708858 168.283572 
L 226.647496 168.809776 
L 228.055454 169.357123 
L 228.524773 169.815202 
L 229.463411 170.512893 
L 229.93273 170.867611 
L 230.402049 171.133062 
L 230.754039 170.935736 
L 231.927336 170.085352 
L 232.513985 169.575591 
L 232.748645 169.39236 
L 234.039273 167.985233 
L 234.860581 166.984505 
L 234.977911 166.723752 
L 235.3299 167.16069 
L 237.207177 168.704066 
L 237.676496 168.614799 
L 238.849794 167.50836 
L 239.671102 166.625089 
L 239.788432 166.573408 
L 240.8444 168.711113 
L 242.017698 170.754853 
L 242.135028 170.79009 
L 242.604347 171.468987 
L 243.425655 172.382798 
L 244.364294 173.268418 
L 244.598953 173.214388 
L 244.950943 172.615361 
L 246.24157 169.82225 
L 246.945549 168.149672 
L 247.297538 168.69232 
L 249.174815 171.020304 
L 249.292145 171.039097 
L 249.644134 171.412608 
L 250.230783 171.89183 
L 250.700102 172.319371 
L 251.99073 173.188548 
L 253.516017 174.684941 
L 254.102666 175.032612 
L 254.337325 174.710782 
L 256.331932 169.937357 
L 256.449261 169.521562 
L 258.678527 176.627669 
L 258.913187 176.984736 
L 259.734495 177.175015 
L 261.259783 177.221998 
L 261.494442 176.857883 
L 263.254389 173.395271 
L 263.606378 172.601266 
L 265.835644 179.773149 
L 265.952974 179.968127 
L 266.187634 179.796641 
L 266.774283 178.976795 
L 268.4169 176.460881 
L 268.651559 176.65116 
L 269.003548 176.639415 
L 270.528836 176.287046 
L 270.880825 175.948771 
L 272.406112 172.558982 
L 273.110091 170.721965 
L 273.34475 171.335087 
L 275.104697 176.928357 
L 275.456687 177.983115 
L 275.574016 178.128761 
L 275.808676 177.924387 
L 277.920612 174.717829 
L 278.389931 175.413171 
L 280.384538 177.482751 
L 281.205846 177.546177 
L 282.261814 177.496846 
L 283.552442 177.520337 
L 284.60841 177.414626 
L 285.312389 177.24314 
L 287.541654 176.077973 
L 288.010974 176.482023 
L 289.536261 177.635444 
L 290.474899 178.192187 
L 291.648197 179.122441 
L 292.234846 179.437224 
L 293.056154 178.80296 
L 294.112122 177.910292 
L 294.698771 177.414626 
L 295.28542 176.32933 
L 297.045367 172.944239 
L 297.397356 173.197944 
L 298.218665 173.587899 
L 299.391963 174.064772 
L 300.330601 176.00515 
L 301.855888 178.687853 
L 303.615835 179.761404 
L 304.202484 179.942286 
L 304.671803 179.568775 
L 306.54908 177.846866 
L 306.901069 177.86096 
L 308.074367 177.56497 
L 309.482324 177.015275 
L 311.007611 176.066228 
L 311.359601 175.878298 
L 312.06358 176.879026 
L 313.823526 178.932162 
L 314.996824 178.314342 
L 316.170122 177.658935 
L 318.282058 178.21098 
L 318.516718 178.112317 
L 318.868707 177.240791 
L 319.924675 174.414792 
L 320.745984 172.145536 
L 320.863313 172.093855 
L 323.209909 179.845972 
L 323.444569 179.796641 
L 324.031218 179.390242 
L 325.673835 178.173394 
L 326.377813 176.106163 
L 328.13776 171.006209 
L 330.367026 164.60484 
L 331.892313 171.168299 
L 332.713622 174.095311 
L 333.886919 175.288667 
L 335.177547 176.19543 
L 335.998856 173.294259 
L 337.524143 167.564739 
L 338.110792 169.563846 
L 339.988068 174.84938 
L 341.748015 174.532248 
L 342.686653 174.471171 
L 344.094611 174.504059 
L 344.68126 174.426538 
L 345.033249 174.029535 
L 346.793196 171.494828 
L 347.027855 171.097825 
L 347.262515 171.43375 
L 348.905132 172.420384 
L 349.609111 172.519047 
L 350.430419 171.903576 
L 351.134398 171.332738 
L 352.542355 170.233347 
L 353.832983 169.249063 
L 354.184972 168.767492 
L 354.302302 168.941327 
L 354.654291 168.494993 
L 355.827589 166.627438 
L 356.648898 165.347164 
L 356.883557 165.415289 
L 358.878164 165.73477 
L 358.995493 165.678391 
L 359.347483 166.371383 
L 360.403451 167.952345 
L 361.342089 169.051736 
L 361.459419 168.955422 
L 362.280727 166.935173 
L 363.454025 163.9048 
L 363.688685 163.244696 
L 363.806015 163.373898 
L 366.035281 167.494265 
L 366.15261 167.34862 
L 366.739259 164.059843 
L 367.795227 157.841705 
L 368.499206 153.702544 
L 369.320515 156.587272 
L 370.024493 158.840084 
L 370.845802 161.461709 
L 372.136429 163.566526 
L 373.075068 164.945463 
L 373.192397 165.081713 
L 373.309727 164.896132 
L 375.656323 150.991652 
L 376.125642 152.034665 
L 377.533599 154.733811 
L 378.002919 155.581845 
L 378.472238 154.726763 
L 379.528206 152.650136 
L 380.349514 151.050381 
L 380.818833 148.717698 
L 382.81344 137.451288 
L 383.165429 137.246914 
L 383.517418 137.01435 
L 383.869408 136.661981 
L 384.456057 136.210949 
L 385.160035 135.45453 
L 385.746684 138.000983 
L 387.623961 145.330258 
L 388.09328 144.914462 
L 389.970557 142.863675 
L 391.730503 137.627472 
L 392.317152 135.708236 
L 392.551812 135.527353 
L 394.663748 132.760082 
L 394.898408 133.354411 
L 397.127674 139.748733 
L 399.708929 123.668963 
L 400.647567 119.675448 
L 401.586205 115.578572 
L 401.938195 114.429849 
L 403.463482 113.551276 
L 404.167461 113.175415 
L 404.28479 113.222398 
L 405.575418 116.198741 
L 406.631386 118.545518 
L 407.335365 117.664596 
L 407.922014 116.823609 
L 408.508663 116.085983 
L 408.977982 115.400038 
L 409.447301 118.012267 
L 411.324578 129.050812 
L 411.441907 128.811201 
L 413.788503 104.244037 
L 413.905833 104.272226 
L 414.492482 104.056107 
L 414.844471 104.027917 
L 416.135099 103.731927 
L 416.956407 105.897822 
L 418.481694 110.027586 
L 418.599024 110.079267 
L 419.537662 107.826454 
L 420.241641 106.207906 
L 421.06295 104.481298 
L 423.292216 102.933224 
L 425.756141 92.075562 
L 428.102737 98.974946 
L 430.449332 97.281226 
L 431.505301 95.848259 
L 432.795928 94.013591 
L 435.377183 94.812294 
L 436.315822 95.667376 
L 436.433151 95.697915 
L 436.785141 96.08787 
L 437.0198 96.271102 
L 437.606449 96.764418 
L 439.718385 73.357723 
L 440.070375 70.200497 
L 440.774354 69.622612 
L 441.126343 69.397095 
L 441.830322 68.826258 
L 442.064981 68.682961 
L 442.299641 68.478587 
L 442.416971 68.680612 
L 443.707598 76.987123 
L 444.763566 83.632801 
L 447.110162 72.810376 
L 447.227492 72.833867 
L 447.93147 74.299722 
L 448.870109 76.284734 
L 449.456758 77.529771 
L 449.808747 79.251681 
L 451.099375 86.555115 
L 451.920683 91.067787 
L 452.976651 90.452315 
L 453.32864 90.245592 
L 453.79796 89.973094 
L 454.032619 89.825099 
L 455.557906 89.075727 
L 456.144555 88.810276 
L 456.731204 88.392132 
L 457.669843 85.89501 
L 458.139162 84.584198 
L 459.0778 81.924987 
L 461.424396 58.421977 
L 461.659055 61.245627 
L 463.888321 90.482854 
L 464.826959 77.811666 
L 466.234917 59.479084 
L 466.352247 59.544859 
L 467.760204 60.148585 
L 468.464183 60.498605 
L 468.581513 60.468066 
L 469.168161 58.295124 
L 470.928108 51.567226 
L 471.045438 51.898453 
L 474.096012 72.655334 
L 475.15198 78.577481 
L 475.738629 81.929685 
L 477.498576 83.724417 
L 478.085225 84.316397 
L 478.319885 83.094852 
L 479.375853 76.002839 
L 480.549151 68.502078 
L 481.487789 70.865299 
L 481.839778 71.765015 
L 482.426427 73.320136 
L 482.778417 74.210455 
L 482.895746 74.506445 
L 483.717055 73.04294 
L 485.242342 70.280367 
L 485.359672 70.369634 
L 486.41564 71.694541 
L 487.002289 72.453309 
L 487.706267 73.25671 
L 490.052863 72.847962 
L 492.164799 60.766405 
L 492.399459 59.493178 
L 492.634118 60.258994 
L 494.746055 70.289763 
L 494.863384 70.122975 
L 496.271342 57.609179 
L 496.97532 51.23365 
L 497.44464 48.076424 
L 498.383278 43.613084 
L 499.556576 38.118477 
L 499.791235 39.116856 
L 501.081863 45.80247 
L 502.372491 52.809914 
L 504.367097 64.825695 
L 506.713693 52.849849 
L 506.831022 53.265644 
L 507.535001 57.649114 
L 509.060288 66.968099 
L 509.177618 67.130188 
L 509.881597 64.492119 
L 511.406884 58.823677 
L 511.993533 56.493344 
L 513.049501 52.314248 
L 513.870809 49.020773 
L 514.926778 57.4189 
L 516.217405 67.961779 
L 516.334735 67.644647 
L 518.681331 46.955891 
L 521.027926 49.967471 
L 523.491852 42.612356 
L 524.078501 42.309319 
L 524.54782 42.057962 
L 524.66515 42.057962 
L 524.899809 41.912316 
L 525.721118 41.52471 
L 525.838448 41.705593 
L 528.185043 59.161952 
L 529.123682 51.656493 
L 530.648969 40.448811 
L 533.112894 47.235437 
L 533.464884 47.63009 
L 534.520852 48.957346 
L 535.34216 49.94398 
L 536.515458 48.872778 
L 536.867447 48.532155 
L 537.571426 47.869701 
L 537.688756 47.785132 
L 538.392735 45.078939 
L 539.800692 39.466876 
L 540.035352 38.466148 
L 540.152681 38.635285 
L 542.499277 53.451225 
L 547.309798 38.203046 
L 549.421734 32.924559 
L 549.656394 32.539302 
L 551.416341 41.221673 
L 552.00299 44.094655 
L 552.472309 42.81673 
L 553.410947 40.011873 
L 554.349585 37.134193 
L 554.466915 37.441929 
L 556.344192 48.900967 
L 556.696181 51.092702 
L 556.813511 51.407485 
L 558.104138 42.405633 
L 559.277436 34.625326 
L 559.981415 32.520509 
L 561.624032 27.897428 
L 561.858692 27.94676 
L 562.093351 27.923268 
L 562.68 27.930316 
L 562.68 27.930316 
" style="fill:none;stroke:#a0522d;stroke-linecap:square;stroke-width:1.5;"/>
   </g>
   <g id="patch_3">
    <path d="M 33.64 186.865867 
L 33.64 25.2704 
" style="fill:none;stroke:#000000;stroke-linecap:square;stroke-linejoin:miter;stroke-width:0.8;"/>
   </g>
   <g id="patch_4">
    <path d="M 562.68 186.865867 
L 562.68 25.2704 
" style="fill:none;stroke:#000000;stroke-linecap:square;stroke-linejoin:miter;stroke-width:0.8;"/>
   </g>
   <g id="patch_5">
    <path d="M 33.64 186.865867 
L 562.68 186.865867 
" style="fill:none;stroke:#000000;stroke-linecap:square;stroke-linejoin:miter;stroke-width:0.8;"/>
   </g>
   <g id="patch_6">
    <path d="M 33.64 25.2704 
L 562.68 25.2704 
" style="fill:none;stroke:#000000;stroke-linecap:square;stroke-linejoin:miter;stroke-width:0.8;"/>
   </g>
   <g id="text_16">
    <!-- FCVC_close -->
    <defs>
     <path d="M 9.8125 72.90625 
L 51.703125 72.90625 
L 51.703125 64.59375 
L 19.671875 64.59375 
L 19.671875 43.109375 
L 48.578125 43.109375 
L 48.578125 34.8125 
L 19.671875 34.8125 
L 19.671875 0 
L 9.8125 0 
z
" id="DejaVuSans-46"/>
     <path d="M 64.40625 67.28125 
L 64.40625 56.890625 
Q 59.421875 61.53125 53.78125 63.8125 
Q 48.140625 66.109375 41.796875 66.109375 
Q 29.296875 66.109375 22.65625 58.46875 
Q 16.015625 50.828125 16.015625 36.375 
Q 16.015625 21.96875 22.65625 14.328125 
Q 29.296875 6.6875 41.796875 6.6875 
Q 48.140625 6.6875 53.78125 8.984375 
Q 59.421875 11.28125 64.40625 15.921875 
L 64.40625 5.609375 
Q 59.234375 2.09375 53.4375 0.328125 
Q 47.65625 -1.421875 41.21875 -1.421875 
Q 24.65625 -1.421875 15.125 8.703125 
Q 5.609375 18.84375 5.609375 36.375 
Q 5.609375 53.953125 15.125 64.078125 
Q 24.65625 74.21875 41.21875 74.21875 
Q 47.75 74.21875 53.53125 72.484375 
Q 59.328125 70.75 64.40625 67.28125 
z
" id="DejaVuSans-43"/>
     <path d="M 28.609375 0 
L 0.78125 72.90625 
L 11.078125 72.90625 
L 34.1875 11.53125 
L 57.328125 72.90625 
L 67.578125 72.90625 
L 39.796875 0 
z
" id="DejaVuSans-56"/>
     <path d="M 50.984375 -16.609375 
L 50.984375 -23.578125 
L -0.984375 -23.578125 
L -0.984375 -16.609375 
z
" id="DejaVuSans-5f"/>
     <path d="M 48.78125 52.59375 
L 48.78125 44.1875 
Q 44.96875 46.296875 41.140625 47.34375 
Q 37.3125 48.390625 33.40625 48.390625 
Q 24.65625 48.390625 19.8125 42.84375 
Q 14.984375 37.3125 14.984375 27.296875 
Q 14.984375 17.28125 19.8125 11.734375 
Q 24.65625 6.203125 33.40625 6.203125 
Q 37.3125 6.203125 41.140625 7.25 
Q 44.96875 8.296875 48.78125 10.40625 
L 48.78125 2.09375 
Q 45.015625 0.34375 40.984375 -0.53125 
Q 36.96875 -1.421875 32.421875 -1.421875 
Q 20.0625 -1.421875 12.78125 6.34375 
Q 5.515625 14.109375 5.515625 27.296875 
Q 5.515625 40.671875 12.859375 48.328125 
Q 20.21875 56 33.015625 56 
Q 37.15625 56 41.109375 55.140625 
Q 45.0625 54.296875 48.78125 52.59375 
z
" id="DejaVuSans-63"/>
     <path d="M 9.421875 75.984375 
L 18.40625 75.984375 
L 18.40625 0 
L 9.421875 0 
z
" id="DejaVuSans-6c"/>
     <path d="M 30.609375 48.390625 
Q 23.390625 48.390625 19.1875 42.75 
Q 14.984375 37.109375 14.984375 27.296875 
Q 14.984375 17.484375 19.15625 11.84375 
Q 23.34375 6.203125 30.609375 6.203125 
Q 37.796875 6.203125 41.984375 11.859375 
Q 46.1875 17.53125 46.1875 27.296875 
Q 46.1875 37.015625 41.984375 42.703125 
Q 37.796875 48.390625 30.609375 48.390625 
z
M 30.609375 56 
Q 42.328125 56 49.015625 48.375 
Q 55.71875 40.765625 55.71875 27.296875 
Q 55.71875 13.875 49.015625 6.21875 
Q 42.328125 -1.421875 30.609375 -1.421875 
Q 18.84375 -1.421875 12.171875 6.21875 
Q 5.515625 13.875 5.515625 27.296875 
Q 5.515625 40.765625 12.171875 48.375 
Q 18.84375 56 30.609375 56 
z
" id="DejaVuSans-6f"/>
     <path d="M 44.28125 53.078125 
L 44.28125 44.578125 
Q 40.484375 46.53125 36.375 47.5 
Q 32.28125 48.484375 27.875 48.484375 
Q 21.1875 48.484375 17.84375 46.4375 
Q 14.5 44.390625 14.5 40.28125 
Q 14.5 37.15625 16.890625 35.375 
Q 19.28125 33.59375 26.515625 31.984375 
L 29.59375 31.296875 
Q 39.15625 29.25 43.1875 25.515625 
Q 47.21875 21.78125 47.21875 15.09375 
Q 47.21875 7.46875 41.1875 3.015625 
Q 35.15625 -1.421875 24.609375 -1.421875 
Q 20.21875 -1.421875 15.453125 -0.5625 
Q 10.6875 0.296875 5.421875 2 
L 5.421875 11.28125 
Q 10.40625 8.6875 15.234375 7.390625 
Q 20.0625 6.109375 24.8125 6.109375 
Q 31.15625 6.109375 34.5625 8.28125 
Q 37.984375 10.453125 37.984375 14.40625 
Q 37.984375 18.0625 35.515625 20.015625 
Q 33.0625 21.96875 24.703125 23.78125 
L 21.578125 24.515625 
Q 13.234375 26.265625 9.515625 29.90625 
Q 5.8125 33.546875 5.8125 39.890625 
Q 5.8125 47.609375 11.28125 51.796875 
Q 16.75 56 26.8125 56 
Q 31.78125 56 36.171875 55.265625 
Q 40.578125 54.546875 44.28125 53.078125 
z
" id="DejaVuSans-73"/>
     <path d="M 56.203125 29.59375 
L 56.203125 25.203125 
L 14.890625 25.203125 
Q 15.484375 15.921875 20.484375 11.0625 
Q 25.484375 6.203125 34.421875 6.203125 
Q 39.59375 6.203125 44.453125 7.46875 
Q 49.3125 8.734375 54.109375 11.28125 
L 54.109375 2.78125 
Q 49.265625 0.734375 44.1875 -0.34375 
Q 39.109375 -1.421875 33.890625 -1.421875 
Q 20.796875 -1.421875 13.15625 6.1875 
Q 5.515625 13.8125 5.515625 26.8125 
Q 5.515625 40.234375 12.765625 48.109375 
Q 20.015625 56 32.328125 56 
Q 43.359375 56 49.78125 48.890625 
Q 56.203125 41.796875 56.203125 29.59375 
z
M 47.21875 32.234375 
Q 47.125 39.59375 43.09375 43.984375 
Q 39.0625 48.390625 32.421875 48.390625 
Q 24.90625 48.390625 20.390625 44.140625 
Q 15.875 39.890625 15.1875 32.171875 
z
" id="DejaVuSans-65"/>
    </defs>
    <g transform="translate(263.770625 19.2704)scale(0.12 -0.12)">
     <use xlink:href="#DejaVuSans-46"/>
     <use x="57.519531" xlink:href="#DejaVuSans-43"/>
     <use x="127.34375" xlink:href="#DejaVuSans-56"/>
     <use x="195.751953" xlink:href="#DejaVuSans-43"/>
     <use x="265.576172" xlink:href="#DejaVuSans-5f"/>
     <use x="315.576172" xlink:href="#DejaVuSans-63"/>
     <use x="370.556641" xlink:href="#DejaVuSans-6c"/>
     <use x="398.339844" xlink:href="#DejaVuSans-6f"/>
     <use x="459.521484" xlink:href="#DejaVuSans-73"/>
     <use x="511.621094" xlink:href="#DejaVuSans-65"/>
    </g>
   </g>
   <g id="legend_1">
    <g id="patch_7">
     <path d="M 509.583125 136.924383 
L 555.68 136.924383 
Q 557.68 136.924383 557.68 134.924383 
L 557.68 77.211883 
Q 557.68 75.211883 555.68 75.211883 
L 509.583125 75.211883 
Q 507.583125 75.211883 507.583125 77.211883 
L 507.583125 134.924383 
Q 507.583125 136.924383 509.583125 136.924383 
z
" style="fill:#ffffff;opacity:0.8;stroke:#cccccc;stroke-linejoin:miter;"/>
    </g>
    <g id="line2d_20">
     <path d="M 511.583125 83.310321 
L 531.583125 83.310321 
" style="fill:none;stroke:#191970;stroke-linecap:square;stroke-width:1.5;"/>
    </g>
    <g id="line2d_21"/>
    <g id="text_17">
     <!-- Co -->
     <g transform="translate(539.583125 86.810321)scale(0.1 -0.1)">
      <use xlink:href="#DejaVuSans-43"/>
      <use x="69.824219" xlink:href="#DejaVuSans-6f"/>
     </g>
    </g>
    <g id="line2d_22">
     <path d="M 511.583125 97.988446 
L 531.583125 97.988446 
" style="fill:none;stroke:#b8860b;stroke-linecap:square;stroke-width:1.5;"/>
    </g>
    <g id="line2d_23"/>
    <g id="text_18">
     <!-- Gd -->
     <defs>
      <path d="M 59.515625 10.40625 
L 59.515625 29.984375 
L 43.40625 29.984375 
L 43.40625 38.09375 
L 69.28125 38.09375 
L 69.28125 6.78125 
Q 63.578125 2.734375 56.6875 0.65625 
Q 49.8125 -1.421875 42 -1.421875 
Q 24.90625 -1.421875 15.25 8.5625 
Q 5.609375 18.5625 5.609375 36.375 
Q 5.609375 54.25 15.25 64.234375 
Q 24.90625 74.21875 42 74.21875 
Q 49.125 74.21875 55.546875 72.453125 
Q 61.96875 70.703125 67.390625 67.28125 
L 67.390625 56.78125 
Q 61.921875 61.421875 55.765625 63.765625 
Q 49.609375 66.109375 42.828125 66.109375 
Q 29.4375 66.109375 22.71875 58.640625 
Q 16.015625 51.171875 16.015625 36.375 
Q 16.015625 21.625 22.71875 14.15625 
Q 29.4375 6.6875 42.828125 6.6875 
Q 48.046875 6.6875 52.140625 7.59375 
Q 56.25 8.5 59.515625 10.40625 
z
" id="DejaVuSans-47"/>
      <path d="M 45.40625 46.390625 
L 45.40625 75.984375 
L 54.390625 75.984375 
L 54.390625 0 
L 45.40625 0 
L 45.40625 8.203125 
Q 42.578125 3.328125 38.25 0.953125 
Q 33.9375 -1.421875 27.875 -1.421875 
Q 17.96875 -1.421875 11.734375 6.484375 
Q 5.515625 14.40625 5.515625 27.296875 
Q 5.515625 40.1875 11.734375 48.09375 
Q 17.96875 56 27.875 56 
Q 33.9375 56 38.25 53.625 
Q 42.578125 51.265625 45.40625 46.390625 
z
M 14.796875 27.296875 
Q 14.796875 17.390625 18.875 11.75 
Q 22.953125 6.109375 30.078125 6.109375 
Q 37.203125 6.109375 41.296875 11.75 
Q 45.40625 17.390625 45.40625 27.296875 
Q 45.40625 37.203125 41.296875 42.84375 
Q 37.203125 48.484375 30.078125 48.484375 
Q 22.953125 48.484375 18.875 42.84375 
Q 14.796875 37.203125 14.796875 27.296875 
z
" id="DejaVuSans-64"/>
     </defs>
     <g transform="translate(539.583125 101.488446)scale(0.1 -0.1)">
      <use xlink:href="#DejaVuSans-47"/>
      <use x="77.490234" xlink:href="#DejaVuSans-64"/>
     </g>
    </g>
    <g id="line2d_24">
     <path d="M 511.583125 112.666571 
L 531.583125 112.666571 
" style="fill:none;stroke:#006400;stroke-linecap:square;stroke-width:1.5;"/>
    </g>
    <g id="line2d_25"/>
    <g id="text_19">
     <!-- Ni -->
     <defs>
      <path d="M 9.8125 72.90625 
L 23.09375 72.90625 
L 55.421875 11.921875 
L 55.421875 72.90625 
L 64.984375 72.90625 
L 64.984375 0 
L 51.703125 0 
L 19.390625 60.984375 
L 19.390625 0 
L 9.8125 0 
z
" id="DejaVuSans-4e"/>
      <path d="M 9.421875 54.6875 
L 18.40625 54.6875 
L 18.40625 0 
L 9.421875 0 
z
M 9.421875 75.984375 
L 18.40625 75.984375 
L 18.40625 64.59375 
L 9.421875 64.59375 
z
" id="DejaVuSans-69"/>
     </defs>
     <g transform="translate(539.583125 116.166571)scale(0.1 -0.1)">
      <use xlink:href="#DejaVuSans-4e"/>
      <use x="74.804688" xlink:href="#DejaVuSans-69"/>
     </g>
    </g>
    <g id="line2d_26">
     <path d="M 511.583125 127.344696 
L 531.583125 127.344696 
" style="fill:none;stroke:#a0522d;stroke-linecap:square;stroke-width:1.5;"/>
    </g>
    <g id="line2d_27"/>
    <g id="text_20">
     <!-- O -->
     <defs>
      <path d="M 39.40625 66.21875 
Q 28.65625 66.21875 22.328125 58.203125 
Q 16.015625 50.203125 16.015625 36.375 
Q 16.015625 22.609375 22.328125 14.59375 
Q 28.65625 6.59375 39.40625 6.59375 
Q 50.140625 6.59375 56.421875 14.59375 
Q 62.703125 22.609375 62.703125 36.375 
Q 62.703125 50.203125 56.421875 58.203125 
Q 50.140625 66.21875 39.40625 66.21875 
z
M 39.40625 74.21875 
Q 54.734375 74.21875 63.90625 63.9375 
Q 73.09375 53.65625 73.09375 36.375 
Q 73.09375 19.140625 63.90625 8.859375 
Q 54.734375 -1.421875 39.40625 -1.421875 
Q 24.03125 -1.421875 14.8125 8.828125 
Q 5.609375 19.09375 5.609375 36.375 
Q 5.609375 53.65625 14.8125 63.9375 
Q 24.03125 74.21875 39.40625 74.21875 
z
" id="DejaVuSans-4f"/>
     </defs>
     <g transform="translate(539.583125 130.844696)scale(0.1 -0.1)">
      <use xlink:href="#DejaVuSans-4f"/>
     </g>
    </g>
   </g>
  </g>
 </g>
 <defs>
  <clipPath id="pdea3e73033">
   <rect height="161.595467" width="529.04" x="33.64" y="25.2704"/>
  </clipPath>
 </defs>
</svg>
