<?xml version="1.0" encoding="utf-8" standalone="no"?>
<!DOCTYPE svg PUBLIC "-//W3C//DTD SVG 1.1//EN"
  "http://www.w3.org/Graphics/SVG/1.1/DTD/svg11.dtd">
<!-- Created with matplotlib (https://matplotlib.org/) -->
<svg height="216pt" version="1.1" viewBox="0 0 720 216" width="720pt" xmlns="http://www.w3.org/2000/svg" xmlns:xlink="http://www.w3.org/1999/xlink">
 <defs>
  <style type="text/css">
*{stroke-linecap:butt;stroke-linejoin:round;}
  </style>
 </defs>
 <g id="figure_1">
  <g id="patch_1">
   <path d="M 0 216 
L 720 216 
L 720 0 
L 0 0 
z
" style="fill:#ffffff;"/>
  </g>
  <g id="axes_1">
   <g id="patch_2">
    <path d="M 90 192.24 
L 254.117647 192.24 
L 254.117647 25.92 
L 90 25.92 
z
" style="fill:#ffffff;"/>
   </g>
   <g id="matplotlib.axis_1">
    <g id="xtick_1">
     <g id="line2d_1">
      <defs>
       <path d="M 0 0 
L 0 3.5 
" id="md679151e7f" style="stroke:#000000;stroke-width:0.8;"/>
      </defs>
      <g>
       <use style="stroke:#000000;stroke-width:0.8;" x="103.378829" xlink:href="#md679151e7f" y="192.24"/>
      </g>
     </g>
     <g id="text_1">
      <!-- −10 -->
      <defs>
       <path d="M 10.59375 35.5 
L 73.1875 35.5 
L 73.1875 27.203125 
L 10.59375 27.203125 
z
" id="DejaVuSans-8722"/>
       <path d="M 12.40625 8.296875 
L 28.515625 8.296875 
L 28.515625 63.921875 
L 10.984375 60.40625 
L 10.984375 69.390625 
L 28.421875 72.90625 
L 38.28125 72.90625 
L 38.28125 8.296875 
L 54.390625 8.296875 
L 54.390625 0 
L 12.40625 0 
z
" id="DejaVuSans-49"/>
       <path d="M 31.78125 66.40625 
Q 24.171875 66.40625 20.328125 58.90625 
Q 16.5 51.421875 16.5 36.375 
Q 16.5 21.390625 20.328125 13.890625 
Q 24.171875 6.390625 31.78125 6.390625 
Q 39.453125 6.390625 43.28125 13.890625 
Q 47.125 21.390625 47.125 36.375 
Q 47.125 51.421875 43.28125 58.90625 
Q 39.453125 66.40625 31.78125 66.40625 
z
M 31.78125 74.21875 
Q 44.046875 74.21875 50.515625 64.515625 
Q 56.984375 54.828125 56.984375 36.375 
Q 56.984375 17.96875 50.515625 8.265625 
Q 44.046875 -1.421875 31.78125 -1.421875 
Q 19.53125 -1.421875 13.0625 8.265625 
Q 6.59375 17.96875 6.59375 36.375 
Q 6.59375 54.828125 13.0625 64.515625 
Q 19.53125 74.21875 31.78125 74.21875 
z
" id="DejaVuSans-48"/>
      </defs>
      <g transform="translate(92.826485 206.838437)scale(0.1 -0.1)">
       <use xlink:href="#DejaVuSans-8722"/>
       <use x="83.789062" xlink:href="#DejaVuSans-49"/>
       <use x="147.412109" xlink:href="#DejaVuSans-48"/>
      </g>
     </g>
    </g>
    <g id="xtick_2">
     <g id="line2d_2">
      <g>
       <use style="stroke:#000000;stroke-width:0.8;" x="139.893235" xlink:href="#md679151e7f" y="192.24"/>
      </g>
     </g>
     <g id="text_2">
      <!-- −5 -->
      <defs>
       <path d="M 10.796875 72.90625 
L 49.515625 72.90625 
L 49.515625 64.59375 
L 19.828125 64.59375 
L 19.828125 46.734375 
Q 21.96875 47.46875 24.109375 47.828125 
Q 26.265625 48.1875 28.421875 48.1875 
Q 40.625 48.1875 47.75 41.5 
Q 54.890625 34.8125 54.890625 23.390625 
Q 54.890625 11.625 47.5625 5.09375 
Q 40.234375 -1.421875 26.90625 -1.421875 
Q 22.3125 -1.421875 17.546875 -0.640625 
Q 12.796875 0.140625 7.71875 1.703125 
L 7.71875 11.625 
Q 12.109375 9.234375 16.796875 8.0625 
Q 21.484375 6.890625 26.703125 6.890625 
Q 35.15625 6.890625 40.078125 11.328125 
Q 45.015625 15.765625 45.015625 23.390625 
Q 45.015625 31 40.078125 35.4375 
Q 35.15625 39.890625 26.703125 39.890625 
Q 22.75 39.890625 18.8125 39.015625 
Q 14.890625 38.140625 10.796875 36.28125 
z
" id="DejaVuSans-53"/>
      </defs>
      <g transform="translate(132.522141 206.838437)scale(0.1 -0.1)">
       <use xlink:href="#DejaVuSans-8722"/>
       <use x="83.789062" xlink:href="#DejaVuSans-53"/>
      </g>
     </g>
    </g>
    <g id="xtick_3">
     <g id="line2d_3">
      <g>
       <use style="stroke:#000000;stroke-width:0.8;" x="176.40764" xlink:href="#md679151e7f" y="192.24"/>
      </g>
     </g>
     <g id="text_3">
      <!-- 0 -->
      <g transform="translate(173.22639 206.838437)scale(0.1 -0.1)">
       <use xlink:href="#DejaVuSans-48"/>
      </g>
     </g>
    </g>
    <g id="xtick_4">
     <g id="line2d_4">
      <g>
       <use style="stroke:#000000;stroke-width:0.8;" x="212.922046" xlink:href="#md679151e7f" y="192.24"/>
      </g>
     </g>
     <g id="text_4">
      <!-- 5 -->
      <g transform="translate(209.740796 206.838437)scale(0.1 -0.1)">
       <use xlink:href="#DejaVuSans-53"/>
      </g>
     </g>
    </g>
    <g id="xtick_5">
     <g id="line2d_5">
      <g>
       <use style="stroke:#000000;stroke-width:0.8;" x="249.436451" xlink:href="#md679151e7f" y="192.24"/>
      </g>
     </g>
     <g id="text_5">
      <!-- 10 -->
      <g transform="translate(243.073951 206.838437)scale(0.1 -0.1)">
       <use xlink:href="#DejaVuSans-49"/>
       <use x="63.623047" xlink:href="#DejaVuSans-48"/>
      </g>
     </g>
    </g>
   </g>
   <g id="matplotlib.axis_2">
    <g id="ytick_1">
     <g id="line2d_6">
      <defs>
       <path d="M 0 0 
L -3.5 0 
" id="m2e695c2a47" style="stroke:#000000;stroke-width:0.8;"/>
      </defs>
      <g>
       <use style="stroke:#000000;stroke-width:0.8;" x="90" xlink:href="#m2e695c2a47" y="184.68"/>
      </g>
     </g>
     <g id="text_6">
      <!-- 0.0 -->
      <defs>
       <path d="M 10.6875 12.40625 
L 21 12.40625 
L 21 0 
L 10.6875 0 
z
" id="DejaVuSans-46"/>
      </defs>
      <g transform="translate(67.096875 188.479219)scale(0.1 -0.1)">
       <use xlink:href="#DejaVuSans-48"/>
       <use x="63.623047" xlink:href="#DejaVuSans-46"/>
       <use x="95.410156" xlink:href="#DejaVuSans-48"/>
      </g>
     </g>
    </g>
    <g id="ytick_2">
     <g id="line2d_7">
      <g>
       <use style="stroke:#000000;stroke-width:0.8;" x="90" xlink:href="#m2e695c2a47" y="154.44"/>
      </g>
     </g>
     <g id="text_7">
      <!-- 0.2 -->
      <defs>
       <path d="M 19.1875 8.296875 
L 53.609375 8.296875 
L 53.609375 0 
L 7.328125 0 
L 7.328125 8.296875 
Q 12.9375 14.109375 22.625 23.890625 
Q 32.328125 33.6875 34.8125 36.53125 
Q 39.546875 41.84375 41.421875 45.53125 
Q 43.3125 49.21875 43.3125 52.78125 
Q 43.3125 58.59375 39.234375 62.25 
Q 35.15625 65.921875 28.609375 65.921875 
Q 23.96875 65.921875 18.8125 64.3125 
Q 13.671875 62.703125 7.8125 59.421875 
L 7.8125 69.390625 
Q 13.765625 71.78125 18.9375 73 
Q 24.125 74.21875 28.421875 74.21875 
Q 39.75 74.21875 46.484375 68.546875 
Q 53.21875 62.890625 53.21875 53.421875 
Q 53.21875 48.921875 51.53125 44.890625 
Q 49.859375 40.875 45.40625 35.40625 
Q 44.1875 33.984375 37.640625 27.21875 
Q 31.109375 20.453125 19.1875 8.296875 
z
" id="DejaVuSans-50"/>
      </defs>
      <g transform="translate(67.096875 158.239219)scale(0.1 -0.1)">
       <use xlink:href="#DejaVuSans-48"/>
       <use x="63.623047" xlink:href="#DejaVuSans-46"/>
       <use x="95.410156" xlink:href="#DejaVuSans-50"/>
      </g>
     </g>
    </g>
    <g id="ytick_3">
     <g id="line2d_8">
      <g>
       <use style="stroke:#000000;stroke-width:0.8;" x="90" xlink:href="#m2e695c2a47" y="124.2"/>
      </g>
     </g>
     <g id="text_8">
      <!-- 0.4 -->
      <defs>
       <path d="M 37.796875 64.3125 
L 12.890625 25.390625 
L 37.796875 25.390625 
z
M 35.203125 72.90625 
L 47.609375 72.90625 
L 47.609375 25.390625 
L 58.015625 25.390625 
L 58.015625 17.1875 
L 47.609375 17.1875 
L 47.609375 0 
L 37.796875 0 
L 37.796875 17.1875 
L 4.890625 17.1875 
L 4.890625 26.703125 
z
" id="DejaVuSans-52"/>
      </defs>
      <g transform="translate(67.096875 127.999219)scale(0.1 -0.1)">
       <use xlink:href="#DejaVuSans-48"/>
       <use x="63.623047" xlink:href="#DejaVuSans-46"/>
       <use x="95.410156" xlink:href="#DejaVuSans-52"/>
      </g>
     </g>
    </g>
    <g id="ytick_4">
     <g id="line2d_9">
      <g>
       <use style="stroke:#000000;stroke-width:0.8;" x="90" xlink:href="#m2e695c2a47" y="93.96"/>
      </g>
     </g>
     <g id="text_9">
      <!-- 0.6 -->
      <defs>
       <path d="M 33.015625 40.375 
Q 26.375 40.375 22.484375 35.828125 
Q 18.609375 31.296875 18.609375 23.390625 
Q 18.609375 15.53125 22.484375 10.953125 
Q 26.375 6.390625 33.015625 6.390625 
Q 39.65625 6.390625 43.53125 10.953125 
Q 47.40625 15.53125 47.40625 23.390625 
Q 47.40625 31.296875 43.53125 35.828125 
Q 39.65625 40.375 33.015625 40.375 
z
M 52.59375 71.296875 
L 52.59375 62.3125 
Q 48.875 64.0625 45.09375 64.984375 
Q 41.3125 65.921875 37.59375 65.921875 
Q 27.828125 65.921875 22.671875 59.328125 
Q 17.53125 52.734375 16.796875 39.40625 
Q 19.671875 43.65625 24.015625 45.921875 
Q 28.375 48.1875 33.59375 48.1875 
Q 44.578125 48.1875 50.953125 41.515625 
Q 57.328125 34.859375 57.328125 23.390625 
Q 57.328125 12.15625 50.6875 5.359375 
Q 44.046875 -1.421875 33.015625 -1.421875 
Q 20.359375 -1.421875 13.671875 8.265625 
Q 6.984375 17.96875 6.984375 36.375 
Q 6.984375 53.65625 15.1875 63.9375 
Q 23.390625 74.21875 37.203125 74.21875 
Q 40.921875 74.21875 44.703125 73.484375 
Q 48.484375 72.75 52.59375 71.296875 
z
" id="DejaVuSans-54"/>
      </defs>
      <g transform="translate(67.096875 97.759219)scale(0.1 -0.1)">
       <use xlink:href="#DejaVuSans-48"/>
       <use x="63.623047" xlink:href="#DejaVuSans-46"/>
       <use x="95.410156" xlink:href="#DejaVuSans-54"/>
      </g>
     </g>
    </g>
    <g id="ytick_5">
     <g id="line2d_10">
      <g>
       <use style="stroke:#000000;stroke-width:0.8;" x="90" xlink:href="#m2e695c2a47" y="63.72"/>
      </g>
     </g>
     <g id="text_10">
      <!-- 0.8 -->
      <defs>
       <path d="M 31.78125 34.625 
Q 24.75 34.625 20.71875 30.859375 
Q 16.703125 27.09375 16.703125 20.515625 
Q 16.703125 13.921875 20.71875 10.15625 
Q 24.75 6.390625 31.78125 6.390625 
Q 38.8125 6.390625 42.859375 10.171875 
Q 46.921875 13.96875 46.921875 20.515625 
Q 46.921875 27.09375 42.890625 30.859375 
Q 38.875 34.625 31.78125 34.625 
z
M 21.921875 38.8125 
Q 15.578125 40.375 12.03125 44.71875 
Q 8.5 49.078125 8.5 55.328125 
Q 8.5 64.0625 14.71875 69.140625 
Q 20.953125 74.21875 31.78125 74.21875 
Q 42.671875 74.21875 48.875 69.140625 
Q 55.078125 64.0625 55.078125 55.328125 
Q 55.078125 49.078125 51.53125 44.71875 
Q 48 40.375 41.703125 38.8125 
Q 48.828125 37.15625 52.796875 32.3125 
Q 56.78125 27.484375 56.78125 20.515625 
Q 56.78125 9.90625 50.3125 4.234375 
Q 43.84375 -1.421875 31.78125 -1.421875 
Q 19.734375 -1.421875 13.25 4.234375 
Q 6.78125 9.90625 6.78125 20.515625 
Q 6.78125 27.484375 10.78125 32.3125 
Q 14.796875 37.15625 21.921875 38.8125 
z
M 18.3125 54.390625 
Q 18.3125 48.734375 21.84375 45.5625 
Q 25.390625 42.390625 31.78125 42.390625 
Q 38.140625 42.390625 41.71875 45.5625 
Q 45.3125 48.734375 45.3125 54.390625 
Q 45.3125 60.0625 41.71875 63.234375 
Q 38.140625 66.40625 31.78125 66.40625 
Q 25.390625 66.40625 21.84375 63.234375 
Q 18.3125 60.0625 18.3125 54.390625 
z
" id="DejaVuSans-56"/>
      </defs>
      <g transform="translate(67.096875 67.519219)scale(0.1 -0.1)">
       <use xlink:href="#DejaVuSans-48"/>
       <use x="63.623047" xlink:href="#DejaVuSans-46"/>
       <use x="95.410156" xlink:href="#DejaVuSans-56"/>
      </g>
     </g>
    </g>
    <g id="ytick_6">
     <g id="line2d_11">
      <g>
       <use style="stroke:#000000;stroke-width:0.8;" x="90" xlink:href="#m2e695c2a47" y="33.48"/>
      </g>
     </g>
     <g id="text_11">
      <!-- 1.0 -->
      <g transform="translate(67.096875 37.279219)scale(0.1 -0.1)">
       <use xlink:href="#DejaVuSans-49"/>
       <use x="63.623047" xlink:href="#DejaVuSans-46"/>
       <use x="95.410156" xlink:href="#DejaVuSans-48"/>
      </g>
     </g>
    </g>
   </g>
   <g id="line2d_12">
    <path clip-path="url(#pa26d81309a)" d="M 97.459893 177.045463 
L 98.128942 172.663498 
L 98.79799 180.569102 
L 99.467039 178.219989 
L 100.136088 178.491066 
L 100.805137 175.509499 
L 101.474185 178.039293 
L 102.143234 171.48895 
L 102.812283 181.879162 
L 103.481331 184.68 
L 104.15038 174.109091 
L 104.819429 170.043368 
L 105.488477 181.472584 
L 106.157526 183.505452 
L 106.826575 166.158341 
L 107.495624 180.794951 
L 108.164672 169.094691 
L 108.833721 168.86882 
L 109.50277 172.889381 
L 110.171818 170.17889 
L 110.840867 169.546442 
L 111.509916 167.332868 
L 112.178965 168.733286 
L 112.848013 172.166572 
L 113.517062 170.314413 
L 114.186111 169.953009 
L 114.855159 158.840005 
L 115.524208 173.792863 
L 116.193257 163.041274 
L 116.862305 155.045339 
L 117.531354 162.815393 
L 118.869452 154.322541 
L 119.5385 170.40475 
L 120.207549 142.486762 
L 120.876598 151.928271 
L 121.545646 154.774294 
L 122.214695 153.102809 
L 122.883744 149.850241 
L 123.552792 163.447851 
L 124.221841 151.341007 
L 124.89089 158.252742 
L 125.559939 149.579174 
L 126.228987 159.788672 
L 126.898036 151.747585 
L 127.567085 154.548412 
L 128.236133 146.823534 
L 128.905182 150.030937 
L 129.574231 146.055539 
L 130.24328 147.636677 
L 130.912328 144.971383 
L 131.581377 152.154142 
L 132.250426 137.427166 
L 132.919474 148.269103 
L 133.588523 152.605904 
L 134.257572 142.486731 
L 134.92662 136.342968 
L 135.595669 143.887149 
L 136.264718 137.156123 
L 136.933767 142.938496 
L 137.602815 141.989815 
L 138.271864 133.451793 
L 138.940913 139.09864 
L 139.609961 146.281422 
L 140.27901 134.219761 
L 140.948059 144.609956 
L 141.617108 140.137655 
L 142.286156 150.121286 
L 142.955205 147.591504 
L 144.293302 135.755705 
L 144.962351 146.868708 
L 145.6314 144.203402 
L 146.300448 134.581155 
L 146.969497 151.069951 
L 147.638546 140.137668 
L 148.307595 150.527852 
L 148.976643 151.341007 
L 149.645692 147.184924 
L 150.314741 147.817363 
L 150.983789 158.614148 
L 151.652838 147.184924 
L 152.321887 148.178776 
L 152.990935 158.343092 
L 154.329033 149.534 
L 154.998082 150.211645 
L 155.66713 154.051498 
L 156.336179 147.184947 
L 157.005228 159.427291 
L 157.674276 159.562824 
L 158.343325 151.386192 
L 159.012374 158.704507 
L 159.681423 146.100727 
L 160.350471 153.464201 
L 161.01952 154.729098 
L 161.688569 146.778347 
L 162.357617 152.651078 
L 163.026666 151.069951 
L 163.695715 144.790674 
L 164.364763 152.967285 
L 165.033812 144.564774 
L 165.702861 141.086344 
L 166.37191 152.244478 
L 167.040958 132.186919 
L 167.710007 137.381983 
L 168.379056 131.780328 
L 169.048104 128.934304 
L 169.717153 121.02872 
L 170.386202 110.457825 
L 171.05525 105.849992 
L 171.724299 104.268888 
L 172.393348 103.365377 
L 173.062397 103.997846 
L 173.731445 100.022464 
L 174.400494 81.320066 
L 175.069543 89.18049 
L 175.738591 79.332367 
L 176.40764 74.814936 
L 177.076689 79.874497 
L 177.745738 83.12708 
L 178.414786 89.496756 
L 179.083835 74.86006 
L 179.752884 63.250164 
L 181.090981 69.213236 
L 181.76003 62.617731 
L 182.429078 65.599245 
L 183.098127 56.564294 
L 184.436225 63.250191 
L 185.105273 48.61354 
L 185.774322 56.745007 
L 186.443371 53.266541 
L 187.112419 50.691569 
L 187.781468 47.484164 
L 188.450517 47.664841 
L 189.119565 48.161802 
L 189.788614 59.681351 
L 190.457663 47.258255 
L 191.126712 55.886656 
L 191.79576 61.669051 
L 193.133858 46.399922 
L 193.802906 47.529343 
L 194.471955 61.669033 
L 195.141004 38.358848 
L 195.810053 48.658673 
L 196.479101 44.909201 
L 197.14815 52.00164 
L 197.817199 49.968789 
L 198.486247 40.165834 
L 199.155296 55.886656 
L 199.824345 53.040731 
L 200.493393 43.553997 
L 201.162442 60.72037 
L 201.831491 33.48 
L 202.50054 43.057081 
L 203.169588 45.903051 
L 203.838637 58.823063 
L 204.507686 42.153534 
L 205.845783 55.525248 
L 206.514832 45.225395 
L 207.18388 49.200785 
L 207.852929 41.611422 
L 208.521978 47.484164 
L 209.191027 43.689478 
L 209.860075 51.098138 
L 210.529124 45.135093 
L 211.198173 45.270618 
L 211.867221 48.839413 
L 212.53627 50.465705 
L 213.205319 49.020108 
L 213.874368 51.77573 
L 214.543416 44.954397 
L 215.212465 41.385575 
L 215.881514 38.900978 
L 216.550562 33.886541 
L 217.219611 47.258273 
L 217.88866 48.387667 
L 218.557708 42.063168 
L 219.226757 44.818854 
L 219.895806 42.921519 
L 220.564855 42.424604 
L 221.233903 50.781917 
L 221.902952 48.658763 
L 222.572001 53.989349 
L 223.241049 42.379407 
L 223.910098 45.089914 
L 224.579147 42.56012 
L 225.248195 47.077578 
L 225.917244 36.326015 
L 226.586293 36.687423 
L 227.255342 50.420527 
L 227.92439 56.654614 
L 228.593439 44.276741 
L 229.262488 36.913251 
L 229.931536 44.909201 
L 230.600585 49.245982 
L 231.269634 44.999594 
L 231.938683 45.496483 
L 232.607731 46.942079 
L 233.27678 44.096064 
L 233.945829 37.229472 
L 234.614877 38.855809 
L 235.283926 44.186394 
L 235.952975 48.026258 
L 236.622023 48.794262 
L 237.291072 36.68736 
L 237.960121 41.340379 
L 238.62917 41.701796 
L 239.298218 47.529343 
L 239.967267 46.942124 
L 240.636316 49.336347 
L 241.305364 49.020108 
L 241.974413 51.956471 
L 242.643462 51.007808 
L 243.31251 48.387667 
L 243.981559 51.866096 
L 244.650608 44.547829 
L 245.319657 34.654527 
L 245.988705 57.016058 
L 246.657754 49.336347 
L 246.657754 49.336347 
" style="fill:none;stroke:#ff0000;stroke-linecap:square;stroke-width:1.5;"/>
   </g>
   <g id="line2d_13">
    <path clip-path="url(#pa26d81309a)" d="M 97.459893 180.433603 
L 98.128942 181.169641 
L 98.79799 175.932423 
L 99.467039 182.047233 
L 100.136088 182.358641 
L 100.805137 180.207129 
L 101.474185 182.868208 
L 102.143234 174.630198 
L 102.812283 181.565976 
L 103.481331 181.113023 
L 104.15038 179.952342 
L 104.819429 180.150511 
L 105.488477 184.651691 
L 106.157526 184.68 
L 106.826575 176.526917 
L 107.495624 182.72666 
L 108.164672 182.30202 
L 108.833721 179.697562 
L 110.171818 181.594288 
L 110.840867 178.650117 
L 111.509916 183.83072 
L 112.178965 182.188781 
L 112.848013 181.282883 
L 113.517062 179.216301 
L 114.186111 177.829149 
L 115.524208 178.225477 
L 116.193257 181.226259 
L 116.862305 177.517752 
L 117.531354 177.574366 
L 118.200403 173.780925 
L 118.869452 174.856669 
L 119.5385 173.073186 
L 120.207549 170.015779 
L 120.876598 172.705161 
L 121.545646 174.91329 
L 122.214695 172.903322 
L 122.883744 173.497829 
L 123.552792 176.328754 
L 124.221841 172.705164 
L 124.89089 174.460345 
L 125.559939 175.649335 
L 126.228987 180.405298 
L 126.898036 172.110667 
L 127.567085 174.347102 
L 128.236133 169.251422 
L 128.905182 167.920885 
L 129.574231 172.223902 
L 130.24328 170.865052 
L 130.912328 171.940814 
L 131.581377 174.233863 
L 132.250426 166.505423 
L 132.919474 170.52535 
L 133.588523 171.77096 
L 134.257572 169.081576 
L 134.92662 168.911719 
L 135.595669 173.327969 
L 136.264718 170.52535 
L 136.933767 168.37384 
L 137.602815 168.543697 
L 138.271864 163.84435 
L 138.940913 166.052474 
L 139.609961 172.11067 
L 140.27901 166.67528 
L 140.948059 172.082351 
L 141.617108 169.760989 
L 142.286156 168.628627 
L 142.955205 170.355493 
L 143.624254 166.335566 
L 144.293302 167.298086 
L 144.962351 170.327187 
L 145.6314 167.920888 
L 146.300448 163.051689 
L 146.969497 168.713547 
L 147.638546 167.892579 
L 148.307595 171.091533 
L 148.976643 169.392974 
L 149.645692 167.213156 
L 150.314741 171.374625 
L 150.983789 171.714339 
L 151.652838 172.761788 
L 152.321887 168.713547 
L 152.990935 170.723508 
L 153.659984 172.025744 
L 154.329033 168.572006 
L 154.998082 169.477901 
L 155.66713 169.874228 
L 156.336179 168.515389 
L 157.005228 171.26139 
L 157.674276 168.175672 
L 158.343325 168.515384 
L 159.012374 168.996642 
L 159.681423 164.920103 
L 160.350471 167.213156 
L 161.01952 163.476323 
L 161.688569 158.408962 
L 162.357617 161.834386 
L 163.026666 159.937665 
L 163.695715 153.907781 
L 164.364763 157.503065 
L 165.033812 148.472401 
L 165.702861 148.953652 
L 166.37191 147.340027 
L 167.040958 140.121153 
L 167.710007 137.290216 
L 168.379056 136.440931 
L 169.048104 129.958124 
L 169.717153 125.428617 
L 171.05525 110.22653 
L 171.724299 113.142372 
L 172.393348 107.423914 
L 173.062397 105.357303 
L 173.731445 104.847743 
L 174.400494 97.232551 
L 175.069543 92.986163 
L 175.738591 92.2218 
L 176.40764 85.79559 
L 177.076689 81.888909 
L 177.745738 79.05798 
L 178.414786 78.49177 
L 179.083835 74.839882 
L 179.752884 74.245382 
L 181.090981 68.045658 
L 181.76003 67.196391 
L 182.429078 62.893379 
L 183.098127 61.506209 
L 183.767176 60.968341 
L 184.436225 57.910927 
L 185.774322 54.287329 
L 186.443371 53.296516 
L 187.112419 53.239901 
L 187.781468 47.068467 
L 188.450517 52.07919 
L 189.119565 48.936889 
L 189.788614 53.183268 
L 190.457663 50.125881 
L 191.79576 53.607915 
L 193.133858 46.473993 
L 193.802906 44.577218 
L 194.471955 49.871096 
L 195.141004 44.294153 
L 195.810053 49.021803 
L 196.479101 49.021776 
L 197.14815 49.786174 
L 197.817199 46.955201 
L 199.155296 49.135041 
L 199.824345 47.946041 
L 201.162442 45.058498 
L 201.831491 45.539759 
L 202.50054 44.03935 
L 203.169588 44.577227 
L 203.838637 43.954437 
L 204.507686 45.992687 
L 205.176734 48.823642 
L 205.845783 45.398231 
L 206.514832 38.434136 
L 207.18388 43.501483 
L 207.852929 42.6239 
L 208.521978 46.700425 
L 209.860075 42.708813 
L 210.529124 40.981963 
L 211.198173 39.594802 
L 211.867221 44.945304 
L 212.53627 46.502292 
L 213.205319 41.010289 
L 213.874368 42.369124 
L 214.543416 40.472385 
L 215.881514 39.39665 
L 216.550562 43.529799 
L 217.219611 41.916152 
L 217.88866 39.708058 
L 218.557708 40.359164 
L 219.226757 40.047765 
L 219.895806 42.708831 
L 220.564855 41.802931 
L 221.233903 41.180142 
L 221.902952 40.302505 
L 222.572001 47.408173 
L 223.241049 40.698862 
L 223.910098 40.330857 
L 224.579147 38.490751 
L 225.248195 40.217609 
L 225.917244 40.670564 
L 226.586293 39.424976 
L 227.255342 44.747098 
L 227.92439 43.784593 
L 228.593439 39.736357 
L 229.262488 33.48 
L 229.931536 41.180142 
L 230.600585 44.435717 
L 231.269634 39.340017 
L 231.938683 38.377503 
L 232.607731 40.30255 
L 233.27678 41.038596 
L 233.945829 36.622337 
L 234.614877 37.556517 
L 235.283926 38.915415 
L 235.952975 42.765437 
L 236.622023 38.29259 
L 237.291072 38.40581 
L 237.960121 42.482363 
L 238.62917 36.141075 
L 239.298218 40.557316 
L 239.967267 39.566494 
L 240.636316 42.057716 
L 241.305364 41.463216 
L 241.974413 43.897805 
L 242.643462 44.54892 
L 243.31251 41.40661 
L 243.981559 43.473185 
L 244.650608 36.565713 
L 245.319657 39.311728 
L 245.988705 39.000284 
L 246.657754 44.209231 
L 246.657754 44.209231 
" style="fill:none;stroke:#0000ff;stroke-linecap:square;stroke-width:1.5;"/>
   </g>
   <g id="line2d_14">
    <path clip-path="url(#pa26d81309a)" d="M 97.459893 45.021971 
L 98.128942 45.912352 
L 98.79799 40.932819 
L 99.467039 44.824162 
L 100.136088 40.504126 
L 100.805137 42.944474 
L 101.474185 43.208252 
L 102.143234 36.612856 
L 102.812283 37.437276 
L 103.481331 41.559412 
L 104.15038 39.152085 
L 104.819429 38.657405 
L 105.488477 36.019266 
L 106.157526 37.964896 
L 106.826575 36.250078 
L 107.495624 33.578945 
L 108.164672 38.327638 
L 108.833721 39.679697 
L 109.50277 37.668106 
L 110.171818 37.668106 
L 110.840867 39.778642 
L 111.509916 40.10839 
L 112.178965 38.426584 
L 112.848013 33.64487 
L 113.517062 38.426556 
L 114.186111 37.602136 
L 114.855159 33.974699 
L 115.524208 35.920321 
L 116.193257 35.920303 
L 116.862305 37.60219 
L 117.531354 33.48 
L 118.200403 39.218055 
L 118.869452 39.778642 
L 119.5385 38.360614 
L 120.207549 39.316955 
L 120.876598 35.920284 
L 121.545646 38.228693 
L 122.214695 39.712673 
L 122.883744 40.866886 
L 123.552792 35.623512 
L 124.221841 36.349014 
L 124.89089 38.525466 
L 125.559939 37.668106 
L 126.228987 38.129784 
L 126.898036 40.603044 
L 127.567085 40.141339 
L 128.236133 38.360614 
L 128.905182 40.47115 
L 129.574231 41.955112 
L 130.24328 38.987207 
L 130.912328 40.174396 
L 131.581377 38.756332 
L 132.250426 37.635112 
L 132.919474 39.4159 
L 133.588523 40.372223 
L 134.257572 39.547794 
L 134.92662 35.986236 
L 135.595669 41.328555 
L 136.933767 42.021081 
L 137.602815 41.427518 
L 138.271864 39.086098 
L 138.940913 39.877587 
L 139.609961 40.932819 
L 140.27901 37.074516 
L 140.948059 41.493425 
L 141.617108 39.943521 
L 142.286156 40.767941 
L 142.955205 43.505061 
L 143.624254 41.988106 
L 144.293302 42.317854 
L 144.962351 40.306254 
L 145.6314 41.163659 
L 146.300448 39.086116 
L 146.969497 38.657423 
L 148.307595 42.054075 
L 148.976643 43.373158 
L 149.645692 41.559376 
L 150.314741 43.933754 
L 150.983789 42.383796 
L 151.652838 42.119999 
L 152.321887 44.362439 
L 152.990935 44.791195 
L 153.659984 40.207354 
L 154.329033 45.384794 
L 154.998082 41.625328 
L 155.66713 42.944384 
L 156.336179 43.109298 
L 157.005228 45.384758 
L 157.674276 46.209241 
L 158.343325 51.089774 
L 159.012374 48.187803 
L 159.681423 44.131636 
L 160.350471 50.430224 
L 161.01952 51.815294 
L 161.688569 51.518504 
L 162.357617 52.50782 
L 163.026666 51.254689 
L 163.695715 56.926747 
L 164.364763 56.893772 
L 165.033812 56.234221 
L 165.702861 58.575578 
L 166.37191 63.752983 
L 167.040958 66.490121 
L 167.710007 68.369755 
L 168.379056 73.250396 
L 169.048104 70.942024 
L 170.386202 80.769176 
L 171.05525 84.297723 
L 171.724299 85.517887 
L 172.393348 83.407351 
L 173.731445 99.599088 
L 174.400494 100.258621 
L 175.069543 102.171312 
L 175.738591 104.87542 
L 176.40764 108.898629 
L 177.076689 108.206103 
L 177.745738 118.791751 
L 178.414786 117.604571 
L 179.083835 123.837253 
L 179.752884 124.892543 
L 180.421932 124.002149 
L 181.090981 128.816798 
L 181.76003 130.531603 
L 182.429078 136.533464 
L 183.098127 133.136821 
L 183.767176 136.071759 
L 185.105273 142.766123 
L 185.774322 149.064741 
L 186.443371 148.899849 
L 187.112419 140.325821 
L 187.781468 152.593292 
L 188.450517 150.284905 
L 189.119565 155.759094 
L 189.788614 156.880304 
L 190.457663 152.032673 
L 191.126712 151.603977 
L 191.79576 156.385648 
L 192.464809 162.090696 
L 193.133858 158.727042 
L 193.802906 158.199401 
L 194.471955 164.530996 
L 195.141004 169.21376 
L 195.810053 162.354515 
L 196.479101 161.596031 
L 197.14815 169.180768 
L 197.817199 162.915127 
L 198.486247 170.565801 
L 199.155296 170.994512 
L 199.824345 169.543527 
L 200.493393 171.126411 
L 201.162442 174.259244 
L 201.831491 172.511452 
L 202.50054 175.248557 
L 203.169588 175.710238 
L 203.838637 171.884888 
L 204.507686 173.929478 
L 205.845783 171.456185 
L 206.514832 171.654053 
L 207.18388 175.97405 
L 207.852929 183.888554 
L 208.521978 177.853756 
L 209.191027 175.050689 
L 209.860075 181.48123 
L 210.529124 177.392068 
L 211.198173 176.17191 
L 211.867221 178.414359 
L 212.53627 177.227185 
L 213.205319 175.380456 
L 213.874368 175.116651 
L 214.543416 172.280607 
L 215.212465 178.513288 
L 215.881514 180.392986 
L 216.550562 174.457111 
L 217.219611 179.832384 
L 217.88866 174.753908 
L 218.557708 176.534668 
L 219.226757 179.898337 
L 219.895806 179.634517 
L 220.564855 177.952686 
L 221.233903 178.974961 
L 221.902952 179.04093 
L 222.572001 180.096189 
L 223.241049 176.402754 
L 223.910098 180.788722 
L 224.579147 178.414359 
L 225.248195 176.666567 
L 225.917244 176.07298 
L 226.586293 181.151456 
L 227.255342 182.89924 
L 227.92439 176.765513 
L 228.593439 178.249476 
L 229.262488 184.68 
L 229.931536 178.150538 
L 230.600585 178.183514 
L 231.269634 170.697723 
L 231.938683 183.163061 
L 232.607731 182.536505 
L 233.27678 179.403681 
L 233.945829 177.29313 
L 234.614877 181.975875 
L 235.283926 179.04093 
L 235.952975 180.986577 
L 236.622023 179.733446 
L 237.291072 176.336801 
L 237.960121 181.052522 
L 238.62917 180.327025 
L 239.298218 180.656799 
L 239.967267 180.623823 
L 240.636316 182.107797 
L 241.305364 175.281526 
L 241.974413 175.41344 
L 242.643462 179.337719 
L 243.31251 180.722752 
L 243.981559 180.360002 
L 244.650608 177.029326 
L 245.319657 180.623814 
L 245.988705 181.94291 
L 246.657754 181.34932 
L 246.657754 181.34932 
" style="fill:none;stroke:#800080;stroke-linecap:square;stroke-width:1.5;"/>
   </g>
   <g id="line2d_15">
    <path clip-path="url(#pa26d81309a)" d="M 97.459893 164.401626 
L 98.128942 159.321688 
L 98.79799 164.360325 
L 100.136088 155.563389 
L 100.805137 153.663549 
L 101.474185 153.746178 
L 102.143234 151.102945 
L 102.812283 142.388606 
L 103.481331 144.412327 
L 104.15038 147.385944 
L 104.819429 138.878093 
L 105.488477 136.276183 
L 106.157526 130.03987 
L 106.826575 137.886884 
L 107.495624 131.154956 
L 108.164672 131.815751 
L 108.833721 128.22265 
L 109.50277 122.894926 
L 110.171818 124.423029 
L 110.840867 126.24024 
L 111.509916 118.517099 
L 112.178965 120.086483 
L 112.848013 120.45821 
L 113.517062 123.101423 
L 114.186111 120.416898 
L 114.855159 124.051302 
L 115.524208 110.876559 
L 116.193257 117.732409 
L 116.862305 117.691111 
L 117.531354 116.493391 
L 118.200403 115.667389 
L 118.869452 121.119031 
L 119.5385 117.897599 
L 120.207549 120.334333 
L 120.876598 118.021503 
L 121.545646 117.112896 
L 122.214695 112.363355 
L 122.883744 122.027594 
L 123.552792 107.159522 
L 124.221841 113.974087 
L 124.89089 108.315944 
L 125.559939 116.039085 
L 126.228987 106.870419 
L 126.898036 122.853605 
L 127.567085 112.693784 
L 128.236133 112.611164 
L 128.905182 112.032967 
L 129.574231 121.160312 
L 130.24328 116.080374 
L 130.912328 114.965288 
L 131.581377 121.655907 
L 132.250426 121.32551 
L 132.919474 111.206957 
L 134.257572 122.358018 
L 134.92662 120.086492 
L 135.595669 108.481165 
L 136.933767 126.611936 
L 137.602815 116.53468 
L 138.271864 128.429147 
L 138.940913 125.579437 
L 139.609961 117.236796 
L 140.27901 124.299138 
L 140.948059 116.369504 
L 141.617108 120.623409 
L 142.286156 115.295694 
L 143.624254 127.066228 
L 144.293302 121.036412 
L 144.962351 119.012695 
L 145.6314 120.58211 
L 146.300448 134.45895 
L 146.969497 129.750739 
L 147.638546 130.783238 
L 148.307595 127.314055 
L 148.976643 117.691111 
L 149.645692 121.077701 
L 150.314741 127.561846 
L 150.983789 127.14883 
L 151.652838 125.909843 
L 152.321887 128.470436 
L 152.990935 125.703314 
L 153.659984 127.479245 
L 154.329033 135.697977 
L 154.998082 135.656688 
L 155.66713 130.576773 
L 156.336179 136.110962 
L 157.005228 133.922078 
L 157.674276 134.087295 
L 158.343325 133.343872 
L 159.012374 142.1821 
L 159.681423 148.459743 
L 160.350471 138.506411 
L 161.01952 144.536223 
L 161.688569 148.624951 
L 162.357617 143.95799 
L 163.026666 146.270828 
L 163.695715 160.14767 
L 164.364763 145.073117 
L 165.033812 154.902565 
L 165.702861 155.935073 
L 166.37191 160.932402 
L 167.040958 170.844426 
L 167.710007 164.979809 
L 168.379056 174.933163 
L 169.048104 171.257452 
L 169.717153 173.446358 
L 171.05525 184.68 
L 171.724299 174.354959 
L 172.393348 180.839091 
L 173.062397 182.284585 
L 173.731445 177.369867 
L 174.400494 179.476175 
L 175.069543 178.526275 
L 175.738591 184.67999 
L 176.40764 178.98057 
L 177.076689 179.063179 
L 177.745738 176.419968 
L 178.414786 182.078087 
L 179.083835 177.782873 
L 179.752884 176.543866 
L 180.421932 174.602757 
L 181.090981 178.195869 
L 181.76003 174.354949 
L 182.429078 165.062418 
L 183.098127 171.46395 
L 183.767176 169.398932 
L 184.436225 166.012337 
L 185.105273 159.776003 
L 185.774322 151.350772 
L 186.443371 150.68994 
L 187.112419 147.716321 
L 187.781468 149.120526 
L 188.450517 143.2972 
L 189.119565 146.642541 
L 189.788614 134.293765 
L 190.457663 139.125902 
L 191.126712 127.892239 
L 191.79576 125.827223 
L 192.464809 120.995113 
L 193.133858 118.4758 
L 193.802906 121.862404 
L 194.471955 113.478465 
L 195.141004 123.886135 
L 195.810053 109.678853 
L 196.479101 108.315944 
L 197.14815 110.628755 
L 197.817199 102.368715 
L 198.486247 99.849394 
L 199.155296 100.881924 
L 199.824345 105.837934 
L 200.493393 94.191277 
L 201.162442 99.642878 
L 201.831491 101.212303 
L 202.50054 86.715936 
L 203.169588 83.205414 
L 203.838637 86.17906 
L 204.507686 92.043683 
L 205.176734 75.234518 
L 205.845783 89.565664 
L 206.514832 87.252848 
L 207.18388 85.435633 
L 207.852929 82.709841 
L 208.521978 87.087654 
L 209.191027 78.125486 
L 209.860075 84.940033 
L 210.529124 83.494553 
L 211.867221 71.145763 
L 212.53627 72.426084 
L 213.205319 71.682675 
L 213.874368 74.821506 
L 214.543416 74.986664 
L 215.212465 74.821524 
L 216.550562 70.65019 
L 217.219611 64.537749 
L 218.557708 75.317115 
L 219.226757 69.204665 
L 219.895806 67.470101 
L 220.564855 73.169503 
L 221.233903 70.484969 
L 221.902952 63.009646 
L 222.572001 62.431431 
L 223.241049 65.405058 
L 223.910098 70.195848 
L 224.579147 63.009646 
L 225.248195 57.764505 
L 225.917244 54.295296 
L 226.586293 59.581766 
L 227.255342 50.495661 
L 227.92439 53.428031 
L 228.593439 55.07999 
L 229.262488 61.19243 
L 229.931536 50.578258 
L 230.600585 45.622248 
L 231.269634 47.976403 
L 231.938683 59.33393 
L 232.607731 52.354198 
L 233.27678 47.728594 
L 233.945829 57.31019 
L 234.614877 50.49568 
L 235.283926 50.124006 
L 235.952975 41.657456 
L 236.622023 52.395501 
L 237.291072 55.823408 
L 237.960121 44.631066 
L 238.62917 43.887666 
L 239.298218 49.669664 
L 239.967267 43.763775 
L 240.636316 33.48 
L 241.305364 44.548442 
L 241.974413 42.153029 
L 242.643462 40.914038 
L 243.31251 42.813841 
L 243.981559 41.616117 
L 244.650608 50.908737 
L 245.319657 44.052851 
L 246.657754 39.551093 
L 246.657754 39.551093 
" style="fill:none;stroke:#000000;stroke-linecap:square;stroke-width:1.5;"/>
   </g>
   <g id="patch_3">
    <path d="M 90 192.24 
L 90 25.92 
" style="fill:none;stroke:#000000;stroke-linecap:square;stroke-linejoin:miter;stroke-width:0.8;"/>
   </g>
   <g id="patch_4">
    <path d="M 254.117647 192.24 
L 254.117647 25.92 
" style="fill:none;stroke:#000000;stroke-linecap:square;stroke-linejoin:miter;stroke-width:0.8;"/>
   </g>
   <g id="patch_5">
    <path d="M 90 192.24 
L 254.117647 192.24 
" style="fill:none;stroke:#000000;stroke-linecap:square;stroke-linejoin:miter;stroke-width:0.8;"/>
   </g>
   <g id="patch_6">
    <path d="M 90 25.92 
L 254.117647 25.92 
" style="fill:none;stroke:#000000;stroke-linecap:square;stroke-linejoin:miter;stroke-width:0.8;"/>
   </g>
   <g id="text_12">
    <!-- AG -->
    <defs>
     <path d="M 34.1875 63.1875 
L 20.796875 26.90625 
L 47.609375 26.90625 
z
M 28.609375 72.90625 
L 39.796875 72.90625 
L 67.578125 0 
L 57.328125 0 
L 50.6875 18.703125 
L 17.828125 18.703125 
L 11.1875 0 
L 0.78125 0 
z
" id="DejaVuSans-65"/>
     <path d="M 59.515625 10.40625 
L 59.515625 29.984375 
L 43.40625 29.984375 
L 43.40625 38.09375 
L 69.28125 38.09375 
L 69.28125 6.78125 
Q 63.578125 2.734375 56.6875 0.65625 
Q 49.8125 -1.421875 42 -1.421875 
Q 24.90625 -1.421875 15.25 8.5625 
Q 5.609375 18.5625 5.609375 36.375 
Q 5.609375 54.25 15.25 64.234375 
Q 24.90625 74.21875 42 74.21875 
Q 49.125 74.21875 55.546875 72.453125 
Q 61.96875 70.703125 67.390625 67.28125 
L 67.390625 56.78125 
Q 61.921875 61.421875 55.765625 63.765625 
Q 49.609375 66.109375 42.828125 66.109375 
Q 29.4375 66.109375 22.71875 58.640625 
Q 16.015625 51.171875 16.015625 36.375 
Q 16.015625 21.625 22.71875 14.15625 
Q 29.4375 6.6875 42.828125 6.6875 
Q 48.046875 6.6875 52.140625 7.59375 
Q 56.25 8.5 59.515625 10.40625 
z
" id="DejaVuSans-71"/>
    </defs>
    <g transform="translate(163.306324 19.92)scale(0.12 -0.12)">
     <use xlink:href="#DejaVuSans-65"/>
     <use x="68.392578" xlink:href="#DejaVuSans-71"/>
    </g>
   </g>
  </g>
  <g id="axes_2">
   <g id="patch_7">
    <path d="M 286.941176 192.24 
L 451.058824 192.24 
L 451.058824 25.92 
L 286.941176 25.92 
z
" style="fill:#ffffff;"/>
   </g>
   <g id="matplotlib.axis_3">
    <g id="xtick_6">
     <g id="line2d_16">
      <g>
       <use style="stroke:#000000;stroke-width:0.8;" x="331.044731" xlink:href="#md679151e7f" y="192.24"/>
      </g>
     </g>
     <g id="text_13">
      <!-- −2 -->
      <g transform="translate(323.673637 206.838437)scale(0.1 -0.1)">
       <use xlink:href="#DejaVuSans-8722"/>
       <use x="83.789062" xlink:href="#DejaVuSans-50"/>
      </g>
     </g>
    </g>
    <g id="xtick_7">
     <g id="line2d_17">
      <g>
       <use style="stroke:#000000;stroke-width:0.8;" x="375.781721" xlink:href="#md679151e7f" y="192.24"/>
      </g>
     </g>
     <g id="text_14">
      <!-- 0 -->
      <g transform="translate(372.600471 206.838437)scale(0.1 -0.1)">
       <use xlink:href="#DejaVuSans-48"/>
      </g>
     </g>
    </g>
    <g id="xtick_8">
     <g id="line2d_18">
      <g>
       <use style="stroke:#000000;stroke-width:0.8;" x="420.518711" xlink:href="#md679151e7f" y="192.24"/>
      </g>
     </g>
     <g id="text_15">
      <!-- 2 -->
      <g transform="translate(417.337461 206.838437)scale(0.1 -0.1)">
       <use xlink:href="#DejaVuSans-50"/>
      </g>
     </g>
    </g>
   </g>
   <g id="matplotlib.axis_4">
    <g id="ytick_7">
     <g id="line2d_19">
      <g>
       <use style="stroke:#000000;stroke-width:0.8;" x="286.941176" xlink:href="#m2e695c2a47" y="184.68"/>
      </g>
     </g>
     <g id="text_16">
      <!-- 0.0 -->
      <g transform="translate(264.038051 188.479219)scale(0.1 -0.1)">
       <use xlink:href="#DejaVuSans-48"/>
       <use x="63.623047" xlink:href="#DejaVuSans-46"/>
       <use x="95.410156" xlink:href="#DejaVuSans-48"/>
      </g>
     </g>
    </g>
    <g id="ytick_8">
     <g id="line2d_20">
      <g>
       <use style="stroke:#000000;stroke-width:0.8;" x="286.941176" xlink:href="#m2e695c2a47" y="154.44"/>
      </g>
     </g>
     <g id="text_17">
      <!-- 0.2 -->
      <g transform="translate(264.038051 158.239219)scale(0.1 -0.1)">
       <use xlink:href="#DejaVuSans-48"/>
       <use x="63.623047" xlink:href="#DejaVuSans-46"/>
       <use x="95.410156" xlink:href="#DejaVuSans-50"/>
      </g>
     </g>
    </g>
    <g id="ytick_9">
     <g id="line2d_21">
      <g>
       <use style="stroke:#000000;stroke-width:0.8;" x="286.941176" xlink:href="#m2e695c2a47" y="124.2"/>
      </g>
     </g>
     <g id="text_18">
      <!-- 0.4 -->
      <g transform="translate(264.038051 127.999219)scale(0.1 -0.1)">
       <use xlink:href="#DejaVuSans-48"/>
       <use x="63.623047" xlink:href="#DejaVuSans-46"/>
       <use x="95.410156" xlink:href="#DejaVuSans-52"/>
      </g>
     </g>
    </g>
    <g id="ytick_10">
     <g id="line2d_22">
      <g>
       <use style="stroke:#000000;stroke-width:0.8;" x="286.941176" xlink:href="#m2e695c2a47" y="93.96"/>
      </g>
     </g>
     <g id="text_19">
      <!-- 0.6 -->
      <g transform="translate(264.038051 97.759219)scale(0.1 -0.1)">
       <use xlink:href="#DejaVuSans-48"/>
       <use x="63.623047" xlink:href="#DejaVuSans-46"/>
       <use x="95.410156" xlink:href="#DejaVuSans-54"/>
      </g>
     </g>
    </g>
    <g id="ytick_11">
     <g id="line2d_23">
      <g>
       <use style="stroke:#000000;stroke-width:0.8;" x="286.941176" xlink:href="#m2e695c2a47" y="63.72"/>
      </g>
     </g>
     <g id="text_20">
      <!-- 0.8 -->
      <g transform="translate(264.038051 67.519219)scale(0.1 -0.1)">
       <use xlink:href="#DejaVuSans-48"/>
       <use x="63.623047" xlink:href="#DejaVuSans-46"/>
       <use x="95.410156" xlink:href="#DejaVuSans-56"/>
      </g>
     </g>
    </g>
    <g id="ytick_12">
     <g id="line2d_24">
      <g>
       <use style="stroke:#000000;stroke-width:0.8;" x="286.941176" xlink:href="#m2e695c2a47" y="33.48"/>
      </g>
     </g>
     <g id="text_21">
      <!-- 1.0 -->
      <g transform="translate(264.038051 37.279219)scale(0.1 -0.1)">
       <use xlink:href="#DejaVuSans-49"/>
       <use x="63.623047" xlink:href="#DejaVuSans-46"/>
       <use x="95.410156" xlink:href="#DejaVuSans-48"/>
      </g>
     </g>
    </g>
   </g>
   <g id="line2d_25">
    <path clip-path="url(#pa3dd80b1c3)" d="M 294.40107 173.661453 
L 295.305299 173.640064 
L 296.209528 175.800968 
L 297.113758 173.811213 
L 298.017987 172.142405 
L 298.922217 175.480045 
L 299.826446 169.339627 
L 300.730676 172.099594 
L 301.634905 170.537762 
L 302.539135 171.650307 
L 303.443364 175.244701 
L 304.347594 167.499626 
L 305.251823 170.345187 
L 306.156053 171.222389 
L 307.060282 169.853116 
L 307.964511 173.768427 
L 308.868741 173.982376 
L 309.77297 172.099616 
L 310.6772 174.324705 
L 311.581429 179.801881 
L 312.485659 175.030752 
L 313.389888 178.304228 
L 314.294118 173.725627 
L 315.198347 175.480055 
L 316.102577 177.940499 
L 317.006806 179.117224 
L 317.911035 178.539562 
L 318.815265 171.928425 
L 319.719494 177.277247 
L 320.623724 176.870749 
L 321.527953 175.308891 
L 322.432183 177.127478 
L 323.336412 172.334964 
L 324.240642 173.105186 
L 325.144871 171.09403 
L 326.049101 172.591698 
L 326.95333 175.972128 
L 327.85756 178.582351 
L 328.761789 176.63539 
L 329.666018 173.704243 
L 330.570248 171.414958 
L 331.474477 175.651204 
L 332.378707 177.598181 
L 333.282936 181.149786 
L 334.187166 178.432582 
L 335.091395 181.556299 
L 335.995625 183.096762 
L 336.899854 177.448396 
L 337.804084 181.556288 
L 338.708313 181.04279 
L 339.612543 178.839095 
L 340.516772 184.68 
L 341.421001 181.599073 
L 342.325231 180.572129 
L 343.22946 182.861403 
L 344.13369 178.347018 
L 345.037919 183.738599 
L 345.942149 179.245598 
L 346.846378 178.753521 
L 347.750608 180.486518 
L 348.654837 179.994425 
L 349.559067 180.978626 
L 350.463296 178.197227 
L 351.367526 176.571205 
L 352.271755 172.249374 
L 354.080214 174.025172 
L 354.984443 173.832618 
L 355.888673 172.292154 
L 356.792902 174.025176 
L 357.697132 173.725643 
L 358.601361 171.521927 
L 359.505591 171.222393 
L 360.40982 165.488484 
L 361.31405 164.632667 
L 362.218279 157.22994 
L 363.122509 162.15083 
L 364.026738 158.428075 
L 364.930967 155.454134 
L 365.835197 155.710883 
L 366.739426 148.885796 
L 367.643656 146.789067 
L 368.547885 146.63927 
L 369.452115 137.589129 
L 370.356344 133.181706 
L 371.260574 131.320331 
L 372.164803 126.035685 
L 373.069033 119.638508 
L 373.973262 118.911113 
L 374.877491 111.187423 
L 375.781721 110.909269 
L 376.68595 104.854412 
L 377.59018 100.190263 
L 378.494409 93.900074 
L 379.398639 92.381019 
L 380.302868 83.181108 
L 381.207098 78.19597 
L 382.111327 82.196919 
L 383.015557 80.035978 
L 384.824016 68.739283 
L 386.632474 59.047296 
L 387.536704 56.094739 
L 388.440933 51.751488 
L 389.345163 48.649183 
L 390.249392 43.214777 
L 391.153622 42.915292 
L 392.057851 39.449218 
L 392.962081 39.213918 
L 393.86631 38.144104 
L 394.77054 38.443698 
L 395.674769 39.064108 
L 396.578999 44.519909 
L 398.387457 37.395306 
L 399.291687 41.65295 
L 400.195916 36.518092 
L 401.100146 41.567352 
L 402.004375 44.412997 
L 402.908605 43.236172 
L 403.812834 42.658489 
L 404.717064 47.921762 
L 405.621293 46.124508 
L 406.525523 46.766395 
L 407.429752 42.936705 
L 408.333982 51.323551 
L 410.14244 45.354351 
L 411.04667 44.519873 
L 411.950899 41.995234 
L 413.759358 46.552445 
L 414.663588 44.220361 
L 416.472047 48.221265 
L 417.376276 47.51522 
L 418.280506 38.251107 
L 419.184735 42.316196 
L 420.088965 39.89855 
L 420.993194 44.327354 
L 422.801653 48.777535 
L 423.705882 45.611046 
L 424.610112 40.176703 
L 425.514341 42.872439 
L 426.418571 43.129242 
L 427.3228 41.738575 
L 428.22703 43.813838 
L 429.131259 45.29013 
L 430.035489 45.290193 
L 430.939718 40.925511 
L 431.843947 42.209202 
L 432.748177 41.203682 
L 433.652406 33.48 
L 434.556636 38.850203 
L 435.460865 38.122691 
L 436.365095 34.357133 
L 437.269324 41.866882 
L 438.173554 37.673423 
L 439.077783 38.251125 
L 439.982013 40.305037 
L 440.886242 41.267822 
L 441.790472 41.460395 
L 442.694701 42.722764 
L 443.59893 35.49114 
L 443.59893 35.49114 
" style="fill:none;stroke:#ff0000;stroke-linecap:square;stroke-width:1.5;"/>
   </g>
   <g id="line2d_26">
    <path clip-path="url(#pa3dd80b1c3)" d="M 294.40107 181.05651 
L 295.305299 180.223867 
L 296.209528 177.278823 
L 297.113758 177.433016 
L 298.017987 178.990336 
L 299.826446 177.525514 
L 300.730676 178.065187 
L 301.634905 180.470577 
L 302.539135 177.78765 
L 303.443364 180.640192 
L 304.347594 178.974921 
L 305.251823 180.763539 
L 306.156053 174.380013 
L 307.060282 177.725964 
L 307.964511 179.329559 
L 308.868741 178.89783 
L 309.77297 180.162195 
L 310.6772 177.849326 
L 311.581429 179.052027 
L 312.485659 178.620282 
L 313.389888 177.926413 
L 314.294118 178.157715 
L 315.198347 180.177606 
L 316.102577 176.739143 
L 317.006806 179.252457 
L 317.911035 181.164438 
L 318.815265 177.60262 
L 319.719494 177.756813 
L 320.623724 179.90007 
L 321.527953 177.556363 
L 322.432183 180.717286 
L 323.336412 179.082857 
L 324.240642 179.082853 
L 325.144871 179.653371 
L 326.049101 179.591688 
L 326.95333 178.481512 
L 327.85756 184.68 
L 328.761789 180.933147 
L 329.666018 177.756813 
L 330.570248 178.173134 
L 331.474477 182.305452 
L 332.378707 180.578516 
L 333.282936 180.933158 
L 334.187166 182.983898 
L 335.091395 177.803077 
L 335.995625 180.979411 
L 336.899854 182.397973 
L 337.804084 180.593928 
L 339.612543 181.99707 
L 340.516772 180.794381 
L 341.421001 180.347225 
L 342.325231 179.761288 
L 343.22946 178.281063 
L 344.13369 178.003519 
L 345.037919 172.868935 
L 345.942149 175.706069 
L 346.846378 177.695133 
L 347.750608 172.807267 
L 348.654837 173.48571 
L 349.559067 171.866703 
L 351.367526 171.450381 
L 352.271755 169.230033 
L 353.175984 167.811472 
L 354.080214 172.529723 
L 354.984443 164.789316 
L 355.888673 163.509535 
L 356.792902 164.635123 
L 357.697132 164.604293 
L 358.601361 158.991726 
L 359.505591 156.185448 
L 360.40982 152.330648 
L 361.31405 152.746975 
L 363.122509 148.722596 
L 364.026738 144.559425 
L 364.930967 142.416129 
L 365.835197 139.178132 
L 366.739426 131.792368 
L 367.643656 128.323059 
L 368.547885 121.245684 
L 369.452115 120.736832 
L 371.260574 111.978777 
L 372.164803 104.993921 
L 373.069033 100.815315 
L 373.973262 95.326123 
L 374.877491 94.154255 
L 375.781721 89.898566 
L 376.68595 87.863255 
L 377.59018 78.827628 
L 378.494409 77.085295 
L 379.398639 71.981547 
L 380.302868 68.743519 
L 381.207098 67.324968 
L 382.111327 62.082468 
L 383.015557 60.818072 
L 383.919786 56.562419 
L 384.824016 51.458662 
L 385.728245 49.91677 
L 386.632474 47.172161 
L 389.345163 40.68073 
L 390.249392 44.782201 
L 391.153622 35.715743 
L 392.057851 40.295259 
L 392.962081 41.929634 
L 393.86631 39.770955 
L 394.77054 39.416333 
L 395.674769 39.925145 
L 396.578999 41.328339 
L 397.483228 37.288502 
L 398.387457 43.517822 
L 399.291687 40.958261 
L 400.195916 45.105983 
L 401.100146 42.839373 
L 402.004375 44.766736 
L 402.908605 39.200454 
L 403.812834 41.31291 
L 404.717064 42.068432 
L 405.621293 44.8593 
L 406.525523 42.299748 
L 407.429752 48.128169 
L 408.333982 45.707342 
L 409.238211 45.892399 
L 410.14244 50.055541 
L 411.04667 44.13461 
L 411.950899 48.035604 
L 412.855129 44.288773 
L 413.759358 44.35047 
L 414.663588 45.306451 
L 415.567817 41.343759 
L 416.472047 42.14554 
L 417.376276 44.473794 
L 418.280506 39.740133 
L 419.184735 43.795363 
L 420.993194 35.530731 
L 421.897423 36.45589 
L 422.801653 36.903067 
L 423.705882 37.51981 
L 424.610112 33.48 
L 425.514341 36.903067 
L 426.418571 39.154212 
L 427.3228 38.491183 
L 428.22703 33.973419 
L 429.131259 40.187292 
L 430.035489 37.997782 
L 430.939718 33.94257 
L 431.843947 35.792852 
L 432.748177 35.839102 
L 433.652406 34.651832 
L 434.556636 36.57924 
L 435.460865 37.134339 
L 436.365095 36.856772 
L 437.269324 34.682663 
L 438.173554 36.471283 
L 439.077783 36.116661 
L 439.982013 36.070401 
L 440.886242 35.839102 
L 441.790472 38.938379 
L 442.694701 35.60784 
L 443.59893 37.319324 
L 443.59893 37.319324 
" style="fill:none;stroke:#0000ff;stroke-linecap:square;stroke-width:1.5;"/>
   </g>
   <g id="line2d_27">
    <path clip-path="url(#pa3dd80b1c3)" d="M 294.40107 39.113558 
L 295.305299 38.47689 
L 296.209528 36.4704 
L 297.113758 37.49298 
L 298.017987 33.48 
L 298.922217 39.480157 
L 299.826446 34.888412 
L 300.730676 43.222978 
L 301.634905 41.968964 
L 302.539135 40.155425 
L 303.443364 44.554237 
L 304.347594 41.216524 
L 305.251823 38.399763 
L 306.156053 43.319499 
L 307.060282 41.602401 
L 307.964511 43.840388 
L 308.868741 36.682682 
L 309.77297 47.216718 
L 311.581429 37.64736 
L 312.485659 43.242328 
L 313.389888 40.830675 
L 314.294118 44.091171 
L 316.102577 41.81462 
L 317.006806 44.438466 
L 317.911035 43.37734 
L 319.719494 49.609048 
L 320.623724 41.911123 
L 321.527953 46.348471 
L 322.432183 47.872636 
L 323.336412 46.888691 
L 324.240642 46.406366 
L 325.144871 49.223172 
L 326.95333 51.557644 
L 327.85756 49.146018 
L 328.761789 51.422605 
L 329.666018 48.026943 
L 330.570248 45.692535 
L 331.474477 49.319603 
L 332.378707 50.419328 
L 333.282936 44.129779 
L 334.187166 48.335648 
L 335.091395 46.522101 
L 335.995625 51.57693 
L 336.899854 48.123446 
L 337.804084 52.271457 
L 338.708313 43.454511 
L 339.612543 48.837277 
L 340.516772 45.460983 
L 341.421001 41.177979 
L 342.325231 44.74717 
L 343.22946 45.133038 
L 344.13369 47.891949 
L 345.037919 42.952882 
L 345.942149 43.743921 
L 346.846378 47.023757 
L 348.654837 45.094402 
L 349.559067 43.840406 
L 350.463296 41.602364 
L 351.367526 46.116956 
L 352.271755 40.464085 
L 353.175984 43.242292 
L 354.080214 44.669954 
L 354.984443 47.428919 
L 355.888673 54.162185 
L 356.792902 47.930495 
L 358.601361 49.551108 
L 359.505591 51.538331 
L 360.40982 52.811649 
L 361.31405 57.306937 
L 362.218279 55.358323 
L 363.122509 58.001491 
L 364.930967 65.73806 
L 365.835197 65.69947 
L 366.739426 70.73495 
L 367.643656 72.06619 
L 368.547885 78.953853 
L 369.452115 77.584031 
L 370.356344 88.619678 
L 371.260574 79.744838 
L 372.164803 95.256477 
L 373.069033 95.565163 
L 373.973262 100.581384 
L 374.877491 103.513934 
L 375.781721 107.063867 
L 376.68595 115.572117 
L 377.59018 115.66861 
L 378.494409 128.266999 
L 379.398639 123.90675 
L 380.302868 130.292753 
L 381.207098 133.707646 
L 382.111327 133.437536 
L 383.015557 142.717507 
L 383.919786 147.830174 
L 384.824016 143.932999 
L 385.728245 146.672606 
L 387.536704 154.910776 
L 388.440933 156.859349 
L 389.345163 162.859515 
L 390.249392 161.972027 
L 391.153622 164.055687 
L 392.962081 166.100762 
L 393.86631 160.004141 
L 394.77054 170.904736 
L 395.674769 162.685879 
L 396.578999 169.727865 
L 397.483228 167.81784 
L 398.387457 162.840213 
L 399.291687 170.03654 
L 400.195916 171.541399 
L 401.100146 167.4127 
L 402.004375 167.644195 
L 402.908605 164.808106 
L 403.812834 169.68927 
L 404.717064 169.361284 
L 405.621293 170.653929 
L 406.525523 166.814595 
L 407.429752 167.702074 
L 408.333982 173.104134 
L 409.238211 174.338915 
L 410.14244 172.486764 
L 411.04667 174.78265 
L 411.950899 176.692666 
L 412.855129 166.29369 
L 413.759358 177.502974 
L 414.663588 167.682781 
L 415.567817 174.879115 
L 416.472047 166.505901 
L 417.376276 170.73111 
L 418.280506 175.592962 
L 419.184735 173.817986 
L 420.088965 177.560852 
L 420.993194 176.191044 
L 421.897423 179.644512 
L 422.801653 178.062483 
L 423.705882 184.68 
L 424.610112 181.168658 
L 425.514341 182.634949 
L 426.418571 180.7635 
L 427.3228 184.004742 
L 428.22703 176.461143 
L 429.131259 173.104153 
L 430.035489 180.589878 
L 430.939718 175.149213 
L 431.843947 173.08486 
L 432.748177 180.898559 
L 433.652406 183.618891 
L 434.556636 176.711959 
L 435.460865 174.338902 
L 436.365095 175.882359 
L 437.269324 178.062479 
L 438.173554 178.602668 
L 439.077783 178.544789 
L 439.982013 174.917705 
L 440.886242 175.342142 
L 442.694701 181.689578 
L 443.59893 181.014311 
L 443.59893 181.014311 
" style="fill:none;stroke:#800080;stroke-linecap:square;stroke-width:1.5;"/>
   </g>
   <g id="line2d_28">
    <path clip-path="url(#pa3dd80b1c3)" d="M 294.40107 167.899644 
L 295.305299 180.794013 
L 296.209528 169.886785 
L 297.113758 161.960235 
L 298.017987 176.400207 
L 298.922217 163.262936 
L 299.826446 169.643882 
L 300.730676 166.817757 
L 301.634905 171.25571 
L 302.539135 167.060605 
L 303.443364 166.287815 
L 304.347594 167.369723 
L 305.251823 164.830594 
L 306.156053 165.029284 
L 307.060282 171.189441 
L 307.964511 167.413892 
L 308.868741 168.871103 
L 309.77297 162.887611 
L 310.6772 159.200316 
L 312.485659 164.543546 
L 313.389888 166.928141 
L 314.294118 159.156156 
L 315.198347 171.785598 
L 316.102577 162.313534 
L 317.006806 162.203128 
L 317.911035 169.71013 
L 318.815265 174.788421 
L 319.719494 154.872724 
L 320.623724 170.394625 
L 321.527953 166.773599 
L 322.432183 162.534345 
L 323.336412 168.010028 
L 324.240642 163.748708 
L 325.144871 164.852663 
L 326.049101 163.682448 
L 326.95333 172.249271 
L 327.85756 166.133262 
L 328.761789 162.158979 
L 329.666018 165.868323 
L 330.570248 159.399038 
L 331.474477 158.714542 
L 332.378707 154.364937 
L 333.282936 160.017274 
L 334.187166 171.211553 
L 335.091395 163.505815 
L 335.995625 167.126854 
L 336.899854 153.680474 
L 337.804084 159.730235 
L 338.708313 160.834201 
L 339.612543 159.884799 
L 340.516772 167.413871 
L 341.421001 165.205951 
L 342.325231 171.675192 
L 343.22946 164.035725 
L 344.13369 175.870308 
L 345.037919 172.933733 
L 345.942149 184.68 
L 346.846378 164.1903 
L 347.750608 165.779995 
L 348.654837 168.584096 
L 349.559067 175.119597 
L 350.463296 179.645889 
L 351.367526 172.712921 
L 352.271755 169.268559 
L 353.175984 168.407431 
L 354.080214 162.423918 
L 354.984443 160.591341 
L 355.888673 172.845438 
L 356.792902 166.950221 
L 357.697132 167.723 
L 358.601361 171.344016 
L 359.505591 179.579673 
L 360.40982 165.117602 
L 361.31405 177.305471 
L 362.218279 166.906051 
L 363.122509 181.346023 
L 364.026738 173.81692 
L 364.930967 169.599746 
L 365.835197 176.422275 
L 366.739426 176.510624 
L 367.643656 173.79483 
L 368.547885 167.568425 
L 369.452115 170.527079 
L 370.356344 175.627416 
L 371.260574 172.271361 
L 372.164803 167.722979 
L 373.069033 172.889597 
L 373.973262 171.454412 
L 374.877491 166.089136 
L 375.781721 166.3982 
L 376.68595 168.186651 
L 377.59018 166.089103 
L 378.494409 175.605348 
L 380.302868 156.109198 
L 381.207098 161.319921 
L 382.111327 155.82217 
L 383.015557 158.648338 
L 383.919786 154.144115 
L 384.824016 155.358507 
L 385.728245 146.040953 
L 386.632474 145.290244 
L 387.536704 144.826615 
L 388.440933 137.297511 
L 389.345163 134.073907 
L 390.249392 132.99203 
L 391.153622 128.156653 
L 392.057851 124.579774 
L 393.86631 108.550081 
L 394.77054 105.127771 
L 395.674769 97.731188 
L 396.578999 96.892177 
L 397.483228 100.204024 
L 398.387457 94.441312 
L 399.291687 91.328139 
L 400.195916 90.356631 
L 401.100146 83.799031 
L 402.004375 81.83397 
L 402.908605 76.137453 
L 403.812834 73.245025 
L 404.717064 67.438135 
L 405.621293 72.273588 
L 406.525523 63.287222 
L 407.429752 63.088467 
L 408.333982 67.54857 
L 409.238211 59.953214 
L 410.14244 64.612028 
L 411.04667 58.628462 
L 411.950899 66.930341 
L 412.855129 53.726841 
L 413.759358 52.644941 
L 414.663588 46.153582 
L 415.567817 52.2696 
L 416.472047 49.355138 
L 417.376276 56.773774 
L 418.280506 55.978932 
L 419.184735 51.563069 
L 420.088965 46.308114 
L 420.993194 53.373507 
L 421.897423 45.535298 
L 422.801653 43.018284 
L 423.705882 52.777421 
L 424.610112 47.897852 
L 425.514341 51.805939 
L 426.418571 41.296156 
L 427.3228 39.794693 
L 428.22703 39.132313 
L 429.131259 35.158013 
L 430.035489 42.929982 
L 430.939718 46.771811 
L 431.843947 48.582304 
L 432.748177 40.766192 
L 433.652406 34.076068 
L 434.556636 37.851766 
L 435.460865 45.424971 
L 436.365095 36.725671 
L 437.269324 43.150754 
L 438.173554 44.630102 
L 439.077783 42.665041 
L 439.982013 50.19414 
L 440.886242 43.41575 
L 441.790472 33.48 
L 442.694701 35.974899 
L 443.59893 42.930009 
L 443.59893 42.930009 
" style="fill:none;stroke:#000000;stroke-linecap:square;stroke-width:1.5;"/>
   </g>
   <g id="patch_8">
    <path d="M 286.941176 192.24 
L 286.941176 25.92 
" style="fill:none;stroke:#000000;stroke-linecap:square;stroke-linejoin:miter;stroke-width:0.8;"/>
   </g>
   <g id="patch_9">
    <path d="M 451.058824 192.24 
L 451.058824 25.92 
" style="fill:none;stroke:#000000;stroke-linecap:square;stroke-linejoin:miter;stroke-width:0.8;"/>
   </g>
   <g id="patch_10">
    <path d="M 286.941176 192.24 
L 451.058824 192.24 
" style="fill:none;stroke:#000000;stroke-linecap:square;stroke-linejoin:miter;stroke-width:0.8;"/>
   </g>
   <g id="patch_11">
    <path d="M 286.941176 25.92 
L 451.058824 25.92 
" style="fill:none;stroke:#000000;stroke-linecap:square;stroke-linejoin:miter;stroke-width:0.8;"/>
   </g>
   <g id="text_22">
    <!-- FC -->
    <defs>
     <path d="M 9.8125 72.90625 
L 51.703125 72.90625 
L 51.703125 64.59375 
L 19.671875 64.59375 
L 19.671875 43.109375 
L 48.578125 43.109375 
L 48.578125 34.8125 
L 19.671875 34.8125 
L 19.671875 0 
L 9.8125 0 
z
" id="DejaVuSans-70"/>
     <path d="M 64.40625 67.28125 
L 64.40625 56.890625 
Q 59.421875 61.53125 53.78125 63.8125 
Q 48.140625 66.109375 41.796875 66.109375 
Q 29.296875 66.109375 22.65625 58.46875 
Q 16.015625 50.828125 16.015625 36.375 
Q 16.015625 21.96875 22.65625 14.328125 
Q 29.296875 6.6875 41.796875 6.6875 
Q 48.140625 6.6875 53.78125 8.984375 
Q 59.421875 11.28125 64.40625 15.921875 
L 64.40625 5.609375 
Q 59.234375 2.09375 53.4375 0.328125 
Q 47.65625 -1.421875 41.21875 -1.421875 
Q 24.65625 -1.421875 15.125 8.703125 
Q 5.609375 18.84375 5.609375 36.375 
Q 5.609375 53.953125 15.125 64.078125 
Q 24.65625 74.21875 41.21875 74.21875 
Q 47.75 74.21875 53.53125 72.484375 
Q 59.328125 70.75 64.40625 67.28125 
z
" id="DejaVuSans-67"/>
    </defs>
    <g transform="translate(361.359375 19.92)scale(0.12 -0.12)">
     <use xlink:href="#DejaVuSans-70"/>
     <use x="57.519531" xlink:href="#DejaVuSans-67"/>
    </g>
   </g>
  </g>
  <g id="axes_3">
   <g id="patch_12">
    <path d="M 483.882353 192.24 
L 648 192.24 
L 648 25.92 
L 483.882353 25.92 
z
" style="fill:#ffffff;"/>
   </g>
   <g id="matplotlib.axis_5">
    <g id="xtick_9">
     <g id="line2d_29">
      <g>
       <use style="stroke:#000000;stroke-width:0.8;" x="498.900111" xlink:href="#md679151e7f" y="192.24"/>
      </g>
     </g>
     <g id="text_23">
      <!-- −10 -->
      <g transform="translate(488.347768 206.838437)scale(0.1 -0.1)">
       <use xlink:href="#DejaVuSans-8722"/>
       <use x="83.789062" xlink:href="#DejaVuSans-49"/>
       <use x="147.412109" xlink:href="#DejaVuSans-48"/>
      </g>
     </g>
    </g>
    <g id="xtick_10">
     <g id="line2d_30">
      <g>
       <use style="stroke:#000000;stroke-width:0.8;" x="535.289834" xlink:href="#md679151e7f" y="192.24"/>
      </g>
     </g>
     <g id="text_24">
      <!-- −5 -->
      <g transform="translate(527.91874 206.838437)scale(0.1 -0.1)">
       <use xlink:href="#DejaVuSans-8722"/>
       <use x="83.789062" xlink:href="#DejaVuSans-53"/>
      </g>
     </g>
    </g>
    <g id="xtick_11">
     <g id="line2d_31">
      <g>
       <use style="stroke:#000000;stroke-width:0.8;" x="571.679556" xlink:href="#md679151e7f" y="192.24"/>
      </g>
     </g>
     <g id="text_25">
      <!-- 0 -->
      <g transform="translate(568.498306 206.838437)scale(0.1 -0.1)">
       <use xlink:href="#DejaVuSans-48"/>
      </g>
     </g>
    </g>
    <g id="xtick_12">
     <g id="line2d_32">
      <g>
       <use style="stroke:#000000;stroke-width:0.8;" x="608.069278" xlink:href="#md679151e7f" y="192.24"/>
      </g>
     </g>
     <g id="text_26">
      <!-- 5 -->
      <g transform="translate(604.888028 206.838437)scale(0.1 -0.1)">
       <use xlink:href="#DejaVuSans-53"/>
      </g>
     </g>
    </g>
    <g id="xtick_13">
     <g id="line2d_33">
      <g>
       <use style="stroke:#000000;stroke-width:0.8;" x="644.459" xlink:href="#md679151e7f" y="192.24"/>
      </g>
     </g>
     <g id="text_27">
      <!-- 10 -->
      <g transform="translate(638.0965 206.838437)scale(0.1 -0.1)">
       <use xlink:href="#DejaVuSans-49"/>
       <use x="63.623047" xlink:href="#DejaVuSans-48"/>
      </g>
     </g>
    </g>
   </g>
   <g id="matplotlib.axis_6">
    <g id="ytick_13">
     <g id="line2d_34">
      <g>
       <use style="stroke:#000000;stroke-width:0.8;" x="483.882353" xlink:href="#m2e695c2a47" y="184.68"/>
      </g>
     </g>
     <g id="text_28">
      <!-- 0.0 -->
      <g transform="translate(460.979228 188.479219)scale(0.1 -0.1)">
       <use xlink:href="#DejaVuSans-48"/>
       <use x="63.623047" xlink:href="#DejaVuSans-46"/>
       <use x="95.410156" xlink:href="#DejaVuSans-48"/>
      </g>
     </g>
    </g>
    <g id="ytick_14">
     <g id="line2d_35">
      <g>
       <use style="stroke:#000000;stroke-width:0.8;" x="483.882353" xlink:href="#m2e695c2a47" y="154.44"/>
      </g>
     </g>
     <g id="text_29">
      <!-- 0.2 -->
      <g transform="translate(460.979228 158.239219)scale(0.1 -0.1)">
       <use xlink:href="#DejaVuSans-48"/>
       <use x="63.623047" xlink:href="#DejaVuSans-46"/>
       <use x="95.410156" xlink:href="#DejaVuSans-50"/>
      </g>
     </g>
    </g>
    <g id="ytick_15">
     <g id="line2d_36">
      <g>
       <use style="stroke:#000000;stroke-width:0.8;" x="483.882353" xlink:href="#m2e695c2a47" y="124.2"/>
      </g>
     </g>
     <g id="text_30">
      <!-- 0.4 -->
      <g transform="translate(460.979228 127.999219)scale(0.1 -0.1)">
       <use xlink:href="#DejaVuSans-48"/>
       <use x="63.623047" xlink:href="#DejaVuSans-46"/>
       <use x="95.410156" xlink:href="#DejaVuSans-52"/>
      </g>
     </g>
    </g>
    <g id="ytick_16">
     <g id="line2d_37">
      <g>
       <use style="stroke:#000000;stroke-width:0.8;" x="483.882353" xlink:href="#m2e695c2a47" y="93.96"/>
      </g>
     </g>
     <g id="text_31">
      <!-- 0.6 -->
      <g transform="translate(460.979228 97.759219)scale(0.1 -0.1)">
       <use xlink:href="#DejaVuSans-48"/>
       <use x="63.623047" xlink:href="#DejaVuSans-46"/>
       <use x="95.410156" xlink:href="#DejaVuSans-54"/>
      </g>
     </g>
    </g>
    <g id="ytick_17">
     <g id="line2d_38">
      <g>
       <use style="stroke:#000000;stroke-width:0.8;" x="483.882353" xlink:href="#m2e695c2a47" y="63.72"/>
      </g>
     </g>
     <g id="text_32">
      <!-- 0.8 -->
      <g transform="translate(460.979228 67.519219)scale(0.1 -0.1)">
       <use xlink:href="#DejaVuSans-48"/>
       <use x="63.623047" xlink:href="#DejaVuSans-46"/>
       <use x="95.410156" xlink:href="#DejaVuSans-56"/>
      </g>
     </g>
    </g>
    <g id="ytick_18">
     <g id="line2d_39">
      <g>
       <use style="stroke:#000000;stroke-width:0.8;" x="483.882353" xlink:href="#m2e695c2a47" y="33.48"/>
      </g>
     </g>
     <g id="text_33">
      <!-- 1.0 -->
      <g transform="translate(460.979228 37.279219)scale(0.1 -0.1)">
       <use xlink:href="#DejaVuSans-49"/>
       <use x="63.623047" xlink:href="#DejaVuSans-46"/>
       <use x="95.410156" xlink:href="#DejaVuSans-48"/>
      </g>
     </g>
    </g>
   </g>
   <g id="line2d_40">
    <path clip-path="url(#p1332194c19)" d="M 491.342246 179.95262 
L 492.017349 178.923277 
L 492.692453 182.926306 
L 493.367556 174.882125 
L 494.04266 184.68 
L 494.717763 184.641881 
L 495.392867 179.342635 
L 496.06797 175.72085 
L 496.743074 175.034636 
L 497.418177 172.251559 
L 498.09328 174.462757 
L 498.768384 172.327824 
L 499.443487 173.890905 
L 500.118591 179.457006 
L 500.793694 174.195893 
L 501.468798 172.785296 
L 502.143901 174.805878 
L 502.819005 175.148989 
L 503.494108 162.606181 
L 504.169211 165.427356 
L 504.844315 162.60619 
L 505.519418 168.93477 
L 506.194522 165.236739 
L 506.869625 151.77894 
L 507.544729 163.673657 
L 508.219832 162.911169 
L 508.894936 154.638255 
L 509.570039 158.221909 
L 510.245142 154.714494 
L 510.920246 160.623725 
L 511.595349 151.168955 
L 512.270453 151.550199 
L 512.945556 149.643999 
L 513.62066 146.594065 
L 514.295763 154.752636 
L 514.970867 143.734775 
L 515.64597 146.09846 
L 516.321073 144.611646 
L 516.996177 152.998909 
L 517.67128 138.168646 
L 518.346384 143.010413 
L 519.021487 140.532349 
L 519.696591 141.98106 
L 520.371694 145.259733 
L 521.046797 149.643988 
L 522.397004 128.065787 
L 523.072108 140.151105 
L 523.747211 139.579253 
L 525.097418 134.508747 
L 525.772522 136.109962 
L 526.447625 135.385609 
L 527.122728 138.664291 
L 527.797832 130.925104 
L 528.472935 130.200724 
L 529.148039 130.620099 
L 529.823142 141.523577 
L 530.498246 136.376827 
L 531.173349 137.063076 
L 531.848453 140.18925 
L 532.523556 132.297548 
L 533.198659 139.236126 
L 533.873763 137.024946 
L 534.548866 145.945964 
L 535.22397 126.731442 
L 535.899073 136.33871 
L 536.574177 133.098154 
L 537.24928 140.837346 
L 537.924384 146.822835 
L 538.599487 136.796184 
L 539.27459 143.353522 
L 539.949694 145.488486 
L 540.624797 138.549922 
L 541.299901 142.362313 
L 541.975004 143.429797 
L 542.650108 145.526599 
L 543.325211 140.722976 
L 544.000315 145.717243 
L 544.675418 140.951738 
L 545.350521 141.90483 
L 546.025625 149.300877 
L 546.700728 139.159887 
L 548.050935 151.092727 
L 548.726039 145.259724 
L 549.401142 150.063356 
L 550.076246 148.271534 
L 550.751349 154.371383 
L 551.426452 154.523876 
L 552.101556 158.67941 
L 552.776659 155.476982 
L 553.451763 156.048843 
L 554.126866 157.154443 
L 554.80197 159.632504 
L 555.477073 165.808609 
L 556.152177 156.735084 
L 556.82728 164.474251 
L 557.502383 158.946273 
L 558.177487 150.558981 
L 558.85259 152.541437 
L 559.527694 150.978346 
L 560.202797 156.620705 
L 560.877901 154.333259 
L 561.553004 155.858235 
L 562.228108 147.928432 
L 562.903211 144.230402 
L 563.578314 145.679094 
L 564.253418 132.755049 
L 564.928521 131.801944 
L 565.603625 137.901812 
L 566.278728 131.382569 
L 566.953832 133.975029 
L 567.628935 131.573205 
L 568.304039 138.283047 
L 568.979142 127.837039 
L 569.654245 132.373823 
L 570.329349 121.699067 
L 571.004452 128.828266 
L 571.679556 125.358993 
L 572.354659 116.857323 
L 573.029763 123.910274 
L 573.704866 115.141729 
L 574.37997 112.854301 
L 575.055073 106.068196 
L 575.730176 111.558077 
L 576.40528 104.619509 
L 577.080383 112.549305 
L 577.755487 100.120842 
L 578.43059 107.745695 
L 579.105694 104.390733 
L 579.780797 105.115109 
L 580.455901 109.499379 
L 581.131004 104.962622 
L 581.806107 102.980158 
L 582.481211 102.637054 
L 583.156314 97.528413 
L 583.831418 98.634014 
L 584.506521 106.030093 
L 585.181625 103.132636 
L 585.856728 93.525409 
L 586.531831 89.29363 
L 587.206935 87.082454 
L 587.882038 99.739607 
L 588.557142 93.449184 
L 589.232245 93.792279 
L 589.907349 90.0561 
L 590.582452 81.135081 
L 591.257556 84.871251 
L 591.932659 82.011917 
L 592.607762 79.800741 
L 593.282866 74.653978 
L 593.957969 88.493038 
L 594.633073 79.266992 
L 595.308176 84.52812 
L 595.98328 69.659729 
L 596.658383 83.003171 
L 597.333487 81.440082 
L 598.00859 71.985297 
L 598.683693 76.865199 
L 599.358797 75.416484 
L 600.0339 80.906324 
L 600.709004 64.77989 
L 601.384107 80.220134 
L 602.059211 70.422235 
L 602.734314 73.090898 
L 603.409418 69.545382 
L 604.084521 76.026476 
L 604.759624 62.797453 
L 605.434728 63.369279 
L 606.109831 57.917533 
L 606.784935 74.196517 
L 608.135142 59.023116 
L 609.485349 70.00286 
L 610.160452 61.005589 
L 610.835555 65.961716 
L 611.510659 62.416173 
L 612.185762 60.319335 
L 612.860866 67.067318 
L 613.535969 65.161089 
L 614.211073 55.401366 
L 614.886176 63.941149 
L 615.56128 55.591965 
L 616.236383 67.982275 
L 616.911486 52.847022 
L 617.58659 55.744461 
L 618.261693 67.715378 
L 618.936797 59.823726 
L 619.6119 46.289711 
L 620.287004 60.586196 
L 620.962107 52.465769 
L 621.637211 55.744479 
L 622.312314 55.172608 
L 622.987417 52.961387 
L 623.662521 54.333832 
L 624.337624 61.806199 
L 625.012728 49.034636 
L 625.687831 50.826455 
L 626.362935 36.148717 
L 627.038038 51.817664 
L 627.713142 50.445238 
L 628.388245 53.533258 
L 629.063348 44.078509 
L 629.738452 48.767775 
L 630.413555 51.817682 
L 631.088659 49.720836 
L 631.763762 52.999509 
L 632.438866 42.401082 
L 633.113969 52.008318 
L 633.789073 39.084277 
L 634.464176 38.474285 
L 635.139279 41.981698 
L 635.814383 43.468534 
L 636.489486 41.066723 
L 637.16459 50.368977 
L 637.839693 45.527205 
L 638.514797 33.48 
L 639.1899 34.928688 
L 639.865004 45.412831 
L 640.540107 43.049124 
L 640.540107 43.049124 
" style="fill:none;stroke:#ff0000;stroke-linecap:square;stroke-width:1.5;"/>
   </g>
   <g id="line2d_41">
    <path clip-path="url(#p1332194c19)" d="M 491.342246 175.578856 
L 492.017349 175.276395 
L 492.692453 173.296697 
L 493.367556 174.561506 
L 494.04266 174.753974 
L 494.717763 175.468867 
L 495.392867 172.691783 
L 496.06797 177.806023 
L 496.743074 175.771328 
L 497.418177 178.96085 
L 498.09328 174.836461 
L 498.768384 177.283599 
L 499.443487 175.193908 
L 500.118591 177.80602 
L 500.793694 175.248907 
L 501.468798 177.146125 
L 502.143901 174.561503 
L 502.819005 170.189653 
L 503.494108 176.981142 
L 504.169211 177.393584 
L 504.844315 176.10128 
L 505.519418 179.20831 
L 506.194522 177.503566 
L 506.869625 181.682947 
L 508.219832 177.558557 
L 508.894936 180.143176 
L 509.570039 179.235812 
L 510.245142 175.743828 
L 510.920246 178.245958 
L 511.595349 178.548415 
L 512.270453 178.27345 
L 512.945556 176.981142 
L 513.62066 176.266253 
L 514.295763 176.211255 
L 514.970867 180.528117 
L 515.64597 178.053482 
L 516.321073 179.208313 
L 516.996177 177.998492 
L 517.67128 179.978197 
L 518.346384 181.572955 
L 519.021487 178.245961 
L 519.696591 183.800129 
L 520.371694 176.541211 
L 521.046797 179.373293 
L 521.721901 181.517964 
L 522.397004 182.177869 
L 523.072108 177.723534 
L 523.747211 177.998492 
L 524.422315 178.630901 
L 525.097418 177.723537 
L 525.772522 179.043334 
L 526.447625 176.843665 
L 527.122728 178.82337 
L 527.797832 179.675747 
L 528.472935 184.68 
L 529.148039 178.383432 
L 529.823142 176.788677 
L 530.498246 179.345787 
L 531.173349 176.513716 
L 531.848453 179.04334 
L 532.523556 178.713388 
L 533.198659 175.386384 
L 533.873763 177.448575 
L 534.548866 177.998492 
L 535.22397 180.913063 
L 535.899073 179.098328 
L 536.574177 180.6106 
L 537.24928 178.300942 
L 537.924384 176.871163 
L 538.599487 178.245961 
L 539.27459 178.300942 
L 539.949694 177.33859 
L 540.624797 179.593257 
L 541.299901 177.33859 
L 541.975004 177.971 
L 542.650108 179.318298 
L 543.325211 175.138915 
L 544.000315 177.146118 
L 544.675418 181.325492 
L 545.350521 181.957902 
L 546.025625 173.84661 
L 546.700728 176.981145 
L 547.375832 173.984097 
L 548.050935 176.046282 
L 548.726039 175.963796 
L 549.401142 176.073778 
L 550.751349 170.849552 
L 551.426452 171.674433 
L 552.101556 171.811918 
L 552.776659 170.244648 
L 553.451763 170.43712 
L 554.126866 167.550053 
L 554.80197 169.419763 
L 555.477073 160.951033 
L 556.152177 168.347436 
L 556.82728 159.796202 
L 557.502383 158.586386 
L 558.177487 153.774614 
L 558.85259 154.70946 
L 561.553004 134.444985 
L 562.228108 133.152673 
L 562.903211 129.798175 
L 563.578314 125.701282 
L 564.253418 123.364134 
L 564.928521 120.119603 
L 565.603625 119.982148 
L 566.278728 114.207995 
L 566.953832 113.465618 
L 567.628935 114.125515 
L 568.304039 105.739268 
L 568.979142 105.216848 
L 569.654245 100.570029 
L 570.329349 94.300947 
L 571.004452 92.183768 
L 571.679556 83.275097 
L 572.354659 85.639742 
L 573.029763 79.508168 
L 573.704866 79.453175 
L 574.37997 80.47052 
L 575.055073 73.734028 
L 575.730176 72.386728 
L 576.40528 71.314373 
L 577.080383 67.959897 
L 577.755487 69.747129 
L 578.43059 69.44467 
L 579.105694 65.870188 
L 579.780797 66.805062 
L 580.455901 62.955627 
L 581.131004 61.663301 
L 581.806107 61.690824 
L 582.481211 60.288522 
L 583.156314 56.136655 
L 583.831418 57.263967 
L 584.506521 56.054166 
L 585.181625 54.376928 
L 585.856728 56.549072 
L 586.531831 56.824053 
L 587.206935 56.411573 
L 587.882038 56.219126 
L 588.557142 52.12225 
L 589.232245 50.80242 
L 589.907349 51.764808 
L 590.582452 50.005063 
L 591.257556 50.280026 
L 592.607762 53.249589 
L 593.957969 49.400154 
L 594.633073 48.492776 
L 595.308176 50.857385 
L 595.98328 51.627326 
L 596.658383 50.472464 
L 597.333487 48.10781 
L 598.00859 49.345161 
L 598.683693 46.375607 
L 599.358797 46.458069 
L 600.0339 42.856091 
L 600.709004 46.705553 
L 601.384107 45.083281 
L 602.059211 44.615844 
L 602.734314 45.193248 
L 603.409418 42.031274 
L 604.084521 43.900977 
L 604.759624 40.903917 
L 605.434728 43.900959 
L 606.109831 48.712756 
L 607.460038 40.299026 
L 608.135142 43.296058 
L 608.810245 44.313412 
L 609.485349 39.116694 
L 610.160452 42.278705 
L 610.835555 37.026985 
L 611.510659 40.711407 
L 612.185762 40.876421 
L 612.860866 38.236795 
L 614.211073 40.40902 
L 614.886176 34.084954 
L 615.56128 37.851865 
L 616.236383 37.356941 
L 617.58659 40.711434 
L 618.261693 35.019774 
L 618.936797 40.573971 
L 619.6119 42.581182 
L 620.287004 35.927161 
L 620.962107 39.336656 
L 621.637211 42.113754 
L 622.312314 36.339569 
L 622.987417 36.229611 
L 623.662521 40.216528 
L 624.337624 33.48 
L 625.012728 36.999498 
L 625.687831 39.721586 
L 626.362935 44.698342 
L 627.038038 37.43943 
L 627.713142 37.659391 
L 628.388245 34.634835 
L 629.063348 39.859103 
L 629.738452 36.36711 
L 630.413555 37.494395 
L 631.088659 37.246938 
L 631.763762 37.521928 
L 632.438866 37.549424 
L 633.113969 41.041381 
L 633.789073 39.996549 
L 634.464176 40.106516 
L 635.139279 35.432237 
L 635.814383 37.43943 
L 636.489486 37.549424 
L 637.16459 36.092121 
L 637.839693 36.009641 
L 638.514797 37.549397 
L 639.1899 39.584104 
L 639.865004 34.249896 
L 640.540107 35.899674 
L 640.540107 35.899674 
" style="fill:none;stroke:#0000ff;stroke-linecap:square;stroke-width:1.5;"/>
   </g>
   <g id="line2d_42">
    <path clip-path="url(#p1332194c19)" d="M 491.342246 44.659166 
L 492.017349 47.805072 
L 492.692453 47.861227 
L 493.367556 43.704168 
L 494.04266 43.507557 
L 494.717763 44.153553 
L 495.392867 42.32783 
L 496.06797 39.519 
L 496.743074 41.513225 
L 497.418177 40.782937 
L 498.09328 40.473998 
L 498.768384 38.732512 
L 499.443487 39.856057 
L 500.118591 38.81675 
L 500.793694 39.181943 
L 501.468798 43.367084 
L 502.819005 35.839418 
L 503.494108 40.052677 
L 504.169211 38.367364 
L 504.844315 38.339282 
L 505.519418 33.48 
L 506.869625 37.356148 
L 507.544729 36.007919 
L 508.219832 41.597489 
L 508.894936 40.558262 
L 509.570039 36.541623 
L 510.245142 36.316885 
L 510.920246 39.4066 
L 511.595349 35.249541 
L 512.270453 40.361616 
L 512.945556 39.912176 
L 513.62066 38.788686 
L 514.970867 34.547317 
L 515.64597 37.833669 
L 516.321073 39.266153 
L 516.996177 38.985332 
L 517.67128 42.103102 
L 518.346384 39.687529 
L 519.021487 36.513532 
L 519.696591 43.310938 
L 520.371694 40.50208 
L 522.397004 41.344696 
L 523.072108 39.322362 
L 524.422315 38.198809 
L 525.772522 43.001945 
L 526.447625 39.884148 
L 527.122728 38.901041 
L 527.797832 35.081012 
L 528.472935 39.85603 
L 529.148039 43.563703 
L 529.823142 38.957241 
L 530.498246 40.221205 
L 531.173349 39.434709 
L 531.848453 39.940294 
L 532.523556 39.294298 
L 533.198659 38.311164 
L 533.873763 41.288523 
L 534.548866 38.957187 
L 535.22397 40.50208 
L 535.899073 38.788686 
L 536.574177 40.951493 
L 537.24928 37.833696 
L 537.924384 41.934573 
L 538.599487 38.507811 
L 539.27459 43.339002 
L 539.949694 42.018864 
L 540.624797 41.850309 
L 541.299901 42.52445 
L 541.975004 44.743457 
L 542.650108 45.361389 
L 543.325211 42.103102 
L 544.000315 41.316632 
L 544.675418 47.383723 
L 545.350521 44.883868 
L 546.025625 45.417536 
L 546.700728 46.232114 
L 547.375832 41.148103 
L 548.726039 47.046702 
L 549.401142 44.434428 
L 550.076246 46.597263 
L 550.751349 45.97933 
L 551.426452 43.844614 
L 552.101556 47.13093 
L 552.776659 46.7377 
L 553.451763 46.063595 
L 554.126866 48.81627 
L 554.80197 48.619623 
L 555.477073 47.861254 
L 556.152177 49.181382 
L 556.82728 51.681273 
L 558.177487 58.113513 
L 558.85259 58.282068 
L 559.527694 61.849322 
L 560.202797 66.343429 
L 560.877901 64.15254 
L 561.553004 67.017543 
L 562.228108 73.056552 
L 562.903211 75.163177 
L 564.253418 80.921329 
L 564.928521 79.32029 
L 565.603625 83.252665 
L 566.278728 90.415228 
L 566.953832 89.713014 
L 567.628935 89.909642 
L 568.304039 90.892723 
L 568.979142 92.49378 
L 569.654245 105.751507 
L 570.329349 104.852682 
L 571.004452 112.576999 
L 571.679556 110.329923 
L 572.354659 115.863333 
L 573.029763 117.773361 
L 573.704866 120.582196 
L 574.37997 120.188947 
L 575.055073 120.104701 
L 575.730176 126.284143 
L 576.40528 127.267241 
L 577.080383 128.587415 
L 577.755487 127.829018 
L 578.43059 128.896381 
L 579.105694 134.233175 
L 579.780797 138.474535 
L 580.455901 138.86776 
L 581.131004 135.440976 
L 581.806107 148.642556 
L 582.481211 141.929415 
L 583.156314 140.21602 
L 583.831418 143.277653 
L 584.506521 147.069588 
L 585.181625 148.895336 
L 585.856728 142.603534 
L 586.531831 151.676095 
L 587.206935 151.676095 
L 587.882038 154.962434 
L 588.557142 149.681819 
L 589.232245 153.754636 
L 589.907349 158.979093 
L 590.582452 153.754649 
L 591.257556 157.4904 
L 591.932659 163.894562 
L 592.607762 164.035008 
L 593.282866 158.922918 
L 593.957969 160.692481 
L 594.633073 165.664134 
L 595.308176 168.894309 
L 595.98328 165.720317 
L 596.658383 169.090925 
L 597.333487 166.619133 
L 598.00859 168.444887 
L 598.683693 170.720053 
L 599.358797 162.462047 
L 600.0339 163.304701 
L 600.709004 170.298729 
L 601.384107 174.989502 
L 602.059211 171.366087 
L 602.734314 171.394175 
L 603.409418 164.70912 
L 604.084521 176.506274 
L 604.759624 174.511995 
L 605.434728 173.107571 
L 606.109831 174.174932 
L 606.784935 176.309651 
L 607.460038 173.669338 
L 608.135142 178.30393 
L 608.810245 177.32083 
L 609.485349 177.489365 
L 610.160452 177.236569 
L 610.835555 177.18039 
L 611.510659 177.826421 
L 612.185762 176.422003 
L 612.860866 177.798336 
L 613.535969 182.769992 
L 614.211073 181.871158 
L 614.886176 177.236569 
L 615.56128 177.433189 
L 616.236383 181.562184 
L 616.911486 179.989235 
L 617.58659 183.781177 
L 618.261693 181.421744 
L 618.936797 177.039957 
L 619.6119 180.298206 
L 620.287004 182.79808 
L 620.962107 179.427471 
L 621.637211 178.079226 
L 622.312314 179.399384 
L 622.987417 177.096129 
L 623.662521 180.129678 
L 624.337624 180.888068 
L 625.012728 175.18611 
L 625.687831 178.16348 
L 626.362935 182.152049 
L 627.038038 183.387931 
L 627.713142 181.00042 
L 628.388245 177.545547 
L 629.063348 180.522914 
L 629.738452 180.382474 
L 630.413555 177.46128 
L 631.088659 180.438657 
L 631.763762 178.332019 
L 632.438866 180.522914 
L 633.113969 184.68 
L 633.789073 174.483907 
L 634.464176 180.185858 
L 635.139279 174.399633 
L 635.814383 176.141127 
L 636.489486 176.169208 
L 637.16459 181.168945 
L 637.839693 180.270112 
L 638.514797 180.607185 
L 639.1899 178.472455 
L 639.865004 182.264397 
L 640.540107 178.669081 
L 640.540107 178.669081 
" style="fill:none;stroke:#800080;stroke-linecap:square;stroke-width:1.5;"/>
   </g>
   <g id="line2d_43">
    <path clip-path="url(#p1332194c19)" d="M 491.342246 129.842475 
L 492.017349 134.798255 
L 492.692453 127.575126 
L 493.367556 128.514452 
L 494.04266 127.024475 
L 494.717763 132.595686 
L 495.392867 130.393108 
L 496.06797 120.319593 
L 497.418177 128.967915 
L 498.768384 119.509804 
L 499.443487 117.566373 
L 500.118591 116.367923 
L 500.793694 111.023445 
L 501.468798 108.950413 
L 502.143901 109.727821 
L 502.819005 111.898 
L 503.494108 108.885642 
L 504.169211 104.707234 
L 504.844315 107.751986 
L 505.519418 96.253255 
L 506.194522 99.071251 
L 506.869625 98.682554 
L 507.544729 101.306228 
L 508.219832 102.893353 
L 508.894936 99.913416 
L 509.570039 103.282059 
L 510.245142 98.358655 
L 510.920246 92.333984 
L 511.595349 99.006471 
L 512.270453 94.018296 
L 512.945556 102.990541 
L 513.62066 100.334494 
L 514.295763 89.937058 
L 514.970867 97.095421 
L 515.64597 99.071242 
L 516.321073 99.751449 
L 516.996177 96.965861 
L 517.67128 101.565348 
L 518.346384 104.318573 
L 519.021487 100.820361 
L 519.696591 94.115484 
L 520.371694 101.954054 
L 521.046797 93.629626 
L 521.721901 93.402879 
L 522.397004 104.998761 
L 523.072108 101.338618 
L 523.747211 105.452229 
L 524.422315 99.589499 
L 525.772522 98.553012 
L 526.447625 104.642472 
L 527.122728 100.464054 
L 527.797832 101.824476 
L 529.148039 106.456344 
L 529.823142 95.184361 
L 530.498246 105.840926 
L 531.173349 107.946317 
L 531.848453 104.350972 
L 532.523556 105.743765 
L 533.198659 114.06817 
L 533.873763 107.525229 
L 534.548866 106.683082 
L 535.22397 115.882056 
L 535.899073 115.137065 
L 536.574177 108.464582 
L 537.24928 111.314968 
L 537.924384 107.719578 
L 538.599487 119.995698 
L 539.27459 108.270234 
L 539.949694 113.711877 
L 540.624797 121.647625 
L 541.299901 114.003404 
L 541.975004 124.238869 
L 542.650108 106.067656 
L 543.325211 115.460982 
L 544.000315 115.882056 
L 544.675418 118.700047 
L 545.350521 118.959194 
L 546.025625 122.360194 
L 546.700728 128.417282 
L 547.375832 120.125258 
L 548.726039 124.530387 
L 549.401142 124.206483 
L 550.076246 122.101071 
L 550.751349 126.635791 
L 551.426452 125.081029 
L 552.776659 137.713425 
L 553.451763 137.778196 
L 554.126866 143.090302 
L 554.80197 138.620361 
L 555.477073 139.041439 
L 557.502383 150.054301 
L 558.177487 144.64505 
L 558.85259 150.18386 
L 559.527694 153.131429 
L 560.202797 150.054292 
L 560.877901 157.439396 
L 561.553004 162.492346 
L 562.228108 163.010598 
L 562.903211 164.694906 
L 563.578314 167.027045 
L 564.253418 172.241954 
L 564.928521 165.018816 
L 565.603625 162.783866 
L 566.953832 181.829614 
L 567.628935 176.031677 
L 568.304039 168.938101 
L 568.979142 176.258412 
L 569.654245 163.56124 
L 570.329349 181.538106 
L 571.004452 175.610599 
L 571.679556 174.412132 
L 572.354659 184.582829 
L 573.029763 182.023964 
L 573.704866 182.898509 
L 574.37997 176.355587 
L 575.055073 172.047609 
L 575.730176 184.68 
L 576.40528 181.991574 
L 577.080383 165.504688 
L 577.755487 176.906221 
L 578.43059 175.610607 
L 579.780797 180.857903 
L 580.455901 170.978726 
L 581.131004 169.78026 
L 581.806107 157.666127 
L 582.481211 172.88977 
L 583.156314 162.427566 
L 583.831418 158.281534 
L 584.506521 155.463551 
L 585.181625 157.536565 
L 585.856728 152.483599 
L 586.531831 149.568438 
L 587.206935 148.596707 
L 587.882038 140.207513 
L 588.557142 151.609056 
L 589.232245 136.547352 
L 589.907349 130.457897 
L 590.582452 128.060979 
L 591.257556 136.093888 
L 591.932659 139.980783 
L 593.282866 123.202369 
L 593.957969 126.959695 
L 594.633073 124.141695 
L 595.308176 124.14169 
L 595.98328 121.194153 
L 596.658383 112.83734 
L 597.333487 108.205436 
L 598.00859 114.327308 
L 598.683693 112.319074 
L 599.358797 105.743747 
L 600.0339 110.213683 
L 600.709004 113.387968 
L 601.384107 97.419338 
L 602.059211 101.371008 
L 602.734314 98.358655 
L 603.409418 102.860963 
L 604.084521 95.605448 
L 604.759624 102.666623 
L 605.434728 97.322168 
L 606.109831 89.613158 
L 606.784935 73.838849 
L 607.460038 89.61314 
L 608.135142 83.394139 
L 608.810245 81.12679 
L 609.485349 83.912378 
L 610.160452 82.973034 
L 610.835555 86.244525 
L 611.510659 79.377662 
L 612.185762 81.968946 
L 612.860866 82.843501 
L 613.535969 73.676918 
L 614.211073 72.640413 
L 614.886176 74.74583 
L 615.56128 84.463034 
L 616.911486 73.255795 
L 617.58659 77.304671 
L 618.261693 77.758157 
L 618.936797 71.247637 
L 619.6119 75.361212 
L 620.287004 64.704674 
L 620.962107 64.996192 
L 621.637211 66.097477 
L 622.312314 55.246581 
L 622.987417 61.886705 
L 623.662521 59.586939 
L 624.337624 64.348366 
L 625.012728 61.530389 
L 625.687831 61.757136 
L 626.362935 69.401339 
L 627.038038 61.886678 
L 627.713142 62.826013 
L 628.388245 51.52164 
L 629.063348 56.6718 
L 629.738452 51.13297 
L 630.413555 54.760723 
L 631.088659 56.574613 
L 631.763762 55.278971 
L 632.438866 51.975135 
L 633.789073 36.168454 
L 634.464176 49.12474 
L 635.139279 34.548913 
L 635.814383 42.484598 
L 636.489486 42.938093 
L 637.16459 42.290294 
L 638.514797 36.103629 
L 639.1899 45.14068 
L 640.540107 33.48 
L 640.540107 33.48 
" style="fill:none;stroke:#000000;stroke-linecap:square;stroke-width:1.5;"/>
   </g>
   <g id="patch_13">
    <path d="M 483.882353 192.24 
L 483.882353 25.92 
" style="fill:none;stroke:#000000;stroke-linecap:square;stroke-linejoin:miter;stroke-width:0.8;"/>
   </g>
   <g id="patch_14">
    <path d="M 648 192.24 
L 648 25.92 
" style="fill:none;stroke:#000000;stroke-linecap:square;stroke-linejoin:miter;stroke-width:0.8;"/>
   </g>
   <g id="patch_15">
    <path d="M 483.882353 192.24 
L 648 192.24 
" style="fill:none;stroke:#000000;stroke-linecap:square;stroke-linejoin:miter;stroke-width:0.8;"/>
   </g>
   <g id="patch_16">
    <path d="M 483.882353 25.92 
L 648 25.92 
" style="fill:none;stroke:#000000;stroke-linecap:square;stroke-linejoin:miter;stroke-width:0.8;"/>
   </g>
   <g id="text_34">
    <!-- VC -->
    <defs>
     <path d="M 28.609375 0 
L 0.78125 72.90625 
L 11.078125 72.90625 
L 34.1875 11.53125 
L 57.328125 72.90625 
L 67.578125 72.90625 
L 39.796875 0 
z
" id="DejaVuSans-86"/>
    </defs>
    <g transform="translate(557.647114 19.92)scale(0.12 -0.12)">
     <use xlink:href="#DejaVuSans-86"/>
     <use x="68.408203" xlink:href="#DejaVuSans-67"/>
    </g>
   </g>
  </g>
 </g>
 <defs>
  <clipPath id="pa26d81309a">
   <rect height="166.32" width="164.117647" x="90" y="25.92"/>
  </clipPath>
  <clipPath id="pa3dd80b1c3">
   <rect height="166.32" width="164.117647" x="286.941176" y="25.92"/>
  </clipPath>
  <clipPath id="p1332194c19">
   <rect height="166.32" width="164.117647" x="483.882353" y="25.92"/>
  </clipPath>
 </defs>
</svg>
